<svg width="20" height="21" viewBox="0 0 20 21" fill="none" xmlns="http://www.w3.org/2000/svg">
<g clip-path="url(#clip0_1571_2988)">
<path d="M10.1134 15.3687C10.0901 12.7654 12.2134 10.5587 14.8167 10.492C15.6967 10.4687 16.5234 10.682 17.2401 11.072V2.16536C17.2401 1.4287 16.6434 0.832031 15.9067 0.832031H2.24007C1.5034 0.832031 0.906738 1.4287 0.906738 2.16536V18.1654C0.906738 18.902 1.5034 19.4987 2.24007 19.4987H12.5201C11.0967 18.6687 10.1267 17.132 10.1134 15.3687ZM5.47674 8.52537C5.47674 7.95203 5.9434 7.48536 6.51674 7.48536H7.7534C7.7234 7.4487 7.6834 7.4087 7.6534 7.37537C7.34674 7.04537 6.83674 6.49203 6.83674 5.43537C6.83674 3.80203 8.07674 3.22203 9.13674 3.22203C10.2034 3.22203 11.3434 3.80203 11.3434 5.43537C11.3434 6.4587 10.8567 6.9787 10.5667 7.2887C10.5067 7.35203 10.4267 7.43537 10.4001 7.48203V7.4887H11.6334C12.2067 7.4887 12.6734 7.95537 12.6734 8.5287V10.222H5.47674V8.52537ZM6.24007 16.4187H3.92674C3.56007 16.4187 3.26007 16.1187 3.26007 15.752C3.26007 15.3854 3.56007 15.0854 3.92674 15.0854H6.24007C6.60674 15.0854 6.90674 15.3854 6.90674 15.752C6.90674 16.1187 6.60674 16.4187 6.24007 16.4187ZM8.5234 14.1587H3.92674C3.56007 14.1587 3.26007 13.8587 3.26007 13.492C3.26007 13.1254 3.56007 12.8254 3.92674 12.8254H8.5234C8.89007 12.8254 9.19007 13.1254 9.19007 13.492C9.19007 13.8587 8.89007 14.1587 8.5234 14.1587Z" fill="#B1BAD3"/>
<path fill-rule="evenodd" clip-rule="evenodd" d="M19.1939 15.2486C19.1939 17.595 17.2917 19.4971 14.9453 19.4971C12.5989 19.4971 10.6968 17.595 10.6968 15.2486C10.6968 12.9021 12.5989 11 14.9453 11C17.2917 11 19.1939 12.9021 19.1939 15.2486ZM14.7509 18.5036H15.276L15.276 17.784C15.8335 17.7348 16.2588 17.5675 16.5519 17.2822C16.8449 16.997 16.9914 16.6391 16.9914 16.2087C16.9914 15.9053 16.9207 15.6408 16.7794 15.4152C16.638 15.1895 16.4792 15.0379 16.3029 14.9601C16.1265 14.8823 15.7843 14.7708 15.276 14.6255V13.268C15.6339 13.2991 15.8802 13.5144 16.0151 13.9137L16.8047 13.7465C16.5921 13.0541 16.0825 12.6561 15.276 12.5523V11.9922H14.7509V12.5523C13.6488 12.6872 13.0978 13.1916 13.0978 14.0654C13.0978 14.4025 13.2015 14.6923 13.409 14.9348C13.6164 15.1773 14.0637 15.3776 14.7509 15.5357V17.0722C14.2245 17.0307 13.8861 16.7364 13.7357 16.1892L12.8994 16.3837C13.1691 17.2369 13.7863 17.7036 14.7509 17.784V18.5036ZM14.185 13.4372C14.3367 13.327 14.5253 13.2706 14.7509 13.268V14.575C14.2219 14.5049 13.9574 14.2885 13.9574 13.9254C13.9574 13.7102 14.0333 13.5475 14.185 13.4372ZM15.8887 16.8582C15.724 16.9983 15.5198 17.0696 15.276 17.0722V15.5824C15.8491 15.6888 16.1357 15.9312 16.1357 16.3098C16.1357 16.5354 16.0533 16.7182 15.8887 16.8582Z" fill="#B1BAD3"/>
</g>
<defs>
<clipPath id="clip0_1571_2988">
<rect width="20" height="20" fill="white" transform="translate(0 0.164062)"/>
</clipPath>
</defs>
</svg>
