<svg width="20" height="16" viewBox="0 0 20 16" fill="none" xmlns="http://www.w3.org/2000/svg">
  <path d="M18.6559 6.82099H15.0756C14.6675 6.82099 14.3385 7.15006 14.3385 7.57127V7.8082C14.3385 8.21624 14.6675 8.55847 15.0756 8.55847H18.6559C19.0639 8.55847 19.393 8.2294 19.393 7.8082V7.57127C19.393 7.15006 19.0639 6.82099 18.6559 6.82099ZM10.3502 0.397573C9.24449 1.29264 6.91468 2.55626 5.22985 3.76724C5.21669 3.7804 5.19036 3.84621 5.1772 3.85938C4.97976 3.97784 4.88762 4.28058 3.80828 4.28058H1.70224C1.16256 4.28058 0.833496 4.53068 0.833496 5.10984V10.2433C0.833496 10.8225 1.13624 11.0989 1.70224 11.0989H3.80828C4.87446 11.0989 4.9666 11.4148 5.16404 11.5201C5.1772 11.5333 5.20353 11.5991 5.21669 11.6122C6.83571 12.8232 9.19184 14.179 10.337 15.0345C10.6792 15.2978 11.8376 15.7453 11.8376 14.1526V1.21366C11.8507 -0.379028 10.6924 0.134319 10.3502 0.397573ZM13.654 3.93835C13.8383 4.28058 14.22 4.35956 14.4964 4.12263L17.4449 1.60855C17.7213 1.37162 17.7871 0.91092 17.6028 0.568689L17.4975 0.371248C17.3133 0.0290165 16.9315 -0.0499599 16.6551 0.186969L13.7067 2.70105C13.4302 2.93798 13.3644 3.39868 13.5487 3.74091L13.654 3.93835ZM14.4964 11.2568C14.22 11.0199 13.8383 11.112 13.654 11.4411L13.5487 11.6386C13.3644 11.9808 13.4302 12.4415 13.7067 12.6784L16.6551 15.1925C16.9315 15.4294 17.3133 15.3373 17.4975 15.0082L17.6028 14.8108C17.7871 14.4685 17.7213 14.0079 17.4449 13.7709L14.4964 11.2568Z" fill="#1FFF20"/>
</svg>
