<svg width="20" height="21" viewBox="0 0 20 21" fill="none" xmlns="http://www.w3.org/2000/svg">
  <path d="M18.6559 9.82099H15.0756C14.6675 9.82099 14.3385 10.1501 14.3385 10.5713V10.8082C14.3385 11.2162 14.6675 11.5585 15.0756 11.5585H18.6559C19.0639 11.5585 19.393 11.2294 19.393 10.8082V10.5713C19.393 10.1501 19.0639 9.82099 18.6559 9.82099ZM10.3502 3.39757C9.24449 4.29264 6.91468 5.55626 5.22985 6.76724C5.21669 6.7804 5.19036 6.84621 5.1772 6.85938C4.97976 6.97784 4.88762 7.28058 3.80828 7.28058H1.70224C1.16256 7.28058 0.833496 7.53068 0.833496 8.10984V13.2433C0.833496 13.8225 1.13624 14.0989 1.70224 14.0989H3.80828C4.87446 14.0989 4.9666 14.4148 5.16404 14.5201C5.1772 14.5333 5.20353 14.5991 5.21669 14.6122C6.83571 15.8232 9.19184 17.179 10.337 18.0345C10.6792 18.2978 11.8376 18.7453 11.8376 17.1526V4.21366C11.8507 2.62097 10.6924 3.13432 10.3502 3.39757ZM13.654 6.93835C13.8383 7.28058 14.22 7.35956 14.4964 7.12263L17.4449 4.60855C17.7213 4.37162 17.7871 3.91092 17.6028 3.56869L17.4975 3.37125C17.3133 3.02902 16.9315 2.95004 16.6551 3.18697L13.7067 5.70105C13.4302 5.93798 13.3644 6.39868 13.5487 6.74091L13.654 6.93835ZM14.4964 14.2568C14.22 14.0199 13.8383 14.112 13.654 14.4411L13.5487 14.6386C13.3644 14.9808 13.4302 15.4415 13.7067 15.6784L16.6551 18.1925C16.9315 18.4294 17.3133 18.3373 17.4975 18.0082L17.6028 17.8108C17.7871 17.4685 17.7213 17.0079 17.4449 16.7709L14.4964 14.2568Z" fill="#B1BAD3"/>
</svg>
