<svg width="20" height="20" viewBox="0 0 20 20" fill="none" xmlns="http://www.w3.org/2000/svg">
  <path d="M0.612793 4.6379C0.612793 3.89727 1.21319 3.29688 1.95382 3.29688H18.0461C18.7867 3.29688 19.3871 3.89727 19.3871 4.6379V6.43954H0.612793V4.6379Z" fill="#B1BAD3"/>
  <path fill-rule="evenodd" clip-rule="evenodd" d="M0.612793 7.28125H19.3871V15.3602C19.3871 16.1008 18.7867 16.7012 18.0461 16.7012H1.95382C1.21319 16.7012 0.612793 16.1008 0.612793 15.3602V7.28125ZM2.23189 9.51335C2.23189 9.26648 2.43202 9.06635 2.67889 9.06635H10.8933C11.1402 9.06635 11.3403 9.26648 11.3403 9.51335V9.96036C11.3403 10.2072 11.1402 10.4074 10.8933 10.4074H2.67889C2.43202 10.4074 2.23189 10.2072 2.23189 9.96036V9.51335ZM2.67889 12.286C2.43202 12.286 2.23189 12.4862 2.23189 12.733V13.18C2.23189 13.4269 2.43202 13.6271 2.67889 13.6271H7.54654C7.79341 13.6271 7.99355 13.4269 7.99355 13.18V12.733C7.99355 12.4862 7.79341 12.286 7.54654 12.286H2.67889Z" fill="#B1BAD3"/>
</svg>
