<svg width="20" height="20" viewBox="0 0 20 20" fill="none" xmlns="http://www.w3.org/2000/svg">
  <path fill-rule="evenodd" clip-rule="evenodd" d="M9.45364 16.4768H8.08333V17.786H7V16.4768H3.25V14.5717H4.88294V5.79462H3.25V4.0256H7V2.87891H8.08333V4.0256H9.84979C9.95736 4.0256 10.063 4.02676 10.1667 4.0291V2.87891H11.25V4.10757C11.9984 4.2071 12.5869 4.40059 12.9796 4.70599C13.5919 5.18227 13.9321 5.9307 13.9321 7.01932C13.9321 7.83579 13.728 8.44814 13.3198 8.92442C12.9115 9.40069 12.2992 9.67285 11.4827 9.80893C12.4353 9.945 13.1157 10.2852 13.5919 10.8295C13.6411 10.8786 13.6873 10.9299 13.7307 10.9834C13.6256 10.9754 13.5194 10.9714 13.4122 10.9714C12.6219 10.9714 11.8829 11.191 11.2529 11.5724C11.1818 11.4693 11.0992 11.38 11.0065 11.3058C10.6663 11.0336 10.0539 10.8976 9.1694 10.8976H7.46842V14.5717H9.27644C9.25057 14.7595 9.23721 14.9514 9.23721 15.1464C9.23721 15.6115 9.31327 16.0589 9.45364 16.4768ZM10.1667 17.7729V17.786H10.1773C10.1738 17.7816 10.1702 17.7772 10.1667 17.7729ZM9.30548 9.19657H7.53646V5.72658H9.23744C9.91783 5.72658 10.3941 5.86266 10.7343 6.13482C11.0745 6.40697 11.2106 6.81521 11.2106 7.35952C11.2106 7.97187 11.0745 8.44814 10.7343 8.7203C10.3941 9.0605 9.91783 9.19657 9.30548 9.19657Z" fill="#B1BAD3"/>
  <path fill-rule="evenodd" clip-rule="evenodd" d="M13.614 19.4594C15.9198 19.4594 17.789 17.5902 17.789 15.2844C17.789 12.9786 15.9198 11.1094 13.614 11.1094C11.3082 11.1094 9.43896 12.9786 9.43896 15.2844C9.43896 17.5902 11.3082 19.4594 13.614 19.4594ZM11.2717 14.9168C11.0687 14.9168 10.9041 15.0814 10.9041 15.2844C10.9041 15.4874 11.0687 15.6519 11.2717 15.6519H14.9059L13.6121 16.9457C13.4686 17.0892 13.4686 17.3219 13.6121 17.4655C13.7557 17.609 13.9884 17.609 14.1319 17.4655L16.0219 15.5755C16.0366 15.5647 16.0506 15.5526 16.0639 15.5394C16.2074 15.3958 16.2074 15.1631 16.0639 15.0196L14.1447 13.1003C14.0011 12.9568 13.7684 12.9568 13.6248 13.1003C13.4813 13.2439 13.4813 13.4766 13.6248 13.6201L14.9215 14.9168H11.2717Z" fill="#1FFF20"/>
  <path fill-rule="evenodd" clip-rule="evenodd" d="M13.614 19.4594C15.9198 19.4594 17.789 17.5902 17.789 15.2844C17.789 12.9786 15.9198 11.1094 13.614 11.1094C11.3082 11.1094 9.43896 12.9786 9.43896 15.2844C9.43896 17.5902 11.3082 19.4594 13.614 19.4594ZM11.2717 14.9168C11.0687 14.9168 10.9041 15.0814 10.9041 15.2844C10.9041 15.4874 11.0687 15.6519 11.2717 15.6519H14.9059L13.6121 16.9457C13.4686 17.0892 13.4686 17.3219 13.6121 17.4655C13.7557 17.609 13.9884 17.609 14.1319 17.4655L16.0219 15.5755C16.0366 15.5647 16.0506 15.5526 16.0639 15.5394C16.2074 15.3958 16.2074 15.1631 16.0639 15.0196L14.1447 13.1003C14.0011 12.9568 13.7684 12.9568 13.6248 13.1003C13.4813 13.2439 13.4813 13.4766 13.6248 13.6201L14.9215 14.9168H11.2717Z" fill="#1FFF20"/>
</svg>
