<svg width="20" height="21" viewBox="0 0 20 21" fill="none" xmlns="http://www.w3.org/2000/svg">
  <g clip-path="url(#clip0_275_5392)">
    <path d="M10.0124 2.00391C14.2922 2.00391 17.8055 5.21467 18.1831 9.3019H18.2131V11.5974H18.2031V17.105H18.7907C19.4671 17.105 20.0148 17.6501 20.0048 18.3115C20.0048 18.973 19.4571 19.5081 18.7795 19.5081H1.22529C1.06625 19.5101 0.908372 19.4807 0.760693 19.4216C0.613014 19.3625 0.478427 19.2749 0.36463 19.1638C0.250832 19.0527 0.160055 18.9202 0.0974888 18.774C0.0349228 18.6277 0.00179512 18.4706 0 18.3115C0 17.6489 0.547631 17.115 1.22529 17.115H1.81168V9.30065H1.84169C2.21928 5.20467 5.73262 2.00391 10.0124 2.00391ZM12.2404 5.65228L7.01417 9.3019L9.25471 11.4899L7.01542 15.8685L12.9868 11.4912L10.7476 9.3019L12.2404 5.65228Z" fill="#1FFF20"/>
  </g>
  <defs>
    <clipPath id="clip0_275_5392">
      <rect width="20" height="20" fill="white" transform="translate(0 0.757812)"/>
    </clipPath>
  </defs>
</svg>
