<svg width="20" height="21" viewBox="0 0 20 21" fill="none" xmlns="http://www.w3.org/2000/svg">
  <path fill-rule="evenodd" clip-rule="evenodd" d="M2.58089 1.96875C2.12065 1.96875 1.74756 2.34185 1.74756 2.80208V7.12388C1.74756 7.58412 2.12065 7.95721 2.58089 7.95721H17.4188C17.879 7.95721 18.2521 7.58412 18.2521 7.12388V2.80208C18.2521 2.34185 17.879 1.96875 17.4188 1.96875H2.58089ZM8.09567 4.33799C7.75049 4.33799 7.47067 4.61781 7.47067 4.96299C7.47067 5.30817 7.75049 5.58799 8.09567 5.58799H13.5123C13.8575 5.58799 14.1373 5.30817 14.1373 4.96299C14.1373 4.61781 13.8575 4.33799 13.5123 4.33799H8.09567Z" fill="#B1BAD3"/>
  <path fill-rule="evenodd" clip-rule="evenodd" d="M2.58089 13.5586C2.12065 13.5586 1.74756 13.9317 1.74756 14.3919V18.7137C1.74756 19.174 2.12065 19.5471 2.58089 19.5471H17.4188C17.879 19.5471 18.2521 19.174 18.2521 18.7137V14.3919C18.2521 13.9317 17.879 13.5586 17.4188 13.5586H2.58089ZM8.09562 15.9278C7.75044 15.9278 7.47062 16.2076 7.47062 16.5528C7.47062 16.898 7.75044 17.1778 8.09562 17.1778H13.5123C13.8575 17.1778 14.1373 16.898 14.1373 16.5528C14.1373 16.2076 13.8575 15.9278 13.5123 15.9278H8.09562Z" fill="#B1BAD3"/>
  <path d="M6.83984 7.98828V10.7524H14.7679V14.118" stroke="#B1BAD3" stroke-width="1.25" stroke-linecap="round" stroke-linejoin="round"/>
</svg>
