<svg width="20" height="21" viewBox="0 0 20 21" fill="none" xmlns="http://www.w3.org/2000/svg">
  <path d="M13.5338 8.71767C10.4801 8.71767 8.00549 11.0554 8.00549 13.9391C8.00549 16.8229 10.4806 19.1606 13.5338 19.1606C16.587 19.1606 19.062 16.8229 19.062 13.9391C19.062 11.0554 16.587 8.71767 13.5338 8.71767ZM16.0592 15.5717C15.9767 16.0773 15.6791 17.1826 14.0666 17.293V18.2611H12.9277V17.3006C12.2471 17.2102 11.6199 17.0439 10.9749 16.8401L11.3169 15.5761C11.8281 15.7643 12.5015 15.9662 13.0944 16.031C13.8986 16.1197 14.4412 15.963 14.4915 15.4126C14.6062 14.4476 11.0231 14.2777 11.057 12.5368C11.0079 11.258 11.9902 10.7008 12.9692 10.6236V9.61709H14.1077V10.5773C14.7544 10.5853 15.2665 10.7164 15.765 10.9227L15.4493 12.1139C14.9482 11.9356 14.4361 11.7685 13.8228 11.7685C13.4258 11.7685 12.5921 11.7697 12.5629 12.2862C12.5629 13.1768 14.1398 13.2224 14.6634 13.4326C15.0451 13.5857 15.3109 13.7356 15.5826 13.9863C16.0571 14.424 16.1553 14.988 16.0592 15.5717ZM7.74478 2.17188C3.98478 2.17188 0.9375 3.59976 0.9375 5.36143C0.9375 7.12269 3.98478 8.55098 7.74478 8.55098C11.5039 8.55098 14.5512 7.12309 14.5512 5.36143C14.5512 3.59976 11.5039 2.17188 7.74478 2.17188ZM10.8543 6.35879C10.7527 6.66779 10.3862 7.34255 8.40079 7.41011V8.00133H6.99862V7.41451C6.16104 7.35934 5.38822 7.25741 4.59381 7.13269L5.01493 6.36078C5.64427 6.47591 6.47296 6.59903 7.20346 6.63861C8.19341 6.69257 8.86169 6.59703 8.92348 6.26085C9.06484 5.67123 4.65306 5.56769 4.69454 4.50438C4.63402 3.72328 5.84404 3.3827 7.04856 3.33593V2.72152H8.45031V3.30835C9.24683 3.31274 9.87703 3.39309 10.4907 3.51901L10.1022 4.24654C9.48511 4.13781 8.85492 4.03548 8.09945 4.03548C7.61061 4.03548 6.5847 4.03628 6.54872 4.35167C6.54872 4.89573 8.49009 4.92371 9.13467 5.05163C9.60489 5.14516 9.93205 5.23671 10.2664 5.39021C10.8513 5.65764 10.9719 6.00221 10.8543 6.35879ZM9.89015 9.36925C9.21509 9.47438 8.49517 9.53355 7.74478 9.53355C4.50493 9.53355 1.79963 8.47223 1.11145 7.05194C1.00099 7.27979 0.9375 7.51644 0.9375 7.75989C0.9375 9.52115 3.98478 10.9494 7.74478 10.9494C7.92761 10.9494 8.10664 10.943 8.28567 10.9366C8.70679 10.3198 9.25149 9.78618 9.89015 9.36925ZM14.3646 8.49062C14.4822 8.25597 14.5508 8.01212 14.5508 7.76028C14.5508 7.51644 14.4873 7.28019 14.3768 7.05234C14.1322 7.55761 13.6281 8.01612 12.9395 8.39867C13.0365 8.39428 13.1313 8.38468 13.229 8.38468C13.618 8.38468 13.9972 8.42226 14.3646 8.49062ZM7.74478 11.6322C4.50493 11.6322 1.79963 10.5709 1.11145 9.15059C1.00099 9.37845 0.9375 9.61509 0.9375 9.85854C0.9375 11.5698 3.81633 12.9625 7.42778 13.0405C7.51412 12.5448 7.66817 12.0711 7.8836 11.629C7.83747 11.6298 7.79133 11.6322 7.74478 11.6322ZM7.35794 13.7229C4.29204 13.6421 1.77212 12.6124 1.11145 11.2492C1.00099 11.4771 0.9375 11.7137 0.9375 11.9572C0.9375 13.6781 3.84892 15.0772 7.48957 15.1403C7.399 14.753 7.34779 14.3517 7.34779 13.9387C7.34779 13.8664 7.35456 13.7952 7.35794 13.7229ZM1.11145 13.3479C1.00099 13.5757 0.9375 13.8124 0.9375 14.0558C0.9375 15.8171 3.98478 17.2454 7.74478 17.2454C7.99787 17.2454 8.24673 17.2378 8.49221 17.2254C8.16336 16.8021 7.89968 16.3316 7.70669 15.8287C4.48377 15.8203 1.79666 14.7626 1.11145 13.3479ZM9.08389 17.8638C8.6505 17.9046 8.20399 17.9282 7.74478 17.9282C4.50493 17.9282 1.79963 16.8668 1.11145 15.4465C1.00099 15.6744 0.9375 15.911 0.9375 16.1545C0.9375 17.9158 3.98478 19.344 7.74478 19.344C8.85322 19.344 9.89649 19.2173 10.8213 18.9971C10.1695 18.7196 9.58288 18.3351 9.08389 17.8638Z" fill="#B1BAD3"/>
</svg>

