<svg width="20" height="20" viewBox="0 0 20 20" fill="none" xmlns="http://www.w3.org/2000/svg">
  <g clip-path="url(#clip0_261_4881)">
    <path d="M2.4375 3.07812V19.4062H17.5273V3.07812H2.4375ZM12.6562 9.19531V10.0547H10.5742V11.248H12.6562V12.1113H10.5742V13.8281H9.4375V12.1113H7.29102V11.248H9.4375V10.0547H7.29102V9.19531H9.09961L7.33203 6.14258H8.63281L9.73438 8.33594C9.82031 8.50586 9.91602 8.71875 10.0273 8.98047H10.0508C10.1289 8.77148 10.2305 8.54688 10.3555 8.30859L11.4629 6.14258H12.6797L10.8828 9.19531H12.6562ZM19.2617 0.546875H0.707031C0.316406 0.546875 0 0.845703 0 1.21484V2.4082C0 2.77734 0.316406 3.07617 0.707031 3.07617H19.2617C19.6523 3.07617 19.9688 2.77734 19.9688 2.4082V1.21484C19.9707 0.845703 19.6523 0.546875 19.2617 0.546875ZM18.1426 2.0625H1.82617C1.69727 2.0625 1.5957 1.96484 1.5957 1.84375C1.5957 1.72266 1.69727 1.625 1.82617 1.625H18.1426C18.2715 1.625 18.373 1.72266 18.373 1.84375C18.3711 1.9668 18.2695 2.0625 18.1426 2.0625Z" fill="#B1BAD3"/>
  </g>
  <defs>
    <clipPath id="clip0_261_4881">
      <rect width="20" height="20" fill="white"/>
    </clipPath>
  </defs>
</svg>
