<svg width="20" height="21" viewBox="0 0 20 21" fill="none" xmlns="http://www.w3.org/2000/svg">
  <path d="M16.9034 2.32031H3.09659C2.25284 2.32031 1.5625 3.01066 1.5625 3.85441V17.6613C1.5625 18.505 2.25284 19.1954 3.09659 19.1954H16.9034C17.7472 19.1954 18.4375 18.505 18.4375 17.6613V3.85441C18.4375 3.01066 17.7472 2.32031 16.9034 2.32031ZM6.89348 15.8203V16.7792L5.97302 16.4723L5.05256 16.7792V15.8203L4.47728 15.0149L5.39774 14.7081L5.97302 13.9411L6.54831 14.7081L7.46876 15.0149L6.89348 15.8203ZM6.89348 11.2181V12.1769L5.97302 11.87L5.05256 12.1769V11.2181L4.47728 10.4127L5.39774 10.1058L5.97302 9.33879L6.54831 10.1058L7.46876 10.4127L6.89348 11.2181ZM6.89348 6.61578V7.57459L5.97302 7.30612L5.05256 7.61294V6.65413L4.47728 5.81038L5.39774 5.50356L5.97302 4.73651L6.54831 5.50356L7.46876 5.81038L6.89348 6.61578ZM15.1009 15.7436H8.96451C8.73439 15.7436 8.58098 15.5902 8.58098 15.3601C8.58098 15.13 8.73439 14.9766 8.96451 14.9766H15.1009C15.331 14.9766 15.4844 15.13 15.4844 15.3601C15.4844 15.5519 15.331 15.7436 15.1009 15.7436ZM15.1009 11.1414H8.96451C8.73439 11.1414 8.58098 10.9879 8.58098 10.7578C8.58098 10.5277 8.73439 10.3743 8.96451 10.3743H15.1009C15.331 10.3743 15.4844 10.5277 15.4844 10.7578C15.4844 10.9879 15.2926 11.1414 15.1009 11.1414ZM15.1009 6.53907H8.96451C8.73439 6.53907 8.58098 6.38566 8.58098 6.15555C8.58098 5.92543 8.73439 5.77202 8.96451 5.77202H15.1009C15.331 5.77202 15.4844 5.92543 15.4844 6.15555C15.4844 6.38566 15.2926 6.53907 15.1009 6.53907Z" fill="#1FFF20"/>
</svg>

