<svg width="14" height="14" viewBox="0 0 14 14" fill="none" xmlns="http://www.w3.org/2000/svg">
  <g clip-path="url(#clip0_390_3145)">
    <path d="M7 14C10.866 14 14 10.866 14 7C14 3.13396 10.866 0 7 0C3.13396 0 0 3.13396 0 7C0 10.866 3.13396 14 7 14Z" fill="#309E3A"/>
    <path d="M7.00011 2.73926L12.7827 7.00007L7.00011 11.2609L1.21753 7.00007L7.00011 2.73926Z" fill="#FFDA44"/>
    <path d="M7.00002 9.4351C8.3446 9.4351 9.43485 8.34499 9.43485 7.00026C9.43485 5.65568 8.34475 4.56543 7.00002 4.56543C5.65544 4.56543 4.56519 5.65553 4.56519 7.00026C4.56519 8.34485 5.65529 9.4351 7.00002 9.4351Z" fill="white"/>
    <path d="M5.7827 6.84816C5.35935 6.84816 4.95072 6.91247 4.56616 7.03191C4.58322 8.36191 5.66604 9.4351 7.00012 9.4351C7.8251 9.4351 8.55354 9.02443 8.99395 8.39676C8.24043 7.45366 7.08106 6.84816 5.7827 6.84816ZM9.38975 7.46678C9.41971 7.31308 9.43485 7.15686 9.43495 7.00026C9.43495 5.65568 8.34485 4.56543 7.00012 4.56543C5.99679 4.56543 5.1355 5.17253 4.76275 6.03937C5.09833 5.9699 5.44015 5.93496 5.78285 5.9351C7.19685 5.9351 8.47625 6.5228 9.38975 7.46678Z" fill="#0052B4"/>
  </g>
  <defs>
    <clipPath id="clip0_390_3145">
      <rect width="14" height="14" fill="white"/>
    </clipPath>
  </defs>
</svg>

