<svg width="16" height="16" viewBox="0 0 16 16" fill="none" xmlns="http://www.w3.org/2000/svg">
  <g clip-path="url(#clip0_390_3125)">
    <g clip-path="url(#clip1_390_3125)">
      <path d="M8 16C12.4183 16 16 12.4183 16 8C16 3.58167 12.4183 0 8 0C3.58167 0 0 3.58167 0 8C0 12.4183 3.58167 16 8 16Z" fill="#EE1C25"/>
      <path d="M4.37805 4.86882L5.06871 6.99382H7.30305L5.49655 8.30949L6.18721 10.4345L4.37788 9.12199L2.56855 10.4345L3.26221 8.30949L1.45288 6.99382H3.68721L4.37805 4.86882ZM9.48421 12.3908L8.95605 11.7408L8.17488 12.044L8.62805 11.3407L8.09988 10.6877L8.90921 10.9033L9.36555 10.2002L9.40921 11.0377L10.2217 11.2533L9.43738 11.5533L9.48421 12.3908ZM10.5342 10.4845L10.7842 9.68449L10.0999 9.20015L10.9374 9.18765L11.1842 8.38765L11.4562 9.18132L12.2937 9.17199L11.6217 9.67199L11.8905 10.4658L11.2062 9.98149L10.5342 10.4845ZM11.9499 5.87199L11.581 6.62515L12.181 7.20949L11.353 7.09082L10.9842 7.84082L10.8405 7.01582L10.0092 6.89699L10.753 6.50649L10.6092 5.67815L11.2092 6.26265L11.9499 5.87199ZM9.50621 3.59082L9.44371 4.42515L10.2217 4.74082L9.40605 4.94082L9.34671 5.77832L8.90605 5.06582L8.09055 5.26582L8.63121 4.62515L8.18738 3.91582L8.96555 4.23132L9.50621 3.59082Z" fill="#FFDA44"/>
    </g>
  </g>
  <defs>
    <clipPath id="clip0_390_3125">
      <rect width="16" height="16" fill="white"/>
    </clipPath>
    <clipPath id="clip1_390_3125">
      <rect width="16" height="16" fill="white"/>
    </clipPath>
  </defs>
</svg>

