<svg width="58" height="58" viewBox="0 0 58 58" fill="none" xmlns="http://www.w3.org/2000/svg">
<mask id="mask0_3663_2629" style="mask-type:luminance" maskUnits="userSpaceOnUse" x="0" y="0" width="58" height="58">
<path d="M29 58C45.0163 58 58 45.0163 58 29C58 12.9837 45.0163 0 29 0C12.9837 0 0 12.9837 0 29C0 45.0163 12.9837 58 29 58Z" fill="white"/>
</mask>
<g mask="url(#mask0_3663_2629)">
<path d="M0 18.125L29 14.5L58 18.125V39.875L29 43.5L0 39.875V18.125Z" fill="#EEEEEE"/>
<path d="M0 0H58V18.125H0V0Z" fill="#FF9811"/>
<path d="M0 39.875H58V58H0V39.875Z" fill="#6DA544"/>
<path d="M29 37.1562C33.5046 37.1562 37.1562 33.5046 37.1562 29C37.1562 24.4954 33.5046 20.8438 29 20.8438C24.4954 20.8438 20.8438 24.4954 20.8438 29C20.8438 33.5046 24.4954 37.1562 29 37.1562Z" fill="#0052B4"/>
<path d="M29 34.4375C32.003 34.4375 34.4375 32.003 34.4375 29C34.4375 25.997 32.003 23.5625 29 23.5625C25.997 23.5625 23.5625 25.997 23.5625 29C23.5625 32.003 25.997 34.4375 29 34.4375Z" fill="#EEEEEE"/>
<path d="M29 31.7188C30.5015 31.7188 31.7188 30.5015 31.7188 29C31.7188 27.4985 30.5015 26.2812 29 26.2812C27.4985 26.2812 26.2812 27.4985 26.2812 29C26.2812 30.5015 27.4985 31.7188 29 31.7188Z" fill="#0052B4"/>
</g>
</svg>
