<svg width="58" height="58" viewBox="0 0 58 58" fill="none" xmlns="http://www.w3.org/2000/svg">
<mask id="mask0_3663_2628" style="mask-type:luminance" maskUnits="userSpaceOnUse" x="0" y="0" width="58" height="58">
<path d="M29 58C45.0163 58 58 45.0163 58 29C58 12.9837 45.0163 0 29 0C12.9837 0 0 12.9837 0 29C0 45.0163 12.9837 58 29 58Z" fill="white"/>
</mask>
<g mask="url(#mask0_3663_2628)">
<path d="M0 0H58V58H0V0Z" fill="#EEEEEE"/>
<path d="M39.6484 37.9492L42.3672 35.2305L44.1797 37.043L41.4609 39.6484L39.6484 37.9492ZM35.2305 42.3672L37.9492 39.6484L39.6484 41.4609L37.043 44.1797L35.2305 42.3672ZM45.0859 43.2734L47.6914 40.5547L49.5039 42.3672L46.7852 45.0859L45.0859 43.2734ZM40.5547 47.6914L43.2734 45.0859L45.0859 46.7852L42.3672 49.5039L40.5547 47.6914ZM42.3672 40.5547L45.0859 37.9492L46.7852 39.6484L44.1797 42.3672L42.3672 40.5547ZM37.9492 45.0859L40.5547 42.3672L42.3672 44.1797L39.6484 46.7852L37.9492 45.0859ZM45.0859 20.0508L37.9492 12.9141L39.6484 11.2148L46.8984 18.3516L45.0859 20.0508ZM37.9492 18.3516L35.2305 15.6328L37.043 13.8203L39.6484 16.5391L37.9492 18.3516ZM42.3672 22.7695L39.6484 20.0508L41.4609 18.3516L44.1797 20.957L42.3672 22.7695ZM43.2734 12.9141L40.5547 10.3086L42.3672 8.49609L45.0859 11.2148L43.2734 12.9141ZM47.6914 17.4453L45.0859 14.7266L46.7852 12.9141L49.5039 15.6328L47.6914 17.4453ZM10.3086 40.5547L17.4453 47.6914L15.6328 49.5039L8.49609 42.3672L10.3086 40.5547ZM17.4453 42.3672L20.0508 45.0859L18.3516 46.7852L15.6328 44.1797L17.4453 42.3672ZM12.9141 37.9492L15.6328 40.5547L13.8203 42.3672L11.2148 39.6484L12.9141 37.9492ZM15.6328 35.2305L22.7695 42.3672L20.957 44.1797L13.8203 37.043L15.6328 35.2305ZM17.4453 10.3086L10.3086 17.4453L8.49609 15.6328L15.6328 8.49609L17.4453 10.3086ZM20.0508 12.9141L12.9141 20.0508L11.2148 18.2383L18.3516 11.1016L20.0508 12.9141ZM22.7695 15.6328L15.6328 22.7695L13.8203 20.957L20.957 13.8203L22.7695 15.6328Z" fill="#333333"/>
<path d="M36.1367 36.1367L21.8633 21.8633C22.8005 20.9261 23.9131 20.1827 25.1376 19.6754C26.3622 19.1682 27.6746 18.9072 29 18.9072C30.3254 18.9072 31.6378 19.1682 32.8624 19.6754C34.0869 20.1827 35.1995 20.9261 36.1367 21.8633C37.0739 22.8005 37.8174 23.9131 38.3246 25.1376C38.8318 26.3622 39.0928 27.6746 39.0928 29C39.0928 30.3254 38.8318 31.6379 38.3246 32.8624C37.8174 34.0869 37.0739 35.1995 36.1367 36.1367Z" fill="#D80027"/>
<path d="M36.1368 36.1367C35.1996 37.0739 34.087 37.8174 32.8624 38.3246C31.6379 38.8318 30.3255 39.0928 29.0001 39.0928C27.6747 39.0928 26.3622 38.8318 25.1377 38.3246C23.9132 37.8174 22.8006 37.0739 21.8634 36.1367C20.9261 35.1995 20.1827 34.0869 19.6755 32.8624C19.1683 31.6378 18.9072 30.3254 18.9072 29C18.9072 27.6746 19.1683 26.3622 19.6755 25.1376C20.1827 23.9131 20.9261 22.8005 21.8634 21.8633L36.1368 36.1367Z" fill="#0052B4"/>
<path d="M25.4316 30.4727C28.2157 30.4727 30.4727 28.2157 30.4727 25.4316C30.4727 22.6476 28.2157 20.3906 25.4316 20.3906C22.6476 20.3906 20.3906 22.6476 20.3906 25.4316C20.3906 28.2157 22.6476 30.4727 25.4316 30.4727Z" fill="#D80027"/>
<path d="M32.5684 37.6094C35.3524 37.6094 37.6094 35.3524 37.6094 32.5684C37.6094 29.7843 35.3524 27.5273 32.5684 27.5273C29.7843 27.5273 27.5273 29.7843 27.5273 32.5684C27.5273 35.3524 29.7843 37.6094 32.5684 37.6094Z" fill="#0052B4"/>
</g>
</svg>
