<svg width="16" height="16" viewBox="0 0 16 16" fill="none" xmlns="http://www.w3.org/2000/svg">
  <g clip-path="url(#clip0_390_3132)">
    <path d="M8 16C12.4183 16 16 12.4183 16 8C16 3.58167 12.4183 0 8 0C3.58167 0 0 3.58167 0 8C0 12.4183 3.58167 16 8 16Z" fill="#F0F0F0"/>
    <path d="M1.65363 3.12939C1.01621 3.95794 0.547989 4.90379 0.275635 5.91306H4.4373L1.6538 3.12939H1.65363ZM15.7243 5.91306C15.4519 4.90378 14.9836 3.95794 14.3461 3.12939L11.5626 5.91306H15.7243ZM0.275635 10.0869C0.548005 11.0962 1.01623 12.042 1.65363 12.8706L4.4373 10.0869H0.275635ZM12.8705 1.65372C12.042 1.01621 11.0962 0.547874 10.087 0.275391V4.43722L12.8705 1.65372ZM3.12947 14.3461C3.95795 14.9836 4.90373 15.4519 5.91297 15.7244V11.5624L3.12947 14.3461ZM5.91297 0.275557C4.90376 0.547948 3.95798 1.01617 3.12947 1.65356L5.91297 4.43722V0.275557ZM10.087 15.7242C11.0962 15.4518 12.042 14.9835 12.8705 14.3461L10.087 11.5626V15.7242ZM11.5626 10.0869L14.3461 12.8706C14.9837 12.042 15.452 11.0962 15.7245 10.0869H11.5626Z" fill="#0052B4"/>
    <path d="M15.9323 6.95683H9.04333V0.0676653C8.35059 -0.0225551 7.64907 -0.0225551 6.95633 0.0676653V6.95683H0.0676653C-0.0225551 7.64957 -0.0225551 8.35109 0.0676653 9.04383H6.95667V15.9327C7.64941 16.0229 8.35092 16.0229 9.04366 15.9327V9.0435H15.9325C16.0227 8.35076 16.0227 7.64924 15.9325 6.9565L15.9323 6.95683Z" fill="#D80027"/>
    <path d="M10.087 10.087L13.657 13.657C13.8211 13.4927 13.9779 13.3213 14.127 13.1434L11.071 10.087H10.087ZM5.91305 10.087L2.34305 13.657C2.50739 13.8211 2.67877 13.9779 2.85671 14.127L5.91305 11.0707V10.087ZM5.91305 5.91321L2.34305 2.34321C2.17903 2.5075 2.02221 2.67883 1.87305 2.85671L4.92938 5.91305L5.91305 5.91321ZM10.087 5.91321L13.657 2.34321C13.4927 2.17913 13.3213 2.02226 13.1434 1.87305L10.087 4.92938V5.91321Z" fill="#D80027"/>
  </g>
  <defs>
    <clipPath id="clip0_390_3132">
      <rect width="16" height="16" fill="white"/>
    </clipPath>
  </defs>
</svg>

