<svg width="41" height="40" viewBox="0 0 41 40" fill="none" xmlns="http://www.w3.org/2000/svg">
<g clip-path="url(#clip0_1337_5343)">
<path d="M6.09072 31.9151V13.8841L2.62371 17.5433L1 15.8909L6.41864 10.3271H8.79065V31.9151H6.09072Z" fill="#557086"/>
<path d="M13.0189 26.4449C13.0189 23.5636 15.4848 21.5871 18.1775 20.7803C15.6784 20.06 13.3728 18.4493 13.3728 15.6041C13.3598 11.7144 17.162 10 20.7619 10C24.3618 10 28.1914 11.7187 28.1914 15.6041C28.1914 18.4493 25.8598 20.0701 23.3621 20.7803C26.0346 21.5871 28.5193 23.5665 28.5193 26.4449C28.5193 30.1027 25.0119 32.3011 20.7619 32.3011C16.5119 32.3011 13.0189 30.1358 13.0189 26.4449ZM25.8064 26.1568C25.8064 23.3446 22.1054 22.159 20.7763 21.9789C19.4401 22.1388 15.7116 23.3115 15.7116 26.1568C15.7116 28.4892 18.0836 29.9154 20.7763 29.9154C23.469 29.9154 25.7934 28.4892 25.7934 26.1568H25.8064ZM25.4799 15.9642C25.4799 13.7313 23.3752 12.4059 20.8023 12.4059C18.2295 12.4059 16.1262 13.7313 16.1262 15.9642C16.1262 18.5891 19.5398 19.4621 20.8356 19.6883C22.0924 19.4621 25.4582 18.5891 25.4582 15.9642H25.4799Z" fill="#557086"/>
<path d="M37.0713 22.4474V26.8975H34.8004V22.4474H30.8914V20.3815H34.8134V16.0898H37.0713V20.3815H40.9933V22.4474H37.0713Z" fill="#557086"/>
</g>
<defs>
<clipPath id="clip0_1337_5343">
<rect width="40" height="40" fill="white" transform="translate(0.5)"/>
</clipPath>
</defs>
</svg>
