<svg xmlns="http://www.w3.org/2000/svg" width="24" height="24" viewBox="0 0 24 24" fill="none">
  <path d="M4.13021 6.67973C4.13021 5.6255 4.98483 4.77087 6.03907 4.77087H8.90235C9.95661 4.77087 10.8112 5.6255 10.8112 6.67973V9.54301C10.8112 10.5973 9.95661 11.4519 8.90235 11.4519H6.03907C4.98483 11.4519 4.13021 10.5973 4.13021 9.54301V6.67973Z" fill="#01875F"/>
  <path d="M12.7201 6.67973C12.7201 5.6255 13.5746 4.77087 14.6289 4.77087H17.4922C18.5465 4.77087 19.401 5.6255 19.401 6.67973V9.54301C19.401 10.5973 18.5465 11.4519 17.4922 11.4519H14.6289C13.5746 11.4519 12.7201 10.5973 12.7201 9.54301V6.67973Z" fill="#01875F"/>
  <path d="M12.7201 15.2696C12.7201 14.2153 13.5746 13.3607 14.6289 13.3607H17.4922C18.5465 13.3607 19.401 14.2153 19.401 15.2696V18.1329C19.401 19.1871 18.5465 20.0417 17.4922 20.0417H14.6289C13.5746 20.0417 12.7201 19.1871 12.7201 18.1329V15.2696Z" fill="#01875F"/>
  <path d="M4.13021 15.2696C4.13021 14.2153 4.98483 13.3607 6.03907 13.3607H8.90235C9.95661 13.3607 10.8112 14.2153 10.8112 15.2696V18.1329C10.8112 19.1871 9.95661 20.0417 8.90235 20.0417H6.03907C4.98483 20.0417 4.13021 19.1871 4.13021 18.1329V15.2696Z" fill="#01875F"/>
</svg>