<svg xmlns="http://www.w3.org/2000/svg" width="23" height="24" viewBox="0 0 23 24" fill="none">
  <g clip-path="url(#clip0_15655_1804)">
    <mask id="mask0_15655_1804" style="mask-type:luminance" maskUnits="userSpaceOnUse" x="0" y="0" width="23" height="24">
      <path d="M22.9844 0.953125H0.078125V23.8594H22.9844V0.953125Z" fill="white"/>
    </mask>
    <g mask="url(#mask0_15655_1804)">
      <path fill-rule="evenodd" clip-rule="evenodd" d="M21.13 12.8423C21.0394 12.0265 20.8735 11.2108 20.6947 10.3325C20.6584 10.1538 20.6215 9.97253 20.5847 9.78814C20.4756 9.24292 20.4756 9.24272 20.3665 8.80645L20.2575 8.47922C19.9302 5.64321 17.5305 3.67981 14.5854 3.67981H7.38631C4.55029 3.67981 2.04152 5.64321 1.60521 8.47922C1.60521 8.51384 1.60521 8.53746 1.60172 8.56057C1.59422 8.61026 1.57059 8.65753 1.49613 8.80645C1.49613 9.24276 1.49613 9.24276 1.38706 9.78814C1.27797 10.279 1.19617 10.7971 1.11436 11.3152C1.03255 11.8334 0.950744 12.3514 0.841667 12.8423C0.187203 16.66 0.078125 17.3144 0.078125 17.5326C0.078125 19.1688 1.38706 20.5868 3.13229 20.5868C4.00491 20.5868 4.76846 20.2596 5.31384 19.7142L8.47708 16.66H13.6037L16.767 19.8232C17.3123 20.3686 18.0759 20.6959 18.9485 20.6959C20.5847 20.6959 22.0027 19.387 22.0027 17.6417C21.8996 17.3325 21.7965 16.731 21.2333 13.4441L21.13 12.8423ZM14.2581 9.13368C14.8004 9.13368 15.2399 8.69417 15.2399 8.15199C15.2399 7.60981 14.8004 7.17029 14.2581 7.17029C13.7159 7.17029 13.2765 7.60981 13.2765 8.15199C13.2765 8.69417 13.7159 9.13368 14.2581 9.13368ZM17.3123 10.2245C17.3123 10.7666 16.8729 11.2061 16.3307 11.2061C15.7885 11.2061 15.349 10.7666 15.349 10.2245C15.349 9.68228 15.7885 9.24276 16.3307 9.24276C16.8729 9.24276 17.3123 9.68228 17.3123 10.2245ZM11.5312 9.56999C11.204 9.89722 11.204 10.5517 11.5312 10.8789C11.8585 11.2061 12.513 11.2061 12.8402 10.8789C13.1674 10.5517 13.1674 9.89722 12.8402 9.56999C12.513 9.24276 11.9675 9.24276 11.5312 9.56999ZM14.2581 13.2786C14.8004 13.2786 15.2399 12.8391 15.2399 12.2969C15.2399 11.7547 14.8004 11.3152 14.2581 11.3152C13.7159 11.3152 13.2765 11.7547 13.2765 12.2969C13.2765 12.8391 13.7159 13.2786 14.2581 13.2786ZM7.05908 7.49752H8.368V9.56999H10.4404V10.8789H8.368V12.9514H7.05908V10.8789H4.98661V9.56999H7.05908V7.49752ZM18.0759 18.1871C18.294 18.4053 18.5122 18.5143 18.8394 18.5143C19.4939 18.5143 19.9302 18.078 19.9302 17.4235C19.9302 17.5326 18.4031 8.91553 18.4031 8.80645C18.0759 6.95213 16.4398 5.64321 14.5854 5.64321H7.38631C5.42292 5.64321 3.89583 6.95213 3.5686 8.80645C3.5686 8.91553 2.04152 17.5326 2.04152 17.5326C2.04152 18.1871 2.5869 18.6234 3.13229 18.6234C3.45953 18.6234 3.67768 18.5143 3.89583 18.2962L7.60446 14.5875H14.3672L14.6945 14.8057L18.0759 18.1871Z" fill="#5F6368"/>
    </g>
  </g>
  <defs>
    <clipPath id="clip0_15655_1804">
      <rect width="22.9062" height="22.9062" fill="white" transform="translate(0.078125 0.953125)"/>
    </clipPath>
  </defs>
</svg>