<svg xmlns="http://www.w3.org/2000/svg" width="23" height="24" viewBox="0 0 23 24" fill="none">
  <g clip-path="url(#clip0_15655_1835)">
    <path fill-rule="evenodd" clip-rule="evenodd" d="M11.4683 20.4607C12.5704 20.7928 16.457 21.9506 16.8415 21.9506C17.6068 21.9506 18.081 21.5478 18.2967 21.3063C18.8225 20.7175 18.8206 20.0994 18.8177 19.1631V19.1579C18.8168 18.7504 18.7509 16.3299 18.7232 15.3889C19.3197 14.5557 20.9094 12.3175 21.1661 11.9291C21.709 11.1111 22.1775 10.4029 21.8693 9.4552C21.5593 8.50131 20.7834 8.21668 19.8784 7.88478L19.8769 7.88422C19.4618 7.73246 16.9904 6.92215 16.0686 6.62437C15.4798 5.82742 13.872 3.67137 13.5885 3.31633L13.5874 3.31485C12.9839 2.55957 12.4629 1.90759 11.4683 1.90759C10.4739 1.90759 9.95197 2.56042 9.34798 3.31728C9.06457 3.67137 7.45671 5.82742 6.8689 6.62437C5.94616 6.92311 3.47472 7.73246 3.05486 7.88708C2.15503 8.21636 1.37828 8.50077 1.06816 9.4552C0.759951 10.4029 1.22848 11.1111 1.77143 11.93C2.02048 12.3051 3.61786 14.5557 4.21425 15.3889C4.18657 16.3299 4.12074 18.7494 4.11883 19.1579C4.11596 20.097 4.11407 20.7174 4.63983 21.3054C4.85453 21.5459 5.32878 21.9506 6.09598 21.9506C6.47957 21.9506 10.3661 20.7928 11.4683 20.4607ZM16.8153 15.445C16.8552 16.8065 16.9081 18.848 16.9089 19.1624C16.911 19.8557 16.9054 19.977 16.8838 20.0195C16.7769 19.9944 16.6398 19.96 16.4768 19.9175C16.0873 19.8159 15.5679 19.672 14.9488 19.4949C14.0063 19.2254 12.897 18.8976 12.0191 18.6331L11.4683 18.4671L10.9175 18.6331C10.0399 18.8975 8.93036 19.2254 7.98787 19.4949C7.36872 19.672 6.84937 19.8159 6.45997 19.9175C6.29716 19.9601 6.16024 19.9944 6.05336 20.0194C6.03141 19.9774 6.02555 19.8576 6.02767 19.1637C6.02915 18.8475 6.08309 16.7779 6.12227 15.445L6.1412 14.8014L5.76645 14.2778C4.97736 13.1754 3.55583 11.1666 3.36166 10.8741C2.89307 10.1674 2.86691 10.0964 2.88344 10.0455C2.90202 9.98836 2.94376 9.96038 3.71083 9.67968C4.02863 9.56265 6.11824 8.87379 7.45685 8.44043L8.04078 8.25137L8.4051 7.75743C9.15085 6.74633 10.6165 4.78717 10.8383 4.51007C11.3592 3.85731 11.4116 3.81645 11.4683 3.81645C11.5155 3.81645 11.5474 3.83743 11.8534 4.20615C11.9167 4.2825 11.9699 4.34852 12.0973 4.50794C12.3171 4.78331 13.7607 6.71288 14.5332 7.75861L14.8979 8.25217L15.4818 8.4408C16.7054 8.83607 18.9015 9.56004 19.2215 9.67701C19.3078 9.70869 19.3089 9.70906 19.3919 9.73975C19.9991 9.96499 20.0366 9.99208 20.0539 10.0451C20.0705 10.0963 20.0444 10.1673 19.5757 10.8734C19.377 11.1739 18.0025 13.1162 17.1711 14.2778L16.7963 14.8014L16.8153 15.445Z" fill="#5F6368"/>
  </g>
  <defs>
    <clipPath id="clip0_15655_1835">
      <rect width="22.9062" height="22.9062" fill="white" transform="translate(0.015625 0.953125)"/>
    </clipPath>
  </defs>
</svg>