<svg xmlns="http://www.w3.org/2000/svg" width="24" height="24" viewBox="0 0 24 24" fill="none">
  <path fill-rule="evenodd" clip-rule="evenodd" d="M3.41016 2.86194V21.9505H20.5898V2.86194H3.41016ZM5.31901 20.0416H18.681V4.77079H5.31901V20.0416ZM9.13672 7.63407H6.27344V5.72522H9.13672V7.63407ZM17.7266 7.63407H14.8633V5.72522H17.7266V7.63407ZM6.27344 19.0872H9.13672V17.1783H6.27344V19.0872ZM17.7266 19.0872H14.8633V17.1783H17.7266V19.0872ZM14.8633 15.2695H17.7266V13.3606H14.8633V15.2695ZM9.13672 15.2695H6.27344V13.3606H9.13672V15.2695ZM14.8633 11.4518H17.7266V9.54293H14.8633V11.4518ZM9.13672 11.4518H6.27344V9.54293H9.13672V11.4518Z" fill="#5F6368"/>
</svg>