<svg xmlns="http://www.w3.org/2000/svg" width="30" height="31" viewBox="0 0 30 31" fill="none">
  <path d="M22.5234 20.9044C21.5764 20.9044 20.7291 21.2782 20.0811 21.8639L11.1964 16.6926C11.2587 16.406 11.3086 16.1194 11.3086 15.8203C11.3086 15.5212 11.2587 15.2346 11.1964 14.948L19.9814 9.8266C20.6543 10.4496 21.539 10.8359 22.5234 10.8359C24.592 10.8359 26.2617 9.16617 26.2617 7.09766C26.2617 5.02914 24.592 3.35938 22.5234 3.35938C20.4549 3.35938 18.7852 5.02914 18.7852 7.09766C18.7852 7.39672 18.835 7.68332 18.8973 7.96992L10.1123 13.0914C9.43945 12.4683 8.55473 12.082 7.57031 12.082C5.5018 12.082 3.83203 13.7518 3.83203 15.8203C3.83203 17.8888 5.5018 19.5586 7.57031 19.5586C8.55473 19.5586 9.43945 19.1723 10.1123 18.5493L18.9845 23.733C18.9222 23.9947 18.8848 24.2688 18.8848 24.543C18.8848 26.5492 20.5172 28.1816 22.5234 28.1816C24.5296 28.1816 26.162 26.5492 26.162 24.543C26.162 22.5368 24.5296 20.9044 22.5234 20.9044Z" fill="#01875F"/>
</svg>