<svg width="20" height="20" viewBox="0 0 20 20" fill="none" xmlns="http://www.w3.org/2000/svg">
  <path fill-rule="evenodd" clip-rule="evenodd" d="M15.1006 9.5425C15.7747 8.53369 16.1344 7.34765 16.1344 6.13438C16.1348 5.32867 15.9765 4.53078 15.6683 3.78632C15.3602 3.04186 14.9084 2.36543 14.3387 1.79571C13.7689 1.22599 13.0925 0.774153 12.3481 0.466032C11.6036 0.157911 10.8057 -0.000450906 10 9.643e-07C8.94021 2.01823e-05 7.89851 0.2746 6.97641 0.79698C6.05431 1.31936 5.28328 2.07172 4.73845 2.98074C4.19362 3.88975 3.89358 4.92441 3.86758 5.98388C3.84158 7.04335 4.0905 8.09148 4.59009 9.02612C5.08967 9.96077 5.82287 10.75 6.71824 11.317C7.6136 11.884 8.64059 12.2094 9.6991 12.2614C10.7576 12.3134 11.8115 12.0903 12.7582 11.6138C13.7048 11.1373 14.5118 10.4237 15.1006 9.5425ZM13.1866 13.7406C14.1968 13.3219 15.1146 12.7081 15.8875 11.9344C17.0906 12.3646 18.1315 13.156 18.8676 14.2004C19.6038 15.2447 19.9993 16.491 20 17.7688V20H0V17.7688C0.0007489 16.491 0.396248 15.2447 1.13239 14.2004C1.86854 13.156 2.90937 12.3646 4.1125 11.9344C5.2765 13.0996 6.76007 13.8932 8.37538 14.2147C9.99069 14.5363 11.6651 14.3713 13.1866 13.7406Z" fill="white"/>
</svg>
