<svg xmlns="http://www.w3.org/2000/svg" width="18" height="19" viewBox="0 0 18 19" fill="none">
  <path d="M11.835 2H6.165C3.33 2 2.625 2.7575 2.625 5.78V14.225C2.625 16.22 3.72 16.6925 5.0475 15.2675L5.055 15.26C5.67 14.6075 6.6075 14.66 7.14 15.3725L7.8975 16.385C8.505 17.1875 9.4875 17.1875 10.095 16.385L10.8525 15.3725C11.3925 14.6525 12.33 14.6 12.945 15.26C14.28 16.685 15.3675 16.2125 15.3675 14.2175V5.78C15.375 2.7575 14.67 2 11.835 2ZM5.835 9.5C5.4225 9.5 5.085 9.1625 5.085 8.75C5.085 8.3375 5.4225 8 5.835 8C6.2475 8 6.585 8.3375 6.585 8.75C6.585 9.1625 6.2475 9.5 5.835 9.5ZM5.835 6.5C5.4225 6.5 5.085 6.1625 5.085 5.75C5.085 5.3375 5.4225 5 5.835 5C6.2475 5 6.585 5.3375 6.585 5.75C6.585 6.1625 6.2475 6.5 5.835 6.5ZM12.1725 9.3125H8.0475C7.74 9.3125 7.485 9.0575 7.485 8.75C7.485 8.4425 7.74 8.1875 8.0475 8.1875H12.1725C12.48 8.1875 12.735 8.4425 12.735 8.75C12.735 9.0575 12.48 9.3125 12.1725 9.3125ZM12.1725 6.3125H8.0475C7.74 6.3125 7.485 6.0575 7.485 5.75C7.485 5.4425 7.74 5.1875 8.0475 5.1875H12.1725C12.48 5.1875 12.735 5.4425 12.735 5.75C12.735 6.0575 12.48 6.3125 12.1725 6.3125Z" fill="currentColor"/>
</svg>
