<svg width="23" height="23" viewBox="0 0 23 23" fill="none" xmlns="http://www.w3.org/2000/svg">
<g id="Group 1261154128">
<g id="Vector">
<path d="M21.1042 15.8406H20.9122C20.1282 15.8406 19.4939 15.2292 19.4939 14.4745V8.94188C19.4939 8.18404 20.1283 7.57253 20.9122 7.57253H21.1042C21.8881 7.57253 22.5225 8.18401 22.5225 8.94188V14.4778C22.5225 15.2292 21.8849 15.8406 21.1042 15.8406ZM17.168 17.8963H15.6196V20.8822C15.6196 21.6368 14.982 22.2483 14.198 22.2483H14.0061C13.2221 22.2483 12.5878 21.6368 12.5878 20.8822V17.8963H10.2001V20.8822C10.2001 21.6368 9.56246 22.2483 8.7785 22.2483H8.58656C7.80257 22.2483 7.16499 21.6368 7.16499 20.8822V17.8963H5.81177C5.02778 17.8963 4.39347 17.2848 4.39347 16.5302V8.13199C4.39347 7.98563 4.39996 7.83925 4.40974 7.69616H18.57C18.5798 7.83927 18.5863 7.98563 18.5863 8.13199V16.527C18.5863 17.2848 17.952 17.8963 17.168 17.8963H17.168ZM7.98484 2.40417L6.79748 0.420067C6.77145 0.377776 6.78772 0.319243 6.83324 0.289977L6.88853 0.260711C6.93407 0.234688 6.99264 0.250956 7.01864 0.296463L8.21251 2.29354C9.08755 1.89019 10.0667 1.66579 11.1012 1.66579H11.8754C12.8675 1.66579 13.8109 1.87395 14.6567 2.248L15.8278 0.296436C15.8538 0.254145 15.9123 0.237877 15.9579 0.260684L16.0132 0.28995C16.0587 0.315974 16.075 0.374506 16.0489 0.42004L14.8876 2.35534C16.7646 3.26929 18.1341 5.00621 18.4887 7.07484H4.48455C4.82938 5.04523 6.16309 3.33109 7.98478 2.40411L7.98484 2.40417ZM14.6827 4.96073C15.0926 4.96073 15.4277 4.71028 15.4277 4.40127C15.4277 4.09226 15.0959 3.84181 14.6827 3.84181C14.2761 3.84181 13.9411 4.09226 13.9411 4.40127C13.9411 4.71028 14.2729 4.96073 14.6827 4.96073ZM8.10194 5.02253C8.50856 5.02253 8.84361 4.76881 8.84361 4.45985C8.84361 4.1509 8.5118 3.90039 8.10194 3.90039C7.69206 3.90039 7.36028 4.15084 7.36028 4.45985C7.36028 4.77211 7.69209 5.02253 8.10194 5.02253ZM2.1327 15.8406H1.94076C1.16004 15.8406 0.522461 15.2292 0.522461 14.4745V8.94188C0.522461 8.18404 1.16007 7.57253 1.94076 7.57253H2.1327C2.91669 7.57253 3.55427 8.18401 3.55427 8.94188V14.4778C3.55427 15.2292 2.91993 15.8406 2.1327 15.8406Z" fill="url(#paint0_linear_11939_1665)"/>
<path d="M21.1042 15.8406H20.9122C20.1282 15.8406 19.4939 15.2292 19.4939 14.4745V8.94188C19.4939 8.18404 20.1283 7.57253 20.9122 7.57253H21.1042C21.8881 7.57253 22.5225 8.18401 22.5225 8.94188V14.4778C22.5225 15.2292 21.8849 15.8406 21.1042 15.8406ZM17.168 17.8963H15.6196V20.8822C15.6196 21.6368 14.982 22.2483 14.198 22.2483H14.0061C13.2221 22.2483 12.5878 21.6368 12.5878 20.8822V17.8963H10.2001V20.8822C10.2001 21.6368 9.56246 22.2483 8.7785 22.2483H8.58656C7.80257 22.2483 7.16499 21.6368 7.16499 20.8822V17.8963H5.81177C5.02778 17.8963 4.39347 17.2848 4.39347 16.5302V8.13199C4.39347 7.98563 4.39996 7.83925 4.40974 7.69616H18.57C18.5798 7.83927 18.5863 7.98563 18.5863 8.13199V16.527C18.5863 17.2848 17.952 17.8963 17.168 17.8963H17.168ZM7.98484 2.40417L6.79748 0.420067C6.77145 0.377776 6.78772 0.319243 6.83324 0.289977L6.88853 0.260711C6.93407 0.234688 6.99264 0.250956 7.01864 0.296463L8.21251 2.29354C9.08755 1.89019 10.0667 1.66579 11.1012 1.66579H11.8754C12.8675 1.66579 13.8109 1.87395 14.6567 2.248L15.8278 0.296436C15.8538 0.254145 15.9123 0.237877 15.9579 0.260684L16.0132 0.28995C16.0587 0.315974 16.075 0.374506 16.0489 0.42004L14.8876 2.35534C16.7646 3.26929 18.1341 5.00621 18.4887 7.07484H4.48455C4.82938 5.04523 6.16309 3.33109 7.98478 2.40411L7.98484 2.40417ZM14.6827 4.96073C15.0926 4.96073 15.4277 4.71028 15.4277 4.40127C15.4277 4.09226 15.0959 3.84181 14.6827 3.84181C14.2761 3.84181 13.9411 4.09226 13.9411 4.40127C13.9411 4.71028 14.2729 4.96073 14.6827 4.96073ZM8.10194 5.02253C8.50856 5.02253 8.84361 4.76881 8.84361 4.45985C8.84361 4.1509 8.5118 3.90039 8.10194 3.90039C7.69206 3.90039 7.36028 4.15084 7.36028 4.45985C7.36028 4.77211 7.69209 5.02253 8.10194 5.02253ZM2.1327 15.8406H1.94076C1.16004 15.8406 0.522461 15.2292 0.522461 14.4745V8.94188C0.522461 8.18404 1.16007 7.57253 1.94076 7.57253H2.1327C2.91669 7.57253 3.55427 8.18401 3.55427 8.94188V14.4778C3.55427 15.2292 2.91993 15.8406 2.1327 15.8406Z" fill="white"/>
</g>
</g>
<defs>
<linearGradient id="paint0_linear_11939_1665" x1="11.5225" y1="0.248291" x2="11.5225" y2="22.2483" gradientUnits="userSpaceOnUse">
<stop stop-color="#81A8C5"/>
<stop offset="1" stop-color="#537084"/>
</linearGradient>
</defs>
</svg>
