<svg width="40" height="40" viewBox="0 0 40 40" fill="none" xmlns="http://www.w3.org/2000/svg">
<g clip-path="url(#clip0_1407_16)">
<path d="M39.9963 19.9987C39.9963 20.9987 39.93 21.9986 39.78 22.9649C39.7463 23.1986 39.7137 23.431 39.6637 23.6647C39.4639 24.7647 39.1639 25.8309 38.7801 26.8646H38.7639C38.7639 26.8646 38.7639 26.8983 38.7476 26.9146C38.5813 27.3809 38.4139 27.8483 38.1976 28.2983C37.1977 30.4819 35.8316 32.448 34.1641 34.1316H34.1479C33.8479 34.4479 33.5317 34.7316 33.2141 35.0153C30.3643 37.5314 26.7809 39.2489 22.8149 39.7987C22.7311 39.815 22.6486 39.815 22.5649 39.8326C21.7311 39.9487 20.865 39.9987 19.9987 39.9987C17.9326 39.9987 15.9327 39.6826 14.0491 39.0989C14.0491 39.0989 14.0379 39.0989 14.0154 39.0989C13.6816 38.9989 13.3654 38.8989 13.0492 38.7651C11.383 38.1651 9.81564 37.3314 8.39947 36.3153C8.03324 36.0653 7.66577 35.7816 7.3158 35.4816C7.29954 35.4816 7.28204 35.4479 7.24954 35.4479C6.18336 34.5479 5.21593 33.5479 4.34973 32.4643C3.94976 31.9643 3.56603 31.448 3.23354 30.9143C3.23354 30.8981 3.23354 30.8806 3.2173 30.8806C1.6174 28.447 0.567464 25.6309 0.183739 22.6311C0.133742 22.3973 0.117493 22.1811 0.0999937 21.9649C0.0337479 21.3149 0 20.665 0 20.015C0 19.5313 0.016249 19.065 0.0662459 18.5813C0.0662459 18.3976 0.0824947 18.2151 0.0999937 18.0151C0.466221 14.2491 1.89989 10.7656 4.0835 7.8995C4.24973 7.68327 4.43347 7.46579 4.61721 7.24954C8.28323 2.81607 13.8166 0 20 0C21.2661 0 22.4999 0.116243 23.6997 0.349979C23.9997 0.399976 24.2997 0.466221 24.5834 0.533717C26.2671 0.917443 27.8496 1.5174 29.3331 2.29986C29.6169 2.44984 29.8831 2.61609 30.1669 2.76607C34.1666 5.13219 37.2827 8.8657 38.8501 13.3317C38.9339 13.5154 39 13.7154 39.05 13.8979C39.4163 15.014 39.6663 16.164 39.8163 17.3477C39.8663 17.5977 39.8826 17.8476 39.9163 18.0814C39.9663 18.7151 40 19.3476 40 19.9976L39.9963 19.9987Z" fill="#024AD6"/>
<path d="M38.2758 27.8141C38.2419 27.9802 38.2258 28.1478 38.1919 28.2978C38.4082 27.8478 38.5756 27.3815 38.7419 26.9141C38.4919 27.1478 38.3256 27.4803 38.2758 27.8141Z" fill="#6FC0FF"/>
<path d="M39.0482 24.1C38.5145 24.8663 37.8821 25.5662 37.1821 26.1999C36.8321 26.5162 36.6159 26.9499 36.5659 27.416C36.5321 27.7323 36.4821 28.0497 36.4321 28.3497C35.9484 30.8833 34.8159 32.6495 34.3985 33.3157L33.2148 35.0156C33.5311 34.7319 33.8485 34.4495 34.1485 34.1495H34.1648L34.6148 33.4657C35.0646 32.782 36.2146 30.9822 36.6984 28.3997C36.7646 28.0836 36.7984 27.766 36.8484 27.4499C36.8821 27.0336 37.0646 26.6662 37.3821 26.3999C38.0821 25.7499 38.7158 25.0337 39.2656 24.25C39.3995 24.0663 39.5319 23.8663 39.6656 23.6663C39.7156 23.4326 39.7494 23.2002 39.7819 22.9663C39.5482 23.3663 39.3156 23.7326 39.0482 24.1ZM4.03414 8.01731C3.70042 8.93351 3.46793 9.86719 3.35044 10.8171L3.2667 11.0834L3.15046 11.2671C2.63423 12.0508 1.55056 13.6832 1.13433 16.033C1.08433 16.283 0.984337 16.533 0.850596 16.7667L0.100642 18.0005C0.0843934 18.2005 0.0668945 18.3842 0.0668945 18.5666C0.116891 18.4829 0.183137 18.3829 0.250633 18.2829L1.08433 16.9167C1.23432 16.6505 1.35056 16.3667 1.40056 16.083C1.81679 13.7832 2.86672 12.1833 3.38419 11.4171L3.45043 11.3171L3.61667 10.8671C3.75042 9.93343 3.96664 9.00099 4.30037 8.11731L4.38413 7.86732C4.38413 7.86732 4.41787 7.78358 4.46787 7.65108C4.50162 7.53483 4.55162 7.40109 4.61786 7.23486C4.43412 7.45109 4.25163 7.66858 4.08414 7.88482L4.03414 8.01731Z" fill="black"/>
<path d="M39.8116 17.3496C39.7779 17.4496 39.7453 17.5334 39.7116 17.6159V17.7322C39.6116 18.4821 39.4453 19.2158 39.2116 19.9321C38.8455 21.0482 38.2955 22.0981 37.6118 23.0481C37.028 23.8818 36.328 24.6318 35.5456 25.2642C35.3293 25.4142 35.1619 25.6304 35.0456 25.8641C34.9295 26.0979 34.8619 26.3478 34.8456 26.6141C34.8456 27.0804 34.7795 27.5478 34.6795 28.0141C34.2795 30.2139 33.2795 31.7475 32.8633 32.3975L31.9133 33.8311C30.4635 35.7472 28.7636 36.9809 26.7136 37.6146L26.2975 37.7484L25.8475 37.8321C25.2638 37.9321 24.6813 37.9821 24.0813 37.9821H23.4652L22.7815 38.0159C22.4152 38.0159 22.0652 38.0821 21.7152 38.1996C20.2816 38.6834 18.6155 38.9158 16.4656 38.9158C15.2493 38.9158 14.0657 38.8321 13.0495 38.7496C13.3658 38.8834 13.6832 38.9834 14.0157 39.0834C14.0157 39.0834 14.027 39.0834 14.0495 39.0834C14.8156 39.1171 15.6332 39.1495 16.4656 39.1495C18.6318 39.1495 20.3316 38.9158 21.799 38.4334C22.1152 38.3171 22.4489 38.2671 22.7826 38.2496L23.4826 38.2159H24.0663C24.6826 38.2321 25.2825 38.1659 25.8825 38.0659L26.3662 37.9821L26.7999 37.8484C28.8998 37.1984 30.6498 35.9322 32.1159 33.9649L33.082 32.5312C33.5158 31.8651 34.5319 30.2976 34.9482 28.0478C35.0319 27.5641 35.0819 27.0815 35.1145 26.5978C35.1145 26.3816 35.1806 26.1641 35.2806 25.9641C35.3806 25.7641 35.5306 25.5804 35.6969 25.4479C36.513 24.7979 37.2305 24.0318 37.813 23.1818C38.5292 22.2156 39.0792 21.1319 39.4466 19.9982C39.6629 19.3645 39.8129 18.7146 39.9129 18.0646C39.879 17.8309 39.8629 17.5809 39.8129 17.3309L39.8116 17.3496ZM14.9469 1.7169C15.0806 1.7169 15.1969 1.7169 15.3469 1.7169C16.063 1.7169 16.763 1.81688 17.463 1.98312C18.0968 2.14937 18.7629 2.08311 19.3629 1.78314C20.529 1.21692 21.6965 0.866941 22.8465 0.716951C22.9302 0.716951 23.0126 0.700703 23.0802 0.683203C23.2639 0.683203 23.5302 0.633207 23.88 0.599458C24.08 0.58321 24.3139 0.56571 24.58 0.549461C24.2963 0.483216 23.9963 0.41572 23.6963 0.365723C23.4302 0.399471 23.1965 0.41572 23.0465 0.431968C22.9802 0.448218 22.8965 0.448218 22.7965 0.465717C21.6302 0.615707 20.4303 0.981934 19.2466 1.5494C18.7129 1.81564 18.0968 1.88312 17.513 1.73314C16.813 1.5494 16.0793 1.46691 15.3469 1.46691H14.7469C13.897 1.53315 13.047 1.68314 12.2308 1.91688C10.8147 2.3331 9.49725 3.08305 8.41482 4.06674L8.01485 4.43297L7.64862 4.88294C6.5487 6.23285 6.13247 7.48278 5.89872 8.14898C5.86498 8.28272 5.83248 8.36522 5.79874 8.43272L5.7325 8.63271C5.43251 9.48265 5.21627 10.3489 5.11628 11.2163C5.06628 11.3325 5.03254 11.45 5.00004 11.55L4.95004 11.7163C4.9163 11.8163 4.8663 11.9325 4.8338 12L4.65005 12.2662C4.18384 12.9824 3.1839 14.4824 2.86642 16.5822C2.81642 16.8985 2.70018 17.2159 2.5502 17.4984L2.05022 18.4146L2.00022 18.4808C2.00022 18.4808 1.88398 18.6308 1.81648 18.7146L1.5665 19.0645C0.882792 20.0482 0.400322 20.9982 0.100342 21.9644C0.116591 22.1806 0.13409 22.3981 0.184087 22.6306C0.45032 21.4969 0.967787 20.3808 1.78398 19.1971L2.01772 18.8808C2.01772 18.8808 2.15147 18.7146 2.21771 18.6308L2.76768 17.6309C2.95141 17.3146 3.06765 16.9646 3.11765 16.6146C3.43388 14.5811 4.40132 13.1149 4.8838 12.415L5.06754 12.115C5.10128 12.0313 5.15128 11.915 5.20127 11.7988L5.25127 11.6325C5.28502 11.5325 5.31751 11.4163 5.36751 11.2825C5.46751 10.4164 5.68374 9.5489 5.98372 8.7327L6.04997 8.53271C6.04997 8.53271 6.09997 8.38272 6.14997 8.23274C6.3662 7.58277 6.78368 6.3666 7.84985 5.04918L8.19984 4.59921L8.58357 4.26548C9.64974 3.2993 10.9334 2.58184 12.2996 2.16561C13.0995 1.93188 13.9332 1.78188 14.7656 1.73188H14.9495L14.9469 1.7169Z" fill="#6FC0FF"/>
<path d="M38.8427 13.3323C38.8265 13.9322 38.7265 14.4485 38.6589 14.8322V14.8822C38.5252 15.6321 38.309 16.3658 38.009 17.0658V17.1495L37.9752 17.2158C37.9752 17.2821 37.9415 17.3495 37.9415 17.4158V17.5158C37.8577 18.1319 37.7253 18.7656 37.5077 19.3656C37.2077 20.3156 36.7416 21.2155 36.1579 22.0155C35.5742 22.8492 34.9242 23.5154 34.1917 24.0491C33.858 24.2991 33.5755 24.6328 33.3755 24.9991C33.1917 25.3652 33.0756 25.7991 33.0756 26.2152C33.0756 26.7152 33.0256 27.1989 32.9256 27.6989C32.5919 29.5488 31.7756 30.8149 31.3256 31.4986L30.6257 32.5486C29.392 34.2822 27.9422 35.3822 26.176 35.9146L26.0922 35.9484C25.9422 35.9984 25.7923 36.0321 25.6423 36.0484L25.526 36.0821C25.0423 36.1658 24.5599 36.1984 24.0762 36.1984H23.6423C23.6423 36.1984 23.5086 36.1984 23.3425 36.2146H23.0425C22.8425 36.2308 22.6087 36.2308 22.3925 36.2484C22.0262 36.2646 21.6425 36.3321 21.2925 36.4646C20.0263 36.9145 18.4765 37.1308 16.459 37.1308C15.1755 37.1308 13.9255 37.0471 12.8593 36.9645L12.5431 36.9308C12.3268 36.8971 12.0931 36.8808 11.8594 36.8471C10.8932 36.7471 9.57576 36.5971 8.1096 35.9134L7.75963 35.7296C7.60963 35.6459 7.45965 35.5634 7.30966 35.4634C7.65963 35.7634 8.02586 36.0471 8.39333 36.2971C9.74325 36.8634 10.9432 36.9971 11.8431 37.0971C12.0594 37.1134 12.2931 37.1471 12.5093 37.1634L12.8431 37.1971C13.9092 37.2808 15.1766 37.3808 16.459 37.3808C18.5089 37.3808 20.0752 37.1645 21.375 36.6971C21.7087 36.5634 22.0587 36.4971 22.4087 36.4808C22.6087 36.4808 22.8425 36.4646 23.0586 36.4646H23.3586L24.0923 36.4484C24.576 36.4484 25.076 36.3984 25.5585 36.3146H25.6747C25.841 36.2646 25.991 36.2308 26.1585 36.1808L26.2422 36.1471C28.0583 35.5971 29.5583 34.4635 30.8257 32.6811L31.5256 31.6311C31.9756 30.9312 32.8093 29.6475 33.1756 27.7314C33.2593 27.2314 33.3093 26.7315 33.3093 26.2152C33.3255 25.8315 33.4255 25.4491 33.593 25.1154C33.7767 24.7654 34.0267 24.4654 34.343 24.2491C35.0929 23.6991 35.7592 23.0154 36.359 22.1655C36.959 21.3318 37.4253 20.4156 37.7427 19.4494C37.959 18.8332 38.0927 18.1832 38.1765 17.5332V17.4495C38.1765 17.4495 38.1927 17.3332 38.2102 17.2495L38.244 17.1658C38.5439 16.4496 38.7602 15.6996 38.8939 14.9322V14.8659C38.9439 14.5996 38.9939 14.266 39.0439 13.8997C38.9939 13.716 38.9277 13.516 38.8439 13.3335L38.8427 13.3323ZM7.69463 9.16505C7.74463 9.0313 7.77838 8.9313 7.84462 8.78132C8.02836 8.1976 8.36083 7.21516 9.22829 6.14773L9.49452 5.8315L9.77825 5.56526C11.8281 3.69913 14.128 3.54915 14.8942 3.49915H15.0279L15.3279 3.4829C16.244 3.4829 17.1277 3.66663 17.9777 4.01662C18.144 4.10036 18.3115 4.13286 18.4939 4.1166C18.6777 4.1166 18.8439 4.06662 18.9939 3.98286H19.0276C19.7939 3.53289 21.2276 2.6992 23.0775 2.46672C23.1612 2.46672 23.2436 2.45046 23.2936 2.45046C23.4599 2.41672 23.7273 2.40046 24.0436 2.36672C24.5936 2.31672 25.4273 2.25047 26.3272 2.25047C27.8272 2.25047 29.0933 2.41672 30.1607 2.76669C29.877 2.6167 29.6107 2.45046 29.327 2.30047C28.4433 2.10049 27.4609 2.00049 26.3272 2.00049C25.4273 2.00049 24.5773 2.06673 24.0112 2.11673C23.6949 2.15047 23.4275 2.18297 23.2775 2.20047C23.2112 2.21673 23.1275 2.21673 23.0436 2.23423C21.1776 2.46796 19.7276 3.28416 18.9277 3.75037H18.9115C18.7777 3.83413 18.6277 3.86662 18.4952 3.86662C18.3452 3.88287 18.1952 3.85037 18.0615 3.80037C17.1953 3.43415 16.2779 3.25042 15.3279 3.25042H14.8779C14.0942 3.31666 11.7281 3.46665 9.61201 5.38403L9.31203 5.66776L9.02829 6.00149C8.14461 7.10142 7.81212 8.10136 7.61213 8.71757C7.56213 8.85132 7.52839 8.9513 7.47839 9.0838L7.41215 9.23379C7.14592 9.99999 6.94593 10.7837 6.87843 11.5674C6.86218 11.6011 6.86218 11.6174 6.86218 11.6174C6.77843 11.8674 6.69595 12.1174 6.64595 12.2836C6.54595 12.5498 6.4297 12.7998 6.39596 12.8836L6.24598 13.0998C6.24598 13.0998 6.21222 13.166 6.17972 13.1998L6.14598 13.2498C5.696 13.9335 4.74606 15.3659 4.57982 17.2995C4.56358 17.5158 4.51358 17.7158 4.42983 17.9158L4.24609 18.3995C4.1961 18.5332 4.11236 18.6656 4.01236 18.7995C3.86238 18.9832 3.71238 19.1656 3.57863 19.3656L3.54489 19.3994C3.54489 19.3994 3.42865 19.5494 3.36115 19.6331L3.04492 20.0669C1.36128 22.4829 1.04505 24.6004 1.89499 27.6164L1.94499 27.7826C2.12873 28.3664 2.34496 28.9825 2.66119 29.6325C2.72745 29.7825 2.79493 29.9325 2.86118 30.0825L2.91118 30.1825C3.01118 30.3988 3.11116 30.6325 3.21116 30.8662C3.2274 30.8662 3.2274 30.8662 3.2274 30.8999C3.56113 31.4336 3.94362 31.9499 4.34359 32.4498C3.80988 31.6161 3.44365 30.7999 3.12742 30.0838L3.07742 29.9838C3.01118 29.8338 2.94368 29.6838 2.87743 29.5338C2.5612 28.9001 2.36122 28.2838 2.17748 27.7176L2.12748 27.5514C1.29378 24.6178 1.61126 22.5516 3.2274 20.2018L3.56113 19.7856C3.56113 19.7856 3.67738 19.6356 3.72738 19.5519L3.76113 19.5019C3.91112 19.3182 4.04486 19.1356 4.19485 18.9519C4.31109 18.8019 4.41109 18.6519 4.46108 18.4856L4.66108 18.0019C4.74482 17.7858 4.79482 17.5521 4.81106 17.3358C4.9773 15.4522 5.89475 14.0697 6.34472 13.386L6.37846 13.336C6.37846 13.336 6.4447 13.2523 6.4622 13.236L6.59595 13.0023C6.66219 12.9023 6.76219 12.6523 6.87968 12.3686C6.92968 12.2023 7.01342 11.9349 7.09592 11.6849V11.6349C7.1959 10.8349 7.37965 10.0512 7.64589 9.31879L7.69588 9.16879L7.69463 9.16505Z" fill="#6FC0FF"/>
<path d="M36.7296 10.4511L36.6633 10.3011L36.5796 10.1512C36.0133 9.23495 35.3796 8.75124 34.9959 8.45125C34.9121 8.38501 34.8297 8.31751 34.7621 8.25126L34.5621 8.06752C34.1784 7.71755 33.996 7.48381 33.7284 7.15134C32.8949 6.08515 32.0286 5.13521 29.845 4.31776L29.745 4.28401C28.8289 3.95028 27.6951 3.80029 26.329 3.80029C25.4953 3.80029 24.6953 3.86654 24.1791 3.90029C23.8791 3.93404 23.6454 3.96654 23.4791 3.98404C23.4291 3.98404 23.3454 3.98404 23.2791 4.01778C21.7454 4.20152 20.513 4.90148 19.7794 5.33395C19.4456 5.50019 19.1131 5.65018 18.7457 5.78392C18.6294 5.83392 18.4957 5.85016 18.3457 5.85016C18.212 5.83392 18.0794 5.80016 17.962 5.75016C17.3783 5.48394 16.2621 5.03396 15.3284 5.03396C15.2447 5.03396 15.1621 5.03396 15.0947 5.03396H14.9947C13.911 5.10021 12.2948 5.35019 10.8112 6.70011L10.6112 6.88385L10.4274 7.11758C9.72749 7.96754 9.4775 8.73374 9.31126 9.25121C9.26127 9.41744 9.21127 9.55118 9.14503 9.71742L9.11128 9.81742C8.87755 10.4511 8.7113 11.1173 8.64506 11.801C8.61132 11.9848 8.61132 12.001 8.59506 12.0673C8.49508 12.3335 8.39507 12.6835 8.34507 12.851C8.19509 13.2672 7.97885 13.7009 7.91136 13.8172L7.76136 14.0334C7.76136 14.0334 7.71136 14.1172 7.67762 14.1672L7.62762 14.2334C7.1939 14.8833 6.39395 16.0995 6.34395 17.6995V18.0832L6.3102 18.6669C6.3102 18.8006 6.24396 18.933 6.16022 19.033C5.66025 19.5667 5.32652 19.9993 4.96029 20.4667C4.86029 20.6005 4.7603 20.7505 4.64406 20.9005L4.51032 21.0667C3.1604 23.0329 2.92666 24.6165 3.62662 27.1163L3.66037 27.2326C3.81036 27.7163 4.01035 28.2825 4.27657 28.8325C4.36033 29.0325 4.46032 29.2325 4.54282 29.4325C5.25902 31.0323 6.14272 33.0322 8.52632 34.3659L8.76005 34.4822C10.01 35.0659 11.1261 35.1983 12.0436 35.282C12.2773 35.3159 12.5098 35.3483 12.7598 35.382H12.976C14.0097 35.482 15.2421 35.5658 16.4596 35.5658C18.5257 35.5658 20.0256 35.332 21.1756 34.8159C21.2593 34.7822 21.3593 34.7496 21.4593 34.7322C21.6593 34.6983 22.4091 34.6659 23.1429 34.6483H23.2429C23.4429 34.6322 23.5591 34.6322 23.6429 34.6322H24.0591C24.459 34.6322 24.859 34.5983 25.259 34.5322L25.509 34.4822L25.7253 34.4159C27.7414 33.7996 29.8913 30.8323 29.9913 30.6999C30.4411 29.9999 31.1074 28.95 31.4074 27.3838C31.5736 26.4676 31.5236 25.5677 31.4736 24.784C31.4574 24.734 31.4736 24.6502 31.4736 24.534C31.4899 24.284 31.5574 24.0503 31.7074 23.834C31.8411 23.634 32.0411 23.4678 32.2573 23.3679C33.291 22.9016 34.1571 22.1516 34.8909 21.1017C35.3909 20.418 35.7746 19.6517 36.0409 18.8519C36.2071 18.3519 36.3246 17.8182 36.3909 17.3019V17.2182C36.3909 17.1182 36.4246 17.0182 36.4409 16.902C36.457 16.752 36.507 16.602 36.5746 16.4683V16.4345C36.8409 15.8507 37.0083 15.2346 37.1083 14.6183V14.5522C37.2746 13.6359 37.542 12.086 36.7246 10.4361L36.7296 10.4511ZM36.912 14.5346V14.5846C36.7959 15.2009 36.6283 15.8007 36.3783 16.3845H36.3621C36.2959 16.5507 36.2459 16.7182 36.2283 16.8845C36.1946 17.0007 36.1946 17.1007 36.1783 17.2008V17.2845C36.1121 17.8006 35.9946 18.3006 35.8284 18.8006C35.5784 19.5843 35.1947 20.3167 34.7121 20.9842C33.996 22.0005 33.1623 22.7179 32.1786 23.184C31.9123 23.3003 31.6786 23.484 31.5286 23.734C31.3624 23.9678 31.2624 24.2503 31.2449 24.5502V24.8165C31.2949 25.5828 31.3611 26.4663 31.1787 27.3663C30.8949 28.8825 30.245 29.9162 29.8124 30.5823C29.7787 30.6162 27.5964 33.6322 25.6627 34.2159L25.4466 34.2822L25.2303 34.3322C24.8466 34.3983 24.464 34.4322 24.0803 34.4322C23.9966 34.4159 23.9141 34.4322 23.8141 34.4159H23.6479C23.6479 34.4159 23.4316 34.4159 23.2317 34.4322H23.1317C22.3317 34.4659 21.6317 34.4983 21.4317 34.5322C21.3156 34.5483 21.198 34.5822 21.0817 34.6322C19.9656 35.132 18.4981 35.3483 16.4659 35.3483C15.2496 35.3483 14.0322 35.2646 12.9998 35.1983L12.7998 35.1646C12.5498 35.1309 12.2998 35.1146 12.0661 35.0809C11.1824 34.9809 10.0662 34.8646 8.86629 34.2972L8.63256 34.1809C6.3327 32.881 5.449 30.931 4.74905 29.3649C4.6653 29.1649 4.58282 28.965 4.48282 28.765C4.21659 28.215 4.03285 27.665 3.88286 27.1813L3.8491 27.065C3.1654 24.649 3.38289 23.1153 4.69906 21.2155L4.8153 21.0492C4.93155 20.8992 5.04903 20.7655 5.14903 20.6155C5.499 20.1655 5.83273 19.7318 6.3327 19.1993C6.44895 19.0656 6.53269 18.883 6.54895 18.6993L6.58269 18.0995V17.9332L6.56643 17.7332C6.63269 16.1833 7.40013 15.017 7.8326 14.3672L7.86636 14.3009C7.86636 14.3009 7.9326 14.2009 7.96635 14.1672L8.10009 13.9672C8.18383 13.8334 8.40007 13.3834 8.56632 12.951C8.6163 12.7672 8.7163 12.4173 8.8163 12.151C8.85005 12.051 8.85005 12.0348 8.86629 11.8348C8.93255 11.1848 9.10003 10.5349 9.31626 9.90116L9.35002 9.81742C9.41626 9.63368 9.46626 9.50119 9.53375 9.33369C9.68375 8.83372 9.93373 8.08378 10.5999 7.26758L10.7837 7.05134L10.9674 6.88509C12.4011 5.58518 13.9672 5.33519 15.0171 5.26895H15.3334C16.2333 5.26895 17.2996 5.70268 17.867 5.95266C18.017 6.01891 18.1831 6.06891 18.3507 6.06891C18.5181 6.06891 18.6844 6.05265 18.8344 5.98515C19.2007 5.86891 19.5506 5.70142 19.9006 5.51894C20.6169 5.10271 21.8167 4.41901 23.3004 4.23526C23.3841 4.21902 23.4504 4.21902 23.5166 4.20152C23.6829 4.18526 23.9166 4.16776 24.2003 4.13528C24.7166 4.08528 25.5003 4.01904 26.334 4.01904C27.6839 4.01904 28.7839 4.18526 29.6837 4.48525L29.7674 4.51899C31.9011 5.31895 32.751 6.25264 33.5673 7.30258C33.8334 7.63631 34.0334 7.88629 34.4171 8.23626L34.601 8.40251C34.601 8.40251 34.7847 8.56875 34.8671 8.63624C35.2334 8.91998 35.8509 9.38619 36.3833 10.2699L36.467 10.4036L36.5333 10.5536C37.317 12.1373 37.067 13.6372 36.917 14.5372L36.912 14.5346Z" fill="#6FC0FF"/>
<path d="M35.1318 11.2327L35.048 11.0827C34.6643 10.449 34.2319 10.1165 33.9143 9.86649C33.7643 9.75025 33.6143 9.63276 33.4806 9.50027L33.3806 9.40028C32.8806 8.95031 32.6145 8.61658 32.3308 8.25035C31.6145 7.33415 30.9808 6.65045 29.1972 5.96674H29.1633C28.4298 5.71675 27.5135 5.58301 26.3298 5.58301C25.7299 5.58301 25.0636 5.61676 24.3638 5.68301C24.0799 5.71675 23.8638 5.73301 23.73 5.74925H23.6962C23.6962 5.74925 23.58 5.74925 23.5125 5.78299C22.3288 5.91674 21.3289 6.49921 20.6626 6.88294C20.0289 7.23291 19.0965 7.58289 18.5466 7.73288C18.2803 7.79912 17.9966 7.76662 17.7629 7.64914C17.6629 7.59914 17.5629 7.53289 17.4292 7.46539L17.3292 7.41539C16.8792 7.18166 16.2129 6.81544 15.3293 6.81544H15.1293C14.2456 6.88168 13.0794 7.08166 12.0132 8.04911L11.9132 8.13285L11.8132 8.24909C11.3295 8.84906 11.1633 9.36528 11.0133 9.83275C10.947 9.99898 10.897 10.1665 10.797 10.399V10.4327C10.5971 10.9489 10.4808 11.4826 10.4133 12.0326C10.3971 12.2489 10.3633 12.4488 10.2971 12.6488C10.2133 12.8651 10.1308 13.1325 10.0808 13.315L10.0471 13.4313C9.8471 13.9475 9.54712 14.6474 9.36338 14.8812L9.27964 14.9974C9.27964 14.9974 9.21339 15.0974 9.17964 15.1474L9.12964 15.2311C8.74592 15.8149 8.16345 16.6649 8.12971 17.781V18.031C8.16345 18.1973 8.17971 18.3647 8.21345 18.531L8.39719 19.0309C8.39719 19.0309 8.43094 19.1809 8.41344 19.2472C8.39719 19.3309 8.3472 19.3972 8.2972 19.4472C7.33101 20.3472 6.89728 20.9133 6.39731 21.5633C6.28107 21.7133 6.18108 21.847 6.04734 22.0133L5.98109 22.097C4.93115 23.6306 4.78117 24.6469 5.34738 26.6467V26.6967C5.49737 27.1304 5.66361 27.6304 5.89735 28.0803C5.98109 28.2803 6.06358 28.4642 6.16358 28.664V28.7303C6.84728 30.2303 7.54724 31.7802 9.39712 32.8139L9.53087 32.88C10.4971 33.3463 11.3808 33.43 12.2307 33.53C12.4807 33.5637 12.7469 33.58 13.0144 33.6137H13.1306C14.1143 33.7137 15.2968 33.7974 16.4642 33.7974C18.2803 33.7974 19.564 33.5976 20.4978 33.1976C20.6976 33.0976 20.9139 33.0313 21.1315 32.9976C21.4652 32.9313 22.065 32.9139 23.0475 32.8813H23.1475C23.3813 32.865 23.5475 32.865 23.6475 32.865H24.0638C24.3799 32.865 24.6636 32.8313 24.9636 32.7813H25.0975L25.1973 32.7313C26.7473 32.2652 28.3972 29.8977 28.4635 29.7814C28.8972 29.1153 29.4296 28.2979 29.6633 27.0654C29.797 26.3654 29.747 25.6317 29.697 24.8993C29.6633 24.3656 29.5809 23.2332 29.8133 22.9832L29.9796 22.7494C30.2296 22.3657 30.6133 22.0833 31.0458 21.9494C32.0295 21.6333 32.7619 21.0496 33.4456 20.0659C33.8456 19.5322 34.1619 18.9322 34.3618 18.2997C34.4956 17.8997 34.578 17.4997 34.628 17.0836V16.9999C34.628 16.8836 34.6618 16.7499 34.6943 16.5999C34.7443 16.3162 34.828 16.0499 34.928 15.7999C35.1443 15.3337 35.278 14.8337 35.3618 14.3337V14.2675C35.5118 13.4675 35.6955 12.3838 35.128 11.2339L35.1318 11.2327ZM35.1643 14.2325V14.2987C35.0643 14.7824 34.9305 15.2487 34.7306 15.6986C34.6143 15.9823 34.5306 16.2649 34.4806 16.5486C34.4468 16.7149 34.4306 16.8486 34.4143 16.9649V17.0649C34.3643 17.4486 34.2643 17.8484 34.148 18.231C33.948 18.8472 33.6643 19.4146 33.2643 19.9309C32.6145 20.8809 31.9145 21.4307 30.9808 21.7307C30.497 21.8807 30.0646 22.197 29.797 22.6307L29.6309 22.8307C29.3809 23.1144 29.4146 24.0306 29.4809 24.9469C29.5146 25.6306 29.5646 26.3467 29.4309 27.0304C29.2146 28.2142 28.6972 29.014 28.2809 29.664C28.2809 29.6803 26.5973 32.0639 25.1312 32.5139H25.0475L24.9312 32.5639C24.6475 32.6139 24.3475 32.63 24.0649 32.63H23.6488C23.5488 32.63 23.3825 32.63 23.115 32.63H23.0488C22.0326 32.6639 21.4326 32.6963 21.0989 32.7639C20.8489 32.7976 20.6326 32.88 20.3989 32.9639C19.5152 33.3637 18.249 33.5476 16.4655 33.5476C15.2993 33.5476 14.1318 33.4637 13.1494 33.3976H13.0494C12.7657 33.3476 12.5157 33.3137 12.2657 33.2813C11.4158 33.1976 10.5496 33.0976 9.61587 32.665L9.51587 32.615C7.71598 31.5989 7.04977 30.0814 6.38231 28.6153V28.549C6.28232 28.3653 6.18232 28.1653 6.09858 27.9654C5.88235 27.5316 5.71485 27.0317 5.58237 26.6154V26.5654C5.03239 24.6493 5.16614 23.6656 6.18232 22.2157L6.23232 22.132C6.34857 21.9657 6.46607 21.832 6.56605 21.682C7.06602 21.032 7.49974 20.4822 8.44968 19.5984C8.53342 19.5146 8.59968 19.3984 8.63342 19.2822C8.64968 19.1659 8.64967 19.0484 8.61718 18.9321L8.43344 18.4484C8.39969 18.2984 8.38344 18.1484 8.36719 17.9984V17.7647C8.40094 16.731 8.95091 15.8986 9.31714 15.3487L9.36712 15.2649C9.36712 15.2649 9.45088 15.1487 9.48337 15.0987L9.54962 14.9987C9.76585 14.715 10.0833 13.9487 10.2496 13.4988L10.2996 13.365C10.3496 13.1813 10.4333 12.9151 10.5158 12.6988C10.5821 12.4826 10.6321 12.2651 10.6496 12.0326C10.6996 11.5164 10.8158 10.9827 10.9995 10.4827L11.0333 10.449C11.117 10.2327 11.167 10.049 11.2333 9.88274C11.367 9.43277 11.5332 8.93281 11.9995 8.38284L12.0832 8.28284L12.167 8.19909C13.1831 7.26541 14.3006 7.08292 15.1668 7.03292H15.333C16.1668 7.03292 16.7992 7.36665 17.2166 7.59914L17.3329 7.64914C17.4492 7.71538 17.5666 7.78288 17.6666 7.83286C17.9503 7.98286 18.3003 8.01661 18.6166 7.93287C19.1828 7.76662 20.1165 7.41665 20.8002 7.04917C21.4339 6.68294 22.4163 6.11548 23.55 5.98299C23.6162 5.98299 23.6662 5.96674 23.7162 5.96674H23.75C23.8838 5.96674 24.1162 5.91674 24.3838 5.90049C25.0836 5.83425 25.7336 5.80049 26.3336 5.80049C27.4835 5.80049 28.3835 5.91674 29.0996 6.16672L29.1333 6.05048V6.16672C30.8495 6.81668 31.467 7.48289 32.1669 8.36659C32.4508 8.73282 32.7169 9.08279 33.2332 9.55026L33.3332 9.63401C33.4669 9.78399 33.6169 9.91774 33.783 10.034C34.083 10.2677 34.4993 10.584 34.8668 11.1839L34.933 11.3177C35.4668 12.4013 35.283 13.4513 35.1668 14.2175L35.1643 14.2325Z" fill="#6FC0FF"/>
<path d="M33.3489 13.8667C33.2651 14.3504 33.1651 14.583 33.0651 14.8504C32.9489 15.1504 32.7989 15.4667 32.6814 16.1341C32.6314 16.4003 32.6152 16.5841 32.5814 16.7678V16.784C32.5477 17.0503 32.5314 17.234 32.4152 17.5677C32.3314 17.834 32.1815 18.284 31.8152 18.7677C31.5152 19.1514 31.0315 19.8014 30.3815 19.8838C30.3315 19.8838 30.1978 19.8838 30.1654 19.8838C28.3154 18.934 26.7155 18.234 26.1655 18.084C25.5318 17.9003 25.5994 16.5003 25.6818 15.2678C25.7157 14.718 25.7481 14.2017 25.7157 13.7517C25.6318 12.2018 25.3494 10.4857 23.9995 9.65198C23.1832 9.15201 22.1495 9.01827 21.1497 9.00203C21.3334 8.91828 21.5334 8.80204 21.7658 8.6683C22.3495 8.31831 23.0821 7.9021 23.8157 7.8346C24.0495 7.81834 24.2819 7.7846 24.5157 7.75085C25.9818 7.58461 27.2318 7.45087 28.5654 7.90084C29.1654 8.10083 30.4154 8.80078 30.7315 9.4345C30.9478 9.88447 31.3315 10.2344 32.0977 10.9507C32.4977 11.3169 32.7477 11.5344 32.9477 11.6844C33.2139 11.9181 33.2639 11.9506 33.3477 12.1181C33.5977 12.618 33.4977 13.1518 33.3814 13.8842L33.3489 13.8667Z" fill="white"/>
<path d="M26.5663 20.2657C26.6663 20.2996 26.7163 20.432 26.65 20.532C26.45 20.832 26.2337 21.232 25.9663 21.7157C25.8326 21.9494 25.7163 22.1819 25.6163 22.3494C25.25 22.9656 25.2326 23.483 25.2 23.8993C25.1838 24.333 25.1501 24.533 24.9001 24.7154C24.6838 24.8654 24.4664 24.9154 22.934 25.1317C22.6677 25.1654 22.5503 25.2317 22.4503 25.2654C22.434 25.2654 22.4164 25.2654 22.4003 25.2817C22.3003 25.3317 22.184 25.2317 22.2003 25.1154C22.2003 24.8993 22.2166 24.6317 22.2166 24.3156V24.2493C22.2166 23.9493 22.2166 23.6993 22.2166 23.5156C22.2003 23.1319 22.2003 22.9656 22.3003 22.7994C22.434 22.5994 22.534 22.5332 22.684 22.4332C22.9177 22.2832 23.2177 22.0994 23.6838 21.4494C23.9338 21.1157 23.9838 20.9333 24.0177 20.7657C24.0177 20.6994 24.0338 20.682 24.2338 20.532C24.4338 20.382 25.0501 19.9159 25.8337 20.0483C26.0337 20.082 26.3 20.1646 26.5837 20.2483L26.5663 20.2657Z" fill="white"/>
<path d="M20.5339 27.3164C20.5339 27.3164 20.4676 27.3827 20.4002 27.3827C20.2339 27.3827 20.1339 27.349 20.0502 27.2664C19.9002 27.0827 19.9165 26.6827 19.9502 26.4664L20.6002 26.3003C20.6502 26.6503 20.6664 27.134 20.5339 27.334V27.3164Z" fill="white"/>
<path d="M20.5772 24.9806C20.5772 25.0806 20.5609 25.1806 20.5609 25.2969C20.5609 25.3306 20.5609 25.3806 20.5609 25.4132C20.5609 25.5132 20.5609 25.6793 20.5609 25.7632C20.3609 25.8293 20.1947 25.8293 19.9609 25.8293C19.9609 25.7632 19.9609 25.6632 19.9609 25.5956C19.9609 25.5456 19.9609 25.4956 19.9609 25.4456C19.9609 25.3956 19.9609 25.3456 19.9609 25.2795C19.9609 25.2132 19.9609 24.9457 19.9947 24.8957C20.0609 24.8957 20.1109 24.8795 20.1784 24.8619C20.3122 24.8282 20.4784 24.7957 20.5947 24.8119C20.5947 24.8619 20.5947 24.9119 20.5947 24.9619L20.5772 24.9806Z" fill="white"/>
<path d="M19.3818 27.1151C19.3481 27.4489 19.2481 27.8489 18.9318 27.9151C18.7981 27.9489 18.7318 27.9151 18.6818 27.8651C18.4657 27.6651 18.4318 27.0814 18.4657 26.6651C18.5994 26.6651 18.7818 26.6314 18.9994 26.599C19.1331 26.5651 19.2655 26.549 19.3655 26.5151C19.3655 26.6651 19.3818 26.899 19.3655 27.1151H19.3818Z" fill="white"/>
<path d="M19.2323 25.9324L18.5325 26.1824C18.5662 25.9161 18.6162 25.5324 18.6325 25.2663C18.6325 25.0824 18.6986 25.0324 18.6986 25.0163C18.6986 25.0163 18.6986 25.0163 18.7323 25.0163L19.1823 25C19.1986 25.2 19.1986 25.6661 19.1823 25.95L19.2323 25.9324Z" fill="white"/>
<path d="M18.1094 25.7128C18.0755 25.8128 18.0257 26.1126 17.9931 26.3289L17.1094 26.2952C17.1594 26.0289 17.2257 25.7452 17.3094 25.5289C17.3931 25.3128 17.4757 25.1452 17.5431 25.0952C17.6268 25.0452 17.8268 25.029 17.9431 25.129C18.1431 25.2952 18.1931 25.4789 18.1094 25.6952V25.7128Z" fill="white"/>
<path d="M17.7778 28.3967C17.7116 28.4967 17.6279 28.5306 17.544 28.5467C17.444 28.5467 17.3779 28.5467 17.3103 28.4806C17.0266 28.2306 17.0603 27.3969 17.0603 26.9969C17.4266 26.9131 17.8103 26.8469 18.0103 26.8306C18.044 27.1643 18.0453 28.0306 17.7778 28.3967Z" fill="white"/>
<path d="M16.6312 26.2635C16.5812 26.3798 16.5475 26.4798 16.515 26.5798C16.415 26.6135 16.0988 26.5798 15.7812 26.5135L15.9975 25.1298C16.3638 25.0298 16.7812 24.9961 16.8812 25.1136C17.015 25.2473 16.7475 25.9635 16.6312 26.2635Z" fill="white"/>
<path d="M16.2338 28.6005C16.0676 28.8168 15.8 28.9005 15.4501 28.9005C15.2001 28.9005 15.1164 28.8005 15.0664 28.7344C14.8664 28.4181 15.0664 27.6844 15.2501 27.2183L16.4337 27.2844C16.4337 27.2844 16.45 27.4681 16.4676 27.5844C16.4676 27.9181 16.4337 28.3344 16.2176 28.6005H16.2338Z" fill="white"/>
<path d="M29.2472 19.8493C27.8311 19.1331 26.4975 18.7157 26.0636 18.5994C24.9801 18.2831 25.0801 16.7159 25.1638 15.2159C25.1975 14.6821 25.2301 14.166 25.2138 13.7497C25.1301 12.3498 24.8801 10.7999 23.7476 10.1C22.5315 9.35 20.5141 9.51625 19.2816 9.68373C18.8654 9.79997 18.4655 9.89997 18.1479 9.89997H18.0816C17.3481 9.84997 16.7818 9.55 16.2818 9.28376C15.8981 9.06753 15.5481 8.88379 15.2319 8.88379H15.1819C14.2157 8.95003 13.782 9.18377 13.382 9.53375C13.282 9.63375 13.1483 9.88373 12.7483 11.0499C12.5483 11.6336 12.5146 11.9498 12.4821 12.2661C12.4483 12.5498 12.4158 12.8323 12.2483 13.266C12.1483 13.566 12.0821 13.8322 11.9983 14.0822C11.7984 14.7484 11.6484 15.2659 11.1821 15.8983C11.1159 15.9646 11.0484 16.0646 10.9659 16.1983C10.8659 16.3646 10.7322 16.582 10.5659 16.8146C10.4322 16.9807 10.1497 17.6307 10.166 17.8144C10.1997 18.1307 10.2997 18.3144 10.3997 18.5481C10.5159 18.7644 10.6497 19.0144 10.6834 19.3644V19.4144C10.7172 19.9643 10.6497 20.2306 9.59974 21.1643C8.93353 21.7643 8.46606 22.348 8.14983 22.7641C8.11608 22.7979 8.14983 22.8479 8.19983 22.8479H8.39981C8.66604 22.8817 8.89978 22.9817 9.08353 23.1641C9.11727 23.1979 9.16727 23.2141 9.19976 23.1979C9.366 23.1317 9.56598 23.1317 9.73348 23.1479C9.94971 23.1816 10.1672 23.2316 10.3172 23.3641C10.3672 23.4141 10.4334 23.4479 10.5172 23.4304C10.6834 23.3966 10.8509 23.3966 11.0172 23.4641C11.1334 23.4979 11.2334 23.5641 11.3171 23.6479C11.4009 23.7316 11.5334 23.7479 11.6334 23.6979C11.6671 23.6641 11.7171 23.6479 11.7496 23.6316C11.9833 23.5654 12.2333 23.5979 12.4496 23.6816C12.5658 23.7154 12.6658 23.7653 12.7658 23.8153C12.932 23.9316 13.032 24.0816 13.0995 24.2491C13.1658 24.3829 13.3333 24.4329 13.4495 24.349C13.5995 24.2491 13.7157 24.2329 13.8157 24.2829C13.8657 24.3166 13.9157 24.3329 13.932 24.3666C14.0157 24.4666 14.1482 24.5666 14.2819 24.5329C14.6156 24.449 15.0319 24.499 15.3319 24.6666C15.4481 24.7166 15.5481 24.8166 15.6319 24.9503V24.884C15.6319 24.884 15.6656 24.834 15.6981 24.834H15.7644C15.9481 24.7503 16.8305 24.5003 17.1642 24.8679C17.1805 24.884 17.2142 24.884 17.2305 24.8679L17.3305 24.7679C17.5642 24.634 17.9468 24.6179 18.1966 24.8516C18.2466 24.8853 18.3305 24.8679 18.3805 24.8179C18.3805 24.784 18.4305 24.7516 18.4466 24.734C18.5466 24.6503 18.6629 24.6179 18.7804 24.6179H19.2641C19.3979 24.584 19.7641 24.5679 19.8978 24.534H19.9141C19.9141 24.534 20.0304 24.5179 20.0978 24.5003C20.3315 24.4503 20.5978 24.384 20.8141 24.484C21.0302 24.584 20.9978 24.834 20.9802 25.034C20.9641 25.1177 20.9465 25.2177 20.9465 25.3003C20.9465 25.334 20.9465 25.384 20.9628 25.4166C20.9628 25.6003 20.9628 25.7664 20.9291 25.9003V26.0003C20.9791 26.1001 21.0791 26.1501 21.1628 26.1001C21.3291 26.0003 21.4965 25.8664 21.5465 25.8003H21.5628C21.5628 25.8003 21.5789 25.7164 21.5965 25.634C21.6302 25.4503 21.6628 25.084 21.6628 24.334V24.2503C21.6628 23.9841 21.6628 23.7503 21.6465 23.5666C21.6302 23.1504 21.6128 22.8329 21.8128 22.5167C22.0126 22.2004 22.1965 22.083 22.3789 21.9667C22.5952 21.833 22.8289 21.683 23.2289 21.133C23.4289 20.8669 23.4626 20.7493 23.4789 20.6669C23.5126 20.4506 23.5789 20.333 23.8951 20.1006C24.1288 19.9169 24.8951 19.3506 25.9112 19.5169C26.2449 19.5669 26.7774 19.7506 27.3111 19.9669C27.3449 19.9669 27.3611 19.9669 27.3774 19.9831H27.3936C27.8598 20.1831 28.3098 20.383 28.6098 20.5493C28.6935 20.5993 28.7935 20.5493 28.8598 20.4993C28.9598 20.383 29.0598 20.3156 29.1598 20.2493C29.2098 20.2493 29.2435 20.1993 29.2761 20.1831C29.3761 20.0993 29.3598 19.9169 29.2422 19.8493H29.2472ZM15.8644 18.9157C15.5306 20.3656 13.2808 21.9654 12.2646 21.9654H12.2483C12.2483 21.9654 12.2146 21.9654 12.1983 21.9493H12.1321C12.1321 21.9493 12.1158 21.933 12.0983 21.933C11.9146 21.8667 11.6646 21.733 11.4646 21.533C11.3309 21.4167 11.2309 21.2493 11.1984 21.083C11.1984 21.083 11.1984 21.033 11.1984 20.9993C11.1321 20.7493 11.0646 20.4493 11.2821 19.9493C11.3159 19.8831 11.3484 19.8156 11.3659 19.7493C11.3659 19.7331 11.3821 19.7156 11.3821 19.6994C11.4159 19.6494 11.4321 19.5994 11.4484 19.5494C11.4821 19.4656 11.5146 19.3994 11.5321 19.3494C11.5321 19.3331 11.5484 19.3156 11.5484 19.2831C11.6146 19.1169 11.6146 19.0494 11.6321 18.9831C11.6321 18.9331 11.6484 18.8669 11.6659 18.7669C11.7321 18.5007 11.7659 18.267 11.7996 18.067C11.8496 17.7007 11.8833 17.3833 12.0833 17.0833C12.1171 17.0333 12.1671 16.9996 12.1996 16.9496C12.2158 16.9333 12.2333 16.9333 12.2496 16.9157C12.2658 16.8983 12.2833 16.882 12.2996 16.882C12.3496 16.8483 12.3996 16.8159 12.4496 16.782C12.4496 16.782 12.4833 16.7659 12.4996 16.7659C12.5496 16.7496 12.5833 16.732 12.6333 16.732C12.817 16.682 13.0333 16.6659 13.2833 16.6983C13.5495 16.732 13.7995 16.782 14.017 16.832C14.2007 16.8983 14.3669 16.9483 14.5169 16.9983C14.5332 16.9983 14.5506 16.9983 14.5506 17.032C14.5844 17.032 14.6169 17.0483 14.6344 17.0483C14.6682 17.0646 14.7006 17.082 14.7344 17.0983C14.7844 17.1146 14.8182 17.1483 14.8682 17.1483H14.9019C15.0519 17.2483 15.1856 17.3146 15.3019 17.3983C15.3519 17.4483 15.4181 17.482 15.4519 17.532C15.4681 17.532 15.4856 17.5657 15.5019 17.582C15.5181 17.582 15.5356 17.5983 15.5519 17.6157C15.9856 18.0657 15.9518 18.5994 15.8856 18.9157H15.8644ZM16.8981 13.4335L16.8642 13.6997C16.7644 14.2834 16.5305 15.0997 15.6806 15.2996C14.8469 15.4996 14.6644 15.5496 14.0807 15.5834H14.0307C13.6145 15.5834 12.797 15.3171 12.647 14.6334C12.5471 14.2172 12.747 13.8997 13.047 13.3835C13.1133 13.2998 13.1633 13.1998 13.2308 13.0998C13.6307 12.3998 13.797 11.8998 13.9307 11.4999C14.0645 11.0999 14.1645 10.7837 14.4306 10.5162C14.4969 10.4499 14.5645 10.3824 14.6469 10.3324C14.6969 10.2987 14.7632 10.2662 14.8132 10.2325C14.8969 10.1987 14.9794 10.1662 15.0632 10.1325C15.2469 10.0662 15.4631 10.0487 15.6631 10.0487C16.0631 10.0487 16.4631 10.1487 16.7468 10.3824C16.8631 10.4824 17.0468 10.6824 17.1468 11.2986C17.2131 11.5986 17.1131 12.1648 16.8968 13.4323L16.8981 13.4335ZM22.9814 15.1159C22.6814 15.6159 22.5315 15.8996 22.2815 16.0996C21.7652 16.5159 21.1815 16.6159 20.6978 16.6159C20.3478 16.6159 20.0641 16.5659 19.8816 16.532C19.3816 16.4483 18.4655 16.2821 18.1479 15.5484C18.0979 15.3984 18.0816 15.2984 18.0816 15.1821C18.0816 15.0659 18.0816 14.8821 18.0316 14.416V14.3821C18.0155 14.1822 17.9818 13.9485 18.0479 13.6322V13.5985C18.2142 12.7148 18.2642 12.5823 18.3142 12.4986C18.3979 12.3148 18.6142 12.2486 18.7804 12.3486C18.9642 12.4323 19.0304 12.6323 18.9466 12.8148C18.9304 12.8648 18.8804 13.0485 18.7466 13.731V13.781C18.6966 13.9647 18.7129 14.1147 18.7466 14.2971V14.331C18.7966 14.8309 18.7966 15.0647 18.7966 15.1809V15.2471V15.2634C18.8466 15.3796 18.9466 15.4796 19.0966 15.5634C19.2129 15.6296 19.3304 15.5134 19.3129 15.3796C19.1629 14.596 19.1791 13.7135 19.4629 13.1635C19.5629 12.9798 19.7466 12.6635 19.9128 12.3798C19.9128 12.3798 19.9466 12.3298 19.9628 12.2961C19.9791 12.2623 19.9791 12.2461 19.9966 12.2298C20.0804 12.0961 20.1466 11.9798 20.2128 11.8798C20.2128 11.8798 20.2128 11.8636 20.2128 11.8461H20.2291C20.2291 11.8461 20.2454 11.7799 20.2628 11.7624H20.2791C20.2791 11.7624 20.2954 11.7286 20.2954 11.7124C20.2954 11.6961 20.2954 11.7124 20.2954 11.6786C20.3454 11.6124 20.3954 11.5449 20.4291 11.4949C20.5291 11.3611 20.4128 11.1949 20.2628 11.2611C20.0128 11.3774 19.8466 11.5111 19.8128 11.5274C19.6629 11.6611 19.4291 11.6274 19.3129 11.4774C19.1966 11.3274 19.2129 11.0936 19.3791 10.9774C19.5629 10.8274 20.5291 10.1275 21.6952 10.4612C22.5289 10.6949 22.9789 11.3274 23.1452 11.5774C23.2789 11.7774 23.6789 12.3611 23.6614 13.1935C23.6614 13.8272 23.3951 14.2772 22.9114 15.1097L22.9814 15.1159Z" fill="white"/>
<path d="M15.4163 10.7646C15.35 10.9146 15.2825 11.0809 15.2163 11.2809C15.0325 11.7308 14.8326 12.2471 14.7326 12.4308C14.5663 12.747 14.4326 12.947 14.3326 13.1145C14.2163 13.2982 14.1163 13.4482 14.0488 13.6482C13.9151 14.0144 13.8989 14.4145 13.9826 14.8482C13.7664 14.8319 13.3989 14.6645 13.3489 14.4819C13.3151 14.3319 13.4151 14.1819 13.6651 13.7482C13.7151 13.6645 13.7814 13.5645 13.8314 13.4645C14.2813 12.6983 14.465 12.1308 14.5976 11.7146C14.7476 11.2646 14.8138 11.0809 15.0475 10.9146C15.1475 10.8484 15.2813 10.7984 15.4138 10.7646H15.4163Z" fill="white"/>
<path d="M14.9773 26.7827C14.7273 27.2827 14.4273 27.7488 14.2273 27.9825C14.061 27.5488 13.7936 26.5664 13.861 25.7827C13.861 25.7665 13.861 25.7327 13.861 25.7165C13.8948 25.4665 13.961 25.2502 14.0773 25.0665C14.161 24.9502 14.361 24.8828 14.611 24.8828C14.7947 24.8828 14.9773 24.9165 15.1447 25.0165C15.2284 25.0665 15.361 25.1665 15.361 25.4327C15.3772 25.8165 15.1947 26.3164 14.961 26.7827H14.9773Z" fill="white"/>
<path d="M28.5125 21.1325C28.5125 21.1325 28.5462 21.1662 28.5286 21.1987C28.4625 21.3487 28.3625 21.4487 28.2625 21.5824C28.1288 21.7324 27.9962 21.8987 27.8625 22.1661C27.6788 22.5498 27.6125 22.8824 27.5788 23.7661C27.5451 24.7997 27.5788 25.3822 27.6125 25.7997C27.6462 26.2171 27.6625 26.4497 27.5788 26.8497C27.4288 27.6495 27.0951 28.1832 26.6451 28.8657C26.0951 29.7157 25.5289 30.5818 24.5952 30.8494C24.5115 30.8831 24.5115 30.8831 24.2615 30.8831C24.0452 30.8831 23.6952 30.8831 23.0278 30.9168C21.8116 30.9668 21.1942 30.9831 20.6779 31.0831C20.1279 31.1831 19.8442 31.2994 19.5618 31.4168C19.3118 31.5168 19.0781 31.6168 18.6281 31.7005C18.3618 31.7505 17.9444 31.8168 16.5782 31.8168C15.1445 31.8168 14.2784 31.8168 13.1447 31.6831C11.5785 31.4994 10.7948 31.4168 10.2611 31.1331C9.02743 30.4831 8.51122 29.2994 7.64502 27.3334C7.64502 27.3171 7.66128 27.2834 7.69502 27.2995C7.72876 27.3334 7.77876 27.3495 7.82876 27.3658C7.8625 27.3658 7.91251 27.3821 7.94501 27.3995C8.02875 27.3995 8.11125 27.3995 8.19499 27.3995H8.22873H8.26249C8.31248 27.5495 8.41248 27.6832 8.54622 27.7658C8.6962 27.8495 8.86245 27.8495 9.02993 27.8495C9.19743 27.8495 9.36366 27.8495 9.5299 27.8158C9.61365 27.8158 9.71365 27.8495 9.74615 27.9321C9.89613 28.2982 10.0961 28.5658 10.3798 28.6158C10.3798 28.6158 10.4136 28.6158 10.4461 28.6158C10.4961 28.6158 10.5798 28.6158 10.6961 28.5319C10.8298 28.4482 11.0461 28.4982 11.146 28.6158C11.2123 28.6819 11.2798 28.7495 11.3298 28.7819C11.6298 29.0819 12.3297 29.2319 12.9297 29.2319C13.2634 29.2319 13.5459 29.1819 13.7134 29.0982C13.9634 28.9819 13.9634 28.7982 13.9471 28.7145C13.9309 28.5808 13.9134 28.4482 13.8971 28.3145C13.8971 28.3145 13.9134 28.2982 13.9309 28.3145C13.9646 28.3982 14.0146 28.4982 14.1309 28.5145C14.1309 28.5145 14.1646 28.5145 14.1809 28.5145C14.3471 28.5145 14.6146 28.5645 14.6471 28.7307C14.6634 28.8145 14.6971 28.8969 14.7471 28.9645C14.8471 29.1307 15.0471 29.3144 15.4471 29.3144H15.4808C15.9469 29.3144 16.2969 29.1645 16.5469 28.8645C16.5469 28.8482 16.5806 28.8307 16.5969 28.7982C16.6806 28.6819 16.9469 28.6645 17.0469 28.7645C17.1632 28.8807 17.3306 28.9307 17.4969 28.9307C17.5306 28.9307 17.5469 28.9307 17.5806 28.9307C17.7806 28.9145 17.9644 28.7969 18.0969 28.6145C18.1806 28.4982 18.2468 28.3482 18.2968 28.1808C18.2968 28.1308 18.3806 28.1145 18.4131 28.1469C18.4968 28.2308 18.6468 28.3132 18.8468 28.3132C18.8968 28.3132 18.9468 28.3132 19.0131 28.2969C19.4131 28.2132 19.6131 27.8808 19.7131 27.5132C19.7131 27.5132 19.7292 27.5132 19.7468 27.5132C19.8468 27.6295 20.0305 27.7795 20.3629 27.7795C20.3792 27.7795 20.3968 27.7795 20.4129 27.7795C20.5792 27.7795 20.7292 27.6958 20.8466 27.5632C20.9629 27.3971 21.0305 27.1634 21.0305 26.9297C21.0305 26.8458 21.0966 26.7634 21.1804 26.7297C21.5142 26.5797 21.9304 26.2797 22.0466 26.0797C22.0804 26.0134 22.1466 25.9634 22.2129 25.9459C22.4628 25.8959 22.5791 25.8459 22.6791 25.7959C22.7628 25.7622 22.8291 25.7297 23.0291 25.6959C24.5789 25.4622 24.8789 25.4122 25.2126 25.1797C25.7126 24.8459 25.7464 24.3798 25.7626 23.9461C25.7789 23.5622 25.8126 23.1461 26.0964 22.6461C26.1964 22.4624 26.3301 22.2299 26.4626 21.9961C26.6788 21.5799 26.9964 21.0125 27.2288 20.6962C27.2788 20.6299 27.3788 20.5962 27.4625 20.6299C27.9788 20.8462 28.4288 21.0799 28.5286 21.1462L28.5125 21.1325Z" fill="white"/>
<path d="M13.4846 25.7319C13.4183 26.2656 13.3846 26.9818 13.4846 27.9155C13.5008 28.1816 13.5508 28.4492 13.5845 28.7316C13.5183 28.7654 13.2846 28.8316 12.9008 28.8154C12.3346 28.8154 11.8009 28.6655 11.6347 28.4816H11.6009C11.4672 28.3479 11.3672 28.2816 11.3672 28.0818C11.3672 28.0155 11.3834 27.9479 11.4509 27.8655C11.4847 27.8155 11.5347 27.7492 11.5847 27.6818C11.6847 27.5481 11.8009 27.3981 11.9184 27.1981C12.2684 26.5981 12.4021 26.4144 12.5684 26.1981C12.5684 26.1818 12.6021 26.1644 12.6184 26.1481C12.7183 26.0144 12.8346 25.8481 13.0183 25.5819C13.1521 25.3819 13.2521 25.2319 13.3521 25.0982C13.5021 24.8982 13.602 24.7819 13.6683 24.7319C13.6683 24.8319 13.6345 24.9482 13.6183 25.0656C13.5845 25.2494 13.552 25.4819 13.5183 25.7494L13.4846 25.7319Z" fill="white"/>
<path d="M13.212 17.4165C13.1457 17.5165 13.062 17.6328 12.962 17.8502C12.6957 18.4502 12.6957 18.784 12.6782 19.0502C12.6782 19.2002 12.6782 19.3002 12.6283 19.434C12.5945 19.5177 12.562 19.6177 12.512 19.734C12.362 20.1001 12.1458 20.5677 12.2458 21.2001C12.112 21.1338 11.9295 21.0001 11.8958 20.9164C11.8958 20.8825 11.8958 20.8501 11.8795 20.8164C11.8296 20.6164 11.8133 20.4827 11.9295 20.2001C12.2633 19.434 12.2958 19.2502 12.3295 19.0502C12.3295 19.0002 12.3295 18.9664 12.3458 18.9164C12.412 18.6165 12.4458 18.3502 12.4795 18.1502C12.5295 17.834 12.5458 17.6341 12.6633 17.4665C12.697 17.4165 12.8132 17.3828 12.9632 17.3828C13.0295 17.3828 13.097 17.3828 13.1795 17.3828H13.1957C13.1957 17.3828 13.1957 17.3828 13.212 17.3828V17.4165Z" fill="white"/>
<path d="M12.7833 24.9648C12.7671 24.781 12.7333 24.5985 12.6671 24.431C12.6671 24.431 12.6508 24.381 12.6333 24.3648C12.6333 24.3485 12.5996 24.3148 12.5996 24.2985C12.5996 24.2985 12.5996 24.2985 12.5833 24.2823C12.5833 24.2823 12.5671 24.266 12.5496 24.2485C12.5496 24.2485 12.5496 24.2485 12.5333 24.2485C12.5333 24.2485 12.4996 24.2485 12.4996 24.2323C12.4996 24.2323 12.4996 24.2323 12.4833 24.2323C12.3833 24.1986 12.2671 24.1486 12.1496 24.1323H12.1159C12.1159 24.1323 12.0821 24.1323 12.0659 24.1323C12.0659 24.1323 12.0659 24.1323 12.0496 24.1323C12.0496 24.1323 11.9996 24.1323 11.9659 24.1486C11.9659 24.1486 11.9496 24.1486 11.9321 24.1648C11.9321 24.1648 11.9159 24.1648 11.8984 24.181C11.8984 24.181 11.8821 24.2148 11.8646 24.2148C11.8646 24.2148 11.8646 24.231 11.8484 24.2485C11.7984 24.3148 11.7646 24.3823 11.7146 24.4485C11.6146 24.5985 11.4984 24.7648 11.3984 24.9148C11.2984 25.0485 11.1984 25.1985 11.0984 25.331C11.0484 25.4148 10.9984 25.4809 10.9322 25.5648C10.9322 25.5648 10.9159 25.5985 10.8984 25.5985C10.9647 25.5985 11.0322 25.6148 11.0822 25.6322C11.2322 25.6659 11.3659 25.6822 11.5159 25.6985C11.8159 25.7322 12.1159 25.7648 12.4158 25.7485C12.4158 25.7485 12.4496 25.7485 12.4658 25.7485C12.5321 25.6485 12.6321 25.5148 12.7321 25.3485C12.7983 25.2485 12.8483 25.1648 12.8983 25.0822C12.8821 25.0485 12.8646 24.9985 12.8483 24.9485L12.7833 24.9648Z" fill="white"/>
<path d="M11.7174 26.1984C11.6836 26.4321 11.4336 27.0321 11.0337 27.5983C10.6999 28.082 10.4837 28.182 10.4499 28.1983C10.2837 28.182 10.1337 27.7646 9.99997 27.3646C9.94997 27.1984 9.89999 27.0484 9.86623 26.8984C9.78249 26.5984 9.76624 26.1821 9.78249 25.9321C10.1162 26.116 10.7162 26.166 11.5661 26.1821C11.5661 26.1821 11.6824 26.1821 11.7324 26.1984H11.7174Z" fill="white"/>
<path d="M11.1146 24.3009C11.1146 24.3009 11.1146 24.3009 11.1146 24.317C10.9646 24.5333 10.8309 24.7333 10.6809 24.9507C10.5971 25.067 10.5309 25.167 10.4646 25.2846C10.4309 25.3507 10.3647 25.4183 10.3147 25.4844C10.1984 25.4507 10.0809 25.4345 9.96467 25.4007C9.86468 25.367 9.76468 25.3507 9.68094 25.3007C9.6647 25.3007 9.6472 25.3007 9.63094 25.2846C9.63094 25.2507 9.5972 25.2183 9.5647 25.2007C9.59845 25.1346 9.63094 25.067 9.6647 24.9846C9.73094 24.8507 9.79844 24.7346 9.86468 24.6009C9.99843 24.3846 10.1484 24.1509 10.3647 24.0172C10.3647 24.0172 10.3809 24.0172 10.3984 24.0009C10.4821 23.9509 10.5646 23.9172 10.6646 23.9009C10.6646 23.9009 10.7484 23.9009 10.7809 23.9009C10.8146 23.9009 10.8309 23.9009 10.8646 23.9172C10.8646 23.9172 10.8809 23.9172 10.8984 23.9172C10.9159 23.9172 10.9484 23.9509 10.9646 23.9672C10.9309 23.9333 11.0146 24.0172 11.0146 24.0172C11.0809 24.1009 11.0984 24.1833 11.1146 24.3009Z" fill="white"/>
<path d="M9.96489 23.6979C9.69866 23.9142 9.49867 24.2142 9.34867 24.514C9.26493 24.6803 9.18244 24.8479 9.08244 25.0303C9.08244 25.0466 9.0662 25.064 9.0487 25.0803C8.96496 25.064 8.88246 25.0466 8.81496 25.014C8.73122 24.9803 8.64872 24.964 8.56497 24.914C8.53123 24.8979 8.49873 24.8803 8.44873 24.864C8.53247 24.714 8.63247 24.564 8.71497 24.4303C8.84872 24.2303 8.9812 24.0303 9.13119 23.8466C9.18119 23.7805 9.24743 23.6966 9.33117 23.6466C9.41493 23.5966 9.51492 23.6129 9.59742 23.6129C9.6974 23.6129 9.7974 23.6129 9.89739 23.6629C9.91364 23.6629 9.93114 23.6792 9.94739 23.6966L9.96489 23.6979Z" fill="white"/>
<path d="M9.5465 27.2806C9.5465 27.2806 9.53026 27.2967 9.51276 27.3143H9.4965C9.43026 27.3143 9.36276 27.3143 9.29652 27.3143C9.18028 27.3143 9.04653 27.3143 8.91279 27.3143C8.84655 27.3143 8.77905 27.3143 8.74655 27.2643C8.69656 27.198 8.6803 27.0643 8.6628 26.9806C8.57906 26.5306 8.56282 26.0469 8.62906 25.5806C8.86279 25.6643 9.11278 25.7306 9.36276 25.7806C9.31278 26.1969 9.39652 26.8143 9.46276 26.9967C9.4965 27.0806 9.51276 27.163 9.5465 27.263V27.2806Z" fill="white"/>
<path d="M8.78433 23.5475C8.56808 23.8136 8.38434 24.0812 8.20061 24.3636C8.13435 24.4799 8.05061 24.5973 8.00063 24.7299C7.91687 24.7136 7.83438 24.6799 7.76688 24.6299C7.70064 24.596 7.65064 24.546 7.58314 24.5136C7.58314 24.5136 7.53315 24.4636 7.4994 24.4473C7.4994 24.4473 7.4994 24.4473 7.48315 24.4473C7.4994 24.3973 7.53315 24.331 7.5494 24.2973C7.5994 24.1973 7.6494 24.0973 7.69938 24.0136C7.79938 23.8473 7.89937 23.6636 8.03311 23.5136C8.08311 23.4636 8.11685 23.3799 8.19935 23.3636C8.2656 23.3475 8.34935 23.3636 8.39934 23.3636C8.54934 23.3975 8.68308 23.4636 8.78307 23.5799L8.78433 23.5475Z" fill="white"/>
<path d="M7.14803 24.665C7.14803 24.665 7.16429 24.665 7.18179 24.665C7.23179 24.7488 7.31553 24.815 7.39802 24.865C7.43178 24.8988 7.46428 24.915 7.51426 24.9488C7.51426 24.9488 7.51426 24.9488 7.51426 24.965C7.43052 25.315 7.36428 25.6988 7.36428 26.065C7.36428 26.0812 7.33053 26.0812 7.33053 26.065C7.23053 25.6313 7.08179 24.915 7.14803 24.665Z" fill="white"/>
<path d="M8.1834 25.4472C8.13341 25.7633 8.11716 26.0809 8.13341 26.397C8.13341 26.5633 8.16716 26.747 8.1834 26.9133C8.1834 26.9133 8.09966 26.9133 8.06716 26.9133C8.06716 26.9133 8.06716 26.9133 8.05091 26.9133C8.05091 26.9133 8.05091 26.9133 8.03467 26.9133C7.98467 26.9133 7.98467 26.9133 7.95091 26.8796C7.90093 26.8458 7.85093 26.7958 7.81718 26.7458C7.73343 26.5959 7.71718 26.412 7.70093 26.262C7.70093 25.9283 7.70094 25.6122 7.78468 25.2959C7.83467 25.3122 7.88467 25.3296 7.95091 25.3622C8.01717 25.3946 8.10091 25.4285 8.18466 25.4622L8.1834 25.4472Z" fill="white"/>
</g>
<defs>
<clipPath id="clip0_1407_16">
<rect width="40" height="40" fill="white"/>
</clipPath>
</defs>
</svg>
