<svg width="41" height="40" viewBox="0 0 41 40" fill="none" xmlns="http://www.w3.org/2000/svg">
<g clip-path="url(#clip0_1407_79)">
<path d="M40.8333 20C40.8333 31.0463 31.8795 40 20.8333 40C9.78699 40 0.833252 31.0463 0.833252 20C0.833252 8.95374 9.78699 0 20.8333 0C31.8795 0 40.8333 8.95374 40.8333 20Z" fill="#8DC351"/>
<path d="M26.211 12.1869C24.8736 9.89941 22.461 10.0557 19.7236 11.0369L18.1799 7.71191L16.161 8.64941L17.661 11.8744L16.0549 12.6432L14.5798 9.37441L12.561 10.3057L14.0985 13.6244C13.6673 13.8369 13.236 14.0494 12.8173 14.2494L10.0298 15.5369L11.0298 17.6994C11.0298 17.6994 12.5048 16.9744 12.4923 17.0181C12.666 16.9069 12.8773 16.8419 13.1048 16.8419C13.506 16.8419 13.8585 17.0469 14.0648 17.3581L14.0673 17.3619L15.8173 21.1431L16.036 21.0557L15.8236 21.1557L18.2799 26.4557C18.316 26.5431 18.3373 26.6457 18.3373 26.7519C18.3373 27.0981 18.1136 27.3919 17.8036 27.4981L17.7986 27.4994C17.836 27.4994 16.3299 28.1807 16.3299 28.1807L17.0423 30.7807L19.6736 29.5619L21.1236 28.9057L22.7049 32.2431L24.7236 31.3119L23.186 27.9869C23.7423 27.7431 24.2799 27.4994 24.8049 27.2557L26.336 30.5619L28.3299 29.6244L26.7799 26.2494C30.086 24.4807 32.0673 22.4994 30.886 19.1994C29.936 16.5181 28.1923 15.9307 26.0549 16.3619C26.9486 15.2494 27.1923 13.8619 26.211 12.1869ZM26.7049 20.6744C27.8736 23.1744 23.4423 24.8869 22.0736 25.5244L20.0173 21.0744C21.386 20.4431 25.4986 18.0557 26.7049 20.6744ZM22.861 14.8369C23.9173 17.1181 20.211 18.5119 19.0736 19.0369L17.2049 14.9994C18.3299 14.4744 21.761 12.4557 22.861 14.8369Z" fill="white"/>
</g>
<defs>
<clipPath id="clip0_1407_79">
<rect width="40" height="40" fill="white" transform="translate(0.833252)"/>
</clipPath>
</defs>
</svg>
