<svg width="40" height="40" viewBox="0 0 40 40" fill="none" xmlns="http://www.w3.org/2000/svg">
<g clip-path="url(#clip0_1407_117)">
<path fill-rule="evenodd" clip-rule="evenodd" d="M20 0C31.0465 0 40 8.95353 40 20C40 31.0465 31.0465 40 20 40C8.95353 40 0 31.0465 0 20C0 8.95353 8.95353 0 20 0Z" fill="#F0B90B"/>
<path d="M10.9932 20.0003L11.0076 25.2888L15.5012 27.933V31.0292L8.37782 26.8513V18.4539L10.9932 20.0003ZM10.9932 14.7119V17.7936L8.37622 16.2455V13.1638L10.9932 11.6157L13.623 13.1638L10.9932 14.7119ZM17.3778 13.1638L19.9948 11.6157L22.6246 13.1638L19.9948 14.7119L17.3778 13.1638Z" fill="white"/>
<path d="M12.885 24.1926V21.0965L15.502 22.6446V25.7263L12.885 24.1926ZM17.3786 29.042L19.9956 30.5901L22.6254 29.042V32.1237L19.9956 33.6718L17.3786 32.1237V29.042ZM26.3786 13.1638L28.9956 11.6157L31.6254 13.1638V16.2455L28.9956 17.7936V14.7119L26.3786 13.1638ZM28.9956 25.2888L29.01 20.0003L31.627 18.4523V26.8497L24.5036 31.0276V27.9314L28.9956 25.2888Z" fill="white"/>
<path d="M27.1148 24.1928L24.4978 25.7265V22.6448L27.1148 21.0967V24.1928Z" fill="white"/>
<path d="M27.119 15.8073L27.1334 18.9034L22.627 21.5477V26.849L20.01 28.3826L17.393 26.849V21.5477L12.8866 18.9034V15.8073L15.5148 14.2592L19.994 16.9163L24.5004 14.2592L27.1302 15.8073H27.119ZM12.885 10.5204L19.9956 6.32812L27.119 10.5204L24.502 12.0685L19.9956 9.41146L15.502 12.0685L12.885 10.5204Z" fill="white"/>
</g>
<defs>
<clipPath id="clip0_1407_117">
<rect width="40" height="40" fill="white"/>
</clipPath>
</defs>
</svg>
