<svg width="41" height="40" viewBox="0 0 41 40" fill="none" xmlns="http://www.w3.org/2000/svg">
<g clip-path="url(#clip0_1407_48)">
<path d="M40.8333 20C40.8333 31.0463 31.8795 40 20.8333 40C9.78699 40 0.833252 31.0463 0.833252 20C0.833252 8.95374 9.78699 0 20.8333 0C31.8795 0 40.8333 8.95374 40.8333 20Z" fill="#F3BA2F"/>
<path d="M15.9783 18.005L20.8333 13.15L25.6907 18.0076L28.5158 15.1824L20.8333 7.5L13.1533 15.18L15.9783 18.005ZM8.33325 20L11.1583 17.175L13.9833 20L11.1583 22.825L8.33325 20ZM15.9783 21.995L20.8333 26.85L25.6907 21.9924L28.5158 24.8163L20.8333 32.5L13.1495 24.8163L15.9783 21.995ZM27.6833 20L30.5083 17.175L33.3333 20L30.5083 22.825L27.6833 20ZM23.6983 19.9974H23.7008V20L20.8333 22.8676L17.9645 20L17.9695 19.9963L18.7145 19.25L20.8333 17.1326L23.6995 19.9987L23.6983 19.9974Z" fill="white"/>
</g>
<defs>
<clipPath id="clip0_1407_48">
<rect width="40" height="40" fill="white" transform="translate(0.833252)"/>
</clipPath>
</defs>
</svg>
