<svg width="41" height="40" viewBox="0 0 41 40" fill="none" xmlns="http://www.w3.org/2000/svg">
<g clip-path="url(#clip0_1407_4)">
<path d="M40.5 20C40.5 31.0454 31.5454 40 20.5 40C9.45459 40 0.5 31.0454 0.5 20C0.5 8.95459 9.45459 0 20.5 0C31.5454 0 40.5 8.95459 40.5 20Z" fill="#F7931A"/>
<path d="M29.4864 17.526C29.8748 14.9077 27.8829 13.4984 25.1519 12.5589L26.0351 9.00736L23.8804 8.46869L23.0035 11.9262C22.4335 11.7822 21.8509 11.6506 21.2746 11.5191L22.1516 8.05527L19.9906 7.5166L19.1075 11.0619C18.6376 10.9554 18.1742 10.8489 17.7295 10.7361L14.7479 9.99076L14.1779 12.2958C14.1779 12.2958 15.7815 12.6654 15.7439 12.6842C16.3176 12.7556 16.7574 13.2404 16.7574 13.8279C16.7574 13.8667 16.7548 13.9043 16.7524 13.9419V13.9369L15.7439 17.9833C15.8328 18.0046 15.9079 18.0283 15.9806 18.0559L15.9694 18.0521L15.7439 17.9957L14.3283 23.6331C14.2268 23.955 13.9299 24.1856 13.5804 24.1856C13.4939 24.1856 13.4113 24.1717 13.3336 24.1454L13.3386 24.1467L11.7664 23.7584L10.6953 26.22L13.5077 26.9153L15.0486 27.3161L14.1529 30.9053L16.3139 31.444L17.1971 27.8924C17.7858 28.049 18.3558 28.1993 18.9195 28.3371L18.0364 31.8761L20.1974 32.4149L21.0868 28.832C24.7761 29.5273 27.5446 29.2454 28.7098 25.9131C29.6492 23.2323 28.6659 21.6851 26.7241 20.6766C28.1398 20.376 29.1984 19.4427 29.4864 17.526ZM24.5444 24.4474C23.8804 27.1346 19.3642 25.7001 17.8986 25.318L19.0824 20.5827C20.5481 20.9271 25.2459 21.6537 24.5444 24.4474ZM25.2146 17.4884C24.5882 19.9313 20.8299 18.6847 19.6274 18.3841L20.7046 14.0747C21.9199 14.3753 25.8472 14.9453 25.2146 17.4884Z" fill="white"/>
</g>
<defs>
<clipPath id="clip0_1407_4">
<rect width="40" height="40" fill="white" transform="translate(0.5)"/>
</clipPath>
</defs>
</svg>
