<svg width="41" height="40" viewBox="0 0 41 40" fill="none" xmlns="http://www.w3.org/2000/svg">
<g clip-path="url(#clip0_1407_10)">
<path d="M40.1667 20C40.1667 31.0463 31.213 40 20.1667 40C9.12049 40 0.166748 31.0463 0.166748 20C0.166748 8.95374 9.12049 0 20.1667 0C31.213 0 40.1667 8.95374 40.1667 20Z" fill="#F0B90B"/>
<path d="M20.1651 5.24854L23.8151 8.98229L14.6314 18.1661L10.9814 14.5161L20.1651 5.24854Z" fill="#473800"/>
<path d="M25.6983 10.7842L29.3483 14.518L14.6483 29.218L10.9983 25.568L25.6983 10.7842Z" fill="#473800"/>
<path d="M9.10142 16.3169L12.7514 20.0506L9.10142 23.7006L5.45142 20.0506L9.10142 16.3169Z" fill="#473800"/>
<path d="M31.2339 16.3164L34.8839 20.0503L20.1839 34.7503L16.5339 31.1003L31.2339 16.3003V16.3164Z" fill="#473800"/>
</g>
<defs>
<clipPath id="clip0_1407_10">
<rect width="40" height="40" fill="white" transform="translate(0.166748)"/>
</clipPath>
</defs>
</svg>
