<svg width="36" height="37" viewBox="0 0 36 37" fill="none" xmlns="http://www.w3.org/2000/svg">
<g id="CNY" clip-path="url(#clip0_2755_170)">
<path id="Vector" d="M36.0056 18.314C36.0056 28.2556 27.9473 36.314 18.0056 36.314C8.06398 36.314 0.00561523 28.2556 0.00561523 18.314C0.00561523 8.37233 8.06398 0.313965 18.0056 0.313965C27.9473 0.313965 36.0056 8.37233 36.0056 18.314Z" fill="#FF0000"/>
<path id="Vector_2" d="M20.8117 18.1329H26.1071V19.9633H19.6124V22.4686H26.1071V24.299H19.6124V27.5086H16.4174V24.299H9.96778V22.4686H16.4331V19.9633H9.96778V18.1329H15.2328L9.36816 9.32751H13.0131L18.0228 17.1271L22.9874 9.32751H26.6471L20.8117 18.1329Z" fill="#FFF200"/>
</g>
<defs>
<clipPath id="clip0_2755_170">
<rect width="36" height="36" fill="white" transform="translate(0.00390625 0.313965)"/>
</clipPath>
</defs>
</svg>
