<svg xmlns="http://www.w3.org/2000/svg" width="36" height="37" viewBox="0 0 36 37" fill="none">
  <g clip-path="url(#clip0_2907_492)">
    <path d="M36.0039 18.5C36.0039 28.4303 27.9489 36.5 18.0039 36.5C8.05891 36.5 0.00390625 28.4303 0.00390625 18.5C0.00390625 12.74 2.70391 7.62463 6.90354 4.325C6.99354 4.24963 7.09816 4.17537 7.18816 4.11462C10.2032 1.83425 13.9527 0.5 18.0027 0.5C27.9477 0.5 36.0039 8.555 36.0039 18.5Z" fill="#FF007A"/>
    <path d="M13.9064 6.83008C13.5611 6.78508 13.5464 6.77046 13.7118 6.74008C14.0268 6.69508 14.7614 6.75471 15.2722 6.87508C16.4726 7.15971 17.5368 7.87971 18.6922 9.17008L18.9926 9.51546L19.4279 9.45583C21.2729 9.15546 23.1629 9.39621 24.7379 10.1162C25.1733 10.3108 25.8483 10.7158 25.9383 10.8058C25.9687 10.8362 26.0283 11.0612 26.0587 11.2705C26.1791 12.0501 26.1183 12.6351 25.8787 13.0705C25.7437 13.3258 25.7437 13.3855 25.8337 13.5958C25.8933 13.7612 26.1037 13.8805 26.2837 13.8805C26.6887 13.8805 27.0937 13.2505 27.2883 12.3651L27.3783 12.0197L27.5279 12.1851C28.3683 13.1301 29.0433 14.4351 29.1333 15.3655L29.1637 15.6208L29.0141 15.4105C28.7587 15.0358 28.5337 14.7805 28.2187 14.5701C27.6483 14.1955 27.0633 14.0751 25.4883 13.9851C24.0629 13.8951 23.2529 13.7905 22.4587 13.5205C21.0941 13.0705 20.4033 12.4855 18.7991 10.3558C18.0791 9.41083 17.6437 8.90121 17.1937 8.46583C16.2183 7.52083 15.2441 7.02583 13.9683 6.83121L13.9064 6.83008Z" fill="white"/>
    <path d="M26.2526 8.94755C26.2829 8.31755 26.3729 7.89792 26.5529 7.52217C26.6126 7.37255 26.6879 7.23755 26.7026 7.23755C26.7172 7.23755 26.6879 7.35792 26.6429 7.49292C26.5079 7.85292 26.4933 8.3783 26.5833 8.94755C26.7037 9.69792 26.7487 9.78792 27.5429 10.6125C27.9029 10.9872 28.3383 11.4675 28.5026 11.6779L28.7872 12.0379L28.5026 11.7679C28.1572 11.4383 27.3629 10.8083 27.1829 10.7183C27.0626 10.6587 27.0479 10.6587 26.9726 10.7329C26.9129 10.7925 26.8826 10.8983 26.8826 11.3775C26.8679 12.1279 26.7622 12.5925 26.5226 13.0729C26.3876 13.3283 26.3729 13.2675 26.4922 12.9829C26.5822 12.7725 26.5968 12.6679 26.5968 11.9479C26.5968 10.5079 26.4314 10.1625 25.4268 9.57755C25.1714 9.42792 24.7518 9.21755 24.4964 9.09717C24.2264 8.9768 24.0318 8.8868 24.0464 8.8868C24.0768 8.85642 25.0511 9.14217 25.4414 9.30642C26.0264 9.53142 26.1164 9.5618 26.1918 9.53142C26.2368 9.48642 26.2818 9.35142 26.2964 8.9318L26.2526 8.94755Z" fill="white"/>
    <path d="M14.585 11.4035C13.8954 10.4439 13.4454 8.94316 13.5354 7.83391L13.5657 7.48853L13.7312 7.51891C14.0315 7.56391 14.5412 7.77428 14.7965 7.92391C15.4569 8.32891 15.7562 8.86891 16.0419 10.2335C16.1319 10.6385 16.2365 11.0885 16.2972 11.2382C16.3872 11.4935 16.7022 12.0628 16.9577 12.4385C17.1377 12.7085 17.0172 12.8435 16.6122 12.7985C15.9822 12.7389 15.1419 12.1539 14.5872 11.4035H14.585Z" fill="white"/>
    <path d="M25.4126 18.6208C22.1276 17.3012 20.9722 16.1458 20.9722 14.2108C20.9722 13.9262 20.9868 13.7012 20.9868 13.7012C21.0015 13.7012 21.1218 13.8058 21.2715 13.9115C21.9318 14.4369 22.6811 14.6765 24.7511 14.9769C25.9661 15.1569 26.6557 15.2919 27.2857 15.5023C29.2961 16.1627 30.5403 17.5273 30.8261 19.3577C30.9161 19.883 30.8565 20.9023 30.7215 21.4277C30.6011 21.8473 30.2715 22.5977 30.1961 22.628C30.1815 22.628 30.1511 22.538 30.1511 22.4177C30.1207 21.728 29.7765 21.053 29.1915 20.5423C28.5018 19.9427 27.6018 19.4927 25.4115 18.6219L25.4126 18.6208Z" fill="white"/>
    <path d="M23.0868 19.1586C23.0564 18.9033 22.9664 18.5883 22.9214 18.469L22.8314 18.2136L22.9811 18.3936C23.1914 18.649 23.3558 18.9336 23.5064 19.3533C23.6268 19.6683 23.6268 19.7729 23.6268 20.2836C23.6268 20.7944 23.6123 20.899 23.5064 21.1836C23.3411 21.6336 23.1464 21.9486 22.8168 22.294C22.2173 22.9094 21.4364 23.239 20.3273 23.3886C20.1326 23.4033 19.5623 23.4483 19.0673 23.4933C17.8218 23.5529 16.9973 23.6879 16.2468 23.9579C16.1423 23.9883 16.0523 24.0175 16.0364 24.0029C16.0061 23.9725 16.5168 23.6733 16.9364 23.4775C17.5214 23.1929 18.1064 23.0421 19.4261 22.8171C20.0708 22.7125 20.7311 22.5921 20.8964 22.5168C22.5311 22.0071 23.3568 20.7314 23.0868 19.1721V19.1586Z" fill="white"/>
    <path d="M24.6011 21.8305C24.1656 20.8855 24.0756 19.9856 24.3006 19.1452C24.3311 19.0552 24.3602 18.9797 24.4052 18.9797C24.4502 18.9797 24.5402 19.0247 24.6302 19.1002C24.8249 19.2352 25.2456 19.4602 26.3099 20.0452C27.6599 20.7797 28.4102 21.3355 28.9502 21.9802C29.4149 22.5505 29.7006 23.1952 29.8356 23.9906C29.9256 24.4406 29.8661 25.5206 29.7456 25.9706C29.3856 27.3802 28.5452 28.5052 27.3461 29.1509C27.1661 29.2555 27.0164 29.3162 27.0006 29.3162C26.9849 29.3162 27.0456 29.1509 27.1502 28.9562C27.5552 28.1159 27.6002 27.2912 27.2999 26.3912C27.1199 25.8209 26.7296 25.1459 25.9802 24.0062C25.0656 22.6867 24.8552 22.3267 24.6156 21.8462L24.6011 21.8305Z" fill="white"/>
    <path d="M12.2432 26.9025C13.4729 25.8675 14.9736 25.1475 16.3686 24.9078C16.9682 24.8032 17.9582 24.8482 18.514 24.9978C19.3994 25.2228 20.1936 25.7325 20.5986 26.3478C21.0036 26.9475 21.1836 27.4582 21.3636 28.5978C21.4232 29.0478 21.5132 29.5125 21.529 29.6025C21.664 30.202 21.934 30.6678 22.2636 30.9075C22.7732 31.282 23.6732 31.3125 24.5586 30.967C24.7082 30.922 24.8432 30.8625 24.8432 30.877C24.8736 30.9075 24.4236 31.2067 24.1232 31.3575C23.7036 31.5678 23.3729 31.642 22.9229 31.642C22.1274 31.642 21.4525 31.2225 20.8979 30.3967C20.7775 30.2313 20.5525 29.752 20.3579 29.302C19.7729 27.952 19.4725 27.5617 18.7974 27.1117C18.1979 26.737 17.4329 26.647 16.8625 26.9317C16.0975 27.2917 15.9029 28.2817 16.4271 28.8667C16.6375 29.122 17.0424 29.3167 17.3721 29.3617C17.9874 29.4517 18.5117 28.9567 18.5117 28.357C18.5117 27.952 18.3621 27.727 17.9717 27.547C17.4464 27.322 16.8614 27.5775 16.8771 28.087C16.8771 28.2975 16.9817 28.4325 17.1921 28.537C17.2821 28.5767 17.2922 28.5918 17.2225 28.582C16.7421 28.4775 16.6229 27.8925 17.0121 27.502C17.4767 27.0375 18.4521 27.232 18.7817 27.8767C18.9167 28.1467 18.9314 28.672 18.8121 29.0017C18.5275 29.7363 17.7321 30.112 16.9221 29.9017C16.3821 29.752 16.1425 29.6013 15.4821 28.9263C14.3267 27.726 13.8767 27.501 12.2117 27.2467L11.8967 27.2017L12.2421 26.872L12.2432 26.9025Z" fill="white"/>
    <path d="M14.5846 12.2756C14.1346 11.766 10.3242 7.56522 7.18996 4.11597C7.09996 4.17559 6.99533 4.25097 6.90533 4.32634C10.16 8.30097 13.4303 12.3217 13.6408 12.6063C13.8961 12.9517 13.7903 13.2667 13.3853 13.4917C13.1458 13.6267 12.6653 13.7617 12.4403 13.7617C12.1703 13.7617 11.8553 13.6268 11.645 13.4163C11.4953 13.2667 10.8496 12.3217 9.38033 10.0413C8.26996 8.30097 7.32496 6.86097 7.31033 6.84634C7.31033 6.84634 7.96545 8.04147 9.27571 10.4317C10.5503 12.6963 10.9553 13.5063 10.9553 13.6121C10.9553 13.8225 10.8957 13.9417 10.6257 14.2421C10.1903 14.7371 9.98108 15.3075 9.83033 16.4775C9.66496 17.7825 9.21496 18.7128 7.94033 20.2878C7.20571 21.2183 7.08533 21.3825 6.90533 21.7582C6.66571 22.2228 6.60496 22.4928 6.57571 23.0936C6.53071 23.7236 6.60608 24.114 6.78608 24.7136C6.95146 25.2536 7.13146 25.599 7.58146 26.274C7.95608 26.8736 8.19683 27.3236 8.19683 27.489C8.19683 27.624 8.22721 27.624 8.82683 27.489C10.2522 27.1593 11.4222 26.589 12.0668 25.8993C12.4718 25.464 12.5765 25.2243 12.5765 24.6393C12.5765 24.249 12.5765 24.1747 12.4561 23.934C12.2907 23.574 11.9757 23.2736 11.3007 22.809C10.4007 22.1936 10.0103 21.6986 9.92033 21.0393C9.83033 20.469 9.93496 20.0943 10.43 19.0447C10.9396 17.9647 11.0746 17.5293 11.1646 16.4347C11.2096 15.7293 11.2996 15.4447 11.4942 15.2343C11.7046 15.0093 11.8846 14.9193 12.4088 14.8597C13.2493 14.7393 13.7893 14.5301 14.2234 14.1093C14.6138 13.764 14.7781 13.4197 14.7938 12.8943V12.5197L14.5834 12.2801L14.5846 12.2756ZM8.62996 23.7956C8.46458 24.096 8.14958 24.2006 7.90996 24.0206C7.76033 23.9002 7.76033 23.736 7.87958 23.556C7.99883 23.376 7.98421 23.286 7.83458 23.2106C7.72996 23.1656 7.69958 23.106 7.69958 23.0452C7.69958 22.7898 8.11921 22.6998 8.40496 22.8956C8.70533 23.0902 8.80996 23.4806 8.62996 23.7956Z" fill="white"/>
    <path d="M16.3694 15.1833C16.114 15.0483 15.6044 15.0033 15.3344 15.0786C14.944 15.1991 14.5548 15.6333 14.449 16.0541C14.3736 16.3241 14.404 16.8044 14.5244 16.9541C14.7044 17.1791 14.8698 17.2544 15.3344 17.2544C16.249 17.2544 17.0298 16.8494 17.104 16.3691C17.194 15.9786 16.8486 15.4229 16.3694 15.1833ZM16.3986 15.9033C16.294 16.0383 15.9936 16.1733 15.7833 16.1733C15.4536 16.1733 15.1083 15.9483 15.1083 15.7233C15.1083 15.3036 15.7833 15.0629 16.2333 15.3486C16.4729 15.4983 16.5336 15.7086 16.3986 15.9033Z" fill="white"/>
  </g>
  <defs>
    <clipPath id="clip0_2907_492">
      <rect width="36" height="36" fill="white" transform="translate(0.00390625 0.5)"/>
    </clipPath>
  </defs>
</svg>