<svg width="40" height="40" viewBox="0 0 40 40" fill="none" xmlns="http://www.w3.org/2000/svg">
<g clip-path="url(#clip0_1407_73)">
<path d="M40 20C40 31.0463 31.0463 40 20 40C8.95374 40 0 31.0463 0 20C0 8.95374 8.95374 0 20 0C31.0463 0 40 8.95374 40 20Z" fill="#0F76F8"/>
<path d="M20.0013 38.4985L3.96753 29.2485V10.7485L20.0013 1.49854L36.035 10.7485V29.2648L20.0013 38.5148V38.4985ZM5.31753 28.4822L20.0013 36.9661L34.685 28.4822V11.516L20.0013 3.04979L5.31753 11.516V28.4661V28.4822Z" fill="white"/>
<path d="M25.9831 9.93311H13.9331L12.5331 16.0831H27.4668L25.9831 9.93311ZM16.0657 24.5157V20.4318L12.4819 18.1818L8.43188 21.1818L13.9481 30.7818H16.1644L18.7644 28.3318V27.1318L16.0481 24.5318L16.0657 24.5157Z" fill="white"/>
<path d="M23.8887 16.9976H16.105L17.3887 20.4138L17.005 24.2638H22.9887L22.605 20.4138L23.8887 16.9976Z" fill="white"/>
<path d="M27.462 18.1333L23.9282 20.4333V24.517L21.2444 27.117V28.317L23.8444 30.7333H26.0282L31.512 21.167L27.462 18.1333Z" fill="white"/>
</g>
<defs>
<clipPath id="clip0_1407_73">
<rect width="40" height="40" fill="white"/>
</clipPath>
</defs>
</svg>
