<svg width="41" height="40" viewBox="0 0 41 40" fill="none" xmlns="http://www.w3.org/2000/svg">
<g clip-path="url(#clip0_1407_70)">
<path d="M20.1667 0C31.2167 0 40.1667 8.95 40.1667 20C40.1667 31.05 31.2167 40 20.1667 40C9.11675 40 0.166748 31.05 0.166748 20C0.166748 8.95 9.11675 0 20.1667 0Z" fill="#F5AC37"/>
<path d="M20.8993 21.4151H28.4993C28.6655 21.4151 28.733 21.4151 28.7493 21.1988C28.8155 20.4325 28.8155 19.6488 28.7493 18.8825C28.7493 18.7325 28.683 18.6664 28.5155 18.6664H13.3818C13.198 18.6664 13.148 18.7325 13.148 18.9001V21.1164C13.148 21.3055 13.248 21.4001 13.448 21.4001H20.898L20.8993 21.4151ZM27.8993 16.0651C27.8993 16.0651 27.9155 15.9488 27.8993 15.8988C27.7655 15.6151 27.6155 15.3651 27.4493 15.1151C27.183 14.6988 26.883 14.2988 26.5155 13.9488C26.3493 13.7326 26.1493 13.5488 25.9318 13.3826C24.848 12.4663 23.5655 11.8163 22.1818 11.4826C21.4818 11.3326 20.7655 11.2488 20.0655 11.2488H13.3655C13.1818 11.2488 13.1493 11.3151 13.1493 11.4826V15.9164C13.1493 16.1001 13.1493 16.1501 13.383 16.1501H27.7993C27.7993 16.1501 27.933 16.1164 27.9493 16.0501H27.883L27.8993 16.0651ZM27.8993 24.0151C27.683 23.9988 27.4655 23.9988 27.2655 24.0151H13.3993C13.2155 24.0151 13.1493 24.0151 13.1493 24.2651V28.5988C13.1493 28.7988 13.1493 28.8488 13.3993 28.8488H19.7993C20.0993 28.8651 20.4155 28.8488 20.7155 28.7825C21.6493 28.7164 22.5655 28.5164 23.4318 28.1825C23.748 28.0664 24.048 27.9325 24.348 27.7664H24.4318C25.9318 26.9825 27.148 25.7664 27.9155 24.2501C27.9155 24.2501 27.9993 24.0664 27.9155 24.0164L27.8993 24.0151ZM10.6318 31.0988V24.1825C10.6318 24.0164 10.6318 23.9988 10.4318 23.9988H7.71552C7.56552 23.9988 7.49927 23.9988 7.49927 23.7988V21.4151H10.3993C10.5655 21.4151 10.633 21.4151 10.633 21.1988V18.8488C10.633 18.6988 10.633 18.6651 10.433 18.6651H7.71677C7.56677 18.6651 7.50052 18.6651 7.50052 18.4651V16.2651C7.50052 16.1314 7.50052 16.0988 7.70052 16.0988H10.3843C10.568 16.0988 10.618 16.0988 10.618 15.8651V9.13135C10.618 8.93135 10.618 8.88135 10.868 8.88135H20.2343C20.918 8.9151 21.5843 8.98135 22.268 9.1151C23.6518 9.3651 24.968 9.8651 26.1843 10.5651C26.9843 11.0313 27.7343 11.6151 28.3843 12.2651C28.8843 12.7813 29.318 13.3313 29.718 13.9313C30.118 14.5314 30.4343 15.1814 30.7018 15.8475C30.7355 16.0138 30.9018 16.1475 31.068 16.1138H33.3018C33.491 16.1138 33.591 16.2084 33.6018 16.3975V18.4475C33.6018 18.6475 33.5355 18.6975 33.318 18.6975H31.5843C31.418 18.6975 31.3505 18.6975 31.368 18.9314C31.4343 19.6975 31.4343 20.4651 31.368 21.2151C31.368 21.4314 31.368 21.4488 31.6018 21.4488H33.568C33.6518 21.5651 33.568 21.6825 33.568 21.7825C33.568 21.9325 33.568 22.0664 33.568 22.2164V23.7325C33.568 23.9488 33.5018 24.0164 33.318 24.0164H30.9518C30.7855 23.9825 30.6355 24.0825 30.5855 24.2501C30.0193 25.7164 29.1193 27.0164 27.9518 28.0838C27.5355 28.4675 27.0855 28.8338 26.618 29.1501C26.118 29.4338 25.6343 29.7338 25.118 29.9838C24.168 30.4001 23.1843 30.7175 22.168 30.9177C21.2018 31.0838 20.218 31.1677 19.2343 31.1514H10.6343L10.6318 31.0988Z" fill="white"/>
</g>
<defs>
<clipPath id="clip0_1407_70">
<rect width="40" height="40" fill="white" transform="translate(0.166748)"/>
</clipPath>
</defs>
</svg>
