<svg width="41" height="40" viewBox="0 0 41 40" fill="none" xmlns="http://www.w3.org/2000/svg">
<g clip-path="url(#clip0_1407_64)">
<path d="M40.5 20C40.5 31.0454 31.5454 40 20.5 40C9.45459 40 0.5 31.0454 0.5 20C0.5 8.95459 9.45459 0 20.5 0C31.5454 0 40.5 8.95459 40.5 20Z" fill="#C2A633"/>
<path d="M20.0084 8.0534H13.1184V18.7017H10.2935V21.3137H13.1184V31.962H21.1297C21.1297 31.962 32.4043 32.9078 32.4043 20.1924C32.4043 7.68384 21.637 8.0534 20.0084 8.0534ZM20.9606 27.5711H17.6407V21.3074H22.6517V18.7017H17.6407V12.438H20.7726C21.9564 12.438 27.9133 12.914 27.9259 20.2677C27.9383 27.6213 21.8124 27.5398 20.9606 27.5398V27.5711Z" fill="white"/>
</g>
<defs>
<clipPath id="clip0_1407_64">
<rect width="40" height="40" fill="white" transform="translate(0.5)"/>
</clipPath>
</defs>
</svg>
