<svg width="41" height="40" viewBox="0 0 41 40" fill="none" xmlns="http://www.w3.org/2000/svg">
<g clip-path="url(#clip0_1407_67)">
<path d="M40.3333 20C40.3333 31.0463 31.3795 40 20.3333 40C9.28699 40 0.333252 31.0463 0.333252 20C0.333252 8.95374 9.28699 0 20.3333 0C31.3795 0 40.3333 8.95374 40.3333 20Z" fill="#E7EAEF"/>
<path d="M20.3354 35.3111C20.2254 35.31 20.1204 35.2924 20.0217 35.2587L20.0293 35.2611C19.9593 35.2361 19.9004 35.2061 19.8443 35.1711L19.848 35.1737L10.2667 29.43C9.99421 29.2637 9.81421 28.9687 9.81421 28.6311C9.81421 28.5511 9.82421 28.4724 9.84295 28.3987L9.84171 28.405L13.198 14.505C13.2242 14.3887 13.273 14.2861 13.3367 14.1962L13.3355 14.1987L19.5854 5.0924C19.7667 4.86116 20.0467 4.7124 20.3604 4.7124C20.6743 4.7124 20.9543 4.8599 21.1343 5.0899L21.1354 5.0924L27.3854 14.1987C27.448 14.2861 27.4967 14.3887 27.5217 14.4987L27.523 14.505L30.8793 28.405C30.8967 28.4724 30.9067 28.5511 30.9067 28.6311C30.9067 28.9687 30.7267 29.265 30.458 29.4274L30.4543 29.43L20.823 35.1737C20.773 35.205 20.7154 35.2324 20.6543 35.2537L20.648 35.2561C20.5554 35.2924 20.448 35.3111 20.3354 35.3111ZM26.323 17.7361L21.948 32.3237L28.8604 28.1737L26.323 17.7361ZM11.823 28.1737L18.7354 32.3237L14.3605 17.7361L11.823 28.1737ZM15.3354 14.5737L20.3354 31.1237L25.3354 14.5737L20.3354 7.28616L15.3354 14.5737Z" fill="black"/>
</g>
<defs>
<clipPath id="clip0_1407_67">
<rect width="40" height="40" fill="white" transform="translate(0.333252)"/>
</clipPath>
</defs>
</svg>
