<svg width="41" height="40" viewBox="0 0 41 40" fill="none" xmlns="http://www.w3.org/2000/svg">
<g clip-path="url(#clip0_1407_55)">
<path d="M40.5 20C40.5 31.0463 31.5463 40 20.5 40C9.45374 40 0.5 31.0463 0.5 20C0.5 8.95374 9.45374 0 20.5 0C31.5463 0 40.5 8.95374 40.5 20Z" fill="#627EEA"/>
<path opacity="0.6" d="M21.125 5V16.0876L30.5 20.275L21.125 5Z" fill="white"/>
<path d="M21.125 5L11.75 20.275L21.125 16.0876V5Z" fill="white"/>
<path opacity="0.6" d="M21.125 27.4637V35.0013L30.5 22.02L21.125 27.4637Z" fill="white"/>
<path d="M21.125 35.0013V27.4574L11.75 22.02L21.125 35.0013Z" fill="white"/>
<path opacity="0.2" d="M21.125 25.7197L30.5 20.276L21.125 16.0884V25.7197Z" fill="white"/>
<path opacity="0.6" d="M11.75 20.276L21.125 25.7197V16.0884L11.75 20.276Z" fill="white"/>
</g>
<defs>
<clipPath id="clip0_1407_55">
<rect width="40" height="40" fill="white" transform="translate(0.5)"/>
</clipPath>
</defs>
</svg>
