<svg width="41" height="40" viewBox="0 0 41 40" fill="none" xmlns="http://www.w3.org/2000/svg">
<g clip-path="url(#clip0_1407_82)">
<path d="M20.6667 0C31.7167 0 40.6667 8.95 40.6667 20C40.6667 31.05 31.7167 40 20.6667 40C9.61675 40 0.666748 31.05 0.666748 20C0.666748 8.95 9.61675 0 20.6667 0Z" fill="#3B55D8"/>
<path d="M20.6674 11.7316L27.8511 15.8654V24.1317L20.7011 28.2817L13.5174 24.1978V15.8978L20.6674 11.7316ZM20.6674 5.64787L8.23364 12.8816V27.2317L10.8674 28.7478L20.6837 34.3817L33.0998 27.1478V12.7641L23.2837 7.11413L20.6674 5.63037V5.64787Z" fill="white"/>
</g>
<defs>
<clipPath id="clip0_1407_82">
<rect width="40" height="40" fill="white" transform="translate(0.666748)"/>
</clipPath>
</defs>
</svg>
