<svg width="19" height="20" viewBox="0 0 19 20" fill="none" xmlns="http://www.w3.org/2000/svg">
<g id="Vector">
<path d="M9.20795 19.9998C4.18171 20.0368 0.0136583 15.5307 0 10.0394C0.00221794 7.39673 0.964067 4.86135 2.67726 2.98232C4.39045 1.10329 6.71708 0.031859 9.15331 4.39573e-05C11.5984 -0.0078142 13.9463 1.0382 15.6804 2.90799C17.4144 4.77777 18.3927 7.31815 18.4 9.97028C18.4072 12.6224 17.4428 15.169 15.719 17.0499C13.9952 18.9308 11.6531 19.9919 9.20795 19.9998ZM16.7564 7.10365C16.9841 5.41726 16.2852 4.46171 14.7782 3.72345C13.7776 3.2593 12.8377 2.6541 11.9829 1.92347C9.95915 0.103746 8.45902 0.0938698 6.42394 1.93088C5.64699 2.6371 4.77686 3.21303 3.84253 3.6395C1.83704 4.53825 1.1951 5.69873 1.41818 8.03697C1.56649 9.41463 1.5726 10.8059 1.43639 12.1851C1.18599 14.464 1.6185 15.2739 3.59895 16.1356C4.65294 16.5565 5.63296 17.1694 6.49678 17.948C8.57739 19.9504 9.45607 20.0294 11.564 18.0492C12.6248 17.0615 13.6879 16.1282 15.2062 15.9282C16.4218 15.7653 17.0751 14.664 17.0273 13.2122C16.9567 11.1703 16.8452 9.13572 16.7564 7.10365Z" fill="white"/>
<path d="M13.351 5.10857C15.6842 8.31841 15.855 12.8492 13.8062 14.7381C10.8128 17.4738 7.77383 17.5306 4.73487 14.827C2.57231 12.906 2.68613 8.49865 4.86462 5.41474C5.34567 5.59132 5.77623 5.90029 6.11419 6.31145C6.45215 6.7226 6.68595 7.22186 6.79271 7.76039C7.12051 9.47148 7.40733 11.2369 7.38002 12.9727C7.35725 14.2591 7.73058 14.6739 8.91657 14.6739C8.60698 11.0492 8.68893 7.37027 6.92019 4.07155C9.33315 2.23948 9.33315 2.23948 11.5207 4.07896C9.77021 7.35052 9.87265 11.0097 9.51526 14.5899C11.0541 14.5652 11.0199 14.4689 11.0609 12.9974C11.0761 11.2807 11.2685 9.57131 11.6346 7.90113C11.869 6.93324 12.6954 6.13325 13.351 5.10857ZM5.12185 9.87641L4.80543 9.98752C4.81909 11.5035 5.14689 12.8467 6.66068 13.5455L5.12185 9.87641ZM13.6127 10.0196L13.2986 9.91098C12.7872 11.1455 12.2742 12.3801 11.7598 13.6146C13.1871 12.8146 13.7311 11.5801 13.6127 10.0073V10.0196Z" fill="white"/>
</g>
</svg>
