<svg width="72" height="79" viewBox="0 0 72 79" fill="none" xmlns="http://www.w3.org/2000/svg">
<g id="Vector">
<path d="M35.7926 78.1755C16.257 78.3194 0.0569921 60.8054 0.00390625 39.4623C0.0125268 29.1909 3.75097 19.3366 10.4097 12.0334C17.0684 4.73008 26.1113 0.565722 35.5803 0.442065C45.0838 0.411523 54.2092 4.4771 60.9491 11.7444C67.689 19.0118 71.4913 28.8855 71.5195 39.1936C71.5476 49.5017 67.7994 59.3997 61.0993 66.7102C54.3992 74.0208 45.2961 78.1449 35.7926 78.1755ZM65.1314 28.0518C66.0162 21.4973 63.3 17.7833 57.4428 14.9139C53.5535 13.1099 49.9004 10.7576 46.5779 7.91791C38.7124 0.845127 32.8818 0.806741 24.972 7.9467C21.9522 10.6916 18.5702 12.9301 14.9387 14.5876C7.14396 18.0808 4.64892 22.5913 5.51599 31.6794C6.09241 37.034 6.11615 42.4416 5.58677 47.8019C4.61353 56.6596 6.29458 59.8074 13.992 63.1566C18.0886 64.7923 21.8977 67.1745 25.2551 70.2006C33.3418 77.9835 36.757 78.2906 44.95 70.5941C49.073 66.7554 53.2048 63.1278 59.1062 62.3505C63.8308 61.7171 66.3701 57.437 66.1843 51.7941C65.91 43.8576 65.4765 35.9499 65.1314 28.0518Z" fill="white"/>
<path d="M51.8954 20.2975C60.9642 32.7732 61.6278 50.3832 53.6649 57.7247C42.0302 68.3579 30.2186 68.5786 18.407 58.0702C10.0017 50.6039 10.4441 33.4738 18.9113 21.4875C20.781 22.1738 22.4545 23.3747 23.7681 24.9727C25.0816 26.5708 25.9903 28.5112 26.4053 30.6044C27.6794 37.2549 28.7942 44.1166 28.688 50.863C28.5995 55.8629 30.0505 57.4752 34.6601 57.4752C33.4569 43.3872 33.7754 29.0881 26.9008 16.2669C36.2793 9.14612 36.2793 9.14612 44.7819 16.2957C37.978 29.0113 38.3762 43.2337 36.9871 57.1489C42.9681 57.0529 42.8354 56.6787 42.9946 50.959C43.0536 44.2869 43.8015 37.6429 45.2242 31.1514C46.1356 27.3895 49.3472 24.2801 51.8954 20.2975ZM19.9111 38.8288L18.6813 39.2606C18.7344 45.153 20.0084 50.3736 25.8921 53.0895L19.9111 38.8288ZM52.9128 39.3854L51.6919 38.9631C49.7041 43.7615 47.7104 48.5598 45.7109 53.3582C51.2583 50.2489 53.3729 45.4505 52.9128 39.3374V39.3854Z" fill="white"/>
</g>
</svg>
