<svg width="40" height="40" viewBox="0 0 40 40" fill="none" xmlns="http://www.w3.org/2000/svg">
<g clip-path="url(#clip0_1407_94)">
<path d="M40 20C40 31.0463 31.0463 40 20 40C8.95374 40 0 31.0463 0 20C0 8.95374 8.95374 0 20 0C31.0463 0 40 8.95374 40 20Z" fill="#914FFF"/>
<path d="M27.8174 15.1913C27.3013 14.8913 26.6337 14.8913 26.0337 15.1913L21.8674 17.6413L19.0337 19.2074L14.95 21.6576C14.4337 21.9576 13.7662 21.9576 13.1662 21.6576L9.96624 19.7237C9.45 19.4237 9.06626 18.8237 9.06626 18.1574V14.4413C9.06626 13.8413 9.36624 13.2575 9.96624 12.875L13.1662 11.0088C13.6825 10.7087 14.35 10.7087 14.95 11.0088L18.15 12.9425C18.6663 13.2425 19.05 13.8425 19.05 14.5087V16.9587L21.8837 15.325V12.7912C21.8837 12.1912 21.5837 11.6075 20.9837 11.225L15.0337 7.725C14.5176 7.425 13.85 7.425 13.25 7.725L7.15 11.2912C6.55 11.5912 6.25 12.1912 6.25 12.775V19.7587C6.25 20.3587 6.55 20.9424 7.15 21.325L13.1662 24.825C13.6825 25.125 14.35 25.125 14.95 24.825L19.0337 22.4413L21.8674 20.8076L25.9513 18.4237C26.4674 18.1237 27.135 18.1237 27.735 18.4237L30.935 20.29C31.4513 20.59 31.835 21.19 31.835 21.8563V25.5726C31.835 26.1726 31.535 26.7563 30.935 27.1387L27.8187 29.005C27.3024 29.305 26.635 29.305 26.035 29.005L22.835 27.1387C22.3187 26.8387 21.935 26.2387 21.935 25.5726V23.1887L19.1013 24.8226V27.2726C19.1013 27.8726 19.4013 28.4563 20.0013 28.8387L26.0174 32.3387C26.5337 32.6387 27.2013 32.6387 27.8013 32.3387L33.8176 28.8387C34.3337 28.5387 34.7174 27.9387 34.7174 27.2726V20.2063C34.7174 19.6063 34.4176 19.0226 33.8176 18.64L27.8013 15.14L27.8174 15.1913Z" fill="white"/>
</g>
<defs>
<clipPath id="clip0_1407_94">
<rect width="40" height="40" fill="white"/>
</clipPath>
</defs>
</svg>
