<svg width="36" height="37" viewBox="0 0 36 37" fill="none" xmlns="http://www.w3.org/2000/svg">
<g id="MXN" clip-path="url(#clip0_2755_152)">
<path id="Vector" d="M18.0022 36.314C27.9433 36.314 36.0022 28.2551 36.0022 18.314C36.0022 8.37284 27.9433 0.313965 18.0022 0.313965C8.06107 0.313965 0.00219727 8.37284 0.00219727 18.314C0.00219727 28.2551 8.06107 36.314 18.0022 36.314Z" fill="#0E2642"/>
<path id="Vector_2" d="M3.85938 13.8743H7.60101L9.04492 19.4741L10.4826 13.8743H14.2117V23.0777H11.8888V16.059L10.0871 23.0777H7.98396L6.18847 16.059V23.0777H3.85938V13.8743Z" fill="white"/>
<path id="Vector_3" d="M15.3981 13.8743H18.5308L20.1631 16.7055L21.7451 13.8743H24.8463L21.9837 18.3316L25.1163 23.0777H21.921L20.1066 20.1208L18.286 23.0777H15.1094L18.286 18.2813L15.3981 13.8743Z" fill="white"/>
<path id="Vector_4" d="M32.9437 16.0401L30.6084 16.4105C30.4911 16.1134 30.3844 15.9083 30.2881 15.7953C30.196 15.6782 30.0412 15.5609 29.8236 15.4438V17.258C31.0959 17.5971 31.9455 17.9549 32.3724 18.3316C32.9374 18.8381 33.2199 19.4804 33.2199 20.2589C33.2199 20.7151 33.1174 21.1336 32.9124 21.5145C32.7114 21.8954 32.452 22.2134 32.1339 22.4687C31.8199 22.724 31.4851 22.9103 31.1293 23.0274C30.7736 23.1404 30.3384 23.2074 29.8236 23.2284V24.4148H28.907V23.2284C28.2918 23.1739 27.7916 23.0756 27.4066 22.9333C27.0257 22.7867 26.695 22.5859 26.4146 22.3306C26.1385 22.0754 25.925 21.8011 25.7743 21.5082C25.6237 21.2111 25.5106 20.8532 25.4353 20.4347L27.9716 20.1396C28.047 20.554 28.1474 20.8532 28.273 21.0374C28.4027 21.2215 28.6141 21.3847 28.907 21.527V19.3109C28.0616 19.0766 27.4609 18.8735 27.1053 18.702C26.7537 18.5304 26.4482 18.2563 26.1887 17.8796C25.9291 17.4987 25.7994 17.0363 25.7994 16.4921C25.7994 15.7472 26.059 15.1257 26.5779 14.6276C27.1011 14.1254 27.8774 13.847 28.907 13.7927V13.1711H29.8236V13.7927C30.7611 13.8513 31.4767 14.0731 31.9706 14.4581C32.4687 14.8432 32.7931 15.3705 32.9437 16.0401ZM28.907 15.4124C28.6392 15.5002 28.4529 15.6091 28.3483 15.7388C28.2437 15.8686 28.1914 16.0213 28.1914 16.1971C28.1914 16.3812 28.2437 16.5424 28.3483 16.6805C28.4571 16.8145 28.6433 16.9274 28.907 17.0195V15.4124ZM29.8236 21.5899C30.1793 21.5103 30.4388 21.3806 30.6021 21.2006C30.7695 21.0164 30.8532 20.8114 30.8532 20.5853C30.8532 20.3886 30.7821 20.2086 30.6397 20.0455C30.5017 19.8781 30.2296 19.7231 29.8236 19.5809V21.5899Z" fill="white"/>
</g>
<defs>
<clipPath id="clip0_2755_152">
<rect width="36" height="36" fill="white" transform="translate(0.00390625 0.313965)"/>
</clipPath>
</defs>
</svg>
