<svg width="36" height="37" viewBox="0 0 36 37" fill="none" xmlns="http://www.w3.org/2000/svg">
<g id="PEN" clip-path="url(#clip0_2755_157)">
<g id="Clip path group">
<mask id="mask0_2755_157" style="mask-type:luminance" maskUnits="userSpaceOnUse" x="0" y="0" width="37" height="37">
<g id="clip0_8532_20294">
<path id="Vector" d="M36.0039 0.313965H0.00390625V36.314H36.0039V0.313965Z" fill="white"/>
</g>
</mask>
<g mask="url(#mask0_2755_157)">
<g id="Group">
<path id="Vector_2" d="M18.0039 36.314C27.9452 36.314 36.0039 28.2552 36.0039 18.314C36.0039 8.37272 27.9452 0.313965 18.0039 0.313965C8.06266 0.313965 0.00390625 8.37272 0.00390625 18.314C0.00390625 28.2552 8.06266 36.314 18.0039 36.314Z" fill="#EB0A29"/>
<path id="Vector_3" d="M9.28623 21.0587C10.3362 22.1087 11.9562 22.9787 13.9363 22.9787C15.2263 22.9787 16.0063 22.4387 16.0063 21.7337C16.0063 20.9087 15.0613 20.5787 13.5163 20.2487C11.1162 19.7687 7.75623 19.1537 7.75623 15.7037C7.75623 13.2587 9.82623 11.1437 13.5613 11.1437C15.9013 11.1437 17.9263 11.8487 19.4713 13.1687L17.4162 15.8537C16.1863 14.8487 14.5963 14.3537 13.3063 14.3537C12.0162 14.3537 11.5812 14.8487 11.5812 15.4937C11.5812 16.2587 12.4812 16.5137 14.0862 16.8287C16.4863 17.3237 19.8012 18.0287 19.8012 21.3287C19.8012 24.2537 17.6412 26.2037 13.7262 26.2037C10.7862 26.2037 8.73124 25.2887 7.26123 23.8937L9.24123 21.0737L9.28623 21.0587ZM24.6608 10.9337H27.8259L22.6509 26.3687H19.4858L24.6608 10.9337ZM26.6563 22.0937C27.7662 22.0937 28.7112 23.0237 28.7112 24.1487C28.7112 25.2737 27.7662 26.2037 26.6563 26.2037C25.5463 26.2037 24.6013 25.2587 24.6013 24.1487C24.6013 23.0387 25.5463 22.0937 26.6563 22.0937Z" fill="white"/>
</g>
</g>
</g>
</g>
<defs>
<clipPath id="clip0_2755_157">
<rect width="36" height="36" fill="white" transform="translate(0.00390625 0.313965)"/>
</clipPath>
</defs>
</svg>
