<svg width="40" height="40" viewBox="0 0 40 40" fill="none" xmlns="http://www.w3.org/2000/svg">
<g clip-path="url(#clip0_1407_114)">
<path d="M40 20C40 31.0463 31.0463 40 20 40C8.95374 40 0 31.0463 0 20C0 8.95374 8.95374 0 20 0C31.0463 0 40 8.95374 40 20Z" fill="#0F94F8"/>
<path d="M13.2822 9.4342L11.116 11.6005V20.1666L13.2822 22.3329H21.8485V26.6492H17.6147V24.4829H11.131V28.7992L13.2972 30.9655H26.181L28.3473 28.7992V20.1655L26.181 17.9992H17.6147V13.683H21.931V15.8492H28.4147V11.533L26.2485 9.3667H13.2822V9.45046V9.4342Z" fill="white"/>
</g>
<defs>
<clipPath id="clip0_1407_114">
<rect width="40" height="40" fill="white"/>
</clipPath>
</defs>
</svg>
