<svg width="40" height="40" viewBox="0 0 40 40" fill="none" xmlns="http://www.w3.org/2000/svg">
<g clip-path="url(#clip0_1407_100)">
<path d="M20 0C31.05 0 40 8.95 40 20C40 31.05 31.05 40 20 40C8.95 40 0 31.05 0 20C0 8.95 8.95 0 20 0Z" fill="#EB0A29"/>
<path d="M27.7672 20.5996C27.7672 20.5996 27.5509 20.8833 27.3335 21.0333C26.7172 21.4833 25.6335 21.8996 24.5172 22.0996C23.8835 22.2157 23.2509 22.2333 23.0672 22.1333C22.9509 22.067 22.9335 22.017 22.9672 21.867C23.0672 21.5333 23.3672 21.167 23.8335 20.8333C24.0672 20.667 25.0335 20.067 25.4835 19.8333C26.2335 19.4333 26.8335 19.1833 27.2335 19.1333C27.3672 19.117 27.5172 19.117 27.5672 19.1333C27.6509 19.167 27.7335 19.3996 27.7672 19.6833C27.7835 19.8333 27.7672 20.4996 27.7672 20.617V20.5996Z" fill="black"/>
<path d="M17.3512 22.067C17.3512 22.067 17.1849 22.1831 17.0349 22.2007C16.8849 22.2181 16.4188 22.2007 16.1688 22.1844C15.2349 22.0681 14.235 21.7681 13.5187 21.4181C13.1187 21.2181 12.8187 21.0181 12.6025 20.802L12.4862 20.6681V20.5019C12.4525 20.2181 12.4525 19.752 12.4862 19.5857C12.5025 19.452 12.5525 19.3194 12.62 19.202C12.62 19.202 12.6867 19.1853 12.82 19.1519C13.02 19.1519 13.17 19.1857 13.4362 19.2681C13.9862 19.4344 14.7862 19.8344 15.7699 20.4344C16.5862 20.9181 16.8862 21.1507 17.1199 21.4844C17.2862 21.6844 17.3862 21.9681 17.3538 22.0681L17.3512 22.067Z" fill="black"/>
<path d="M23.6011 28.2162C23.6011 28.2162 23.5511 28.45 23.485 28.7C23.4187 28.95 23.3687 29.15 23.3687 29.1662C23.3187 29.1662 23.2687 29.1662 23.235 29.1662H23.1011L22.9011 29.6324C22.8011 29.8824 22.7011 30.1162 22.685 30.1487L22.6511 30.215L22.4511 29.915V28.6987H22.4174C22.4174 28.6987 21.8011 28.7987 21.5674 28.815C20.6011 28.915 19.6337 28.8987 18.6674 28.7487C18.5174 28.7324 18.3837 28.715 18.3837 28.715C18.3837 28.715 18.3837 28.9987 18.3837 29.3487V29.9824L18.3174 30.0987C18.2837 30.165 18.2337 30.215 18.2337 30.215C18.2337 30.215 18.1837 30.165 18.0674 29.9487C17.9511 29.7324 17.8837 29.515 17.8174 29.2824L17.7837 29.1487H17.65L17.5161 29.165L17.4824 28.9987C17.4661 28.915 17.4487 28.765 17.4324 28.6987V28.565L17.2987 28.465C17.2324 28.415 17.165 28.3487 17.1487 28.3487C17.1324 28.3324 17.115 28.2987 17.115 28.265V28.215H17.665H18.215V28.265L18.2487 28.315H18.4324C18.5324 28.315 18.8824 28.3312 19.1824 28.3487H19.7324L19.8661 28.1487L20.0161 27.9324H20.2V27.4662V27L19.95 26.9C19.1661 26.55 18.7161 26.1662 18.5337 25.6837C18.5 25.5837 18.5 25.55 18.4837 25.1174C18.4837 24.6837 18.4837 24.6337 18.5174 24.5512C18.5837 24.335 18.7511 24.1512 18.9674 24.1012C19.0511 24.085 19.2337 24.085 20.2837 24.085H21.5174L21.6511 24.1511C21.8174 24.235 21.885 24.285 21.985 24.4174C22.085 24.55 22.1187 24.6674 22.1187 24.9337C22.1187 25.3174 22.085 25.65 22.0524 25.7837C22.0024 25.9674 21.9024 26.1337 21.8024 26.2837C21.5861 26.5674 21.1861 26.85 20.8187 26.9837L20.7187 27.0174V27.4837V27.95H20.8187L20.9187 27.9661L21.185 28.3662H21.785C22.1187 28.3662 22.4011 28.3662 22.4187 28.3662C22.4687 28.3662 22.4687 28.3662 22.5187 28.3L22.5687 28.2162H23.0687C23.4524 28.2 23.5687 28.2162 23.5687 28.2162H23.6011Z" fill="black"/>
<path d="M21.2628 29.4832C21.1791 29.5332 21.1291 29.5494 21.1128 29.5494C21.1128 29.5494 21.0291 29.4994 20.9791 29.4494L20.8628 29.3494L20.7466 29.4832C20.4804 29.7669 20.4628 29.7832 20.3966 29.7994C20.2804 29.7994 20.2466 29.7994 20.0966 29.5657C20.0128 29.4494 19.9628 29.3494 19.9628 29.3494C19.9628 29.3494 19.9128 29.3494 19.8466 29.3494H19.7304L19.6804 29.4494L19.6304 29.5657L19.5304 29.5319C19.5304 29.5319 19.3641 29.4819 19.2966 29.4319L19.1628 29.3657V29.1157H20.3466H21.5304V29.2319C21.5304 29.3657 21.5304 29.3657 21.3466 29.4819L21.2628 29.4832Z" fill="black"/>
<path d="M32.3163 24.1C32.3163 24.1 32.3163 24.05 32.3163 24C31.25 23.8839 28.2326 23.8163 25.4163 26.1339C25.4163 26.1339 24.5163 21.9839 20.2663 21.9839C16.0163 21.9839 14.45 26.1339 14.45 26.1339C12.0663 23.5839 8.90007 23.7676 7.75007 23.9339C7.75007 23.9676 7.75007 23.9839 7.75007 24.0176C7.71632 24.6513 7.73382 24.9676 7.83382 25.3676C8.16757 26.6339 9.18382 28.0176 10.7838 29.3676C13.4001 31.6013 16.95 33.2013 19.65 33.3839C22.45 33.5676 26.6 31.9339 29.35 29.5339C29.7839 29.15 30.1839 28.75 30.5663 28.3176C30.8326 28.0013 31.25 27.4513 31.2163 27.4513C31.2163 27.4513 31.2163 27.4513 31.2326 27.435C31.2326 27.435 31.2663 27.4189 31.2489 27.4013C31.2489 27.4013 31.2489 27.385 31.265 27.385C31.2813 27.385 31.2813 27.385 31.2813 27.3689C31.2813 27.3526 31.2813 27.3526 31.2976 27.3526C31.2976 27.3526 31.3139 27.3363 31.2976 27.3189V27.3026C31.2976 27.3026 31.3139 27.3026 31.3139 27.2863C31.3139 27.27 31.3139 27.27 31.33 27.27C31.3463 27.27 31.3463 27.27 31.3463 27.2539C31.3463 27.22 31.38 27.1876 31.3963 27.1539C31.4626 27.0539 31.73 26.5876 31.7626 26.5039C32.0126 25.9376 32.1789 25.42 32.2463 24.92C32.28 24.67 32.2963 24.2363 32.28 24.12L32.3163 24.1ZM21.2663 29.4839C21.1826 29.5339 21.1326 29.55 21.1163 29.55C21.1163 29.55 21.0326 29.5 20.9826 29.45L20.8663 29.35L20.75 29.4839C20.4839 29.7676 20.4663 29.7839 20.4 29.8C20.2839 29.8 20.25 29.8 20.1 29.5663C20.0163 29.45 19.9663 29.35 19.9663 29.35C19.9663 29.35 19.9163 29.35 19.85 29.35H19.7339L19.6839 29.45L19.6339 29.5663L19.5339 29.5326C19.5339 29.5326 19.3676 29.4826 19.3 29.4326L19.1663 29.3663V29.1163H20.35H21.5339V29.2326C21.5339 29.3663 21.5339 29.3663 21.35 29.4826L21.2663 29.4839ZM23.4839 28.6839C23.4176 28.9339 23.3676 29.1339 23.3676 29.15C23.3176 29.15 23.2676 29.15 23.2339 29.15H23.1L22.9163 29.6163C22.8163 29.8663 22.7163 30.1 22.7 30.1326L22.6663 30.1989L22.4663 29.8989V28.6826H22.4326C22.4326 28.6826 21.8163 28.7826 21.5826 28.7989C20.6163 28.8989 19.6489 28.8826 18.6826 28.7326C18.5326 28.7163 18.3989 28.6989 18.3989 28.6989C18.3989 28.6989 18.3989 28.9826 18.3989 29.3326V29.9663L18.3326 30.0826C18.2989 30.1489 18.2489 30.1989 18.2489 30.1989C18.2489 30.1989 18.1989 30.1489 18.0826 29.9326C17.9663 29.7163 17.8989 29.4989 17.8326 29.2663L17.7989 29.1326H17.665L17.5313 29.1489L17.4976 28.9826C17.4813 28.8989 17.4639 28.7489 17.4476 28.6826V28.5489L17.3139 28.4489C17.2476 28.3989 17.18 28.3326 17.1639 28.3326C17.1476 28.3163 17.13 28.2826 17.13 28.2489V28.1989H17.68H18.23V28.2489L18.2639 28.2989H18.4476C18.5476 28.2989 18.8976 28.315 19.1976 28.3326H19.7476L19.8813 28.1326L20.0313 27.9163H20.215V27.45V26.9839L19.965 26.8839C19.1813 26.5339 18.7313 26.15 18.5489 25.6676C18.515 25.5676 18.515 25.5339 18.4989 25.1013C18.4989 24.6676 18.4989 24.6176 18.5326 24.535C18.5989 24.3189 18.7663 24.135 18.9826 24.085C19.0663 24.0689 19.2489 24.0689 20.2989 24.0689H21.5326L21.6663 24.135C21.8326 24.2189 21.9 24.2689 22 24.4013C22.1 24.5339 22.1339 24.6513 22.1339 24.9176C22.1339 25.3013 22.1 25.6339 22.0676 25.7676C22.0176 25.9513 21.9176 26.1176 21.8176 26.2676C21.6013 26.5513 21.2013 26.8339 20.8339 26.9676L20.7339 27.0013V27.4676V27.9339H20.8339L20.9339 27.95L21.2 28.35H21.8C22.1339 28.35 22.4163 28.35 22.4339 28.35C22.4839 28.35 22.4839 28.35 22.5339 28.2839L22.5839 28.2H23.0839C23.4839 28.2 23.5839 28.2 23.5839 28.2163C23.5839 28.2163 23.5176 28.4326 23.45 28.6826L23.4839 28.6839Z" fill="white"/>
<path d="M32.2841 23.6501C32.2841 23.4501 32.2502 23.1664 32.2502 23.034C32.0665 21.034 31.5503 19.384 30.5841 17.6501C30.5503 17.584 30.5004 17.5164 30.4841 17.4664C30.4841 17.4664 30.4841 17.4327 30.4678 17.4327C30.6015 17.0164 31.1678 15.299 31.6178 13.3326C32.2178 10.6664 32.6015 7.54889 31.4341 6.61639C31.4341 6.61639 29.4004 6.46639 26.6841 9.13265C25.9504 9.86639 25.2678 10.6664 24.6678 11.5164L24.4841 11.4501C23.3841 11.1001 22.2503 10.8664 21.1178 10.8001C20.7678 10.7664 19.4841 10.7664 19.0678 10.8001C17.8015 10.8839 16.8341 11.0664 15.7178 11.4501C15.6678 11.4664 15.6341 11.4839 15.6015 11.5001C14.9854 10.6501 14.2853 9.85015 13.5178 9.13389C10.6841 6.45015 8.58407 6.60015 8.58407 6.60015C7.33407 7.56639 7.76782 10.8339 8.40032 13.5839C8.81658 15.4001 9.35032 17.0177 9.53408 17.584C9.53408 17.6177 9.50032 17.6501 9.48408 17.684C8.45032 19.7677 7.90032 21.784 7.76782 23.9177C8.91782 23.7514 12.1016 23.5677 14.4841 26.1177C14.4841 26.1177 16.0503 21.9677 20.3003 21.9677C24.5504 21.9677 25.4504 26.1177 25.4504 26.1177C28.2665 23.8014 31.2841 23.8677 32.3504 23.984C32.3504 23.9001 32.3504 23.7677 32.3341 23.634L32.2841 23.6501ZM10.3341 15.934C10.3341 15.934 8.68408 11.8001 9.10032 9.45015C9.16657 9.05015 9.30032 8.70015 9.51658 8.43389C9.51658 8.43389 11.3828 8.61765 14.4165 11.9839C14.4165 11.9839 13.8503 12.2676 13.0666 12.8501C12.2328 13.4839 11.1678 14.5001 10.3341 15.934ZM17.3504 22.0664C17.3504 22.0664 17.1841 22.1827 17.0341 22.2001C16.8841 22.2177 16.4178 22.2001 16.1678 22.184C15.2341 22.0677 14.2341 21.7677 13.5178 21.4177C13.1178 21.2177 12.8178 21.0177 12.6016 20.8014L12.4853 20.6677V20.5014C12.4516 20.2177 12.4516 19.7514 12.4853 19.5851C12.5016 19.4514 12.5516 19.319 12.6191 19.2014C12.6191 19.2014 12.6857 19.1847 12.8191 19.1514C13.0191 19.1514 13.1691 19.1851 13.4353 19.2677C13.9853 19.4338 14.7854 19.834 15.7691 20.434C16.5853 20.9177 16.8853 21.1501 17.1191 21.484C17.2854 21.684 17.3854 21.9677 17.3528 22.0677L17.3504 22.0664ZM27.7504 20.6001C27.7504 20.6001 27.5341 20.884 27.3165 21.034C26.7004 21.484 25.6165 21.9001 24.5004 22.1001C23.8665 22.2164 23.2341 22.234 23.0504 22.134C22.9341 22.0677 22.9165 22.0177 22.9504 21.8677C23.0504 21.534 23.3504 21.1677 23.8165 20.834C24.0503 20.6677 25.0165 20.0677 25.4665 19.834C26.2165 19.434 26.8165 19.1838 27.2165 19.1338C27.3504 19.1177 27.5004 19.1177 27.5504 19.1338C27.6341 19.1677 27.7165 19.4001 27.7504 19.684C27.7665 19.834 27.7504 20.5001 27.7504 20.6177V20.6001ZM27.0165 12.8339C26.2665 12.2339 25.7165 11.9676 25.7165 11.9676C28.6328 8.61765 30.4504 8.41765 30.4504 8.41765C30.6503 8.68389 30.7841 9.03389 30.8503 9.43389C31.2665 11.8001 29.6665 15.934 29.6665 15.934C29.0004 14.7501 28.1003 13.7001 27.0328 12.8501L27.0165 12.8339Z" fill="#FFA409"/>
<path d="M30.8527 9.43421C30.5027 9.38421 28.8866 9.38421 27.0366 12.8342C26.2866 12.2342 25.7366 11.968 25.7366 11.968C28.6527 8.61797 30.4703 8.41797 30.4703 8.41797C30.6703 8.68421 30.804 9.03421 30.8703 9.43421H30.8527Z" fill="black"/>
<path d="M29.6651 15.9334C28.9988 14.7334 28.0988 13.6996 27.0312 12.8496C28.8812 9.38341 30.4975 9.39965 30.8475 9.44965C31.2638 11.8159 29.6638 15.9497 29.6638 15.9497L29.6651 15.9334Z" fill="black"/>
<path d="M14.4185 11.965C14.4185 11.965 13.8522 12.2488 13.0684 12.8313C11.1522 9.36504 9.46841 9.3813 9.11841 9.4313C9.18465 9.0313 9.31841 8.6813 9.53465 8.41504C9.53465 8.41504 11.4184 8.5988 14.4346 11.965H14.4185Z" fill="#FFA409"/>
<path d="M13.0639 12.8351C12.2301 13.4851 11.1476 14.4852 10.3301 15.9189C10.3301 15.9189 8.68013 11.7851 9.09637 9.41886C9.44637 9.36886 11.1464 9.36886 13.0464 12.8189L13.0639 12.8351Z" fill="black"/>
<path d="M25.2009 18.2169C25.2009 18.2169 23.7846 18.3006 23.9672 17.2006C24.1496 16.1006 25.2509 15.9669 25.5509 16.0006C25.8509 16.0343 27.1009 16.4843 26.8846 17.4169C26.6685 18.3493 26.3509 18.1669 26.1846 18.2169C26.0185 18.2669 25.2185 18.2169 25.2185 18.2169H25.2009Z" fill="black"/>
<path d="M14.7656 18.2169C14.7656 18.2169 13.3494 18.3006 13.5319 17.2006C13.7144 16.1006 14.8156 15.9669 15.1156 16.0006C15.4156 16.0343 16.6656 16.4843 16.4494 17.4169C16.2331 18.3493 15.9156 18.1669 15.7494 18.2169C15.5831 18.2669 14.7831 18.2169 14.7831 18.2169H14.7656Z" fill="black"/>
</g>
<defs>
<clipPath id="clip0_1407_100">
<rect width="40" height="40" fill="white"/>
</clipPath>
</defs>
</svg>
