<svg width="18" height="19" viewBox="0 0 18 19" fill="none" xmlns="http://www.w3.org/2000/svg">
<g id="Group 4048">
<path id="Subtract" fill-rule="evenodd" clip-rule="evenodd" d="M18 9.5C18 14.4706 13.9706 18.5 9 18.5C4.02944 18.5 0 14.4706 0 9.5C0 4.52944 4.02944 0.5 9 0.5C13.9706 0.5 18 4.52944 18 9.5ZM9.9 5L9.675 11.3H8.325L8.1 5H9.9ZM9 14.45C9.62132 14.45 10.125 13.9463 10.125 13.325C10.125 12.7037 9.62132 12.2 9 12.2C8.37868 12.2 7.875 12.7037 7.875 13.325C7.875 13.9463 8.37868 14.45 9 14.45Z" fill="#1475E1"/>
</g>
</svg>
