<svg width="228" height="79" viewBox="0 0 228 79" fill="none" xmlns="http://www.w3.org/2000/svg">
<g id="Frame 1261154085" clip-path="url(#clip0_2755_135)">
<path id="Vector" fill-rule="evenodd" clip-rule="evenodd" d="M225.877 18.678H160C159.743 16.3816 158.87 14.2242 157.38 12.2068C158.664 13.1034 160.205 13.6643 162.004 13.8875H190.358C187.48 8.50971 184.706 4.08435 182.036 0.609375C185.581 1.45022 189.073 2.71099 192.515 4.39168C195.956 6.07236 198.729 8.08878 200.836 10.4419L196.059 13.8875H223.874C225.671 13.6643 227.212 13.1034 228.497 12.2068C227.006 14.2242 226.134 16.3816 225.877 18.678ZM149.83 11.7869H136.115V16.9131H125.329V11.7869H108.224V16.9131H97.5148V11.7869H83.8001V9.26536C83.5944 7.30473 83.0543 5.56826 82.182 4.05493C83.9276 5.68084 85.9573 6.63327 88.269 6.9122H97.5148V1.28185H108.224V6.9122H125.329V1.28185H136.115V6.9122H145.361C147.673 6.63327 149.702 5.68084 151.448 4.05493C150.574 5.56826 150.035 7.30473 149.83 9.26536V11.7869ZM85.4182 36.7456V34.0567C83.9276 34.5608 82.6177 34.8692 81.4884 34.9807C84.1083 31.7877 86.2654 28.4822 87.9608 25.065C89.6552 21.6479 90.8618 18.5938 91.5815 15.9049L102.6 18.0055C101.931 19.5178 101.469 20.4713 101.213 20.8628H138.196L144.437 20.7786C146.748 20.4987 148.777 19.5473 150.524 17.9213C149.649 19.4337 149.11 21.1711 148.906 23.1318V60.7803C148.906 67.1115 147.261 71.4395 143.975 73.7643C140.687 76.0891 136.989 77.2524 132.879 77.2524C131.39 77.2524 130.054 77.1388 128.873 76.9157C131.493 75.9623 133.7 74.1284 135.499 71.4111C137.297 68.6938 138.196 65.1215 138.196 60.6971V25.6533H97.9766C95.7673 28.2306 93.1996 30.3312 90.2715 31.9561H105.527V27.0814H115.697V31.8719H122.941C121.45 29.9113 119.832 28.0622 118.086 26.3248C119.987 26.2132 122.105 26.4089 124.442 26.9131C126.779 27.4182 129.001 28.3148 131.107 29.603L127.794 31.8719H131.801C134.113 31.592 136.141 30.6406 137.888 29.0147C137.014 30.527 136.475 32.2645 136.27 34.2251V36.7456H135.037C134.215 38.2032 133.7 39.8838 133.496 41.7887V66.9158C133.496 70.6687 132.237 73.3576 129.72 74.9835C127.204 76.6074 124.121 77.3366 120.474 77.1683C121.4 76.4958 122.17 75.2624 122.786 73.4701C123.402 71.6769 123.711 69.3531 123.711 66.4949V63.806H115.697V76.6642H105.527V63.806H97.4375V76.6642H87.4981L87.4208 44.3934C87.1638 41.8719 86.2905 39.6597 84.8009 37.7548C86.1881 38.7073 87.7801 39.2956 89.5779 39.5187H105.527V36.7456H85.4182ZM115.697 59.0996H123.711V54.1418H115.697V59.0996ZM115.697 49.3513H123.711V44.3934H115.697V49.3513ZM115.697 39.5187H123.711L129.028 39.4355C131.235 39.1556 133.213 38.2589 134.96 36.7456H115.697V39.5187ZM97.4375 59.0996H105.527V54.1418H97.4375V59.0996ZM97.4375 44.3934V49.3513H105.527V44.3934H97.4375ZM74.0143 35.4859H66.9265V77.3366H56.7562V35.4859H50.9001V38.0906C50.9001 47.1665 50.078 54.7027 48.4348 60.6971C46.7906 66.6906 44.7228 71.0886 42.2325 73.8911C39.7401 76.6915 37.2105 78.1197 34.6428 78.1765C35.3616 77.1115 36.1074 75.4308 36.8773 73.1344C37.6482 70.836 38.3147 68.0356 38.8808 64.731L32.3311 70.1088C31.509 62.8261 30.2764 55.5151 28.6332 48.1747C28.7356 48.3431 30.161 49.9822 32.9093 53.091C35.6567 56.2008 37.7506 59.3806 39.189 62.6294C40.3182 55.5151 40.8844 47.4748 40.8844 38.5105V28.0896C40.3182 29.6587 39.9328 31.3404 39.728 33.1327V34.645H27.246V43.0484H31.4839C34.9249 42.5443 37.9292 41.1162 40.4989 38.763C39.2141 40.9478 38.4181 43.4978 38.1099 46.4098V47.8389H27.246V65.9907C27.246 69.9688 25.9099 72.895 23.2399 74.7735C20.5688 76.65 17.3577 77.5882 13.6086 77.5882C12.5807 77.5882 11.8369 77.5598 11.3741 77.504C12.8638 76.2716 14.1094 74.6325 15.1112 72.5877C16.113 70.5419 16.6139 68.6239 16.6139 66.8316V47.8389H5.44178V46.4098C5.13361 43.3852 4.36271 40.8363 3.13006 38.763C5.74994 41.172 8.72816 42.6285 12.0678 43.1326H16.6139V34.645H3.82368V33.1327C3.51552 30.1071 2.74461 27.5581 1.51196 25.4849C4.13184 27.8949 7.11006 29.3504 10.4497 29.8545H11.4514C11.0399 27.6149 10.4497 25.2324 9.67975 22.7118C8.90884 20.1903 8.13794 17.9508 7.36804 15.9891C9.62755 17.0531 11.9523 18.539 14.3403 20.4429C16.7293 22.3477 18.4629 24.281 19.5419 26.2416L15.0731 29.8545L25.0115 29.7703C25.8848 27.5855 26.6808 25.1776 27.4005 22.5435C28.1193 19.9104 28.6834 17.5298 29.0959 15.4008L37.2627 19.9388C35.1056 24.14 32.6654 27.4182 29.9431 29.7703H33.102C36.0301 29.3798 38.6228 28.3148 40.8844 26.5773V8.84544H47.7412C51.2334 7.78145 54.3541 6.53386 57.1025 5.10574C59.8499 3.6766 61.8916 2.31947 63.2276 1.03031L71.0099 8.34134C64.6921 12.152 57.9888 13.8875 50.9001 13.5518V30.6954L67.3883 30.6112C70.8292 30.1071 73.8346 28.6779 76.4033 26.3248C75.1184 28.5106 74.3234 31.0605 74.0143 33.9725V35.4859ZM38.1099 14.3074H5.44178V12.8793C5.13361 9.85365 4.36271 7.30473 3.13006 5.23151C5.74994 7.64147 8.72816 9.098 12.0678 9.6021H19.0019C17.1529 6.52169 15.0731 3.46664 12.7614 0.442017C14.9687 0.722976 17.4862 1.42284 20.3118 2.54262C23.1365 3.66443 25.5516 5.09255 27.5541 6.82801L24.9353 9.51792H31.4839C34.9249 9.01381 37.9292 7.58467 40.4989 5.23151C39.2141 7.4163 38.4181 9.96725 38.1099 12.8793V14.3074ZM8.67797 48.9313L15.5348 54.3943C14.7127 58.6523 13.5955 62.2936 12.1832 65.3193C10.7699 68.3439 9.28125 70.6829 7.71434 72.3362C6.14744 73.9874 4.67087 75.0109 3.28464 75.4034C4.77326 70.8654 5.99285 66.1307 6.94444 61.2013C7.89402 56.2718 8.4722 52.1811 8.67797 48.9313ZM173.946 50.2763L182.73 55.9066C180.213 60.3898 176.938 64.4368 172.906 68.0498C168.873 71.6637 164.418 74.03 159.539 75.1508C163.031 70.9496 166.01 66.6348 168.476 62.2095C170.942 57.7841 172.764 53.806 173.946 50.2763ZM188.432 59.0996V48.0073H166.473V25.3166C166.267 23.3559 165.753 21.6752 164.932 20.2745C166.781 21.9004 168.757 22.8518 170.864 23.1318H217.402C219.2 22.9086 220.74 22.3477 222.024 21.4511C220.535 23.4675 219.661 25.6249 219.405 27.9223V41.2004C219.405 43.4978 218.659 45.1916 217.171 46.284C215.68 47.3764 213.882 47.9515 211.778 48.0073H199.218V58.4282C199.218 63.1903 198.268 67.0547 196.367 70.0246C194.466 72.9934 192.001 75.0798 188.971 76.2858C185.939 77.4898 182.653 78.0081 179.108 77.8407C181.728 76.16 183.937 73.7227 185.734 70.5287C187.532 67.3357 188.432 63.526 188.432 59.0996ZM204.766 43.1326C205.844 43.1326 206.756 42.7969 207.5 42.1244C208.245 41.4519 208.618 40.4163 208.618 39.0146V27.9223H177.259V43.1326H204.766ZM223.411 67.5041L214.936 74.4794C213.291 69.4921 211.417 64.8983 209.311 60.6971C207.204 56.4949 205.202 53.022 203.302 50.2763C206.948 51.677 210.595 53.8476 214.243 56.7891C217.89 59.7305 220.946 63.3018 223.411 67.5041Z" fill="#FEFEFE"/>
</g>
<defs>
<clipPath id="clip0_2755_135">
<rect width="226.985" height="77.7345" fill="white" transform="translate(0.624268 0.441956)"/>
</clipPath>
</defs>
</svg>
