<svg width="59" height="20" viewBox="0 0 59 20" fill="none" xmlns="http://www.w3.org/2000/svg">
<path id="Vector" fill-rule="evenodd" clip-rule="evenodd" d="M58.1263 4.69187H41.1773C41.1112 4.10105 40.8865 3.54598 40.5032 3.02692C40.8335 3.25761 41.23 3.40192 41.6928 3.45934H48.9878C48.2474 2.07571 47.5338 0.937121 46.8468 0.043059C47.7588 0.259398 48.6572 0.583776 49.5428 1.01619C50.4281 1.44861 51.1417 1.96741 51.6838 2.57284L50.4547 3.45934H57.6111C58.0734 3.40192 58.4698 3.25761 58.8004 3.02692C58.4169 3.54598 58.1925 4.10105 58.1263 4.69187ZM38.5606 2.91888H35.032V4.23779H32.2567V2.91888H27.856V4.23779H25.1006V2.91888H21.572V2.27012C21.5191 1.76568 21.3801 1.31891 21.1557 0.929553C21.6048 1.34788 22.127 1.59292 22.7218 1.66469H25.1006V0.216078H27.856V1.66469H32.2567V0.216078H35.032V1.66469H37.4108C38.0056 1.59292 38.5275 1.34788 38.9769 0.929553C38.752 1.31891 38.6133 1.76568 38.5606 2.27012V2.91888ZM21.9883 9.34041V8.6486C21.6048 8.7783 21.2678 8.85763 20.9772 8.88634C21.6513 8.06482 22.2063 7.21434 22.6425 6.33516C23.0784 5.45597 23.3889 4.67021 23.574 3.97839L26.4089 4.51885C26.2369 4.90795 26.1179 5.15325 26.052 5.25398H35.5674L37.173 5.23232C37.7677 5.1603 38.2897 4.91551 38.739 4.49719C38.5141 4.88628 38.3754 5.33332 38.3227 5.83776V15.5242C38.3227 17.1531 37.8997 18.2667 37.0542 18.8648C36.2081 19.4629 35.2567 19.7623 34.1994 19.7623C33.8161 19.7623 33.4726 19.733 33.1686 19.6756C33.8427 19.4303 34.4106 18.9585 34.8734 18.2594C35.336 17.5603 35.5674 16.6411 35.5674 15.5028V6.48651H25.2194C24.651 7.14962 23.9903 7.69008 23.237 8.10814H27.162V6.85395H29.7787V8.08648H31.6423C31.2588 7.58204 30.8425 7.1063 30.3934 6.65927C30.8823 6.63057 31.4272 6.68093 32.0287 6.81063C32.6299 6.94059 33.2014 7.17128 33.7435 7.50271L32.891 8.08648H33.922C34.5168 8.01446 35.0387 7.76967 35.4881 7.35135C35.2631 7.74045 35.1244 8.18748 35.0718 8.69192V9.34041H34.7546C34.5431 9.71542 34.4106 10.1478 34.3582 10.6379V17.1028C34.3582 18.0683 34.0341 18.7602 33.3866 19.1785C32.7392 19.5963 31.946 19.7839 31.0078 19.7406C31.2459 19.5676 31.444 19.2503 31.6025 18.7891C31.7611 18.3277 31.8404 17.7299 31.8404 16.9945V16.3027H29.7787V19.6109H27.162V16.3027H25.0807V19.6109H22.5234L22.5035 11.3081C22.4374 10.6593 22.2127 10.0902 21.8295 9.60007C22.1864 9.84512 22.596 9.99648 23.0585 10.0539H27.162V9.34041H21.9883ZM29.7787 15.0918H31.8404V13.8162H29.7787V15.0918ZM29.7787 12.5837H31.8404V11.3081H29.7787V12.5837ZM29.7787 10.0539H31.8404L33.2084 10.0325C33.7763 9.96046 34.2854 9.72977 34.7347 9.34041H29.7787V10.0539ZM25.0807 15.0918H27.162V13.8162H25.0807V15.0918ZM25.0807 11.3081V12.5837H27.162V11.3081H25.0807ZM19.0542 9.0163H17.2307V19.7839H14.614V9.0163H13.1073V9.68645C13.1073 12.0216 12.8958 13.9605 12.473 15.5028C12.05 17.0448 11.518 18.1764 10.8772 18.8974C10.236 19.6179 9.58514 19.9854 8.92451 20C9.10942 19.726 9.30131 19.2936 9.4994 18.7027C9.69774 18.1114 9.86922 17.3909 10.0149 16.5407L8.32974 17.9243C8.11822 16.0506 7.80108 14.1695 7.37831 12.281C7.40465 12.3243 7.77138 12.746 8.47849 13.5458C9.18535 14.346 9.72408 15.1641 10.0942 15.9999C10.3847 14.1695 10.5304 12.1009 10.5304 9.79449V7.11335C10.3847 7.51706 10.2855 7.94974 10.2329 8.41086V8.79996H7.02139V10.962H8.11177C8.99708 10.8323 9.77005 10.4649 10.4312 9.85947C10.1006 10.4216 9.89582 11.0777 9.81654 11.8269V12.1946H7.02139V16.8648C7.02139 17.8883 6.67765 18.6412 5.99068 19.1245C5.30345 19.6072 4.47728 19.8486 3.51268 19.8486C3.24822 19.8486 3.05685 19.8413 2.93779 19.827C3.32105 19.5099 3.64155 19.0882 3.89929 18.5621C4.15704 18.0357 4.28591 17.5422 4.28591 17.0811V12.1946H1.41148V11.8269C1.33219 11.0487 1.13385 10.3929 0.816705 9.85947C1.49076 10.4793 2.25702 10.854 3.11625 10.9837H4.28591V8.79996H0.995163V8.41086C0.915877 7.63241 0.717534 6.9766 0.400391 6.44319C1.07445 7.06324 1.84071 7.43773 2.69993 7.56743H2.95768C2.85179 6.99122 2.69993 6.37821 2.50185 5.72972C2.30351 5.08096 2.10516 4.50476 1.90708 4.00005C2.48842 4.2738 3.08655 4.65612 3.70095 5.14594C4.31561 5.63603 4.76162 6.13343 5.03925 6.63787L3.88948 7.56743L6.44651 7.54577C6.67119 6.98365 6.87599 6.36412 7.06117 5.6864C7.24608 5.00894 7.39122 4.39646 7.49737 3.84869L9.59857 5.01624C9.04357 6.09716 8.41574 6.94059 7.71534 7.54577H8.52808C9.28142 7.4453 9.94851 7.17128 10.5304 6.72425V2.16208H12.2945C13.193 1.88833 13.996 1.56735 14.7031 1.19991C15.4099 0.832213 15.9352 0.483044 16.279 0.151359L18.2813 2.03239C16.6558 3.01283 14.9311 3.45934 13.1073 3.37296V7.78377L17.3495 7.76211C18.2348 7.63241 19.008 7.26471 19.6689 6.65927C19.3383 7.22165 19.1338 7.87771 19.0542 8.62694V9.0163ZM9.81654 3.56737H1.41148V3.19994C1.33219 2.42148 1.13385 1.76568 0.816705 1.23227C1.49076 1.85232 2.25702 2.22706 3.11625 2.35676H4.90031C4.42459 1.56422 3.88948 0.778194 3.29471 0C3.86262 0.072287 4.51034 0.252352 5.23734 0.540456C5.96408 0.829082 6.58545 1.19652 7.10068 1.64303L6.42688 2.3351H8.11177C8.99708 2.2054 9.77005 1.83771 10.4312 1.23227C10.1006 1.79439 9.89582 2.45071 9.81654 3.19994V3.56737ZM2.24411 12.4756L4.00828 13.8812C3.79676 14.9767 3.50932 15.9136 3.14595 16.692C2.78232 17.4702 2.39932 18.072 1.99618 18.4974C1.59303 18.9222 1.21313 19.1855 0.856477 19.2865C1.23948 18.119 1.55326 16.9008 1.79809 15.6325C2.04241 14.3642 2.19116 13.3118 2.24411 12.4756ZM44.7653 12.8217L47.0253 14.2703C46.3776 15.4237 45.5351 16.465 44.4977 17.3945C43.46 18.3244 42.3139 18.9332 41.0585 19.2215C41.957 18.1406 42.7235 17.0305 43.358 15.8919C43.9923 14.7533 44.4613 13.7298 44.7653 12.8217ZM48.4922 15.0918V12.2379H42.8425V6.39987C42.7896 5.89543 42.6574 5.46301 42.4461 5.10262C42.9218 5.52095 43.4303 5.76573 43.9724 5.83776H55.9459C56.4084 5.78035 56.8048 5.63603 57.1351 5.40534C56.7519 5.92414 56.5272 6.47921 56.4613 7.07029V10.4866C56.4613 11.0776 56.2694 11.5135 55.8864 11.7945C55.5029 12.0756 55.0404 12.2235 54.4988 12.2379H51.2675V14.919C51.2675 16.1443 51.0229 17.1385 50.534 17.9026C50.0449 18.6665 49.4106 19.2033 48.6309 19.5136C47.851 19.8233 47.0054 19.9567 46.0935 19.9136C46.7676 19.4812 47.3357 18.8541 47.7983 18.0323C48.2608 17.2108 48.4922 16.2306 48.4922 15.0918ZM52.6949 10.9837C52.9722 10.9837 53.2067 10.8973 53.3984 10.7243C53.59 10.5513 53.6858 10.2848 53.6858 9.92419V7.07029H45.6178V10.9837H52.6949ZM57.4921 17.2541L55.3116 19.0488C54.8883 17.7656 54.4061 16.5837 53.8643 15.5028C53.3222 14.4216 52.807 13.5281 52.3181 12.8217C53.2563 13.1821 54.1946 13.7405 55.1331 14.4973C56.0714 15.2541 56.8578 16.173 57.4921 17.2541Z" fill="#FEFEFE"/>
</svg>
