<svg width="40" height="40" viewBox="0 0 40 40" fill="none" xmlns="http://www.w3.org/2000/svg">
<g clip-path="url(#clip0_1407_97)">
<path d="M40 20C40 31.0454 31.0454 40 20 40C8.95459 40 0 31.0454 0 20C0 8.95459 8.95459 0 20 0C31.0454 0 40 8.95459 40 20Z" fill="#FF0000"/>
<path d="M7.91632 8.68311C8.18567 8.76328 8.51012 8.83218 8.84335 8.87352L8.87468 8.87728L27.9351 12.3662C28.0328 12.3787 28.1193 12.4225 28.1857 12.4852L33.2217 17.2769C33.3031 17.352 33.3157 17.3959 33.2217 17.4899C31.8187 19.1895 30.4197 20.891 29.025 22.5947L21.1765 32.1845L18.5834 35.3163L18.502 35.404L18.0823 34.3643C16.458 30.2887 14.8377 26.2132 13.2217 22.1376C11.4762 17.732 9.72028 13.3203 7.95391 8.90233C7.92761 8.84095 7.9038 8.76703 7.88627 8.69188L7.88501 8.68311H7.91632ZM18.4394 31.4392H18.477C18.5458 30.8127 18.621 30.1863 18.6961 29.56C18.8403 28.4012 18.978 27.2487 19.1221 26.0899C19.2474 25.025 19.3727 23.9603 19.5041 22.8955C19.6357 21.8306 19.761 20.7533 19.8925 19.6822C19.8963 19.6659 19.8988 19.647 19.8988 19.6283C19.8988 19.5419 19.855 19.4642 19.7873 19.4203L10.7413 11.8976H10.7099L18.4394 31.4392ZM19.8925 31.5143L30.5973 18.4733H30.4531L26.2627 19.25L21.3833 20.1269C21.258 20.1269 21.2267 20.2083 21.2141 20.321C21.2141 20.6656 21.139 20.9976 21.0951 21.3357C20.9574 22.4946 20.8133 23.6533 20.6755 24.8122C20.5377 25.9709 20.4187 26.9543 20.2871 28.0255L19.8925 31.5143ZM11.7497 10.8441V10.8817L12.8145 11.8149L20.4124 18.0786C20.4463 18.1225 20.4975 18.15 20.5565 18.15C20.6154 18.15 20.6667 18.1225 20.7005 18.0799C22.3041 16.7353 23.9117 15.3927 25.5235 14.0523L26.1875 13.5011L11.7497 10.8441ZM22.4418 18.4795C22.6298 18.4795 30.5847 17.0452 30.7914 16.9762C30.7914 16.9762 30.7914 16.9325 30.7475 16.9136C29.7954 16.02 28.8454 15.1159 27.8975 14.2014C27.766 14.0761 27.7034 14.0949 27.5781 14.2014C26.388 15.2036 25.1854 16.1996 23.989 17.1955C23.4878 17.6152 22.9805 18.0347 22.4418 18.4795Z" fill="white"/>
</g>
<defs>
<clipPath id="clip0_1407_97">
<rect width="40" height="40" fill="white"/>
</clipPath>
</defs>
</svg>
