<svg width="40" height="40" viewBox="0 0 40 40" fill="none" xmlns="http://www.w3.org/2000/svg">
<g clip-path="url(#clip0_1407_124)">
<path d="M40 20C40 31.0337 31.05 40 20 40C8.95 40 0 31.0337 0 20C0 13.6 3 7.91626 7.66626 4.25C7.76626 4.16626 7.8825 4.08374 7.9825 4.01624C11.3325 1.4825 15.4987 0 19.9987 0C31.0487 0 40 8.95 40 20Z" fill="#FF007A"/>
<path d="M15.4472 7.03364C15.0635 6.98364 15.0472 6.9674 15.231 6.93364C15.581 6.88364 16.3972 6.9499 16.9648 7.08364C18.2985 7.3999 19.481 8.1999 20.7648 9.63364L21.0985 10.0174L21.5822 9.95114C23.6322 9.6174 25.7322 9.8849 27.4822 10.6849C27.966 10.9011 28.716 11.3511 28.816 11.4511C28.8498 11.4849 28.916 11.7349 28.9498 11.9674C29.0835 12.8336 29.016 13.4836 28.7498 13.9674C28.5998 14.2511 28.5998 14.3174 28.6998 14.5511C28.766 14.7349 28.9998 14.8674 29.1998 14.8674C29.6498 14.8674 30.0998 14.1674 30.316 13.1836L30.416 12.7999L30.5822 12.9836C31.516 14.0336 32.266 15.4837 32.366 16.5174L32.3998 16.8011L32.2335 16.5674C31.9498 16.1511 31.6998 15.8674 31.3498 15.6337C30.716 15.2174 30.066 15.0837 28.316 14.9837C26.7322 14.8837 25.8322 14.7674 24.9498 14.4674C23.4335 13.9674 22.666 13.3174 20.8835 10.9511C20.0835 9.90114 19.5998 9.3349 19.0998 8.85114C18.016 7.80114 16.9335 7.25114 15.516 7.0349L15.4472 7.03364Z" fill="white"/>
<path d="M29.1653 9.38584C29.199 8.68584 29.299 8.21958 29.499 7.80208C29.5653 7.63584 29.649 7.48584 29.6653 7.48584C29.6816 7.48584 29.649 7.61958 29.599 7.76958C29.449 8.16958 29.4327 8.75334 29.5327 9.38584C29.6666 10.2196 29.7166 10.3196 30.599 11.2358C30.999 11.6521 31.4827 12.1858 31.6653 12.4196L31.9816 12.8196L31.6653 12.5196C31.2816 12.1533 30.399 11.4533 30.199 11.3533C30.0653 11.2871 30.049 11.2871 29.9653 11.3696C29.899 11.4358 29.8653 11.5533 29.8653 12.0858C29.849 12.9196 29.7316 13.4358 29.4653 13.9696C29.3153 14.2533 29.299 14.1858 29.4316 13.8696C29.5316 13.6358 29.5477 13.5196 29.5477 12.7196C29.5477 11.1196 29.364 10.7358 28.2477 10.0858C27.964 9.91958 27.4977 9.68584 27.214 9.55208C26.914 9.41834 26.6977 9.31834 26.714 9.31834C26.7477 9.28458 27.8303 9.60208 28.264 9.78458C28.914 10.0346 29.014 10.0683 29.0977 10.0346C29.1477 9.98458 29.1977 9.83458 29.214 9.36834L29.1653 9.38584Z" fill="white"/>
<path d="M16.2012 12.1151C15.4349 11.0489 14.9349 9.38139 15.0349 8.14889L15.0686 7.76514L15.2525 7.79889C15.5862 7.84889 16.1525 8.08264 16.4362 8.24889C17.1699 8.69889 17.5025 9.29889 17.8199 10.8151C17.9199 11.2651 18.0362 11.7651 18.1036 11.9314C18.2036 12.2151 18.5536 12.8476 18.8375 13.2651C19.0375 13.5651 18.9036 13.7151 18.4536 13.6651C17.7536 13.5989 16.8199 12.9489 16.2036 12.1151H16.2012Z" fill="white"/>
<path d="M28.232 20.1343C24.582 18.668 23.2981 17.3843 23.2981 15.2343C23.2981 14.918 23.3144 14.668 23.3144 14.668C23.3307 14.668 23.4644 14.7843 23.6307 14.9017C24.3644 15.4854 25.197 15.7517 27.497 16.0854C28.847 16.2854 29.6131 16.4354 30.3131 16.6693C32.547 17.403 33.9294 18.9193 34.247 20.953C34.347 21.5367 34.2807 22.6693 34.1307 23.253C33.997 23.7193 33.6307 24.553 33.547 24.5867C33.5307 24.5867 33.497 24.4867 33.497 24.353C33.4631 23.5867 33.0807 22.8367 32.4307 22.2693C31.6644 21.603 30.6644 21.103 28.2307 20.1354L28.232 20.1343Z" fill="white"/>
<path d="M25.6476 20.7321C25.6139 20.4484 25.5139 20.0984 25.4639 19.9658L25.3639 19.6821L25.5302 19.8821C25.7639 20.1658 25.9465 20.4821 26.1139 20.9484C26.2476 21.2984 26.2476 21.4147 26.2476 21.9821C26.2476 22.5497 26.2315 22.6658 26.1139 22.9821C25.9302 23.4821 25.7139 23.8321 25.3476 24.2158C24.6815 24.8997 23.8139 25.2658 22.5815 25.4321C22.3652 25.4484 21.7315 25.4984 21.1815 25.5484C19.7976 25.6147 18.8815 25.7647 18.0476 26.0647C17.9315 26.0984 17.8315 26.1308 17.8139 26.1147C17.7802 26.0808 18.3476 25.7484 18.8139 25.5308C19.4639 25.2147 20.1139 25.0471 21.5802 24.7971C22.2965 24.6808 23.0302 24.5471 23.2139 24.4634C25.0302 23.8971 25.9476 22.4797 25.6476 20.7471V20.7321Z" fill="white"/>
<path d="M27.3301 23.7003C26.8462 22.6503 26.7462 21.6503 26.9962 20.7166C27.0301 20.6166 27.0625 20.5327 27.1125 20.5327C27.1625 20.5327 27.2625 20.5827 27.3625 20.6666C27.5788 20.8166 28.0462 21.0666 29.2288 21.7166C30.7288 22.5327 31.5625 23.1503 32.1625 23.8666C32.6788 24.5003 32.9962 25.2166 33.1462 26.1003C33.2462 26.6003 33.1801 27.8003 33.0462 28.3003C32.6462 29.8666 31.7125 31.1166 30.3801 31.834C30.1801 31.9503 30.0138 32.0177 29.9962 32.0177C29.9788 32.0177 30.0462 31.834 30.1625 31.6177C30.6125 30.684 30.6625 29.7677 30.3288 28.7677C30.1288 28.134 29.6951 27.384 28.8625 26.1177C27.8462 24.6516 27.6125 24.2516 27.3462 23.7177L27.3301 23.7003Z" fill="white"/>
<path d="M13.5994 29.3358C14.9656 28.1858 16.6331 27.3858 18.1831 27.1195C18.8494 27.0032 19.9494 27.0532 20.5669 27.2195C21.5506 27.4695 22.4331 28.0358 22.8831 28.7195C23.3331 29.3858 23.5331 29.9532 23.7331 31.2195C23.7994 31.7195 23.8994 32.2358 23.9169 32.3358C24.0669 33.0019 24.3669 33.5195 24.7331 33.7858C25.2994 34.2019 26.2994 34.2358 27.2831 33.8519C27.4494 33.8019 27.5994 33.7358 27.5994 33.7519C27.6331 33.7858 27.1331 34.1182 26.7994 34.2858C26.3331 34.5195 25.9656 34.6019 25.4656 34.6019C24.5818 34.6019 23.8319 34.1358 23.2156 33.2182C23.0819 33.0345 22.8319 32.5019 22.6156 32.0019C21.9656 30.5019 21.6319 30.0682 20.8818 29.5682C20.2156 29.1519 19.3656 29.0519 18.7319 29.3682C17.8819 29.7682 17.6656 30.8682 18.2481 31.5182C18.4819 31.8019 18.9318 32.0182 19.2981 32.0682C19.9818 32.1682 20.5644 31.6182 20.5644 30.9519C20.5644 30.5019 20.3981 30.2519 19.9644 30.0519C19.3806 29.8019 18.7306 30.0858 18.7481 30.6519C18.7481 30.8858 18.8644 31.0358 19.0981 31.1519C19.1981 31.196 19.2094 31.2128 19.1319 31.2019C18.5981 31.0858 18.4656 30.4358 18.8981 30.0019C19.4144 29.4858 20.4981 29.7019 20.8644 30.4182C21.0144 30.7182 21.0306 31.3019 20.8981 31.6682C20.5819 32.4845 19.6981 32.9019 18.7981 32.6682C18.1981 32.5019 17.9319 32.3345 17.1981 31.5845C15.9144 30.2508 15.4144 30.0008 13.5644 29.7182L13.2144 29.6682L13.5981 29.3019L13.5994 29.3358Z" fill="white"/>
<path d="M16.2007 13.0843C15.7007 12.5181 11.467 7.85057 7.98448 4.01807C7.88448 4.08431 7.76822 4.16807 7.66822 4.25181C11.2845 8.66807 14.9182 13.1356 15.152 13.4518C15.4357 13.8356 15.3182 14.1856 14.8682 14.4355C14.602 14.5855 14.0682 14.7355 13.8182 14.7355C13.5182 14.7355 13.1682 14.5856 12.9345 14.3518C12.7682 14.1856 12.0507 13.1356 10.4182 10.6018C9.18448 8.66807 8.13448 7.06807 8.11822 7.05181C8.11822 7.05181 8.84613 8.37974 10.302 11.0356C11.7182 13.5518 12.1682 14.4518 12.1682 14.5694C12.1682 14.8031 12.102 14.9355 11.802 15.2694C11.3182 15.8194 11.0857 16.4531 10.9182 17.7531C10.7345 19.2031 10.2345 20.2368 8.81822 21.9868C8.00198 23.0206 7.86822 23.2031 7.66822 23.6205C7.40198 24.1368 7.33448 24.4368 7.30198 25.1044C7.25198 25.8044 7.33572 26.2381 7.53572 26.9044C7.71948 27.5043 7.91948 27.8881 8.41948 28.6381C8.83572 29.3043 9.10322 29.8044 9.10322 29.9881C9.10322 30.1381 9.13698 30.1381 9.80322 29.9881C11.387 29.6218 12.687 28.9881 13.4032 28.2218C13.8532 27.7381 13.9695 27.4718 13.9695 26.8218C13.9695 26.3881 13.9695 26.3055 13.8357 26.0381C13.652 25.6381 13.302 25.3043 12.552 24.7881C11.552 24.1044 11.1182 23.5543 11.0182 22.8218C10.9182 22.1881 11.0345 21.7718 11.5845 20.6055C12.1507 19.4055 12.3007 18.9218 12.4007 17.7055C12.4507 16.9218 12.5507 16.6055 12.767 16.3718C13.0007 16.1218 13.2007 16.0218 13.7832 15.9555C14.717 15.8218 15.317 15.5894 15.7995 15.1218C16.2332 14.7381 16.4157 14.3555 16.4332 13.7718V13.3556L16.1995 13.0893L16.2007 13.0843ZM9.58448 25.8844C9.40072 26.2181 9.05072 26.3344 8.78448 26.1343C8.61822 26.0005 8.61822 25.8181 8.75072 25.6181C8.88322 25.4181 8.86698 25.3181 8.70072 25.2344C8.58448 25.1844 8.55072 25.1181 8.55072 25.0505C8.55072 24.7668 9.01698 24.6668 9.33448 24.8843C9.66822 25.1005 9.78448 25.5344 9.58448 25.8844Z" fill="white"/>
<path d="M18.1838 16.3144C17.9 16.1644 17.3338 16.1144 17.0338 16.1981C16.6 16.332 16.1675 16.8144 16.05 17.282C15.9663 17.582 16 18.1157 16.1338 18.282C16.3338 18.532 16.5175 18.6157 17.0338 18.6157C18.05 18.6157 18.9175 18.1657 19 17.632C19.1 17.1981 18.7163 16.5807 18.1838 16.3144ZM18.2163 17.1144C18.1 17.2644 17.7663 17.4144 17.5325 17.4144C17.1663 17.4144 16.7825 17.1644 16.7825 16.9144C16.7825 16.4481 17.5325 16.1807 18.0325 16.4981C18.2988 16.6644 18.3663 16.8981 18.2163 17.1144Z" fill="white"/>
</g>
<defs>
<clipPath id="clip0_1407_124">
<rect width="40" height="40" fill="white"/>
</clipPath>
</defs>
</svg>
