<svg width="41" height="40" viewBox="0 0 41 40" fill="none" xmlns="http://www.w3.org/2000/svg">
<g clip-path="url(#clip0_1407_85)">
<path d="M40.5 20C40.5 31.0463 31.5463 40 20.5 40C9.45374 40 0.5 31.0463 0.5 20C0.5 8.95374 9.45374 0 20.5 0C31.5463 0 40.5 8.95374 40.5 20Z" fill="#0F97F8"/>
<path d="M16.2356 35.8169C16.2356 36.3508 15.8019 36.6508 15.3018 36.5008C8.38561 34.3008 3.40186 27.8508 3.40186 20.2008C3.40186 12.5507 8.38561 6.11698 15.3018 3.91698C15.8181 3.75074 16.2356 4.06698 16.2356 4.60074V5.93448C16.2356 6.28448 15.9694 6.70074 15.6356 6.81824C10.1694 8.83448 6.26936 14.0845 6.26936 20.2019C6.26936 26.3195 10.1694 31.5858 15.6356 33.5682C15.9694 33.6845 16.2356 34.1019 16.2356 34.4519V35.8019V35.8169Z" fill="white"/>
<path d="M21.9182 30.8828C21.9182 31.2828 21.6019 31.5991 21.2019 31.5991H19.7856C19.3856 31.5991 19.0694 31.2828 19.0694 30.8828V28.6328C15.9532 28.1991 14.4357 26.4828 14.0357 24.0991C13.9694 23.6828 14.2857 23.3328 14.7019 23.3328H16.3182C16.6519 23.3328 16.9344 23.5828 17.0182 23.8991C17.3182 25.2991 18.1344 26.3991 20.6344 26.3991C22.4682 26.3991 23.7844 25.3653 23.7844 23.8328C23.7844 22.3003 23.0182 21.7165 20.3182 21.2665C16.3344 20.7328 14.4344 19.5165 14.4344 16.4003C14.4344 14.0003 16.2682 12.1003 19.0844 11.7166V9.51655C19.0844 9.11655 19.4006 8.80029 19.8006 8.80029H21.2169C21.6169 8.80029 21.9332 9.11655 21.9332 9.51655V11.7828C24.2332 12.1991 25.6832 13.499 26.1669 15.6665C26.2506 16.0828 25.9332 16.4503 25.5006 16.4503H24.0006C23.6844 16.4503 23.4169 16.2341 23.3169 15.9341C22.9006 14.5678 21.9332 13.9503 20.2169 13.9503C18.3332 13.9503 17.3506 14.8503 17.3506 16.1341C17.3506 17.4841 17.9006 18.1678 20.8006 18.5678C24.7169 19.1015 26.7506 20.2178 26.7506 23.5515C26.7506 26.0852 24.8669 28.1353 21.9169 28.5852V30.8691H21.9006L21.9182 30.8828Z" fill="white"/>
<path d="M25.6973 36.5022C25.181 36.6685 24.7634 36.3522 24.7634 35.8185V34.4848C24.7634 34.0848 24.9973 33.7185 25.3634 33.601C30.8134 31.601 34.7297 26.351 34.7297 20.2348C34.7297 14.1185 30.8297 8.85103 25.3634 6.86853C25.0297 6.75228 24.7634 6.33478 24.7634 5.98478V4.65102C24.7634 4.11728 25.1973 3.81728 25.6973 3.96728C32.6134 6.13353 37.5973 12.601 37.5973 20.2335C37.5973 27.866 32.6134 34.3172 25.6973 36.5335V36.5022Z" fill="white"/>
</g>
<defs>
<clipPath id="clip0_1407_85">
<rect width="40" height="40" fill="white" transform="translate(0.5)"/>
</clipPath>
</defs>
</svg>
