<svg width="41" height="40" viewBox="0 0 41 40" fill="none" xmlns="http://www.w3.org/2000/svg">
<g clip-path="url(#clip0_1407_7)">
<path d="M40.3333 20C40.3333 31.0463 31.3795 40 20.3333 40C9.28699 40 0.333252 31.0463 0.333252 20C0.333252 8.95374 9.28699 0 20.3333 0C31.3795 0 40.3333 8.95374 40.3333 20Z" fill="#26A17B"/>
<path d="M22.8358 22.6702V22.6676C22.6982 22.6776 21.9895 22.7202 20.4082 22.7202C19.1458 22.7202 18.2571 22.6826 17.9445 22.6676V22.6714C13.0845 22.4576 9.45703 21.6114 9.45703 20.5989C9.45703 19.5876 13.0845 18.7414 17.9445 18.5239V21.8289C18.2621 21.8514 19.1721 21.9052 20.4295 21.9052C21.9382 21.9052 22.6945 21.8426 22.8358 21.8302V18.5264C27.6858 18.7426 31.3045 19.5889 31.3045 20.5989C31.3045 21.6114 27.6858 22.4552 22.8358 22.6702ZM22.7345 15.9914V13.0339H29.5021V8.52393H11.0758V13.0339H17.8432V15.9902C12.3433 16.2426 8.20703 17.3326 8.20703 18.6376C8.20703 19.9426 12.3433 21.0314 17.8432 21.2852V30.7626H22.7345V21.2826C28.2258 21.0302 32.3521 19.9414 32.3521 18.6376C32.3521 17.3339 28.2258 16.2452 22.7345 15.9914Z" fill="white"/>
</g>
<defs>
<clipPath id="clip0_1407_7">
<rect width="40" height="40" fill="white" transform="translate(0.333252)"/>
</clipPath>
</defs>
</svg>
