<svg width="41" height="40" viewBox="0 0 41 40" fill="none" xmlns="http://www.w3.org/2000/svg">
<g clip-path="url(#clip0_1407_51)">
<path d="M40.6667 20C40.6667 31.0454 31.7122 40 20.6667 40C9.62133 40 0.666748 31.0454 0.666748 20C0.666748 8.95459 9.62133 0 20.6667 0C31.7122 0 40.6667 8.95459 40.6667 20Z" fill="#5E5E5E"/>
<path d="M29.7378 30.9387L26.6059 27.8445L23.7496 25.0133C22.9066 24.1653 21.7391 23.6403 20.4488 23.6403C19.1584 23.6403 17.9909 24.1653 17.1478 25.0133L11.1659 30.9387H7.40771L7.95266 30.375L9.83177 28.496L14.1349 24.2365C14.6486 23.7293 15.1496 23.2031 15.6946 22.7333C16.7206 21.8213 18.0309 21.2074 19.4766 21.0384L19.5092 21.0358C19.8048 20.9933 20.1468 20.9683 20.4938 20.9683C22.3141 20.9683 23.9752 21.6447 25.2429 22.7597L25.2355 22.7521C25.6802 23.1341 26.0748 23.5601 26.4882 23.9673L31.5931 29.0158L33.3908 30.801C33.4246 30.831 33.4535 30.8661 33.4772 30.905L33.4785 30.9074L29.7378 30.9387Z" fill="white"/>
<path d="M11.2268 9.30737L13.3565 11.4245C14.3336 12.3891 15.2983 13.3537 16.2754 14.3121C16.6963 14.7481 17.136 15.1576 17.5957 15.5435L17.6221 15.5648C18.3975 16.1736 19.3871 16.5406 20.4633 16.5406C21.7423 16.5406 22.8985 16.0221 23.7354 15.1828C25.101 13.8172 26.479 12.4643 27.857 11.0988L29.686 9.30737H33.4441L33.0182 9.75836L29.0283 13.692L25.5581 17.1245C24.4984 18.1792 23.1041 18.8984 21.5481 19.1064L21.5118 19.1101C21.1785 19.1652 20.7953 19.1965 20.4057 19.1965C18.499 19.1965 16.769 18.4474 15.4898 17.2285L15.4924 17.2309C14.7971 16.6046 14.1457 15.9156 13.4755 15.2516L7.56255 9.39506C7.53124 9.36375 7.50618 9.32616 7.47485 9.28857L11.2268 9.30737Z" fill="white"/>
</g>
<defs>
<clipPath id="clip0_1407_51">
<rect width="40" height="40" fill="white" transform="translate(0.666748)"/>
</clipPath>
</defs>
</svg>
