<svg width="22" height="22" viewBox="0 0 22 22" fill="none" xmlns="http://www.w3.org/2000/svg">
<g clip-path="url(#clip0_15682_34818)">
<path d="M11 22C17.0752 22 22 17.0752 22 11C22 4.92479 17.0752 0 11 0C4.92479 0 0 4.92479 0 11C0 17.0752 4.92479 22 11 22Z" fill="#6CDE07"/>
<path d="M11.8068 16.8029V18.3062H10.4776V16.8212C8.7451 16.6837 7.4801 16.0054 6.6001 15.0704L7.68176 13.567C8.3326 14.2545 9.27676 14.8687 10.4776 15.052V11.8345C8.76343 11.4037 6.94843 10.7712 6.94843 8.5987C6.94843 6.90286 8.3326 5.5462 10.4776 5.36286V3.83203H11.8068V5.39953C13.1726 5.53703 14.2909 6.0687 15.1526 6.90286L14.0343 8.3512C13.4201 7.73703 12.6318 7.35203 11.7976 7.18703V10.0562C13.5301 10.5237 15.4001 11.1745 15.4001 13.402C15.4001 15.0979 14.3001 16.5645 11.7976 16.8029H11.8068ZM10.4776 9.70787V7.1137C9.52426 7.21453 8.94676 7.72786 8.94676 8.47953C8.94676 9.13036 9.5976 9.46036 10.4776 9.70787ZM13.4293 13.5854C13.4293 12.8154 12.7418 12.467 11.8159 12.1829V15.052C12.9618 14.887 13.4293 14.2179 13.4293 13.5854Z" fill="#1B3802"/>
</g>
<defs>
<clipPath id="clip0_15682_34818">
<rect width="22" height="22" fill="white"/>
</clipPath>
</defs>
</svg>
