<svg width="28" height="28" viewBox="0 0 28 28" fill="none" xmlns="http://www.w3.org/2000/svg">
<g clip-path="url(#clip0_8532_20283)">
<path d="M14 28C21.7321 28 28 21.7321 28 14C28 6.26792 21.7321 0 14 0C6.26792 0 0 6.26792 0 14C0 21.7321 6.26792 28 14 28Z" fill="#FFC800"/>
<path d="M23.0999 19.635V18.305L23.1115 18.3167C24.7215 18.025 25.6315 16.8933 25.6315 15.3533C25.6315 13.4283 24.0099 12.8333 22.7965 12.39C21.9682 12.0867 21.4315 11.83 21.4315 11.3167C21.4315 10.885 21.7465 10.5583 22.3999 10.5583C23.0532 10.5583 23.8115 10.8033 24.4065 11.34L25.4565 9.62499C24.8265 9.07665 24.0099 8.71499 23.0999 8.58665V7.25665H21.6065V8.60999C19.9615 8.88999 19.0632 10.1033 19.0632 11.4333C19.0632 13.3749 20.6032 13.9294 21.8127 14.3646L21.9332 14.4083C22.7265 14.7117 23.2865 14.98 23.2865 15.5517C23.2865 16.0183 22.8782 16.38 22.1899 16.38C21.2799 16.38 20.4399 15.96 19.8799 15.365L18.7832 17.1383C19.4832 17.815 20.3815 18.235 21.6065 18.3517V19.635H23.0999Z" fill="#276304"/>
<path fill-rule="evenodd" clip-rule="evenodd" d="M8.10838 18.2L7.74671 16.7183H4.81838L4.45671 18.2H2.08838L4.90005 8.69168H7.67671L10.4884 18.2H8.10838ZM6.30005 10.71L5.28505 14.735H7.31505L6.30005 10.71ZM15.5634 18.2L14.3034 14.9217H13.4517V18.2H11.1417V8.69168H15.015C16.87 8.69168 18.0484 10.0333 18.0484 11.7833C18.0484 13.3933 17.22 14.21 16.5084 14.525L18.1184 18.2H15.5634ZM14.665 10.675H13.4517V12.9383H14.665C15.2834 12.9383 15.715 12.495 15.715 11.8067C15.715 11.1183 15.2717 10.6633 14.665 10.6633V10.675Z" fill="#276304"/>
</g>
<defs>
<clipPath id="clip0_8532_20283">
<rect width="28" height="28" fill="white"/>
</clipPath>
</defs>
</svg>
