<svg width="28" height="28" viewBox="0 0 28 28" fill="none" xmlns="http://www.w3.org/2000/svg">
<g clip-path="url(#clip0_8532_20287)">
<path d="M14 28C21.7321 28 28 21.7321 28 14C28 6.26792 21.7321 0 14 0C6.26792 0 0 6.26792 0 14C0 21.7321 6.26792 28 14 28Z" fill="#E9E4D2"/>
<path d="M6.69684 16.3333C5.56518 16.3333 4.90018 15.12 4.90018 13.4517C4.90018 11.7833 5.56518 10.57 6.69684 10.57C7.45518 10.57 7.96851 11.095 8.21351 11.8417L10.1152 11.025C9.66018 9.85832 8.76184 8.52832 6.70851 8.52832C4.16518 8.52832 2.55518 10.535 2.55518 13.4517C2.55518 16.3683 4.16518 18.375 6.70851 18.375C8.77351 18.375 9.68351 16.9517 10.1268 15.785L8.21351 14.9683C8.00351 15.7383 7.46684 16.3333 6.69684 16.3333ZM13.3818 8.69165H11.0718V18.2H16.4502V16.1933H13.3818V8.69165Z" fill="#0022FF"/>
<path fill-rule="evenodd" clip-rule="evenodd" d="M24.3951 11.095H25.6317V12.67H24.3601C24.0684 13.9417 23.0767 14.9217 21.3734 14.9217H19.8567V18.2H17.5467V12.67H15.9834V11.095H17.5467V8.69168H21.3734C23.1351 8.69168 24.1384 9.74168 24.3951 11.095ZM19.8684 12.9383H21.0934V12.95C21.7001 12.95 22.1317 12.5183 22.1317 11.8183C22.1317 11.1183 21.7117 10.675 21.0934 10.675H19.8684V12.9383Z" fill="#0022FF"/>
</g>
<defs>
<clipPath id="clip0_8532_20287">
<rect width="28" height="28" fill="white"/>
</clipPath>
</defs>
</svg>
