<svg width="28" height="28" viewBox="0 0 28 28" fill="none" xmlns="http://www.w3.org/2000/svg">
<g clip-path="url(#clip0_20297_1045)">
<path fill-rule="evenodd" clip-rule="evenodd" d="M14 0C21.7325 0 28 6.26747 28 14C28 21.7325 21.7325 28 14 28C6.26747 28 0 21.7325 0 14C0 6.26747 6.26747 0 14 0Z" fill="#FE0000"/>
<path fill-rule="evenodd" clip-rule="evenodd" d="M6 23H7.5V15H9.96596C11.5 15 12.5 16.5 12.5 16.5C12.5 16.5 13 17 13 18.0453V23H14.6946V18C14.604 17.2755 14.5 16.5 13.6077 15.555C13.0707 14.9862 12.0983 14.4229 11.9775 14.4229C12.6115 14.0002 13.8794 12.6477 13.8794 10.619C13.8794 8.08307 12.2039 6.36227 10.302 6.04528C8.99781 6.04528 6.89059 6.01509 6 6V23ZM7.5 8V13H10.0144C10.7498 12.9675 12.0735 11.9026 11.9968 10.5C11.9098 8.90909 10.7818 8 10.0144 8H7.5Z" fill="white"/>
<path fill-rule="evenodd" clip-rule="evenodd" d="M17.5 8H16V23H17.5V17.8471C18.2427 18.4791 19.2053 18.8604 20.2569 18.8604C22.5776 18.8604 24.4646 17.0033 24.5127 14.6941H24.5136V14.6037V12.7016H24.5135V12.7015C24.5135 10.3506 22.6077 8.44482 20.2568 8.44482C19.2052 8.44482 18.2427 8.82614 17.5 9.45803V8ZM17.5 14.6438V12.6617C17.6809 11.3008 18.846 10.2508 20.2564 10.2508C21.7921 10.2508 23.037 11.4956 23.0372 13.0312V13.0316V14.274V14.3328H23.0366C23.0053 15.8415 21.7725 17.0548 20.2564 17.0548C18.846 17.0548 17.6809 16.0048 17.5 14.6438Z" fill="white"/>
</g>
<defs>
<clipPath id="clip0_20297_1045">
<rect width="28" height="28" fill="white"/>
</clipPath>
</defs>
</svg>
