<svg width="28" height="28" viewBox="0 0 28 28" fill="none" xmlns="http://www.w3.org/2000/svg">
<g clip-path="url(#clip0_19760_3649)">
<path d="M28 14C28 21.7319 21.7319 28 14 28C6.26808 28 0 21.7319 0 14C0 6.26808 6.26808 0 14 0C21.7319 0 28 6.26808 28 14Z" fill="#943ACF"/>
<path d="M21.8402 11.5939V13.1165H19.6125L19.3608 14.5221H21.8304L21.8402 16.0448H19.0704L18.0434 21.5599H16.1934L15.1669 16.0448H12.7844L11.7582 21.5599H9.90824L8.84284 16.0448H6.16016V14.5221H8.54268L8.28116 13.1165H6.16016V11.5939H7.981L6.99316 6.43994H8.62976L9.55936 11.5939H12.2908L13.2884 6.43994H14.8284L15.758 11.5939H18.3631L19.2642 6.43994H20.8621L19.9034 11.5939H21.8402ZM14.0147 9.0949C13.9825 9.53086 13.8501 10.3639 13.6177 11.5939H14.3538C14.1276 10.3899 14.0147 9.5569 14.0147 9.0949ZM10.0827 14.5221H11.7386L12.0001 13.1165H9.83096L10.083 14.5221H10.0827ZM13.0753 14.5221H14.8959L14.6346 13.1165H13.327L13.075 14.5221H13.0753ZM16.281 14.5221H17.8597L18.1019 13.1165H16.029L16.281 14.5221ZM10.6928 17.8701C10.7636 18.2671 10.8317 18.7846 10.8961 19.4221C10.9157 19.0318 10.9832 18.5144 11.0996 17.8704L11.4482 16.0448H10.3537L10.6925 17.8704L10.6928 17.8701ZM16.9105 17.958C16.9816 18.3486 17.0429 18.8302 17.0944 19.4028C17.131 18.9054 17.1924 18.4101 17.2784 17.9188L17.608 16.0448H16.5619L16.9105 17.958Z" fill="white"/>
</g>
<defs>
<clipPath id="clip0_19760_3649">
<rect width="28" height="28" fill="white"/>
</clipPath>
</defs>
</svg>
