<svg width="28" height="28" viewBox="0 0 28 28" fill="none" xmlns="http://www.w3.org/2000/svg">
<circle cx="14" cy="14" r="14" fill="#0E2642"/>
<path d="M3 10.5469H5.91016L7.0332 14.9023L8.15137 10.5469H11.0518V17.7051H9.24512V12.2461L7.84375 17.7051H6.20801L4.81152 12.2461V17.7051H3V10.5469Z" fill="white"/>
<path d="M11.9746 10.5469H14.4111L15.6807 12.749L16.9111 10.5469H19.3232L17.0967 14.0137L19.5332 17.7051H17.0479L15.6367 15.4053L14.2207 17.7051H11.75L14.2207 13.9746L11.9746 10.5469Z" fill="white"/>
<path d="M25.6221 12.2314L23.8057 12.5195C23.7145 12.2884 23.6315 12.1289 23.5566 12.041C23.485 11.9499 23.3646 11.8587 23.1953 11.7676V13.1787C24.1849 13.4424 24.8457 13.7207 25.1777 14.0137C25.6172 14.4076 25.8369 14.9072 25.8369 15.5127C25.8369 15.8675 25.7572 16.193 25.5977 16.4893C25.4414 16.7855 25.2396 17.0329 24.9922 17.2314C24.748 17.43 24.4876 17.5749 24.2109 17.666C23.9342 17.7539 23.5957 17.806 23.1953 17.8223V18.7451H22.4824V17.8223C22.0039 17.7799 21.6149 17.7035 21.3154 17.5928C21.0192 17.4788 20.762 17.3226 20.5439 17.124C20.3291 16.9255 20.1631 16.7122 20.0459 16.4844C19.9287 16.2533 19.8408 15.9749 19.7822 15.6494L21.7549 15.4199C21.8135 15.7422 21.8916 15.9749 21.9893 16.1182C22.0902 16.2614 22.2546 16.3883 22.4824 16.499V14.7754C21.8249 14.5931 21.3577 14.4352 21.0811 14.3018C20.8076 14.1683 20.57 13.9551 20.3682 13.6621C20.1663 13.3659 20.0654 13.0062 20.0654 12.583C20.0654 12.0036 20.2673 11.5202 20.6709 11.1328C21.0778 10.7422 21.6816 10.5257 22.4824 10.4834V10H23.1953V10.4834C23.9245 10.529 24.4811 10.7015 24.8652 11.001C25.2526 11.3005 25.5049 11.7106 25.6221 12.2314ZM22.4824 11.7432C22.2741 11.8115 22.1292 11.8962 22.0479 11.9971C21.9665 12.098 21.9258 12.2168 21.9258 12.3535C21.9258 12.4967 21.9665 12.6221 22.0479 12.7295C22.1325 12.8337 22.2773 12.9215 22.4824 12.9932V11.7432ZM23.1953 16.5479C23.472 16.486 23.6738 16.3851 23.8008 16.2451C23.931 16.1019 23.9961 15.9424 23.9961 15.7666C23.9961 15.6136 23.9408 15.4736 23.8301 15.3467C23.7227 15.2165 23.5111 15.096 23.1953 14.9854V16.5479Z" fill="white"/>
</svg>
