<svg xmlns="http://www.w3.org/2000/svg" width="14" height="18" viewBox="0 0 14 18" fill="none">
  <path d="M11.8467 0.122803H2.13574C1.42461 0.122803 0.84668 0.700732 0.84668 1.41187V16.0212C0.84668 16.7324 1.42461 17.3103 2.13574 17.3103H11.8467C12.5578 17.3103 13.1357 16.7324 13.1357 16.0212V1.41187C13.1357 0.700732 12.5578 0.122803 11.8467 0.122803ZM8.06543 15.3445C8.06543 15.7011 7.77754 15.989 7.4209 15.989H6.56152C6.20488 15.989 5.91699 15.7011 5.91699 15.3445C5.91699 14.9878 6.20488 14.7 6.56152 14.7H7.4209C7.77539 14.7 8.06543 14.9878 8.06543 15.3445ZM11.8252 13.4109H2.11426V1.46558H11.8252V13.4109Z" fill="white"/>
</svg>