<svg width="52" height="45" viewBox="0 0 52 45" fill="none" xmlns="http://www.w3.org/2000/svg">
<path d="M36.4528 17.0098H36.2434C35.3881 17.0098 34.6961 16.3428 34.6961 15.5195V9.48391C34.6961 8.65718 35.3881 7.99008 36.2434 7.99008H36.4528C37.308 7.99008 38 8.65715 38 9.48391V15.5231C38 16.3428 37.3044 17.0098 36.4528 17.0098ZM32.1588 19.2524H30.4696V22.5097C30.4696 23.3329 29.774 24 28.9188 24H28.7094C27.8541 24 27.1622 23.3329 27.1622 22.5097V19.2524H24.5574V22.5097C24.5574 23.3329 23.8618 24 23.0066 24H22.7972C21.9419 24 21.2464 23.3329 21.2464 22.5097V19.2524H19.7702C18.9149 19.2524 18.2229 18.5853 18.2229 17.7621V8.6004C18.2229 8.44074 18.23 8.28104 18.2407 8.12495H33.6882C33.6989 8.28107 33.706 8.44074 33.706 8.6004V17.7585C33.706 18.5853 33.014 19.2524 32.1588 19.2524H32.1588ZM22.1408 2.35187L20.8455 0.187392C20.8171 0.141256 20.8348 0.0774025 20.8845 0.0454757L20.9448 0.013549C20.9945 -0.0148401 21.0584 0.00290673 21.0867 0.0525512L22.3891 2.23118C23.3437 1.79116 24.4119 1.54636 25.5404 1.54636H26.385C27.4674 1.54636 28.4965 1.77344 29.4192 2.1815L30.6967 0.0525219C30.7251 0.00638595 30.789 -0.0113609 30.8386 0.0135198L30.899 0.0454465C30.9486 0.0738356 30.9664 0.137689 30.938 0.187363L29.6711 2.2986C31.7187 3.29564 33.2127 5.19046 33.5995 7.44715H18.3223C18.6985 5.23303 20.1534 3.36306 22.1407 2.35181L22.1408 2.35187ZM29.4476 5.14084C29.8947 5.14084 30.2602 4.86762 30.2602 4.53052C30.2602 4.19342 29.8983 3.9202 29.4476 3.9202C29.004 3.9202 28.6385 4.19342 28.6385 4.53052C28.6385 4.86762 29.0005 5.14084 29.4476 5.14084ZM22.2685 5.20826C22.7121 5.20826 23.0776 4.93148 23.0776 4.59443C23.0776 4.25739 22.7156 3.98411 22.2685 3.98411C21.8214 3.98411 21.4594 4.25733 21.4594 4.59443C21.4594 4.93507 21.8214 5.20826 22.2685 5.20826ZM15.7566 17.0098H15.5472C14.6955 17.0098 14 16.3428 14 15.5195V9.48391C14 8.65718 14.6956 7.99008 15.5472 7.99008H15.7566C16.6119 7.99008 17.3074 8.65715 17.3074 9.48391V15.5231C17.3074 16.3428 16.6154 17.0098 15.7566 17.0098Z" fill="url(#paint0_linear_12166_99)"/>
<path d="M36.4528 17.0098H36.2434C35.3881 17.0098 34.6961 16.3428 34.6961 15.5195V9.48391C34.6961 8.65718 35.3881 7.99008 36.2434 7.99008H36.4528C37.308 7.99008 38 8.65715 38 9.48391V15.5231C38 16.3428 37.3044 17.0098 36.4528 17.0098ZM32.1588 19.2524H30.4696V22.5097C30.4696 23.3329 29.774 24 28.9188 24H28.7094C27.8541 24 27.1622 23.3329 27.1622 22.5097V19.2524H24.5574V22.5097C24.5574 23.3329 23.8618 24 23.0066 24H22.7972C21.9419 24 21.2464 23.3329 21.2464 22.5097V19.2524H19.7702C18.9149 19.2524 18.2229 18.5853 18.2229 17.7621V8.6004C18.2229 8.44074 18.23 8.28104 18.2407 8.12495H33.6882C33.6989 8.28107 33.706 8.44074 33.706 8.6004V17.7585C33.706 18.5853 33.014 19.2524 32.1588 19.2524H32.1588ZM22.1408 2.35187L20.8455 0.187392C20.8171 0.141256 20.8348 0.0774025 20.8845 0.0454757L20.9448 0.013549C20.9945 -0.0148401 21.0584 0.00290673 21.0867 0.0525512L22.3891 2.23118C23.3437 1.79116 24.4119 1.54636 25.5404 1.54636H26.385C27.4674 1.54636 28.4965 1.77344 29.4192 2.1815L30.6967 0.0525219C30.7251 0.00638595 30.789 -0.0113609 30.8386 0.0135198L30.899 0.0454465C30.9486 0.0738356 30.9664 0.137689 30.938 0.187363L29.6711 2.2986C31.7187 3.29564 33.2127 5.19046 33.5995 7.44715H18.3223C18.6985 5.23303 20.1534 3.36306 22.1407 2.35181L22.1408 2.35187ZM29.4476 5.14084C29.8947 5.14084 30.2602 4.86762 30.2602 4.53052C30.2602 4.19342 29.8983 3.9202 29.4476 3.9202C29.004 3.9202 28.6385 4.19342 28.6385 4.53052C28.6385 4.86762 29.0005 5.14084 29.4476 5.14084ZM22.2685 5.20826C22.7121 5.20826 23.0776 4.93148 23.0776 4.59443C23.0776 4.25739 22.7156 3.98411 22.2685 3.98411C21.8214 3.98411 21.4594 4.25733 21.4594 4.59443C21.4594 4.93507 21.8214 5.20826 22.2685 5.20826ZM15.7566 17.0098H15.5472C14.6955 17.0098 14 16.3428 14 15.5195V9.48391C14 8.65718 14.6956 7.99008 15.5472 7.99008H15.7566C16.6119 7.99008 17.3074 8.65715 17.3074 9.48391V15.5231C17.3074 16.3428 16.6154 17.0098 15.7566 17.0098Z" fill="#071824"/>
<path d="M3.8386 30.004H5.7006L9.5226 40H7.7726L6.8626 37.494H2.6766L1.7666 40H0.0166016L3.8386 30.004ZM3.1666 36.15H6.3726L4.8046 31.768H4.7486L3.1666 36.15ZM14.0966 32.566C15.9026 32.566 16.8126 33.546 16.8126 35.534V40H15.2166V35.674C15.2166 34.484 14.6706 33.896 13.5786 33.896C13.1866 33.896 12.8366 34.036 12.5426 34.316C12.2066 34.624 12.0106 35.072 11.9546 35.646V40H10.3586V32.762H11.9546V33.602C12.2346 33.266 12.5566 33 12.9066 32.832C13.2706 32.65 13.6626 32.566 14.0966 32.566ZM23.6453 29.808H25.2413V40H23.7573V39.23C23.2533 39.874 22.5253 40.196 21.5733 40.196C20.4953 40.196 19.6553 39.818 19.0533 39.062C18.4933 38.362 18.2133 37.452 18.2133 36.346C18.2133 35.282 18.4793 34.4 19.0393 33.7C19.6273 32.944 20.4533 32.566 21.4893 32.566C22.3293 32.566 23.0433 32.958 23.6453 33.756V29.808ZM21.8673 33.854C21.1393 33.854 20.6213 34.092 20.2853 34.568C19.9913 34.974 19.8513 35.562 19.8513 36.346C19.8513 37.13 19.9773 37.732 20.2573 38.152C20.5793 38.656 21.0973 38.908 21.8113 38.908C22.4273 38.908 22.9173 38.656 23.2533 38.166C23.5473 37.718 23.7013 37.13 23.7013 36.43V36.318C23.7013 35.548 23.5053 34.932 23.1413 34.484C22.8053 34.064 22.3713 33.854 21.8673 33.854ZM30.3312 32.566C30.6812 32.566 30.9892 32.622 31.2412 32.748V34.344C30.8772 34.232 30.5412 34.19 30.2052 34.19C29.7852 34.19 29.4072 34.344 29.0712 34.68C28.6792 35.058 28.4972 35.548 28.4972 36.164V40H26.9152V32.762H28.4972V33.798C28.6932 33.434 28.9172 33.154 29.1832 32.958C29.5052 32.692 29.8832 32.566 30.3312 32.566ZM35.5115 32.566C36.6035 32.566 37.4855 32.916 38.1575 33.644C38.8155 34.358 39.1515 35.268 39.1515 36.388C39.1515 37.494 38.8155 38.404 38.1715 39.104C37.4995 39.832 36.6035 40.196 35.5115 40.196C34.4055 40.196 33.5235 39.832 32.8515 39.104C32.1935 38.404 31.8715 37.494 31.8715 36.388C31.8715 35.268 32.1935 34.358 32.8655 33.644C33.5235 32.916 34.4055 32.566 35.5115 32.566ZM35.5115 33.868C34.8395 33.868 34.3355 34.12 33.9715 34.652C33.6635 35.1 33.5095 35.688 33.5095 36.388C33.5095 37.088 33.6635 37.662 33.9715 38.11C34.3355 38.628 34.8395 38.894 35.5115 38.894C36.1695 38.894 36.6875 38.628 37.0515 38.11C37.3595 37.648 37.5275 37.074 37.5275 36.388C37.5275 35.688 37.3595 35.1 37.0515 34.652C36.6875 34.12 36.1695 33.868 35.5115 33.868ZM41.6241 29.808C41.9321 29.808 42.1981 29.906 42.4081 30.102C42.6041 30.298 42.7161 30.55 42.7161 30.858C42.7161 31.166 42.6041 31.432 42.3941 31.628C42.1841 31.824 41.9321 31.922 41.6241 31.922C41.3161 31.922 41.0641 31.824 40.8541 31.628C40.6441 31.418 40.5461 31.166 40.5461 30.858C40.5461 30.55 40.6441 30.298 40.8541 30.102C41.0641 29.906 41.3161 29.808 41.6241 29.808ZM40.8261 32.762H42.4221V40H40.8261V32.762ZM49.5535 29.808H51.1495V40H49.6655V39.23C49.1615 39.874 48.4335 40.196 47.4815 40.196C46.4035 40.196 45.5635 39.818 44.9615 39.062C44.4015 38.362 44.1215 37.452 44.1215 36.346C44.1215 35.282 44.3875 34.4 44.9475 33.7C45.5355 32.944 46.3615 32.566 47.3975 32.566C48.2375 32.566 48.9515 32.958 49.5535 33.756V29.808ZM47.7755 33.854C47.0475 33.854 46.5295 34.092 46.1935 34.568C45.8995 34.974 45.7595 35.562 45.7595 36.346C45.7595 37.13 45.8855 37.732 46.1655 38.152C46.4875 38.656 47.0055 38.908 47.7195 38.908C48.3355 38.908 48.8255 38.656 49.1615 38.166C49.4555 37.718 49.6095 37.13 49.6095 36.43V36.318C49.6095 35.548 49.4135 34.932 49.0495 34.484C48.7135 34.064 48.2795 33.854 47.7755 33.854Z" fill="#071824"/>
<defs>
<linearGradient id="paint0_linear_12166_99" x1="26" y1="0" x2="26" y2="24" gradientUnits="userSpaceOnUse">
<stop stop-color="#81A8C5"/>
<stop offset="1" stop-color="#537084"/>
</linearGradient>
</defs>
</svg>
