<svg width="52" height="44" viewBox="0 0 52 44" fill="none" xmlns="http://www.w3.org/2000/svg">
<g filter="url(#filter0_d_12166_87)">
<path d="M28.9661 4.46985C30.2075 2.89424 29.921 1.17539 29.8256 1.03216C29.6823 0.888918 27.8202 1.17539 26.5311 2.89424C25.3852 4.46985 25.3852 6.1887 25.5284 6.33193C25.6717 6.47517 27.5338 6.33193 28.9661 4.46985Z" fill="url(#paint0_linear_12166_87)"/>
<path d="M28.9661 4.46985C30.2075 2.89424 29.921 1.17539 29.8256 1.03216C29.6823 0.888918 27.8202 1.17539 26.5311 2.89424C25.3852 4.46985 25.3852 6.1887 25.5284 6.33193C25.6717 6.47517 27.5338 6.33193 28.9661 4.46985Z" fill="#071824"/>
</g>
<g filter="url(#filter1_d_12166_87)">
<path d="M32.0698 12.491C31.9266 10.1992 34.0752 8.76684 34.5049 8.48037V8.33713C34.5049 8.33713 32.6428 6.04534 29.9213 6.18857C28.2024 6.33181 27.343 7.19123 26.1971 7.19123C24.7647 7.19123 23.4756 6.18857 21.9 6.18857C20.6109 6.18857 16.8867 7.33447 16.6002 12.2045C16.3615 17.0746 19.7992 21.6104 21.0883 22.4699C22.3774 23.3293 23.2369 23.0428 24.6692 22.3266C25.3854 21.8969 27.6772 21.7537 28.9664 22.6131C30.542 23.1861 32.8338 22.7563 35.412 17.0269C35.0778 17.0746 32.2131 16.3584 32.0698 12.491Z" fill="url(#paint1_linear_12166_87)"/>
<path d="M32.0698 12.491C31.9266 10.1992 34.0752 8.76684 34.5049 8.48037V8.33713C34.5049 8.33713 32.6428 6.04534 29.9213 6.18857C28.2024 6.33181 27.343 7.19123 26.1971 7.19123C24.7647 7.19123 23.4756 6.18857 21.9 6.18857C20.6109 6.18857 16.8867 7.33447 16.6002 12.2045C16.3615 17.0746 19.7992 21.6104 21.0883 22.4699C22.3774 23.3293 23.2369 23.0428 24.6692 22.3266C25.3854 21.8969 27.6772 21.7537 28.9664 22.6131C30.542 23.1861 32.8338 22.7563 35.412 17.0269C35.0778 17.0746 32.2131 16.3584 32.0698 12.491Z" fill="#071824"/>
</g>
<path d="M4.31887 29.0039H5.95687V38.9999H4.31887V29.0039ZM7.91457 29.0039H12.0586C14.4666 29.0039 15.6846 30.0259 15.6846 32.0699C15.6846 34.1279 14.4666 35.1639 12.0306 35.1639H9.55257V38.9999H7.91457V29.0039ZM9.55257 30.4039V33.7639H11.9326C12.6606 33.7639 13.1926 33.6239 13.5286 33.3719C13.8646 33.1059 14.0326 32.6719 14.0326 32.0699C14.0326 31.4679 13.8506 31.0479 13.5146 30.7959C13.1786 30.5299 12.6466 30.4039 11.9326 30.4039H9.55257ZM16.9484 28.8079H18.5444V32.7279C18.8104 32.3219 19.1464 32.0279 19.5384 31.8319C19.8884 31.6499 20.2944 31.5659 20.7564 31.5659C21.6384 31.5659 22.2964 31.8179 22.7304 32.3359C23.1364 32.8259 23.3464 33.5539 23.3464 34.5199V38.9999H21.7504V34.7999C21.7504 34.1839 21.6244 33.7079 21.3864 33.3859C21.1064 33.0359 20.7004 32.8679 20.1544 32.8679C19.6504 32.8679 19.2584 33.0639 18.9784 33.4559C18.6844 33.8479 18.5444 34.3379 18.5444 34.9539V38.9999H16.9484V28.8079ZM28.3885 31.5659C29.4805 31.5659 30.3625 31.9159 31.0345 32.6439C31.6925 33.3579 32.0285 34.2679 32.0285 35.3879C32.0285 36.4939 31.6925 37.4039 31.0485 38.1039C30.3765 38.8319 29.4805 39.1959 28.3885 39.1959C27.2825 39.1959 26.4005 38.8319 25.7285 38.1039C25.0705 37.4039 24.7485 36.4939 24.7485 35.3879C24.7485 34.2679 25.0705 33.3579 25.7425 32.6439C26.4005 31.9159 27.2825 31.5659 28.3885 31.5659ZM28.3885 32.8679C27.7165 32.8679 27.2125 33.1199 26.8485 33.6519C26.5405 34.0999 26.3865 34.6879 26.3865 35.3879C26.3865 36.0879 26.5405 36.6619 26.8485 37.1099C27.2125 37.6279 27.7165 37.8939 28.3885 37.8939C29.0465 37.8939 29.5645 37.6279 29.9285 37.1099C30.2365 36.6479 30.4045 36.0739 30.4045 35.3879C30.4045 34.6879 30.2365 34.0999 29.9285 33.6519C29.5645 33.1199 29.0465 32.8679 28.3885 32.8679ZM37.161 31.5659C38.967 31.5659 39.877 32.5459 39.877 34.5339V38.9999H38.281V34.6739C38.281 33.4839 37.735 32.8959 36.643 32.8959C36.251 32.8959 35.901 33.0359 35.607 33.3159C35.271 33.6239 35.075 34.0719 35.019 34.6459V38.9999H33.423V31.7619H35.019V32.6019C35.299 32.2659 35.621 31.9999 35.971 31.8319C36.335 31.6499 36.727 31.5659 37.161 31.5659ZM44.6378 31.5659C45.8278 31.5659 46.7378 31.9579 47.3678 32.7699C47.9418 33.4979 48.2358 34.5199 48.2358 35.8219H42.8178C42.8738 36.4939 43.0558 37.0119 43.3638 37.3619C43.6718 37.7119 44.1198 37.8939 44.6938 37.8939C45.1838 37.8939 45.5758 37.7819 45.8838 37.5579C46.1218 37.3759 46.3318 37.0819 46.5278 36.6759H48.1238C47.9558 37.3479 47.6198 37.9219 47.1158 38.3699C46.4718 38.9159 45.6738 39.1959 44.7078 39.1959C43.6298 39.1959 42.7758 38.8599 42.1458 38.2019C41.4738 37.5159 41.1378 36.5779 41.1378 35.3739C41.1378 34.2959 41.4458 33.3999 42.0898 32.6719C42.7058 31.9299 43.5598 31.5659 44.6378 31.5659ZM44.6798 32.8679C44.1478 32.8679 43.7418 33.0079 43.4338 33.3159C43.1398 33.6099 42.9438 34.0439 42.8458 34.6179H46.5698C46.4298 33.4419 45.7998 32.8679 44.6798 32.8679Z" fill="#071824"/>
<defs>
<filter id="filter0_d_12166_87" x="22.4634" y="0" width="10.4595" height="11.3732" filterUnits="userSpaceOnUse" color-interpolation-filters="sRGB">
<feFlood flood-opacity="0" result="BackgroundImageFix"/>
<feColorMatrix in="SourceAlpha" type="matrix" values="0 0 0 0 0 0 0 0 0 0 0 0 0 0 0 0 0 0 127 0" result="hardAlpha"/>
<feOffset dy="2"/>
<feGaussianBlur stdDeviation="1.5"/>
<feComposite in2="hardAlpha" operator="out"/>
<feColorMatrix type="matrix" values="0 0 0 0 1 0 0 0 0 1 0 0 0 0 1 0 0 0 0.39 0"/>
<feBlend mode="normal" in2="BackgroundImageFix" result="effect1_dropShadow_12166_87"/>
<feBlend mode="normal" in="SourceGraphic" in2="effect1_dropShadow_12166_87" result="shape"/>
</filter>
<filter id="filter1_d_12166_87" x="13.5884" y="5.18213" width="24.8237" height="22.8177" filterUnits="userSpaceOnUse" color-interpolation-filters="sRGB">
<feFlood flood-opacity="0" result="BackgroundImageFix"/>
<feColorMatrix in="SourceAlpha" type="matrix" values="0 0 0 0 0 0 0 0 0 0 0 0 0 0 0 0 0 0 127 0" result="hardAlpha"/>
<feOffset dy="2"/>
<feGaussianBlur stdDeviation="1.5"/>
<feComposite in2="hardAlpha" operator="out"/>
<feColorMatrix type="matrix" values="0 0 0 0 1 0 0 0 0 1 0 0 0 0 1 0 0 0 0.39 0"/>
<feBlend mode="normal" in2="BackgroundImageFix" result="effect1_dropShadow_12166_87"/>
<feBlend mode="normal" in="SourceGraphic" in2="effect1_dropShadow_12166_87" result="shape"/>
</filter>
<linearGradient id="paint0_linear_12166_87" x1="27.6932" y1="1" x2="27.6932" y2="6.37314" gradientUnits="userSpaceOnUse">
<stop stop-color="#81A8C5"/>
<stop offset="1" stop-color="#537084"/>
</linearGradient>
<linearGradient id="paint1_linear_12166_87" x1="26.0002" y1="6.18213" x2="26.0002" y2="22.9999" gradientUnits="userSpaceOnUse">
<stop stop-color="#81A8C5"/>
<stop offset="1" stop-color="#537084"/>
</linearGradient>
</defs>
</svg>
