<svg width="22" height="22" viewBox="0 0 22 22" fill="none" xmlns="http://www.w3.org/2000/svg">
<g clip-path="url(#clip0_11958_4246)">
<path d="M11.1001 17.3564C11.2077 17.3564 11.317 17.3498 11.4272 17.3367C12.4833 17.21 13.3801 16.4718 13.7111 15.4545C13.7361 15.3784 13.7 15.2969 13.6272 15.2635C13.5552 15.2299 13.468 15.2589 13.4272 15.3272C13.4234 15.3337 13.0038 16.0114 11.3702 16.232C11.1257 16.2649 10.8877 16.2821 10.6622 16.2821C9.51767 16.2813 9.00766 15.85 9.00298 15.846C8.94539 15.7948 8.85749 15.7934 8.79845 15.8433C8.73883 15.8932 8.7251 15.9799 8.76576 16.0463C9.26399 16.854 10.158 17.3564 11.1001 17.3564ZM19.8838 7.23237C19.8694 7.23237 19.8562 7.23501 19.8425 7.23501C18.8854 3.09115 15.2281 0 10.8431 0C6.33756 0 2.59633 3.26185 1.7671 7.57722C0.960843 7.72231 0.347168 8.43097 0.347168 9.28799V12.718C0.347168 13.6794 1.11809 14.459 2.06997 14.459C2.60691 14.459 3.08085 14.2054 3.39612 13.816C4.15791 15.8308 5.70875 17.4554 7.67141 18.3125C7.67609 18.3023 7.71324 18.23 7.75796 18.1725C7.78886 18.1325 7.82349 18.0998 7.85319 18.0998C7.88397 18.0998 7.91223 18.111 7.93639 18.1281C7.48215 17.7899 5.84137 16.0515 5.48597 13.6255C5.33004 12.5578 6.1298 11.5096 7.06124 11.3362C8.55656 11.0578 10.0441 10.7406 11.5394 10.4674C12.4899 10.2941 13.1395 9.77263 13.5368 8.90445C13.6298 8.70149 13.7642 8.29114 13.8259 7.69935C13.8423 7.61135 13.9144 7.54379 14.0069 7.54379C14.0686 7.54379 14.121 7.57528 14.1557 7.62062L14.197 7.59501C14.7863 8.45067 15.9551 10.3453 16.1229 12.343C16.3157 14.6271 16.2082 16.1914 14.4599 17.7918C14.4578 17.7938 14.4552 17.7964 14.4527 17.7984C14.4284 17.8246 14.414 17.8588 14.414 17.8963C14.414 17.9455 14.4402 17.9875 14.4782 18.0131C14.4926 18.0191 14.507 18.027 14.5215 18.0329C14.5332 18.0355 14.5444 18.0394 14.5562 18.0394C14.5681 18.0394 14.5786 18.0355 14.589 18.0329C14.6139 18.0198 14.6375 18.0046 14.6618 17.9915C16.4298 17.0175 17.7861 15.3909 18.4128 13.4345C18.6666 13.8114 19.0638 14.0827 19.5252 14.1773C18.7851 17.5435 15.7828 19.6503 12.0632 19.9701C11.8403 19.4172 11.2916 19.0245 10.6471 19.0245C9.80552 19.0245 9.12308 19.6911 9.12308 20.5126C9.12308 21.3342 9.80539 22 10.6471 22C11.3257 22 11.894 21.564 12.0913 20.9651C16.3969 20.6151 19.8484 18.0558 20.569 14.0794C21.2055 13.8134 21.6525 13.1889 21.6525 12.4599V8.98921C21.6525 8.01918 20.8605 7.23237 19.8838 7.23237ZM18.2954 8.22934C17.1724 5.18737 14.2625 3.0143 10.8393 3.0143C7.43035 3.0143 4.53086 5.16896 3.39745 8.19123C3.34106 8.12222 3.27491 8.06319 3.21 8.00342C3.85165 4.3205 7.02132 1.52031 10.8431 1.52031C14.6466 1.52031 17.8064 4.29296 18.4691 7.95029C18.4036 8.03829 18.3433 8.13013 18.2954 8.22934ZM7.67166 18.3125C7.67153 18.3125 7.67153 18.3125 7.67141 18.3125C7.6707 18.3141 7.6707 18.3143 7.67166 18.3125Z" fill="white"/>
</g>
<defs>
<clipPath id="clip0_11958_4246">
<rect width="22" height="22" fill="white"/>
</clipPath>
</defs>
</svg>
