<svg width="20" height="15" viewBox="0 0 20 15" fill="none" xmlns="http://www.w3.org/2000/svg">
<path d="M19.7773 12.3333L19.1107 3.44436C18.9995 1.66659 17.5551 0.333252 15.7773 0.333252H13.1107C12.5551 0.333252 12.1107 0.444363 11.7773 0.888807C11.3329 1.22214 10.8884 1.44436 10.3329 1.44436H9.66621C9.11065 1.44436 8.66621 1.22214 8.33287 0.888807C7.99954 0.444363 7.44398 0.333252 6.88843 0.333252H4.22176C2.44398 0.333252 0.999539 1.66659 0.888428 3.44436L0.221761 12.3333C0.11065 13.111 0.443983 13.8888 1.22176 14.2221C1.88843 14.5555 2.55509 14.4444 3.11065 13.9999L6.11065 11.7777C6.44398 11.5555 6.88843 11.4444 7.44398 11.4444H12.5551C12.9995 11.4444 13.5551 11.5555 13.8884 11.8888L16.8884 14.111C17.444 14.5555 18.2218 14.5555 18.7773 14.3333C19.5551 13.8888 19.8884 13.111 19.7773 12.3333ZM5.55509 9.22214C3.66621 9.22214 2.22176 7.7777 2.22176 5.88881C2.22176 3.99992 3.66621 2.55547 5.55509 2.55547C7.44398 2.55547 8.88843 3.99992 8.88843 5.88881C8.88843 7.7777 7.44398 9.22214 5.55509 9.22214ZM14.444 2.55547C15.1107 2.55547 15.5551 2.99992 15.5551 3.66659C15.5551 4.33325 15.1107 4.7777 14.444 4.7777C13.7773 4.7777 13.3329 4.33325 13.3329 3.66659C13.3329 2.99992 13.7773 2.55547 14.444 2.55547ZM12.2218 6.99992C11.5551 6.99992 11.1107 6.55547 11.1107 5.88881C11.1107 5.22214 11.5551 4.7777 12.2218 4.7777C12.8884 4.7777 13.3329 5.22214 13.3329 5.88881C13.3329 6.55547 12.8884 6.99992 12.2218 6.99992ZM14.444 9.22214C13.7773 9.22214 13.3329 8.7777 13.3329 8.11103C13.3329 7.44436 13.7773 6.99992 14.444 6.99992C15.1107 6.99992 15.5551 7.44436 15.5551 8.11103C15.5551 8.7777 15.1107 9.22214 14.444 9.22214ZM16.6662 6.99992C15.9995 6.99992 15.5551 6.55547 15.5551 5.88881C15.5551 5.22214 15.9995 4.7777 16.6662 4.7777C17.3329 4.7777 17.7773 5.22214 17.7773 5.88881C17.7773 6.55547 17.3329 6.99992 16.6662 6.99992Z" fill="currentColor"/>
</svg>
