<svg width="36" height="36" viewBox="0 0 36 36" fill="none" xmlns="http://www.w3.org/2000/svg">
<path d="M12.9785 16.3379L19.1113 21.8223L11.9238 32.5752H2C0.895561 32.5752 0.000211326 31.6796 0 30.5752V6.6748C0 5.57024 0.895431 4.6748 2 4.6748H21.1963L12.9785 16.3379ZM34 4.6748C35.1046 4.67481 36 5.57024 36 6.6748V30.5752C35.9998 31.6796 35.1044 32.5752 34 32.5752H15.0684L24.2207 20.8252L16.0449 15.8389L23.0576 4.6748H34Z" fill="#9DABC8"/>
<path d="M13.9434 14.9658C13.0796 14.5821 12.1769 14.4206 11.249 14.5752C7.74507 15.1592 4.39862 19.5323 2.69922 22.6045V9.375C2.69922 8.27043 3.59465 7.375 4.69922 7.375H19.293L13.9434 14.9658ZM31.2988 7.375C32.4034 7.375 33.2988 8.27043 33.2988 9.375V21.8779C31.5561 20.0733 29.624 18.625 27.8984 18.625C26.3938 18.6252 24.7832 19.3629 23.502 20.3877L16.0439 15.8398L21.3613 7.375H31.2988Z" fill="white"/>
</svg>
