<svg xmlns="http://www.w3.org/2000/svg" width="16" height="16" viewBox="0 0 16 16" fill="none">
<path fill-rule="evenodd" clip-rule="evenodd" d="M1.33203 8.00094C1.33203 6.73994 4.31603 3.96094 7.99853 3.96094C11.681 3.96094 14.665 6.68744 14.665 8.00094C14.665 9.31444 11.681 12.0379 7.99853 12.0379C4.31603 12.0379 1.33203 9.26194 1.33203 8.00094ZM7.99503 10.9719H7.99853C8.3886 10.972 8.77486 10.8952 9.13525 10.746C9.49565 10.5968 9.82312 10.378 10.099 10.1022C10.3748 9.82643 10.5936 9.49899 10.7429 9.13862C10.8922 8.77825 10.969 8.392 10.969 8.00194V7.99794C10.969 7.40974 10.7946 6.83474 10.4678 6.34567C10.141 5.8566 9.67656 5.47541 9.13313 5.25032C8.5897 5.02522 7.99173 4.96633 7.41483 5.08108C6.83793 5.19583 6.30802 5.47908 5.8921 5.895C5.47617 6.31092 5.19293 6.84084 5.07818 7.41774C4.96342 7.99464 5.02232 8.59261 5.24741 9.13604C5.47251 9.67947 5.85369 10.1439 6.34277 10.4707C6.83184 10.7975 7.40683 10.9719 7.99503 10.9719ZM8.31003 6.40544C8.22095 6.54605 8.17346 6.70899 8.17303 6.87544V6.88144C8.17355 7.05659 8.22609 7.22763 8.32398 7.37287C8.42187 7.51811 8.5607 7.631 8.72285 7.69721C8.885 7.76342 9.06317 7.77997 9.23475 7.74476C9.40632 7.70955 9.56356 7.62416 9.68653 7.49944L9.68303 7.48794C9.79279 7.80813 9.798 8.15492 9.69792 8.47827C9.59784 8.80162 9.39764 9.08482 9.1262 9.28704C8.85476 9.48925 8.5261 9.60001 8.18763 9.60336C7.84916 9.6067 7.51838 9.50245 7.24299 9.30564C6.96761 9.10883 6.76185 8.82964 6.6554 8.50833C6.54895 8.18702 6.54731 7.8402 6.65072 7.5179C6.75413 7.1956 6.95724 6.91447 7.23075 6.71507C7.50426 6.51566 7.83405 6.40829 8.17253 6.40844H8.30753L8.31003 6.40494V6.40544Z" fill="currentColor"/>
</svg>
