<svg xmlns="http://www.w3.org/2000/svg" width="16" height="17" viewBox="0 0 16 17" fill="none">
  <path d="M3.52543 3.27934C3.89788 2.90689 4.50174 2.90689 4.87419 3.27934L12.9668 11.3719C13.3392 11.7444 13.3392 12.3482 12.9668 12.7207C12.5943 13.0931 11.9904 13.0931 11.618 12.7207L3.52543 4.6281C3.15298 4.25565 3.15298 3.65179 3.52543 3.27934Z" fill="currentColor"/>
  <path d="M12.9668 3.27934C12.5943 2.90689 11.9904 2.90689 11.618 3.27934L3.52543 11.3719C3.15298 11.7444 3.15298 12.3482 3.52543 12.7207C3.89788 13.0931 4.50174 13.0931 4.87419 12.7207L12.9668 4.6281C13.3392 4.25565 13.3392 3.65179 12.9668 3.27934Z" fill="currentColor"/>
</svg>
