<svg width="14" height="14" viewBox="0 0 14 14" fill="none" xmlns="http://www.w3.org/2000/svg">
<path d="M10.1145 2.37025C9.22073 2.37071 8.50634 2.74532 8.07724 3.31256L7.54581 4.0162L7 4.73733L6.45419 4.0162L5.92276 3.31256C5.49349 2.7451 4.77871 2.37042 3.88443 2.37025C3.21591 2.37124 2.57629 2.63509 2.10514 3.1027C1.63402 3.57042 1.37 4.20377 1.36916 4.86284C1.36996 6.39646 2.56282 8.00677 4.17533 9.40874C5.19578 10.2959 6.23654 10.9707 6.85095 11.3407L12.6185 4.62212C12.562 4.05113 12.3083 3.51319 11.8949 3.1027C11.4235 2.63495 10.7833 2.37108 10.1145 2.37025ZM14 4.86181C13.9995 7.04086 12.3731 9.00708 10.722 10.4426C9.22749 11.742 7.70567 12.6118 7.32893 12.8189L7 13L6.67107 12.8189C6.29433 12.6118 4.77251 11.742 3.27797 10.4426C1.62679 9.00702 0.000259693 7.04101 0 4.86181V4.86078C0.00129779 3.83559 0.41248 2.85382 1.14097 2.13056C1.86931 1.40749 2.85573 1.00126 3.88341 1H3.88443C5.16647 1.00017 6.29222 1.54443 7 2.46798C7.70778 1.54443 8.83352 1.00017 10.1156 1H10.1166C10.9142 1.00098 11.6863 1.24689 12.3327 1.69438L12.3482 1.68101L12.4294 1.76228C12.5805 1.87382 12.7242 1.99674 12.859 2.13056C13.0066 2.27705 13.1402 2.43478 13.2609 2.60069L13.3123 2.65315L13.3031 2.66138C13.7512 3.30267 13.999 4.06819 14 4.86078V4.86181Z" fill="white"/>
</svg>
