<svg xmlns="http://www.w3.org/2000/svg" width="20" height="20" viewBox="0 0 20 20" fill="none">
  <g clip-path="url(#clip0_210_809)">
    <circle opacity="0.5" cx="10" cy="10" r="10" fill="black"/>
    <path d="M6.22347 6.22347C6.52143 5.92551 7.00452 5.92551 7.30248 6.22347L13.7765 12.6975C14.0745 12.9955 14.0745 13.4786 13.7765 13.7765C13.4786 14.0745 12.9955 14.0745 12.6975 13.7765L6.22347 7.30248C5.92551 7.00452 5.92551 6.52143 6.22347 6.22347Z" fill="currentColor"/>
    <path d="M14.1692 6.22347C13.8713 5.92551 13.3882 5.92551 13.0902 6.22347L6.61619 12.6975C6.31823 12.9955 6.31823 13.4786 6.61619 13.7765C6.91415 14.0745 7.39724 14.0745 7.6952 13.7765L14.1692 7.30248C14.4672 7.00452 14.4672 6.52143 14.1692 6.22347Z" fill="currentColor"/>
  </g>
  <defs>
    <clipPath id="clip0_210_809">
      <rect width="20" height="20" fill="currentColor"/>
    </clipPath>
  </defs>
</svg>
