<svg width="11" height="11" viewBox="0 0 11 11" fill="none" xmlns="http://www.w3.org/2000/svg">
<path d="M0.525431 0.779337C0.897881 0.406888 1.50174 0.406888 1.87419 0.779338L9.96676 8.8719C10.3392 9.24435 10.3392 9.84821 9.96676 10.2207C9.59431 10.5931 8.99045 10.5931 8.618 10.2207L0.525431 2.1281C0.152981 1.75565 0.152981 1.15179 0.525431 0.779337Z" fill="#9DABC8"/>
<path d="M9.96676 0.779337C9.59431 0.406888 8.99045 0.406888 8.618 0.779338L0.525431 8.8719C0.152981 9.24435 0.152981 9.84821 0.525431 10.2207C0.897881 10.5931 1.50174 10.5931 1.87419 10.2207L9.96676 2.1281C10.3392 1.75565 10.3392 1.15179 9.96676 0.779337Z" fill="#9DABC8"/>
</svg>
