<svg xmlns="http://www.w3.org/2000/svg" width="24" height="24" viewBox="0 0 24 24" fill="none">
  <path d="M21.5573 10.4983L13.0418 2.75386C12.6119 2.2753 11.9895 2 11.3302 2C10.6814 2 10.0591 2.27273 9.64765 2.72556L1.44853 10.4957C1.03976 10.9048 0.921088 11.4966 1.14789 12.024C1.37469 12.5515 1.8995 12.8808 2.48496 12.8808H3.22338V20.7796C3.22338 22.0043 4.22816 23 5.48348 23H9.00417C9.46041 23 9.86654 22.6398 9.86654 22.1947V16.9383C9.86654 16.7144 10.0169 16.5163 10.2463 16.5163H12.7306C12.96 16.5163 13.1341 16.717 13.1341 16.9383V22.1921C13.1341 22.6398 13.5165 22.9974 13.9727 22.9974H17.4934C18.7487 22.9974 19.7772 22.0043 19.7772 20.777V12.8782H20.513C21.0958 12.8782 21.6206 12.5489 21.8474 12.024C22.0795 11.5017 21.9635 10.9074 21.5573 10.4983Z" fill="currentColor"/>
</svg>
