<svg width="18" height="18" viewBox="0 0 18 18" fill="none" xmlns="http://www.w3.org/2000/svg">
<path d="M9 0C4.041 0 0 4.041 0 9C0 13.959 4.041 18 9 18C13.959 18 18 13.959 18 9C18 4.041 13.959 0 9 0ZM9.9 14.4H8.1V12.969H9.9V14.4ZM11.628 8.973L10.854 9.765C10.305 10.323 10.017 10.638 9.945 11.7L8.136 11.673C8.136 10.728 8.523 9.963 9.144 9.333L10.206 8.253C10.3672 8.09465 10.4949 7.90547 10.5815 7.69673C10.6681 7.488 10.7118 7.26397 10.71 7.038C10.7085 6.58256 10.5269 6.14621 10.2048 5.82417C9.88279 5.50212 9.44644 5.32053 8.991 5.319C8.127 5.319 7.407 6.165 7.29 7.038H5.571C5.697 5.238 7.173 3.6 8.991 3.6C10.809 3.6 12.429 5.139 12.429 7.038C12.429 7.794 12.123 8.478 11.628 8.973Z" fill="currentColor"/>
</svg>
