<svg xmlns="http://www.w3.org/2000/svg" width="14" height="14" viewBox="0 0 14 14" fill="none">
  <g clip-path="url(#clip0_33342_1055)">
    <path d="M3.06298 0.0196332C2.69634 0.0601667 2.49183 0.119124 2.17677 0.277574C1.58535 0.572363 1.12106 1.15641 0.968137 1.79389C0.958925 1.83443 0.942343 1.90813 0.931289 1.95971C0.90181 2.09053 0.90181 11.9254 0.931289 12.0562C0.993932 12.3437 1.03999 12.4855 1.13211 12.6735C1.44164 13.3146 2.06991 13.8065 2.74977 13.9429C2.81057 13.9558 2.88611 13.9724 2.91743 13.9834C2.99113 14.0055 8.1831 14.0055 8.22732 13.9834C8.2439 13.9742 8.28996 13.9521 8.32865 13.9355C8.52579 13.8489 8.67134 13.5633 8.61791 13.3588C8.56817 13.1654 8.47789 13.0493 8.3047 12.9572C8.24205 12.924 8.13704 12.9222 5.62396 12.913L3.00771 12.9019L2.87874 12.8577C2.46051 12.714 2.17309 12.4229 2.03859 12.0102L1.99437 11.872V2.14396L2.03859 2.00577C2.18967 1.54517 2.51946 1.23932 2.98744 1.13246C3.09799 1.10667 3.52359 1.10298 6.81786 1.10298C10.7514 1.10298 10.6077 1.0993 10.8565 1.18589C10.9081 1.20432 10.9707 1.2338 10.9983 1.25222C11.0241 1.27249 11.0536 1.28723 11.0628 1.28723C11.0978 1.28723 11.3189 1.48621 11.3945 1.58386C11.481 1.69625 11.5253 1.77547 11.5732 1.89523C11.6598 2.11079 11.6579 2.03525 11.6579 5.23003C11.6579 8.51693 11.6524 8.33821 11.7611 8.49482C11.833 8.59615 11.9306 8.66248 12.0798 8.71038C12.172 8.73986 12.2641 8.73433 12.3709 8.69564C12.522 8.64037 12.6105 8.56667 12.6934 8.42665L12.7357 8.35295V5.18397C12.7357 2.65615 12.7302 1.99472 12.7118 1.91365C12.5902 1.39961 12.4096 1.06245 12.0633 0.71423C11.6377 0.284943 11.2102 0.0896456 10.5433 0.0177908C10.3166 -0.00800325 3.28407 -0.00431839 3.06298 0.0196332Z" fill="currentColor"/>
    <path d="M3.76311 3.44655C3.62492 3.4963 3.49227 3.62711 3.42594 3.78004C3.41304 3.80767 3.40383 3.88874 3.40383 3.95875C3.40383 4.17616 3.50885 4.3475 3.70783 4.45252L3.79995 4.50227H9.80628L9.90393 4.45805C10.0089 4.41015 10.1213 4.29776 10.1766 4.18353C10.195 4.14484 10.2135 4.06008 10.2171 3.98639C10.2227 3.87953 10.2171 3.84084 10.1785 3.7524C10.1121 3.60132 10.0034 3.49999 9.85234 3.4484C9.76575 3.41708 3.84786 3.41708 3.76311 3.44655Z" fill="currentColor"/>
    <path d="M3.78153 6.39813C3.53464 6.49394 3.40199 6.67818 3.40567 6.92138C3.40567 6.98955 3.41673 7.07062 3.42778 7.10378C3.46832 7.21064 3.56228 7.31934 3.67283 7.38567L3.77969 7.45016L6.76627 7.45568C10.1508 7.46121 9.86524 7.47411 10.0476 7.30829C10.1748 7.19037 10.2264 7.0614 10.2171 6.88822C10.2042 6.65238 10.0587 6.46998 9.8247 6.39629C9.72153 6.36312 3.86444 6.36497 3.78153 6.39813Z" fill="currentColor"/>
    <path d="M10.3129 8.78776C9.70863 8.88541 9.27382 9.10282 8.86664 9.51184C8.5479 9.83426 8.3397 10.1899 8.22916 10.6099C8.13335 10.9747 8.13335 11.4851 8.22916 11.8628C8.28996 12.106 8.41156 12.3713 8.56448 12.5998C9.15774 13.4878 10.2264 13.8931 11.2618 13.6223C12.1296 13.3957 12.8629 12.6274 13.0361 11.7614C13.0471 11.7099 13.0637 11.6233 13.0766 11.568C13.0987 11.463 13.0932 10.9821 13.0692 10.8771C13.0619 10.8458 13.0471 10.7757 13.0361 10.7205C12.896 10.013 12.3783 9.35155 11.7132 9.02728C11.2802 8.8154 10.7312 8.72144 10.3129 8.78776ZM10.7275 9.69424C10.7643 9.72003 10.8178 9.77162 10.8436 9.81215L10.8933 9.88217L10.9025 10.3557C10.9081 10.6155 10.9191 10.8347 10.9265 10.8439C10.9357 10.8513 11.1107 10.8605 11.3189 10.8623C11.7206 10.866 11.7537 10.8734 11.8514 10.9692C11.9269 11.0466 11.9582 11.124 11.9582 11.2456C11.9582 11.3985 11.8956 11.4998 11.75 11.5864C11.7114 11.6104 11.5787 11.6141 10.9265 11.6196L10.149 11.6251L10.1379 11.5809C10.1305 11.5569 10.1287 11.1737 10.1324 10.7278C10.1379 9.94112 10.1398 9.91717 10.1785 9.84532C10.2595 9.6924 10.3737 9.62791 10.5451 9.64081C10.628 9.64449 10.6778 9.65923 10.7275 9.69424Z" fill="currentColor"/>
    <path d="M3.81654 9.34602C3.56597 9.40682 3.40383 9.61317 3.40383 9.87295C3.40383 10.1475 3.5807 10.3557 3.85338 10.4054C4.00631 10.4331 6.24854 10.4331 6.36646 10.4054C6.63177 10.3428 6.78838 10.1714 6.80864 9.91717C6.83075 9.63344 6.65572 9.40314 6.37015 9.33865C6.24302 9.31101 3.93629 9.31654 3.81654 9.34602Z" fill="currentColor"/>
  </g>
  <defs>
    <clipPath id="clip0_33342_1055">
      <rect width="14" height="14" fill="white"/>
    </clipPath>
  </defs>
</svg>
