<svg width="14" height="14" viewBox="0 0 14 14" fill="none" xmlns="http://www.w3.org/2000/svg">
<g clip-path="url(#clip0_519_1365)">
<path d="M2.95184 13.23C2.95184 13.4925 2.96934 13.7491 3.00434 14H0.0586548C0.239342 12.3084 1.38865 10.9084 2.94616 10.3659C3.14434 10.4591 3.36025 10.5291 3.58184 10.5816C3.16649 11.4026 2.95065 12.3099 2.95184 13.23ZM6.28253 7.91C5.72401 8.18138 5.21211 8.53971 4.76594 8.97159C4.59067 9.13717 4.42696 9.31455 4.27594 9.5025C3.84934 9.48772 3.4361 9.35 3.08594 9.10591C2.77861 8.89698 2.52706 8.61606 2.35319 8.28762C2.17933 7.95919 2.08843 7.59321 2.08844 7.22159C2.08844 5.95591 3.11503 4.935 4.37503 4.935C4.67253 4.935 4.95844 4.99341 5.21503 5.09841C5.20344 5.16841 5.20344 5.23841 5.20344 5.31409C5.20344 6.32909 5.61753 7.245 6.28253 7.91ZM7.46662 11.7659C7.46662 12.5534 7.60662 13.3059 7.85731 14H4.17662C4.13934 13.745 4.11982 13.4877 4.11822 13.23C4.11822 12.2734 4.40412 11.3809 4.89412 10.6341C4.98731 10.4825 5.09231 10.3425 5.20912 10.2025C5.30822 10.08 5.41912 9.9575 5.53572 9.84091C5.58231 9.8 5.62322 9.75341 5.66981 9.7125C5.85072 9.555 6.03731 9.40341 6.23572 9.275C6.34662 9.19909 6.45162 9.135 6.56822 9.07091C6.84822 8.91909 7.13981 8.79091 7.45503 8.6975C7.46568 8.70395 7.47764 8.70791 7.49003 8.70909C7.69412 8.79091 7.90412 8.855 8.12572 8.90159C7.94377 9.27397 7.79729 9.66266 7.68822 10.0625C7.63572 10.2725 7.58912 10.4825 7.55412 10.6984C7.51511 10.938 7.48788 11.1793 7.47253 11.4216C7.46662 11.5384 7.46662 11.655 7.46662 11.7659ZM11.3514 5.7925C11.3514 5.7925 11.3164 5.80409 11.3048 5.81591C10.512 6.17296 9.79963 6.68685 9.21072 7.32659C9.06531 7.47791 8.92894 7.63765 8.80231 7.805C8.4464 7.805 8.11412 7.7175 7.81072 7.57159C7.73276 7.54091 7.65838 7.50181 7.5889 7.455C7.4664 7.39091 7.34981 7.30341 7.24481 7.21C6.70822 6.755 6.36981 6.07841 6.36981 5.31409C6.36981 5.2675 6.36981 5.215 6.37572 5.16841C6.38856 4.94385 6.43176 4.72206 6.50412 4.50909C6.67277 4.01673 6.99123 3.58946 7.41489 3.28717C7.83855 2.98488 8.34618 2.82272 8.86662 2.82341C9.28662 2.82341 9.68322 2.92841 10.0273 3.115C10.0973 4.165 10.5816 5.09841 11.3166 5.7575C11.3166 5.7575 11.3398 5.78659 11.3516 5.7925H11.3514ZM14.0291 6.8075V14H9.12344C8.83095 13.3676 8.66636 12.6837 8.63912 11.9875C8.63344 11.9175 8.63344 11.8416 8.63344 11.7659C8.63344 11.515 8.65094 11.27 8.68594 11.0309C8.78697 10.2832 9.04539 9.56549 9.44412 8.925C9.5244 8.80024 9.60806 8.67769 9.69503 8.5575C9.79412 8.42341 9.89934 8.295 10.01 8.1725C10.045 8.13159 10.0859 8.09091 10.1268 8.05C10.2847 7.88436 10.4543 7.73033 10.6343 7.58909C10.8672 7.39754 11.1171 7.22766 11.3809 7.08159C11.6603 6.9254 11.9531 6.79464 12.2559 6.69091C12.3843 6.64409 12.5184 6.60341 12.6466 6.56841C12.6466 6.57409 12.6525 6.57409 12.6584 6.56841C13.0725 6.72591 13.5275 6.8075 14 6.8075H14.0291ZM14.0293 0V5.64091H14.0002C13.5717 5.64036 13.1489 5.5426 12.7637 5.355C12.6818 5.31409 12.6002 5.27341 12.5243 5.22091C12.2805 5.07405 12.0618 4.88888 11.8768 4.6725C11.5502 4.29909 11.3227 3.84409 11.2352 3.3425C11.2002 3.17341 11.1827 2.99841 11.1827 2.82341C11.1827 2.7125 11.1887 2.60159 11.2002 2.49091C11.3577 1.09091 12.5537 0 14.0002 0H14.0293Z" fill="currentColor"/>
<path d="M3.58184 10.5816C3.16649 11.4026 2.95065 12.3099 2.95184 13.23C2.95184 13.4925 2.96934 13.7491 3.00434 14H0.0586548C0.239342 12.3084 1.38865 10.9084 2.94616 10.3659C3.14434 10.4591 3.36025 10.5291 3.58184 10.5816ZM2.08844 7.22159C2.08844 5.95591 3.11503 4.935 4.37503 4.935C4.67253 4.935 4.95844 4.99341 5.21503 5.09841C5.20344 5.16841 5.20344 5.23841 5.20344 5.31409C5.20344 6.32909 5.61753 7.245 6.28253 7.91C5.72401 8.18138 5.21211 8.53971 4.76594 8.97159C4.59067 9.13717 4.42696 9.31455 4.27594 9.5025C3.84934 9.48772 3.4361 9.35 3.08594 9.10591C2.77861 8.89698 2.52706 8.61606 2.35319 8.28762C2.17933 7.95919 2.08843 7.59321 2.08844 7.22159ZM7.47253 11.4275C7.49003 11.1766 7.51322 10.9375 7.55412 10.6984C7.58912 10.4825 7.63572 10.2725 7.68822 10.0625C7.79729 9.66266 7.94377 9.27397 8.12572 8.90159C7.90856 8.85602 7.69578 8.79161 7.48981 8.70909C7.47742 8.70791 7.46546 8.70395 7.45481 8.6975C7.13981 8.79091 6.84822 8.91909 6.56822 9.07091C6.45162 9.135 6.34662 9.19909 6.23572 9.275C6.03731 9.40341 5.85072 9.555 5.66981 9.7125C5.62322 9.75341 5.58231 9.8 5.53572 9.84091C5.42066 9.95569 5.31165 10.0764 5.20912 10.2025C5.09231 10.3425 4.98731 10.4825 4.89412 10.6341C4.38725 11.4049 4.11749 12.3074 4.11822 13.23C4.11822 13.4925 4.14162 13.7491 4.17662 14H7.85731C7.59843 13.2836 7.46622 12.5276 7.46662 11.7659C7.46662 11.655 7.46684 11.5384 7.47253 11.4275ZM7.24503 7.21C6.70822 6.755 6.37003 6.07841 6.37003 5.31409C6.37003 5.2675 6.37003 5.215 6.37572 5.16841C6.38856 4.94385 6.43176 4.72206 6.50412 4.50909C6.67277 4.01673 6.99123 3.58946 7.41489 3.28717C7.83855 2.98488 8.34618 2.82272 8.86662 2.82341C9.28662 2.82341 9.68322 2.92841 10.0273 3.115C10.0973 4.165 10.5816 5.09841 11.3166 5.7575C11.3166 5.7575 11.3398 5.78659 11.3516 5.7925C11.3341 5.7925 11.3166 5.80409 11.3048 5.81591C10.512 6.17296 9.79963 6.68685 9.21072 7.32659C9.06531 7.47791 8.92894 7.63765 8.80231 7.805C8.4464 7.805 8.11412 7.7175 7.81072 7.57159C7.73276 7.54091 7.65838 7.50181 7.5889 7.455C7.4664 7.39091 7.35003 7.30341 7.24503 7.21ZM14.0289 0V5.64091H14C13.5715 5.64036 13.1487 5.5426 12.7634 5.355C12.6818 5.31409 12.6 5.27341 12.5243 5.22091C12.2805 5.07406 12.0618 4.88889 11.8768 4.6725C11.55 4.29909 11.3225 3.84409 11.235 3.3425C11.2 3.17341 11.1825 2.99841 11.1825 2.82341C11.1825 2.7125 11.1884 2.60159 11.2 2.49091C11.3575 1.09091 12.5532 0 14 0H14.0289ZM14 6.8075H14.0291V14H9.12344C8.83095 13.3676 8.66636 12.6837 8.63912 11.9875C8.63344 11.9175 8.63344 11.8416 8.63344 11.7659C8.63344 11.515 8.65094 11.27 8.68594 11.0309C8.78697 10.2832 9.04539 9.56549 9.44412 8.925C9.5244 8.80024 9.60806 8.67769 9.69503 8.5575C9.79412 8.42341 9.89934 8.295 10.01 8.1725C10.045 8.13159 10.0859 8.09091 10.1268 8.05C10.2847 7.88436 10.4543 7.73033 10.6343 7.58909C10.8672 7.39754 11.1171 7.22766 11.3809 7.08159C11.6603 6.9254 11.9531 6.79464 12.2559 6.69091C12.3843 6.64409 12.5184 6.60341 12.6466 6.56841C12.6466 6.57409 12.6525 6.57409 12.6584 6.56841C13.0725 6.72591 13.5275 6.8075 14 6.8075Z" fill="currentColor"/>
</g>
<defs>
<clipPath id="clip0_519_1365">
<rect width="14" height="14" fill="white"/>
</clipPath>
</defs>
</svg>
