<svg width="15" height="14" viewBox="0 0 15 14" fill="none" xmlns="http://www.w3.org/2000/svg">
<g clip-path="url(#clip0_400_6355)">
<path fill-rule="evenodd" clip-rule="evenodd" d="M7.325 1.97159C7.4475 2.15841 7.54659 2.35659 7.61659 2.56659L8.63159 2.8175V4.14159L7.6225 4.39841C7.50695 4.72881 7.32868 5.03378 7.0975 5.29659L7.38909 6.3L6.24 6.95909L5.51659 6.20659C5.3475 6.24159 5.1725 6.25909 4.9975 6.25909C4.8225 6.25909 4.6475 6.24159 4.47841 6.20659L3.74909 6.95909L2.60591 6.3L2.89159 5.29659C2.66405 5.03321 2.48976 4.72818 2.37841 4.39841L1.3575 4.14159V2.8175L2.37841 2.56659C2.44455 2.35449 2.5429 2.15382 2.67 1.97159C2.73409 1.86659 2.81 1.76159 2.89159 1.66841L2.60591 0.659094L3.74909 0L4.47841 0.7525C4.6475 0.7175 4.8225 0.7 4.9975 0.7C5.1725 0.7 5.3475 0.7175 5.51659 0.7525L6.24 0L7.38909 0.659094L7.0975 1.6625C7.18302 1.75804 7.2592 1.86154 7.325 1.97159ZM3.91841 3.4825C3.91881 3.76857 4.03263 4.04281 4.23491 4.24509C4.43719 4.44737 4.71143 4.56119 4.9975 4.56159C5.28357 4.56119 5.55781 4.44737 5.76009 4.24509C5.96237 4.04281 6.07619 3.76857 6.07659 3.4825C6.07619 3.19643 5.96237 2.92219 5.76009 2.71991C5.55781 2.51763 5.28357 2.40381 4.9975 2.40341C4.71143 2.40381 4.43719 2.51763 4.23491 2.71991C4.03263 2.92219 3.91881 3.19643 3.91841 3.4825ZM9.04591 7.39069V7.0525C9.04591 6.125 9.79841 5.3725 10.7259 5.3725H14.5V2.765C14.5 2.3275 14.1441 1.97159 13.7066 1.97159H8.8475C9.2325 2.065 9.50659 2.415 9.50659 2.8175V4.14159C9.50659 4.54409 9.2325 4.89409 8.84159 4.9875L8.235 5.145C8.1825 5.25 8.11841 5.355 8.05409 5.45409L8.22909 6.06069C8.34 6.44569 8.17091 6.85409 7.82659 7.05819L6.6775 7.7175C6.54341 7.79909 6.39159 7.83409 6.24 7.83409C6.0125 7.83409 5.77909 7.74659 5.61 7.57159L5.18409 7.12841C5.05591 7.13409 4.93341 7.13409 4.805 7.12841L4.37909 7.57159C4.24298 7.71159 4.06394 7.80201 3.87048 7.82845C3.67702 7.85489 3.48028 7.81584 3.31159 7.7175L2.16841 7.05819C1.99944 6.96087 1.86798 6.80972 1.79501 6.6289C1.72205 6.44808 1.7118 6.24802 1.76591 6.06069L1.935 5.45409C1.87091 5.355 1.8125 5.25 1.75409 5.145L1.1475 4.9875C0.986411 4.94788 0.839948 4.86318 0.725271 4.74331C0.610594 4.62344 0.532452 4.47337 0.5 4.31069L0.5 11.6782C0.5 12.1157 0.855906 12.4716 1.29341 12.4716H13.7066C14.1441 12.4716 14.5 12.1157 14.5 11.6782V9.07069H10.7259C9.79841 9.07069 9.04591 8.31819 9.04591 7.39069ZM10.7259 6.2475C10.5125 6.2479 10.308 6.33285 10.1571 6.48373C10.0063 6.63461 9.92131 6.83913 9.92091 7.0525V7.39091C9.92131 7.60428 10.0063 7.8088 10.1571 7.95968C10.308 8.11056 10.5125 8.1955 10.7259 8.19591H14.5V6.2475H10.7257H10.7259Z" fill="currentColor"/>
</g>
<defs>
<clipPath id="clip0_400_6355">
<rect width="14" height="14" fill="white" transform="translate(0.5)"/>
</clipPath>
</defs>
</svg>
