<svg width="18" height="18" viewBox="0 0 18 18" fill="none" xmlns="http://www.w3.org/2000/svg">
<path fill-rule="evenodd" clip-rule="evenodd" d="M12.5704 8.67975C13.0423 7.97358 13.2941 7.14335 13.2941 6.29406C13.2944 5.73007 13.1835 5.17154 12.9678 4.65042C12.7522 4.1293 12.4359 3.6558 12.0371 3.257C11.6383 2.85819 11.1648 2.54191 10.6436 2.32622C10.1225 2.11054 9.56399 1.99968 9 2C8.25815 2.00001 7.52896 2.19222 6.88349 2.55789C6.23802 2.92355 5.69829 3.4502 5.31691 4.08652C4.93553 4.72283 4.72551 5.44709 4.70731 6.18871C4.68911 6.93034 4.86335 7.66403 5.21306 8.31829C5.56277 8.97254 6.07601 9.52503 6.70277 9.92192C7.32952 10.3188 8.04841 10.5465 8.78937 10.583C9.53032 10.6194 10.2681 10.4632 10.9307 10.1296C11.5934 9.7961 12.1583 9.29657 12.5704 8.67975ZM11.2306 11.6184C11.9378 11.3253 12.5802 10.8957 13.1213 10.3541C13.9634 10.6552 14.692 11.2092 15.2073 11.9403C15.7226 12.6713 15.9995 13.5437 16 14.4381V16H2V14.4381C2.00052 13.5437 2.27737 12.6713 2.79267 11.9403C3.30798 11.2092 4.03656 10.6552 4.87875 10.3541C5.69355 11.1697 6.73205 11.7252 7.86277 11.9503C8.99348 12.1754 10.1656 12.0599 11.2306 11.6184Z" fill="currentColor"/>
</svg>
