<svg width="16" height="16" viewBox="0 0 16 16" fill="none" xmlns="http://www.w3.org/2000/svg">
<path d="M1.33398 3.99935C1.33398 3.82425 1.36847 3.65087 1.43548 3.4891C1.50248 3.32734 1.6007 3.18035 1.72451 3.05654C1.84832 2.93273 1.99531 2.83452 2.15707 2.76751C2.31884 2.7005 2.49222 2.66602 2.66732 2.66602H8.66732C9.02094 2.66602 9.36008 2.80649 9.61013 3.05654C9.86018 3.30659 10.0007 3.64573 10.0007 3.99935V5.33268C10.0007 5.42024 9.98343 5.50694 9.94993 5.58784C9.91644 5.66873 9.86733 5.74224 9.80543 5.80415C9.74352 5.86607 9.67002 5.91518 9.58913 5.94869C9.50824 5.9822 9.42154 5.99945 9.33398 5.99945C9.24643 5.99945 9.15973 5.9822 9.07884 5.94869C8.99795 5.91518 8.92445 5.86607 8.86254 5.80415C8.80064 5.74224 8.75153 5.66873 8.71804 5.58784C8.68454 5.50694 8.6673 5.42024 8.66732 5.33268V3.99935H2.66732V11.9993H8.66732V10.666C8.6673 10.5785 8.68454 10.4918 8.71804 10.4109C8.75153 10.33 8.80064 10.2565 8.86254 10.1945C8.92445 10.1326 8.99795 10.0835 9.07884 10.05C9.15973 10.0165 9.24643 9.99925 9.33398 9.99925C9.42154 9.99925 9.50824 10.0165 9.58913 10.05C9.67002 10.0835 9.74352 10.1326 9.80543 10.1945C9.86733 10.2565 9.91644 10.33 9.94993 10.4109C9.98343 10.4918 10.0007 10.5785 10.0007 10.666V11.9993C10.0007 12.353 9.86018 12.6921 9.61013 12.9422C9.36008 13.1922 9.02094 13.3327 8.66732 13.3327H2.66732C2.49222 13.3327 2.31884 13.2982 2.15707 13.2312C1.99531 13.1642 1.84832 13.066 1.72451 12.9422C1.6007 12.8183 1.50248 12.6714 1.43548 12.5096C1.36847 12.3478 1.33398 12.1744 1.33398 11.9993V3.99935ZM11.5293 5.52802C11.6543 5.40303 11.8239 5.33282 12.0007 5.33282C12.1774 5.33282 12.347 5.40303 12.472 5.52802L14.472 7.52802C14.597 7.65303 14.6672 7.82257 14.6672 7.99935C14.6672 8.17613 14.597 8.34566 14.472 8.47068L12.472 10.4707C12.4105 10.5344 12.3369 10.5851 12.2556 10.6201C12.1743 10.655 12.0868 10.6734 11.9983 10.6742C11.9097 10.675 11.8219 10.6581 11.74 10.6246C11.6581 10.591 11.5836 10.5415 11.5211 10.4789C11.4585 10.4164 11.409 10.3419 11.3754 10.26C11.3419 10.1781 11.325 10.0903 11.3258 10.0017C11.3266 9.91323 11.345 9.82575 11.3799 9.74441C11.4149 9.66308 11.4656 9.58951 11.5293 9.52802L12.3913 8.66602H6.00065C5.82384 8.66602 5.65427 8.59578 5.52925 8.47075C5.40422 8.34573 5.33398 8.17616 5.33398 7.99935C5.33398 7.82254 5.40422 7.65297 5.52925 7.52795C5.65427 7.40292 5.82384 7.33268 6.00065 7.33268H12.3913L11.5293 6.47068C11.4043 6.34566 11.3341 6.17613 11.3341 5.99935C11.3341 5.82257 11.4043 5.65303 11.5293 5.52802Z" fill="currentColor"/>
</svg>
