<svg viewBox="0 0 355 250" fill="none" xmlns="http://www.w3.org/2000/svg">
<g clip-path="url(#clip0_3111_2624)">
<path opacity="0.2" fill-rule="evenodd" clip-rule="evenodd" d="M177.5 179.59C275.531 179.59 355 205.67 355 237.842C355 270.014 275.531 296.095 177.5 296.095C79.4695 296.095 0 270.014 0 237.842C0 205.67 79.4695 179.59 177.5 179.59Z" fill="url(#paint0_linear_3111_2624)"/>
<path fill-rule="evenodd" clip-rule="evenodd" d="M141.06 19.4609H216.423C219.885 19.4609 222.692 22.2678 222.692 25.7303V127.868C222.692 131.33 219.885 134.137 216.423 134.137H141.06C137.598 134.137 134.791 131.33 134.791 127.868V25.7303C134.791 22.2678 137.598 19.4609 141.06 19.4609Z" fill="#EAF3FC"/>
<path fill-rule="evenodd" clip-rule="evenodd" d="M152.291 48.0645H202.707C204.871 48.0645 206.625 49.8187 206.625 51.9828C206.625 54.1469 204.871 55.9011 202.707 55.9011H152.291C150.127 55.9011 148.373 54.1469 148.373 51.9828C148.373 49.8187 150.127 48.0645 152.291 48.0645Z" fill="#D6DDF1"/>
<path fill-rule="evenodd" clip-rule="evenodd" d="M152.291 71.9658H202.707C204.871 71.9658 206.625 73.7201 206.625 75.8841C206.625 78.0482 204.871 79.8025 202.707 79.8025H152.291C150.127 79.8025 148.373 78.0482 148.373 75.8841C148.373 73.7201 150.127 71.9658 152.291 71.9658Z" fill="#D6DDF1"/>
<path fill-rule="evenodd" clip-rule="evenodd" d="M152.291 97.1738H202.707C204.871 97.1738 206.625 98.9281 206.625 101.092C206.625 103.256 204.871 105.01 202.707 105.01H152.291C150.127 105.01 148.373 103.256 148.373 101.092C148.373 98.9281 150.127 97.1738 152.291 97.1738Z" fill="#D6DDF1"/>
<path fill-rule="evenodd" clip-rule="evenodd" d="M195.477 80.1669L252.575 35.3242L261.852 47.1365L204.754 91.9792L195.477 80.1669Z" fill="#93B4E1"/>
<path fill-rule="evenodd" clip-rule="evenodd" d="M195.655 80.1943L185.598 97.3043L204.797 91.8187C204.797 91.8187 205.207 82.9732 195.655 80.1943Z" fill="#FDFFFE"/>
<path fill-rule="evenodd" clip-rule="evenodd" d="M164.438 206.364H170.447C170.735 206.364 170.969 206.598 170.969 206.887V223.082C170.969 223.371 170.735 223.605 170.447 223.605H164.438C164.15 223.605 163.916 223.371 163.916 223.082V206.887C163.916 206.598 164.15 206.364 164.438 206.364Z" fill="#BFC9D3"/>
<path fill-rule="evenodd" clip-rule="evenodd" d="M165.195 176.775C166.175 174.917 168.836 174.917 169.816 176.775L184.917 205.407C185.834 207.147 184.573 209.238 182.606 209.238H152.405C150.438 209.238 149.177 207.147 150.094 205.407L165.195 176.775Z" fill="#EAF7EE"/>
<path fill-rule="evenodd" clip-rule="evenodd" d="M112.144 190.308H114.151C114.439 190.308 114.673 190.542 114.673 190.83V197.246C114.673 197.534 114.439 197.768 114.151 197.768H112.144C111.855 197.768 111.621 197.534 111.621 197.246V190.83C111.621 190.542 111.855 190.308 112.144 190.308Z" fill="#BFC9D3"/>
<path fill-rule="evenodd" clip-rule="evenodd" d="M111.789 178.936C112.377 177.821 113.974 177.821 114.562 178.936L119.709 188.695C120.259 189.739 119.502 190.993 118.322 190.993H108.028C106.848 190.993 106.092 189.739 106.642 188.695L111.789 178.936Z" fill="#DEE7EB"/>
<path fill-rule="evenodd" clip-rule="evenodd" d="M233.89 201.146H235.096C235.385 201.146 235.619 201.379 235.619 201.668V206.127C235.619 206.415 235.385 206.649 235.096 206.649H233.89C233.601 206.649 233.367 206.415 233.367 206.127V201.668C233.367 201.379 233.601 201.146 233.89 201.146Z" fill="#BFC9D3"/>
<path fill-rule="evenodd" clip-rule="evenodd" d="M233.588 192.57C233.98 191.827 235.045 191.827 235.437 192.57L239.418 200.12C239.785 200.816 239.281 201.652 238.494 201.652H230.531C229.744 201.652 229.239 200.816 229.606 200.12L233.588 192.57Z" fill="#DEE7EB"/>
<path opacity="0.8" fill-rule="evenodd" clip-rule="evenodd" d="M113.5 79.9336C117.973 79.9336 121.598 83.5591 121.598 88.0315C121.598 92.5038 117.973 96.1293 113.5 96.1293C109.028 96.1293 105.402 92.5038 105.402 88.0315C105.402 83.5591 109.028 79.9336 113.5 79.9336Z" fill="#A2ACD5" fill-opacity="0.5"/>
<path opacity="0.8" fill-rule="evenodd" clip-rule="evenodd" d="M237.071 7.57422C242.144 7.57422 246.256 11.6864 246.256 16.7588C246.256 21.8313 242.144 25.9434 237.071 25.9434C231.999 25.9434 227.887 21.8313 227.887 16.7588C227.887 11.6864 231.999 7.57422 237.071 7.57422Z" fill="#A2ACD5" fill-opacity="0.5"/>
<path opacity="0.8" fill-rule="evenodd" clip-rule="evenodd" d="M136.475 0.0273438C139.726 0.0273438 142.36 2.66228 142.36 5.91266C142.36 9.16304 139.726 11.798 136.475 11.798C133.225 11.798 130.59 9.16304 130.59 5.91266C130.59 2.66228 133.225 0.0273438 136.475 0.0273438Z" fill="#A2ACD5" fill-opacity="0.5"/>
<path opacity="0.8" fill-rule="evenodd" clip-rule="evenodd" d="M247.415 140.204C250.909 140.204 253.742 143.037 253.742 146.531C253.742 150.025 250.909 152.858 247.415 152.858C243.92 152.858 241.088 150.025 241.088 146.531C241.088 143.037 243.92 140.204 247.415 140.204Z" fill="#D8E2EB"/>
<g clip-path="url(#clip1_3111_2624)">
<path fill-rule="evenodd" clip-rule="evenodd" d="M128.487 24C136.488 24 142.974 30.4859 142.974 38.4867C142.974 46.4875 136.488 52.9735 128.487 52.9735C120.486 52.9735 114 46.4875 114 38.4867C114 30.4859 120.486 24 128.487 24Z" fill="#8FACE6"/>
<path d="M120.965 36.2819C122.041 35.3217 123.693 35.416 124.653 36.4927L128.982 41.3464C129.942 42.423 129.848 44.0743 128.771 45.0346C127.694 45.9948 126.043 45.9004 125.083 44.8237L120.754 39.9701C119.794 38.8934 119.888 37.2422 120.965 36.2819Z" fill="white"/>
<path d="M138.094 34.3526C139.054 35.4293 138.96 37.0806 137.883 38.0408L129.334 45.6659C128.257 46.6262 126.606 46.5318 125.645 45.4551C124.685 44.3784 124.779 42.7271 125.856 41.7669L134.406 34.1418C135.483 33.1815 137.134 33.2759 138.094 34.3526Z" fill="white"/>
</g>
</g>
<defs>
<linearGradient id="paint0_linear_3111_2624" x1="170.055" y1="176.194" x2="170.055" y2="249.14" gradientUnits="userSpaceOnUse">
<stop stop-color="#90BFF0"/>
<stop offset="1" stop-color="#97ABC0" stop-opacity="0"/>
</linearGradient>
<clipPath id="clip0_3111_2624">
<rect width="355" height="250" fill="white"/>
</clipPath>
<clipPath id="clip1_3111_2624">
<rect width="28.9735" height="28.9735" fill="white" transform="translate(114 24)"/>
</clipPath>
</defs>
</svg>
