<svg width="32" height="32" viewBox="0 0 32 32" fill="none" xmlns="http://www.w3.org/2000/svg">
<g clip-path="url(#clip0_833_162)">
<path d="M0.347656 16.0404C0.347656 18.1217 0.74518 20.1827 1.51753 22.1056C2.28988 24.0284 3.42193 25.7756 4.84905 27.2473C6.27617 28.7191 7.97041 29.8865 9.83503 30.683C11.6996 31.4795 13.6981 31.8894 15.7164 31.8894C17.7346 31.8894 19.7331 31.4795 21.5977 30.683C23.4624 29.8865 25.1566 28.7191 26.5837 27.2473C28.0108 25.7756 29.1429 24.0284 29.9152 22.1056C30.6876 20.1827 31.0851 18.1217 31.0851 16.0404C31.0851 13.9591 30.6876 11.8981 29.9152 9.97526C29.1429 8.05237 28.0108 6.30519 26.5837 4.83347C25.1566 3.36176 23.4624 2.19433 21.5977 1.39784C19.7331 0.601353 17.7346 0.191406 15.7164 0.191406C13.6981 0.191406 11.6996 0.601353 9.83503 1.39784C7.97041 2.19433 6.27617 3.36176 4.84905 4.83347C3.42193 6.30519 2.28988 8.05237 1.51753 9.97526C0.74518 11.8981 0.347656 13.9591 0.347656 16.0404Z" fill="#FFE1E9"/>
<path d="M15.7173 4.44727C9.51045 4.44727 4.47656 9.63667 4.47656 16.0393C4.47656 22.4401 9.50871 27.6313 15.7173 27.6313C21.9259 27.6313 26.958 22.4419 26.958 16.0393C26.9563 9.63667 21.9241 4.44727 15.7173 4.44727ZM21.4511 19.9597H13.9649L15.1046 21.9091L13.0118 23.2105L10.0463 18.1399C9.86653 17.8321 10.0812 17.4397 10.4303 17.4397H21.4511V19.9597ZM21.0043 14.9467H9.98173V12.4267H17.468L16.3282 10.4773L18.421 9.17587L21.3865 14.2465C21.5663 14.5543 21.3516 14.9467 21.0043 14.9467Z" fill="#FF3369"/>
<path d="M24.0012 11.5013C24.0012 10.2071 23.8494 8.94891 23.5649 7.74291C21.5384 5.70351 18.7718 4.44531 15.7173 4.44531C9.51045 4.44531 4.47656 9.63471 4.47656 16.0373C4.47656 21.0881 7.6114 25.3829 11.982 26.9705C18.8591 25.3955 24.0012 19.0685 24.0012 11.5013ZM9.98173 12.4265H17.468L16.3282 10.4771L18.421 9.17571L21.3865 14.2463C21.5663 14.5541 21.3516 14.9465 21.0025 14.9465H9.98173V12.4265ZM10.4303 17.4395H21.4511V19.9595H13.9649L15.1046 21.9089L13.0118 23.2103L10.0463 18.1397C9.86653 17.8319 10.0812 17.4395 10.4303 17.4395Z" fill="#FF4D7C"/>
<path d="M4.47656 16.0393C4.47656 18.0751 4.98798 19.9885 5.88165 21.6517C7.72966 21.4735 9.53071 20.9495 11.1966 20.1055L10.0463 18.1399C9.86653 17.8321 10.0812 17.4397 10.4303 17.4397H14.9336C15.7121 16.6873 16.4155 15.8521 17.0299 14.9467H9.98173V12.4267H17.468L16.3282 10.4773L18.421 9.17587L19.1523 10.4251C19.5713 8.98327 19.7964 7.45507 19.7964 5.87287C19.7964 5.65867 19.7912 5.44447 19.7825 5.23207C18.4859 4.71224 17.1067 4.44609 15.7155 4.44727C9.50871 4.44727 4.47656 9.63667 4.47656 16.0393Z" fill="#FF5F89"/>
<path d="M4.48633 15.5918C6.48209 15.0484 8.35096 14.0952 9.98102 12.7892V12.4292H10.4139C12.7842 10.3844 14.5471 7.61783 15.3867 4.45703C9.47658 4.63343 4.71149 9.51143 4.48633 15.5918Z" fill="#FF7196"/>
</g>
<defs>
<clipPath id="clip0_833_162">
<rect width="32" height="32" fill="white"/>
</clipPath>
</defs>
</svg>
