<svg width="32" height="32" viewBox="0 0 32 32" fill="none" xmlns="http://www.w3.org/2000/svg">
<g id="Frame">
<path id="Vector" fill-rule="evenodd" clip-rule="evenodd" d="M14.6259 5.94061C15.1001 4.68646 16.901 4.68646 17.3751 5.94061L19.6999 12.0896L26.5782 12.2991C27.8621 12.3383 28.6029 14.0188 27.4144 14.8991L22.0174 18.8962L23.9151 25.138C24.1205 25.8138 23.8044 26.4229 23.3539 26.7351C22.9081 27.044 22.2598 27.1206 21.7041 26.7608L16.0005 23.0679L10.297 26.7608C9.7413 27.1206 9.09296 27.044 8.6472 26.7351C8.19667 26.4229 7.88057 25.8138 8.08602 25.138L9.98368 18.8962L4.58671 14.8991C3.39814 14.0188 4.13893 12.3383 5.42287 12.2991L12.3011 12.0896L14.6259 5.94061ZM16.0005 7.96023L14.0429 13.138C13.8271 13.709 13.287 14.0605 12.7137 14.078L7.07053 14.2499L11.4904 17.5233C11.9692 17.8779 12.1947 18.4993 12.0141 19.0935L10.4345 24.2891L15.1948 21.207C15.6838 20.8903 16.3173 20.8903 16.8063 21.207L21.5666 24.2891L19.987 19.0935C19.8063 18.4993 20.0319 17.8779 20.5107 17.5233L24.9305 14.2499L19.2874 14.078C18.7141 14.0605 18.174 13.709 17.9582 13.138L16.0005 7.96023Z" fill="currentColor"/>
</g>
</svg>
