<svg width="14" height="15" viewBox="0 0 14 15" fill="none" xmlns="http://www.w3.org/2000/svg">
<path fill-rule="evenodd" clip-rule="evenodd" d="M6.125 2.25H12.9062C13.1963 2.25 13.4745 2.36523 13.6796 2.57035C13.8848 2.77547 14 3.05367 14 3.34375C14 3.63383 13.8848 3.91203 13.6796 4.11715C13.4745 4.32227 13.1963 4.4375 12.9062 4.4375H6.125C5.83492 4.4375 5.55672 4.32227 5.3516 4.11715C5.14648 3.91203 5.03125 3.63383 5.03125 3.34375C5.03125 3.05367 5.14648 2.77547 5.3516 2.57035C5.55672 2.36523 5.83492 2.25 6.125 2.25ZM12.9062 6.40625H1.09375C0.803669 6.40625 0.52547 6.52148 0.320352 6.7266C0.115234 6.93172 0 7.20992 0 7.5C0 7.79008 0.115234 8.06828 0.320352 8.2734C0.52547 8.47852 0.803669 8.59375 1.09375 8.59375H12.9062C13.1963 8.59375 13.4745 8.47852 13.6796 8.2734C13.8848 8.06828 14 7.79008 14 7.5C14 7.20992 13.8848 6.93172 13.6796 6.7266C13.4745 6.52148 13.1963 6.40625 12.9062 6.40625ZM12.9062 10.5625H1.09375C0.803669 10.5625 0.52547 10.6777 0.320352 10.8829C0.115234 11.088 0 11.3662 0 11.6562C0 11.9463 0.115234 12.2245 0.320352 12.4296C0.52547 12.6348 0.803669 12.75 1.09375 12.75H12.9062C13.1963 12.75 13.4745 12.6348 13.6796 12.4296C13.8848 12.2245 14 11.9463 14 11.6562C14 11.3662 13.8848 11.088 13.6796 10.8829C13.4745 10.6777 13.1963 10.5625 12.9062 10.5625ZM2.625 2.25H1.09375C0.803669 2.25 0.52547 2.36523 0.320352 2.57035C0.115234 2.77547 0 3.05367 0 3.34375C0 3.63383 0.115234 3.91203 0.320352 4.11715C0.52547 4.32227 0.803669 4.4375 1.09375 4.4375H2.625C2.91508 4.4375 3.19328 4.32227 3.3984 4.11715C3.60352 3.91203 3.71875 3.63383 3.71875 3.34375C3.71875 3.05367 3.60352 2.77547 3.3984 2.57035C3.19328 2.36523 2.91508 2.25 2.625 2.25Z" fill="#9DABC8"/>
</svg>
