<svg width="32" height="32" viewBox="0 0 32 32" fill="none" xmlns="http://www.w3.org/2000/svg">
<path d="M16.7222 2.69479L28.2888 13.7112C29.1281 14.5079 29.1544 15.8627 28.348 16.6919L21.9489 23.2119C21.1425 24.0406 19.7711 24.0671 18.9323 23.2705L7.36573 12.2545C6.52696 11.4579 6.50009 10.103 7.30649 9.27442L13.7056 2.75385C14.512 1.92469 15.8494 1.85531 16.7222 2.69479Z" fill="#FFD3D7"/>
<path d="M9.92309 5.14626L24.7181 11.3509C25.779 11.7952 26.3232 13.0249 25.852 14.1223L22.2725 22.4529C21.8222 23.5005 20.5774 24.0386 19.4671 23.5726L4.67162 17.3685C3.61123 16.9241 3.0665 15.6945 3.53826 14.5971L7.11769 6.26642C7.56753 5.21831 8.86218 4.70186 9.92312 5.14623L9.92309 5.14626Z" fill="#FB560A"/>
<path d="M4.37091 22.6836H27.6303L30.5926 26.7481C31.6898 28.2655 31.0863 29.4578 29.1663 29.4578H2.56062C0.69547 29.4578 0.0920523 28.2655 1.18918 26.7481L4.37091 22.6836Z" fill="#DAE9FF"/>
<path d="M6.78413 11.3027H25.9841C27.9041 11.3027 29.4401 12.8201 29.4401 14.7169V23.6589C29.4401 25.5556 27.9041 27.0731 25.9841 27.0731H6.78413C4.86414 27.0731 3.32812 25.5556 3.32812 23.6589V14.7169C3.32812 12.8201 4.86414 11.3027 6.78413 11.3027Z" fill="#DAE9FF"/>
<path d="M6.2353 11.3027H24.1736C26.0936 11.3027 27.6296 12.8201 27.6296 14.7169V23.6589C27.6296 25.5556 26.0936 27.0731 24.1736 27.0731H6.2353C4.31531 27.0731 2.7793 25.5556 2.7793 23.6589V14.7169C2.7793 12.8201 4.31531 11.3027 6.2353 11.3027Z" fill="#3889FF"/>
<path d="M18.1934 24.309C18.1934 24.5246 18.2801 24.7314 18.4344 24.8838C18.5887 25.0363 18.798 25.1219 19.0162 25.1219C19.2345 25.1219 19.4437 25.0363 19.5981 24.8838C19.7524 24.7314 19.8391 24.5246 19.8391 24.309C19.8391 24.0934 19.7524 23.8866 19.5981 23.7342C19.4437 23.5817 19.2345 23.4961 19.0162 23.4961C18.798 23.4961 18.5887 23.5817 18.4344 23.7342C18.2801 23.8866 18.1934 24.0934 18.1934 24.309ZM20.9362 24.309C20.9362 24.5246 21.0229 24.7314 21.1772 24.8838C21.3315 25.0363 21.5408 25.1219 21.7591 25.1219C21.9773 25.1219 22.1866 25.0363 22.3409 24.8838C22.4952 24.7314 22.5819 24.5246 22.5819 24.309C22.5819 24.0934 22.4952 23.8866 22.3409 23.7342C22.1866 23.5817 21.9773 23.4961 21.7591 23.4961C21.5408 23.4961 21.3315 23.5817 21.1772 23.7342C21.0229 23.8866 20.9362 24.0934 20.9362 24.309ZM23.6791 24.309C23.6791 24.5246 23.7657 24.7314 23.9201 24.8838C24.0744 25.0363 24.2837 25.1219 24.5019 25.1219C24.7201 25.1219 24.9294 25.0363 25.0838 24.8838C25.2381 24.7314 25.3248 24.5246 25.3248 24.309C25.3248 24.0934 25.2381 23.8866 25.0838 23.7342C24.9294 23.5817 24.7201 23.4961 24.5019 23.4961C24.2837 23.4961 24.0744 23.5817 23.9201 23.7342C23.7657 23.8866 23.6791 24.0934 23.6791 24.309Z" fill="white"/>
<path d="M7.05756 14.8262C6.56385 14.8262 6.125 15.2055 6.125 15.6933C6.125 16.181 6.50901 16.5604 7.05756 16.5604H24.0084C24.5021 16.5604 24.941 16.181 24.941 15.6933C24.941 15.2055 24.557 14.8262 24.0084 14.8262H7.05756Z" fill="#DAE9FF"/>
<path d="M6.50876 14.2832C6.01505 14.2832 5.57617 14.6626 5.57617 15.1503C5.57617 15.6381 5.96018 16.0174 6.50876 16.0174H23.4596C23.9533 16.0174 24.3922 15.5297 24.3922 15.1503C24.3922 14.7709 23.9533 14.2832 23.4596 14.2832H6.50876Z" fill="white"/>
</svg>
