<svg width="14" height="15" viewBox="0 0 14 15" fill="none" xmlns="http://www.w3.org/2000/svg">
<g id="Frame" clip-path="url(#clip0_5122_141451)">
<path id="Vector" fill-rule="evenodd" clip-rule="evenodd" d="M8.4 1.59531C8.4 0.822113 7.77319 0.195312 7 0.195312C6.22681 0.195312 5.6 0.822113 5.6 1.59531V5.79531H1.4C0.626801 5.79531 0 6.42212 0 7.19531C0 7.9685 0.626801 8.59531 1.4 8.59531H5.6V12.7953C5.6 13.5685 6.22679 14.1953 7 14.1953C7.77319 14.1953 8.4 13.5685 8.4 12.7953V8.59531H12.6C13.3732 8.59531 14 7.9685 14 7.19531C14 6.42212 13.3732 5.79531 12.6 5.79531H8.4V1.59531Z" fill="currentColor"/>
</g>
<defs>
<clipPath id="clip0_5122_141451">
<rect width="14" height="14" fill="white" transform="translate(0 0.195312)"/>
</clipPath>
</defs>
</svg>
