<svg width="26" height="26" viewBox="0 0 26 26" fill="none" xmlns="http://www.w3.org/2000/svg">
<path d="M11.6842 0.347305C10.0434 0.737969 9.28814 1.12863 8.94956 1.77974C8.63703 2.35271 8.58494 3.86328 8.89747 3.86328C9.36627 3.83724 9.6788 3.42053 9.78298 2.69129C9.83507 2.04018 10.0434 1.85787 10.9029 1.57139C11.4759 1.36303 12.4655 1.20677 13.1166 1.18072C14.1063 1.12863 14.3147 1.23281 14.5491 1.70161C14.7574 2.22249 15.9815 2.58711 15.9815 2.1704C15.9815 1.57139 15.07 0.477526 14.3928 0.243127C13.4292 -0.095448 13.4031 -0.095448 11.6842 0.347305Z" fill="currentColor"/>
<path d="M12.0746 3.44516C4.57383 5.19012 4.10503 5.34639 3.7925 5.9975C3.42788 6.77882 3.76646 8.08104 4.31339 7.89873C4.4957 7.84664 8.03772 7.01322 12.2048 6.07563C22.7527 3.67956 21.9714 3.91395 21.9714 3.21076C21.9714 2.5857 20.8515 1.49184 20.3046 1.54393C20.1483 1.56997 16.45 2.40339 12.0746 3.44516Z" fill="currentColor"/>
<path d="M4.7832 8.73265C4.7832 8.86287 5.14782 12.5612 5.56453 16.9887C6.18959 23.2914 6.45004 25.1666 6.78861 25.5312C7.17928 25.9479 7.75225 26 13.2476 26C18.6648 26 19.3159 25.9479 19.6805 25.5312C19.9931 25.1926 20.2535 23.2914 20.7744 17.7961C21.1651 13.7852 21.5297 10.0609 21.6078 9.51398L21.7641 8.55034H13.2736C8.61171 8.55034 4.7832 8.62847 4.7832 8.73265ZM9.7837 13.629C9.86184 14.4884 10.0181 16.8585 10.1223 18.8899L10.3306 22.6142H9.49722C9.05446 22.6142 8.68984 22.5882 8.68984 22.5361C8.53358 21.7287 8.01269 12.2747 8.09083 12.1184C8.16896 11.9882 8.53358 11.9361 8.8982 11.9882C9.5493 12.0663 9.60139 12.1705 9.7837 13.629ZM14.0289 17.2752V22.484H13.2476H12.4663L12.3881 17.5356C12.3621 14.827 12.3881 12.457 12.4663 12.2486C12.5444 12.0403 12.883 11.9361 13.2997 11.9882L14.0289 12.0663V17.2752ZM18.3783 12.2486C18.5606 12.7174 17.9356 21.9371 17.7012 22.3017C17.597 22.484 17.2063 22.6142 16.8417 22.6142H16.1645L16.3469 18.7597C16.451 16.6501 16.6073 14.254 16.6854 13.4206C16.8417 12.0142 16.8677 11.9361 17.5449 11.9361C17.9356 11.9361 18.3262 12.0924 18.3783 12.2486Z" fill="currentColor"/>
</svg>
