<svg width="16" height="16" viewBox="0 0 16 16" fill="none" xmlns="http://www.w3.org/2000/svg">
<g clip-path="url(#clip0_400_6362)">
<path fill-rule="evenodd" clip-rule="evenodd" d="M2.56658 0.972994C3.84008 0.122047 5.39946 -0.18815 6.90168 0.110642C7.6455 0.258589 8.35289 0.551593 8.98348 0.972926C9.61406 1.39426 10.1555 1.93567 10.5768 2.56624C10.9982 3.19682 11.2912 3.90421 11.4392 4.64803C11.5871 5.39184 11.5871 6.15752 11.4392 6.90134C11.2912 7.64516 10.9982 8.35256 10.5769 8.98314C10.1556 9.61373 9.61415 10.1551 8.98358 10.5765C7.71008 11.4274 6.15069 11.7376 4.64848 11.4388C3.14627 11.1401 1.82428 10.2567 0.97333 8.98324C0.122383 7.70974 -0.187815 6.15036 0.110978 4.64815C0.40977 3.14593 1.29308 1.82394 2.56658 0.972994ZM3.84458 8.66399C4.22389 8.92253 4.65067 9.10336 5.10026 9.19603C5.54985 9.28869 6.01335 9.29136 6.46398 9.20388C6.91461 9.1164 7.34345 8.94051 7.72571 8.68636C8.10798 8.4322 8.4361 8.10483 8.69113 7.72315C8.94616 7.34147 9.12303 6.91304 9.21154 6.46261C9.30006 6.01218 9.29845 5.54868 9.20681 5.09887C9.11518 4.64907 8.93533 4.22188 8.67766 3.84198C8.41999 3.46207 8.0896 3.13699 7.70558 2.88549C6.93923 2.38361 6.00569 2.20464 5.10806 2.38751C4.21043 2.57038 3.42132 3.1003 2.91238 3.86198C2.40345 4.62367 2.21586 5.55551 2.39044 6.45479C2.56501 7.35408 3.08762 8.14805 3.84458 8.66399ZM9.63758 11.5822C10.4082 11.0689 11.0693 10.4078 11.5826 9.63724L16.0001 14.0547L14.0551 15.9997L9.63758 11.5822Z" fill="currentColor"/>
</g>
<defs>
<clipPath id="clip0_400_6362">
<rect width="16" height="16" fill="white"/>
</clipPath>
</defs>
</svg>
