<svg width="16" height="16" viewBox="0 0 16 16" fill="none" xmlns="http://www.w3.org/2000/svg">
<path d="M14.933 0H1.0665C0.783647 0 0.512378 0.112363 0.312371 0.312371C0.112363 0.512378 0 0.783647 0 1.0665L0 15C0 15.5525 0.4475 16 1 16H15C15.5525 16 16 15.5525 16 15V1.0665C16 0.783647 15.8876 0.512378 15.6876 0.312371C15.4876 0.112363 15.2164 0 14.9335 0L14.933 0ZM4.4995 12.56L2.4995 10.56L3.566 9.4935L4.5325 10.467L6.966 8.0005L8.0325 9.067L4.4995 12.56ZM4.4995 7.56L2.4995 5.56L3.533 4.4665L4.4995 5.44L6.966 2.9665L8.0325 4.033L4.4995 7.56ZM13.4995 11.2535H9.9995V9.747H13.4995V11.2535ZM13.4995 6.2535H9.9995V4.747H13.4995V6.2535Z" fill="#9DABC8"/>
</svg>
