<svg width="24" height="24" viewBox="0 0 24 24" fill="none" xmlns="http://www.w3.org/2000/svg">
<g clip-path="url(#clip0_862_9)">
<path d="M0.0224005 5.0394C0.0224005 6.48113 1.95258 7.81648 5.08653 8.53629C8.22102 9.25821 12.0835 9.25821 15.2175 8.53629C18.3519 7.81436 20.2821 6.48113 20.2821 5.0394C20.2843 2.80852 15.7487 1 10.1533 1C4.55852 1 0.0224005 2.80852 0.0224005 5.0394ZM13.8809 13.8285C15.3343 12.7196 16.9124 11.8246 19.673 11.731C20.1477 11.3404 20.3024 10.9471 20.336 10.3406V6.67378C20.1947 8.84909 15.7236 10.6063 10.2051 10.6063C4.68599 10.6063 0.0202673 8.79616 0.0202673 6.5674V10.0489C0.0202673 12.2952 4.56279 14.1058 10.1512 14.1058C11.6222 14.11 12.6633 14.0592 13.8809 13.8279V13.8285ZM0.0224005 11.4446V14.9262C0.0224005 17.1544 4.56492 18.965 10.1507 18.965H10.892C10.9838 17.7408 11.651 16.4526 12.5155 15.4015C11.6488 15.4946 11.0243 15.5528 10.1533 15.5528C4.56492 15.5549 0.0224005 13.7443 0.0224005 11.4446ZM10.1421 20.5206C4.52919 20.5206 0 18.7809 0 16.4875V19.9648C0 22.1915 4.54732 24 10.1421 24H11.5395C10.9592 22.9864 10.78 21.8623 10.78 20.5227H10.1421V20.5206Z" fill="#FCBA57"/>
<path d="M13.3355 23.5283C13.3312 23.5628 13.3362 23.5978 13.35 23.6298C13.3638 23.6617 13.386 23.6894 13.4141 23.71C13.4423 23.7307 13.4755 23.7435 13.5104 23.7472C13.5452 23.7509 13.5804 23.7453 13.6123 23.731C13.783 23.658 15.3846 22.9625 16.1313 22.6397L13.6384 20.8169C13.5451 21.6388 13.3488 23.3939 13.3355 23.5283ZM20.141 21.162C20.141 21.371 20.3127 21.5393 20.5234 21.5393H23.5731C23.6743 21.5395 23.7714 21.4998 23.8431 21.4289C23.9148 21.358 23.9552 21.2618 23.9555 21.1614C23.9551 21.0611 23.9146 20.965 23.8429 20.8943C23.7712 20.8236 23.6742 20.7839 23.5731 20.7841H20.5223C20.4215 20.7843 20.3249 20.8242 20.2536 20.8949C20.1822 20.9656 20.142 21.0614 20.1415 21.1614L20.141 21.162ZM21.7362 15.4845C21.8221 15.3687 21.8581 15.2239 21.8364 15.0818C21.8147 14.9397 21.737 14.8119 21.6205 14.7266L19.6397 13.279C19.5227 13.194 19.3766 13.1584 19.2332 13.18C19.0899 13.2016 18.961 13.2787 18.8748 13.3944L18.7127 13.6124L21.573 15.7031L21.7362 15.485V15.4845ZM18.486 13.9178L13.8806 20.1172L16.7414 22.2094L21.348 16.0084L18.486 13.9173V13.9178ZM23.6195 23.0033H17.5249C17.424 23.0033 17.3272 23.0431 17.2558 23.1139C17.1845 23.1847 17.1444 23.2808 17.1444 23.3809C17.1444 23.4811 17.1845 23.5771 17.2558 23.648C17.3272 23.7188 17.424 23.7586 17.5249 23.7586H23.6195C23.6695 23.7586 23.719 23.7488 23.7652 23.7298C23.8114 23.7108 23.8534 23.683 23.8888 23.6479C23.9241 23.6128 23.9522 23.5711 23.9713 23.5253C23.9905 23.4794 24.0003 23.4303 24.0003 23.3807C24.0003 23.331 23.9905 23.2819 23.9713 23.236C23.9522 23.1902 23.9241 23.1485 23.8888 23.1134C23.8534 23.0784 23.8114 23.0505 23.7652 23.0315C23.719 23.0125 23.6695 23.0028 23.6195 23.0028V23.0033Z" fill="#4BB2FF"/>
</g>
<defs>
<clipPath id="clip0_862_9">
<rect width="24" height="24" fill="white"/>
</clipPath>
</defs>
</svg>
