<svg width="24" height="24" viewBox="0 0 24 24" fill="none" xmlns="http://www.w3.org/2000/svg">
<path d="M20.8694 0C21.0293 0 21.1876 0.031836 21.3353 0.0936902C21.483 0.155545 21.6172 0.246206 21.7302 0.360498C21.8433 0.474789 21.933 0.610473 21.9941 0.759803C22.0553 0.909132 22.0868 1.06918 22.0868 1.23082L22.0871 12.6974C20.7927 11.6464 19.1817 11.0748 17.5216 11.0773C13.4875 11.0773 10.2173 14.3836 10.2173 18.4622C10.2147 20.2794 10.8773 22.0332 12.0775 23.3858L3.21738 23.3855C2.89451 23.3855 2.58487 23.2558 2.35656 23.025C2.12826 22.7942 2 22.4811 2 22.1547V1.23082C2 0.904383 2.12826 0.59132 2.35656 0.360498C2.58487 0.129675 2.89451 0 3.21738 0H20.8694ZM10.5217 8.308H6.56518C6.32752 8.30777 6.09913 8.40124 5.92855 8.56856C5.75797 8.73587 5.65864 8.96384 5.65166 9.20403C5.64469 9.44421 5.73062 9.67768 5.8912 9.85482C6.05178 10.032 6.27435 10.1388 6.51162 10.1527L6.56518 10.1542H10.5217C10.7593 10.1545 10.9877 10.061 11.1583 9.89367C11.3289 9.72636 11.4282 9.49839 11.4352 9.2582C11.4422 9.01802 11.3562 8.78455 11.1957 8.60741C11.0351 8.43027 10.8125 8.32341 10.5752 8.30954L10.5217 8.308ZM15.9999 4.00015H6.56518C6.32752 3.99992 6.09913 4.09339 5.92855 4.2607C5.75797 4.42802 5.65864 4.65599 5.65166 4.89617C5.64469 5.13636 5.73062 5.36982 5.8912 5.54697C6.05178 5.72411 6.27435 5.83097 6.51162 5.84483L6.56518 5.84637H15.9999C16.2376 5.8466 16.466 5.75313 16.6365 5.58582C16.8071 5.4185 16.9064 5.19054 16.9134 4.95035C16.9204 4.71017 16.8345 4.4767 16.6739 4.29955C16.5133 4.12241 16.2907 4.01555 16.0535 4.00169L15.9999 4.00015Z" fill="#6B57FE"/>
<path d="M17.5212 12.9219C20.5467 12.9219 22.9994 15.4017 22.9994 18.4605C22.9994 21.5194 20.5467 23.9992 17.5212 23.9992C14.4957 23.9992 12.043 21.5194 12.043 18.4605C12.043 15.4017 14.4957 12.9219 17.5212 12.9219ZM17.5212 15.2297C17.328 15.2296 17.1421 15.3039 17.0011 15.4374C16.86 15.5709 16.7745 15.7536 16.7618 15.9485L16.7603 15.9989V18.4605L16.7618 18.511C16.774 18.6971 16.8526 18.8724 16.983 19.0043C17.1135 19.1362 17.2869 19.2157 17.471 19.228L17.5212 19.2298H19.6516L19.7015 19.2283C19.8856 19.216 20.059 19.1365 20.1894 19.0046C20.3199 18.8727 20.3985 18.6974 20.4106 18.5113L20.4125 18.4605L20.411 18.4101C20.3988 18.224 20.3202 18.0487 20.1898 17.9168C20.0593 17.7849 19.8859 17.7054 19.7018 17.6931L19.6516 17.6913H18.2821V15.9989L18.2805 15.9485C18.2679 15.7536 18.1823 15.5709 18.0413 15.4374C17.9003 15.3039 17.7144 15.2296 17.5212 15.2297Z" fill="#FFBA00"/>
</svg>
