<svg width="25" height="24" viewBox="0 0 25 24" fill="none" xmlns="http://www.w3.org/2000/svg">
<g clip-path="url(#clip0_833_217)">
<path d="M24.2554 11.9993C24.4418 11.9993 24.5053 12.0304 24.4997 12.2365C24.3726 15.7233 23.037 18.6469 20.4435 20.979C18.6392 22.6024 16.5088 23.5525 14.1102 23.8941C13.8843 23.9252 13.6485 23.9139 13.4353 24H12.0729C11.9176 23.9379 11.7553 24.0071 11.6 23.9633C9.23096 23.7939 7.11325 22.9723 5.22566 21.5465C4.84371 21.263 4.48492 20.9495 4.15269 20.6091C4.05951 20.5103 3.99739 20.5033 3.89715 20.6091C3.57808 20.9395 3.24631 21.2656 2.923 21.5903C2.84677 21.6665 2.79029 21.7526 2.64629 21.7088C2.50511 21.658 2.50934 21.5592 2.50511 21.4533C2.43452 20.4087 2.35969 19.3654 2.29051 18.3222C2.26228 17.8281 2.22134 17.3411 2.19733 16.8484C2.18322 16.5971 2.2651 16.5237 2.50934 16.5421L6.64453 17.286C6.76453 17.2917 6.86336 17.2917 6.91842 17.4413C6.97489 17.5924 6.87607 17.6432 6.80547 17.7124C6.48217 18.0356 6.16451 18.3674 5.82709 18.6864C5.72121 18.7852 5.72685 18.8417 5.82709 18.9405C6.86336 19.9428 9.01495 21.2515 10.7967 21.5465C13.9944 22.0773 17.0114 21.0355 19.2548 18.6864C20.6722 17.1999 21.8525 14.8424 22.0346 12.787C22.0488 12.6557 22.0601 12.5244 22.0657 12.3917C22.0657 12.0445 22.0657 12.0106 22.3537 12.0064H23.0215C23.4168 12.0078 23.6893 12.0092 24.2554 12.0007V11.9993ZM18.4557 7.53838L18.6336 7.8066C19.4341 9.09123 19.8238 10.4973 19.8379 11.7268C19.8308 15.249 17.8077 18.1825 14.874 19.2059C11.6042 20.3466 8.08316 19.0295 6.25628 15.9816C4.27128 12.6811 5.05625 8.32892 8.07045 5.92906C11.3317 3.32028 16.0825 4.08964 18.4557 7.53838ZM12.5261 6.99912C12.2706 6.99912 11.9572 6.90877 11.7708 7.02735C11.6324 7.11205 11.7369 7.46497 11.7369 7.69367C11.7369 7.8546 11.7002 7.9153 11.5209 7.95765C10.9874 8.07569 10.5088 8.36889 10.1614 8.79052C9.81389 9.21215 9.61757 9.73794 9.60368 10.2841C9.59514 10.8302 9.76867 11.3637 10.0969 11.8002C10.4251 12.2368 10.8894 12.5517 11.4164 12.6953C11.9303 12.8392 12.4499 12.763 12.9723 12.7842C13.204 12.7867 13.4256 12.8796 13.5899 13.0431C13.7542 13.2066 13.8481 13.4277 13.8518 13.6594C13.8526 13.8917 13.7622 14.1149 13.6001 14.2812C13.438 14.4475 13.2171 14.5436 12.985 14.5488C12.6659 14.5629 12.3412 14.5544 12.0207 14.5488C11.8269 14.5491 11.6393 14.481 11.4908 14.3565C11.3423 14.232 11.2425 14.0592 11.2089 13.8684C11.1807 13.7215 11.1185 13.6947 10.9858 13.6947C10.6046 13.7018 10.2235 13.7088 9.83945 13.6947C9.64462 13.6806 9.61779 13.7568 9.63191 13.9291C9.70815 14.9455 10.5072 15.8334 11.5491 16.0551C11.6677 16.0833 11.7284 16.0974 11.7284 16.2428C11.7355 16.4997 11.6127 16.8611 11.7793 16.9868C11.9219 17.0969 12.1816 17.0461 12.4216 17.0263L12.5628 17.0206H12.5911C12.6297 17.0198 12.6683 17.0208 12.7068 17.0235L12.9525 17.0418C13.0725 17.0489 13.1798 17.0418 13.2419 16.9854C13.3887 16.8555 13.2843 16.5421 13.2843 16.3134C13.2843 16.1539 13.3054 16.0833 13.4918 16.0409C14.6241 15.7981 15.4443 14.7493 15.4076 13.6312C15.3966 13.0626 15.1875 12.5157 14.8163 12.0849C14.4452 11.654 13.9353 11.3661 13.3746 11.2709C12.9313 11.1946 12.4922 11.2426 12.0475 11.2285C11.8155 11.2246 11.594 11.1315 11.4288 10.9685C11.2637 10.8055 11.1678 10.5852 11.1609 10.3533C11.1601 10.121 11.2505 9.89778 11.4126 9.73147C11.5747 9.56516 11.7956 9.46909 12.0278 9.46391C12.3383 9.4498 12.6518 9.4498 12.9638 9.46391C13.1645 9.46652 13.358 9.53965 13.5103 9.67049C13.6626 9.80134 13.764 9.98157 13.7967 10.1796C13.825 10.3123 13.8673 10.3462 13.993 10.3462C14.3897 10.3363 14.7878 10.3363 15.186 10.3462C15.3681 10.3547 15.3808 10.2912 15.3737 10.1373C15.3257 9.1237 14.5337 8.20046 13.4791 7.95765C13.3379 7.92942 13.2772 7.89554 13.2843 7.7346C13.2984 7.50027 13.3746 7.17275 13.249 7.03441C13.1035 6.88195 12.7774 7.00618 12.5275 6.99912H12.5261ZM12.9271 0C13.0824 0.062114 13.2447 -0.00705842 13.4 0.0367037C15.769 0.206106 17.8868 1.0277 19.7743 2.4535C20.1541 2.74007 20.5169 3.04641 20.8473 3.39086C20.9405 3.48968 21.0026 3.49674 21.1028 3.39086C21.4219 3.06053 21.7537 2.73443 22.077 2.40974C22.1532 2.33351 22.2097 2.2474 22.3537 2.29116C22.4949 2.34198 22.4907 2.4408 22.4949 2.54667C22.5655 3.59132 22.6403 4.63455 22.7095 5.67778C22.7377 6.17187 22.7787 6.6589 22.8027 7.15158C22.8168 7.40286 22.7349 7.47627 22.4907 7.45791L18.3555 6.71396C18.2355 6.70831 18.1366 6.70831 18.0816 6.55867C18.0251 6.40904 18.1239 6.3568 18.1945 6.28904C18.5178 5.96436 18.8355 5.63261 19.1729 5.31498C19.2788 5.21475 19.2731 5.15829 19.1729 5.05947C18.1366 4.05717 15.985 2.74854 14.2033 2.4535C11.0056 1.92271 7.98857 2.96453 5.74521 5.31357C4.32775 6.80007 3.14748 9.15758 2.96536 11.213C2.95124 11.3443 2.93995 11.4756 2.9343 11.6083C2.9343 11.9555 2.9343 11.9894 2.64629 11.9936H1.9785C1.5832 11.9922 1.31072 11.9908 0.744585 12.0007C0.558226 12.0007 0.494695 11.9696 0.500342 11.7635C0.627405 8.27669 1.96298 5.3531 4.55647 3.021C6.35793 1.39757 8.48976 0.447503 10.8884 0.105876C11.1143 0.0748191 11.3501 0.0861126 11.5633 0H12.9257H12.9271Z" fill="url(#paint0_linear_833_217)"/>
</g>
<defs>
<linearGradient id="paint0_linear_833_217" x1="0.5" y1="0" x2="17.8333" y2="18.6667" gradientUnits="userSpaceOnUse">
<stop stop-color="#EBCCA3"/>
<stop offset="1" stop-color="#D6AD7A"/>
</linearGradient>
<clipPath id="clip0_833_217">
<rect width="24" height="24" fill="white" transform="translate(0.5)"/>
</clipPath>
</defs>
</svg>
