<svg width="24" height="24" viewBox="0 0 24 24" fill="none" xmlns="http://www.w3.org/2000/svg">
<path d="M19.1179 0C19.8043 0 20.4626 0.26615 20.948 0.739899C21.4334 1.21365 21.7061 1.85619 21.7061 2.52617V11.9172C21.2044 11.4055 20.6018 10.998 19.9347 10.7193C19.2675 10.4406 18.5494 10.2964 17.8237 10.2954C14.7799 10.2954 12.3314 12.7862 12.3314 15.8366C12.3314 16.7296 12.5411 17.5923 12.9345 18.3653L13.0898 18.6495L11.7439 21.0216C11.592 21.2903 11.5264 21.5974 11.5555 21.903C11.5846 22.2086 11.707 22.4987 11.907 22.7356H3.58827C2.90182 22.7356 2.24348 22.4694 1.75809 21.9957C1.27269 21.5219 1 20.8794 1 20.2094V2.52617C1 1.85619 1.27269 1.21365 1.75809 0.739899C2.24348 0.26615 2.90182 0 3.58827 0H19.1179ZM17.8237 13.3054C17.4838 13.3054 17.1473 13.3707 16.8332 13.4977C16.5192 13.6246 16.2339 13.8107 15.9935 14.0453C15.7532 14.2798 15.5626 14.5583 15.4325 14.8648C15.3024 15.1713 15.2355 15.4998 15.2355 15.8315C15.2355 16.1633 15.3024 16.4918 15.4325 16.7983C15.5626 17.1047 15.7532 17.3832 15.9935 17.6178C16.2339 17.8524 16.5192 18.0385 16.8332 18.1654C17.1473 18.2924 17.4838 18.3577 17.8237 18.3577C18.5102 18.3577 19.1685 18.0916 19.6539 17.6178C20.1393 17.1441 20.412 16.5015 20.412 15.8315C20.412 15.1615 20.1393 14.519 19.6539 14.0453C19.1685 13.5715 18.5102 13.3054 17.8237 13.3054ZM9.25916 14.2729H4.94322C4.70297 14.2729 4.47255 14.366 4.30266 14.5318C4.13277 14.6977 4.03733 14.9225 4.03733 15.157C4.03733 15.3915 4.13277 15.6164 4.30266 15.7822C4.47255 15.9481 4.70297 16.0412 4.94322 16.0412H9.25916C9.49941 16.0412 9.72983 15.9481 9.89972 15.7822C10.0696 15.6164 10.1651 15.3915 10.1651 15.157C10.1651 14.9225 10.0696 14.6977 9.89972 14.5318C9.72983 14.366 9.49941 14.2729 9.25916 14.2729ZM12.6472 9.22054H4.94322C4.70299 9.22058 4.47262 9.31375 4.30277 9.47956C4.13292 9.64536 4.0375 9.87023 4.0375 10.1047C4.0375 10.3392 4.13292 10.564 4.30277 10.7298C4.47262 10.8956 4.70299 10.9888 4.94322 10.9889H12.6472C12.8874 10.9888 13.1178 10.8956 13.2877 10.7298C13.4575 10.564 13.5529 10.3392 13.5529 10.1047C13.5529 9.87023 13.4575 9.64536 13.2877 9.47956C13.1178 9.31375 12.8874 9.22058 12.6472 9.22054ZM17.8237 4.35512H4.94322C4.82425 4.3551 4.70643 4.37796 4.5965 4.42238C4.48657 4.4668 4.38669 4.53193 4.30255 4.61403C4.21841 4.69614 4.15167 4.79361 4.10614 4.90089C4.0606 5.00818 4.03716 5.12316 4.03716 5.23928C4.03716 5.35541 4.0606 5.47039 4.10614 5.57768C4.15167 5.68496 4.21841 5.78243 4.30255 5.86454C4.38669 5.94664 4.48657 6.01177 4.5965 6.05619C4.70643 6.10061 4.82425 6.12347 4.94322 6.12345H17.8237C18.064 6.1234 18.2943 6.03023 18.4642 5.86442C18.634 5.69862 18.7295 5.47375 18.7295 5.23928C18.7295 5.00482 18.634 4.77995 18.4642 4.61415C18.2943 4.44834 18.064 4.35517 17.8237 4.35512ZM17.8237 11.3678L18.0153 11.3716L18.0399 11.3728L17.8237 11.3678ZM18.0515 11.3741L18.2042 11.3842C18.6053 11.4196 18.9993 11.5106 19.3741 11.6545L19.4194 11.6709C19.6811 11.775 19.9317 11.904 20.1674 12.0562L20.2955 12.1408C20.6928 12.4149 21.0408 12.7512 21.3257 13.1361C21.4693 13.3288 21.597 13.5324 21.7074 13.7449C22.0335 14.3714 22.2186 15.0825 22.2186 15.8366C22.2186 16.5919 22.0335 17.3018 21.71 17.9257L21.7087 17.9283C21.5849 18.1656 21.4398 18.3917 21.2752 18.604L22.9407 21.5407C22.9992 21.6431 23.0151 21.7635 22.9853 21.877C22.9554 21.9905 22.882 22.0885 22.7803 22.1508C22.7214 22.1855 22.6548 22.2059 22.5861 22.2101L21.0642 22.3036C20.9954 22.3082 20.9286 22.3287 20.8694 22.3634C20.8103 22.3981 20.7604 22.446 20.7239 22.5032L19.8827 23.7978C19.8434 23.8614 19.7875 23.9136 19.7207 23.9491C19.6539 23.9846 19.5786 24.0021 19.5025 23.9998C19.4265 23.9975 19.3524 23.9754 19.288 23.936C19.2236 23.8965 19.1711 23.8409 19.136 23.7751L17.8237 21.4636L17.1741 22.608L16.5115 23.7751C16.476 23.8406 16.4235 23.8958 16.3591 23.935C16.2947 23.9743 16.2208 23.9962 16.1449 23.9985C16.069 24.0008 15.9939 23.9834 15.9271 23.9482C15.8603 23.913 15.8043 23.8611 15.7648 23.7978L14.9236 22.5032C14.8871 22.446 14.8372 22.3981 14.778 22.3634C14.7188 22.3287 14.6521 22.3082 14.5832 22.3036L13.06 22.2101C12.9415 22.2001 12.8318 22.1449 12.7548 22.0565C12.6777 21.968 12.6395 21.8535 12.6485 21.7377C12.6525 21.6686 12.6724 21.6013 12.7067 21.5407L14.3723 18.604C13.7568 17.8072 13.4255 16.8357 13.4289 15.8378C13.4289 13.4506 15.2678 11.5017 17.583 11.3741L17.8237 11.3678L18.0502 11.3741H18.0515Z" fill="url(#paint0_linear_862_14)"/>
<defs>
<linearGradient id="paint0_linear_862_14" x1="1" y1="0" x2="19.5419" y2="21.7191" gradientUnits="userSpaceOnUse">
<stop stop-color="#05DED6"/>
<stop offset="1" stop-color="#8FEE13"/>
</linearGradient>
</defs>
</svg>
