<svg width="25" height="24" viewBox="0 0 25 24" fill="none" xmlns="http://www.w3.org/2000/svg">
<path d="M22.4435 14.2699V18.1603H4.2832V14.2699H6.87303V8.32976C6.88728 5.21716 9.0901 2.62358 12.0212 2.00706L12.0632 1.99956V1.29979C12.0632 0.955065 12.2001 0.624458 12.4439 0.3807C12.6877 0.136942 13.0183 0 13.363 0C13.7077 0 14.0383 0.136942 14.2821 0.3807C14.5258 0.624458 14.6628 0.955065 14.6628 1.29979V1.99956C17.6456 2.62508 19.8529 5.23366 19.8529 8.35826V14.2999L22.4435 14.2699ZM13.3634 24C15.5122 24 17.2537 22.2584 17.2537 20.1096H9.47337C9.47337 22.2584 11.2145 24 13.3634 24Z" fill="url(#paint0_linear_868_763)"/>
<defs>
<linearGradient id="paint0_linear_868_763" x1="6.93555" y1="1" x2="20.4355" y2="19.5" gradientUnits="userSpaceOnUse">
<stop stop-color="#00D4F0"/>
<stop offset="1" stop-color="#0089CE"/>
</linearGradient>
</defs>
</svg>
