<svg width="24" height="24" viewBox="0 0 24 24" fill="none" xmlns="http://www.w3.org/2000/svg">
<path d="M11.6192 2.05867C11.0709 1.71913 9.27789 0.760222 8.2115 0.152537C7.27972 -0.377351 6.99704 0.760326 6.90824 1.53964C6.81954 2.32113 6.81954 3.33187 7.79633 3.33187H11.3825C12.3591 3.33187 12.3591 2.52286 11.6192 2.05867ZM17.9363 1.52298C17.8476 0.74367 17.5649 -0.394008 16.6324 0.135881C15.5646 0.74367 13.7729 1.70248 13.2247 2.04418C12.4832 2.50631 12.4832 3.31511 13.4622 3.31511H17.0476C18.0251 3.31521 18.0251 2.30375 17.9363 1.52298ZM22.8317 4.34592H13.2376V9.51859H22.8317C23.3981 9.51859 23.8571 9.04105 23.8571 8.45209V5.41252C23.857 4.82346 23.398 4.34592 22.8317 4.34592ZM11.6194 10.551H4.23366C3.11802 10.551 2.21355 11.4917 2.21355 12.6522V21.8987C2.21355 23.0592 3.11792 24 4.23366 24H11.6194V10.551ZM20.6234 10.551H13.2376V23.9999H20.6234C21.739 23.9999 22.6435 23.0591 22.6435 21.8986V12.6523C22.6434 11.4918 21.739 10.551 20.6234 10.551ZM11.6194 4.34592H2.02533C1.45906 4.34592 1 4.82346 1 5.41242V8.45209C1 9.04105 1.45906 9.51859 2.02533 9.51859H11.6194V4.34592Z" fill="url(#paint0_linear_833_222)"/>
<defs>
<linearGradient id="paint0_linear_833_222" x1="1" y1="0" x2="30.3741" y2="23.95" gradientUnits="userSpaceOnUse">
<stop stop-color="#FFAE52"/>
<stop offset="1" stop-color="#FF1F1F"/>
</linearGradient>
</defs>
</svg>
