<svg width="24" height="24" viewBox="0 0 24 24" fill="none" xmlns="http://www.w3.org/2000/svg">
<path d="M0 4.5C0 4.1717 0.0620785 3.84661 0.182691 3.54329C0.303304 3.23998 0.480088 2.96438 0.702951 2.73223C0.925814 2.50009 1.19039 2.31594 1.48158 2.1903C1.77276 2.06466 2.08485 2 2.40003 2H13.2001C13.8367 2 14.4471 2.26339 14.8972 2.73223C15.3473 3.20107 15.6002 3.83696 15.6002 4.5V7C15.6002 7.16417 15.5692 7.32673 15.5089 7.47841C15.4486 7.63009 15.3602 7.76791 15.2488 7.88401C15.1373 8.0001 15.005 8.09219 14.8594 8.15502C14.7138 8.21785 14.5578 8.25019 14.4002 8.25019C14.2425 8.25019 14.0865 8.21785 13.9409 8.15502C13.7953 8.09219 13.663 8.0001 13.5516 7.88401C13.4401 7.76791 13.3517 7.63009 13.2914 7.47841C13.2311 7.32673 13.2001 7.16417 13.2001 7V4.5H2.40003V19.5H13.2001V17C13.2001 16.8358 13.2311 16.6733 13.2914 16.5216C13.3517 16.3699 13.4401 16.2321 13.5516 16.116C13.663 15.9999 13.7953 15.9078 13.9409 15.845C14.0865 15.7821 14.2425 15.7498 14.4002 15.7498C14.5578 15.7498 14.7138 15.7821 14.8594 15.845C15.005 15.9078 15.1373 15.9999 15.2488 16.116C15.3602 16.2321 15.4486 16.3699 15.5089 16.5216C15.5692 16.6733 15.6002 16.8358 15.6002 17V19.5C15.6002 20.163 15.3473 20.7989 14.8972 21.2678C14.4471 21.7366 13.8367 22 13.2001 22H2.40003C2.08485 22 1.77276 21.9353 1.48158 21.8097C1.19039 21.6841 0.925814 21.4999 0.702951 21.2678C0.480088 21.0356 0.303304 20.76 0.182691 20.4567C0.0620785 20.1534 0 19.8283 0 19.5V4.5ZM18.3518 7.36625C18.5768 7.13191 18.882 7.00027 19.2002 7.00027C19.5184 7.00027 19.8236 7.13191 20.0486 7.36625L23.6487 11.1163C23.8736 11.3507 24 11.6685 24 12C24 12.3315 23.8736 12.6493 23.6487 12.8837L20.0486 16.6338C19.9379 16.7531 19.8055 16.8484 19.6591 16.9139C19.5127 16.9794 19.3552 17.0139 19.1959 17.0153C19.0366 17.0168 18.8785 16.9851 18.7311 16.9223C18.5836 16.8594 18.4496 16.7666 18.3369 16.6492C18.2242 16.5319 18.1351 16.3923 18.0748 16.2387C18.0145 16.0851 17.9841 15.9205 17.9855 15.7545C17.9869 15.5885 18.02 15.4245 18.0829 15.272C18.1458 15.1195 18.2372 14.9816 18.3518 14.8663L19.9034 13.25H8.40009C8.08183 13.25 7.7766 13.1183 7.55155 12.8839C7.32651 12.6495 7.20008 12.3315 7.20008 12C7.20008 11.6685 7.32651 11.3505 7.55155 11.1161C7.7766 10.8817 8.08183 10.75 8.40009 10.75H19.9034L18.3518 9.13375C18.1268 8.89934 18.0005 8.58146 18.0005 8.25C18.0005 7.91855 18.1268 7.60066 18.3518 7.36625Z" fill="url(#paint0_linear_862_15)"/>
<defs>
<linearGradient id="paint0_linear_862_15" x1="3.45018" y1="1.68689" x2="18.1714" y2="21.746" gradientUnits="userSpaceOnUse">
<stop stop-color="#FF4D50"/>
<stop offset="1" stop-color="#C50003"/>
</linearGradient>
</defs>
</svg>
