<svg width="24" height="24" viewBox="0 0 24 24" fill="none" xmlns="http://www.w3.org/2000/svg">
<path d="M14.7398 14.2471C13.3814 15.332 12.5455 15.8692 11.7001 15.8692C10.8913 15.8692 10.0742 15.3655 8.81087 14.3809L1.28736 21H22.466L14.8234 14.1823L14.7377 14.2471H14.7398ZM5.82132 12.0679C3.87209 10.5679 1.93162 9.05658 0 7.53397L0 20.0113C0.00543331 20.0486 0.01311 20.0856 0.0229885 20.1221L7.60397 13.4486C7.05434 13.0138 6.46499 12.5654 5.82132 12.0669V12.0679ZM23.9373 20.3018C23.9726 20.2092 23.9924 20.1114 23.9958 20.0123V7.00406C21.3307 9.07397 18.6716 11.1518 16.0188 13.2375L23.9373 20.3018Z" fill="url(#paint0_linear_862_12)"/>
<path d="M22.4963 3H1.49948C1.1382 3.09286 0.808471 3.28102 0.544711 3.54484C0.280951 3.80866 0.0928341 4.13847 0 4.49983V5.68192C2.21212 7.44304 4.61338 9.29613 6.6489 10.867C7.77116 11.7335 8.77743 12.5121 9.57471 13.1319C11.7147 14.8105 11.7147 14.8105 13.8986 13.064C15.8736 11.4847 21.1881 7.34897 24 5.16142V4.50192C23.9075 4.13951 23.719 3.80875 23.4543 3.54445C23.1897 3.28015 22.8588 3.09207 22.4963 3Z" fill="url(#paint1_linear_862_12)"/>
<defs>
<linearGradient id="paint0_linear_862_12" x1="1.91909" y1="3.8419" x2="22.3733" y2="20.993" gradientUnits="userSpaceOnUse">
<stop stop-color="#00D4F0"/>
<stop offset="1" stop-color="#0089CE"/>
</linearGradient>
<linearGradient id="paint1_linear_862_12" x1="1.91909" y1="3.8419" x2="22.3733" y2="20.993" gradientUnits="userSpaceOnUse">
<stop stop-color="#00D4F0"/>
<stop offset="1" stop-color="#0089CE"/>
</linearGradient>
</defs>
</svg>
