<svg width="24" height="24" viewBox="0 0 24 24" fill="none" xmlns="http://www.w3.org/2000/svg">
<path d="M1.27809 4.05558C0.906178 4.14269 0.576302 4.35164 0.343734 4.64742C0.111167 4.9432 -0.00996247 5.30784 0.000641511 5.68024V10.3576C0.307369 10.3591 0.609739 10.4284 0.884995 10.5602C1.16025 10.6921 1.40122 10.883 1.58977 11.1186C1.82919 11.357 2.01523 11.6412 2.13613 11.9533C2.25703 12.2653 2.31015 12.5983 2.29215 12.9314C2.27546 13.4693 2.07283 13.986 1.71708 14.3979C1.53077 14.6753 1.27607 14.9028 0.976229 15.0596C0.676392 15.2164 0.340982 15.2976 0.000641511 15.2957V19.3274C0.000740825 19.4538 0.0139779 19.5799 0.0401502 19.7037C0.107571 20.0726 0.309418 20.4055 0.608611 20.6411C0.907804 20.8767 1.28425 20.9993 1.66879 20.9863H5.44846V4H1.63367C1.51294 4.00098 1.39307 4.01972 1.27809 4.05558ZM23.8464 15.2829C22.5294 15.1888 21.8226 14.1755 21.7919 12.8715C21.7612 11.5675 22.5074 10.4345 23.842 10.3704C23.9649 10.3704 24 10.3276 24 10.2079V5.50495C23.9912 4.50023 23.4513 4 22.4328 4H6.54592V20.9991H22.3977C22.5444 21.0027 22.6911 20.9955 22.8367 20.9777C23.6708 20.8324 23.9561 20.3835 23.9605 19.5326C23.9605 17.9507 23.9605 17.023 23.9824 15.4453C23.9824 15.3256 23.9561 15.3 23.8464 15.2914V15.2829ZM18.8507 15.0691C18.8507 15.2959 18.7582 15.5134 18.5935 15.6737C18.4289 15.8341 18.2056 15.9242 17.9727 15.9242H10.0095C9.77667 15.9242 9.55335 15.8341 9.3887 15.6737C9.22405 15.5134 9.13155 15.2959 9.13155 15.0691V15.0392C9.13155 14.8124 9.22405 14.5949 9.3887 14.4345C9.55335 14.2742 9.77667 14.1841 10.0095 14.1841H17.9991C18.2319 14.1841 18.4552 14.2742 18.6199 14.4345C18.7845 14.5949 18.877 14.8124 18.877 15.0392V15.0691H18.8507ZM17.9727 10.7937H10.0051C9.77228 10.7937 9.54896 10.7036 9.38431 10.5432C9.21966 10.3829 9.12716 10.1654 9.12716 9.93857C9.12716 9.71179 9.21966 9.4943 9.38431 9.33394C9.54896 9.17358 9.77228 9.08349 10.0051 9.08349H17.9991C18.2319 9.08349 18.4552 9.17358 18.6199 9.33394C18.7845 9.4943 18.877 9.71179 18.877 9.93857C18.877 10.1654 18.7845 10.3829 18.6199 10.5432C18.4552 10.7036 18.2319 10.7937 17.9991 10.7937H17.9727Z" fill="url(#paint0_linear_862_11)"/>
<defs>
<linearGradient id="paint0_linear_862_11" x1="1.28571" y1="4" x2="22.4995" y2="23.006" gradientUnits="userSpaceOnUse">
<stop stop-color="#FF5DB3"/>
<stop offset="1" stop-color="#CC089B"/>
</linearGradient>
</defs>
</svg>
