<svg width="24" height="24" viewBox="0 0 24 24" fill="none" xmlns="http://www.w3.org/2000/svg">
<g clip-path="url(#clip0_833_231)">
<path d="M21.5314 12C21.5293 11.2724 21.4424 10.5475 21.2726 9.84L24 8.30657L21.2726 3.67971L18.5451 5.22686C17.462 4.21105 16.1538 3.46616 14.7274 3.05314V0H9.27257V3.05314C7.84905 3.47279 6.54225 4.21686 5.45486 5.22686L2.72743 3.67971L0 8.30657L2.72743 9.84C2.36383 11.2524 2.36383 12.7339 2.72743 14.1463L0 15.6806L2.72743 20.3066L5.45486 18.7731C6.54633 19.7745 7.85211 20.5133 9.27257 20.9331V24H14.7274V20.9331C16.1496 20.5174 17.4563 19.7781 18.5451 18.7731L21.2726 20.3066L24 15.6797L21.2726 14.1463C21.4423 13.4434 21.5289 12.7234 21.5314 12ZM11.9863 17.3331C10.9105 17.3341 9.85772 17.022 8.95629 16.4349C8.06372 15.8541 7.36429 15.0207 6.94714 14.0409C6.53459 13.0687 6.42641 11.9943 6.63686 10.9594C6.84965 9.92026 7.36951 8.96891 8.12914 8.22857C8.89751 7.47978 9.8683 6.97234 10.9217 6.76886C11.9795 6.56302 13.0743 6.66842 14.0734 7.07229C15.0651 7.47183 15.9167 8.15526 16.5214 9.03686C17.1196 9.90934 17.4401 10.9422 17.4411 12C17.4411 13.4143 16.8669 14.7711 15.8434 15.7714C14.8108 16.7754 13.4265 17.3359 11.9863 17.3331Z" fill="url(#paint0_linear_833_231)"/>
</g>
<defs>
<linearGradient id="paint0_linear_833_231" x1="-2.66667" y1="-6.23641e-08" x2="22.6667" y2="26" gradientUnits="userSpaceOnUse">
<stop offset="0.0308057" stop-color="#9DABC8"/>
<stop offset="1" stop-color="#5578BF"/>
</linearGradient>
<clipPath id="clip0_833_231">
<rect width="24" height="24" fill="white"/>
</clipPath>
</defs>
</svg>
