<svg width="25" height="24" viewBox="0 0 25 24" fill="none" xmlns="http://www.w3.org/2000/svg">
<g clip-path="url(#clip0_833_236)">
<path d="M12.5 0C5.876 0 0.5 5.376 0.5 12C0.5 18.624 5.876 24 12.5 24C19.124 24 24.5 18.624 24.5 12C24.5 5.376 19.124 0 12.5 0ZM22.028 10.8H17.876C17.744 7.764 17.096 5.052 16.124 3.108C19.28 4.392 21.596 7.308 22.028 10.8ZM2.972 13.2H7.124C7.256 16.236 7.904 18.948 8.876 20.892C5.72 19.608 3.416 16.692 2.972 13.2ZM7.124 10.8H2.972C3.404 7.308 5.72 4.392 8.876 3.108C7.904 5.052 7.268 7.764 7.124 10.8ZM14.132 19.5C13.724 20.4 13.304 20.988 12.956 21.312C12.788 21.468 12.668 21.54 12.596 21.576C12.536 21.6 12.512 21.6 12.5 21.6C12.488 21.6 12.464 21.6 12.404 21.576C12.332 21.54 12.212 21.468 12.044 21.312C11.696 20.988 11.276 20.4 10.868 19.5C10.172 17.94 9.656 15.744 9.524 13.2H15.464C15.344 15.744 14.828 17.94 14.132 19.5ZM9.524 10.8C9.644 8.256 10.16 6.06 10.868 4.5C11.276 3.6 11.696 3.012 12.044 2.688C12.212 2.532 12.332 2.46 12.404 2.424C12.464 2.4 12.488 2.4 12.5 2.4C12.512 2.4 12.536 2.4 12.596 2.424C12.668 2.46 12.788 2.532 12.956 2.688C13.304 3.012 13.724 3.6 14.132 4.5C14.828 6.06 15.344 8.256 15.476 10.8H9.524ZM16.124 20.892C17.084 18.948 17.732 16.236 17.876 13.2H22.028C21.596 16.692 19.28 19.608 16.124 20.892Z" fill="url(#paint0_linear_833_236)"/>
</g>
<defs>
<linearGradient id="paint0_linear_833_236" x1="0.5" y1="0" x2="24.4963" y2="0.418858" gradientUnits="userSpaceOnUse">
<stop stop-color="#097CFF"/>
<stop offset="1" stop-color="#0065D8"/>
</linearGradient>
<clipPath id="clip0_833_236">
<rect width="24" height="24" fill="white" transform="translate(0.5)"/>
</clipPath>
</defs>
</svg>
