<svg width="24" height="24" viewBox="0 0 24 24" fill="none" xmlns="http://www.w3.org/2000/svg">
<path d="M16.4265 21.9133C16.3889 22.2519 16.2511 22.5711 16.031 22.8294C15.8109 23.0877 15.5188 23.2731 15.1928 23.3612L13.0318 23.9457C12.6032 24.0579 12.1482 23.9947 11.7657 23.7697C11.3832 23.5448 11.1042 23.1763 10.9896 22.7447C10.875 22.3131 10.9341 21.8533 11.1539 21.4654C11.3737 21.0775 11.7365 20.7931 12.1631 20.674L14.3242 20.0895C14.6018 20.0142 14.8939 20.0123 15.1725 20.0838C15.4511 20.1554 15.7068 20.298 15.9151 20.498C17.5478 19.8351 18.9202 18.6502 19.8219 17.1248H19.2712C17.6236 17.1248 16.2881 15.7768 16.2881 14.1138V11.1029C16.2881 9.4399 17.6236 8.09194 19.2712 8.09194H20.017C20.1245 8.09194 20.231 8.09758 20.3358 8.10887C19.1957 4.71779 15.9003 2.25821 12 2.25821C8.09966 2.25821 4.80432 4.71779 3.66424 8.10887C3.76902 8.09758 3.87548 8.09194 3.98305 8.09194H4.72881C6.37639 8.09194 7.71186 9.4399 7.71186 11.1029V14.1138C7.71186 15.7768 6.37639 17.1248 4.72881 17.1248H3.98305C2.33548 17.1248 1 15.7768 1 14.1138V11.1029C1 11.0242 1.00298 10.9463 1.00876 10.8692C1.00289 10.8218 0.999963 10.7742 1 10.7265C1 4.7925 5.93434 0 12 0C18.0657 0 23 4.7925 23 10.7265C23 10.7749 22.997 10.8225 22.9912 10.8692C22.997 10.9463 23 11.0242 23 11.1029V14.1138C23 15.1201 22.5112 16.0107 21.76 16.5576C21.2771 17.7686 20.5553 18.8679 19.6384 19.7886C18.7215 20.7093 17.6287 21.4322 16.4265 21.9133Z" fill="url(#paint0_linear_862_13)"/>
<defs>
<linearGradient id="paint0_linear_862_13" x1="1" y1="0" x2="17.8243" y2="19.3696" gradientUnits="userSpaceOnUse">
<stop stop-color="#5EA9FF"/>
<stop offset="1" stop-color="#3958DE"/>
</linearGradient>
</defs>
</svg>
