<svg width="24" height="24" viewBox="0 0 24 24" fill="none" xmlns="http://www.w3.org/2000/svg">
<path d="M11.9733 22C11.2591 22 10.5925 21.6895 10.1005 21.1503L0.672889 10.6275C-0.200034 9.64706 -0.231777 8.14379 0.625275 7.13072L4.19633 2.89869C4.67247 2.3268 5.3708 2 6.11676 2H17.8774C18.6075 2 19.3058 2.3268 19.782 2.89869L23.3689 7.13072C24.226 8.14379 24.2101 9.64706 23.3213 10.6275L13.8302 21.1503C13.3541 21.6895 12.6716 22 11.9733 22Z" fill="url(#paint0_linear_833_196)"/>
<path d="M11.8462 16.0835C11.6875 16.0835 11.5129 16.0182 11.386 15.8874L5.19615 9.35148C4.95808 9.09005 4.95808 8.68155 5.21202 8.42011C5.46596 8.17501 5.86274 8.17501 6.11669 8.43645L11.8621 14.4985L17.9091 8.42011C18.163 8.17501 18.5598 8.17501 18.8138 8.43645C19.0518 8.69789 19.0518 9.10639 18.7979 9.36782L12.2906 15.9038C12.1637 16.0182 12.005 16.0835 11.8462 16.0835Z" fill="white"/>
<defs>
<linearGradient id="paint0_linear_833_196" x1="0" y1="2" x2="24.3275" y2="21.7232" gradientUnits="userSpaceOnUse">
<stop stop-color="#FFC738"/>
<stop offset="1" stop-color="#FF8008"/>
</linearGradient>
</defs>
</svg>
