<svg width="24" height="24" viewBox="0 0 24 24" fill="none" xmlns="http://www.w3.org/2000/svg">
<g clip-path="url(#clip0_833_202)">
<path d="M20.8286 6.76452C19.2156 6.76614 17.8883 8.08634 17.7178 9.78212L17.7163 9.7975L15.2922 10.4993C14.9451 10.0161 14.4865 9.64452 13.9568 9.42759L13.9358 9.4203V6.56054C15.1082 6.04816 15.9207 4.82671 15.9207 3.39966C15.9207 1.52175 14.5142 0 12.7785 0C11.0427 0 9.63621 1.52175 9.63621 3.39966C9.63621 4.82671 10.4487 6.04816 11.6001 6.55244L11.6211 6.56054V9.3345C11.3427 9.45187 11.1026 9.60081 10.8864 9.78212L10.8931 9.77646L6.28449 7.05673C6.28673 7.01302 6.28823 6.96202 6.28823 6.91103C6.28823 6.86003 6.28673 6.80904 6.28449 6.75804V6.76533C6.28449 4.88742 4.87796 3.36567 3.14224 3.36567C1.40653 3.36567 0 4.88742 0 6.76533C0 8.64324 1.40653 10.165 3.14224 10.165C3.94351 10.1634 4.67222 9.8315 5.21912 9.28836L5.21687 9.29079L9.68559 11.9563C9.67811 12.0405 9.67437 12.1384 9.67437 12.2372C9.67437 12.3359 9.67811 12.4339 9.68634 12.5302L9.68559 12.518C9.68709 12.9891 9.77462 13.4376 9.93323 13.8471L9.925 13.8245L6.43337 17.4937C6.0563 17.2986 5.61414 17.1837 5.14729 17.1804H5.14654C5.12859 17.1804 5.10764 17.1796 5.08669 17.1796C3.34574 17.1796 1.93472 18.7062 1.93472 20.5898C1.93472 22.4734 3.34574 24 5.08669 24C6.82764 24 8.23866 22.4734 8.23866 20.5898C8.23941 20.5623 8.24016 20.5299 8.24016 20.4983C8.24016 20.0483 8.15562 19.6201 8.00224 19.2308L8.00973 19.2518L11.5014 15.5826C11.8769 15.7736 12.3168 15.8845 12.7814 15.8845C12.7837 15.8845 12.7859 15.8845 12.7889 15.8845C13.0919 15.8821 13.3837 15.8311 13.6583 15.738L13.6373 15.7445L14.6346 17.4176C14.286 17.9535 14.0772 18.6196 14.0758 19.3384C14.0758 19.3417 14.0758 19.3457 14.0758 19.3489C14.0758 21.2325 15.4868 22.7591 17.2277 22.7591C18.9687 22.7591 20.3797 21.2325 20.3797 19.3489C20.3797 17.4654 18.9687 15.9388 17.2277 15.9388C16.9906 15.9396 16.7601 15.9711 16.5394 16.0294L16.5596 16.0246L15.4621 14.2219C15.6813 13.8391 15.8302 13.385 15.8795 12.8985L15.881 12.8839L18.3148 12.1821C18.8924 13.0361 19.8163 13.5849 20.8578 13.5849C22.5935 13.5849 24 12.0631 24 10.1852C24 8.30732 22.5935 6.78556 20.8578 6.78556C20.8473 6.78556 20.8368 6.78556 20.8271 6.78556H20.8286V6.76452Z" fill="url(#paint0_linear_833_202)"/>
</g>
<defs>
<linearGradient id="paint0_linear_833_202" x1="0" y1="0" x2="21.8636" y2="22.8362" gradientUnits="userSpaceOnUse">
<stop stop-color="#14E266"/>
<stop offset="1" stop-color="#00A47B"/>
</linearGradient>
<clipPath id="clip0_833_202">
<rect width="24" height="24" fill="white"/>
</clipPath>
</defs>
</svg>
