<svg width="153" height="27" viewBox="0 0 153 27" fill="none" xmlns="http://www.w3.org/2000/svg">
<path d="M15.1925 17.5814V5.96512H2.29529C1.71982 5.96512 1.24591 6.45349 1.24591 7.04651C1.24591 7.18605 1.27976 7.36046 1.34746 7.5L4.0894 13.6744C4.2248 14.0233 4.2248 14.407 4.02169 14.7209L0.162675 20.7558C-0.141984 21.2791 -0.00657998 21.9419 0.467335 22.2558C0.63659 22.3605 0.839696 22.4302 1.0428 22.4302H22.5721C23.1475 22.4302 23.6214 21.9419 23.6214 21.3488V19.3953H16.9528C15.9711 19.3953 15.1925 18.593 15.1925 17.5814Z" fill="#42BC91"/>
<path d="M152.797 20.7558L148.938 14.686C148.735 14.3721 148.701 13.9884 148.87 13.6395L151.612 7.46512C151.849 6.90698 151.612 6.27907 151.104 6.03488C150.969 5.96512 150.834 5.93023 150.664 5.93023H137.767V17.5465C137.767 18.5581 136.988 19.3605 136.007 19.3605H129.372V21.314C129.372 21.907 129.846 22.3953 130.421 22.3953H151.951C152.526 22.3953 153 21.907 153 21.314C152.966 21.1395 152.898 20.9651 152.797 20.7558Z" fill="#42BC91"/>
<path d="M17.9682 0H134.957C135.668 0 136.244 0.593023 136.244 1.32558V16.3605C136.244 17.093 135.668 17.686 134.957 17.686H17.9682C17.2573 17.686 16.6819 17.093 16.6819 16.3605V1.32558C16.6819 0.593023 17.2573 0 17.9682 0Z" fill="#42BC91"/>
<path d="M40.0391 6.31395H41.4608C42.104 6.31395 42.5779 6.4186 42.8826 6.59302C43.1872 6.76744 43.3226 7.08139 43.3226 7.5C43.3226 7.77907 43.2549 8.02326 43.1195 8.19767C42.9841 8.37209 42.8149 8.47674 42.6118 8.51163V8.54651C42.9164 8.61628 43.1195 8.72093 43.2211 8.93023C43.3565 9.10465 43.4242 9.34884 43.4242 9.66279C43.4242 10.0814 43.2888 10.4302 42.9841 10.6744C42.6795 10.9186 42.2733 11.0233 41.7655 11.0233H40.0729V6.31395H40.0391ZM41.0208 8.16279H41.5962C41.867 8.16279 42.0363 8.12791 42.1717 8.02326C42.3071 7.9186 42.341 7.81395 42.341 7.60465C42.341 7.43023 42.2733 7.2907 42.1379 7.22093C42.0024 7.15116 41.7993 7.11628 41.5285 7.11628H41.0208V8.16279ZM41.0208 10.186H41.6639C41.9347 10.186 42.1379 10.1163 42.2394 10.0116C42.3748 9.90698 42.4425 9.73256 42.4425 9.52325C42.4425 9.13953 42.1717 8.93023 41.6301 8.93023H41.0208V10.186Z" fill="#A8FFE0"/>
<path d="M44.3382 11.0233V6.31395H45.3199V10.186H47.1817V11.0233H44.3382Z" fill="#A8FFE0"/>
<path d="M50.736 11.0233L50.3975 9.90698H48.7388L48.4003 11.0233H47.3509L48.9419 6.31395H50.1267L51.7515 11.0233H50.736ZM50.1605 9.06977C49.8559 8.05814 49.6866 7.5 49.6528 7.36046C49.6189 7.22093 49.5851 7.11628 49.5851 7.04651C49.5174 7.32558 49.3143 7.98837 49.0096 9.06977H50.1605Z" fill="#A8FFE0"/>
<path d="M54.2904 7.08139C53.918 7.08139 53.6472 7.22093 53.4441 7.5C53.241 7.77907 53.1394 8.16279 53.1394 8.68605C53.1394 9.73256 53.5118 10.2558 54.2904 10.2558C54.595 10.2558 55.0012 10.186 55.4413 10.0116V10.8488C55.0689 11.0233 54.6627 11.093 54.1888 11.093C53.5118 11.093 53.004 10.8837 52.6655 10.4651C52.327 10.0465 52.1239 9.45349 52.1239 8.68605C52.1239 8.19767 52.2255 7.77907 52.3947 7.39535C52.564 7.01163 52.8009 6.73256 53.1394 6.55814C53.4779 6.38372 53.8503 6.27907 54.2904 6.27907C54.7304 6.27907 55.1705 6.38372 55.6106 6.59302L55.3059 7.39535C55.1366 7.32558 54.9674 7.25581 54.7981 7.18605C54.6289 7.11628 54.4596 7.08139 54.2904 7.08139Z" fill="#A8FFE0"/>
<path d="M60.0789 11.0233H58.9957L57.8109 9.03488L57.4047 9.34884V11.0233H56.423V6.31395H57.4047V8.47674L57.777 7.9186L58.9957 6.31395H60.0789L58.4879 8.40698L60.0789 11.0233Z" fill="#A8FFE0"/>
<path d="M60.1805 12.3837C59.9773 12.3837 59.7742 12.3488 59.605 12.314V11.4767C59.7742 11.5116 59.9096 11.5465 60.045 11.5465C60.2482 11.5465 60.4174 11.4767 60.4851 11.3372C60.5528 11.1977 60.6205 10.9884 60.6205 10.7093V6.31395H61.6022V10.7093C61.6022 11.2674 61.4668 11.686 61.2298 11.9651C60.9929 12.2442 60.6544 12.3837 60.1805 12.3837Z" fill="#A8FFE0"/>
<path d="M65.5628 11.0233L65.2243 9.90698H63.5656L63.227 11.0233H62.1777L63.7687 6.31395H64.9534L66.5783 11.0233H65.5628ZM64.9873 9.06977C64.6826 8.05814 64.5134 7.5 64.4795 7.36046C64.4457 7.22093 64.4118 7.11628 64.4118 7.04651C64.3441 7.32558 64.141 7.98837 63.8364 9.06977H64.9873Z" fill="#A8FFE0"/>
<path d="M69.0833 7.08139C68.7109 7.08139 68.4401 7.22093 68.237 7.5C68.0339 7.77907 67.9323 8.16279 67.9323 8.68605C67.9323 9.73256 68.3047 10.2558 69.0833 10.2558C69.3879 10.2558 69.7942 10.186 70.2342 10.0116V10.8488C69.8619 11.0233 69.4556 11.093 68.9817 11.093C68.3047 11.093 67.7969 10.8837 67.4584 10.4651C67.1199 10.0465 66.9168 9.45349 66.9168 8.68605C66.9168 8.19767 67.0184 7.77907 67.1876 7.39535C67.3569 7.01163 67.5938 6.73256 67.9323 6.55814C68.2708 6.38372 68.6432 6.27907 69.0833 6.27907C69.5233 6.27907 69.9634 6.38372 70.4035 6.59302L70.0988 7.39535C69.9296 7.32558 69.7603 7.25581 69.591 7.18605C69.4218 7.11628 69.2525 7.08139 69.0833 7.08139Z" fill="#A8FFE0"/>
<path d="M74.9057 11.0233H73.7886L72.6038 9.03488L72.1976 9.34884V11.0233H71.2159V6.31395H72.1976V8.47674L72.5699 7.9186L73.7886 6.31395H74.8718L73.2808 8.40698L74.9057 11.0233Z" fill="#A8FFE0"/>
<path d="M80.2541 7.77907C80.2541 8.26744 80.0849 8.68605 79.7802 8.93023C79.4755 9.2093 79.0355 9.34884 78.46 9.34884H78.0538V11.0233H77.0721V6.31395H78.5277C79.0693 6.31395 79.5094 6.45349 79.7802 6.69767C80.1187 6.94186 80.2541 7.2907 80.2541 7.77907ZM78.0877 8.51163H78.3923C78.697 8.51163 78.9001 8.44186 79.0693 8.33721C79.2047 8.23256 79.3063 8.02326 79.3063 7.81395C79.3063 7.56977 79.2386 7.39535 79.137 7.2907C79.0016 7.18605 78.8324 7.11628 78.5616 7.11628H78.1215V8.51163H78.0877Z" fill="#A8FFE0"/>
<path d="M83.91 11.0233L83.5715 9.90698H81.9128L81.5743 11.0233H80.5588L82.1498 6.31395H83.3346L84.9594 11.0233H83.91ZM83.3684 9.06977C83.0638 8.05814 82.8945 7.5 82.8607 7.36046C82.8268 7.22093 82.793 7.11628 82.793 7.04651C82.7253 7.32558 82.5221 7.98837 82.2175 9.06977H83.3684Z" fill="#A8FFE0"/>
<path d="M86.9566 8.23256L87.9045 6.31395H88.9538L87.4305 9.17442V10.9884H86.4827V9.2093L84.9594 6.31395H86.0088L86.9566 8.23256Z" fill="#A8FFE0"/>
<path d="M92.2035 9.69767C92.2035 10.1163 92.0681 10.4651 91.7635 10.7093C91.4588 10.9535 91.0526 11.0581 90.5448 11.0581C90.0709 11.0581 89.6309 10.9535 89.2585 10.7791V9.83721C89.5632 9.97674 89.834 10.0814 90.0371 10.1512C90.2402 10.2209 90.4433 10.2209 90.6125 10.2209C90.8156 10.2209 90.9849 10.186 91.0865 10.0814C91.188 10.0116 91.2557 9.87209 91.2557 9.69767C91.2557 9.59302 91.2218 9.52326 91.188 9.45349C91.1541 9.38372 91.0526 9.31395 90.9849 9.24419C90.8833 9.17442 90.6802 9.06977 90.4094 8.93023C90.1386 8.7907 89.9355 8.65116 89.8001 8.54651C89.6647 8.40698 89.5632 8.26744 89.4616 8.12791C89.3939 7.95349 89.3262 7.77907 89.3262 7.53488C89.3262 7.11628 89.4616 6.80233 89.7324 6.55814C90.0032 6.31395 90.3756 6.2093 90.8495 6.2093C91.0865 6.2093 91.3234 6.24419 91.5265 6.27907C91.7296 6.34884 91.9666 6.4186 92.2035 6.52326L91.8989 7.2907C91.6619 7.18605 91.4588 7.11628 91.2896 7.08139C91.1203 7.04651 90.9849 7.01163 90.8156 7.01163C90.6464 7.01163 90.4771 7.04651 90.4094 7.15116C90.3417 7.25581 90.274 7.36046 90.274 7.5C90.274 7.60465 90.3079 7.67442 90.3417 7.74419C90.3756 7.81395 90.4433 7.88372 90.5448 7.9186C90.6464 7.98837 90.8495 8.09302 91.1541 8.23256C91.5942 8.44186 91.865 8.65116 92.0343 8.86046C92.1358 9.13953 92.2035 9.38372 92.2035 9.69767Z" fill="#A8FFE0"/>
<path d="M97.3828 7.36046C97.3828 7.63953 97.2812 7.9186 97.1119 8.09302C96.9427 8.30233 96.7057 8.44186 96.4011 8.51163V8.54651C96.7734 8.58139 97.0442 8.72093 97.2473 8.89535C97.4504 9.06977 97.5182 9.31395 97.5182 9.62791C97.5182 10.0814 97.3489 10.4302 97.0442 10.6744C96.7396 10.9186 96.2657 11.0581 95.6902 11.0581C95.1824 11.0581 94.7424 10.9884 94.37 10.814V9.97674C94.5393 10.0814 94.7424 10.1512 94.9455 10.186C95.1486 10.2209 95.3517 10.2558 95.5886 10.2558C95.8933 10.2558 96.1303 10.186 96.2995 10.0814C96.4349 9.97674 96.5365 9.80232 96.5365 9.55814C96.5365 9.34884 96.4349 9.17442 96.2657 9.10465C96.0964 9 95.8256 8.96512 95.4194 8.96512H95.0809V8.19767H95.4194C95.7579 8.19767 96.0287 8.16279 96.198 8.05814C96.3672 7.95349 96.4349 7.81395 96.4349 7.56977C96.4349 7.22093 96.2318 7.04651 95.7917 7.04651C95.6563 7.04651 95.4871 7.08139 95.3517 7.11628C95.2163 7.15116 95.0132 7.25581 94.8439 7.39535L94.4039 6.69767C94.8101 6.38372 95.3178 6.24419 95.8933 6.24419C96.3672 6.24419 96.7396 6.34884 97.0104 6.52326C97.2812 6.69767 97.3828 7.01163 97.3828 7.36046Z" fill="#A8FFE0"/>
<path d="M101.75 11.0233H100.768V7.15116H99.5154V6.31395H102.968V7.15116H101.716V11.0233H101.75Z" fill="#A8FFE0"/>
<path d="M107.809 8.65116C107.809 9.4186 107.606 10.0116 107.233 10.4302C106.861 10.8488 106.319 11.0581 105.642 11.0581C104.965 11.0581 104.424 10.8488 104.051 10.4302C103.679 10.0116 103.476 9.4186 103.476 8.61628C103.476 7.84884 103.679 7.22093 104.051 6.83721C104.424 6.4186 104.965 6.2093 105.676 6.2093C106.387 6.2093 106.895 6.4186 107.267 6.83721C107.64 7.2907 107.809 7.88372 107.809 8.65116ZM104.491 8.65116C104.491 9.17442 104.593 9.55814 104.796 9.83721C104.999 10.1163 105.27 10.2209 105.676 10.2209C106.455 10.2209 106.827 9.69767 106.827 8.65116C106.827 7.60465 106.455 7.08139 105.676 7.08139C105.304 7.08139 104.999 7.22093 104.796 7.46512C104.593 7.74419 104.491 8.12791 104.491 8.65116Z" fill="#A8FFE0"/>
<path d="M110.111 11.0233V10.3256L111.262 9.13953C111.6 8.7907 111.837 8.54651 111.939 8.40698C112.04 8.26744 112.108 8.12791 112.176 8.02326C112.209 7.9186 112.243 7.77907 112.243 7.67442C112.243 7.5 112.21 7.36046 112.108 7.25581C112.006 7.15116 111.871 7.11628 111.702 7.11628C111.532 7.11628 111.363 7.15116 111.194 7.25581C111.025 7.32558 110.855 7.46512 110.686 7.60465L110.178 6.97674C110.415 6.76744 110.585 6.62791 110.72 6.55814C110.855 6.48837 111.025 6.4186 111.194 6.38372C111.363 6.34884 111.566 6.31395 111.769 6.31395C112.04 6.31395 112.311 6.38372 112.514 6.48837C112.717 6.59302 112.887 6.73256 113.022 6.94186C113.157 7.15116 113.191 7.36046 113.191 7.60465C113.191 7.81395 113.157 8.02326 113.09 8.19767C113.022 8.37209 112.887 8.5814 112.751 8.7907C112.582 9 112.311 9.27907 111.939 9.62791L111.363 10.186V10.2209H113.36V11.0233H110.111Z" fill="#A8FFE0"/>
<path d="M39.2267 26.9302V22.2209H40.2083V26.9302H39.2267Z" fill="#A8FFE0"/>
<path d="M44.1351 26.9302L42.1717 23.3721H42.1379C42.1717 24 42.2056 24.4535 42.2056 24.6977V26.8953H41.3593V22.2209H42.5779L44.5413 25.7442H44.5751C44.5413 25.1512 44.5413 24.6977 44.5413 24.4535V22.2209H45.4214V26.9302H44.1351Z" fill="#A8FFE0"/>
<path d="M49.2127 25.6046C49.2127 26.0233 49.0773 26.3721 48.7727 26.6163C48.468 26.8605 48.0618 26.9651 47.554 26.9651C47.0801 26.9651 46.64 26.8605 46.2677 26.686V25.7442C46.5723 25.8837 46.8431 25.9884 47.0463 26.0581C47.2494 26.1279 47.4525 26.1279 47.6217 26.1279C47.8248 26.1279 47.9941 26.093 48.0956 25.9884C48.1972 25.8837 48.2649 25.7791 48.2649 25.6046C48.2649 25.5 48.231 25.4302 48.1972 25.3605C48.1633 25.2907 48.0618 25.2209 47.9941 25.1512C47.8925 25.0814 47.6894 24.9767 47.4186 24.8372C47.1478 24.6977 46.9447 24.5581 46.7754 24.4535C46.64 24.314 46.5385 24.1744 46.4369 24.0349C46.3692 23.8605 46.3015 23.686 46.3015 23.4419C46.3015 23.0233 46.4369 22.7093 46.7077 22.4651C46.9786 22.2209 47.3509 22.1163 47.8248 22.1163C48.0618 22.1163 48.2987 22.1512 48.5018 22.186C48.705 22.2558 48.9419 22.3256 49.1789 22.4302L48.8742 23.1977C48.6372 23.093 48.4341 23.0233 48.2649 22.9884C48.0956 22.9535 47.9602 22.9186 47.791 22.9186C47.6217 22.9186 47.4525 22.9535 47.3848 23.0581C47.2832 23.1628 47.2494 23.2674 47.2494 23.407C47.2494 23.5116 47.2832 23.5814 47.3171 23.6512C47.3509 23.7209 47.4186 23.7907 47.5202 23.8256C47.6217 23.8953 47.8248 24 48.1295 24.1395C48.5695 24.3488 48.8404 24.5581 49.0096 24.7674C49.1112 25.0465 49.2127 25.2907 49.2127 25.6046Z" fill="#A8FFE0"/>
<path d="M53.7488 22.2209V25.2558C53.7488 25.6047 53.6811 25.9186 53.5118 26.1628C53.3764 26.407 53.1394 26.6163 52.8686 26.7558C52.5978 26.8953 52.2593 26.9651 51.8531 26.9651C51.2776 26.9651 50.8037 26.8256 50.4991 26.5116C50.1605 26.1977 50.0251 25.7791 50.0251 25.2558V22.2209H50.973V25.0814C50.973 25.4302 51.0407 25.7093 51.1761 25.8837C51.3115 26.0581 51.5484 26.1279 51.887 26.1279C52.1916 26.1279 52.4286 26.0581 52.564 25.8837C52.6994 25.7093 52.7671 25.4302 52.7671 25.0814V22.2209H53.7488Z" fill="#A8FFE0"/>
<path d="M55.8137 26.9302H54.832V22.2209H56.1522C56.7615 22.2209 57.2354 22.3256 57.5401 22.5698C57.8447 22.814 57.9801 23.1628 57.9801 23.6163C57.9801 23.8953 57.9124 24.1395 57.7432 24.3488C57.6078 24.5581 57.3708 24.7326 57.1 24.8372C57.777 25.8837 58.2171 26.5814 58.4541 26.8953H57.3708L56.2876 25.0814H55.8137V26.9302ZM56.1183 24.3139C56.423 24.3139 56.6599 24.2791 56.7954 24.1395C56.9308 24.0349 56.9985 23.8605 56.9985 23.6512C56.9985 23.4419 56.9308 23.2674 56.7615 23.1628C56.6261 23.0581 56.3891 23.0233 56.0845 23.0233H55.7798V24.3139H56.1183Z" fill="#A8FFE0"/>
<path d="M61.8392 26.9302L61.5006 25.814H59.8419L59.5034 26.9302H58.4541L60.045 22.2209H61.2298L62.8547 26.9302H61.8392ZM61.2975 24.9767C60.9929 23.9651 60.8236 23.407 60.7898 23.2674C60.7559 23.1279 60.7221 23.0233 60.7221 22.9535C60.6544 23.2326 60.4513 23.8953 60.1466 24.9767H61.2975Z" fill="#A8FFE0"/>
<path d="M66.3075 26.9302L64.3103 23.3721H64.2764C64.3103 24 64.3441 24.4535 64.3441 24.6977V26.8953H63.4979V22.2209H64.7165L66.6799 25.7442H66.7137C66.6799 25.1512 66.6799 24.6977 66.6799 24.4535V22.2209H67.56V26.9302H66.3075Z" fill="#A8FFE0"/>
<path d="M70.6066 22.9884C70.2342 22.9884 69.9634 23.1279 69.7603 23.407C69.5572 23.686 69.4556 24.0698 69.4556 24.593C69.4556 25.6395 69.828 26.1628 70.6066 26.1628C70.9112 26.1628 71.3174 26.093 71.7575 25.9186V26.7558C71.3852 26.9302 70.9789 27 70.505 27C69.828 27 69.3202 26.7907 68.9817 26.3721C68.6432 25.9535 68.4401 25.3605 68.4401 24.593C68.4401 24.1046 68.5417 23.686 68.7109 23.3023C68.8802 22.9186 69.1171 22.6395 69.4556 22.4651C69.7941 22.2907 70.1665 22.186 70.6066 22.186C71.0466 22.186 71.4867 22.2907 71.9268 22.5L71.6221 23.3023C71.4529 23.2326 71.2836 23.1628 71.1143 23.093C70.9451 23.0233 70.742 22.9884 70.6066 22.9884Z" fill="#A8FFE0"/>
<path d="M75.3457 26.9302H72.7053V22.2209H75.3457V23.0233H73.687V24.0698H75.2442V24.8721H73.687V26.093H75.3457V26.9302Z" fill="#A8FFE0"/>
<path d="M81.1004 23.686C81.1004 24.1744 80.9311 24.593 80.6265 24.8372C80.3218 25.1163 79.8818 25.2558 79.3063 25.2558H78.9001V26.9302H77.9184V22.2209H79.374C79.9156 22.2209 80.3557 22.3605 80.6265 22.6047C80.965 22.8488 81.1004 23.1977 81.1004 23.686ZM78.9339 24.4186H79.2386C79.5433 24.4186 79.7464 24.3488 79.9156 24.2442C80.051 24.1395 80.1526 23.9302 80.1526 23.7209C80.1526 23.4767 80.0849 23.3023 79.9833 23.1977C79.8479 23.093 79.6787 23.0233 79.4078 23.0233H78.9678V24.4186H78.9339Z" fill="#A8FFE0"/>
<path d="M84.7563 26.9302L84.4178 25.814H82.7591L82.4206 26.9302H81.3712L82.9622 22.2209H84.147L85.7718 26.9302H84.7563ZM84.1808 24.9767C83.8762 23.9651 83.7069 23.407 83.6731 23.2674C83.6392 23.1279 83.6054 23.0233 83.6054 22.9535C83.5377 23.2326 83.3346 23.8953 83.0299 24.9767H84.1808Z" fill="#A8FFE0"/>
<path d="M87.769 24.1395L88.7169 22.2209H89.7663L88.243 25.0814V26.8953H87.2951V25.1163L85.7718 22.2209H86.8212L87.769 24.1395Z" fill="#A8FFE0"/>
<path d="M93.0498 25.6046C93.0498 26.0233 92.9144 26.3721 92.6097 26.6163C92.3051 26.8605 91.8989 26.9651 91.3911 26.9651C90.9172 26.9651 90.4771 26.8605 90.1048 26.686V25.7442C90.4094 25.8837 90.6802 25.9884 90.8833 26.0581C91.0865 26.1279 91.2896 26.1279 91.4588 26.1279C91.6619 26.1279 91.8312 26.093 91.9327 25.9884C92.0343 25.9186 92.102 25.7791 92.102 25.6046C92.102 25.5 92.0681 25.4302 92.0343 25.3605C92.0004 25.2907 91.8989 25.2209 91.8312 25.1512C91.7296 25.0814 91.5265 24.9767 91.2557 24.8372C90.9849 24.6977 90.7818 24.5581 90.6464 24.4535C90.511 24.314 90.4094 24.1744 90.3079 24.0349C90.2402 23.8605 90.1725 23.686 90.1725 23.4419C90.1725 23.0233 90.3079 22.7093 90.5787 22.4651C90.8495 22.2209 91.2219 22.1163 91.6958 22.1163C91.9327 22.1163 92.1697 22.1512 92.3728 22.186C92.5759 22.2558 92.8129 22.3256 93.0498 22.4302L92.7452 23.1977C92.5082 23.093 92.3051 23.0233 92.1358 22.9884C91.9666 22.9535 91.8312 22.9186 91.6619 22.9186C91.4927 22.9186 91.3234 22.9535 91.2557 23.0581C91.188 23.1628 91.1203 23.2674 91.1203 23.407C91.1203 23.5116 91.1542 23.5814 91.188 23.6512C91.2219 23.7209 91.2896 23.7907 91.3911 23.8256C91.4927 23.8953 91.6958 24 92.0004 24.1395C92.4405 24.3488 92.7113 24.5581 92.8806 24.7674C92.9483 25.0465 93.0498 25.2907 93.0498 25.6046Z" fill="#A8FFE0"/>
<path d="M95.2163 26.9302V26.2326L96.3672 25.0465C96.7057 24.6977 96.9427 24.4535 97.0442 24.3139C97.1458 24.1744 97.2135 24.0349 97.2812 23.9302C97.315 23.8256 97.3489 23.686 97.3489 23.5814C97.3489 23.407 97.315 23.2674 97.2135 23.1628C97.1119 23.0581 96.9765 23.0233 96.8073 23.0233C96.638 23.0233 96.4688 23.0581 96.2995 23.1628C96.1303 23.2326 95.961 23.3721 95.7917 23.5116L95.284 22.8837C95.5209 22.6744 95.6902 22.5349 95.8256 22.4651C95.961 22.3953 96.1303 22.3256 96.2995 22.2907C96.4688 22.2558 96.6719 22.2209 96.875 22.2209C97.1458 22.2209 97.4166 22.2907 97.6197 22.3953C97.8228 22.5 97.9921 22.6395 98.1275 22.8488C98.2629 23.0581 98.2967 23.2674 98.2967 23.5116C98.2967 23.7209 98.2629 23.9302 98.1952 24.1046C98.1275 24.2791 97.9921 24.4884 97.8567 24.6977C97.6874 24.907 97.4166 25.186 97.0442 25.5349L96.4688 26.093V26.1279H98.466V26.9302H95.2163Z" fill="#A8FFE0"/>
<path d="M102.562 26.9302H101.58V23.0581H100.328V22.2209H103.781V23.0581H102.562V26.9302Z" fill="#A8FFE0"/>
<path d="M108.655 24.5581C108.655 25.3256 108.452 25.9186 108.08 26.3372C107.707 26.7558 107.166 26.9651 106.489 26.9651C105.812 26.9651 105.27 26.7558 104.898 26.3372C104.525 25.9186 104.322 25.3256 104.322 24.5233C104.322 23.7558 104.525 23.1279 104.898 22.7442C105.27 22.3256 105.812 22.1163 106.523 22.1163C107.233 22.1163 107.741 22.3256 108.114 22.7442C108.452 23.1977 108.655 23.7907 108.655 24.5581ZM105.338 24.5581C105.338 25.0814 105.439 25.4651 105.642 25.7442C105.846 26.0233 106.116 26.1279 106.523 26.1279C107.301 26.1279 107.673 25.6046 107.673 24.5581C107.673 23.5116 107.301 22.9884 106.523 22.9884C106.15 22.9884 105.846 23.1279 105.642 23.3721C105.405 23.6512 105.338 24.0349 105.338 24.5581Z" fill="#A8FFE0"/>
<path d="M113.327 26.9302H112.379V23.2674C112.209 23.4419 112.108 23.5465 112.04 23.5814L111.532 24L111.059 23.407L112.514 22.186H113.293V26.9302H113.327Z" fill="#A8FFE0"/>
</svg>
