<svg id="eQcZgFBMHn91" xmlns="http://www.w3.org/2000/svg" xmlns:xlink="http://www.w3.org/1999/xlink" viewBox="0 0 130 130" shape-rendering="geometricPrecision" text-rendering="geometricPrecision" project-id="e1f16cfe00434772b7ec6ad956ca9eb0" export-id="89c281ae16c445e280c5b39f5a351ffc" cached="false"><g id="eQcZgFBMHn92" transform="translate(-.467071-.401641)" clip-path="url(#eQcZgFBMHn9100)"><g><g transform="matrix(.124996 0.001-.001 0.124996 10.4849-2.30507)"><g transform="translate(.00323 0.403763)"><g transform="translate(443.879 501.055)"><path d="M321.987,117.495003c0,0-.177002-1.386002-.177002-1.386002s-54.649994-183.241005-54.649994-183.241005-.295014-.510994-.295014-.510994-174.619987-203.040992-174.619987-203.040992-92.170003-107.173005-92.170003-107.173005s0-.175018,0-.175018-.075.088013-.075.088013-.075-.088013-.075-.088013s0,.175018,0,.175018-92.170003,107.173005-92.170003,107.173005-174.619987,203.040992-174.619987,203.040992-.295014.510994-.295014.510994-54.649994,183.241005-54.649994,183.241005-.177002,1.386002-.177002,1.386002-21.868988,178.704002-21.868988,178.704002s1.539002.583008,1.539002.583008.832001.314972.832001.314972s160.70198,60.715027,160.70198,60.715027.029999.105987.029999.105987s178.472006,20.114991,178.472006,20.114991s4.562,0,4.562,0s178.472006-20.114991,178.472006-20.114991.029999-.105987.029999-.105987s160.70198-60.715027,160.70198-60.715027.832001-.314972.832001-.314972s1.539002-.583008,1.539002-.583008-21.868988-178.704002-21.868988-178.704002Z" fill="#fde22e"/></g><g transform="translate(242.307 598.508)"><path d="M-57.706001,72.609001c0,0,35.464,30.907997,35.464,30.907997s79.948002-207.033996,79.948002-207.033996-115.412002,176.125999-115.412002,176.125999Z" fill="#fdcf2e"/></g><g transform="translate(332.011 738.989)"><path d="M111.939003,4.02c0,0-223.883003-40.984001-223.883003-40.984001s20.295997,73.928002,20.295997,73.928002s203.592003-32.785001,203.592003-32.785001s0-.16,0-.16-.004997.001-.004997.001Z" fill="#fdcf2e"/></g><g transform="translate(371.984 373.118)"><path d="M71.970001,-97.788002c0,0-49.457001-24.084-49.457001-24.084s-94.483001,243.744004-94.483001,243.744004s143.940002-219.660004,143.940002-219.660004Z" fill="#fdcf2e"/></g><g transform="translate(443.88 509.077)"><path d="M223.817993,192.932007c0,0-79.951996-207.019007-79.951996-207.019007s-143.790997-219.429998-143.790997-219.429998s0-.231003,0-.231003-.075.115997-.075.115997-.076-.115997-.076-.115997c-.042.141998-.083.283005-.126.423996c0,0-143.663997,219.237005-143.663997,219.237005s-79.951996,207.019007-79.951996,207.019007s16.829986,3.082001,16.829986,3.082001s206.898007,37.702987,206.898007,37.702987c.005.011002.01.021012.014.029999c0,0,.076-.013.076-.013s.075.013.075.013s0-.026001,0-.026001s206.913007-37.706985,206.913007-37.706985s16.829986-3.082001,16.829986-3.082001Z" fill="#fdcf2e"/></g><g transform="translate(443.879 199.502)"><path d="M0.076,75.753998c0,0,49.306-24.011997,49.306-24.011997s-49.306-127.195004-49.306-127.195004s0-.357994,0-.357994-.007-.016006-.007-.016006-.068.178001-.068.178001-.07-.178001-.07-.178001-.006.016006-.006.016006c-.041.223999-.076.434998-.117.658997c0,0-49.19,126.894001-49.19,126.894001s49.271,23.994999,49.271,23.994999c.012.028999.023.060997.036.090003c0,0,.076-.036003.076-.036003s.075.036003.075.036003s0-.073005,0-.073005Z" fill="#fdcf2e"/></g><g transform="translate(515.774 373.118)"><path d="M-71.970001,-97.788002c0,0,49.457001-24.084,49.457001-24.084s94.484001,243.744004,94.484001,243.744004-143.941002-219.660004-143.941002-219.660004Z" fill="#fdcf2e"/></g><g transform="translate(443.879 501.055)"><g mask="url(#eQcZgFBMHn923)"><path id="eQcZgFBMHn922" d="M1.805569,-120.326282Q-352.46295,457.781442,-351.87928,457.781442t203.147782,88.236925L177.877696,31.796018Q0.572577,-120.326281,1.805569,-120.326282Z" transform="translate(-386.547712-316.917759)" fill="rgba(255,255,255,0.73)" stroke-width="0.5"/><mask id="eQcZgFBMHn923" mask-type="luminance" x="-150%" y="-150%" height="400%" width="400%"><path d="M321.987,117.495003c0,0-.177002-1.386002-.177002-1.386002s-54.649994-183.241005-54.649994-183.241005-.295014-.510994-.295014-.510994-174.619987-203.040992-174.619987-203.040992-92.170003-107.173005-92.170003-107.173005s0-.175018,0-.175018-.075.088013-.075.088013-.075-.088013-.075-.088013s0,.175018,0,.175018-92.170003,107.173005-92.170003,107.173005-174.619987,203.040992-174.619987,203.040992-.295014.510994-.295014.510994-54.649994,183.241005-54.649994,183.241005-.177002,1.386002-.177002,1.386002-21.868988,178.704002-21.868988,178.704002s1.539002.583008,1.539002.583008.832001.314972.832001.314972s160.70198,60.715027,160.70198,60.715027.029999.105987.029999.105987s178.472006,20.114991,178.472006,20.114991s4.562,0,4.562,0s178.472006-20.114991,178.472006-20.114991.029999-.105987.029999-.105987s160.70198-60.715027,160.70198-60.715027.832001-.314972.832001-.314972s1.539002-.583008,1.539002-.583008-21.868988-178.704002-21.868988-178.704002Z" fill="#fde22e"/></mask></g></g><g><g transform="translate(645.452 598.508)"><path d="M57.707001,72.609001c0,0-35.466002,30.907997-35.466002,30.907997s-79.947-207.033996-79.947-207.033996s115.413002,176.125999,115.413002,176.125999Z" fill="#fdcf2e"/></g><g transform="translate(555.748 738.989)"><path d="M-111.938004,4.02c0,0,223.882004-40.984001,223.882004-40.984001s-20.294998,73.928002-20.294998,73.928002-203.593002-32.785001-203.593002-32.785001s0-.16,0-.16.005996.001.005996.001Z" fill="#fdcf2e"/></g></g></g><g transform="translate(170.882 734.634)"><path d="M69.113998,40.627998c0,0-17.969997-73.302997-17.969997-73.302997s-37.425001-30.843003-37.425001-30.843003-83.038,126.720002-83.038,126.720002.831001.316002.831001.316002s137.806999-22.172001,137.806999-22.172001-.205002-.718003-.205002-.718003Z" fill="#fdcf2e"/></g><g transform="translate(142.312 708.193)"><path d="M-20.419001,-89.642998c0,0-21.868997,178.702996-21.868997,178.702996s1.538997.583,1.538997.583s83.036999-126.719998,83.036999-126.719998-62.706999-52.565998-62.706999-52.565998Z" fill="#fde22e"/></g><g transform="translate(397.795 187.134)"><path d="M-3.296,64.111c0,0,0,0,0,0s49.450999-127.57,49.450999-127.57.005001.015999.005001.015999s0-.667999,0-.667999-92.32,107.347-92.32,107.347s42.864,20.875,42.864,20.875Z" fill="#fdf990"/></g><g transform="translate(340.98 827.52)"><path d="M-100.617996,-51.568001c0,0,22.764,83.022001,22.764,83.022001s178.471992,20.114001,178.471992,20.114001-201.235992-103.136002-201.235992-103.136002Z" fill="#fdf963"/></g><g transform="translate(182.76 817.428)"><path d="M57.441002,-41.449001c0,0-137.806999,22.172001-137.806999,22.172001s160.731994,60.726001,160.731994,60.726001-22.924995-82.898002-22.924995-82.898002Z" fill="#fde22e"/></g><g transform="translate(285.756 331.891)"><path d="M65.877998,-101.521004c0,0-174.619995,203.042008-174.619995,203.042008s217.483994-182.167008,217.483994-182.167008-42.863999-20.875-42.863999-20.875Z" fill="#fdf990"/></g><g transform="translate(153.247 552.52)"><path d="M-31.177,64.643997c0,0-.177,1.387001-.177,1.387001s62.708,52.566002,62.708,52.566002s0-.000999,0-.000999-7.881-237.193001-7.881-237.193001-54.65,183.240997-54.65,183.240997Z" fill="#fdf990"/></g><g transform="translate(285.71826 474.837083)"><path d="M-108.594002,-27.768999c0,0-.294998.511999-.294998.511999s7.880997,237.191998,7.880997,237.191998s115.414003-176.123997,115.414003-176.123997s94.483-243.747006,94.483-243.747006-217.483002,182.167006-217.483002,182.167006Z" transform="translate(-.01851-2.313694)" fill="#fde22e"/><g mask="url(#eQcZgFBMHn948)"><path id="eQcZgFBMHn947" d="M110.774457,-349.845615c0,0-277.856321,506.196197-277.856321,506.196197s66.073861,53.584416,66.073861,53.584416s115.414003-176.123997,115.414003-176.123997s150.498769-303.720958,150.498769-303.720958-54.130312-79.935658-54.130312-79.935658Z" transform="translate(-89.907792-101.502303)" fill="rgba(255,255,255,0.7)"/><mask id="eQcZgFBMHn948" mask-type="luminance" x="-150%" y="-150%" height="400%" width="400%"><path d="M-108.594002,-27.768999c0,0-.294998.511999-.294998.511999s7.880997,237.191998,7.880997,237.191998s115.414003-176.123997,115.414003-176.123997s94.483-243.747006,94.483-243.747006-217.483002,182.167006-217.483002,182.167006Z" fill="#fff"/></mask></g></g><g transform="translate(716.877 734.634)"><path d="M-69.113998,40.627998c0,0,17.969997-73.302997,17.969997-73.302997s37.426001-30.843003,37.426001-30.843003s83.038,126.720002,83.038,126.720002-.832001.316002-.832001.316002-137.806999-22.172001-137.806999-22.172001.205002-.718003.205002-.718003Z" fill="#fdac2e"/></g><g><g transform="translate(745.447 708.193)"><path d="M20.42,-89.642998c0,0,21.869001,178.702996,21.869001,178.702996s-1.539001.583-1.539001.583-83.037998-126.719998-83.037998-126.719998s62.707998-52.565998,62.707998-52.565998Z" fill="#fde22e"/><g mask="url(#eQcZgFBMHn957)"><path id="eQcZgFBMHn956" d="M20.42,-89.642998c0,0,21.869001,178.702996,21.869001,178.702996s-1.539001.583-1.539001.583-83.037998-126.719998-83.037998-126.719998s62.707998-52.565998,62.707998-52.565998Z" opacity="0" fill="#fff"/><mask id="eQcZgFBMHn957" mask-type="luminance" x="-150%" y="-150%" height="400%" width="400%"><path d="M20.42,-89.642998c0,0,21.869001,178.702996,21.869001,178.702996s-1.539001.583-1.539001.583-83.037998-126.719998-83.037998-126.719998s62.707998-52.565998,62.707998-52.565998Z" fill="#fff"/></mask></g></g><g transform="translate(734.513 552.52)"><path d="M31.177,64.643997c0,0,.177,1.387001.177,1.387001s-62.708,52.566002-62.708,52.566002s0-.000999,0-.000999s7.881-237.193001,7.881-237.193001s54.65,183.240997,54.65,183.240997Z" fill="#fdf963"/><g mask="url(#eQcZgFBMHn963)"><path id="eQcZgFBMHn962" d="M96.452163,-97.49947c0,0,25.314432,62.663696,25.314432,62.663696s-153.120595,153.432774-153.120595,153.432774s0-.000999,0-.000999-33.40134-138.336205-33.40134-138.336205s161.207503-77.759266,161.207503-77.759266Z" transform="translate(-73.504041-148.053341)" opacity="0.7" fill="rgba(255,255,254,0.7)"/><mask id="eQcZgFBMHn963" mask-type="luminance" x="-150%" y="-150%" height="400%" width="400%"><path d="M31.177,64.643997c0,0,.177,1.387001.177,1.387001s-62.708,52.566002-62.708,52.566002s0-.000999,0-.000999s7.881-237.193001,7.881-237.193001s54.65,183.240997,54.65,183.240997Z" fill="#fffffe"/></mask></g></g><g transform="translate(602.15 461.18)"><path d="M108.594002,-27.768999c0,0,.294998.511999.294998.511999s-7.880997,237.191998-7.880997,237.191998-115.413003-176.123997-115.413003-176.123997-94.484-243.747006-94.484-243.747006s217.483002,182.167006,217.483002,182.167006Z" fill="#fde22e"/><g mask="url(#eQcZgFBMHn973)"><path id="eQcZgFBMHn972" d="M174.614617,-18.539351c0,0,.294998.511999.294998.511999s-127.495651,174.573405-127.495651,174.573405-120.827638-93.193997-120.827638-93.193997s143.153643-226.298722,143.153643-226.298722s104.874648,144.407315,104.874648,144.407315Z" transform="translate(-158.912172-207.879165)" opacity="0" fill="#fdf963"/><mask id="eQcZgFBMHn973" mask-type="luminance" x="-150%" y="-150%" height="400%" width="400%"><path d="M108.594002,-27.768999c0,0,.294998.511999.294998.511999s-7.880997,237.191998-7.880997,237.191998-115.413003-176.123997-115.413003-176.123997-94.484-243.747006-94.484-243.747006s217.483002,182.167006,217.483002,182.167006Z" fill="#fdfdfb"/></mask></g></g></g><g transform="translate(489.965 187.134)"><path d="M3.297,64.111c0,0,0,0,0,0s-49.451999-127.57-49.451999-127.57-.005001.015999-.005001.015999s0-.667999,0-.667999s92.32,107.347,92.32,107.347-42.863,20.875-42.863,20.875Z" fill="#fdf990"/></g><g transform="translate(443.88 811.142)"><path d="M0.075,-67.921997c0,0,0-.023003,0-.023003s-.075.011002-.075.011002-.076-.011002-.076-.011002c-.005.008004-.009.016999-.015.026001c0,0-203.427005,32.73-203.427005,32.73s201.237005,103.133999,201.237005,103.133999s4.562,0,4.562,0s201.237005-103.133999,201.237005-103.133999-203.443005-32.732998-203.443005-32.732998Z" fill="#fdac2e"/></g><g transform="translate(546.779 827.52)"><path d="M100.617996,-51.568001c0,0-22.764999,83.022001-22.764999,83.022001s-178.472,20.114001-178.472,20.114001s201.236999-103.136002,201.236999-103.136002Z" fill="#fd802e"/></g><g transform="translate(704.999 817.428)"><path d="M-57.441002,-41.449001c0,0,137.806999,22.172001,137.806999,22.172001s-160.731994,60.726001-160.731994,60.726001s22.924995-82.898002,22.924995-82.898002Z" fill="#fde22e"/></g><g transform="translate(602.003 331.891)"><path d="M-65.877998,-101.521004c0,0,174.618995,203.042008,174.618995,203.042008s-217.482994-182.167008-217.482994-182.167008s42.863999-20.875,42.863999-20.875Z" fill="#fdf963"/></g></g><g transform="matrix(.008994-.296489 0.296489 0.008994 45.5531 99.922)" opacity="0.246382"><g><path d="M59.625,-53.375c0,0,.368,5.393002,1.988998,7.277C63.076,-44.398998,68.875,-44.25,68.875,-44.25s-5.414001,1.119999-6.933998,2.555C60.460999,-40.297001,60.25,-34.75,60.25,-34.75s-.230999-5.458-2.159-6.874001C55.936001,-43.208,50.625,-43.75,50.625,-43.75s4.679001.250999,7.008999-1.738998C59.783001,-47.325001,59.625,-53.375,59.625,-53.375Z" fill="#fff"/></g></g><g transform="matrix(.941874-.354183 0.354183 0.941874 48.6105 139.321)" opacity="0.979876"><g><path id="eQcZgFBMHn999" d="M59.625,-53.375c0,0,.368,5.393002,1.988998,7.277C63.076,-44.398998,68.875,-44.25,68.875,-44.25s-5.414001,1.119999-6.933998,2.555C60.460999,-40.297001,60.25,-34.75,60.25,-34.75s-.230999-5.458-2.159-6.874001C55.936001,-43.208,50.625,-43.75,50.625,-43.75s4.679001.250999,7.008999-1.738998C59.783001,-47.325001,59.625,-53.375,59.625,-53.375Z" transform="matrix(.104049 0.489054-.488146 0.108317 31.562119-89.887428)" opacity="0" fill="#fff"/></g></g></g><clipPath id="eQcZgFBMHn9100"><rect width="130" height="130" rx="0" ry="0"/></clipPath></g>
<script><![CDATA[
!function(t,n){"object"==typeof exports&&"undefined"!=typeof module?module.exports=n():"function"==typeof __SVGATOR_DEFINE__&&__SVGATOR_DEFINE__.amd?__SVGATOR_DEFINE__(n):((t="undefined"!=typeof globalThis?globalThis:t||self).__SVGATOR_PLAYER__=t.__SVGATOR_PLAYER__||{},t.__SVGATOR_PLAYER__["5c7f360c"]=n())}(this,(function(){"use strict";function t(t,n){var e=Object.keys(t);if(Object.getOwnPropertySymbols){var r=Object.getOwnPropertySymbols(t);n&&(r=r.filter((function(n){return Object.getOwnPropertyDescriptor(t,n).enumerable}))),e.push.apply(e,r)}return e}function n(n){for(var e=1;e<arguments.length;e++){var r=null!=arguments[e]?arguments[e]:{};e%2?t(Object(r),!0).forEach((function(t){o(n,t,r[t])})):Object.getOwnPropertyDescriptors?Object.defineProperties(n,Object.getOwnPropertyDescriptors(r)):t(Object(r)).forEach((function(t){Object.defineProperty(n,t,Object.getOwnPropertyDescriptor(r,t))}))}return n}function e(t){return(e="function"==typeof Symbol&&"symbol"==typeof Symbol.iterator?function(t){return typeof t}:function(t){return t&&"function"==typeof Symbol&&t.constructor===Symbol&&t!==Symbol.prototype?"symbol":typeof t})(t)}function r(t,n){if(!(t instanceof n))throw new TypeError("Cannot call a class as a function")}function i(t,n){for(var e=0;e<n.length;e++){var r=n[e];r.enumerable=r.enumerable||!1,r.configurable=!0,"value"in r&&(r.writable=!0),Object.defineProperty(t,r.key,r)}}function u(t,n,e){return n&&i(t.prototype,n),e&&i(t,e),t}function o(t,n,e){return n in t?Object.defineProperty(t,n,{value:e,enumerable:!0,configurable:!0,writable:!0}):t[n]=e,t}function a(t){return(a=Object.setPrototypeOf?Object.getPrototypeOf:function(t){return t.__proto__||Object.getPrototypeOf(t)})(t)}function l(t,n){return(l=Object.setPrototypeOf||function(t,n){return t.__proto__=n,t})(t,n)}function s(){if("undefined"==typeof Reflect||!Reflect.construct)return!1;if(Reflect.construct.sham)return!1;if("function"==typeof Proxy)return!0;try{return Boolean.prototype.valueOf.call(Reflect.construct(Boolean,[],(function(){}))),!0}catch(t){return!1}}function f(t,n,e){return(f=s()?Reflect.construct:function(t,n,e){var r=[null];r.push.apply(r,n);var i=new(Function.bind.apply(t,r));return e&&l(i,e.prototype),i}).apply(null,arguments)}function c(t,n){if(n&&("object"==typeof n||"function"==typeof n))return n;if(void 0!==n)throw new TypeError("Derived constructors may only return object or undefined");return function(t){if(void 0===t)throw new ReferenceError("this hasn't been initialised - super() hasn't been called");return t}(t)}function h(t,n,e){return(h="undefined"!=typeof Reflect&&Reflect.get?Reflect.get:function(t,n,e){var r=function(t,n){for(;!Object.prototype.hasOwnProperty.call(t,n)&&null!==(t=a(t)););return t}(t,n);if(r){var i=Object.getOwnPropertyDescriptor(r,n);return i.get?i.get.call(e):i.value}})(t,n,e||t)}function v(t){return function(t){if(Array.isArray(t))return y(t)}(t)||function(t){if("undefined"!=typeof Symbol&&null!=t[Symbol.iterator]||null!=t["@@iterator"])return Array.from(t)}(t)||function(t,n){if(!t)return;if("string"==typeof t)return y(t,n);var e=Object.prototype.toString.call(t).slice(8,-1);"Object"===e&&t.constructor&&(e=t.constructor.name);if("Map"===e||"Set"===e)return Array.from(t);if("Arguments"===e||/^(?:Ui|I)nt(?:8|16|32)(?:Clamped)?Array$/.test(e))return y(t,n)}(t)||function(){throw new TypeError("Invalid attempt to spread non-iterable instance.\nIn order to be iterable, non-array objects must have a [Symbol.iterator]() method.")}()}function y(t,n){(null==n||n>t.length)&&(n=t.length);for(var e=0,r=new Array(n);e<n;e++)r[e]=t[e];return r}function g(t,n,e){if(Number.isInteger(t))return t;var r=Math.pow(10,n);return Math[e]((+t+Number.EPSILON)*r)/r}Number.isInteger||(Number.isInteger=function(t){return"number"==typeof t&&isFinite(t)&&Math.floor(t)===t}),Number.EPSILON||(Number.EPSILON=2220446049250313e-31);var p=d(Math.pow(10,-6));function d(t){var n=arguments.length>1&&void 0!==arguments[1]?arguments[1]:6;return g(t,n,"round")}function m(t,n){var e=arguments.length>2&&void 0!==arguments[2]?arguments[2]:p;return Math.abs(t-n)<e}d(Math.pow(10,-2)),d(Math.pow(10,-4));var b=Math.PI/180;function w(t){return t*b}function x(t){return t/b}function _(t){return t}function A(t,n,e){var r=1-e;return 3*e*r*(t*r+n*e)+e*e*e}function k(){var t=arguments.length>0&&void 0!==arguments[0]?arguments[0]:0,n=arguments.length>1&&void 0!==arguments[1]?arguments[1]:0,e=arguments.length>2&&void 0!==arguments[2]?arguments[2]:1,r=arguments.length>3&&void 0!==arguments[3]?arguments[3]:1;return t<0||t>1||e<0||e>1?null:m(t,n)&&m(e,r)?_:function(i){if(i<=0)return t>0?i*n/t:0===n&&e>0?i*r/e:0;if(i>=1)return e<1?1+(i-1)*(r-1)/(e-1):1===e&&t<1?1+(i-1)*(n-1)/(t-1):1;for(var u,o=0,a=1;o<a;){var l=A(t,e,u=(o+a)/2);if(m(i,l))break;l<i?o=u:a=u}return A(n,r,u)}}function S(){return 1}function O(t){return 1===t?1:0}function j(){var t=arguments.length>0&&void 0!==arguments[0]?arguments[0]:1,n=arguments.length>1&&void 0!==arguments[1]?arguments[1]:0;if(1===t){if(0===n)return O;if(1===n)return S}var e=1/t;return function(t){return t>=1?1:(t+=n*e)-t%e}}var M=Math.sin,E=Math.cos,P=Math.acos,I=Math.asin,R=Math.tan,F=Math.atan2,N=Math.sqrt,T=function(){function t(){var n=arguments.length>0&&void 0!==arguments[0]?arguments[0]:1,e=arguments.length>1&&void 0!==arguments[1]?arguments[1]:0,i=arguments.length>2&&void 0!==arguments[2]?arguments[2]:0,u=arguments.length>3&&void 0!==arguments[3]?arguments[3]:1,o=arguments.length>4&&void 0!==arguments[4]?arguments[4]:0,a=arguments.length>5&&void 0!==arguments[5]?arguments[5]:0;r(this,t),this.m=[n,e,i,u,o,a],this.i=null,this.w=null,this.s=null}return u(t,[{key:"determinant",get:function(){var t=this.m;return t[0]*t[3]-t[1]*t[2]}},{key:"isIdentity",get:function(){if(null===this.i){var t=this.m;this.i=1===t[0]&&0===t[1]&&0===t[2]&&1===t[3]&&0===t[4]&&0===t[5]}return this.i}},{key:"point",value:function(t,n){var e=this.m;return{x:e[0]*t+e[2]*n+e[4],y:e[1]*t+e[3]*n+e[5]}}},{key:"translateSelf",value:function(){var t=arguments.length>0&&void 0!==arguments[0]?arguments[0]:0,n=arguments.length>1&&void 0!==arguments[1]?arguments[1]:0;if(!t&&!n)return this;var e=this.m;return e[4]+=e[0]*t+e[2]*n,e[5]+=e[1]*t+e[3]*n,this.w=this.s=this.i=null,this}},{key:"rotateSelf",value:function(){var t=arguments.length>0&&void 0!==arguments[0]?arguments[0]:0;if(t%=360){t=w(t);var n=M(t),e=E(t),r=this.m,i=r[0],u=r[1];r[0]=i*e+r[2]*n,r[1]=u*e+r[3]*n,r[2]=r[2]*e-i*n,r[3]=r[3]*e-u*n,this.w=this.s=this.i=null}return this}},{key:"scaleSelf",value:function(){var t=arguments.length>0&&void 0!==arguments[0]?arguments[0]:1,n=arguments.length>1&&void 0!==arguments[1]?arguments[1]:1;if(1!==t||1!==n){var e=this.m;e[0]*=t,e[1]*=t,e[2]*=n,e[3]*=n,this.w=this.s=this.i=null}return this}},{key:"skewSelf",value:function(t,n){if(n%=360,(t%=360)||n){var e=this.m,r=e[0],i=e[1],u=e[2],o=e[3];t&&(t=R(w(t)),e[2]+=r*t,e[3]+=i*t),n&&(n=R(w(n)),e[0]+=u*n,e[1]+=o*n),this.w=this.s=this.i=null}return this}},{key:"resetSelf",value:function(){var t=arguments.length>0&&void 0!==arguments[0]?arguments[0]:1,n=arguments.length>1&&void 0!==arguments[1]?arguments[1]:0,e=arguments.length>2&&void 0!==arguments[2]?arguments[2]:0,r=arguments.length>3&&void 0!==arguments[3]?arguments[3]:1,i=arguments.length>4&&void 0!==arguments[4]?arguments[4]:0,u=arguments.length>5&&void 0!==arguments[5]?arguments[5]:0,o=this.m;return o[0]=t,o[1]=n,o[2]=e,o[3]=r,o[4]=i,o[5]=u,this.w=this.s=this.i=null,this}},{key:"recomposeSelf",value:function(){var t=arguments.length>0&&void 0!==arguments[0]?arguments[0]:null,n=arguments.length>1&&void 0!==arguments[1]?arguments[1]:null,e=arguments.length>2&&void 0!==arguments[2]?arguments[2]:null,r=arguments.length>3&&void 0!==arguments[3]?arguments[3]:null,i=arguments.length>4&&void 0!==arguments[4]?arguments[4]:null;return this.isIdentity||this.resetSelf(),t&&(t.x||t.y)&&this.translateSelf(t.x,t.y),n&&this.rotateSelf(n),e&&(e.x&&this.skewSelf(e.x,0),e.y&&this.skewSelf(0,e.y)),!r||1===r.x&&1===r.y||this.scaleSelf(r.x,r.y),i&&(i.x||i.y)&&this.translateSelf(i.x,i.y),this}},{key:"decompose",value:function(){var t=arguments.length>0&&void 0!==arguments[0]?arguments[0]:0,n=arguments.length>1&&void 0!==arguments[1]?arguments[1]:0,e=this.m,r=e[0]*e[0]+e[1]*e[1],i=[[e[0],e[1]],[e[2],e[3]]],u=N(r);if(0===u)return{origin:{x:d(e[4]),y:d(e[5])},translate:{x:d(t),y:d(n)},scale:{x:0,y:0},skew:{x:0,y:0},rotate:0};i[0][0]/=u,i[0][1]/=u;var o=e[0]*e[3]-e[1]*e[2]<0;o&&(u=-u);var a=i[0][0]*i[1][0]+i[0][1]*i[1][1];i[1][0]-=i[0][0]*a,i[1][1]-=i[0][1]*a;var l,s=N(i[1][0]*i[1][0]+i[1][1]*i[1][1]);return 0===s?{origin:{x:d(e[4]),y:d(e[5])},translate:{x:d(t),y:d(n)},scale:{x:d(u),y:0},skew:{x:0,y:0},rotate:0}:(i[1][0]/=s,i[1][1]/=s,a/=s,i[1][1]<0?(l=x(P(i[1][1])),i[0][1]<0&&(l=360-l)):l=x(I(i[0][1])),o&&(l=-l),a=x(F(a,N(i[0][0]*i[0][0]+i[0][1]*i[0][1]))),o&&(a=-a),{origin:{x:d(e[4]),y:d(e[5])},translate:{x:d(t),y:d(n)},scale:{x:d(u),y:d(s)},skew:{x:d(a),y:0},rotate:d(l)})}},{key:"multiply",value:function(t){return this.clone().multiplySelf(t)}},{key:"preMultiply",value:function(t){return t.multiply(this)}},{key:"multiplySelf",value:function(t){var n=q(this.m,t.m),e=n.a,r=n.b,i=n.c,u=n.d,o=n.tx,a=n.ty;return this.resetSelf(e,r,i,u,o,a),this}},{key:"preMultiplySelf",value:function(t){var n=q(t.m,this.m),e=n.a,r=n.b,i=n.c,u=n.d,o=n.tx,a=n.ty;return this.resetSelf(e,r,i,u,o,a),this}},{key:"clone",value:function(){var t=this.m;return new this.constructor(t[0],t[1],t[2],t[3],t[4],t[5])}},{key:"toString",value:function(){var t=arguments.length>0&&void 0!==arguments[0]?arguments[0]:" ";if(null===this.s){var n=this.m.map((function(t){return d(t)}));1===n[0]&&0===n[1]&&0===n[2]&&1===n[3]?this.s="translate("+n[4]+t+n[5]+")":this.s="matrix("+n.join(t)+")"}return this.s}}],[{key:"create",value:function(t){return t?Array.isArray(t)?f(this,v(t)):t instanceof this?t.clone():(new this).recomposeSelf(t.origin,t.rotate,t.skew,t.scale,t.translate):new this}}]),t}();function q(t,n){return{a:t[0]*n[0]+t[2]*n[1],b:t[1]*n[0]+t[3]*n[1],c:t[0]*n[2]+t[2]*n[3],d:t[1]*n[2]+t[3]*n[3],tx:t[0]*n[4]+t[2]*n[5]+t[4],ty:t[1]*n[4]+t[3]*n[5]+t[5]}}function B(t,n,e){return t>=.5?e:n}function D(t,n,e){return 0===t||n===e?n:t*(e-n)+n}function L(t,n,e){var r=D(t,n,e);return r<=0?0:r}function C(t,n,e){var r=D(t,n,e);return r<=0?0:r>=1?1:r}function V(t,n,e){return 0===t?n:1===t?e:{x:D(t,n.x,e.x),y:D(t,n.y,e.y)}}function G(t,n,e){var r=function(t,n,e){return Math.round(D(t,n,e))}(t,n,e);return r<=0?0:r>=255?255:r}function z(t,n,e){return 0===t?n:1===t?e:{r:G(t,n.r,e.r),g:G(t,n.g,e.g),b:G(t,n.b,e.b),a:D(t,null==n.a?1:n.a,null==e.a?1:e.a)}}function Y(t,n){for(var e=[],r=0;r<t;r++)e.push(n);return e}function $(t,n){if(--n<=0)return t;var e=(t=Object.assign([],t)).length;do{for(var r=0;r<e;r++)t.push(t[r])}while(--n>0);return t}var U,Q=function(){function t(n){r(this,t),this.list=n,this.length=n.length}return u(t,[{key:"setAttribute",value:function(t,n){for(var e=this.list,r=0;r<this.length;r++)e[r].setAttribute(t,n)}},{key:"removeAttribute",value:function(t){for(var n=this.list,e=0;e<this.length;e++)n[e].removeAttribute(t)}},{key:"style",value:function(t,n){for(var e=this.list,r=0;r<this.length;r++)e[r].style[t]=n}}]),t}(),H=/-./g,J=function(t,n){return n.toUpperCase()};function Z(t){return"function"==typeof t?t:B}function K(t){return t?"function"==typeof t?t:Array.isArray(t)?function(t){var n=arguments.length>1&&void 0!==arguments[1]?arguments[1]:_;if(!Array.isArray(t))return n;switch(t.length){case 1:return j(t[0])||n;case 2:return j(t[0],t[1])||n;case 4:return k(t[0],t[1],t[2],t[3])||n}return n}(t,null):function(t,n){var e=arguments.length>2&&void 0!==arguments[2]?arguments[2]:_;switch(t){case"linear":return _;case"steps":return j(n.steps||1,n.jump||0)||e;case"bezier":case"cubic-bezier":return k(n.x1||0,n.y1||0,n.x2||0,n.y2||0)||e}return e}(t.type,t.value,null):null}function W(t,n,e){var r=arguments.length>3&&void 0!==arguments[3]&&arguments[3],i=n.length-1;if(t<=n[0].t)return r?[0,0,n[0].v]:n[0].v;if(t>=n[i].t)return r?[i,1,n[i].v]:n[i].v;var u,o=n[0],a=null;for(u=1;u<=i;u++){if(!(t>n[u].t)){a=n[u];break}o=n[u]}return null==a?r?[i,1,n[i].v]:n[i].v:o.t===a.t?r?[u,1,a.v]:a.v:(t=(t-o.t)/(a.t-o.t),o.e&&(t=o.e(t)),r?[u,t,e(t,o.v,a.v)]:e(t,o.v,a.v))}function X(t,n){var e=arguments.length>2&&void 0!==arguments[2]?arguments[2]:null;return t&&t.length?"function"!=typeof n?null:("function"!=typeof e&&(e=null),function(r){var i=W(r,t,n);return null!=i&&e&&(i=e(i)),i}):null}function tt(t,n){return t.t-n.t}function nt(t,n,r,i,u){var o,a="@"===r[0],l="#"===r[0],s=U[r],f=B;switch(a?(o=r.substr(1),r=o.replace(H,J)):l&&(r=r.substr(1)),e(s)){case"function":if(f=s(i,u,W,K,r,a,n,t),l)return f;break;case"string":f=X(i,Z(s));break;case"object":if((f=X(i,Z(s.i),s.f))&&"function"==typeof s.u)return s.u(n,f,r,a,t)}return f?function(t,n,e){if(arguments.length>3&&void 0!==arguments[3]&&arguments[3])return t instanceof Q?function(r){return t.style(n,e(r))}:function(r){return t.style[n]=e(r)};if(Array.isArray(n)){var r=n.length;return function(i){var u=e(i);if(null==u)for(var o=0;o<r;o++)t[o].removeAttribute(n);else for(var a=0;a<r;a++)t[a].setAttribute(n,u)}}return function(r){var i=e(r);null==i?t.removeAttribute(n):t.setAttribute(n,i)}}(n,r,f,a):null}function et(t,n,r,i){if(!i||"object"!==e(i))return null;var u=null,o=null;return Array.isArray(i)?o=function(t){if(!t||!t.length)return null;for(var n=0;n<t.length;n++)t[n].e&&(t[n].e=K(t[n].e));return t.sort(tt)}(i):(o=i.keys,u=i.data||null),o?nt(t,n,r,o,u):null}function rt(t,n,e){if(!e)return null;var r=[];for(var i in e)if(e.hasOwnProperty(i)){var u=et(t,n,i,e[i]);u&&r.push(u)}return r.length?r:null}function it(t,n){if(!n.settings.duration||n.settings.duration<0)return null;var e,r,i,u,o,a=function(t,n){if(!n)return null;var e=[];if(Array.isArray(n))for(var r=n.length,i=0;i<r;i++){var u=n[i];if(2===u.length){var o=null;if("string"==typeof u[0])o=t.getElementById(u[0]);else if(Array.isArray(u[0])){o=[];for(var a=0;a<u[0].length;a++)if("string"==typeof u[0][a]){var l=t.getElementById(u[0][a]);l&&o.push(l)}o=o.length?1===o.length?o[0]:new Q(o):null}if(o){var s=rt(t,o,u[1]);s&&(e=e.concat(s))}}}else for(var f in n)if(n.hasOwnProperty(f)){var c=t.getElementById(f);if(c){var h=rt(t,c,n[f]);h&&(e=e.concat(h))}}return e.length?e:null}(t,n.elements);return a?(e=a,r=n.settings,i=r.duration,u=e.length,o=null,function(t,n){var a=r.iterations||1/0,l=(r.alternate&&a%2==0)^r.direction>0?i:0,s=t%i,f=1+(t-s)/i;n*=r.direction,r.alternate&&f%2==0&&(n=-n);var c=!1;if(f>a)s=l,c=!0,-1===r.fill&&(s=r.direction>0?0:i);else if(n<0&&(s=i-s),s===o)return!1;o=s;for(var h=0;h<u;h++)e[h](s);return c}):null}function ut(t,n){for(var e=n.querySelectorAll("svg"),r=0;r<e.length;r++)if(e[r].id===t.root&&!e[r].svgatorAnimation)return e[r].svgatorAnimation=!0,e[r];return null}function ot(t){var n=function(t){return t.shadowRoot};return document?Array.from(t.querySelectorAll(":not("+["a","area","audio","br","canvas","circle","datalist","embed","g","head","hr","iframe","img","input","link","object","path","polygon","rect","script","source","style","svg","title","track","video"].join()+")")).filter(n).map(n):[]}function at(t){var n=arguments.length>1&&void 0!==arguments[1]?arguments[1]:document,e=arguments.length>2&&void 0!==arguments[2]?arguments[2]:0,r=ut(t,n);if(r)return r;if(e>=20)return null;for(var i=ot(n),u=0;u<i.length;u++){var o=at(t,i[u],e+1);if(o)return o}return null}function lt(t,n){if(U=n,!t||!t.root||!Array.isArray(t.animations))return null;var e=at(t);if(!e)return null;var r=t.animations.map((function(t){return it(e,t)})).filter((function(t){return!!t}));return r.length?{svg:e,animations:r,animationSettings:t.animationSettings,options:t.options||void 0}:null}function st(t){var n=arguments.length>1&&void 0!==arguments[1]?arguments[1]:null,e=arguments.length>2&&void 0!==arguments[2]?arguments[2]:Number,r=arguments.length>3&&void 0!==arguments[3]?arguments[3]:"undefined"!=typeof BigInt&&BigInt,i="0x"+(t.replace(/[^0-9a-fA-F]+/g,"")||27);return n&&r&&e.isSafeInteger&&!e.isSafeInteger(+i)?e(r(i))%n+n:+i}function ft(t,n,e){return!t||!e||n>t.length?t:t.substring(0,n)+ft(t.substring(n+1),e,e)}function ct(t){var n=arguments.length>1&&void 0!==arguments[1]?arguments[1]:27;return!t||t%n?t%n:[0,1].includes(n)?n:ct(t/n,n)}function ht(t,n,e){if(t&&t.length){var r=st(e),i=ct(r)+5,u=ft(t,ct(r,5),i);return u=u.replace(/\x7c$/g,"==").replace(/\x2f$/g,"="),u=function(t,n,e){var r=+("0x"+t.substring(0,4));t=t.substring(4);for(var i=st(n,r)%r+e%27,u=[],o=0;o<t.length;o+=2)if("|"!==t[o]){var a=+("0x"+t[o]+t[o+1])-i;u.push(a)}else{var l=+("0x"+t.substring(o+1,o+1+4))-i;o+=3,u.push(l)}return String.fromCharCode.apply(String,u)}(u=(u=atob(u)).replace(/[\x41-\x5A]/g,""),n,r),u=JSON.parse(u)}}var vt=[{key:"alternate",def:!1},{key:"fill",def:1},{key:"iterations",def:0},{key:"direction",def:1},{key:"speed",def:1},{key:"fps",def:100}],yt=function(){function t(n,e){var i=this,u=arguments.length>2&&void 0!==arguments[2]?arguments[2]:null;r(this,t),this._id=0,this._running=!1,this._rollingBack=!1,this._animations=n,this._settings=e,(!u||u<"2022-05-02")&&delete this._settings.speed,vt.forEach((function(t){i._settings[t.key]=i._settings[t.key]||t.def})),this.duration=e.duration,this.offset=e.offset||0,this.rollbackStartOffset=0}return u(t,[{key:"alternate",get:function(){return this._settings.alternate}},{key:"fill",get:function(){return this._settings.fill}},{key:"iterations",get:function(){return this._settings.iterations}},{key:"direction",get:function(){return this._settings.direction}},{key:"speed",get:function(){return this._settings.speed}},{key:"fps",get:function(){return this._settings.fps}},{key:"maxFiniteDuration",get:function(){return this.iterations>0?this.iterations*this.duration:this.duration}},{key:"_apply",value:function(t){for(var n=arguments.length>1&&void 0!==arguments[1]?arguments[1]:{},e=this._animations,r=e.length,i=0,u=0;u<r;u++)n[u]?i++:(n[u]=e[u](t,1),n[u]&&i++);return i}},{key:"_rollback",value:function(t){var n=this,e=1/0,r=null;this.rollbackStartOffset=t,this._rollingBack=!0,this._running=!0;this._id=window.requestAnimationFrame((function i(u){if(n._rollingBack){null==r&&(r=u);var o=Math.round(t-(u-r)*n.speed);if(o>n.duration&&e!==1/0){var a=!!n.alternate&&o/n.duration%2>1,l=o%n.duration;o=(l+=a?n.duration:0)||n.duration}var s=(n.fps?1e3/n.fps:0)*n.speed,f=Math.max(0,o);f<=e-s&&(n.offset=f,e=f,n._apply(f));var c=n.iterations>0&&-1===n.fill&&o>=n.maxFiniteDuration;(o<=0||n.offset<o||c)&&n.stop(),n._id=window.requestAnimationFrame(i)}}))}},{key:"_start",value:function(){var t=this,n=arguments.length>0&&void 0!==arguments[0]?arguments[0]:0,e=-1/0,r=null,i={};this._running=!0;var u=function u(o){null==r&&(r=o);var a=Math.round((o-r)*t.speed+n),l=(t.fps?1e3/t.fps:0)*t.speed;if(a>=e+l&&!t._rollingBack&&(t.offset=a,e=a,t._apply(a,i)===t._animations.length))return void t.pause(!0);t._id=window.requestAnimationFrame(u)};this._id=window.requestAnimationFrame(u)}},{key:"_pause",value:function(){this._id&&window.cancelAnimationFrame(this._id),this._running=!1}},{key:"play",value:function(){if(!this._running)return this._rollingBack?this._rollback(this.offset):this._start(this.offset)}},{key:"stop",value:function(){this._pause(),this.offset=0,this.rollbackStartOffset=0,this._rollingBack=!1,this._apply(0)}},{key:"reachedToEnd",value:function(){return this.iterations>0&&this.offset>=this.iterations*this.duration}},{key:"restart",value:function(){var t=arguments.length>0&&void 0!==arguments[0]&&arguments[0];this.stop(t),this.play(t)}},{key:"pause",value:function(){this._pause()}},{key:"reverse",value:function(){this.direction=-this.direction}}],[{key:"build",value:function(t,n){delete t.animationSettings,t.options=ht(t.options,t.root,"5c7f360c"),t.animations.map((function(n){n.settings=ht(n.s,t.root,"5c7f360c"),delete n.s,t.animationSettings||(t.animationSettings=n.settings)}));var e=t.version;if(!(t=lt(t,n)))return null;var r=t.options||{},i=new this(t.animations,t.animationSettings,e);return{el:t.svg,options:r,player:i}}},{key:"push",value:function(t){return this.build(t)}},{key:"init",value:function(){var t=this,n=window.__SVGATOR_PLAYER__&&window.__SVGATOR_PLAYER__["5c7f360c"];Array.isArray(n)&&n.splice(0).forEach((function(n){return t.build(n)}))}}]),t}();function gt(t){return d(t)+""}function pt(t){var n=arguments.length>1&&void 0!==arguments[1]?arguments[1]:" ";return t&&t.length?t.map(gt).join(n):""}function dt(t){return t?null==t.a||t.a>=1?function(t){if(!t)return"transparent";var n=function(t){return parseInt(t).toString(16).padStart(2,"0")};return function(t){for(var n=[],e="#"===t[0]?n.push("#"):0;e<t.length;e+=2){if(t[e]!==t[e+1])return t;n.push(t[e])}return n.join("")}("#"+n(t.r)+n(t.g)+n(t.b)+(null==t.a||t.a>=1?"":n(255*t.a)))}(t):"rgba("+t.r+","+t.g+","+t.b+","+t.a+")":"transparent"}function mt(t){return t?"url(#"+t+")":"none"}!function(){for(var t=0,n=["ms","moz","webkit","o"],e=0;e<n.length&&!window.requestAnimationFrame;++e)window.requestAnimationFrame=window[n[e]+"RequestAnimationFrame"],window.cancelAnimationFrame=window[n[e]+"CancelAnimationFrame"]||window[n[e]+"CancelRequestAnimationFrame"];window.requestAnimationFrame||(window.requestAnimationFrame=function(n){var e=Date.now(),r=Math.max(0,16-(e-t)),i=window.setTimeout((function(){n(e+r)}),r);return t=e+r,i},window.cancelAnimationFrame=window.clearTimeout)}();var bt={f:null,i:function(t,n,e){return 0===t?n:1===t?e:{x:L(t,n.x,e.x),y:L(t,n.y,e.y)}},u:function(t,n){return function(e){var r=n(e);t.setAttribute("rx",gt(r.x)),t.setAttribute("ry",gt(r.y))}}},wt={f:null,i:function(t,n,e){return 0===t?n:1===t?e:{width:L(t,n.width,e.width),height:L(t,n.height,e.height)}},u:function(t,n){return function(e){var r=n(e);t.setAttribute("width",gt(r.width)),t.setAttribute("height",gt(r.height))}}};Object.freeze({M:2,L:2,Z:0,H:1,V:1,C:6,Q:4,T:2,S:4,A:7});var xt={},_t=null;function At(t){var n=function(){if(_t)return _t;if("object"!==("undefined"==typeof document?"undefined":e(document))||!document.createElementNS)return{};var t=document.createElementNS("http://www.w3.org/2000/svg","svg");return t&&t.style?(t.style.position="absolute",t.style.opacity="0.01",t.style.zIndex="-9999",t.style.left="-9999px",t.style.width="1px",t.style.height="1px",_t={svg:t}):{}}().svg;if(!n)return function(t){return null};var r=document.createElementNS(n.namespaceURI,"path");r.setAttributeNS(null,"d",t),r.setAttributeNS(null,"fill","none"),r.setAttributeNS(null,"stroke","none"),n.appendChild(r);var i=r.getTotalLength();return function(t){var n=r.getPointAtLength(i*t);return{x:n.x,y:n.y}}}function kt(t){return xt[t]?xt[t]:xt[t]=At(t)}function St(t,n,e,r){if(!t||!r)return!1;var i=["M",t.x,t.y];if(n&&e&&(i.push("C"),i.push(n.x),i.push(n.y),i.push(e.x),i.push(e.y)),n?!e:e){var u=n||e;i.push("Q"),i.push(u.x),i.push(u.y)}return n||e||i.push("L"),i.push(r.x),i.push(r.y),i.join(" ")}function Ot(t,n,e,r){var i=arguments.length>4&&void 0!==arguments[4]?arguments[4]:1,u=St(t,n,e,r),o=kt(u);try{return o(i)}catch(t){return null}}function jt(t,n,e){return t+(n-t)*e}function Mt(t,n,e){var r=arguments.length>3&&void 0!==arguments[3]&&arguments[3],i={x:jt(t.x,n.x,e),y:jt(t.y,n.y,e)};return r&&(i.a=Et(t,n)),i}function Et(t,n){return Math.atan2(n.y-t.y,n.x-t.x)}function Pt(t,n,e,r){var i=1-r;return i*i*t+2*i*r*n+r*r*e}function It(t,n,e,r){return 2*(1-r)*(n-t)+2*r*(e-n)}function Rt(t,n,e,r){var i=arguments.length>4&&void 0!==arguments[4]&&arguments[4],u=Ot(t,n,null,e,r);return u||(u={x:Pt(t.x,n.x,e.x,r),y:Pt(t.y,n.y,e.y,r)}),i&&(u.a=Ft(t,n,e,r)),u}function Ft(t,n,e,r){return Math.atan2(It(t.y,n.y,e.y,r),It(t.x,n.x,e.x,r))}function Nt(t,n,e,r,i){var u=i*i;return i*u*(r-t+3*(n-e))+3*u*(t+e-2*n)+3*i*(n-t)+t}function Tt(t,n,e,r,i){var u=1-i;return 3*(u*u*(n-t)+2*u*i*(e-n)+i*i*(r-e))}function qt(t,n,e,r,i){var u=arguments.length>5&&void 0!==arguments[5]&&arguments[5],o=Ot(t,n,e,r,i);return o||(o={x:Nt(t.x,n.x,e.x,r.x,i),y:Nt(t.y,n.y,e.y,r.y,i)}),u&&(o.a=Bt(t,n,e,r,i)),o}function Bt(t,n,e,r,i){return Math.atan2(Tt(t.y,n.y,e.y,r.y,i),Tt(t.x,n.x,e.x,r.x,i))}function Dt(t,n,e){var r=arguments.length>3&&void 0!==arguments[3]&&arguments[3];if(Ct(n)){if(Vt(e))return Rt(n,e.start,e,t,r)}else if(Ct(e)){if(Gt(n))return Rt(n,n.end,e,t,r)}else{if(Gt(n))return Vt(e)?qt(n,n.end,e.start,e,t,r):Rt(n,n.end,e,t,r);if(Vt(e))return Rt(n,e.start,e,t,r)}return Mt(n,e,t,r)}function Lt(t,n,e){var r=Dt(t,n,e,!0);return r.a=x(function(t){return arguments.length>1&&void 0!==arguments[1]&&arguments[1]?t+Math.PI:t}(r.a)),r}function Ct(t){return!t.type||"corner"===t.type}function Vt(t){return null!=t.start&&!Ct(t)}function Gt(t){return null!=t.end&&!Ct(t)}var zt=new T;var Yt={f:gt,i:D},$t={f:gt,i:C};function Ut(t,n,e){return t.map((function(t){return function(t,n,e){var r=t.v;if(!r||"g"!==r.t||r.s||!r.v||!r.r)return t;var i=e.getElementById(r.r),u=i&&i.querySelectorAll("stop")||[];return r.s=r.v.map((function(t,n){var e=u[n]&&u[n].getAttribute("offset");return{c:t,o:e=d(parseInt(e)/100)}})),delete r.v,t}(t,0,e)}))}var Qt={gt:"gradientTransform",c:{x:"cx",y:"cy"},rd:"r",f:{x:"x1",y:"y1"},to:{x:"x2",y:"y2"}};function Ht(t,n,r,i,u,o,a,l){return Ut(t,0,l),n=function(t,n,e){for(var r,i,u,o=t.length-1,a={},l=0;l<=o;l++)(r=t[l]).e&&(r.e=n(r.e)),r.v&&"g"===(i=r.v).t&&i.r&&(u=e.getElementById(i.r))&&(a[i.r]={e:u,s:u.querySelectorAll("stop")});return a}(t,i,l),function(i){var u=r(i,t,Jt);if(!u)return"none";if("c"===u.t)return dt(u.v);if("g"===u.t){if(!n[u.r])return mt(u.r);var o=n[u.r];return function(t,n){for(var e=t.s,r=e.length;r<n.length;r++){var i=e[e.length-1].cloneNode();i.id=Wt(i.id),t.e.appendChild(i),e=t.s=t.e.querySelectorAll("stop")}for(var u=0,o=e.length,a=n.length-1;u<o;u++)e[u].setAttribute("stop-color",dt(n[Math.min(u,a)].c)),e[u].setAttribute("offset",n[Math.min(u,a)].o)}(o,u.s),Object.keys(Qt).forEach((function(t){if(void 0!==u[t])if("object"!==e(Qt[t])){var n,r="gt"===t?(n=u[t],Array.isArray(n)?"matrix("+n.join(" ")+")":""):u[t],i=Qt[t];o.e.setAttribute(i,r)}else Object.keys(Qt[t]).forEach((function(n){if(void 0!==u[t][n]){var e=u[t][n],r=Qt[t][n];o.e.setAttribute(r,e)}}))})),mt(u.r)}return"none"}}function Jt(t,e,r){if(0===t)return e;if(1===t)return r;if(e&&r){var i=e.t;if(i===r.t)switch(e.t){case"c":return{t:i,v:z(t,e.v,r.v)};case"g":if(e.r===r.r){var u={t:i,s:Zt(t,e.s,r.s),r:e.r};return e.gt&&r.gt&&(u.gt=function(t,n,e){var r=n.length;if(r!==e.length)return B(t,n,e);for(var i=new Array(r),u=0;u<r;u++)i[u]=D(t,n[u],e[u]);return i}(t,e.gt,r.gt)),e.c?(u.c=V(t,e.c,r.c),u.rd=L(t,e.rd,r.rd)):e.f&&(u.f=V(t,e.f,r.f),u.to=V(t,e.to,r.to)),u}}if("c"===e.t&&"g"===r.t||"c"===r.t&&"g"===e.t){var o="c"===e.t?e:r,a="g"===e.t?n({},e):n({},r),l=a.s.map((function(t){return{c:o.v,o:t.o}}));return a.s="c"===e.t?Zt(t,l,a.s):Zt(t,a.s,l),a}}return B(t,e,r)}function Zt(t,n,e){if(n.length===e.length)return n.map((function(n,r){return Kt(t,n,e[r])}));for(var r=Math.max(n.length,e.length),i=[],u=0;u<r;u++){var o=Kt(t,n[Math.min(u,n.length-1)],e[Math.min(u,e.length-1)]);i.push(o)}return i}function Kt(t,n,e){return{o:C(t,n.o,e.o||0),c:z(t,n.c,e.c||{})}}function Wt(t){return t.replace(/-fill-([0-9]+)$/,(function(t,n){return"-fill-"+(+n+1)}))}var Xt={fill:Ht,"fill-opacity":$t,stroke:Ht,"stroke-opacity":$t,"stroke-width":Yt,"stroke-dashoffset":{f:gt,i:D},"stroke-dasharray":{f:function(t){var n=arguments.length>1&&void 0!==arguments[1]?arguments[1]:" ";return t&&t.length>0&&(t=t.map((function(t){return d(t,4)}))),pt(t,n)},i:function(t,n,e){var r,i,u,o=n.length,a=e.length;if(o!==a)if(0===o)n=Y(o=a,0);else if(0===a)a=o,e=Y(o,0);else{var l=(u=(r=o)*(i=a)/function(t,n){for(var e;n;)e=n,n=t%n,t=e;return t||1}(r,i))<0?-u:u;n=$(n,Math.floor(l/o)),e=$(e,Math.floor(l/a)),o=a=l}for(var s=[],f=0;f<o;f++)s.push(d(L(t,n[f],e[f])));return s}},opacity:$t,transform:function(t,n,r,i){if(!(t=function(t,n){if(!t||"object"!==e(t))return null;var r=!1;for(var i in t)t.hasOwnProperty(i)&&(t[i]&&t[i].length?(t[i].forEach((function(t){t.e&&(t.e=n(t.e))})),r=!0):delete t[i]);return r?t:null}(t,i)))return null;var u=function(e,i,u){var o=arguments.length>3&&void 0!==arguments[3]?arguments[3]:null;return t[e]?r(i,t[e],u):n&&n[e]?n[e]:o};return n&&n.a&&t.o?function(n){var e=r(n,t.o,Lt);return zt.recomposeSelf(e,u("r",n,D,0)+e.a,u("k",n,V),u("s",n,V),u("t",n,V)).toString()}:function(t){return zt.recomposeSelf(u("o",t,Dt,null),u("r",t,D,0),u("k",t,V),u("s",t,V),u("t",t,V)).toString()}},r:Yt,"#size":wt,"#radius":bt,_:function(t,n){if(Array.isArray(t))for(var e=0;e<t.length;e++)this[t[e]]=n;else this[t]=n}},tn=function(t){!function(t,n){if("function"!=typeof n&&null!==n)throw new TypeError("Super expression must either be null or a function");t.prototype=Object.create(n&&n.prototype,{constructor:{value:t,writable:!0,configurable:!0}}),n&&l(t,n)}(o,t);var n,e,i=(n=o,e=s(),function(){var t,r=a(n);if(e){var i=a(this).constructor;t=Reflect.construct(r,arguments,i)}else t=r.apply(this,arguments);return c(this,t)});function o(){return r(this,o),i.apply(this,arguments)}return u(o,null,[{key:"build",value:function(t){var n=h(a(o),"build",this).call(this,t,Xt);if(!n)return null;n.el,n.options,function(t,n,e){t.play()}(n.player)}}]),o}(yt);return tn.init(),tn}));
(function(s,i,o,w,d,a,b){w[o]=w[o]||{};w[o][s]=w[o][s]||[];w[o][s].push(i);})('5c7f360c',{"root":"eQcZgFBMHn91","version":"2022-05-04","animations":[{"elements":{"eQcZgFBMHn92":{"transform":{"data":{"t":{"x":-65.466963,"y":-60.768764}},"keys":{"o":[{"t":0,"v":{"x":64.999892,"y":60.367123,"type":"corner"}},{"t":700,"v":{"x":64.999892,"y":52,"type":"corner"}},{"t":1400,"v":{"x":64.999892,"y":60.367123,"type":"corner"}}]}}},"eQcZgFBMHn922":{"transform":{"data":{"t":{"x":-65.268541,"y":-61.912284}},"keys":{"o":[{"t":0,"v":{"x":-321.279171,"y":-255.005475,"type":"corner"}},{"t":400,"v":{"x":111.987005,"y":-98.466595,"type":"corner"}},{"t":900,"v":{"x":625.250621,"y":57.432285,"type":"corner"}}]}}},"eQcZgFBMHn947":{"transform":{"data":{"t":{"x":0,"y":0.000504}},"keys":{"o":[{"t":0,"v":{"x":-89.907792,"y":-101.502807,"type":"corner"}},{"t":400,"v":{"x":7.369136,"y":57.724073,"type":"corner"}},{"t":600,"v":{"x":184.003504,"y":136.313513,"type":"corner"}}]}}},"eQcZgFBMHn956":{"transform":{"data":{"t":{"x":-0.0005,"y":0}},"keys":{"o":[{"t":1000,"v":{"x":0.0005,"y":0,"type":"corner"}},{"t":1200,"v":{"x":59.140138,"y":141.214438,"type":"corner"}}]}},"opacity":[{"t":0,"v":0},{"t":700,"v":0},{"t":800,"v":0.48}]},"eQcZgFBMHn962":{"transform":{"keys":{"o":[{"t":700,"v":{"x":-73.504041,"y":-148.053341,"type":"corner"}},{"t":1000,"v":{"x":-70.880041,"y":179.936163,"type":"corner"}}]}}},"eQcZgFBMHn972":{"transform":{"data":{"t":{"x":0,"y":0.000504}},"keys":{"o":[{"t":500,"v":{"x":-158.912172,"y":-207.879669,"type":"corner"}},{"t":800,"v":{"x":149.009946,"y":216.280972,"type":"corner"}}]}},"opacity":[{"t":0,"v":0},{"t":400,"v":0},{"t":500,"v":1}]},"eQcZgFBMHn999":{"transform":{"data":{"a":1,"k":{"x":0.5,"y":0},"t":{"x":-59.75,"y":44.0625}},"keys":{"o":[{"t":400,"v":{"x":59.287983,"y":-65.439171,"type":"corner","a":77.98907630692463}},{"t":800,"v":{"x":65.426217,"y":-36.588099,"type":"corner","a":77.98907630692463}}],"r":[{"t":0,"v":0},{"t":500,"v":0},{"t":800,"v":60}],"s":[{"t":0,"v":{"x":0.5,"y":0.5}},{"t":400,"v":{"x":0.5,"y":0.5}},{"t":800,"v":{"x":1,"y":1}}]}},"opacity":[{"t":0,"v":0},{"t":300,"v":0},{"t":400,"v":1},{"t":600,"v":0.82},{"t":800,"v":0}]}},"s":"MXDA1ZGRhODFjM2Q0ZDOFNYzBkM0tjOGNlY2QF4MTk5VzkwOTQ4ZjhmVOGI4MWMzYzhkMWM0YIzJkM1hjOGNlQmNkODYE5OTkwOGI4MWM4ZDNSjNGQxYzBkM2M4Y2VjRZGQyODE5OThmOGI4MFWM1YzhjYmNiODE5OTFkwUThiODFjMGNiZDNNjNGQxY2RjMGQzYzQ4OMUQ5OWM1SWMwY2JkMKmM0OGI4MWQyY2ZjNGYM0YzM4MTk5OTA4YjgLxYzVjZmQyODE5OTkwDOGY4ZlBkYw|"}],"options":"MTDAxME04ODJmODA4MTMZlN2Y4MTJmNDcyZjcM5N2M2ZTcxMmY4YQ|"},'__SVGATOR_PLAYER__',window,document)
]]></script>
</svg>
