<svg width="12" height="14" viewBox="0 0 12 14" fill="none" xmlns="http://www.w3.org/2000/svg">
<path d="M7.48545 3.92L9.71102 1.46956C9.71102 1.46956 9.0132 0 6.00233 0C2.99145 0 2.29102 1.46738 2.29102 1.46738L4.51877 3.92H7.48545Z" fill="#F23038"/>
<path d="M3.62109 2.9573C3.62109 2.9573 4.51622 2.24023 5.99978 2.24023C7.48334 2.24023 8.38109 2.9573 8.38109 2.9573L7.65703 3.97973L4.32153 3.99067L3.62197 2.95773H3.62109V2.9573Z" fill="white"/>
<path d="M11.6004 9.56044C11.6004 12.4213 9.09308 14.0006 6.00039 14.0006C2.9077 14.0006 0.400391 12.4217 0.400391 9.56044C0.400391 6.69963 2.9077 3.64062 6.00039 3.64062C9.09308 3.64062 11.6004 6.69963 11.6004 9.56044Z" fill="#F23038"/>
</svg>
