<svg width="21" height="181" viewBox="0 0 21 181" fill="none" xmlns="http://www.w3.org/2000/svg">
<g clip-path="url(#clip0_2898_6468)">
<path d="M1.883 0.756578C1.88077 0.657394 1.89864 0.55878 1.93555 0.466605C1.97245 0.37443 2.02763 0.29058 2.0978 0.220047C2.16797 0.149514 2.2517 0.0937394 2.344 0.0560443C2.4363 0.0183492 2.53529 -0.000495798 2.63506 0.000631159H5.41192C5.61291 0.00276853 5.80505 0.0830989 5.94718 0.224406C6.08931 0.365713 6.1701 0.556751 6.17225 0.756578V9.2199L14.1227 0.31287C14.1902 0.217996 14.2793 0.140282 14.3826 0.0860321C14.486 0.0317823 14.6008 0.00252426 14.7177 0.000631159H17.8747C18.0093 -0.00519829 18.1425 0.0294623 18.2569 0.100084C18.3714 0.170706 18.4617 0.274004 18.5161 0.39648C18.5706 0.518957 18.5866 0.654916 18.5621 0.786592C18.5376 0.918268 18.4738 1.03954 18.3789 1.13455L10.1144 10.3538L19.007 20.8631C19.0818 20.9667 19.1263 21.0888 19.1355 21.216C19.1448 21.3432 19.1184 21.4704 19.0593 21.5836C19.0003 21.6968 18.9108 21.7915 18.8009 21.8572C18.691 21.923 18.565 21.9571 18.4367 21.956H14.9739C14.8689 21.9646 14.7632 21.9499 14.6646 21.913C14.566 21.876 14.4768 21.8177 14.4037 21.7423L6.1392 11.6356V21.2082C6.13491 21.4066 6.05318 21.5956 5.91128 21.7351C5.76938 21.8747 5.57844 21.9539 5.37887 21.956H2.63506C2.53599 21.9571 2.4377 21.9385 2.34596 21.9013C2.25421 21.8641 2.17086 21.8091 2.10081 21.7394C2.03075 21.6698 1.97539 21.5869 1.93799 21.4957C1.90059 21.4045 1.88189 21.3067 1.883 21.2082V0.756578Z" fill="#EBEBEB"/>
<path d="M19.4298 48.1444L14.967 42.3105L10.4959 36.4766L6.03312 42.3105L1.57031 48.1444H9.26453V181.002H11.7356V48.1444H19.4298Z" fill="#EBEBEB"/>
</g>
<defs>
<clipPath id="clip0_2898_6468">
<rect width="21" height="181" fill="white"/>
</clipPath>
</defs>
</svg>
