<svg width="90" height="172" viewBox="0 0 90 172" fill="none" xmlns="http://www.w3.org/2000/svg">
<path d="M19.0623 157.016L18.4171 154.911H15.2003L14.5552 157.016H12.5403L15.6599 148.17H17.9488L21.0772 157.016H19.0623ZM17.9753 153.336C17.3832 151.434 17.0474 150.355 16.9767 150.107C16.906 149.86 16.8441 149.656 16.8087 149.515C16.6791 150.028 16.2991 151.302 15.6687 153.336H17.9753Z" fill="#585858"/>
<path d="M25.9377 149.612C25.6207 149.599 25.3053 149.665 25.02 149.804C24.7347 149.943 24.4882 150.151 24.3028 150.408C23.8781 151.064 23.6737 151.839 23.7195 152.62C23.7195 154.592 24.4619 155.574 25.9377 155.574C26.7091 155.547 27.4707 155.391 28.1912 155.114V156.689C27.4219 156.998 26.5988 157.151 25.7698 157.14C25.2222 157.176 24.6734 157.089 24.163 156.888C23.6526 156.686 23.1933 156.373 22.8181 155.972C22.0789 155.014 21.7144 153.819 21.793 152.611C21.7742 151.778 21.9466 150.952 22.2967 150.196C22.6043 149.531 23.1067 148.976 23.7372 148.604C24.4065 148.221 25.1672 148.029 25.9377 148.047C26.8371 148.058 27.7223 148.273 28.5271 148.675L27.9173 150.196C27.5945 150.041 27.2642 149.902 26.9275 149.78C26.6092 149.669 26.2747 149.613 25.9377 149.612Z" fill="#585858"/>
<path d="M35.1551 157.016H30.0471V148.17H35.1286V149.701H31.9472V151.647H34.9342V153.177H31.9472V155.459H35.1551V157.016Z" fill="#585858"/>
<path d="M40.219 148.179H42.9674C43.9057 148.111 44.8451 148.294 45.6893 148.71C45.9776 148.887 46.2121 149.14 46.3677 149.441C46.5234 149.742 46.5944 150.079 46.5731 150.417C46.5905 150.879 46.4605 151.334 46.2019 151.717C46.0871 151.879 45.9412 152.017 45.7728 152.121C45.6043 152.226 45.4168 152.296 45.221 152.328V152.381C45.6973 152.461 46.1279 152.713 46.4317 153.088C46.7446 153.603 46.8656 154.212 46.7734 154.808C46.6813 155.404 46.3818 155.948 45.928 156.344C45.2358 156.826 44.4019 157.063 43.5595 157.016H40.219V148.179ZM42.0925 151.717H43.1795C43.5603 151.748 43.9416 151.665 44.2754 151.479C44.3936 151.388 44.4872 151.27 44.5474 151.134C44.6077 150.998 44.6326 150.848 44.62 150.7C44.6318 150.555 44.6034 150.41 44.5379 150.281C44.4724 150.151 44.3723 150.042 44.2488 149.966C43.8813 149.796 43.4775 149.72 43.0735 149.745H42.0925V151.717ZM42.0925 153.203V155.503H43.3032C43.7049 155.534 44.1055 155.431 44.4433 155.211C44.5675 155.101 44.6654 154.965 44.7297 154.811C44.794 154.658 44.8229 154.493 44.8144 154.327C44.8144 153.593 44.2842 153.23 43.2414 153.23L42.0925 153.203Z" fill="#585858"/>
<path d="M53.6165 157.016H48.5261V148.17H53.6165V149.701H50.3731V151.647H53.369V153.177H50.3731V155.459H53.5899L53.6165 157.016Z" fill="#585858"/>
<path d="M55.4546 157.016V148.17H57.3281V157.016H55.4546Z" fill="#585858"/>
<path d="M67.3851 157.016H65.0078L61.1636 150.373H61.1106C61.1901 151.558 61.2254 152.398 61.2254 152.903V157.06H59.5552V148.215H61.9148L65.7502 154.796C65.6883 153.646 65.6618 152.841 65.6618 152.363V148.179H67.3409L67.3851 157.016Z" fill="#585858"/>
<path d="M72.9616 152.053H76.4965V156.635C75.9728 156.812 75.4346 156.942 74.8881 157.025C74.3794 157.104 73.8652 157.142 73.3504 157.14C72.7875 157.175 72.2235 157.089 71.6971 156.886C71.1708 156.683 70.6947 156.368 70.3015 155.963C69.5411 155.008 69.1659 153.802 69.2499 152.584C69.2119 151.974 69.3007 151.363 69.5106 150.789C69.7205 150.215 70.0469 149.691 70.4694 149.249C70.9267 148.833 71.4624 148.512 72.0451 148.306C72.6278 148.099 73.2458 148.011 73.863 148.046C74.7752 148.042 75.6783 148.229 76.5142 148.595L75.8956 150.09C75.2702 149.776 74.5803 149.612 73.8806 149.612C73.5167 149.596 73.1537 149.661 72.8177 149.801C72.4816 149.942 72.1807 150.155 71.9364 150.426C71.4267 151.039 71.1678 151.823 71.2118 152.62C71.1582 153.398 71.3633 154.172 71.795 154.822C72.0002 155.075 72.2628 155.275 72.5611 155.406C72.8593 155.537 73.1845 155.595 73.5095 155.574C73.9099 155.574 74.3095 155.536 74.7025 155.459V153.61H73.0234L72.9616 152.053Z" fill="#585858"/>
<path d="M11.2765 171.876H9.40299V164.596H7.00806V163.04H13.6803V164.596H11.2765V171.876Z" fill="#585858"/>
<path d="M22.2703 171.876H20.4057V168.064H16.8707V171.876H15.0237V163.031H16.8972V166.489H20.4322V163.031H22.2703V171.876Z" fill="#585858"/>
<path d="M29.5876 171.876H24.5061V163.031H29.5876V164.561H26.3708V166.507H29.3667V168.064H26.3708V170.346H29.5876V171.876Z" fill="#585858"/>
<path d="M34.6426 171.876V163.031H36.5161V170.319H40.1041V171.867L34.6426 171.876Z" fill="#585858"/>
<path d="M49.6486 167.445C49.7425 168.66 49.3695 169.865 48.6057 170.815C48.2018 171.223 47.7152 171.54 47.1786 171.745C46.6421 171.949 46.068 172.036 45.495 172C44.9206 172.036 44.3452 171.949 43.8072 171.745C43.2691 171.54 42.781 171.223 42.3754 170.815C41.5944 169.869 41.2054 168.66 41.2884 167.436C41.2022 166.214 41.5917 165.006 42.3754 164.066C42.7852 163.661 43.2758 163.348 43.8149 163.147C44.354 162.946 44.9296 162.861 45.5038 162.898C46.0749 162.86 46.6476 162.945 47.1829 163.148C47.7181 163.351 48.2034 163.667 48.6057 164.074C49.3711 165.023 49.7443 166.229 49.6486 167.445ZM43.2061 167.445C43.1487 168.229 43.3471 169.011 43.7717 169.674C43.9678 169.928 44.2238 170.13 44.5168 170.261C44.8098 170.392 45.1307 170.449 45.4508 170.425C46.9443 170.425 47.6866 169.435 47.6866 167.445C47.6866 165.454 46.9443 164.455 45.4596 164.455C45.1387 164.436 44.8178 164.494 44.524 164.625C44.2303 164.755 43.9722 164.955 43.7717 165.207C43.3482 165.873 43.1499 166.657 43.2061 167.445Z" fill="#585858"/>
<path d="M60.0942 171.876H57.9555L56.7536 167.232C56.7536 167.064 56.6388 166.728 56.5327 166.206C56.4267 165.684 56.3648 165.322 56.3471 165.163C56.3471 165.384 56.2588 165.729 56.1615 166.215C56.0643 166.702 55.9936 167.038 55.9406 167.25L54.7917 171.876H52.6708L50.4172 163.031H52.2554L53.3866 167.852C53.581 168.736 53.7313 169.514 53.8196 170.169C53.8196 169.939 53.8992 169.585 53.9787 169.099C54.0425 168.723 54.1251 168.351 54.2262 167.984L55.5164 163.031H57.2839L58.5741 167.984C58.6272 168.208 58.6979 168.544 58.7862 168.993C58.8658 169.453 58.9276 169.877 58.9718 170.169C58.9718 169.851 59.0779 169.461 59.1663 168.993C59.2546 168.524 59.3342 168.108 59.4137 167.852L60.5361 163.031H62.3742L60.0942 171.876Z" fill="#585858"/>
<path d="M68.5339 171.876H63.4436V163.031H68.5339V164.561H65.3171V166.507H68.3042V168.064H65.3171V170.346H68.5339V171.876Z" fill="#585858"/>
<path d="M75.5863 169.426C75.5988 169.788 75.5252 170.147 75.3715 170.475C75.2179 170.802 74.9886 171.089 74.7026 171.31C74.0063 171.807 73.1612 172.05 72.3076 172C71.4443 172.017 70.5886 171.836 69.8066 171.469V169.7C70.2941 169.927 70.7996 170.114 71.3178 170.257C71.6855 170.365 72.0661 170.421 72.449 170.426C72.7814 170.447 73.1122 170.363 73.3946 170.187C73.5038 170.108 73.5912 170.002 73.6484 169.88C73.7056 169.757 73.7308 169.623 73.7216 169.488C73.7261 169.323 73.6764 169.162 73.5802 169.028C73.4629 168.872 73.3194 168.737 73.156 168.63C72.9616 168.506 72.5816 168.311 72.0072 168.037C71.5738 167.846 71.1669 167.599 70.7964 167.303C70.5289 167.078 70.3095 166.801 70.1513 166.489C69.9787 166.153 69.8936 165.779 69.9039 165.401C69.8871 165.053 69.95 164.705 70.0878 164.385C70.2257 164.064 70.4348 163.78 70.6992 163.553C71.3301 163.075 72.1098 162.837 72.8997 162.88C73.341 162.881 73.7805 162.938 74.2077 163.048C74.6561 163.164 75.0937 163.318 75.5156 163.508L74.9147 164.959C74.5357 164.799 74.1459 164.666 73.7481 164.561C73.4594 164.486 73.1626 164.448 72.8644 164.446C72.5695 164.426 72.2774 164.514 72.0425 164.694C71.9505 164.774 71.8774 164.873 71.8285 164.985C71.7796 165.096 71.7561 165.218 71.7597 165.339C71.7602 165.491 71.7997 165.641 71.8746 165.773C71.9738 165.914 72.0999 166.034 72.2458 166.127C72.6281 166.356 73.0235 166.563 73.43 166.746C74.0763 167.022 74.6529 167.439 75.1179 167.967C75.4388 168.384 75.6044 168.9 75.5863 169.426Z" fill="#585858"/>
<path d="M80.5971 171.876H78.7236V164.596H76.3198V163.04H82.9921V164.596H80.5971V171.876Z" fill="#585858"/>
<path d="M79.5807 133H10.4193C7.65664 132.998 5.00781 131.899 3.05432 129.943C1.10083 127.988 0.00234024 125.337 0 122.572L0 10.4288C0.00234024 7.66363 1.10083 5.01238 3.05432 3.05711C5.00781 1.10184 7.65664 0.00234237 10.4193 0L79.5807 0C82.3434 0.00234237 84.9922 1.10184 86.9457 3.05711C88.8992 5.01238 89.9977 7.66363 90 10.4288V122.572C89.9977 125.337 88.8992 127.988 86.9457 129.943C84.9922 131.899 82.3434 132.998 79.5807 133ZM10.4193 1.76909C8.1254 1.77143 5.92614 2.68455 4.30412 4.30805C2.6821 5.93155 1.76982 8.13282 1.76748 10.4288V122.572C1.76982 124.868 2.6821 127.069 4.30412 128.692C5.92614 130.316 8.1254 131.229 10.4193 131.231H79.5807C81.8746 131.229 84.0739 130.316 85.6959 128.692C87.3179 127.069 88.2302 124.868 88.2325 122.572V10.4288C88.2302 8.13282 87.3179 5.93155 85.6959 4.30805C84.0739 2.68455 81.8746 1.77143 79.5807 1.76909H10.4193Z" fill="#585858"/>
<path d="M17.1799 41.1313L27.6787 18.4074C27.7254 18.2943 27.8054 18.1982 27.908 18.1318C28.0106 18.0655 28.131 18.032 28.2532 18.0358H28.589C28.7116 18.0294 28.8332 18.0618 28.9363 18.1285C29.0395 18.1952 29.1189 18.2928 29.1634 18.4074L39.5473 41.1313C39.601 41.2253 39.6279 41.3321 39.6252 41.4403C39.6225 41.5485 39.5903 41.6538 39.532 41.745C39.4738 41.8361 39.3917 41.9095 39.2947 41.9573C39.1977 42.0051 39.0895 42.0253 38.9818 42.0159H36.0477C35.833 42.0283 35.6201 41.969 35.4426 41.8474C35.2651 41.7257 35.1329 41.5485 35.0668 41.3436L33.4142 37.6993H23.3219L21.6693 41.3436C21.5982 41.5453 21.4648 41.7192 21.2885 41.84C21.1121 41.9609 20.902 42.0225 20.6884 42.0159H17.7543C17.6459 42.0271 17.5365 42.0082 17.4382 41.9611C17.3398 41.9141 17.2564 41.8408 17.197 41.7494C17.1376 41.6579 17.1046 41.5518 17.1015 41.4428C17.0985 41.3337 17.1257 41.226 17.1799 41.1313ZM31.7616 33.94L28.3857 26.5363H28.2797L24.9745 33.9665L31.7616 33.94Z" fill="#585858"/>
<path d="M17.2595 84.0054L22.5531 90.9667L27.8467 97.937L33.1403 90.9667L38.4251 84.0054H29.3049V68.1366H26.3797V84.0054H17.2595Z" fill="#585858"/>
<path d="M17.3479 105.756H38.3367V103.315H17.3479V105.756Z" fill="#585858"/>
</svg>
