<svg width="21" height="181" viewBox="0 0 21 181" fill="none" xmlns="http://www.w3.org/2000/svg">
<g clip-path="url(#clip0_1483_981)">
<path d="M1.88422 0.755968C1.88199 0.656784 1.89987 0.558169 1.93677 0.465995C1.97367 0.37382 2.02885 0.28997 2.09902 0.219437C2.16919 0.148904 2.25292 0.0931291 2.34522 0.055434C2.43752 0.0177389 2.53651 -0.00110615 2.63628 2.08079e-05H5.41314C5.61413 0.00215817 5.80628 0.0824886 5.9484 0.223795C6.09053 0.365102 6.17132 0.556141 6.17347 0.755968V9.21929L14.1239 0.31226C14.1914 0.217385 14.2805 0.139672 14.3839 0.0854217C14.4873 0.0311719 14.602 0.00191391 14.7189 2.08079e-05H17.876C18.0105 -0.00580864 18.1437 0.028852 18.2581 0.0994736C18.3726 0.170095 18.4629 0.273393 18.5174 0.39587C18.5718 0.518347 18.5878 0.654306 18.5634 0.785982C18.5389 0.917657 18.475 1.03893 18.3801 1.13394L10.1156 10.3532L19.0082 20.8625C19.083 20.9661 19.1275 21.0882 19.1368 21.2154C19.146 21.3426 19.1196 21.4698 19.0606 21.583C19.0015 21.6962 18.9121 21.7909 18.8022 21.8566C18.6923 21.9224 18.5662 21.9565 18.4379 21.9554H14.9751C14.8701 21.964 14.7644 21.9493 14.6658 21.9124C14.5672 21.8754 14.4781 21.8171 14.4049 21.7417L6.14042 11.635V21.2076C6.13614 21.406 6.0544 21.595 5.9125 21.7345C5.7706 21.8741 5.57966 21.9533 5.38009 21.9554H2.63628C2.53721 21.9565 2.43892 21.9379 2.34718 21.9007C2.25543 21.8635 2.17208 21.8085 2.10203 21.7388C2.03197 21.6691 1.97661 21.5863 1.93921 21.4951C1.90181 21.4038 1.88311 21.3061 1.88422 21.2076V0.755968Z" fill="#42BC91"/>
<path d="M19.4297 48.1424L14.9669 42.3084L10.4958 36.4745L6.033 42.3084L1.57019 48.1424H9.26441V181H11.7355V48.1424H19.4297Z" fill="#42BC91"/>
</g>
<defs>
<clipPath id="clip0_1483_981">
<rect width="21" height="181" fill="white"/>
</clipPath>
</defs>
</svg>
