<svg width="90" height="172" viewBox="0 0 90 172" fill="none" xmlns="http://www.w3.org/2000/svg">
  <path d="M16.791 157.016H14.6701L12.3723 153.292L11.577 153.858V157.016H9.66809V148.17H11.5328V152.213L12.2751 151.178L14.6701 148.17H16.791L13.7068 152.08L16.791 157.016Z" fill="#585858"/>
  <path d="M17.8781 157.016V148.17H19.7516V157.016H17.8781Z" fill="#585858"/>
  <path d="M29.8086 157.016H27.396L23.587 150.373H23.534C23.6136 151.558 23.6489 152.398 23.6489 152.903V157.06H21.9786V148.215H24.3382L28.1736 154.796H28.2178C28.156 153.646 28.1295 152.841 28.1295 152.363V148.179H29.8086V157.016Z" fill="#585858"/>
  <path d="M35.3495 152.054H38.8845V156.635C38.3608 156.812 37.8226 156.943 37.2761 157.025C36.7673 157.103 36.2532 157.142 35.7384 157.14C35.1769 157.174 34.6146 157.087 34.0899 156.884C33.5652 156.681 33.0905 156.367 32.6983 155.963C31.9348 155.009 31.5564 153.804 31.6378 152.584C31.601 151.974 31.6912 151.362 31.9026 150.788C32.1141 150.214 32.4422 149.69 32.8662 149.25C33.3204 148.836 33.8517 148.518 34.4296 148.311C35.0075 148.105 35.6205 148.015 36.2333 148.047C37.1455 148.043 38.0486 148.229 38.8845 148.595L38.2659 150.09C37.6405 149.776 36.9506 149.612 36.251 149.612C35.887 149.596 35.524 149.661 35.188 149.802C34.8519 149.942 34.551 150.155 34.3067 150.426C33.797 151.039 33.5381 151.823 33.5821 152.62C33.5285 153.398 33.7336 154.172 34.1653 154.822C34.3705 155.075 34.6331 155.276 34.9314 155.406C35.2296 155.537 35.5548 155.595 35.8798 155.574C36.2802 155.574 36.6798 155.536 37.0728 155.459V153.61H35.3495V152.054Z" fill="#585858"/>
  <path d="M44.187 148.179H46.9354C47.8767 148.11 48.8194 148.293 49.6662 148.71C49.9544 148.887 50.1889 149.14 50.3446 149.441C50.5003 149.742 50.5713 150.079 50.5499 150.417C50.5673 150.879 50.4373 151.334 50.1788 151.717C50.0629 151.88 49.9156 152.018 49.7456 152.123C49.5756 152.228 49.3863 152.297 49.189 152.328V152.381C49.6661 152.459 50.0975 152.711 50.3997 153.088C50.7119 153.603 50.8334 154.211 50.7429 154.806C50.6524 155.401 50.3558 155.945 49.9048 156.344C49.2093 156.826 48.3727 157.063 47.5275 157.016H44.187V148.179ZM46.0605 151.717H47.1475C47.5312 151.747 47.9152 151.664 48.2522 151.479C48.3704 151.388 48.464 151.27 48.5243 151.134C48.5845 150.998 48.6095 150.848 48.5969 150.7C48.6087 150.555 48.5802 150.41 48.5147 150.281C48.4492 150.151 48.3492 150.042 48.2257 149.966C47.858 149.797 47.4543 149.721 47.0503 149.745H46.0782L46.0605 151.717ZM46.0605 153.203V155.503H47.2801C47.6847 155.535 48.0884 155.432 48.429 155.211C48.5502 155.099 48.6454 154.962 48.708 154.809C48.7706 154.656 48.799 154.492 48.7913 154.327C48.7913 153.593 48.2699 153.23 47.2271 153.23L46.0605 153.203Z" fill="#585858"/>
  <path d="M57.611 157.016H52.5206V148.17H57.611V149.701H54.3942V151.647H57.3812V153.177H54.3942V155.459H57.611V157.016Z" fill="#585858"/>
  <path d="M59.4491 157.016V148.17H61.3226V157.016H59.4491Z" fill="#585858"/>
  <path d="M71.3796 157.016H69.0024L65.1581 150.373H65.1051C65.1846 151.558 65.2199 152.398 65.2199 152.903V157.06H63.5497V148.215H65.9093L69.7447 154.796C69.6828 153.646 69.6475 152.841 69.6475 152.363V148.179H71.3354L71.3796 157.016Z" fill="#585858"/>
  <path d="M76.956 152.053H80.491V156.635C79.967 156.811 79.4289 156.941 78.8826 157.025C78.3738 157.103 77.8596 157.142 77.3448 157.14C76.7717 157.186 76.1954 157.104 75.6575 156.901C75.1196 156.698 74.6334 156.377 74.2341 155.963C73.4705 155.009 73.0921 153.804 73.1736 152.584C73.1368 151.974 73.227 151.362 73.4384 150.788C73.6498 150.214 73.9779 149.69 74.402 149.249C74.8593 148.833 75.395 148.512 75.9777 148.306C76.5604 148.099 77.1784 148.011 77.7956 148.046C78.7078 148.042 79.6108 148.229 80.4468 148.595L79.8282 150.09C79.2028 149.776 78.5128 149.612 77.8132 149.612C77.4493 149.596 77.0863 149.661 76.7502 149.801C76.4142 149.942 76.1132 150.155 75.869 150.426C75.3561 151.038 75.094 151.822 75.1355 152.62C75.0845 153.399 75.2927 154.173 75.7276 154.822C75.9323 155.076 76.1948 155.276 76.4932 155.407C76.7916 155.538 77.117 155.595 77.4421 155.574C77.8396 155.575 78.2363 155.536 78.6263 155.459V153.61H76.956V152.053Z" fill="#585858"/>
  <path d="M9.72117 171.876H7.81229V164.596H5.41736V163.04H12.0808V164.596H9.72117V171.876Z" fill="#585858"/>
  <path d="M20.6795 171.876H18.8148V168.064H15.2798V171.876H13.4417V163.031H15.3152V166.489H18.8501V163.031H20.6795V171.876Z" fill="#585858"/>
  <path d="M27.9968 171.876H22.9065V163.031H27.9968V164.561H24.7447V166.507H27.7405V168.064H24.7447V170.346H27.9615L27.9968 171.876Z" fill="#585858"/>
  <path d="M40.2897 171.876H38.425V168.064H34.8901V171.876H33.0519V163.031H34.9254V166.489H38.4604V163.031H40.3251L40.2897 171.876Z" fill="#585858"/>
  <path d="M42.5167 171.876V163.031H44.3902V171.876H42.5167Z" fill="#585858"/>
  <path d="M49.9666 166.914H53.5016V171.496C52.9777 171.672 52.4395 171.802 51.8932 171.885C51.3844 171.964 50.8703 172.002 50.3555 172C49.7924 172.037 49.2281 171.951 48.7016 171.748C48.1751 171.545 47.6991 171.229 47.3066 170.824C46.543 169.87 46.1646 168.664 46.2461 167.445C46.2093 166.834 46.2995 166.222 46.5109 165.648C46.7223 165.074 47.0505 164.55 47.4745 164.11C47.9307 163.692 48.4662 163.37 49.0492 163.163C49.6322 162.957 50.2507 162.869 50.8681 162.907C51.7803 162.903 52.6834 163.09 53.5193 163.455L52.9007 164.95C52.2753 164.636 51.5854 164.473 50.8857 164.473C50.522 164.458 50.1596 164.524 49.8238 164.664C49.488 164.805 49.1869 165.017 48.9415 165.286C48.4301 165.899 48.1683 166.682 48.208 167.48C48.1571 168.259 48.3653 169.034 48.8001 169.683C49.0048 169.936 49.2674 170.137 49.5657 170.268C49.8641 170.399 50.1895 170.456 50.5146 170.434C50.915 170.435 51.3146 170.396 51.7076 170.319V168.471H50.0285L49.9666 166.914Z" fill="#585858"/>
  <path d="M62.8074 171.876H60.9781V168.064H57.4431V171.876H55.5696V163.031H57.4431V166.489H60.9781V163.031H62.8428L62.8074 171.876Z" fill="#585858"/>
  <path d="M70.1247 171.876H65.0432V163.031H70.1247V164.561H66.9167V166.507H69.9038V168.064H66.9167V170.346H70.1247V171.876Z" fill="#585858"/>
  <path d="M77.1858 169.426C77.1983 169.788 77.1247 170.147 76.971 170.475C76.8173 170.802 76.588 171.089 76.302 171.31C75.6064 171.808 74.7608 172.052 73.9071 172C73.0439 172.016 72.1884 171.835 71.4061 171.469V169.7C71.8971 169.926 72.4054 170.113 72.9262 170.257C73.2937 170.365 73.6744 170.422 74.0573 170.425C74.3896 170.446 74.72 170.362 75.0029 170.187C75.1104 170.106 75.1964 170 75.2534 169.878C75.3104 169.756 75.3367 169.622 75.3299 169.488C75.3344 169.323 75.2847 169.162 75.1885 169.028C75.07 168.87 74.9232 168.735 74.7555 168.63C74.387 168.411 74.0064 168.213 73.6155 168.037C73.1806 167.843 72.7711 167.597 72.3959 167.303C72.1309 167.076 71.9119 166.799 71.7508 166.489C71.5851 166.151 71.5032 165.778 71.5122 165.401C71.4954 165.053 71.5583 164.705 71.6961 164.385C71.834 164.064 72.0431 163.78 72.3075 163.553C72.9357 163.076 73.7122 162.838 74.4992 162.88C74.9434 162.881 75.3858 162.937 75.816 163.048C76.264 163.165 76.7015 163.319 77.1239 163.508L76.523 164.959C76.1406 164.8 75.7479 164.667 75.3476 164.561C75.0589 164.486 74.762 164.448 74.4639 164.446C74.1717 164.426 73.8823 164.514 73.6508 164.694C73.5456 164.779 73.4632 164.889 73.4107 165.014C73.3583 165.139 73.3376 165.275 73.3504 165.41C73.3453 165.563 73.3853 165.713 73.4652 165.844C73.5633 165.983 73.6861 166.103 73.8276 166.197C74.2133 166.426 74.6116 166.633 75.0206 166.817C75.6663 167.086 76.2454 167.494 76.7174 168.011C77.025 168.418 77.1897 168.915 77.1858 169.426Z" fill="#585858"/>
  <path d="M82.1878 171.876H80.3142V164.596H77.9193V163.04H84.5915V164.596H82.1878V171.876Z" fill="#585858"/>
  <path d="M79.5807 133H10.4193C7.65664 132.998 5.00781 131.899 3.05432 129.943C1.10083 127.988 0.00234024 125.337 0 122.572L0 10.4288C0.00234024 7.66363 1.10083 5.01238 3.05432 3.05711C5.00781 1.10184 7.65664 0.00234237 10.4193 0L79.5807 0C82.3434 0.00234237 84.9922 1.10184 86.9457 3.05711C88.8992 5.01238 89.9977 7.66363 90 10.4288V122.572C89.9977 125.337 88.8992 127.988 86.9457 129.943C84.9922 131.899 82.3434 132.998 79.5807 133ZM10.4193 1.76909C8.1254 1.77143 5.92614 2.68455 4.30412 4.30805C2.6821 5.93155 1.76982 8.13282 1.76748 10.4288V122.572C1.76982 124.868 2.6821 127.069 4.30412 128.692C5.92614 130.316 8.1254 131.229 10.4193 131.231H79.5807C81.8746 131.229 84.0739 130.316 85.6959 128.692C87.3179 127.069 88.2302 124.868 88.2325 122.572V10.4288C88.2302 8.13282 87.3179 5.93155 85.6959 4.30805C84.0739 2.68455 81.8746 1.77143 79.5807 1.76909H10.4193Z" fill="#585858"/>
  <path d="M18.0724 19.1858C18.0713 19.0786 18.0915 18.9722 18.1319 18.873C18.1724 18.7737 18.2322 18.6835 18.3079 18.6077C18.3837 18.5319 18.4738 18.472 18.5729 18.4315C18.6721 18.3911 18.7784 18.3708 18.8855 18.372H21.8548C22.0682 18.3766 22.2714 18.4641 22.4215 18.6159C22.5716 18.7678 22.6568 18.9722 22.659 19.1858V28.3055L31.1606 18.717C31.2347 18.6147 31.3316 18.531 31.4435 18.4727C31.5555 18.4143 31.6795 18.3829 31.8057 18.3808H35.1816C35.3237 18.3764 35.4639 18.4145 35.5843 18.4901C35.7048 18.5657 35.8 18.6756 35.8578 18.8055C35.9156 18.9355 35.9335 19.0798 35.909 19.22C35.8846 19.3602 35.8191 19.4899 35.7207 19.5927L26.8833 29.5261L36.357 40.8306C36.44 40.9407 36.4904 41.0719 36.5024 41.2092C36.5144 41.3466 36.4875 41.4845 36.4247 41.6073C36.362 41.73 36.2661 41.8326 36.1478 41.9034C36.0295 41.9741 35.8938 42.01 35.7561 42.0071H32.0709C31.9598 42.0176 31.8477 42.0024 31.7435 41.9625C31.6393 41.9226 31.5456 41.8591 31.4699 41.7771L22.6325 30.8972V41.2021C22.628 41.4142 22.5418 41.6163 22.392 41.7663C22.2421 41.9163 22.0402 42.0026 21.8283 42.0071H18.8855C18.7788 42.0095 18.6727 41.9903 18.5736 41.9508C18.4745 41.9113 18.3843 41.8523 18.3084 41.7772C18.2326 41.7021 18.1726 41.6124 18.132 41.5137C18.0915 41.4149 18.0712 41.3089 18.0724 41.2021V19.1858Z" fill="#585858"/>
  <path d="M40.0598 89.8876L34.7662 82.9174L29.4815 75.9471L24.1879 82.9174L18.8943 89.8876H28.0145V105.748H30.9397V89.8876H40.0598Z" fill="#585858"/>
  <path d="M39.9715 68.1366H18.9827V70.5779H39.9715V68.1366Z" fill="#585858"/>
</svg>
