<svg width="21" height="182" viewBox="0 0 21 182" fill="none" xmlns="http://www.w3.org/2000/svg">
<g clip-path="url(#clip0_1483_985)">
<path d="M1.59192 133.247L6.04596 139.098L10.5 144.957L14.9541 139.098L19.4081 133.247H11.7372V0H9.27102V133.247H1.59192Z" fill="#42BC91"/>
<path d="M0.0660067 181.176L9.8979 160.005C9.94145 159.9 10.0161 159.81 10.1119 159.748C10.2077 159.687 10.32 159.655 10.434 159.659H10.7227C10.8372 159.653 10.9506 159.683 11.0469 159.745C11.1432 159.807 11.2173 159.898 11.2589 160.005L20.9588 181.176C21.0064 181.264 21.0293 181.364 21.0251 181.465C21.0209 181.565 20.9898 181.662 20.935 181.747C20.8802 181.831 20.8037 181.899 20.7136 181.943C20.6234 181.988 20.5229 182.008 20.4226 182H17.6677C17.4662 182.011 17.2668 181.955 17.101 181.84C16.9352 181.725 16.8124 181.558 16.7522 181.365L15.2098 178.003H5.77378L4.23136 181.398C4.16572 181.586 4.04282 181.748 3.88003 181.862C3.71723 181.976 3.52276 182.035 3.32406 182.033H0.602142C0.497045 182.045 0.390758 182.027 0.295543 181.981C0.200328 181.935 0.120065 181.863 0.0640145 181.773C0.00796416 181.683 -0.0215896 181.58 -0.0212371 181.474C-0.0208846 181.369 0.00935979 181.265 0.0660067 181.176ZM13.6673 174.476L10.5165 167.554H10.4258L7.34095 174.476H13.6673Z" fill="#42BC91"/>
</g>
<defs>
<clipPath id="clip0_1483_985">
<rect width="21" height="182" fill="white"/>
</clipPath>
</defs>
</svg>
