<svg width="21" height="182" viewBox="0 0 21 182" fill="none" xmlns="http://www.w3.org/2000/svg">
<g clip-path="url(#clip0_2898_6472)">
<path d="M1.59375 133.247L6.0478 139.098L10.5018 144.957L14.9559 139.098L19.4099 133.247H11.7391V0H9.27285V133.247H1.59375Z" fill="#EBEBEB"/>
<path d="M0.0677157 181.174L9.89961 160.003C9.94316 159.898 10.0178 159.808 10.1136 159.746C10.2094 159.685 10.3218 159.653 10.4357 159.657H10.7244C10.8389 159.651 10.9523 159.681 11.0486 159.743C11.1449 159.805 11.219 159.896 11.2606 160.003L20.9605 181.174C21.0081 181.262 21.031 181.362 21.0268 181.463C21.0227 181.563 20.9915 181.66 20.9367 181.745C20.8819 181.829 20.8054 181.897 20.7153 181.941C20.6251 181.986 20.5247 182.006 20.4244 181.998H17.6694C17.4679 182.009 17.2685 181.953 17.1027 181.838C16.9369 181.723 16.8141 181.556 16.7539 181.364L15.2115 178.001H5.77549L4.23307 181.396C4.16743 181.584 4.04453 181.746 3.88174 181.86C3.71894 181.974 3.52447 182.034 3.32577 182.031H0.603851C0.498754 182.043 0.392467 182.025 0.297252 181.979C0.202037 181.933 0.121774 181.861 0.0657234 181.771C0.00967314 181.682 -0.0198806 181.578 -0.0195281 181.472C-0.0191756 181.367 0.0110688 181.263 0.0677157 181.174ZM13.6691 174.474L10.5182 167.552H10.4275L7.34266 174.474H13.6691Z" fill="#EBEBEB"/>
</g>
<defs>
<clipPath id="clip0_2898_6472">
<rect width="21" height="182" fill="white"/>
</clipPath>
</defs>
</svg>
