<svg width="54" height="82" viewBox="0 0 54 82" fill="none" xmlns="http://www.w3.org/2000/svg">
<g filter="url(#filter0_d_30827_13835)">
<rect x="3" y="3" width="48" height="76" rx="2" fill="white"/>
</g>
<path d="M6.18919 5H47.8108C48.4054 5 48.9151 5.51064 49 6.10638V75.8936C49 76.5745 48.4903 77 47.8108 77H6.18919C5.59459 77 5.08494 76.4894 5 75.8936V6.10638C5.08494 5.51064 5.59459 5.08511 6.18919 5Z" fill="#055434"/>
<path d="M36.5984 21.9362C27.0849 25 18.5058 30.3617 13.9189 33.4255L11.0309 38.0213H14.2587C23.4324 32.234 33.1158 27.8936 38.8919 25.4255L36.5984 21.9362Z" fill="#055434"/>
<path d="M29.8031 11.8085C27.4247 12.8298 24.5367 14.1064 21.6486 15.7234L17.3166 22.1915C21.9884 18.9574 27.4247 16.234 31.5019 14.4468L29.8031 11.8085Z" fill="#055434"/>
<path d="M38.5521 39.9787C28.444 43.8085 17.6564 49.8511 10.1815 54.3617L5.08494 62.0213C19.5251 53 34.4749 46.5319 41.1853 43.7234L38.5521 39.9787Z" fill="#055434"/>
<path d="M40.166 62.1915C42.6293 61 44.9228 59.9787 46.9614 59.0426L44.9228 55.9787L31.417 62.1915H40.166Z" fill="#055434"/>
<path d="M29.8031 62.8723L24.112 65.5106V70.2766C25.8958 69.3404 27.7645 68.3192 29.8031 67.2979V62.8723Z" fill="#055434"/>
<path d="M27 7.55319L21.6486 15.6383C24.5367 14.1064 27.4247 12.7447 29.8031 11.7234L27 7.55319Z" fill="#0E6746"/>
<path d="M31.5019 14.3617C27.4247 16.234 21.9884 18.8723 17.3166 22.1064L14.2587 26.7872H18.166L13.9189 33.4255C18.5058 30.3617 27.0849 25 36.5984 21.9362L31.5019 14.3617Z" fill="#0E6746"/>
<path d="M37.193 38.0213H43.0541L35.9189 26.7872H39.7413L38.8069 25.3404C33.0309 27.8085 23.3475 32.234 14.1737 37.9362H16.8069L7.6332 51.1277H12.305L10.1815 54.3617C17.6564 49.8511 28.444 43.8085 38.5521 39.9787L37.193 38.0213Z" fill="#0E6746"/>
<path d="M29.8031 62.1915H31.332L44.9228 55.9787L41.695 51.1277H46.3668L41.2703 43.8085C34.5598 46.5319 19.5251 53.0851 5.16988 62.1064L5.08494 62.2766H24.2819V65.5957L29.973 62.9574V62.1915H29.8031Z" fill="#0E6746"/>
<path d="M49 62.1915L46.8764 59.0426C44.9228 59.9787 42.6293 61 40.0811 62.1915H49Z" fill="#0E6746"/>
<path d="M29.8031 77V67.2128C27.7645 68.234 25.8958 69.2553 24.112 70.1915V77H29.8031Z" fill="#0E6746"/>
<path d="M25.556 22.9574C26.2597 22.9574 26.8301 22.3859 26.8301 21.6809C26.8301 20.9758 26.2597 20.4043 25.556 20.4043C24.8523 20.4043 24.2819 20.9758 24.2819 21.6809C24.2819 22.3859 24.8523 22.9574 25.556 22.9574Z" fill="#5ECEA6"/>
<path d="M40.0811 17.1702C40.7848 17.1702 41.3552 16.5987 41.3552 15.8936C41.3552 15.1886 40.7848 14.617 40.0811 14.617C39.3774 14.617 38.8069 15.1886 38.8069 15.8936C38.8069 16.5987 39.3774 17.1702 40.0811 17.1702Z" fill="#5ECEA6"/>
<path d="M44.6679 57.3404C45.3716 57.3404 45.9421 56.7689 45.9421 56.0638C45.9421 55.3588 45.3716 54.7872 44.6679 54.7872C43.9643 54.7872 43.3938 55.3588 43.3938 56.0638C43.3938 56.7689 43.9643 57.3404 44.6679 57.3404Z" fill="#5ECEA6"/>
<path d="M14.5135 15.8936C15.6394 15.8936 16.5521 14.9791 16.5521 13.8511C16.5521 12.723 15.6394 11.8085 14.5135 11.8085C13.3876 11.8085 12.4749 12.723 12.4749 13.8511C12.4749 14.9791 13.3876 15.8936 14.5135 15.8936Z" fill="#5ECEA6"/>
<path d="M38.8069 69.0851C39.9328 69.0851 40.8456 68.1706 40.8456 67.0426C40.8456 65.9145 39.9328 65 38.8069 65C37.6811 65 36.7683 65.9145 36.7683 67.0426C36.7683 68.1706 37.6811 69.0851 38.8069 69.0851Z" fill="#5ECEA6"/>
<path d="M9.92664 69.5957C10.6303 69.5957 11.2008 69.0242 11.2008 68.3192C11.2008 67.6141 10.6303 67.0426 9.92664 67.0426C9.22296 67.0426 8.65251 67.6141 8.65251 68.3192C8.65251 69.0242 9.22296 69.5957 9.92664 69.5957Z" fill="#5ECEA6"/>
<path d="M34.5598 51.4681C35.2635 51.4681 35.834 50.8965 35.834 50.1915C35.834 49.4865 35.2635 48.9149 34.5598 48.9149C33.8562 48.9149 33.2857 49.4865 33.2857 50.1915C33.2857 50.8965 33.8562 51.4681 34.5598 51.4681Z" fill="#5ECEA6"/>
<path d="M8.73745 37.766C9.11275 37.766 9.41699 37.4611 9.41699 37.0851C9.41699 36.7091 9.11275 36.4043 8.73745 36.4043C8.36215 36.4043 8.05791 36.7091 8.05791 37.0851C8.05791 37.4611 8.36215 37.766 8.73745 37.766Z" fill="#5ECEA6"/>
<path d="M17.1467 29.766C17.522 29.766 17.8263 29.4611 17.8263 29.0851C17.8263 28.7091 17.522 28.4043 17.1467 28.4043C16.7714 28.4043 16.4672 28.7091 16.4672 29.0851C16.4672 29.4611 16.7714 29.766 17.1467 29.766Z" fill="#5ECEA6"/>
<path d="M30.5676 11.8085C30.9429 11.8085 31.2471 11.5037 31.2471 11.1277C31.2471 10.7516 30.9429 10.4468 30.5676 10.4468C30.1923 10.4468 29.888 10.7516 29.888 11.1277C29.888 11.5037 30.1923 11.8085 30.5676 11.8085Z" fill="#5ECEA6"/>
<path d="M35.834 74.7021C36.2093 74.7021 36.5135 74.3973 36.5135 74.0213C36.5135 73.6453 36.2093 73.3404 35.834 73.3404C35.4587 73.3404 35.1544 73.6453 35.1544 74.0213C35.1544 74.3973 35.4587 74.7021 35.834 74.7021Z" fill="#5ECEA6"/>
<path d="M32.4363 58.9575C32.8116 58.9575 33.1158 58.6526 33.1158 58.2766C33.1158 57.9006 32.8116 57.5957 32.4363 57.5957C32.061 57.5957 31.7568 57.9006 31.7568 58.2766C31.7568 58.6526 32.061 58.9575 32.4363 58.9575Z" fill="#5ECEA6"/>
<path d="M27 5L27.5946 6.2766L28.9537 6.44681L28.0193 7.38298L28.1892 8.74468L27 8.14894L25.8108 8.74468L25.9807 7.38298L25.0463 6.44681L26.4054 6.2766L27 5Z" fill="#F6D14A"/>
<path fill-rule="evenodd" clip-rule="evenodd" d="M36.066 25.6067C36.4465 25.962 36.7602 26.3563 37.0072 26.7895C37.2541 27.2228 37.4065 27.6762 37.4643 28.1498C37.5222 28.6233 37.4255 29.0873 37.1742 29.5417C36.8937 30.049 36.4995 30.3657 35.9918 30.492C35.4841 30.6183 34.9747 30.5401 34.4637 30.2575C34.3776 30.2099 34.292 30.1574 34.2068 30.1011C34.6832 30.7071 34.9946 31.2943 35.14 31.8627C35.2982 32.4815 35.2547 33.0128 35.0092 33.4566C34.9274 33.6046 34.8015 33.7316 34.6316 33.8377C34.4617 33.9439 34.2751 34.0235 34.0719 34.0767C33.8687 34.13 33.6665 34.1561 33.4654 34.1553C33.2643 34.1545 33.0946 34.1158 32.9562 34.0392C32.8497 33.9804 32.6715 33.8438 32.4215 33.6297C32.1715 33.4156 31.9071 33.19 31.6281 32.9529C31.3491 32.7158 31.0819 32.4887 30.8266 32.2716C30.5714 32.0546 30.3798 31.9107 30.2521 31.8401C30.0817 31.7459 29.9419 31.741 29.8326 31.8255C29.7234 31.9099 29.6949 32.1184 29.7474 32.451C29.7816 32.6907 29.8628 32.9461 29.991 33.2171C30.1192 33.488 30.2801 33.7564 30.4737 34.0222C30.6673 34.288 30.883 34.5452 31.1208 34.794C31.3586 35.0428 31.6095 35.2678 31.8736 35.469C32.1637 35.6985 32.4268 35.8889 32.6629 36.0401C32.899 36.1914 33.1033 36.2871 33.2757 36.3272C33.1891 36.4587 33.0783 36.5837 32.9432 36.7022C32.8081 36.8207 32.6657 36.9213 32.5157 37.0039C32.3657 37.0866 32.2206 37.1478 32.0805 37.1876C31.9403 37.2274 31.8165 37.2314 31.709 37.1995C31.585 37.1723 31.4055 37.0696 31.1704 36.8913C30.9354 36.713 30.6718 36.4983 30.3798 36.2471C30.0877 35.9959 29.7826 35.7306 29.4645 35.4512C29.1464 35.1717 28.8519 34.9123 28.5812 34.6729C28.3104 34.4334 28.0788 34.2364 27.8864 34.0816C27.6939 33.9269 27.5705 33.8483 27.5163 33.8459C27.6029 33.7144 27.7135 33.5962 27.848 33.4912C27.9825 33.3862 28.1201 33.307 28.2608 33.2538C28.4015 33.2005 28.5385 33.1727 28.6717 33.1705C28.805 33.1683 28.9166 33.199 29.0066 33.2626C29.1344 33.3332 29.2166 33.3856 29.2534 33.4197C29.079 33.0059 28.9709 32.5667 28.929 32.1019C28.8872 31.6372 28.9903 31.2182 29.2385 30.8449C29.4292 30.5502 29.6827 30.3557 29.999 30.2615C30.3152 30.1673 30.6123 30.1832 30.8901 30.3093C31.045 30.3812 31.2583 30.5233 31.5301 30.7357C31.8019 30.9481 32.0799 31.1743 32.3643 31.4143C32.6486 31.6544 32.913 31.88 33.1577 32.0912C33.4023 32.3024 33.575 32.4427 33.6756 32.5121C33.9599 32.7522 34.14 32.8035 34.216 32.6661C34.3026 32.5346 34.3419 32.3631 34.3337 32.1516C34.3256 31.9401 34.2772 31.7133 34.1887 31.4712C34.1002 31.229 33.9795 30.976 33.8266 30.712C33.6737 30.4481 33.4987 30.1926 33.3016 29.9456C33.2755 29.9174 33.2606 29.8815 33.2568 29.8381C33.2541 29.7675 33.3134 29.7106 33.4346 29.6673L33.8622 29.8486C33.6862 29.7066 33.5121 29.5466 33.3401 29.367C32.9742 28.9853 32.6752 28.5646 32.4428 28.105C32.2104 27.6453 32.0685 27.1666 32.017 26.669C31.9655 26.1714 32.0596 25.7059 32.2992 25.2726C32.6031 24.7231 32.9882 24.429 33.4545 24.3902C33.9208 24.3514 34.4042 24.4703 34.9045 24.747C35.2984 24.9649 35.6856 25.2514 36.066 25.6067ZM33.7526 25.4348C33.651 25.3923 33.5515 25.3649 33.4541 25.3524C33.3567 25.34 33.2638 25.3507 33.1756 25.3847C33.0872 25.4187 33.0139 25.4885 32.9555 25.5942C32.8152 25.8478 32.8285 26.138 32.9953 26.4648C33.1621 26.7917 33.3917 27.1118 33.684 27.4253C33.9764 27.7388 34.2863 28.0205 34.6137 28.2706C34.9411 28.5207 35.1953 28.6957 35.3763 28.7958C35.4402 28.8311 35.5203 28.8685 35.6166 28.908C35.7129 28.9475 35.8137 28.979 35.9188 29.0027C36.0239 29.0263 36.1203 29.0279 36.2081 29.0075C36.2958 28.987 36.3631 28.9344 36.4099 28.8499C36.5384 28.6175 36.5181 28.3337 36.3489 27.9986C36.1797 27.6636 35.9533 27.3314 35.6697 27.002C35.3861 26.6727 35.085 26.3751 34.7663 26.1092C34.4477 25.8433 34.1979 25.6603 34.0169 25.5602C33.9424 25.519 33.8543 25.4772 33.7526 25.4348ZM31.4312 39.9642C31.3494 40.1121 31.2208 40.2377 31.0456 40.3409C30.8704 40.4441 30.6812 40.5223 30.478 40.5755C30.2748 40.6287 30.0699 40.6534 29.8635 40.6497C29.6571 40.6459 29.4847 40.6057 29.3462 40.5292C29.1333 40.4114 28.8642 40.2005 28.5389 39.8964C28.2135 39.5923 27.8739 39.27 27.5201 38.9294C27.1663 38.5888 26.8255 38.2624 26.4978 37.95C26.17 37.6377 25.9002 37.4091 25.6883 37.2644C25.8557 37.012 26.0729 36.8078 26.3399 36.6518C26.6068 36.4959 26.8454 36.4416 27.0556 36.4888C27.1525 36.5148 27.301 36.6107 27.5012 36.7766C27.7014 36.9425 27.925 37.1352 28.1721 37.3546C28.4191 37.574 28.6766 37.8061 28.9444 38.0508C29.2122 38.2955 29.4607 38.5123 29.6899 38.7011C29.9191 38.89 30.1174 39.0341 30.2848 39.1336C30.4523 39.2331 30.5594 39.2406 30.6061 39.1561C30.6927 39.0246 30.7319 38.8531 30.7238 38.6416C30.7156 38.4301 30.6661 38.1991 30.5752 37.9488C30.4843 37.6984 30.3597 37.4397 30.2014 37.1728C30.0432 36.906 29.8655 36.649 29.6685 36.4021C29.6424 36.3738 29.6328 36.3409 29.6397 36.3033C29.6476 36.2387 29.7093 36.19 29.8247 36.1573L30.4666 36.4294C31.0066 37.0869 31.3638 37.7294 31.538 38.357C31.7122 38.9847 31.6766 39.5204 31.4312 39.9642ZM25.3493 34.9552C25.4172 35.0963 25.451 35.2426 25.4506 35.3942C25.4502 35.5458 25.3985 35.6896 25.2953 35.8258C25.1688 36.0042 25.0042 36.1133 24.8016 36.153C24.5989 36.1927 24.4129 36.1519 24.2436 36.0307C23.9572 35.8447 23.7696 35.5995 23.6807 35.2951C23.5919 34.9907 23.6195 34.7334 23.7635 34.5233C23.8666 34.3871 23.9997 34.2848 24.1627 34.2162C24.3257 34.1477 24.5137 34.1723 24.7266 34.29C24.8544 34.3607 24.9731 34.4539 25.0828 34.5698C25.1925 34.6857 25.2813 34.8141 25.3493 34.9552ZM26.6921 39.7856C26.6045 39.9441 26.5398 40.036 26.498 40.0612C26.4562 40.0864 26.4117 40.079 26.3643 40.039C25.9794 39.7295 25.6776 39.5902 25.4589 39.6211C25.2403 39.652 25.0725 39.7731 24.9557 39.9844C24.8563 40.164 24.8321 40.3335 24.883 40.4928C24.934 40.652 25.034 40.7729 25.183 40.8553C25.3747 40.9613 25.6149 41.0044 25.9038 40.9848C26.1927 40.9652 26.493 40.9312 26.8048 40.8828C27.1165 40.8344 27.4275 40.8063 27.7377 40.7984C28.0478 40.7906 28.32 40.8514 28.5542 40.981C29.0652 41.2636 29.3762 41.6942 29.487 42.273C29.5979 42.8518 29.4576 43.4952 29.0661 44.2032C28.768 44.7422 28.4834 45.0746 28.2121 45.2006C27.9409 45.3266 27.6669 45.3131 27.39 45.16C27.241 45.0776 27.1032 44.9496 26.9767 44.7761C26.8502 44.6027 26.6967 44.3901 26.5161 44.1385C26.6155 43.9588 26.6901 43.8553 26.7401 43.8277C26.7901 43.8002 26.8359 43.8117 26.8774 43.8622C27.0776 44.0281 27.2622 44.1406 27.4312 44.1995C27.6001 44.2585 27.7477 44.2745 27.8738 44.2476C27.9998 44.2207 28.1093 44.1674 28.202 44.0877C28.2948 44.0079 28.3733 43.9099 28.4376 43.7936C28.5662 43.5611 28.6007 43.3353 28.5412 43.1161C28.4817 42.8969 28.3402 42.7255 28.1166 42.6018C27.9143 42.49 27.6744 42.44 27.3966 42.4521C27.1189 42.464 26.8297 42.4904 26.5292 42.5312C26.2286 42.572 25.9288 42.5925 25.6298 42.5927C25.3307 42.5929 25.0535 42.5224 24.798 42.3811C24.3509 42.1338 24.0839 41.7619 23.997 41.2654C23.9101 40.7689 24.0216 40.2406 24.3313 39.6805C24.606 39.1839 24.8731 38.8831 25.1327 38.7783C25.3922 38.6734 25.6444 38.6887 25.8892 38.8241C26.017 38.8948 26.1429 39.0127 26.267 39.1779C26.3911 39.3431 26.5328 39.5457 26.6921 39.7856ZM27.16 45.6325C27.2992 45.9716 27.3794 46.323 27.4007 46.6867C27.422 47.0504 27.3261 47.3872 27.113 47.6971C26.8356 48.1232 26.2532 48.2841 25.3656 48.1796C25.4467 48.3348 25.5271 48.5035 25.6071 48.6857C25.687 48.8679 25.7449 49.0586 25.7807 49.2578C25.8165 49.457 25.8264 49.6591 25.8103 49.8641C25.7943 50.0691 25.7307 50.272 25.6197 50.4728C25.5203 50.6524 25.3973 50.8121 25.2506 50.9517C25.1038 51.0914 24.9315 51.1893 24.7337 51.2454C24.5358 51.3016 24.3126 51.3092 24.0641 51.2684C23.8156 51.2276 23.537 51.1218 23.2282 50.9511C22.813 50.7214 22.4221 50.3914 22.0554 49.9609C21.6888 49.5305 21.3973 49.052 21.1811 48.5253C20.965 47.9987 20.8472 47.4575 20.8279 46.9017C20.8085 46.346 20.9362 45.8197 21.2108 45.3231C21.4329 44.9215 21.7041 44.6575 22.0243 44.531C22.3445 44.4045 22.6406 44.4095 22.9125 44.5461C22.9977 44.5933 23.135 44.6968 23.3246 44.8568L23.9643 45.3969C24.2012 45.5969 24.4447 45.804 24.6947 46.0181C24.9446 46.2323 25.1806 46.4214 25.4027 46.5856C25.6246 46.7498 25.8172 46.8666 25.9803 46.9361C26.1434 47.0056 26.2566 46.9958 26.3199 46.9066C26.4065 46.7751 26.4457 46.6036 26.4376 46.3921C26.4294 46.1806 26.3838 45.9552 26.3006 45.716C26.2174 45.4768 26.0993 45.2252 25.9464 44.9613C25.7935 44.6974 25.6185 44.4419 25.4214 44.1949C25.406 44.1726 25.3964 44.1397 25.3926 44.0962C25.3852 44.0093 25.4372 43.9277 25.5488 43.8514L26.0908 43.9648C26.2522 44.1507 26.4359 44.3903 26.6421 44.6837C26.8482 44.9771 27.0209 45.2933 27.16 45.6325ZM21.8869 45.8729C21.7908 45.8957 21.7195 45.9493 21.6727 46.0339C21.5383 46.2769 21.5419 46.5721 21.6834 46.9195C21.825 47.2669 22.0317 47.6158 22.3036 47.9662C22.5755 48.3167 22.8865 48.6405 23.2365 48.9375C23.5866 49.2346 23.8976 49.4515 24.1696 49.5881C24.34 49.6823 24.4918 49.7283 24.6251 49.7261C24.7583 49.7239 24.8572 49.6647 24.9214 49.5485C25.0325 49.3477 24.9903 49.0656 24.795 48.7024C24.5997 48.3391 24.3381 47.9702 24.01 47.5955C23.6819 47.2209 23.3419 46.8742 22.99 46.5554C22.638 46.2365 22.3609 46.0212 22.1586 45.9093C22.0735 45.8622 21.9829 45.8501 21.8869 45.8729ZM18.4624 48.2945C18.3572 48.4847 18.274 48.5974 18.2129 48.6326C18.1517 48.6677 18.0974 48.6653 18.05 48.6253C17.639 48.2877 17.275 48.1037 16.9582 48.0732C16.6414 48.0429 16.3777 48.218 16.1674 48.5984C15.957 48.9788 15.9112 49.4261 16.03 49.9403C16.1488 50.4545 16.3868 50.9793 16.744 51.515C17.1011 52.0505 17.5597 52.5663 18.1195 53.0622C18.6794 53.5582 19.2952 53.978 19.9669 54.3219C20.5216 54.601 21.0059 54.693 21.4201 54.5977C21.8342 54.5025 22.1523 54.2541 22.3744 53.8525C22.5205 53.5883 22.6096 53.2512 22.6417 52.8412C22.6738 52.4312 22.6352 52.0234 22.5258 51.618C22.5114 51.5686 22.5129 51.5281 22.5304 51.4964C22.5655 51.433 22.6586 51.4154 22.8097 51.4438L23.2866 51.9766C23.4503 52.3845 23.5356 52.8525 23.5424 53.3807C23.5492 53.9088 23.3831 54.4794 23.0442 55.0923C22.641 55.8214 22.1006 56.2643 21.4232 56.4209C20.7457 56.5775 19.983 56.4421 19.1351 56.0146C18.2978 55.5929 17.5765 55.056 16.971 54.4038C16.3655 53.7516 15.899 53.0554 15.5714 52.3154C15.2439 51.5754 15.0714 50.8315 15.054 50.0836C15.0366 49.3357 15.1945 48.6606 15.5276 48.0583C15.7848 47.5934 16.0738 47.253 16.3947 47.0372C16.7156 46.8213 17.0251 46.7959 17.3232 46.9608C17.5255 47.0726 17.7145 47.2462 17.8903 47.4813C18.0661 47.7165 18.2568 47.9876 18.4624 48.2945Z" fill="white"/>
<defs>
<filter id="filter0_d_30827_13835" x="0" y="0" width="54" height="82" filterUnits="userSpaceOnUse" color-interpolation-filters="sRGB">
<feFlood flood-opacity="0" result="BackgroundImageFix"/>
<feColorMatrix in="SourceAlpha" type="matrix" values="0 0 0 0 0 0 0 0 0 0 0 0 0 0 0 0 0 0 127 0" result="hardAlpha"/>
<feOffset/>
<feGaussianBlur stdDeviation="1.5"/>
<feComposite in2="hardAlpha" operator="out"/>
<feColorMatrix type="matrix" values="0 0 0 0 0 0 0 0 0 0 0 0 0 0 0 0 0 0 0.3 0"/>
<feBlend mode="normal" in2="BackgroundImageFix" result="effect1_dropShadow_30827_13835"/>
<feBlend mode="normal" in="SourceGraphic" in2="effect1_dropShadow_30827_13835" result="shape"/>
</filter>
</defs>
</svg>
