<svg xmlns="http://www.w3.org/2000/svg" viewBox="0 0 249.65 45.23"><path fill="currentColor" d="M95.15,22.39a.51.51,0,0,0,.29.08.56.56,0,0,0,.46-.25.55.55,0,0,0-.17-.75L61.57.08a.55.55,0,0,0-.75.17A.55.55,0,0,0,61,1L81.67,14,66.51,22.78,30.27.08a.55.55,0,0,0-.75.17.55.55,0,0,0,.17.75l1.11.7L.27,19.49a.54.54,0,0,0-.2.74.54.54,0,0,0,.47.27.55.55,0,0,0,.28-.07l31-18.08,14.9,9.33L8.53,34,.83,29.13a.54.54,0,0,0-.58.92l24.11,15.1a.6.6,0,0,0,.29.08.54.54,0,0,0,.29-1L9.57,34.6l19.7-11.48L48.14,34.41a.6.6,0,0,0,.28.08.55.55,0,0,0,.28-.07l34-19.82ZM48.43,33.32,30.34,22.5,47.78,12.33,65.45,23.4Z" /><path fill="currentColor" d="M173.06,21.47,138.9.08a.54.54,0,0,0-.74.17.54.54,0,0,0,.17.75L159,14l-15.16,8.83L107.6.08a.55.55,0,0,0-.75.17A.55.55,0,0,0,107,1l1.11.7,1,.65,14.91,9.33L85.86,34a.85.85,0,0,0-.41.66c0,.36.47.66.47.66l15.78,9.88a.6.6,0,0,0,.28.08.54.54,0,0,0,.46-.25.54.54,0,0,0-.17-.75L86.9,34.6l19.7-11.48,18.88,11.29a.54.54,0,0,0,.28.08.54.54,0,0,0,.27-.07L160,14.6l12.44,7.79a.51.51,0,0,0,.29.08.54.54,0,0,0,.29-1Zm-47.3,11.85L107.67,22.5l17.45-10.17L142.78,23.4Z" /><path fill="currentColor" d="M87.5,33.62a.56.56,0,0,0-.75-.19L68.27,44.21a.54.54,0,0,0,.27,1,.53.53,0,0,0,.27-.08L87.3,34.37A.56.56,0,0,0,87.5,33.62Z" /><path fill="currentColor" d="M249.39,21.47,215.24.08a.54.54,0,0,0-.58.92l20.67,13-15.15,8.83L183.94.08a.54.54,0,0,0-.58.92l1.11.7,1,.65,14.9,9.33L162.2,34a.88.88,0,0,0-.42.66c0,.36.47.66.47.66L178,45.15a.6.6,0,0,0,.29.08.54.54,0,0,0,.29-1L163.24,34.6l19.69-11.48,18.88,11.29a.6.6,0,0,0,.28.08.5.5,0,0,0,.27-.07l34-19.82,12.45,7.79a.51.51,0,0,0,.29.08.56.56,0,0,0,.46-.25A.55.55,0,0,0,249.39,21.47ZM202.1,33.32,184,22.5l17.45-10.17L219.12,23.4Z" /><path fill="currentColor" d="M249.57,28.15a.54.54,0,0,0-.74-.2L220.94,44.21a.54.54,0,0,0,.27,1,.53.53,0,0,0,.27-.08l27.9-16.25A.54.54,0,0,0,249.57,28.15Z" /><path fill="currentColor" d="M163.89,33.59a.54.54,0,0,0-.74-.2L144.59,44.21a.54.54,0,0,0,.55.94L163.7,34.33A.54.54,0,0,0,163.89,33.59Z" /></svg>