<svg width="24" height="24" viewBox="0 0 24 24" fill="none" xmlns="http://www.w3.org/2000/svg">
  <path d="M20.8589 5.09676H20.0872C20.4785 4.43321 20.6503 3.8003 20.5954 3.21323C20.5499 2.72189 20.317 2.01917 19.4637 1.45914C18.7562 0.99372 17.8464 0.879567 16.837 1.13174C15.2002 1.5427 13.263 2.95556 11.9892 4.66301C10.7147 2.95559 8.77905 1.5427 7.14225 1.13174C6.13205 0.877928 5.22147 0.992886 4.51408 1.45914C3.66151 2.01917 3.42859 2.72189 3.38309 3.21323C3.32822 3.8003 3.49838 4.43321 3.89131 5.09676H3.11955C1.951 5.09676 1 6.04848 1 7.21792V9.95002C1 10.8751 1.61016 11.6927 2.49293 11.9673C2.40903 12.1994 2.3651 12.4394 2.3651 12.6825V20.8793C2.3651 22.0479 3.31719 23 4.48585 23H19.495C20.6636 23 21.6142 22.0479 21.6142 20.8793V12.6825C21.6142 12.4378 21.5719 12.197 21.488 11.9664C22.3694 11.6903 22.9781 10.8727 22.9781 9.94999V7.21862C22.9781 6.04926 22.0275 5.09676 20.8589 5.09676ZM19.495 21.4894H12.7438V12.0715H19.495C19.8315 12.0715 20.1044 12.346 20.1044 12.6825V20.8792C20.1044 21.2157 19.8315 21.4894 19.495 21.4894ZM13.5751 5.09676C14.6488 3.85828 16.0582 2.88503 17.2025 2.59794C17.797 2.44895 18.2832 2.48973 18.6354 2.72189C19.0096 2.96773 19.0761 3.18692 19.0911 3.35247C19.1506 3.95948 18.4997 4.77789 18.1923 5.09676H13.5751ZM21.4675 7.21865V9.95002C21.4675 10.2865 21.1954 10.5601 20.8589 10.5601H12.7438V6.60807H20.8589C21.1954 6.60807 21.4675 6.88222 21.4675 7.21865ZM11.234 12.0715V21.4894H4.48583C4.14854 21.4894 3.87559 21.2157 3.87559 20.8792V12.6825C3.87559 12.346 4.14854 12.0715 4.48583 12.0715H11.234ZM4.8874 3.35247C4.90226 3.18692 4.96974 2.9677 5.34232 2.72189C5.69205 2.48973 6.17833 2.44695 6.77601 2.59794C7.91401 2.88341 9.32181 3.85675 10.3979 5.09676H5.78462C5.50934 4.81795 4.82698 3.97404 4.8874 3.35247ZM2.50937 7.21865C2.50937 6.88225 2.78232 6.60807 3.11953 6.60807H11.2339V10.5601H3.11953C2.78232 10.5601 2.50937 10.2865 2.50937 9.95002V7.21865Z" fill="currentcolor"/>
</svg>

