<svg width="24" height="25" viewBox="0 0 24 25" fill="none" xmlns="http://www.w3.org/2000/svg">
<path d="M19.7664 2H4.2336C2.45512 2 1 3.45512 1 5.2336V11.874C1 12.3822 1.41575 12.7979 1.92388 12.7979C2.43202 12.7979 2.84777 12.3822 2.84777 11.874V8.64042H21.1522V20.7664C21.1522 21.5286 20.5286 22.1522 19.7664 22.1522H4.2336C3.47139 22.1522 2.84777 21.5286 2.84777 20.7664V15.5118C2.84777 15.0037 2.43202 14.5879 1.92388 14.5879C1.41575 14.5879 1 15.0037 1 15.5118V20.7664C1 22.5449 2.45512 24 4.2336 24H19.7664C21.5449 24 23 22.5449 23 20.7664V5.2336C23 3.45512 21.5564 2 19.7664 2ZM2.84777 6.79265V5.2336C2.84777 4.47139 3.47139 3.84777 4.2336 3.84777H19.7664C20.5286 3.84777 21.1522 4.47139 21.1522 5.2336V6.79265H2.84777Z" fill="#B1BAD3"/>
<path d="M6.9123 19C7.20004 19 7.47627 18.8549 7.66042 18.6009L11.2168 13.401L14.1978 16.0493C14.3935 16.2186 14.6352 16.3033 14.8884 16.2791C15.1416 16.2549 15.3603 16.1219 15.5214 15.9163L18.8016 11.5629C19.1123 11.1396 19.0548 10.535 18.652 10.2085C18.2491 9.88196 17.6737 9.94243 17.3629 10.3657L14.6697 13.9331L11.6542 11.2485C11.4585 11.0792 11.2053 10.9945 10.9521 11.0308C10.6989 11.0671 10.4687 11.2122 10.3191 11.4299L6.1757 17.4763C5.87645 17.9116 5.96853 18.5163 6.38287 18.8307C6.53249 18.9395 6.72815 19 6.9123 19Z" fill="#B1BAD3"/>
</svg>
