<svg width="24" height="24" viewBox="0 0 24 24" fill="none" xmlns="http://www.w3.org/2000/svg">
  <path d="M19.3078 2.13281H4.55156C3.21797 2.13281 2.13281 3.21797 2.13281 4.55156V19.3078C2.13281 20.6414 3.21797 21.7266 4.55156 21.7266H19.3078C20.6414 21.7266 21.7266 20.6414 21.7266 19.3078V4.55156C21.7266 3.21797 20.6414 2.13281 19.3078 2.13281ZM20.2758 19.3078C20.2758 19.8422 19.8422 20.2758 19.3078 20.2758H4.55156C4.01719 20.2758 3.58359 19.8422 3.58359 19.3078V4.55156C3.58359 4.01719 4.01719 3.58359 4.55156 3.58359H19.3078C19.8422 3.58359 20.2758 4.01719 20.2758 4.55156V19.3078Z" fill="#EEF1F7"/>
  <path d="M16.6476 11.2023H12.6562V7.21094C12.6562 6.81016 12.3304 6.48438 11.9296 6.48438C11.5289 6.48438 11.2031 6.81016 11.2031 7.21094V11.2023H7.21167C6.81089 11.2023 6.48511 11.5281 6.48511 11.9289C6.48511 12.3297 6.81089 12.6555 7.21167 12.6555H11.2031V16.6469C11.2031 17.0477 11.5289 17.3734 11.9296 17.3734C12.3304 17.3734 12.6562 17.0477 12.6562 16.6469V12.6555H16.6476C17.0484 12.6555 17.3742 12.3297 17.3742 11.9289C17.3742 11.5281 17.0484 11.2023 16.6476 11.2023Z" fill="#EEF1F7"/>
</svg>


