<svg width="24" height="25" viewBox="0 0 24 25" fill="none" xmlns="http://www.w3.org/2000/svg">
  <path d="M19.8235 6.44543H18.6471V5.26896C18.6471 3.79488 17.4229 2.91602 16.2941 2.91602H3.35294C2.08922 2.91602 1 4.11968 1 5.26896V7.6219V20.5631C1 21.8748 2.06469 22.916 3.35294 22.916H19.8235C21.1118 22.916 22.1765 21.8872 22.1765 20.5631V8.79837C22.1642 7.4742 21.1118 6.44543 19.8235 6.44543ZM3.35294 4.09249H16.2941C16.7849 4.09249 17.4706 4.83173 17.4706 5.26896V6.44543H3.35294C2.86218 6.44543 2.17647 5.70618 2.17647 5.26896C2.18874 4.83173 2.87445 4.09249 3.35294 4.09249ZM21 11.1513V20.5631C21 21.2252 20.4615 21.7395 19.8235 21.7395H3.35294C2.70268 21.7395 2.17647 21.2127 2.17647 20.5631V7.6219H19.8235C20.4738 7.6219 21 8.14877 21 8.79837V11.1513Z" fill="currentcolor" stroke="currentcolor" stroke-width="0.3"/>
  <path d="M12.7646 12.3278V15.8572C12.7646 16.9213 13.3462 17.0337 13.9411 17.0337H19.8235V15.8572H13.9411V12.3278H19.8235V11.1514H13.9411C13.3348 11.1514 12.7646 11.6942 12.7646 12.3278Z" fill="currentcolor" stroke="currentcolor" stroke-width="0.3"/>
</svg>



