<svg width="24" height="25" viewBox="0 0 24 25" fill="none" xmlns="http://www.w3.org/2000/svg">
  <path d="M19.3078 3.04883H4.55156C3.21797 3.04883 2.13281 4.13398 2.13281 5.46758V20.2238C2.13281 21.5574 3.21797 22.6426 4.55156 22.6426H19.3078C20.6414 22.6426 21.7266 21.5574 21.7266 20.2238V5.46758C21.7266 4.13398 20.6414 3.04883 19.3078 3.04883ZM20.2758 20.2238C20.2758 20.7582 19.8422 21.1918 19.3078 21.1918H4.55156C4.01719 21.1918 3.58359 20.7582 3.58359 20.2238V5.46758C3.58359 4.9332 4.01719 4.49961 4.55156 4.49961H19.3078C19.8422 4.49961 20.2758 4.9332 20.2758 5.46758V20.2238Z" fill="currentcolor"/>
  <path d="M16.6479 12.1193H12.6564V8.12793C12.6564 7.72715 12.3307 7.40137 11.9299 7.40137C11.5291 7.40137 11.2033 7.72715 11.2033 8.12793V12.1193H7.21191C6.81113 12.1193 6.48535 12.4451 6.48535 12.8459C6.48535 13.2467 6.81113 13.5725 7.21191 13.5725H11.2033V17.5639C11.2033 17.9646 11.5291 18.2904 11.9299 18.2904C12.3307 18.2904 12.6564 17.9646 12.6564 17.5639V13.5725H16.6479C17.0486 13.5725 17.3744 13.2467 17.3744 12.8459C17.3744 12.4451 17.0486 12.1193 16.6479 12.1193Z" fill="currentcolor"/>
</svg>


