<svg width="25" height="25" viewBox="0 0 25 25" fill="none" xmlns="http://www.w3.org/2000/svg">
  <g clip-path="url(#clip0_5512_604)">
    <path d="M23.2014 12.6645H12.3272C12.1546 12.6645 11.982 12.4988 11.982 12.3331V1.8939C11.982 1.7282 11.8094 1.5625 11.6368 1.5625C5.42303 1.7282 0.41748 6.61638 0.41748 12.6645C0.41748 18.7954 5.59563 23.7664 11.982 23.7664C18.2821 23.7664 23.374 18.9611 23.5466 12.9959C23.5466 12.8302 23.374 12.6645 23.2014 12.6645ZM21.6479 14.3215C21.5616 14.9843 21.3027 15.6471 21.0438 16.3099C20.526 17.4698 19.8356 18.464 18.9725 19.2925C18.1095 20.121 16.9876 20.8667 15.8656 21.2809C14.6574 21.778 13.3629 22.0266 12.0683 22.0266C10.7738 22.0266 9.47925 21.778 8.27101 21.2809C7.06278 20.7838 6.02715 20.121 5.16412 19.2925C4.3011 18.464 3.52437 17.3869 3.09286 16.3099C2.57504 15.15 2.31614 13.9072 2.31614 12.6645C2.31614 11.4217 2.57504 10.1789 3.09286 9.01904C3.61067 7.85913 4.3011 6.86493 5.16412 6.03642C6.02715 5.20792 7.14908 4.46227 8.27101 4.04801C8.96143 3.79946 9.65185 3.55091 10.3423 3.46806V14.0729C10.3423 14.2386 10.5149 14.4043 10.6875 14.4043L21.6479 14.3215Z" fill="#B1BAD3"/>
    <path d="M13.3628 0.402344C13.1902 0.402344 13.0176 0.568045 13.0176 0.733746V11.1729C13.0176 11.3386 13.1902 11.5043 13.3628 11.5043H24.2369C24.4095 11.5043 24.5821 11.3386 24.5821 11.1729C24.4095 5.29052 19.4903 0.568045 13.3628 0.402344ZM14.7436 9.84729V2.22505C15.434 2.3079 16.1245 2.55646 16.8149 2.80501C18.0231 3.30211 19.0588 3.96491 19.9218 4.79342C20.7848 5.62192 21.5615 6.69898 21.993 7.77603C22.252 8.43884 22.5109 9.10164 22.5972 9.76444H14.7436V9.84729Z" fill="#B1BAD3"/>
  </g>
  <defs>
    <clipPath id="clip0_5512_604">
      <rect width="25" height="24" fill="white" transform="translate(0 0.0859375)"/>
    </clipPath>
  </defs>
</svg>





