<svg xmlns="http://www.w3.org/2000/svg" width="24" height="24" viewBox="0 0 24 24" fill="none">
  <path d="M21.3804 16.7603H2.60001C2.27001 16.7603 2 16.4903 2 16.1603V4.69005C2 3.21002 3.21002 2 4.69005 2H19.2903C20.7704 2 21.9804 3.21002 21.9804 4.69005V16.1603C21.9804 16.4903 21.7104 16.7603 21.3804 16.7603ZM3.21002 15.5603H20.7804V4.69005C20.7804 3.87004 20.1104 3.21002 19.3003 3.21002H4.69005C3.87004 3.21002 3.21002 3.88004 3.21002 4.69005V15.5603ZM21.3804 18.8303H2.60001C2.27001 18.8303 2 18.5603 2 18.2303C2 17.9003 2.27001 17.6303 2.60001 17.6303H21.3704C21.7004 17.6303 21.9704 17.9003 21.9704 18.2303C21.9804 18.5603 21.7104 18.8303 21.3804 18.8303Z" fill="white"/>
  <path d="M11.9901 22.0019C11.6401 22.0019 11.3601 21.7219 11.3601 21.3719V18.2218C11.3601 17.8718 11.6401 17.5918 11.9901 17.5918C12.3401 17.5918 12.6201 17.8718 12.6201 18.2218V21.3719C12.6201 21.7219 12.3401 22.0019 11.9901 22.0019ZM6.53 11.8117L8.22003 7.28158C8.37004 6.85157 8.67004 6.62156 9.10005 6.60156C9.51006 6.62156 9.82006 6.85157 10.0101 7.28158L11.6401 11.8117C11.6601 11.9617 11.6801 12.0717 11.7101 12.1417C11.6901 12.4717 11.4901 12.6317 11.1201 12.6317C10.7901 12.6317 10.5901 12.5017 10.5001 12.2417L10.2701 11.4617H7.97003L7.71002 12.2417C7.60002 12.5017 7.39002 12.6317 7.09001 12.6317C6.72 12.6317 6.52 12.4617 6.5 12.1117V11.8817C6.52 11.8517 6.53 11.8317 6.53 11.8117ZM9.11005 7.90159L8.33004 10.3116H9.89007L9.11005 7.90159ZM12.5201 12.0117V7.31158C12.5401 6.94157 12.7501 6.73157 13.1401 6.69156H14.5402C16.4102 6.78157 17.3902 7.79159 17.4702 9.72162C17.3602 11.5717 16.4102 12.5317 14.6002 12.6217H13.1701C12.7401 12.6017 12.5201 12.4017 12.5201 12.0117ZM13.7601 7.83159V11.4817H14.6102C15.5902 11.4617 16.1102 10.8616 16.1702 9.69162C16.1502 8.4716 15.5902 7.85159 14.5102 7.83159H13.7601Z" fill="white"/>
</svg>