<svg width="24" height="24" viewBox="0 0 24 24" fill="none" xmlns="http://www.w3.org/2000/svg">
  <g clip-path="url(#clip0_5470_4032)">
    <path d="M2.97498 22C2.39593 22.0022 1.83954 21.7751 1.42739 21.3684C1.01524 20.9616 0.780836 20.4083 0.775391 19.8293V3.88227C0.780836 3.30324 1.01524 2.7499 1.42739 2.34316C1.83954 1.93642 2.39593 1.70935 2.97498 1.71155H5.9183V0.735487C5.92649 0.546104 6.00749 0.367199 6.14439 0.236089C6.2813 0.104979 6.46354 0.0317907 6.6531 0.0317907C6.84266 0.0317907 7.0249 0.104979 7.1618 0.236089C7.29871 0.367199 7.3797 0.546104 7.3879 0.735487V1.71155H15.4741V0.735487C15.4741 0.540423 15.5516 0.35335 15.6895 0.215419C15.8275 0.0774885 16.0145 0 16.2096 0C16.4047 0 16.5917 0.0774885 16.7297 0.215419C16.8676 0.35335 16.9451 0.540423 16.9451 0.735487V1.71155H19.1529C19.732 1.70935 20.2884 1.93642 20.7005 2.34316C21.1127 2.7499 21.3471 3.30324 21.3525 3.88227V19.8293C21.3471 20.4083 21.1127 20.9616 20.7005 21.3684C20.2884 21.7751 19.732 22.0022 19.1529 22H2.97498ZM2.24224 3.87677V19.8238C2.24477 20.0164 2.32308 20.2003 2.46023 20.3357C2.59737 20.471 2.7823 20.5469 2.97498 20.5469H19.1516C19.3443 20.5473 19.5295 20.4715 19.6667 20.3361C19.8039 20.2007 19.8821 20.0165 19.8843 19.8238V3.87677C19.8821 3.684 19.8039 3.49988 19.6667 3.36446C19.5295 3.22904 19.3443 3.15328 19.1516 3.15366H16.9437V3.35849C16.9437 3.55356 16.8662 3.74063 16.7283 3.87856C16.5904 4.01649 16.4033 4.09398 16.2082 4.09398C16.0132 4.09398 15.8261 4.01649 15.6882 3.87856C15.5502 3.74063 15.4727 3.55356 15.4727 3.35849V3.15366H7.38652V3.35849C7.37833 3.54787 7.29733 3.72678 7.16043 3.85789C7.02352 3.989 6.84128 4.06219 6.65172 4.06219C6.46216 4.06219 6.27992 3.989 6.14302 3.85789C6.00611 3.72678 5.92512 3.54787 5.91692 3.35849V3.15366H2.9736C2.78105 3.15364 2.59627 3.22956 2.45935 3.36494C2.32242 3.50032 2.24441 3.68423 2.24224 3.87677ZM4.22874 17.6668C3.8933 17.6668 3.61973 17.2997 3.61973 16.8516C3.61973 16.4034 3.89468 16.0364 4.22874 16.0364H9.09395C9.42801 16.0364 9.70159 16.402 9.70159 16.8516C9.70159 17.3011 9.42664 17.6668 9.09395 17.6668H4.22874ZM4.44732 12.7727C4.34026 12.7727 4.23423 12.7517 4.13531 12.7107C4.03639 12.6697 3.9465 12.6097 3.87079 12.534C3.79508 12.4583 3.73502 12.3684 3.69404 12.2695C3.65306 12.1706 3.63197 12.0646 3.63197 11.9575C3.63197 11.8504 3.65306 11.7444 3.69404 11.6455C3.73502 11.5466 3.79508 11.4567 3.87079 11.381C3.9465 11.3053 4.03639 11.2453 4.13531 11.2043C4.23423 11.1633 4.34026 11.1423 4.44732 11.1423H10.7079C10.815 11.1423 10.921 11.1633 11.0199 11.2043C11.1188 11.2453 11.2087 11.3053 11.2844 11.381C11.3601 11.4567 11.4202 11.5466 11.4612 11.6455C11.5022 11.7444 11.5233 11.8504 11.5233 11.9575C11.5233 12.0646 11.5022 12.1706 11.4612 12.2695C11.4202 12.3684 11.3601 12.4583 11.2844 12.534C11.2087 12.6097 11.1188 12.6697 11.0199 12.7107C10.921 12.7517 10.815 12.7727 10.7079 12.7727H4.44732ZM4.35522 8.22645C4.26008 8.22645 4.16587 8.20771 4.07797 8.1713C3.99007 8.13489 3.9102 8.08153 3.84293 8.01425C3.77565 7.94698 3.72229 7.86711 3.68588 7.77921C3.64947 7.69131 3.63073 7.5971 3.63073 7.50196C3.63073 7.40682 3.64947 7.31261 3.68588 7.22471C3.72229 7.13681 3.77565 7.05695 3.84293 6.98967C3.9102 6.9224 3.99007 6.86903 4.07797 6.83262C4.16587 6.79621 4.26008 6.77747 4.35522 6.77747H16.1189C16.214 6.77747 16.3082 6.79621 16.3961 6.83262C16.484 6.86903 16.5639 6.9224 16.6312 6.98967C16.6984 7.05695 16.7518 7.13681 16.7882 7.22471C16.8246 7.31261 16.8434 7.40682 16.8434 7.50196C16.8434 7.5971 16.8246 7.69131 16.7882 7.77921C16.7518 7.86711 16.6984 7.94698 16.6312 8.01425C16.5639 8.08153 16.484 8.13489 16.3961 8.1713C16.3082 8.20771 16.214 8.22645 16.1189 8.22645H4.35522Z" fill="currentcolor"/>
  </g>
  <defs>
    <clipPath id="clip0_5470_4032">
      <rect width="24" height="24" fill="white"/>
    </clipPath>
  </defs>
</svg>








