<svg width="25" height="25" viewBox="0 0 25 25" fill="none" xmlns="http://www.w3.org/2000/svg">
  <g clip-path="url(#clip0_5512_12627)">
    <path d="M18.978 13.5742C18.2393 13.5742 17.5079 13.7197 16.8254 14.0024C16.143 14.2851 15.5229 14.6994 15.0006 15.2217C14.4782 15.7441 14.0639 16.3642 13.7812 17.0466C13.4985 17.7291 13.353 18.4605 13.353 19.1992C13.353 19.9379 13.4985 20.6694 13.7812 21.3518C14.0639 22.0343 14.4782 22.6544 15.0006 23.1767C15.5229 23.699 16.143 24.1134 16.8254 24.396C17.5079 24.6787 18.2393 24.8242 18.978 24.8242C20.4699 24.8242 21.9006 24.2316 22.9555 23.1767C24.0104 22.1218 24.603 20.6911 24.603 19.1992C24.603 17.7074 24.0104 16.2766 22.9555 15.2217C21.9006 14.1669 20.4699 13.5742 18.978 13.5742ZM14.7843 19.1992C14.7843 18.6485 14.8928 18.1031 15.1035 17.5943C15.3143 17.0855 15.6232 16.6232 16.0126 16.2338C16.402 15.8444 16.8643 15.5355 17.3731 15.3247C17.882 15.1139 18.4273 15.0055 18.978 15.0055C19.9013 15.0082 20.7974 15.3182 21.5249 15.8867L15.4421 21.4336C15.0151 20.7664 14.7875 19.9913 14.7858 19.1992H14.7843ZM18.978 23.393C18.0546 23.3898 17.1585 23.0792 16.4312 22.5102L22.5155 16.9633C22.9265 17.6133 23.1718 18.3758 23.1718 19.1992C23.1718 20.3115 22.7299 21.3782 21.9435 22.1646C21.157 22.9511 20.0903 23.393 18.978 23.393Z" fill="currentcolor"/>
    <path d="M14.3342 14.5326C14.4014 14.5514 14.4686 14.5733 14.5436 14.5733C14.6429 14.6267 14.753 14.6569 14.8657 14.6616C14.9784 14.6662 15.0907 14.6453 15.1941 14.6003C15.2975 14.5553 15.3893 14.4874 15.4627 14.4017C15.536 14.3161 15.589 14.2149 15.6176 14.1058C15.6462 13.9967 15.6496 13.8825 15.6277 13.7719C15.6057 13.6613 15.559 13.5571 15.4909 13.4671C15.4229 13.3772 15.3353 13.3039 15.2348 13.2527C15.1343 13.2015 15.0235 13.1738 14.9107 13.1717L14.9201 13.1514C14.8936 13.142 14.867 13.1358 14.842 13.1248L14.8279 13.1217C14.6463 13.0547 14.4629 12.9927 14.2779 12.9358C16.3717 11.7436 17.7998 9.51702 17.7998 6.9342C17.7725 5.11374 17.0301 3.37709 15.7331 2.09938C14.436 0.821675 12.6884 0.105469 10.8678 0.105469C9.0471 0.105469 7.29951 0.821675 6.00247 2.09938C4.70544 3.37709 3.96307 5.11374 3.93574 6.9342C3.93574 9.59827 5.45449 11.8842 7.65918 13.0451C5.66078 13.7465 3.92054 15.0346 2.66606 16.741C1.41157 18.4473 0.701227 20.4926 0.62793 22.6092H0.64043C0.638867 22.6295 0.629492 22.6451 0.629492 22.6655C0.629492 23.0811 0.966992 23.4201 1.38418 23.4201C1.90449 23.4201 2.29512 23.0826 2.29512 22.6655C2.29512 22.6451 2.28574 22.6295 2.28418 22.6092H2.2998C2.49199 17.8014 6.28418 14.1155 11.1389 14.1155C12.2639 14.1155 13.3373 14.1655 14.3295 14.542L14.3342 14.5311V14.5326ZM10.8686 12.3248C9.43846 12.3248 8.06693 11.7567 7.0557 10.7455C6.04447 9.73426 5.47637 8.36274 5.47637 6.93264C5.47637 5.50254 6.04447 4.13102 7.0557 3.11979C8.06693 2.10856 9.43846 1.54045 10.8686 1.54045C12.2987 1.54045 13.6702 2.10856 14.6814 3.11979C15.6926 4.13102 16.2607 5.50254 16.2607 6.93264C16.2607 8.36274 15.6926 9.73426 14.6814 10.7455C13.6702 11.7567 12.2987 12.3248 10.8686 12.3248Z" fill="currentcolor"/>
  </g>
  <defs>
    <clipPath id="clip0_5512_12627">
      <rect width="25" height="25" fill="white"/>
    </clipPath>
  </defs>
</svg>

