<svg width="17" height="21" viewBox="0 0 17 21" fill="none" xmlns="http://www.w3.org/2000/svg">
  <path d="M2.42857 0C1.07309 0 0 1.10833 0 2.45V18.55C0 19.8917 1.07309 21 2.42857 21H14.5714C15.8704 21 17 19.8917 17 18.55V4.95833L12.0864 0H2.42857ZM13.8937 19.5417H2.99336C2.0897 19.5417 1.52492 19.0167 1.52492 18.0833V2.975C1.52492 2.04167 2.0897 1.575 2.99336 1.575H11.5781V4.25833C11.5781 4.78333 12.0299 5.25 12.5382 5.25H15.5316V18.0833C15.588 19.0167 14.8538 19.5417 13.8937 19.5417ZM11.5216 14.2333H5.42193C5.08306 14.2333 4.80066 13.9417 4.80066 13.5917C4.80066 13.2417 5.08306 12.95 5.42193 12.95H11.4651C11.804 12.95 12.0864 13.2417 12.0864 13.5917C12.0864 13.9417 11.8605 14.2333 11.5216 14.2333ZM11.5216 11.7833H5.42193C5.08306 11.7833 4.80066 11.4917 4.80066 11.1417C4.80066 10.7917 5.08306 10.5 5.42193 10.5H11.4651C11.804 10.5 12.0864 10.7917 12.0864 11.1417C12.0864 11.4917 11.8605 11.7833 11.5216 11.7833ZM11.5216 9.275H5.42193C5.08306 9.275 4.80066 8.98333 4.80066 8.63333C4.80066 8.28333 5.08306 7.99167 5.42193 7.99167H11.4651C11.804 7.99167 12.0864 8.28333 12.0864 8.63333C12.0864 8.98333 11.8605 9.275 11.5216 9.275Z" fill="currentcolor"/>
</svg>







