<svg width="24" height="24" viewBox="0 0 24 24" fill="none" xmlns="http://www.w3.org/2000/svg">
  <g clip-path="url(#clip0_5512_28802)">
    <path d="M3.33431 13.0383H5.95249C5.94722 12.9766 5.94722 12.9146 5.95249 12.8529C6.07533 12.2216 6.36088 11.6335 6.78086 11.1465C7.20085 10.6596 7.74072 10.2907 8.34703 10.0765C8.41963 10.0549 8.49494 10.0439 8.57067 10.0438H12.1816V8.95285H9.5634C9.3464 8.95285 9.1383 8.86665 8.98486 8.71321C8.83142 8.55977 8.74522 8.35167 8.74522 8.13467V1.2674C8.74522 1.05041 8.83142 0.842297 8.98486 0.688859C9.1383 0.53542 9.3464 0.449219 9.5634 0.449219H16.4361C16.6531 0.449219 16.8612 0.53542 17.0147 0.688859C17.1681 0.842297 17.2543 1.05041 17.2543 1.2674V8.14013C17.2543 8.35712 17.1681 8.56523 17.0147 8.71867C16.8612 8.87211 16.6531 8.95831 16.4361 8.95831H13.8179V10.0492H17.5652C19.4634 10.1638 19.9816 12.6019 20.0361 12.8801C20.0415 12.9327 20.0415 12.9857 20.0361 13.0383H22.6652C22.8822 13.0383 23.0903 13.1245 23.2438 13.2779C23.3972 13.4314 23.4834 13.6395 23.4834 13.8565V20.7292C23.4834 20.9462 23.3972 21.1543 23.2438 21.3078C23.0903 21.4612 22.8822 21.5474 22.6652 21.5474H15.7925C15.5755 21.5474 15.3674 21.4612 15.2139 21.3078C15.0605 21.1543 14.9743 20.9462 14.9743 20.7292V13.8565C14.9743 13.6395 15.0605 13.4314 15.2139 13.2779C15.3674 13.1245 15.5755 13.0383 15.7925 13.0383H18.3889C18.2525 12.4929 17.9034 11.7074 17.5161 11.6801H8.73431C8.46671 11.8164 8.2311 12.008 8.04304 12.2421C7.85498 12.4762 7.71877 12.7476 7.6434 13.0383H10.207C10.424 13.0383 10.6321 13.1245 10.7856 13.2779C10.939 13.4314 11.0252 13.6395 11.0252 13.8565V20.7292C11.0252 20.9462 10.939 21.1543 10.7856 21.3078C10.6321 21.4612 10.424 21.5474 10.207 21.5474H3.33431C3.11731 21.5474 2.9092 21.4612 2.75576 21.3078C2.60232 21.1543 2.51612 20.9462 2.51612 20.7292V13.8565C2.51612 13.6395 2.60232 13.4314 2.75576 13.2779C2.9092 13.1245 3.11731 13.0383 3.33431 13.0383ZM15.6179 2.08558H10.3816V7.32194H15.6179V2.08558ZM16.6107 19.911H21.847V14.6747H16.6107V19.911ZM4.15249 19.911H9.38885V14.6747H4.15249V19.911Z" fill="currentcolor"/>
  </g>
  <defs>
    <clipPath id="clip0_5512_28802">
      <rect width="24" height="24" fill="white"/>
    </clipPath>
  </defs>
</svg>








