<svg width="24" height="24" viewBox="0 0 24 24" fill="none" xmlns="http://www.w3.org/2000/svg">
  <g clip-path="url(#clip0_5512_548)">
    <g clip-path="url(#clip1_5512_548)">
      <path d="M20.2319 17.4525C20.2319 17.3344 20.1352 17.2377 20.017 17.2377H19.0416V16.6404L19.0481 16.634H20.017C20.1352 16.634 20.2319 16.5373 20.2319 16.4191C20.2319 16.301 20.1352 16.2043 20.017 16.2043H19.2951L20.3328 14.3674C20.4832 14.101 20.2899 13.7701 19.9826 13.7701C19.8322 13.7701 19.6947 13.8539 19.626 13.9871L18.6313 15.8971L17.6365 13.9828C17.5678 13.8496 17.4303 13.7658 17.2799 13.7658C16.9727 13.7658 16.7793 14.0967 16.9297 14.3631L17.9674 16.2H17.252C17.1338 16.2 17.0371 16.2967 17.0371 16.4148C17.0371 16.533 17.1338 16.6297 17.252 16.6297H18.2145L18.2209 16.6361V17.2334H17.252C17.1338 17.2334 17.0371 17.3301 17.0371 17.4482C17.0371 17.5664 17.1338 17.6631 17.252 17.6631H18.2209V18.3098C18.2209 18.5354 18.4035 18.718 18.6291 18.718C18.8547 18.718 19.0373 18.5354 19.0373 18.3098V17.6631H20.0127C20.1352 17.6674 20.2319 17.5707 20.2319 17.4525ZM7.46583 16.2193H11.6252C12.0012 16.2193 12.2268 15.9937 12.2268 15.6178C12.2268 15.2525 11.9904 15.0162 11.6252 15.0162H7.46583C7.09416 15.0162 6.86427 15.3277 6.86427 15.6178C6.86212 15.9852 7.09845 16.2193 7.46583 16.2193ZM7.46583 12.0557H11.6252C11.9969 12.0557 12.2268 11.8258 12.2268 11.4541C12.2268 11.0889 11.9904 10.8525 11.6252 10.8525H7.46583C7.09416 10.8525 6.86427 11.1641 6.86427 11.4541C6.86212 11.8215 7.09845 12.0557 7.46583 12.0557ZM7.46583 7.89844H11.6252C11.9904 7.89844 12.2268 7.66211 12.2268 7.29688C12.2268 6.93164 11.9904 6.69531 11.6252 6.69531H7.46583C7.09416 6.69531 6.86427 7.00684 6.86427 7.29688C6.86212 7.66211 7.09845 7.89844 7.46583 7.89844Z" fill="currentcolor"/>
      <path d="M23.3941 20.6238H22.6164V12.8422C22.6164 12.6338 22.5584 12.4039 22.4574 12.2127C22.3758 12.0602 22.2275 11.8561 21.9783 11.7486L21.9676 11.7443L15.6984 7.63867V1.22129L15.634 1.10098L15.6318 1.09453C15.3998 0.542383 14.94 0.226562 14.3686 0.226562C14.2633 0.226562 14.158 0.235156 14.0678 0.254492L14.0613 0.256641L4.30098 3.16777C3.76816 3.35898 3.39434 3.8918 3.39434 4.46113V20.6238H2.60156C2.24063 20.6238 2 20.9354 2 21.2254C2 21.5906 2.23633 21.827 2.60156 21.827H16.8135C17.1443 21.827 17.415 21.5562 17.415 21.2254C17.415 20.8945 17.1443 20.6238 16.8135 20.6238H15.6984V9.00293L21.4154 12.7154V20.6195H20.1736C19.8428 20.6195 19.5721 20.8902 19.5721 21.2211C19.5721 21.552 19.8428 21.8227 20.1736 21.8227H23.3984C23.7637 21.8227 24 21.5799 24 21.2039C23.9957 20.8902 23.7186 20.6238 23.3941 20.6238ZM14.4781 20.6238H4.58887V4.39238L14.4781 1.42109V20.6238Z" fill="currentcolor"/>
    </g>
    <path d="M74.7423 70.6719C74.7423 69.5977 73.8634 68.7188 72.7892 68.7188H63.922V63.2891L63.9806 63.2305H72.7892C73.8634 63.2305 74.7423 62.3516 74.7423 61.2773C74.7423 60.2031 73.8634 59.3242 72.7892 59.3242H66.2267L75.6603 42.625C77.0275 40.2031 75.2697 37.1953 72.4767 37.1953C71.1095 37.1953 69.8595 37.957 69.2345 39.168L60.1915 56.5312L51.1486 39.1289C50.5236 37.918 49.2736 37.1562 47.9064 37.1562C45.1134 37.1562 43.3556 40.1641 44.7228 42.5859L54.1564 59.2851H47.6525C46.5783 59.2851 45.6994 60.1641 45.6994 61.2383C45.6994 62.3125 46.5783 63.1914 47.6525 63.1914H56.4025L56.4611 63.25V68.6797H47.6525C46.5783 68.6797 45.6994 69.5586 45.6994 70.6328C45.6994 71.707 46.5783 72.5859 47.6525 72.5859H56.4611V78.4648C56.4611 80.5156 58.1212 82.1758 60.172 82.1758C62.2228 82.1758 63.8829 80.5156 63.8829 78.4648V72.5859H72.7501C73.8634 72.625 74.7423 71.7461 74.7423 70.6719ZM-41.3124 59.4609H-3.49987C-0.0818977 59.4609 1.96888 57.4102 1.96888 53.9922C1.96888 50.6719 -0.179554 48.5234 -3.49987 48.5234H-41.3124C-44.6913 48.5234 -46.7811 51.3555 -46.7811 53.9922C-46.8006 57.332 -44.6522 59.4609 -41.3124 59.4609ZM-41.3124 21.6094H-3.49987C-0.12096 21.6094 1.96888 19.5195 1.96888 16.1406C1.96888 12.8203 -0.179554 10.6719 -3.49987 10.6719H-41.3124C-44.6913 10.6719 -46.7811 13.5039 -46.7811 16.1406C-46.8006 19.4805 -44.6522 21.6094 -41.3124 21.6094ZM-41.3124 -16.1836H-3.49987C-0.179554 -16.1836 1.96888 -18.332 1.96888 -21.6523C1.96888 -24.9727 -0.179554 -27.1211 -3.49987 -27.1211H-41.3124C-44.6913 -27.1211 -46.7811 -24.2891 -46.7811 -21.6523C-46.8006 -18.332 -44.6522 -16.1836 -41.3124 -16.1836Z" fill="black"/>
    <path d="M103.492 99.4805H96.4219V28.7383C96.4219 26.8438 95.8945 24.7539 94.9766 23.0156C94.2344 21.6289 92.8867 19.7734 90.6211 18.7969L90.5234 18.7578L33.5312 -18.5664V-76.9062L32.9453 -78L32.9258 -78.0586C30.8164 -83.0781 26.6367 -85.9492 21.4414 -85.9492C20.4844 -85.9492 19.5273 -85.8711 18.707 -85.6953L18.6484 -85.6758L-70.082 -59.2109C-74.9258 -57.4727 -78.3242 -52.6289 -78.3242 -47.4531V99.4805H-85.5312C-88.8125 99.4805 -91 102.312 -91 104.949C-91 108.27 -88.8516 110.418 -85.5312 110.418H43.668C46.6758 110.418 49.1367 107.957 49.1367 104.949C49.1367 101.941 46.6758 99.4805 43.668 99.4805H33.5312V-6.16406L85.5039 27.5859V99.4414H74.2148C71.207 99.4414 68.7461 101.902 68.7461 104.91C68.7461 107.918 71.207 110.379 74.2148 110.379H103.531C106.852 110.379 109 108.172 109 104.754C108.961 101.902 106.441 99.4805 103.492 99.4805ZM22.4375 99.4805H-67.4648V-48.0781L22.4375 -75.0898V99.4805Z" fill="black"/>
  </g>
  <defs>
    <clipPath id="clip0_5512_548">
      <rect width="24" height="24" fill="white"/>
    </clipPath>
    <clipPath id="clip1_5512_548">
      <rect width="22" height="22" fill="white" transform="translate(2)"/>
    </clipPath>
  </defs>
</svg>


