<svg width="24" height="24" viewBox="0 0 24 24" fill="none" xmlns="http://www.w3.org/2000/svg">
  <path d="M16.6587 2.11719H4.5175C2.82339 2.11719 1.41162 3.38778 1.41162 4.94072V20.4701C1.41162 22.0231 2.82339 23.2937 4.5175 23.2937H18.2116C19.9057 23.2937 21.3175 22.0231 21.3175 20.4701V7.76425H19.9057V20.4701C19.9057 21.176 19.1999 21.8819 18.2116 21.8819H4.5175C3.52927 21.8819 2.82339 21.176 2.82339 20.4701V4.94072C2.82339 4.23483 3.52927 3.52895 4.5175 3.52895H16.6587V2.11719Z" fill="currentcolor"/>
  <path d="M5.78809 9.17664H12.8469V7.76488H5.78809V9.17664ZM5.78809 13.4119H17.0822V12.0002H5.78809V13.4119ZM5.78809 17.6472H17.0822V16.2355H5.78809V17.6472ZM15.8116 8.61194L22.5881 1.69429L21.5998 0.706055L14.8234 7.6237L15.8116 8.61194Z" fill="currentcolor"/>
</svg>





