<svg width="24" height="24" viewBox="0 0 24 24" fill="none" xmlns="http://www.w3.org/2000/svg">
  <path d="M17.493 8.43545H16.7451C16.6215 8.43545 16.5205 8.53652 16.5205 8.66006C16.5205 8.78359 16.6215 8.88467 16.7451 8.88467H17.7513L17.7581 8.89141V9.51582H16.7451C16.6215 9.51582 16.5205 9.61689 16.5205 9.74043C16.5205 9.86397 16.6215 9.96504 16.7451 9.96504H17.7581V10.6411C17.7581 10.877 17.949 11.0679 18.1848 11.0679C18.4207 11.0679 18.6116 10.877 18.6116 10.6411V9.96504H19.6313C19.7548 9.96504 19.8559 9.86397 19.8559 9.74043C19.8559 9.61689 19.7548 9.51582 19.6313 9.51582H18.6116V8.89141L18.6183 8.88467H19.6313C19.7548 8.88467 19.8559 8.78359 19.8559 8.66006C19.8559 8.53652 19.7548 8.43545 19.6313 8.43545H18.8789L19.9637 6.51504C20.1209 6.23652 19.9188 5.89062 19.5976 5.89062C19.4404 5.89062 19.2966 5.97822 19.2248 6.11748L18.2949 7.90537C18.2477 7.99521 18.1197 7.99521 18.0748 7.90537L17.1449 6.11748C17.073 5.97822 16.9292 5.89062 16.772 5.89062C16.4508 5.89062 16.2487 6.23652 16.4059 6.51504L17.493 8.43545ZM23.8674 15.6252C23.6967 15.158 23.3733 14.8346 22.9555 14.7178L22.9173 14.7065L22.8792 14.711C22.2008 14.7852 21.5225 14.9289 20.8644 15.14C19.0585 15.5533 17.0371 16.0901 15.6265 16.472C15.6804 15.742 15.4873 15.176 15.0358 14.7492C14.6158 14.3517 14.0722 14.1675 13.632 14.0215C13.0008 13.6733 12.4303 13.3185 11.8778 12.9726C11.323 12.6267 10.7502 12.2718 10.1146 11.9191C9.5396 11.5081 8.91519 11.1734 8.25484 10.9219C8.03921 10.7871 7.71577 10.7242 7.24185 10.7242C7.03745 10.7242 6.8353 10.7354 6.65786 10.7444C6.56802 10.7489 6.48491 10.7534 6.41304 10.7557C6.31421 10.7579 6.21314 10.7691 6.11655 10.7849C5.33491 10.9151 4.74868 11.2386 4.07036 11.6159C3.81431 11.7574 3.55152 11.9034 3.25728 12.0494C2.85298 12.2561 2.46441 12.4964 2.10054 12.7682C2.01968 12.8221 1.92534 12.876 1.82652 12.9344C1.39976 13.1837 0.867433 13.4937 1.0314 13.9855L1.03364 13.9923L1.03589 13.999C1.11226 14.1765 1.24927 14.3135 1.42671 14.3876L1.43345 14.3898L1.44019 14.3921C1.51655 14.4168 1.59292 14.4303 1.66929 14.4303C2.02866 14.4303 2.29146 14.1473 2.50034 13.9204C2.54077 13.8777 2.57896 13.8351 2.61714 13.7969C2.8395 13.6711 3.06861 13.5341 3.31343 13.3881C4.1355 12.9052 5.06538 12.3526 5.80435 12.1415C6.05591 12.0831 6.31196 12.0539 6.56128 12.0539C7.58775 12.0539 8.44126 12.5525 9.19146 12.9928C9.43853 13.1365 9.66988 13.2735 9.90347 13.3903C10.483 13.7991 11.0557 14.1136 11.6622 14.4437C12.0979 14.6818 12.5471 14.9267 13.0188 15.2209L13.039 15.2321L13.0615 15.2389C13.4995 15.3871 14.2384 15.7847 14.3485 16.2271C14.3597 16.2676 14.3665 16.3125 14.3687 16.3619C14.3777 16.5528 14.3103 16.7348 14.1823 16.8763C14.0565 17.0133 13.8858 17.0964 13.7016 17.1076C13.3422 17.0672 12.9829 16.9773 12.6347 16.8403C12.5808 16.8201 12.5336 16.8021 12.4932 16.7864H12.491C12.2731 16.7056 12.2349 16.6898 11.9923 16.4607L11.9699 16.4405L11.9429 16.4271C11.7565 16.3327 10.8064 15.9688 10.173 15.9688C9.87652 15.9688 9.66988 16.0497 9.55982 16.2114C9.43404 16.4001 9.40034 16.5865 9.46323 16.7685C9.57105 17.0852 9.93941 17.2648 10.2292 17.3592C10.6604 17.5029 11.0602 17.6107 11.4465 17.7163C11.8149 17.8151 12.1945 17.9185 12.5965 18.051C12.9267 18.3385 13.349 18.4979 13.7892 18.4979H13.8364C14.3036 18.4979 14.8067 18.3317 15.2963 18.1723C15.5951 18.0734 15.8803 17.9813 16.1409 17.9297L16.1543 17.9274L16.1656 17.9229C18.2904 17.2199 20.4803 16.6135 22.6703 16.1261C22.7736 16.3058 22.8073 16.4765 22.7713 16.6472C22.6635 17.1615 21.9515 17.5883 21.5248 17.8421L21.518 17.8466L21.5113 17.8511C20.0491 18.8708 18.4858 19.7647 16.8664 20.5127L16.8596 20.5172L16.8529 20.5217C16.0331 20.9844 15.1503 21.3101 14.2272 21.4853C14.1082 21.501 13.9779 21.51 13.8409 21.51C13.1334 21.51 12.309 21.2921 11.5117 21.0787H11.5094C11.3118 21.0271 11.1051 20.9709 10.9075 20.9215L10.903 20.9192C10.2943 20.789 9.71031 20.6362 9.09038 20.4723C7.72925 20.1129 6.32095 19.7445 4.63638 19.6457H2.77661C2.65982 19.6457 2.53853 19.6412 2.42173 19.6367C2.30718 19.6322 2.19937 19.63 2.0938 19.63C1.83775 19.63 1.15718 19.63 1.15718 20.2701C1.15718 20.5217 1.28745 20.7148 1.52105 20.8159C1.67378 20.8811 1.87144 20.9103 2.15669 20.9103C2.269 20.9103 2.3813 20.9058 2.49136 20.9013C2.59243 20.8968 2.68677 20.8945 2.77437 20.8945H4.61841C6.71851 20.8945 8.36939 21.3887 9.96636 21.8693C10.2831 21.9637 10.6132 22.0625 10.9389 22.1568C11.5813 22.341 12.7785 22.6802 13.8319 22.6802C14.1598 22.6802 14.4585 22.6465 14.7191 22.5836C16.1049 22.3522 17.2751 21.6829 18.515 20.9731C18.8205 20.7979 19.1349 20.6183 19.4516 20.4453L19.4561 20.4431C19.6919 20.3016 19.9166 20.1578 20.1322 20.0208C20.5634 19.7445 21.0082 19.4593 21.5652 19.183C22.3244 18.8191 23.0117 18.3317 23.6046 17.732L23.6181 17.7186L23.6293 17.7028C24.0134 17.1368 24.1078 16.2833 23.8674 15.6252Z" fill="currentcolor"/>
  <path d="M18.1087 14.7044C19.6832 14.7044 21.1611 14.053 22.2707 12.8693C23.369 11.6991 23.9732 10.1426 23.9732 8.4917C23.9732 6.84082 23.369 5.28652 22.2707 4.11406C21.1611 2.93262 19.6832 2.28125 18.1087 2.28125C16.5342 2.28125 15.0563 2.93262 13.9467 4.11631C12.8483 5.28652 12.2441 6.84082 12.2441 8.49395C12.2441 10.1448 12.8483 11.6991 13.9467 12.8716C15.054 14.053 16.5342 14.7044 18.1087 14.7044ZM18.1087 3.62891C20.5996 3.62891 22.6278 5.80986 22.6278 8.4917C22.6278 11.1735 20.6019 13.3567 18.1087 13.3567C15.6155 13.3567 13.5896 11.1758 13.5896 8.49395C13.5896 5.81211 15.6178 3.62891 18.1087 3.62891Z" fill="currentcolor"/>
</svg>



