<svg width="24" height="24" viewBox="0 0 24 24" fill="none" xmlns="http://www.w3.org/2000/svg">
  <g clip-path="url(#clip0_5512_570)">
    <path d="M14.8771 21.0072H5.26837C3.99534 21.0072 2.95947 19.9731 2.95947 18.7018C2.95947 18.3652 3.23326 18.0914 3.56983 18.0914C3.9064 18.0914 4.18019 18.3652 4.18019 18.7018C4.18019 19.2999 4.66847 19.7865 5.26837 19.7865H14.8771C15.2137 19.7865 15.4875 20.0603 15.4875 20.3968C15.4875 20.7334 15.2154 21.0072 14.8771 21.0072ZM21.6887 13.7963C21.3521 13.7963 21.0784 13.5225 21.0784 13.1859V7.86009C21.0784 7.26194 20.5901 6.7754 19.9902 6.7754H5.27011C4.73125 6.7754 4.52024 7.02303 4.11566 7.82173C4.0797 7.89338 4.02991 7.9572 3.96917 8.00953C3.90843 8.06185 3.83793 8.10164 3.76175 8.1266C3.68556 8.15157 3.60519 8.16121 3.52527 8.15498C3.44534 8.14874 3.36743 8.12676 3.29604 8.09029C3.22439 8.05432 3.16057 8.00453 3.10824 7.94379C3.05592 7.88305 3.01613 7.81256 2.99117 7.73637C2.9662 7.66019 2.95656 7.57982 2.96279 7.49989C2.96903 7.41996 2.99101 7.34206 3.02748 7.27066C3.37277 6.58706 3.89594 5.55469 5.27011 5.55469H19.9902C21.2632 5.55469 22.2991 6.58881 22.2991 7.86009V13.1842C22.2991 13.5225 22.0253 13.7963 21.6887 13.7963Z" fill="currentcolor"/>
    <path d="M14.2822 18.5107H3.06383C2.19886 18.5107 1.43679 18.2265 0.969428 17.7295C0.585775 17.3214 0.402668 16.7808 0.441033 16.1635C0.444521 16.1181 0.451497 16.0728 0.465448 16.0292L2.81968 8.04048C3.04813 6.7814 4.07353 5.87109 5.27157 5.87109H19.9916C21.2647 5.87109 22.3005 6.90696 22.3005 8.17999C22.3005 8.23928 22.2918 8.29683 22.2761 8.35438L20.9455 12.8379C20.8994 12.993 20.7936 13.1234 20.6514 13.2005C20.5091 13.2777 20.3421 13.2953 20.187 13.2494C20.0319 13.2033 19.9015 13.0975 19.8243 12.9553C19.7471 12.813 19.7296 12.646 19.7754 12.4909L21.0781 8.10151C21.038 7.53824 20.5654 7.09181 19.9934 7.09181H5.26983C4.66819 7.09181 4.12933 7.60276 4.01598 8.28113C4.01249 8.30555 4.00726 8.32822 4.00029 8.35263L1.65652 16.303C1.65303 16.5523 1.7193 16.7459 1.85881 16.8941C2.089 17.1383 2.55113 17.29 3.06383 17.29H14.2822C14.6188 17.29 14.8925 17.5638 14.8925 17.9004C14.8925 18.2369 14.6188 18.5107 14.2822 18.5107Z" fill="currentcolor"/>
    <path d="M7.95191 11.3603C7.79496 11.3603 7.63976 11.301 7.51943 11.1825L5.98482 9.64784C5.92803 9.59122 5.88297 9.52395 5.85223 9.44989C5.82149 9.37583 5.80566 9.29642 5.80566 9.21623C5.80566 9.13604 5.82149 9.05664 5.85223 8.98257C5.88297 8.90851 5.92803 8.84124 5.98482 8.78462C6.04144 8.72783 6.10871 8.68278 6.18277 8.65204C6.25683 8.62129 6.33624 8.60547 6.41643 8.60547C6.49662 8.60547 6.57602 8.62129 6.65009 8.65204C6.72415 8.68278 6.79142 8.72783 6.84804 8.78462L8.38265 10.3192C8.46809 10.4044 8.52633 10.5131 8.54998 10.6314C8.57363 10.7497 8.56163 10.8724 8.5155 10.9839C8.46938 11.0953 8.3912 11.1906 8.29086 11.2577C8.19053 11.3247 8.07257 11.3604 7.95191 11.3603Z" fill="currentcolor"/>
    <path d="M7.92774 14.6232C7.59117 14.6232 7.31738 14.3494 7.31738 14.0128V10.7744C7.31738 10.4379 7.59117 10.1641 7.92774 10.1641C8.26431 10.1641 8.5381 10.4379 8.5381 10.7744V14.0128C8.5381 14.3494 8.26431 14.6232 7.92774 14.6232Z" fill="currentcolor"/>
    <path d="M9.54621 12.0449H6.30958C5.97301 12.0449 5.69922 11.7711 5.69922 11.4346C5.69922 11.098 5.97301 10.8242 6.30958 10.8242H9.54796C9.88452 10.8242 10.1583 11.098 10.1583 11.4346C10.1583 11.7711 9.88452 12.0449 9.54621 12.0449ZM9.54621 13.5795H6.30958C5.97301 13.5795 5.69922 13.3058 5.69922 12.9692C5.69922 12.6326 5.97301 12.3588 6.30958 12.3588H9.54796C9.88452 12.3588 10.1583 12.6326 10.1583 12.9692C10.1583 13.3058 9.88452 13.5795 9.54621 13.5795Z" fill="currentcolor"/>
    <path d="M7.95197 11.3603C7.83117 11.3608 7.71296 11.3253 7.61236 11.2584C7.51176 11.1915 7.43331 11.0962 7.38697 10.9847C7.34062 10.8731 7.32848 10.7503 7.35207 10.6318C7.37567 10.5133 7.43394 10.4045 7.51949 10.3192L9.0541 8.78462C9.11072 8.72783 9.17799 8.68278 9.25205 8.65204C9.32612 8.62129 9.40552 8.60547 9.48571 8.60547C9.5659 8.60547 9.6453 8.62129 9.71937 8.65204C9.79343 8.68278 9.8607 8.72783 9.91732 8.78462C9.97411 8.84124 10.0192 8.90851 10.0499 8.98257C10.0806 9.05664 10.0965 9.13604 10.0965 9.21623C10.0965 9.29642 10.0806 9.37583 10.0499 9.44989C10.0192 9.52395 9.97411 9.59122 9.91732 9.64784L8.38271 11.1825C8.32612 11.2389 8.25895 11.2837 8.18504 11.3143C8.11113 11.3448 8.03193 11.3604 7.95197 11.3603Z" fill="currentcolor"/>
    <path d="M16.4009 13.7946C16.2841 13.7946 16.1673 13.7615 16.0626 13.6917L14.256 12.4885C14.1893 12.444 14.1321 12.3869 14.0875 12.3204C14.043 12.2538 14.0119 12.1791 13.9962 12.1006C13.9645 11.942 13.9971 11.7773 14.0868 11.6427C14.1765 11.5081 14.3161 11.4147 14.4747 11.3829C14.6333 11.3512 14.798 11.3838 14.9326 11.4735L16.7392 12.6768C16.8059 12.7212 16.8631 12.7783 16.9077 12.8449C16.9523 12.9114 16.9833 12.9861 16.999 13.0647C17.0147 13.1432 17.0148 13.2241 16.9993 13.3026C16.9837 13.3812 16.9528 13.4559 16.9084 13.5226C16.8531 13.6066 16.7778 13.6755 16.6892 13.723C16.6006 13.7705 16.5015 13.7951 16.4009 13.7946Z" fill="currentcolor"/>
    <path d="M16.4013 13.8965H11.5098C11.1732 13.8965 10.8994 13.6227 10.8994 13.2861C10.8994 12.9496 11.1732 12.6758 11.5098 12.6758H16.4031C16.7397 12.6758 17.0134 12.9496 17.0134 13.2861C17.0134 13.6227 16.7379 13.8965 16.4013 13.8965Z" fill="currentcolor"/>
    <path d="M16.5197 17.0625C16.398 17.0625 16.2791 17.0262 16.1782 16.9581C16.0773 16.8901 15.9991 16.7934 15.9536 16.6806C15.908 16.5678 15.8972 16.4439 15.9226 16.3249C15.948 16.2058 16.0083 16.0971 16.096 16.0127L17.7806 14.3856C17.8972 14.2734 18.0536 14.212 18.2154 14.2149C18.3772 14.2179 18.5313 14.2849 18.6438 14.4013C18.756 14.518 18.8174 14.6744 18.8145 14.8362C18.8115 14.998 18.7445 15.1521 18.6281 15.2646L16.9435 16.8916C16.8249 17.0049 16.6714 17.0625 16.5197 17.0625Z" fill="currentcolor"/>
    <path d="M18.2045 18.7227C18.051 18.7227 17.8993 18.6651 17.7807 18.5518L16.0962 16.9247C15.9797 16.8122 15.9127 16.6582 15.9098 16.4963C15.9068 16.3345 15.9682 16.1781 16.0805 16.0615C16.1929 15.9451 16.347 15.878 16.5088 15.8751C16.6707 15.8722 16.8271 15.9335 16.9437 16.0458L18.6283 17.6728C18.7282 17.6729 18.8265 17.6974 18.9147 17.7443C19.0029 17.7912 19.0782 17.8591 19.1341 17.9419C19.1899 18.0247 19.2246 18.12 19.2351 18.2193C19.2455 18.3186 19.2315 18.419 19.1941 18.5117C19.1567 18.6043 19.0971 18.6863 19.0206 18.7506C18.9441 18.8148 18.8531 18.8593 18.7554 18.8801C18.6577 18.901 18.5564 18.8975 18.4603 18.87C18.3643 18.8426 18.2764 18.792 18.2045 18.7227Z" fill="currentcolor"/>
    <path d="M20.1383 21.0389H18.6542C18.3177 21.0389 18.0439 20.7651 18.0439 20.4285C18.0439 20.092 18.3177 19.8182 18.6542 19.8182H20.1383C20.5202 19.8182 20.8289 19.5078 20.8289 19.1276V17.8214C20.8289 17.4395 20.5185 17.1309 20.1383 17.1309H16.8999C16.5633 17.1309 16.2896 16.8571 16.2896 16.5205C16.2896 16.1839 16.5633 15.9102 16.8999 15.9102H20.14C21.1933 15.9102 22.0513 16.7681 22.0513 17.8214V19.1276C22.0496 20.1809 21.1933 21.0389 20.1383 21.0389Z" fill="currentcolor"/>
  </g>
  <defs>
    <clipPath id="clip0_5512_570">
      <rect width="24" height="24" fill="white"/>
    </clipPath>
  </defs>
</svg>





