<svg width="24" height="24" viewBox="0 0 24 24" fill="none" xmlns="http://www.w3.org/2000/svg">
  <path d="M17.6393 2.99805C18.5393 2.99805 19.3854 3.34727 20.0205 3.98477C20.6557 4.61992 21.0072 5.46602 21.0072 6.36602C21.0072 7.26602 20.658 8.11211 20.0205 8.74727C19.3854 9.38242 18.5393 9.73398 17.6393 9.73398H17.6252C16.7252 9.73398 15.8791 9.38477 15.2439 8.74727C14.6088 8.11211 14.2572 7.26602 14.2572 6.36602C14.2572 5.46602 14.6064 4.61992 15.2439 3.98477C15.8791 3.34961 16.7252 2.99805 17.6252 2.99805H17.6393ZM17.6393 1.49805H17.6252C14.9369 1.49805 12.7572 3.67773 12.7572 6.36602C12.7572 9.0543 14.9369 11.234 17.6252 11.234H17.6393C20.3275 11.234 22.5072 9.0543 22.5072 6.36602C22.5072 3.67773 20.3275 1.49805 17.6393 1.49805ZM10.1064 1.50039H2.62988C2.00879 1.50039 1.50488 2.0043 1.50488 2.62539V10.102C1.50488 10.723 2.00879 11.227 2.62988 11.227H10.1064C10.7275 11.227 11.2314 10.723 11.2314 10.102V2.62539C11.2314 2.0043 10.7299 1.50039 10.1064 1.50039ZM9.72207 9.15273C9.72207 9.46445 9.47129 9.71523 9.15957 9.71523H3.5791C3.26738 9.71523 3.0166 9.46445 3.0166 9.15273V3.57227C3.0166 3.26055 3.26738 3.00977 3.5791 3.00977H9.15957C9.47129 3.00977 9.72207 3.26055 9.72207 3.57227V9.15273ZM10.1064 12.7645H2.62988C2.00879 12.7645 1.50488 13.2684 1.50488 13.8895V21.366C1.50488 21.9871 2.00879 22.491 2.62988 22.491H10.1064C10.7275 22.491 11.2314 21.9871 11.2314 21.366V13.8895C11.2314 13.266 10.7275 12.7645 10.1064 12.7645ZM9.72207 20.4168C9.72207 20.7285 9.47129 20.9793 9.15957 20.9793H3.5791C3.26738 20.9793 3.0166 20.7285 3.0166 20.4168V14.8363C3.0166 14.5246 3.26738 14.2738 3.5791 14.2738H9.15957C9.47129 14.2738 9.72207 14.5246 9.72207 14.8363V20.4168ZM21.3799 12.7527H13.9033C13.2822 12.7527 12.7783 13.2566 12.7783 13.8777V21.3543C12.7783 21.9754 13.2822 22.4793 13.9033 22.4793H21.3799C22.001 22.4793 22.5049 21.9754 22.5049 21.3543V13.8777C22.5049 13.2566 22.001 12.7527 21.3799 12.7527ZM20.9932 20.4074C20.9932 20.7191 20.7424 20.9699 20.4307 20.9699H14.8502C14.5385 20.9699 14.2877 20.7191 14.2877 20.4074V14.827C14.2877 14.5152 14.5385 14.2645 14.8502 14.2645H20.4307C20.7424 14.2645 20.9932 14.5152 20.9932 14.827V20.4074Z" fill="currentcolor"/>
</svg>

