<svg width="24" height="25" viewBox="0 0 24 25" fill="none" xmlns="http://www.w3.org/2000/svg">
  <path d="M22 4.91602H2C0.719033 4.91602 0 5.70796 0 6.91602V20.916C0 22.1966 0.719033 22.916 2 22.916H22C23.2085 22.916 24 22.1966 24 20.916V6.91602C24 5.65964 23.1843 4.91602 22 4.91602ZM23 20.916C23 21.3026 22.3625 21.916 22 21.916H2C1.61329 21.916 1 21.2784 1 20.916V13.916H23V20.916ZM23 9.91602H1V6.91602C1 6.52944 1.63746 5.91602 2 5.91602H22C22.3867 5.91602 23 6.5536 23 6.91602V9.91602ZM3 16.916H4V19.916H3V16.916ZM6 16.916H7V19.916H6V16.916ZM9 16.916H10V19.916H9V16.916Z" fill="currentcolor"/>
  <path d="M0 8.91602V12.916H23V8.91602H0Z" fill="currentcolor"/>
</svg>




