 <svg
  v-if="PAGE_EDIT"
  xmlns="http://www.w3.org/2000/svg"
  width="18"
  height="18"
  viewBox="0 0 18 18"
  fill="none"
>
  <path
    d="M3.9684 14.7169L3.9678 14.6234C3.9678 14.6552 3.96804 14.6863 3.9684 14.7169ZM10.9956 4.05933C10.5636 4.05933 10.2134 4.40915 10.2134 4.8415L10.2207 14.6493C10.2207 15.0809 10.5709 15.4315 11.0028 15.4315C11.4348 15.4315 11.785 15.0809 11.785 14.6493L11.7782 4.8415C11.7782 4.40917 11.428 4.05933 10.9956 4.05933ZM16.4457 1.73646L10.2173 1.73936L10.2138 0.930627C10.2138 0.49828 9.86356 0.148438 9.43125 0.148438C9.28879 0.148438 9.15534 0.186692 9.04028 0.253206C8.92516 0.186692 8.79165 0.148438 8.64904 0.148438C8.2171 0.148438 7.86687 0.49828 7.86687 0.930627L7.87055 1.74046L3.3761 1.74254C3.31304 1.72615 3.24693 1.71739 3.17875 1.71739C3.11034 1.71739 3.044 1.72623 2.98077 1.74272L1.55367 1.74338C1.12173 1.74338 0.771484 2.09398 0.771484 2.52555C0.771484 2.95789 1.12171 3.30774 1.55367 3.30774L2.39696 3.30734L2.40268 15.3758H2.40384V16.2068C2.40384 17.0708 3.10428 17.7712 3.9682 17.7712H4.75039V17.7771L13.3544 17.7721V17.7712H14.1365C14.9893 17.7712 15.6824 17.0886 15.7001 16.24L15.6937 4.84609C15.6937 4.41377 15.3435 4.06392 14.9115 4.06392C14.4795 4.06392 14.1293 4.41377 14.1293 4.84609L14.1349 14.7938C14.1074 15.9718 13.7718 16.1877 12.5725 16.1877L13.3846 16.2077L4.50875 16.2129L5.53216 16.1877C4.30725 16.1877 3.98323 15.9627 3.9684 14.7169L3.97803 16.2132H3.96742L3.9613 3.30658L8.58675 3.30444C8.60967 3.30646 8.63285 3.30769 8.6563 3.30769C8.68004 3.30769 8.70349 3.30646 8.72669 3.30438L9.36418 3.30408C9.38866 3.3064 9.41342 3.30769 9.43851 3.30769C9.46389 3.30769 9.48895 3.30638 9.51374 3.30402L16.4456 3.30082C16.8776 3.30082 17.2279 2.95098 17.2279 2.51865C17.2279 2.0863 16.8776 1.73646 16.4457 1.73646ZM14.135 14.9237L14.1357 16.2072H14.1267L14.135 14.9237ZM7.0847 4.05933C6.65274 4.05933 6.30251 4.40915 6.30251 4.8415L6.30977 14.6493C6.30977 15.0809 6.65999 15.4315 7.09198 15.4315C7.52393 15.4315 7.87415 15.0809 7.87415 14.6493L7.86689 4.8415C7.86687 4.40917 7.51665 4.05933 7.0847 4.05933Z"
    fill="#F00D0D"
  />
</svg>