<svg width="24" height="24" viewBox="0 0 24 24" fill="none" xmlns="http://www.w3.org/2000/svg">
  <g clip-path="url(#clip0_5512_613)">
    <path d="M11.1444 11.5831V14.1056H7.58648C7.20078 14.1056 6.94364 14.3584 6.94364 14.7364C6.94364 15.1152 7.20078 15.3672 7.52219 15.3672H11.1435V18.104C11.1435 18.4803 11.4795 18.7314 11.9835 18.7314C12.4874 18.7314 12.8234 18.4803 12.8234 18.104V15.3672H16.383C16.7687 15.3672 17.025 15.1152 17.025 14.7364C17.025 14.3584 16.7679 14.1056 16.3822 14.1056H12.8251V11.5831H16.3822C16.7679 11.5831 17.025 11.3311 17.025 10.9522C17.025 10.5743 16.7679 10.3214 16.3822 10.3214H13.0986L15.9665 7.42695C16.2125 7.16553 16.275 6.77211 16.0282 6.50984C15.9747 6.44811 15.9085 6.3986 15.8342 6.36468C15.7599 6.33075 15.6792 6.31319 15.5975 6.31319C15.5158 6.31319 15.4351 6.33075 15.3607 6.36468C15.2864 6.3986 15.2203 6.44811 15.1668 6.50984L12.0906 9.65544L8.83015 6.3127C8.77664 6.25097 8.71049 6.20147 8.63618 6.16754C8.56187 6.13361 8.48114 6.11605 8.39945 6.11605C8.31776 6.11605 8.23703 6.13361 8.16271 6.16754C8.0884 6.20147 8.02226 6.25097 7.96875 6.3127C7.85021 6.4361 7.78401 6.60058 7.78401 6.77169C7.78401 6.94279 7.85021 7.10727 7.96875 7.23067L11.0235 10.3214H7.58648C7.20078 10.3214 6.94364 10.5743 6.94364 10.9522C6.94364 11.3302 7.20078 11.5831 7.52219 11.5831H11.1435H11.1444ZM12.5612 22.6098C12.2115 22.8687 12.1292 23.4369 12.3914 23.7824L12.4806 23.8561C12.6554 23.9418 12.8663 23.9992 13.066 23.9992C13.1567 23.9981 13.2464 23.9807 13.3308 23.9478C13.4158 23.9141 13.498 23.874 13.5768 23.8278L15.9656 21.943C16.2425 21.6704 16.3565 21.3336 16.2107 21.0602C16.1634 20.8896 16.062 20.739 15.9219 20.6308C15.7817 20.5227 15.6103 20.4628 15.4333 20.4602H4.60201C4.00546 20.4602 3.48948 20.2459 3.12178 19.8336C2.75394 19.4629 2.547 18.9622 2.5458 18.44L2.60494 10.3866C2.60494 9.89629 2.25438 9.55087 1.76154 9.55087C1.53906 9.54973 1.32522 9.6369 1.16694 9.79325C1.00866 9.9496 0.918873 10.1624 0.917286 10.3848L0.858147 18.4366C0.858147 19.4308 1.23528 20.3685 1.93982 21.1253C2.6598 21.8341 3.61548 22.2481 4.60201 22.2481H13.0326L12.5612 22.609V22.6098ZM11.4401 1.48973C11.7898 1.23088 11.872 0.662616 11.6089 0.3172C11.3483 -0.0256447 10.7775 -0.10707 10.4244 0.154349L8.0356 2.04C7.75876 2.31341 7.64476 2.65026 7.81018 2.97596C7.99703 3.34452 8.17789 3.5228 8.50787 3.5228H19.3401C19.8878 3.5228 20.4234 3.75936 20.8203 4.15021C21.2351 4.55905 21.4546 5.07417 21.4546 5.60215L21.3997 13.6127C21.3819 13.7267 21.3885 13.8432 21.4193 13.9544C21.4501 14.0656 21.5042 14.1689 21.5782 14.2575C21.6521 14.3461 21.744 14.4179 21.8479 14.4681C21.9518 14.5183 22.0652 14.5458 22.1805 14.5487C22.4027 14.5498 22.6163 14.4629 22.7745 14.3069C22.9328 14.1509 23.0227 13.9386 23.0248 13.7164L23.1431 5.6613C23.1431 4.66705 22.7659 3.72936 22.0537 2.96482C21.2668 2.25342 20.3155 1.85057 19.3392 1.85057H10.9686L11.4401 1.48887V1.48973Z" fill="currentcolor"/>
  </g>
  <defs>
    <clipPath id="clip0_5512_613">
      <rect width="24" height="24" fill="white" transform="matrix(-1 0 0 1 24 0)"/>
    </clipPath>
  </defs>
</svg>






