<svg width="30" height="28" viewBox="0 0 30 28" fill="none" xmlns="http://www.w3.org/2000/svg">
  <g clip-path="url(#clip0_5512_609)">
    <path d="M10.443 13.906H7.64668C7.45975 13.9034 7.28151 13.8267 7.15102 13.6929C7.02053 13.559 6.94845 13.3789 6.95059 13.192C6.95059 12.796 7.26063 12.478 7.64668 12.478H9.59292L8.00872 9.658C7.93279 9.49383 7.91999 9.30745 7.97275 9.13443C8.02551 8.96142 8.14013 8.81389 8.29476 8.72C8.44824 8.62926 8.6307 8.60086 8.80451 8.64068C8.97832 8.6805 9.13021 8.78549 9.22887 8.934L11.1451 12.34L13.0634 8.934C13.1611 8.78396 13.313 8.67737 13.4873 8.63639C13.6617 8.59542 13.8451 8.62322 13.9995 8.714C14.3195 8.904 14.4455 9.314 14.2855 9.658L12.6973 12.478H14.6335C15.0196 12.478 15.3316 12.798 15.3316 13.192C15.333 13.2849 15.3159 13.3771 15.2815 13.4634C15.2471 13.5497 15.1961 13.6284 15.1312 13.6949C15.0664 13.7614 14.989 13.8144 14.9036 13.851C14.8182 13.8876 14.7264 13.907 14.6335 13.908H11.8352V15.336H14.6355C15.0056 15.356 15.2956 15.67 15.2956 16.05C15.2956 16.43 15.0056 16.746 14.6355 16.764H11.8352V18.912C11.8341 19.0511 11.7926 19.1869 11.716 19.3029C11.6393 19.419 11.5306 19.5104 11.4031 19.566C11.2967 19.6119 11.1805 19.6301 11.0651 19.6191C10.9498 19.608 10.8391 19.568 10.7433 19.5028C10.6476 19.4376 10.5699 19.3492 10.5174 19.2459C10.4649 19.1427 10.4393 19.0278 10.443 18.912V16.764H7.64668C7.45975 16.7614 7.28151 16.6847 7.15102 16.5509C7.02053 16.417 6.94845 16.2369 6.95059 16.05C6.95059 15.656 7.26063 15.336 7.64668 15.336H10.441V13.906H10.443ZM22.1405 14.554C21.6322 14.35 21.1039 14.1998 20.5643 14.106C20.4757 13.6579 20.3689 13.2135 20.2443 12.774C19.7389 10.9798 18.784 9.34418 17.4699 8.022C16.8003 7.34153 16.0492 6.74636 15.2336 6.25C14.9214 6.05423 14.5951 5.88176 14.2575 5.734L8.06873 5.716C7.7148 5.86746 7.37307 6.04599 7.0466 6.25C6.23103 6.74633 5.47992 7.3415 4.81032 8.022C3.49594 9.34474 2.54101 10.9811 2.03597 12.776C1.23587 15.592 1.35589 17.794 2.01197 19.43C2.19999 19.898 2.38002 20.19 2.47603 20.31L2.56604 20.45C2.79607 20.906 3.55416 21.35 4.12023 21.35H11.1411V22.868H4.12023C3.0481 22.868 1.81195 22.16 1.29388 21.224C1.02662 20.8481 0.808808 20.4394 0.6458 20.008C-0.142298 18.052 -0.276315 15.496 0.617797 12.35C1.19132 10.3081 2.27713 8.44654 3.77219 6.942C4.6503 6.05 5.64843 5.29 6.73656 4.686L5.58642 2.466C4.93634 1.22 5.63642 0 7.0066 0H11.1411V1.518H7.0086C6.76056 1.518 6.76257 1.51 6.88858 1.752L8.20675 4.288H14.0735L15.3916 1.752C15.5157 1.512 15.5217 1.518 15.2716 1.518H11.1411V0H15.2736C16.6458 0 17.3459 1.22 16.6978 2.466L15.5437 4.686C16.6341 5.29236 17.6323 6.05136 18.508 6.94C20.0032 8.44558 21.0896 10.3076 21.6644 12.35C21.8825 13.12 22.0385 13.854 22.1405 14.554ZM11.2531 22.868H11.1411V21.348H11.3411C11.1573 21.8337 11.1259 22.364 11.2511 22.868H11.2531ZM25.899 23.782C25.9313 23.8066 25.9575 23.8384 25.9755 23.8748C25.9936 23.9113 26.003 23.9514 26.003 23.992C26.003 24.076 25.963 24.154 25.899 24.204L23.5547 25.95C23.5169 25.9777 23.4722 25.9943 23.4255 25.9978C23.3788 26.0014 23.3321 25.9917 23.2906 25.97C23.2484 25.9478 23.213 25.9144 23.1883 25.8735C23.1636 25.8326 23.1506 25.7858 23.1506 25.738V24.602H15.4877C15.3334 24.5918 15.189 24.5228 15.0841 24.4094C14.9791 24.2959 14.9217 24.1465 14.9236 23.992C14.9236 23.668 15.1716 23.4 15.4877 23.384H23.1506V22.244C23.1506 22.146 23.2046 22.056 23.2906 22.012C23.3321 21.9903 23.3788 21.9806 23.4255 21.9842C23.4722 21.9877 23.5169 22.0043 23.5547 22.032L25.899 23.782ZM14.9976 20.022C14.965 19.9972 14.9386 19.9651 14.9206 19.9283C14.9025 19.8915 14.8933 19.851 14.8936 19.81C14.8936 19.726 14.9336 19.65 14.9976 19.6L17.3419 17.852C17.3796 17.8243 17.4244 17.8077 17.471 17.8042C17.5177 17.8006 17.5644 17.8103 17.6059 17.832C17.6485 17.8544 17.6841 17.8881 17.7088 17.9293C17.7335 17.9706 17.7463 18.0179 17.7459 18.066V19.2H25.4069C25.5611 19.2102 25.7056 19.2792 25.8105 19.3926C25.9154 19.5061 25.9728 19.6555 25.971 19.81C25.9729 19.9642 25.9157 20.1133 25.8112 20.2267C25.7067 20.3401 25.5628 20.4093 25.4089 20.42H17.7459V21.558C17.7459 21.656 17.6919 21.746 17.6059 21.79C17.5644 21.8117 17.5177 21.8214 17.471 21.8178C17.4244 21.8143 17.3796 21.7977 17.3419 21.77L14.9976 20.022Z" fill="currentcolor"/>
  </g>
  <defs>
    <clipPath id="clip0_5512_609">
      <rect width="30" height="28" fill="white"/>
    </clipPath>
  </defs>
</svg>






