<svg width="24" height="24" viewBox="0 0 24 24" fill="none" xmlns="http://www.w3.org/2000/svg">
  <g clip-path="url(#clip0_5493_242)">
    <path d="M21.8184 21.8342H2.18274C1.60422 21.8338 1.04949 21.6034 0.640275 21.1937C0.231061 20.784 0.000792897 20.2283 0 19.6487L0 14.7302H0.544936C2.0495 14.7302 3.27261 13.5047 3.27261 11.9972C3.27261 10.4897 2.0495 9.26416 0.544936 9.26416H0V4.34716C0.000792136 3.76737 0.231013 3.21156 0.640184 2.80159C1.04935 2.39162 1.60408 2.16095 2.18274 2.16016H21.8199C22.3983 2.16135 22.9526 2.39219 23.3615 2.80212C23.7703 3.21205 24.0003 3.76763 24.0011 4.34716V9.26566H23.4562C21.9531 9.26566 20.7285 10.4912 20.7285 11.9987C20.7285 13.5062 21.9531 14.7317 23.4562 14.7317H24.0011V19.6502C23.9995 20.2294 23.769 20.7845 23.3599 21.1938C22.9508 21.6031 22.3965 21.8334 21.8184 21.8342ZM1.09137 15.7847V19.6487C1.09176 19.9385 1.20687 20.2165 1.41146 20.4214C1.61605 20.6264 1.89341 20.7418 2.18274 20.7422H21.8199C22.1092 20.7418 22.3866 20.6264 22.5912 20.4214C22.7957 20.2165 22.9109 19.9385 22.9113 19.6487V15.7847C21.0639 15.5177 19.6371 13.9217 19.6371 11.9972C19.6371 10.0727 21.0624 8.47666 22.9113 8.21116V4.34716C22.9109 4.05726 22.7957 3.77936 22.5912 3.57437C22.3866 3.36939 22.1092 3.25405 21.8199 3.25366H2.18274C1.89341 3.25405 1.61605 3.36939 1.41146 3.57437C1.20687 3.77936 1.09176 4.05726 1.09137 4.34716V8.21116C2.94026 8.47666 4.36398 10.0742 4.36398 11.9972C4.36398 13.9202 2.93876 15.5177 1.09137 15.7847Z" fill="currentcolor"/>
    <path d="M14.459 16.642C14.2377 16.6414 14.0198 16.5868 13.8242 16.483L12.1266 15.589C12.0876 15.569 12.0445 15.5586 12.0008 15.5586C11.9571 15.5586 11.914 15.569 11.875 15.589L10.1759 16.4845C9.89995 16.6265 9.58428 16.671 9.27998 16.6109C8.97567 16.5507 8.70054 16.3894 8.49914 16.153C8.3718 16.0015 8.27903 15.8239 8.22731 15.6327C8.1756 15.4415 8.16618 15.2413 8.19972 15.046L8.52459 13.15C8.53159 13.1065 8.52819 13.0619 8.51466 13.0199C8.50112 12.9779 8.47785 12.9398 8.44674 12.9085L7.07242 11.5675C6.88965 11.3905 6.7604 11.1655 6.69949 10.9182C6.63859 10.6709 6.6485 10.4114 6.7281 10.1695C6.80546 9.92709 6.94944 9.7114 7.14353 9.54718C7.33761 9.38296 7.57395 9.27686 7.82545 9.24103L9.72674 8.96503C9.77035 8.95811 9.81169 8.9409 9.84735 8.91482C9.88301 8.88874 9.91197 8.85453 9.93184 8.81503L10.7792 7.09003C10.891 6.86116 11.0649 6.66845 11.281 6.53396C11.497 6.39947 11.7465 6.32863 12.0008 6.32953C12.5218 6.32953 12.9919 6.62053 13.2209 7.08853L14.0698 8.81353C14.0894 8.85319 14.1183 8.88752 14.154 8.91362C14.1897 8.93973 14.2312 8.95685 14.2749 8.96353L16.1761 9.23953C16.4279 9.27572 16.6644 9.38212 16.8587 9.54656C17.053 9.71101 17.1973 9.92688 17.275 10.1695C17.354 10.4116 17.3635 10.6711 17.3024 10.9183C17.2412 11.1655 17.1119 11.3905 16.9292 11.5675L15.5549 12.91C15.5231 12.9408 15.4992 12.9789 15.4854 13.021C15.4716 13.063 15.4682 13.1078 15.4755 13.1515L15.8004 15.046C15.8353 15.2413 15.8268 15.4418 15.7756 15.6334C15.7243 15.825 15.6316 16.0029 15.504 16.1545C15.3756 16.307 15.2156 16.4296 15.0351 16.5138C14.8547 16.598 14.6581 16.6417 14.459 16.642ZM12.0008 14.464C12.2194 14.464 12.4394 14.518 12.6341 14.62L14.3347 15.517C14.4545 15.5785 14.5892 15.547 14.6701 15.4495C14.6957 15.4199 14.7142 15.3847 14.7241 15.3467C14.734 15.3087 14.735 15.269 14.727 15.2305L14.4006 13.3345C14.3626 13.1163 14.3786 12.8921 14.4472 12.6816C14.5159 12.4711 14.6351 12.2806 14.7943 12.127L16.1672 10.7845C16.2043 10.75 16.2307 10.7054 16.2429 10.6561C16.2551 10.6068 16.2527 10.555 16.236 10.507C16.2212 10.4585 16.1926 10.4152 16.1539 10.3825C16.1151 10.3498 16.0677 10.329 16.0175 10.3225L14.1177 10.045C13.8994 10.0133 13.6922 9.92887 13.5138 9.79899C13.3354 9.66911 13.1912 9.4977 13.0937 9.29953L12.2433 7.57453C12.176 7.43803 12.0502 7.42303 12.0008 7.42303C11.9514 7.42303 11.8241 7.43803 11.7568 7.57453L10.9079 9.29953C10.8101 9.49746 10.6658 9.66868 10.4875 9.79852C10.3091 9.92835 10.102 10.0129 9.88393 10.045L7.98265 10.3225C7.93242 10.3291 7.88514 10.35 7.84641 10.3827C7.80767 10.4154 7.7791 10.4586 7.76407 10.507C7.74774 10.555 7.74555 10.6067 7.75776 10.6559C7.76997 10.7051 7.79607 10.7498 7.83294 10.7845L9.20725 12.127C9.52913 12.4405 9.67584 12.892 9.59799 13.3345L9.27462 15.2305C9.26664 15.269 9.26763 15.3087 9.27749 15.3467C9.28736 15.3847 9.30585 15.4199 9.33151 15.4495C9.37139 15.4978 9.42664 15.5309 9.48798 15.5432C9.54932 15.5555 9.61301 15.5462 9.66835 15.517L11.3675 14.62C11.5629 14.5175 11.7802 14.464 12.0008 14.464ZM5.45558 5.43853C5.31106 5.43853 5.17245 5.38101 5.07025 5.27861C4.96806 5.17622 4.91065 5.03734 4.91065 4.89253V3.25303C4.91065 3.10822 4.96806 2.96935 5.07025 2.86695C5.17245 2.76456 5.31106 2.70703 5.45558 2.70703C5.60011 2.70703 5.73871 2.76456 5.84091 2.86695C5.94311 2.96935 6.00052 3.10822 6.00052 3.25303V4.89253C6.00052 5.03734 5.94311 5.17622 5.84091 5.27861C5.73871 5.38101 5.60011 5.43853 5.45558 5.43853ZM5.45558 21.2875C5.38396 21.2877 5.31301 21.2737 5.24681 21.2464C5.18061 21.219 5.12046 21.1788 5.06981 21.1281C5.01917 21.0773 4.97904 21.017 4.95173 20.9507C4.92441 20.8844 4.91045 20.8133 4.91065 20.7415V19.102C4.91065 18.9572 4.96806 18.8183 5.07025 18.716C5.17245 18.6136 5.31106 18.556 5.45558 18.556C5.60011 18.556 5.73871 18.6136 5.84091 18.716C5.94311 18.8183 6.00052 18.9572 6.00052 19.102V20.7415C6.00072 20.8133 5.98676 20.8844 5.95944 20.9507C5.93212 21.017 5.89199 21.0773 5.84135 21.1281C5.79071 21.1788 5.73056 21.219 5.66435 21.2464C5.59815 21.2737 5.5272 21.2877 5.45558 21.2875Z" fill="currentcolor"/>
  </g>
  <defs>
    <clipPath id="clip0_5493_242">
      <rect width="24" height="24" fill="white"/>
    </clipPath>
  </defs>
</svg>

