<svg width="20" height="20" viewBox="0 0 20 20" fill="none" xmlns="http://www.w3.org/2000/svg">
  <path d="M9.40968 19H4.11453C3.53032 19 3.05726 18.5263 3.05726 17.9427V11.5903C2.47305 11.5903 2 11.1166 2 10.5331V8.41032C2 7.82611 2.47368 7.35305 3.05726 7.35305H9.40968V19ZM17.8766 7.35242H11.5242V19H16.8194C17.4036 19 17.8766 18.5263 17.8766 17.9427V11.5903C18.4608 11.5903 18.9339 11.1166 18.9339 10.5331V8.41032C18.9339 7.82611 18.4602 7.35305 17.8766 7.35305V7.35242ZM14.7042 1C12.3636 1 10.4669 2.89726 10.4669 5.23726H14.7042C15.2884 5.23726 15.7615 4.76358 15.7615 4.18V2.05726C15.7615 1.47305 15.2878 1 14.7042 1ZM6.22968 1C5.64547 1 5.17242 1.47368 5.17242 2.05726V4.18C5.17242 4.76421 5.64611 5.23726 6.22968 5.23726H10.4669C10.4669 2.89663 8.56968 1 6.22968 1Z" fill="currentcolor"/>
</svg>

