<svg width="30" height="30" viewBox="0 0 30 30" fill="none" xmlns="http://www.w3.org/2000/svg">
  <path d="M21.5694 3.46094H8.41735L1.84131 14.8509L8.41732 26.2409H21.5693L28.1454 14.8509L21.5694 3.46094ZM20.9366 25.1449H9.0501L3.10687 14.8509L9.05013 4.55695H20.9366L26.8799 14.851L20.9366 25.1449Z" fill="currentcolor"/>
  <path d="M20.7821 9.20865C19.2344 7.66095 17.1766 6.80859 14.9878 6.80859C12.799 6.80859 10.7412 7.66095 9.19352 9.20865C7.64581 10.7564 6.79346 12.8141 6.79346 15.0029C6.79346 17.1917 7.64581 19.2495 9.19352 20.7972C10.7412 22.3449 12.799 23.1973 14.9878 23.1973C17.1766 23.1973 19.2344 22.3449 20.7821 20.7972C22.3298 19.2495 23.1821 17.1917 23.1821 15.0029C23.1821 12.8141 22.3298 10.7564 20.7821 9.20865ZM15.5877 8.03417C17.2297 8.17275 18.755 8.87845 19.9336 10.0571C21.1123 11.2357 21.8179 12.761 21.9565 14.403H19.851C19.7898 13.9031 19.6513 13.4158 19.4405 12.9584C19.7188 12.6407 19.888 12.2253 19.888 11.7708C19.888 10.7757 19.0784 9.96607 18.0832 9.96607C17.6009 9.96607 17.1625 10.1566 16.8384 10.4659C16.4379 10.3019 16.0173 10.1921 15.5877 10.1395V8.03417H15.5877ZM15.5877 15.6029H18.6394C18.3839 17.1636 17.1485 18.3988 15.5877 18.6544V15.6029ZM18.785 11.7783C18.785 12.1276 18.5018 12.4108 18.1524 12.4108C17.8031 12.4108 17.5199 12.1276 17.5199 11.7783C17.5199 11.4289 17.8031 11.1457 18.1524 11.1457C18.5018 11.1457 18.785 11.4289 18.785 11.7783ZM16.2936 11.5407C16.2837 11.617 16.2786 11.6939 16.2784 11.7708C16.2784 12.766 17.088 13.5756 18.0832 13.5756C18.1879 13.5756 18.2904 13.5661 18.3903 13.549C18.5076 13.8225 18.5912 14.1093 18.6392 14.403H15.5877V11.3515C15.8287 11.3909 16.0652 11.4543 16.2936 11.5407ZM14.3879 14.403H11.3361C11.5917 12.8423 12.8271 11.607 14.3879 11.3515V14.403ZM10.0419 10.0571C11.2206 8.87845 12.7459 8.17275 14.3879 8.03417V10.1395C12.1645 10.4121 10.397 12.1797 10.1243 14.403H8.01903C8.15761 12.761 8.86332 11.2357 10.0419 10.0571ZM14.3879 21.9717C12.7459 21.8331 11.2206 21.1274 10.0419 19.9488C8.86332 18.7701 8.15761 17.2448 8.01903 15.6029H10.1243C10.397 17.8261 12.1645 19.5937 14.3878 19.8664V21.9717H14.3879ZM11.3361 15.6029H14.3879V18.6544C12.8271 18.3988 11.5917 17.1636 11.3361 15.6029ZM19.9336 19.9488C18.755 21.1274 17.2297 21.8331 15.5877 21.9717V19.8663C17.811 19.5937 19.5786 17.8261 19.8512 15.6028H21.9565C21.8179 17.2448 21.1123 18.7701 19.9336 19.9488Z" fill="currentcolor"/>
</svg>


