<!--<svg width="48" height="48" viewBox="0 0 48 48" fill="none" xmlns="http://www.w3.org/2000/svg">-->
<!--<rect width="48" height="48" rx="24" fill="url(#paint0_linear_1838_15061)"/>-->
<!--<path d="M36.4867 12H11V14.7611H36.4867V12ZM36.4867 19.0796H21.6195V21.8407H36.4867V19.0796ZM21.6195 26.1593H36.4867V28.9204H21.6195V26.1593ZM36.4867 33.2389H11V36H36.4867V33.2389ZM17.4975 21.8761H11.9361C11.5712 21.8761 11.3761 21.4463 11.6164 21.1716L14.3971 17.9937C14.5664 17.8003 14.8673 17.8003 15.0365 17.9937L17.8172 21.1716C18.0575 21.4463 17.8625 21.8761 17.4975 21.8761ZM17.4975 26.1239H11.9361C11.5712 26.1239 11.3761 26.5537 11.6164 26.8284L14.3971 30.0063C14.5664 30.1997 14.8673 30.1997 15.0365 30.0063L17.8172 26.8284C18.0575 26.5537 17.8625 26.1239 17.4975 26.1239Z" fill="white"/>-->
<!--<defs>-->
<!--<linearGradient id="paint0_linear_1838_15061" x1="24" y1="0" x2="24" y2="48" gradientUnits="userSpaceOnUse">-->
<!--<stop stop-color="#FA9EA1"/>-->
<!--<stop offset="1" stop-color="#D73E42"/>-->
<!--</linearGradient>-->
<!--</defs>-->
<!--</svg>-->

<svg width="18" height="18" viewBox="0 0 18 18" fill="none" xmlns="http://www.w3.org/2000/svg">
  <path fill-rule="evenodd" clip-rule="evenodd" d="M0 13.9424V0H18V13.9424H0ZM8.73759 8.1H10.9274V5.85H8.73759C8.47244 5.10566 7.9529 4.4789 7.27064 4.08031C6.58839 3.68172 5.78727 3.53691 5.00865 3.67146C4.23003 3.806 3.52396 4.21123 3.01502 4.81566C2.50608 5.42008 2.22699 6.18484 2.22699 6.975C2.22699 7.76516 2.50608 8.52992 3.01502 9.13434C3.52396 9.73877 4.23003 10.144 5.00865 10.2785C5.78727 10.4131 6.58839 10.2683 7.27064 9.86969C7.9529 9.4711 8.47244 8.84434 8.73759 8.1ZM13.5 11.7976H15.75V8.40009H13.5V11.7976ZM13.5 5.54991H15.75V2.15241H13.5V5.54991ZM6.71991 6.975C6.71991 7.27337 6.60138 7.55952 6.3904 7.7705C6.17942 7.98147 5.89327 8.1 5.59491 8.1C5.29654 8.1 5.01039 7.98147 4.79941 7.7705C4.58843 7.55952 4.46991 7.27337 4.46991 6.975C4.46991 6.67663 4.58843 6.39048 4.79941 6.1795C5.01039 5.96853 5.29654 5.85 5.59491 5.85C5.89327 5.85 6.17942 5.96853 6.3904 6.1795C6.60138 6.39048 6.71991 6.67663 6.71991 6.975ZM1.49991 18H5.265L6.5475 15.8175H1.49991V18ZM16.5001 18H12.735L11.4525 15.8175H16.5001V18Z" fill="currentcolor"/>
</svg>

