<svg width="24" height="24" viewBox="0 0 24 24" fill="none" xmlns="http://www.w3.org/2000/svg">
  <path d="M15.4011 6.39531H9.09409C8.79643 6.39531 8.55503 6.57578 8.55503 6.80078C8.55503 7.02578 8.79643 7.20625 9.09409 7.20625H15.4011C15.6988 7.20625 15.9402 7.02344 15.9402 6.80078C15.9378 6.57812 15.6988 6.39531 15.4011 6.39531ZM20.705 19.7242H20.248V9.50078C20.248 8.67344 19.6832 8.15547 18.9871 8.15547H17.8035L17.8011 4.37266C17.8011 3.54531 17.2363 2.875 16.5378 2.875H7.95034C7.2519 2.875 6.68706 3.54531 6.68706 4.37266L6.70112 8.15547H5.49409C4.6269 8.37344 4.37612 8.76953 4.21674 9.50078V19.6492H3.80659C3.51831 19.6492 3.38003 19.6914 3.28628 20.1016C3.19487 20.5 3.51831 20.8492 3.80659 20.8492H20.705C20.9933 20.8492 21.0894 20.8492 21.2253 20.4672C21.3566 20.0875 20.991 19.7242 20.705 19.7242ZM5.01596 19.6961L5.08159 11.0125C5.08159 10.3117 5.03003 8.9875 6.48315 9.17031H6.68471L6.68706 19.6586V19.7031L5.01596 19.6961ZM16.9597 19.6984H7.52378V5.2375C7.52378 4.52031 8.00893 3.93672 8.60659 3.93672H15.8722C16.4699 3.93672 16.955 4.52031 16.955 5.2375L16.9597 19.6984ZM19.4394 19.6984H17.8035C17.8035 19.6844 17.8058 19.6703 17.8058 19.6539L17.8339 9.24766H18.0707C18.8417 9.24766 19.5074 9.34844 19.4394 10.8719V19.6984ZM15.4011 9.01562H9.09409C8.79643 9.01562 8.55503 9.19609 8.55503 9.42109C8.55503 9.64609 8.79643 9.82656 9.09409 9.82656H15.4011C15.6988 9.82656 15.9402 9.64375 15.9402 9.42109C15.9378 9.19844 15.6988 9.01562 15.4011 9.01562ZM15.4011 11.6289H9.09409C8.79643 11.6289 8.55503 11.8141 8.55503 12.0437C8.55503 12.2734 8.79643 12.4586 9.09409 12.4586H15.4011C15.6988 12.4586 15.9402 12.2734 15.9402 12.0437C15.9378 11.8141 15.6988 11.6289 15.4011 11.6289Z" fill="currentcolor"/>
</svg>

