<svg xmlns="http://www.w3.org/2000/svg" width="24" height="24" viewBox="0 0 24 24" fill="none">
  <path d="M19.6925 22H4.30747C3.69561 21.9996 3.10891 21.7564 2.67626 21.3237C2.24361 20.8911 2.00038 20.3044 2 19.6925V4.30747C2.00038 3.69536 2.24381 3.10845 2.67677 2.67576C3.10973 2.24306 3.69679 2 4.30891 2H19.6911C20.3035 2 20.8907 2.24326 21.3237 2.67626C21.7567 3.10927 22 3.69655 22 4.30891V19.6911C22 20.3035 21.7567 20.8907 21.3237 21.3237C20.8907 21.7567 20.3035 22 19.6911 22H19.6925ZM4.30747 3.54023C4.20478 3.53347 4.10183 3.54872 4.0055 3.58496C3.90918 3.6212 3.82171 3.67759 3.74893 3.75037C3.67616 3.82314 3.61977 3.91061 3.58353 4.00694C3.54729 4.10326 3.53204 4.20621 3.53879 4.30891V19.694C3.53182 19.7968 3.54692 19.8999 3.58306 19.9964C3.6192 20.0929 3.67556 20.1805 3.74836 20.2535C3.82116 20.3264 3.90871 20.3829 4.00514 20.4192C4.10157 20.4556 4.20465 20.4709 4.30747 20.4641H19.6925C19.7955 20.4711 19.8987 20.4559 19.9953 20.4197C20.0919 20.3835 20.1796 20.327 20.2526 20.254C20.3256 20.1811 20.3821 20.0934 20.4183 19.9967C20.4545 19.9001 20.4696 19.7969 20.4626 19.694V4.30747C20.4694 4.20465 20.4541 4.10157 20.4178 4.00514C20.3815 3.90871 20.325 3.82116 20.252 3.74836C20.1791 3.67556 20.0914 3.6192 19.9949 3.58306C19.8984 3.54692 19.7953 3.53182 19.6925 3.53879H4.30747V3.54023Z" fill="white"/>
  <path d="M16.6165 12.7707H13.5389C12.9268 12.7703 12.3399 12.5268 11.9072 12.0939C11.4745 11.6609 11.2315 11.0739 11.2315 10.4617V7.38703C11.2315 6.11211 12.264 5.07812 13.5404 5.07812H16.6165C17.89 5.07812 18.924 6.11211 18.924 7.38703V10.4646C18.924 11.7381 17.8914 12.7721 16.6151 12.7721L16.6165 12.7707ZM13.5389 6.61692C13.4362 6.61016 13.3333 6.62541 13.237 6.66165C13.1407 6.69789 13.0532 6.75429 12.9804 6.82706C12.9076 6.89983 12.8512 6.9873 12.815 7.08363C12.7788 7.17995 12.7635 7.2829 12.7703 7.3856V10.4632C12.7635 10.5659 12.7788 10.6688 12.815 10.7652C12.8512 10.8615 12.9076 10.9489 12.9804 11.0217C13.0532 11.0945 13.1407 11.1509 13.237 11.1871C13.3333 11.2234 13.4362 11.2386 13.5389 11.2319H16.6165C16.7192 11.2386 16.8222 11.2234 16.9185 11.1871C17.0148 11.1509 17.1023 11.0945 17.1751 11.0217C17.2478 10.9489 17.3042 10.8615 17.3405 10.7652C17.3767 10.6688 17.392 10.5659 17.3852 10.4632V7.3856C17.392 7.2829 17.3767 7.17995 17.3405 7.08363C17.3042 6.9873 17.2478 6.89983 17.1751 6.82706C17.1023 6.75429 17.0148 6.69789 16.9185 6.66165C16.8222 6.62541 16.7192 6.61016 16.6165 6.61692H13.5389ZM11.154 18.5013H5.99986C5.79581 18.5013 5.60011 18.4203 5.45582 18.276C5.31153 18.1317 5.23047 17.936 5.23047 17.7319C5.23047 17.5279 5.31153 17.3322 5.45582 17.1879C5.60011 17.0436 5.79581 16.9625 5.99986 16.9625H11.154C11.257 16.9555 11.3602 16.9707 11.4568 17.0069C11.5534 17.0431 11.6412 17.0996 11.7141 17.1726C11.7871 17.2455 11.8436 17.3333 11.8798 17.4299C11.916 17.5265 11.9311 17.6297 11.9241 17.7326C11.9241 17.8337 11.9042 17.9338 11.8655 18.0271C11.8268 18.1205 11.77 18.2053 11.6985 18.2767C11.627 18.3481 11.5421 18.4047 11.4486 18.4432C11.3552 18.4818 11.2551 18.5015 11.154 18.5013ZM9.07888 15.6546H5.99986C5.79581 15.6546 5.60011 15.5736 5.45582 15.4293C5.31153 15.285 5.23047 15.0893 5.23047 14.8852C5.23047 14.6812 5.31153 14.4855 5.45582 14.3412C5.60011 14.1969 5.79581 14.1158 5.99986 14.1158H9.07888C9.18171 14.1091 9.28479 14.1243 9.38122 14.1607C9.47765 14.197 9.5652 14.2535 9.638 14.3265C9.71079 14.3994 9.76715 14.487 9.8033 14.5835C9.83944 14.68 9.85453 14.7831 9.84756 14.886C9.84756 14.9869 9.82768 15.0869 9.78905 15.1801C9.75042 15.2734 9.6938 15.3581 9.62242 15.4295C9.55104 15.5009 9.4663 15.5575 9.37304 15.5961C9.27978 15.6348 9.17983 15.6546 9.07888 15.6546Z" fill="white"/>
</svg>