<svg width="24" height="24" viewBox="0 0 24 24" fill="none" xmlns="http://www.w3.org/2000/svg">
  <g clip-path="url(#clip0_5512_12642)">
    <path d="M11.9999 0C5.37213 0 0 5.37218 0 12.0005C0 18.6279 5.37213 24 11.9999 24C18.6273 24 24 18.6279 24 12.0005C24 5.37218 18.6273 0 11.9999 0ZM11.9999 22.7919C6.03994 22.7919 1.20809 17.9604 1.20809 12.0005C1.20809 6.0394 6.03994 1.20809 11.9999 1.20809C17.96 1.20809 22.7919 6.03938 22.7919 12.0004C22.7919 17.9604 17.9601 22.7919 11.9999 22.7919Z" fill="currentcolor"/>
    <path d="M12.2309 12.8071C12.2309 12.8411 12.2134 12.9424 12.1802 13.111H17.3471C17.651 13.111 17.8196 13.2804 17.8536 13.6175C17.8196 13.9555 17.651 14.1241 17.3471 14.1241H12.5855C13.6318 15.6438 15.1515 16.5896 17.1445 16.9608C17.5497 17.0621 17.7349 17.2814 17.7017 17.6193C17.6004 17.9233 17.3471 18.0412 16.9419 17.9739C14.6117 17.4674 12.8554 16.3529 11.6737 14.6306C10.6938 16.1844 8.95486 17.2814 6.45611 17.9233C6.08409 17.9905 5.84822 17.8726 5.74694 17.5686C5.67888 17.2307 5.83085 17.0114 6.2028 16.9101C8.46496 16.3363 9.98461 15.4079 10.7619 14.1241H6.00021C5.66224 14.1241 5.49365 13.9555 5.49365 13.6175C5.49365 13.2803 5.66224 13.1109 6.00021 13.1109H11.0658C11.1331 13.0096 11.1671 12.8917 11.1671 12.7563C11.2004 12.3851 11.3863 12.1825 11.7243 12.1485C12.0615 12.2166 12.2309 12.4359 12.2309 12.8071ZM10.154 6.32314V11.8446C10.154 12.1485 9.98461 12.3179 9.64743 12.3511C9.30947 12.3511 9.12344 12.1992 9.09021 11.8952V10.2742C8.04307 10.8489 7.13125 11.2874 6.35482 11.5913C6.05088 11.6926 5.83082 11.5913 5.69627 11.2874C5.59497 10.9835 5.67883 10.7642 5.94956 10.6288C7.40118 10.021 8.4483 9.51439 9.09023 9.10916V6.32309C9.12349 6.05319 9.30951 5.90122 9.64746 5.86719C9.95135 5.90127 10.12 6.05323 10.154 6.32314ZM6.81072 6.57643C7.62119 7.15105 8.17842 7.62362 8.48233 7.9948C8.68497 8.23145 8.70157 8.46812 8.53303 8.70397C8.29631 8.90659 8.05971 8.90659 7.82381 8.70397C7.41857 8.29873 6.87799 7.84283 6.20282 7.33627C6.00021 7.16769 5.98282 6.94843 6.1522 6.67775C6.35484 6.47509 6.57407 6.44188 6.81072 6.57643ZM13.8012 6.77905H17.0938C17.7689 6.77905 17.9716 7.13366 17.7017 7.84283C16.9245 10.4096 14.7463 11.8446 11.1671 12.1486C10.7951 12.1826 10.5758 12.0473 10.5086 11.7433C10.4745 11.4394 10.6431 11.2542 11.0151 11.1861C12.2981 11.0516 13.3619 10.7809 14.2064 10.3756C13.7672 10.0044 13.2772 9.63322 12.7374 9.2612C12.5007 9.05858 12.45 8.8227 12.5854 8.55202C12.754 8.31617 12.9907 8.28214 13.2946 8.45073C13.6659 8.65334 14.2737 9.10925 15.1182 9.81842C15.7261 9.41319 16.1986 8.87337 16.5365 8.19741C16.6711 7.92753 16.5872 7.79218 16.2832 7.79218H12.94C12.568 8.26548 12.0282 8.738 11.319 9.21055C10.981 9.41319 10.7111 9.41319 10.5085 9.21055C10.3059 8.94066 10.3566 8.68738 10.6605 8.4507C11.6736 7.74155 12.4335 6.96507 12.94 6.12055C13.1086 5.88469 13.3452 5.86726 13.6492 6.06987C13.8851 6.27247 13.9358 6.50916 13.8012 6.77905Z" fill="currentcolor"/>
  </g>
  <defs>
    <clipPath id="clip0_5512_12642">
      <rect width="24" height="24" fill="white"/>
    </clipPath>
  </defs>
</svg>

