<svg width="24" height="24" viewBox="0 0 24 24" fill="none" xmlns="http://www.w3.org/2000/svg">
  <path d="M4.49545 3.64062H19.4751C20.2199 3.64062 20.8964 3.94482 21.3864 4.4348C21.8765 4.92484 22.1806 5.60152 22.1806 6.34606V15.4159C22.1806 16.1606 21.8765 16.8372 21.3864 17.3273C20.8964 17.8173 20.2199 18.1213 19.4751 18.1213H14.4627C13.259 19.651 12.447 20.401 11.7556 20.3911C10.9507 20.3798 10.548 19.617 10.2555 18.1213H4.49548C3.75087 18.1213 3.0742 17.8173 2.58422 17.3273C2.09419 16.8372 1.79004 16.1606 1.79004 15.4159V6.34609C1.79004 5.60155 2.09419 4.92486 2.58422 4.43483C3.07418 3.94482 3.75084 3.64062 4.49545 3.64062ZM7.53002 9.30978H7.64201C8.27377 9.30978 8.79042 9.82641 8.79042 10.4582V10.4583C8.79042 11.0901 8.27379 11.6069 7.64201 11.6069H7.53002C6.89827 11.6069 6.38161 11.0901 6.38161 10.4583V10.4582C6.38161 9.82644 6.89827 9.30978 7.53002 9.30978ZM16.2193 9.30978H16.3313C16.9631 9.30978 17.4797 9.82641 17.4797 10.4582V10.4583C17.4797 11.0901 16.9631 11.6069 16.3313 11.6069H16.2193C15.5876 11.6069 15.0709 11.0901 15.0709 10.4583V10.4582C15.0709 9.82644 15.5876 9.30978 16.2193 9.30978ZM11.8039 9.30978H11.9159C12.5476 9.30978 13.0642 9.82641 13.0642 10.4582V10.4583C13.0642 11.0901 12.5476 11.6069 11.9159 11.6069H11.8039C11.1721 11.6069 10.6554 11.0901 10.6554 10.4583V10.4582C10.6554 9.82644 11.1721 9.30978 11.8039 9.30978ZM19.4751 4.84545H4.49545C4.08352 4.84545 3.70819 5.01455 3.43608 5.28671C3.16388 5.55887 2.99482 5.9342 2.99482 6.34609V15.416C2.99482 15.828 3.16388 16.2032 3.43608 16.4754C3.70819 16.7476 4.08354 16.9166 4.49545 16.9166H11.2677L11.351 17.4224C11.5439 18.5938 11.6698 19.1897 11.7697 19.1911C12.0348 19.1949 12.6357 18.5217 13.6954 17.152L13.8774 16.9166H19.4751C19.8872 16.9166 20.2624 16.7476 20.5346 16.4754C20.8067 16.2032 20.9758 15.828 20.9758 15.416V6.34609C20.9758 5.9342 20.8067 5.55887 20.5346 5.28671C20.2624 5.01455 19.8872 4.84545 19.4751 4.84545Z" fill="currentcolor"/>
</svg>
