<svg width="24" height="25" viewBox="0 0 24 25" fill="none" xmlns="http://www.w3.org/2000/svg">
  <path d="M16.6646 15.5354L16.6634 15.5367L16.6752 15.5435C17.0567 15.7614 17.5344 15.5406 17.7434 15.1749C17.9611 14.7939 17.7411 14.3169 17.3763 14.1075C16.6809 13.644 15.9411 13.2689 15.1719 12.9895C16.7892 11.903 17.85 10.0465 17.85 7.95C17.85 4.62239 15.1777 1.95 11.85 1.95C8.52188 1.95 5.85004 4.67293 5.85004 8C5.85004 10.0787 6.89292 11.9018 8.48698 12.9774C4.67066 14.3374 1.95 17.9537 1.95 22.25C1.95 22.6777 2.32239 23.05 2.75 23.05C3.22978 23.05 3.55 22.6754 3.55 22.25C3.55 20.61 4.04702 18.9706 5.04018 17.6298L5.04022 17.6298L5.04152 17.6279C7.57517 13.8523 12.7413 12.8576 16.5181 15.4388C16.5478 15.4673 16.5775 15.4822 16.6013 15.4941L16.6026 15.4948C16.6276 15.5073 16.646 15.5167 16.6646 15.5354ZM7.45004 7.95C7.45004 5.52761 9.42765 3.55 11.85 3.55C14.2724 3.55 16.25 5.52761 16.25 7.95C16.25 10.3724 14.2724 12.35 11.85 12.35C9.42765 12.35 7.45004 10.3724 7.45004 7.95ZM16.25 23.05H21.25C21.6777 23.05 22.05 22.6776 22.05 22.25C22.05 21.8224 21.6777 21.45 21.25 21.45H16.25C15.8224 21.45 15.45 21.8224 15.45 22.25C15.45 22.6776 15.8224 23.05 16.25 23.05ZM16.25 20.65H21.25C21.6777 20.65 22.05 20.2776 22.05 19.85C22.05 19.4224 21.6777 19.05 21.25 19.05H16.25C15.8224 19.05 15.45 19.4224 15.45 19.85C15.45 20.2776 15.8224 20.65 16.25 20.65ZM16.25 18.25H21.25C21.6777 18.25 22.05 17.8776 22.05 17.45C22.05 17.0224 21.6777 16.65 21.25 16.65H16.25C15.8224 16.65 15.45 17.0224 15.45 17.45C15.45 17.8776 15.8224 18.25 16.25 18.25Z" fill="currentcolor" stroke="currentcolor" stroke-width="0.1"/>
</svg>


