<svg width="24" height="24" viewBox="0 0 24 24" fill="none" xmlns="http://www.w3.org/2000/svg">
  <path d="M21.4615 5.53538C21.4615 2.59077 16.4481 1 11.7308 1C7.04139 1 2.05923 2.57385 2 5.48462V18.5662C2.12015 21.4515 7.06846 23 11.7308 23C16.3931 23 21.3397 21.4515 21.4615 18.5662V5.53538ZM3.221 12.4569C4.83631 13.8446 7.95438 14.7415 11.7308 14.7415C15.5072 14.7415 18.6261 13.8446 20.2405 12.4569V14.7077C19.8327 16.1631 16.4515 17.6608 11.7308 17.6608C7.01008 17.6608 3.628 16.1631 3.221 14.7077V12.4569ZM20.2414 10.4938C19.8327 11.9492 16.4515 13.4469 11.7308 13.4469C7.01008 13.4469 3.62885 11.9492 3.221 10.4938V7.82846C4.99792 9.30077 8.435 10.0792 11.7308 10.0792C15.0265 10.0792 18.467 9.30077 20.2414 7.82846V10.4938ZM11.7308 2.29462C16.6452 2.29462 20.3167 4.00385 20.3167 5.53538C20.3167 7.06692 16.6452 8.78462 11.7308 8.78462C6.81631 8.78462 3.14485 7.06692 3.14485 5.53538C3.14485 4.00385 6.81715 2.29462 11.7308 2.29462ZM11.7308 21.7054C7.22838 21.7054 3.76846 20.2669 3.221 18.8454V16.6708C4.83631 18.0585 7.95438 18.9554 11.7308 18.9554C15.5072 18.9554 18.6261 18.0585 20.2405 16.6708V18.8454C19.6939 20.2669 16.234 21.7054 11.7308 21.7054Z" fill="currentcolor"/>
</svg>
