<svg width="20" height="20" viewBox="0 0 20 20" fill="none" xmlns="http://www.w3.org/2000/svg">
<path d="M1.25 6.467H3.75L7.925 2.797C8.10563 2.63831 8.32819 2.53508 8.56601 2.49969C8.80382 2.4643 9.0468 2.49825 9.26581 2.59746C9.48482 2.69668 9.67057 2.85695 9.80079 3.05906C9.93101 3.26118 10.0002 3.49656 10 3.737V16.262C10.0002 16.5006 9.9321 16.7344 9.80371 16.9355C9.67533 17.1367 9.49204 17.2969 9.2755 17.3973C9.05896 17.4976 8.81823 17.5338 8.58175 17.5017C8.34527 17.4696 8.12293 17.3704 7.941 17.216L3.75 13.661H1.25C0.918479 13.661 0.600537 13.5293 0.366117 13.2949C0.131696 13.0605 0 12.7425 0 12.411L0 7.717C0 7.38547 0.131696 7.06753 0.366117 6.83311C0.600537 6.59869 0.918479 6.467 1.25 6.467ZM1.875 11.787H3.75C4.194 11.787 4.625 11.945 4.963 12.231L8.125 14.912V5.12L4.987 7.875C4.64505 8.17571 4.20536 8.3417 3.75 8.342H1.875V11.787ZM13.791 15.189C13.6126 15.351 13.3787 15.4381 13.1378 15.4324C12.8969 15.4266 12.6675 15.3283 12.4971 15.1579C12.3267 14.9875 12.2284 14.7581 12.2226 14.5172C12.2169 14.2763 12.304 14.0424 12.466 13.864C12.9594 13.3707 13.3507 12.7851 13.6178 12.1405C13.8848 11.496 14.0222 10.8052 14.0222 10.1075C14.0222 9.40983 13.8848 8.719 13.6178 8.07445C13.3507 7.42991 12.9594 6.84427 12.466 6.351C12.2982 6.17364 12.2061 5.93784 12.2094 5.69369C12.2127 5.44954 12.311 5.21628 12.4835 5.0435C12.6561 4.87071 12.8892 4.77201 13.1333 4.76837C13.3775 4.76473 13.6134 4.85643 13.791 5.024C15.1389 6.37199 15.8961 8.20021 15.8961 10.1065C15.8961 12.0128 15.1389 13.841 13.791 15.189ZM16.444 17.839C16.2657 18.0011 16.0319 18.0885 15.791 18.0829C15.5501 18.0772 15.3206 17.9791 15.1501 17.8089C14.9796 17.6386 14.8811 17.4092 14.8751 17.1684C14.8692 16.9275 14.9561 16.6935 15.118 16.515C15.9595 15.6735 16.6271 14.6745 17.0825 13.575C17.538 12.4755 17.7724 11.2971 17.7724 10.107C17.7724 8.91691 17.538 7.73848 17.0825 6.63899C16.6271 5.5395 15.9595 4.54049 15.118 3.699C14.9511 3.52166 14.8597 3.28629 14.8633 3.04277C14.867 2.79924 14.9653 2.56669 15.1374 2.39441C15.3096 2.22213 15.5421 2.12365 15.7856 2.11984C16.0291 2.11602 16.2645 2.20718 16.442 2.374C18.4927 4.42503 19.6447 7.20663 19.6447 10.107C19.6447 13.0074 18.4927 15.789 16.442 17.84H16.444V17.839Z"  fill="currentColor"/>
</svg>
