<svg width="26" height="26" viewBox="0 0 26 26" fill="none" xmlns="http://www.w3.org/2000/svg">
  <path d="M17.4254 16.0055V13.0322C17.4254 12.527 17.0166 12.1182 16.5113 12.1182C16.0061 12.1182 15.5973 12.527 15.5973 13.0322V15.5992H3.4707V3.47266H15.5973V5.98125C15.5973 6.48652 16.0061 6.89531 16.5113 6.89531C17.0166 6.89531 17.4254 6.48652 17.4254 5.98125V3.06641C17.4254 2.28184 16.7881 1.64453 16.0035 1.64453H3.06445C2.27988 1.64453 1.64258 2.28184 1.64258 3.06641V16.0055C1.64258 16.79 2.27988 17.4273 3.06445 17.4273H16.0035C16.7881 17.4273 17.4254 16.79 17.4254 16.0055Z" fill="currentcolor"/>
  <path d="M22.9479 8.57812H10.0088C9.22422 8.57812 8.58691 9.21543 8.58691 10V12.9961C8.58691 13.5014 8.9957 13.9102 9.50098 13.9102C10.0063 13.9102 10.415 13.5014 10.415 12.9961V10.4062H22.5416V22.5328H10.415V19.9227C10.415 19.4174 10.0063 19.0086 9.50098 19.0086C8.9957 19.0086 8.58691 19.4174 8.58691 19.9227V22.9365C8.58691 23.7211 9.22422 24.3584 10.0088 24.3584H22.9479C23.7324 24.3584 24.3697 23.7211 24.3697 22.9365V10C24.3697 9.21543 23.7324 8.57812 22.9479 8.57812Z" fill="currentcolor"/>
</svg>

