<svg width="17" height="15" viewBox="0 0 17 15" fill="none" xmlns="http://www.w3.org/2000/svg">
<path d="M12.6706 11.6426L1.02533 0L0.0318756 0.993458L3.08928 4.05086C1.82169 4.9556 0.784672 6.09941 0.0270944 7.42331L0 7.47484C1.76113 10.5747 4.90885 12.6414 8.50017 12.6414H8.50336C9.48619 12.6414 10.4324 12.4857 11.3196 12.1983L11.2553 12.2163L13.9727 14.9337L14.9662 13.9403L12.6711 11.6452L12.6706 11.6426ZM8.51611 11.1591C6.48245 11.1559 4.83447 9.50638 4.83447 7.47218C4.83447 6.96749 4.93595 6.48616 5.11976 6.04787L5.11073 6.07231L6.34857 7.30749C6.34857 7.36327 6.34857 7.41906 6.34857 7.47484C6.34857 8.67761 7.32396 9.65301 8.52674 9.65301H8.69408L9.92927 10.8882C9.51913 11.0598 9.04312 11.1591 8.54321 11.1591C8.53364 11.1591 8.52408 11.1591 8.51452 11.1591H8.51611Z" fill="#B1BAD3"/>
<path d="M8.51577 3.7904C10.5505 3.7904 12.2006 5.43996 12.2006 7.47469C12.2006 7.98948 12.0949 8.47983 11.9041 8.92503L11.9132 8.90112L13.9134 10.9013C15.1788 9.99446 16.2148 8.85012 16.9729 7.52622L17 7.47469C15.2389 4.37478 12.0912 2.30818 8.49983 2.30818C7.51593 2.30977 6.56816 2.4649 5.67989 2.75125L5.74524 2.73319L7.09199 4.07728C7.51221 3.89612 8.0015 3.7904 8.51577 3.7904Z" fill="#B1BAD3"/>
<path d="M8.31962 5.30714L10.6837 7.67126C10.6837 7.60485 10.6837 7.5411 10.6837 7.47469C10.6837 6.27191 9.70834 5.29652 8.50556 5.29652C8.44978 5.29652 8.38603 5.30183 8.31962 5.30714Z" fill="#B1BAD3"/>
</svg>
