<svg width="16" height="20" viewBox="0 0 16 20" fill="none" xmlns="http://www.w3.org/2000/svg">
<path d="M9.91844 14.0816H8.08165V12.9592H11.1224C11.1608 13.1404 11.1813 13.325 11.1837 13.5102C11.1837 14.1088 11.0544 14.6463 10.7958 15.1224C10.5236 15.6258 10.1563 16.0068 9.69371 16.2654C9.21753 16.5375 8.68011 16.6736 8.08146 16.6736C7.67333 16.6736 7.25858 16.5852 6.83723 16.4083C6.46992 16.2586 6.12296 16.0273 5.79635 15.7144C5.51122 15.4293 5.28674 15.0823 5.12292 14.6735C4.946 14.2518 4.85755 13.837 4.85755 13.4293C4.85755 13.0216 4.946 12.5998 5.12292 12.1641C5.28415 11.7862 5.51229 11.4405 5.79635 11.1436C6.09382 10.8455 6.44766 10.6097 6.83723 10.4498C7.23166 10.2865 7.65459 10.2033 8.08146 10.2048C8.89798 10.2048 9.61905 10.4835 10.2447 11.0408L9.36729 11.8979C8.99998 11.5578 8.57144 11.3878 8.08165 11.3878C7.74156 11.3878 7.40821 11.4763 7.0816 11.6532C6.76873 11.8573 6.53064 12.109 6.36734 12.4083C6.18037 12.7159 6.08149 13.0689 6.08149 13.4289C6.08149 13.7889 6.18037 14.142 6.36734 14.4496C6.53064 14.7488 6.76873 15.0005 7.0816 15.2047C7.38169 15.3915 7.72815 15.4905 8.08165 15.4904C8.3119 15.4931 8.54053 15.4515 8.75509 15.368C8.89118 15.3408 9.05442 15.2591 9.24481 15.123C9.39451 15.0141 9.51018 14.8985 9.59184 14.776C9.7007 14.6399 9.77555 14.5174 9.81638 14.4086C9.88442 14.2178 9.91844 14.1088 9.91844 14.0816ZM13.7551 17.9387H2.24486C2.14811 17.9405 2.05201 17.9224 1.9625 17.8856C1.87299 17.8488 1.79197 17.7941 1.72442 17.7248C1.58186 17.5822 1.50364 17.402 1.48977 17.184V9.63266C1.48838 9.53498 1.50767 9.43812 1.54637 9.34842C1.58507 9.25873 1.6423 9.17823 1.71431 9.11222C1.78423 9.04328 1.86711 8.98889 1.95818 8.95218C2.04924 8.91547 2.14668 8.89719 2.24486 8.89837H13.7551C13.8533 8.89719 13.9508 8.91547 14.0418 8.95218C14.1329 8.98889 14.2158 9.04328 14.2857 9.11222C14.3577 9.17823 14.4149 9.25873 14.4536 9.34842C14.4923 9.43812 14.5116 9.53498 14.5102 9.63266V17.1838C14.5102 17.4015 14.4354 17.5818 14.2857 17.7246C14.2158 17.7936 14.1329 17.8481 14.0419 17.8849C13.9508 17.9216 13.8533 17.94 13.7551 17.9389V17.9387ZM8 1.48977C8.6667 1.48977 9.27896 1.65301 9.83679 1.97949C10.3905 2.30192 10.8511 2.76252 11.1736 3.31626C11.5069 3.88083 11.6736 4.49646 11.6736 5.16316V7.38761H4.32661V5.16335H4.30717C4.30717 4.49665 4.47384 3.88102 4.80719 3.31645C5.13152 2.76074 5.59593 2.29981 6.15407 1.97968C6.71799 1.65307 7.3333 1.48977 8 1.48977ZM13.7551 7.38761H13.204V5.16335C13.204 4.22461 12.9693 3.36065 12.4998 2.57147C12.0402 1.79198 11.3862 1.14504 10.6018 0.693852C9.80601 0.231284 8.93874 0 8 0C7.06126 0 6.19392 0.231284 5.39801 0.693852C4.61338 1.14496 3.9592 1.7919 3.49939 2.57147C3.02996 3.36065 2.79524 4.22461 2.79524 5.16335V7.38761H2.24486C1.61899 7.38761 1.08838 7.60872 0.653025 8.05093C0.217675 8.49315 0 9.0204 0 9.63266V17.1838C0 17.8096 0.217675 18.3402 0.653025 18.7756C1.08838 19.2109 1.61899 19.4286 2.24486 19.4286H13.7551C14.381 19.4286 14.9116 19.2109 15.347 18.7756C15.7823 18.3402 16 17.8096 16 17.1838V9.63266C16 9.0204 15.7823 8.49315 15.347 8.05093C14.9116 7.60872 14.381 7.38761 13.7551 7.38761Z" fill="#B1BAD3"/>
</svg>
