<svg width="24" height="24" viewBox="0 0 24 24" fill="none" xmlns="http://www.w3.org/2000/svg">
<path d="M6.5 6H5.81222C4.90701 6 4.11466 6.60799 3.88037 7.48236L2 14.5V20C2 21.1046 2.89543 22 4 22H12.2776" stroke="currentColor" stroke-width="0.8"/>
<path d="M17.5 6H18.4654C19.3706 6 20.1629 6.60799 20.3972 7.48236L22.2776 14.5V20C22.2776 21.1046 21.3822 22 20.2776 22H12" stroke="currentColor" stroke-width="0.8"/>
<path d="M2 15H8.29507C8.77629 15 9.19446 15.3534 9.46454 15.7516C9.8492 16.3189 10.6452 17 12.25 17C13.8548 17 14.6508 16.3189 15.0355 15.7516C15.3055 15.3534 15.7237 15 16.2049 15H22.5" stroke="currentColor" stroke-width="0.8"/>
<circle cx="12" cy="8" r="5.6" stroke="currentColor" stroke-width="0.8"/>
<circle cx="11.4545" cy="6.90906" r="3.41818" stroke="currentColor" stroke-width="0.8"/>
<path d="M11.0832 4.9378C11.1224 4.85413 11.2414 4.85413 11.2807 4.9378L11.7006 5.83287C11.7165 5.86676 11.7487 5.89013 11.7858 5.89478L12.7668 6.01757C12.8586 6.02905 12.8953 6.14223 12.8279 6.20542L12.1064 6.88139C12.0791 6.90699 12.0668 6.9448 12.0738 6.98157L12.2602 7.95252C12.2776 8.04329 12.1814 8.11324 12.1004 8.06862L11.2346 7.59133C11.2018 7.57325 11.162 7.57325 11.1293 7.59133L10.2634 8.06862C10.1825 8.11324 10.0862 8.04329 10.1036 7.95252L10.29 6.98157C10.297 6.9448 10.2848 6.90699 10.2574 6.88139L9.53595 6.20542C9.4685 6.14223 9.50528 6.02905 9.59699 6.01757L10.578 5.89478C10.6152 5.89013 10.6473 5.86676 10.6632 5.83287L11.0832 4.9378Z" fill="currentColor"/>
</svg>
