<svg width="24" height="24" viewBox="0 0 24 24" fill="none" xmlns="http://www.w3.org/2000/svg">
  <path d="M3.70033 3.70711C5.81722 1.59371 8.7513 0.265625 11.9942 0.265625C15.2113 0.265625 18.1194 1.5706 20.2477 3.6609L20.2852 3.70708C22.4194 5.82046 23.7334 8.75947 23.7334 12.0105C23.7334 15.2498 22.4194 18.189 20.2852 20.2849C18.1569 22.4214 15.2344 23.7323 11.9942 23.7323C8.77721 23.7323 5.86627 22.4389 3.74082 20.3542L3.70033 20.2849C1.57485 18.189 0.266731 15.2498 0.266731 12.0105C0.266731 8.75953 1.57487 5.82049 3.70033 3.70711ZM5.95 4.12286C5.60936 4.38261 5.27718 4.67721 4.97099 4.98315C4.66213 5.28929 4.38774 5.61833 4.11924 5.95909L4.97099 6.81934C5.02876 6.87709 5.1096 6.9002 5.19351 6.9002C5.27721 6.9002 5.35523 6.87709 5.43021 6.81934L6.80198 5.4394C6.8654 5.37579 6.89157 5.28926 6.89157 5.20257C6.89157 5.13326 6.86543 5.03522 6.80198 4.97747L5.95 4.12286ZM13.2938 2.1596C12.8721 2.10185 12.4303 2.07288 11.9942 2.07288C11.5583 2.07288 11.1222 2.10185 10.6919 2.1596V3.36064C10.6919 3.45304 10.7294 3.528 10.79 3.59161V3.59729C10.8478 3.64936 10.9286 3.684 11.0182 3.684H12.9676C13.0569 3.684 13.1465 3.64936 13.1986 3.59729V3.59161C13.2476 3.528 13.2938 3.45304 13.2938 3.36064V2.1596ZM19.0233 4.98312L18.9771 4.94848C18.6824 4.65411 18.3677 4.37104 18.0299 4.12286L17.1894 4.97747C17.1201 5.03522 17.0942 5.13326 17.0942 5.20257C17.0942 5.28929 17.1201 5.37579 17.1894 5.4394L18.5612 6.81934C18.619 6.87709 18.7085 6.9002 18.7865 6.9002C18.8818 6.9002 18.9655 6.87709 19.0232 6.81934L19.8752 5.95909C19.6124 5.6183 19.3236 5.28926 19.0233 4.98312ZM21.9255 12.0105C21.9255 11.5601 21.888 11.1269 21.8361 10.6997H20.6317V10.7055C20.548 10.7055 20.4644 10.7343 20.4066 10.8036C20.3488 10.8498 20.3114 10.9481 20.3114 11.0289V12.9806C20.3114 13.0615 20.3488 13.1423 20.4066 13.2C20.4644 13.2634 20.548 13.2981 20.6317 13.2981H21.8361C21.888 12.8767 21.9255 12.432 21.9255 12.0105ZM18.0299 19.8923C18.388 19.6152 18.7086 19.3323 19.0233 19.0262C19.3236 18.7202 19.6124 18.3853 19.8752 18.0445L19.0233 17.1958C18.9655 17.1322 18.8818 17.0975 18.7866 17.0975C18.7086 17.0975 18.619 17.1322 18.5612 17.1958L17.1895 18.5642C17.1201 18.6335 17.0826 18.7202 17.0826 18.801H17.0942C17.0942 18.8876 17.1202 18.9684 17.1838 19.0262L18.0299 19.8923ZM10.6919 21.8499C11.1222 21.9018 11.5437 21.9248 11.9942 21.9248C12.4303 21.9248 12.8721 21.9018 13.2938 21.8499V20.6489C13.2938 20.5506 13.2476 20.4698 13.1986 20.412C13.1465 20.3543 13.0569 20.3139 12.9676 20.3139H11.0182C10.9286 20.3139 10.8478 20.3543 10.79 20.412C10.7294 20.4698 10.6919 20.5506 10.6919 20.6489V21.8499ZM4.97099 19.0262L5.01439 19.0552C5.30904 19.3496 5.62376 19.6267 5.95002 19.8923L6.80201 19.0262C6.86543 18.9684 6.8916 18.8761 6.8916 18.8011C6.8916 18.7203 6.86545 18.6336 6.80201 18.5642L5.43024 17.1959C5.35526 17.1323 5.27724 17.0976 5.19354 17.0976C5.10963 17.0976 5.02878 17.1322 4.97102 17.1959L4.11047 18.0446C4.379 18.3853 4.66211 18.7203 4.97099 19.0262ZM3.49543 17.1322L4.20006 16.4221C4.47142 16.1506 4.8354 16.0236 5.19349 16.0236C5.54568 16.0236 5.92406 16.1621 6.18688 16.4221L7.57001 17.7964C7.84157 18.0792 7.98301 18.4316 7.98301 18.8011C7.98301 19.1532 7.8416 19.5055 7.57001 19.7943L7.55844 19.7884V19.7943L6.85969 20.5044C7.70008 21.0125 8.6242 21.4052 9.61459 21.642V20.6489H9.60891C9.60891 20.2503 9.77631 19.8982 10.0189 19.6383C10.276 19.3901 10.6341 19.24 11.0182 19.24H12.9675C13.3515 19.24 13.7096 19.3901 13.9609 19.6383L13.9666 19.6498C14.215 19.8982 14.3767 20.2504 14.3767 20.6489V21.6478C15.3499 21.4052 16.2856 21.0125 17.1316 20.5044L16.4213 19.7943V19.7884C16.1469 19.5055 16.0055 19.1532 16.0055 18.8011C16.0055 18.4316 16.1469 18.0792 16.4213 17.7964L17.7988 16.4221C18.0732 16.1506 18.4254 16.0236 18.7865 16.0236C19.1503 16.0236 19.5027 16.1506 19.7856 16.4221L20.4903 17.1322C21.01 16.2892 21.4 15.3537 21.6425 14.3837H20.6317V14.3895C20.2477 14.3895 19.9011 14.222 19.6442 13.9622C19.3754 13.7139 19.2224 13.3558 19.2224 12.9806V11.0289C19.2224 10.6419 19.3754 10.2782 19.6442 10.0357C19.9011 9.77576 20.2477 9.61994 20.6317 9.61994H21.6425C21.4 8.6383 21.01 7.72008 20.4903 6.86553L19.7913 7.57586L19.7856 7.59307C19.5027 7.85868 19.1503 7.98572 18.7865 7.98572V7.97415C18.4254 7.97415 18.0673 7.85866 17.7988 7.59305L16.4213 6.20722C16.1469 5.92439 16.0055 5.56636 16.0055 5.20249C16.0055 4.84449 16.1469 4.49235 16.4213 4.21517L17.1316 3.49328C16.2856 2.99102 15.3643 2.59249 14.3767 2.36152V3.36057C14.3767 3.75321 14.215 4.10535 13.9666 4.3594C13.7096 4.60782 13.3515 4.76947 12.9675 4.76947H11.0182C10.6485 4.76947 10.302 4.61933 10.045 4.37683V4.37094L10.0189 4.35937C9.77628 4.09965 9.61456 3.7473 9.61456 3.36054V2.36149C8.62418 2.59246 7.70008 2.991 6.86535 3.49325L7.56998 4.21515C7.84155 4.49232 7.98298 4.84446 7.98298 5.20247C7.98298 5.56633 7.84157 5.92434 7.56998 6.20719L6.18686 7.59302C5.91812 7.85863 5.54566 7.98567 5.19346 7.98567C4.83534 7.98567 4.47139 7.85863 4.20004 7.59302L3.4954 6.86547C2.9841 7.72006 2.6001 8.63827 2.35468 9.61989H3.35679C3.72642 9.61989 4.07865 9.77568 4.32993 10.0241L4.35587 10.0356C4.59846 10.2782 4.76604 10.6419 4.76604 11.0288V12.9805C4.76604 13.3501 4.61285 13.7022 4.36741 13.9506L4.35584 13.9622C4.09302 14.2219 3.74076 14.3836 3.35676 14.3836H2.35465C2.60012 15.3538 2.98412 16.2892 3.49543 17.1322ZM3.35682 13.2981C3.44334 13.2981 3.52136 13.2635 3.5848 13.2C3.64259 13.1423 3.67722 13.0615 3.67722 12.9806V11.0289C3.67722 10.948 3.64257 10.8498 3.5848 10.8036C3.52139 10.7343 3.44337 10.6997 3.35682 10.6997H2.14959C2.09468 11.1269 2.06872 11.5601 2.06872 12.0105C2.06872 12.432 2.09466 12.8767 2.14959 13.2981H3.35682ZM7.95712 7.95699C8.988 6.93484 10.4232 6.28244 11.9942 6.28244C13.5567 6.28244 14.9659 6.91174 16.0056 7.928L16.043 7.95699C17.0683 8.9905 17.7093 10.4225 17.7093 12.0105C17.7093 13.5868 17.0683 15.0073 16.043 16.0467H16.0287C15.0063 17.086 13.5682 17.7271 11.9942 17.7271C10.4291 17.7271 9.01985 17.0976 7.98303 16.0698L7.95123 16.0467C6.91748 15.0073 6.2793 13.5868 6.2793 12.0105C6.2793 10.4225 6.91748 8.99047 7.95123 7.95699H7.95712ZM8.7195 15.2788L8.73669 15.3019C9.57141 16.1219 10.7294 16.6357 11.9942 16.6357C13.2735 16.6357 14.4287 16.116 15.275 15.2788C16.1123 14.4299 16.6206 13.2866 16.6206 12.0106C16.6206 10.7228 16.1123 9.57949 15.275 8.72488L15.2344 8.69613C14.4143 7.88773 13.262 7.36216 11.9941 7.36216C10.7178 7.36216 9.55986 7.8877 8.71947 8.72488C7.87902 9.57949 7.35357 10.7228 7.35357 12.0106C7.35362 13.2865 7.87905 14.4299 8.7195 15.2788Z" fill="currentcolor"/>
</svg>

