<svg width="24" height="25" viewBox="0 0 24 25" fill="none" xmlns="http://www.w3.org/2000/svg">
  <path d="M18.8796 3.5415H5.12039C4.36359 3.5415 3.75 4.1551 3.75 4.91166V20.9141C3.75 21.6709 4.36359 22.2842 5.12039 22.2842H18.8798C19.6366 22.2842 20.2502 21.6709 20.2502 20.9141V4.91166C20.25 4.15486 19.6364 3.5415 18.8796 3.5415ZM19.2832 20.9141C19.2832 21.1365 19.1023 21.3174 18.8796 21.3174H5.12039C4.89797 21.3174 4.7168 21.1365 4.7168 20.9141V8.19174H19.2832V20.9141ZM19.2834 6.36455H4.71703V4.91166C4.7168 4.68924 4.89773 4.5083 5.12039 4.5083H18.8798C19.1023 4.5083 19.2834 4.68924 19.2834 4.91166V6.36455Z" fill="currentcolor"/>
  <path d="M11.6251 16.8303H18.422V18.2365H11.6251V16.8303ZM8.30049 14.5889L9.60385 10.8816H8.75986L7.83572 13.7234H7.80385L6.91158 10.8816H6.01416L7.29103 14.5889H8.30049ZM10.0848 10.8816H10.8967V14.5887H10.0848V10.8816ZM12.5312 13.4456H12.9852C13.2451 13.4456 13.4678 13.4234 13.6529 13.3788C13.8381 13.3343 13.9895 13.2605 14.1069 13.1571C14.2243 13.0538 14.3099 12.9195 14.3633 12.7538C14.4167 12.5881 14.4435 12.3844 14.4435 12.1421C14.4435 11.9178 14.4193 11.7263 14.3713 11.5678C14.3232 11.4094 14.2431 11.2793 14.1308 11.1778C14.0185 11.0763 13.869 11.0016 13.682 10.9535C13.4949 10.9055 13.2627 10.8813 12.9849 10.8813H11.7188V14.5885H12.5307V13.4456H12.5312ZM12.5312 11.5226H12.8783C13.0135 11.5226 13.1284 11.5334 13.2228 11.5547C13.3171 11.576 13.3937 11.6117 13.4525 11.6616C13.5113 11.7115 13.5531 11.7774 13.5781 11.8592C13.603 11.9412 13.6156 12.0408 13.6156 12.1582C13.6156 12.2829 13.6032 12.3853 13.5781 12.4655C13.5533 12.5456 13.5113 12.6106 13.4525 12.6605C13.3937 12.7104 13.318 12.7451 13.2254 12.7646C13.1328 12.7842 13.017 12.7938 12.8783 12.7938H12.5312V11.5226Z" fill="currentcolor"/>
</svg>

