<svg width="24" height="24" viewBox="0 0 24 24" fill="none" xmlns="http://www.w3.org/2000/svg">
  <g clip-path="url(#clip0_5470_4061)">
    <path d="M18.011 3.5C18.3433 3.50003 18.671 3.57865 18.9671 3.72946C19.2633 3.88027 19.5196 4.09898 19.7151 4.36774L23.5968 9.70486C23.8815 10.0962 24.0228 10.5736 23.997 11.0569C23.9712 11.5401 23.7799 11.9998 23.4553 12.3587L13.5627 23.2918C13.3651 23.5102 13.1239 23.6847 12.8548 23.8041C12.5856 23.9235 12.2945 23.9852 12 23.9852C11.7055 23.9852 11.4144 23.9235 11.1452 23.8041C10.8761 23.6847 10.6349 23.5102 10.4373 23.2918L0.544731 12.3587C0.220051 11.9998 0.0287609 11.5401 0.00299164 11.0569C-0.0227776 10.5736 0.118544 10.0962 0.403218 9.70486L4.28487 4.36774C4.48039 4.09898 4.7367 3.88027 5.03287 3.72946C5.32904 3.57865 5.65668 3.50003 5.98904 3.5H18.011ZM18.011 5.30654H5.98904C5.94158 5.30658 5.89481 5.31784 5.85253 5.3394C5.81025 5.36095 5.77366 5.3922 5.74576 5.43059L1.86411 10.7677C1.82341 10.8237 1.80322 10.8919 1.80695 10.961C1.81068 11.0301 1.8381 11.0958 1.88458 11.1471L11.7772 22.0791C11.8054 22.1103 11.8399 22.1353 11.8784 22.1524C11.9169 22.1695 11.9585 22.1783 12.0006 22.1783C12.0427 22.1783 12.0843 22.1695 12.1228 22.1524C12.1613 22.1353 12.1958 22.1103 12.224 22.0791L22.116 11.1459C22.1625 11.0946 22.1899 11.0289 22.1936 10.9598C22.1974 10.8907 22.1772 10.8225 22.1365 10.7665L18.2548 5.42999C18.2269 5.3916 18.1904 5.36035 18.1481 5.33879C18.1058 5.31724 18.059 5.30598 18.0116 5.30594L18.011 5.30654ZM16.2074 10.4504C16.3691 10.2765 16.5928 10.1733 16.83 10.1631C17.0672 10.1529 17.2989 10.2365 17.475 10.3959C17.651 10.5552 17.7572 10.7774 17.7707 11.0145C17.7841 11.2516 17.7036 11.4844 17.5467 11.6625L12.6696 17.0527C12.5849 17.1462 12.4816 17.221 12.3663 17.2721C12.2509 17.3233 12.1262 17.3497 12 17.3497C11.8738 17.3497 11.7491 17.3233 11.6337 17.2721C11.5184 17.221 11.4151 17.1462 11.3304 17.0527L6.46958 11.6806C6.31264 11.5024 6.23218 11.2696 6.2456 11.0326C6.25901 10.7955 6.36523 10.5733 6.54127 10.4139C6.71731 10.2546 6.94901 10.171 7.18623 10.1812C7.42345 10.1914 7.64712 10.2946 7.80883 10.4684L12 15.1004L16.2074 10.4504Z" fill="currentcolor"/>
  </g>
  <defs>
    <clipPath id="clip0_5470_4061">
      <rect width="24" height="24" fill="white"/>
    </clipPath>
  </defs>
</svg>










