<svg width="22" height="22" viewBox="0 0 22 22" fill="none" xmlns="http://www.w3.org/2000/svg">
  <mask id="path-1-inside-1_5470_13195" fill="white">
    <path d="M16.7368 3.55001V4.28558C16.7368 4.48745 16.6566 4.68106 16.5139 4.8238C16.3711 4.96654 16.1775 5.04673 15.9756 5.04673C15.7738 5.04673 15.5802 4.96654 15.4374 4.8238C15.2947 4.68106 15.2145 4.48745 15.2145 4.28558V3.55001H6.78399V4.28558C6.78399 4.48745 6.70379 4.68106 6.56105 4.8238C6.41831 4.96654 6.2247 5.04673 6.02283 5.04673C5.82096 5.04673 5.62736 4.96654 5.48462 4.8238C5.34188 4.68106 5.26168 4.48745 5.26168 4.28558V3.55001H1.82311C1.70327 3.55001 1.58832 3.59749 1.50341 3.68205C1.4185 3.76662 1.37055 3.88138 1.37007 4.00122V6.90821H20.6899V4.00122C20.6899 3.94194 20.6782 3.88324 20.6555 3.82848C20.6328 3.77371 20.5996 3.72396 20.5576 3.68206C20.5157 3.64015 20.4659 3.60692 20.4112 3.58427C20.3564 3.56161 20.2977 3.54997 20.2384 3.55001H16.7371H16.7368ZM16.7368 2.24083H20.3294C21.4167 2.24083 22 2.82204 22 3.91049V19.5598C22 20.6485 21.4167 21.2294 20.3294 21.2294H1.67088C0.582128 21.2294 0 20.6485 0 19.5598V3.91049C0 2.82083 0.58091 2.24113 1.67088 2.24113H5.26351V0.761151C5.26351 0.559281 5.3437 0.365679 5.48645 0.222936C5.62919 0.0801925 5.82279 0 6.02466 0C6.22653 0 6.42013 0.0801925 6.56288 0.222936C6.70562 0.365679 6.78581 0.559281 6.78581 0.761151V2.2387H15.2154V0.761151C15.2154 0.559281 15.2956 0.365679 15.4383 0.222936C15.5811 0.0801925 15.7747 0 15.9766 0C16.1784 0 16.372 0.0801925 16.5148 0.222936C16.6575 0.365679 16.7377 0.559281 16.7377 0.761151V2.2387L16.7368 2.24083ZM1.30918 8.43081V19.469C1.30942 19.5889 1.35724 19.7038 1.44212 19.7885C1.52701 19.8731 1.64203 19.9206 1.76191 19.9205H20.2375C20.3571 19.9203 20.4718 19.8726 20.5564 19.788C20.6409 19.7034 20.6885 19.5887 20.6887 19.469V8.43081H1.30918ZM7.54818 14.3243L8.76267 15.0976C9.04972 15.2799 9.28608 15.5318 9.44984 15.8299C9.61361 16.1279 9.69948 16.4625 9.6995 16.8026V17.9023H3.33201V16.8035C3.33244 16.4629 3.41873 16.1279 3.5829 15.8296C3.74707 15.5312 3.98383 15.279 4.27127 15.0964L5.48455 14.3255C5.0443 13.7793 4.7575 12.9749 4.7575 12.3915C4.7573 12.1605 4.80262 11.9318 4.89087 11.7183C4.97912 11.5048 5.10858 11.3108 5.27183 11.1474C5.43509 10.984 5.62895 10.8543 5.84234 10.7658C6.05572 10.6774 6.28445 10.6318 6.51545 10.6318C6.74653 10.6317 6.97536 10.6771 7.18885 10.7656C7.40234 10.854 7.59631 10.9836 7.75966 11.1471C7.92301 11.3105 8.05255 11.5045 8.14086 11.7181C8.22917 11.9316 8.27452 12.1605 8.27432 12.3915C8.27432 12.9752 7.98752 13.7796 7.54848 14.3258L7.54818 14.3243ZM18.3169 13.2136H11.8097C11.6076 13.2135 11.4138 13.1332 11.2709 12.9903C11.128 12.8474 11.0478 12.6536 11.0478 12.4515C11.0478 12.2494 11.128 12.0556 11.2709 11.9127C11.4138 11.7698 11.6076 11.6895 11.8097 11.6895H18.3157C18.4157 11.6895 18.5147 11.7091 18.607 11.7474C18.6994 11.7856 18.7833 11.8417 18.8539 11.9124C18.9246 11.9831 18.9807 12.067 19.0189 12.1593C19.0572 12.2517 19.0769 12.3506 19.0769 12.4506C19.0769 12.5506 19.0572 12.6495 19.0189 12.7419C18.9807 12.8342 18.9246 12.9181 18.8539 12.9888C18.7833 13.0595 18.6994 13.1156 18.607 13.1538C18.5147 13.1921 18.4157 13.2118 18.3157 13.2118L18.3169 13.2136ZM18.3169 16.8473H13.8201C13.6182 16.8473 13.4246 16.7671 13.2818 16.6244C13.1391 16.4816 13.0589 16.288 13.0589 16.0862C13.0589 15.8843 13.1391 15.6907 13.2818 15.5479C13.4246 15.4052 13.6182 15.325 13.8201 15.325H18.3169C18.5188 15.325 18.7124 15.4052 18.8552 15.5479C18.9979 15.6907 19.0781 15.8843 19.0781 16.0862C19.0781 16.288 18.9979 16.4816 18.8552 16.6244C18.7124 16.7671 18.5188 16.8473 18.3169 16.8473Z"/>
  </mask>
  <path d="M16.7368 3.55001V4.28558C16.7368 4.48745 16.6566 4.68106 16.5139 4.8238C16.3711 4.96654 16.1775 5.04673 15.9756 5.04673C15.7738 5.04673 15.5802 4.96654 15.4374 4.8238C15.2947 4.68106 15.2145 4.48745 15.2145 4.28558V3.55001H6.78399V4.28558C6.78399 4.48745 6.70379 4.68106 6.56105 4.8238C6.41831 4.96654 6.2247 5.04673 6.02283 5.04673C5.82096 5.04673 5.62736 4.96654 5.48462 4.8238C5.34188 4.68106 5.26168 4.48745 5.26168 4.28558V3.55001H1.82311C1.70327 3.55001 1.58832 3.59749 1.50341 3.68205C1.4185 3.76662 1.37055 3.88138 1.37007 4.00122V6.90821H20.6899V4.00122C20.6899 3.94194 20.6782 3.88324 20.6555 3.82848C20.6328 3.77371 20.5996 3.72396 20.5576 3.68206C20.5157 3.64015 20.4659 3.60692 20.4112 3.58427C20.3564 3.56161 20.2977 3.54997 20.2384 3.55001H16.7371H16.7368ZM16.7368 2.24083H20.3294C21.4167 2.24083 22 2.82204 22 3.91049V19.5598C22 20.6485 21.4167 21.2294 20.3294 21.2294H1.67088C0.582128 21.2294 0 20.6485 0 19.5598V3.91049C0 2.82083 0.58091 2.24113 1.67088 2.24113H5.26351V0.761151C5.26351 0.559281 5.3437 0.365679 5.48645 0.222936C5.62919 0.0801925 5.82279 0 6.02466 0C6.22653 0 6.42013 0.0801925 6.56288 0.222936C6.70562 0.365679 6.78581 0.559281 6.78581 0.761151V2.2387H15.2154V0.761151C15.2154 0.559281 15.2956 0.365679 15.4383 0.222936C15.5811 0.0801925 15.7747 0 15.9766 0C16.1784 0 16.372 0.0801925 16.5148 0.222936C16.6575 0.365679 16.7377 0.559281 16.7377 0.761151V2.2387L16.7368 2.24083ZM1.30918 8.43081V19.469C1.30942 19.5889 1.35724 19.7038 1.44212 19.7885C1.52701 19.8731 1.64203 19.9206 1.76191 19.9205H20.2375C20.3571 19.9203 20.4718 19.8726 20.5564 19.788C20.6409 19.7034 20.6885 19.5887 20.6887 19.469V8.43081H1.30918ZM7.54818 14.3243L8.76267 15.0976C9.04972 15.2799 9.28608 15.5318 9.44984 15.8299C9.61361 16.1279 9.69948 16.4625 9.6995 16.8026V17.9023H3.33201V16.8035C3.33244 16.4629 3.41873 16.1279 3.5829 15.8296C3.74707 15.5312 3.98383 15.279 4.27127 15.0964L5.48455 14.3255C5.0443 13.7793 4.7575 12.9749 4.7575 12.3915C4.7573 12.1605 4.80262 11.9318 4.89087 11.7183C4.97912 11.5048 5.10858 11.3108 5.27183 11.1474C5.43509 10.984 5.62895 10.8543 5.84234 10.7658C6.05572 10.6774 6.28445 10.6318 6.51545 10.6318C6.74653 10.6317 6.97536 10.6771 7.18885 10.7656C7.40234 10.854 7.59631 10.9836 7.75966 11.1471C7.92301 11.3105 8.05255 11.5045 8.14086 11.7181C8.22917 11.9316 8.27452 12.1605 8.27432 12.3915C8.27432 12.9752 7.98752 13.7796 7.54848 14.3258L7.54818 14.3243ZM18.3169 13.2136H11.8097C11.6076 13.2135 11.4138 13.1332 11.2709 12.9903C11.128 12.8474 11.0478 12.6536 11.0478 12.4515C11.0478 12.2494 11.128 12.0556 11.2709 11.9127C11.4138 11.7698 11.6076 11.6895 11.8097 11.6895H18.3157C18.4157 11.6895 18.5147 11.7091 18.607 11.7474C18.6994 11.7856 18.7833 11.8417 18.8539 11.9124C18.9246 11.9831 18.9807 12.067 19.0189 12.1593C19.0572 12.2517 19.0769 12.3506 19.0769 12.4506C19.0769 12.5506 19.0572 12.6495 19.0189 12.7419C18.9807 12.8342 18.9246 12.9181 18.8539 12.9888C18.7833 13.0595 18.6994 13.1156 18.607 13.1538C18.5147 13.1921 18.4157 13.2118 18.3157 13.2118L18.3169 13.2136ZM18.3169 16.8473H13.8201C13.6182 16.8473 13.4246 16.7671 13.2818 16.6244C13.1391 16.4816 13.0589 16.288 13.0589 16.0862C13.0589 15.8843 13.1391 15.6907 13.2818 15.5479C13.4246 15.4052 13.6182 15.325 13.8201 15.325H18.3169C18.5188 15.325 18.7124 15.4052 18.8552 15.5479C18.9979 15.6907 19.0781 15.8843 19.0781 16.0862C19.0781 16.288 18.9979 16.4816 18.8552 16.6244C18.7124 16.7671 18.5188 16.8473 18.3169 16.8473Z" fill="currentcolor" stroke="currentcolor" stroke-width="0.4" mask="url(#path-1-inside-1_5470_13195)"/>
</svg>


