<svg width="24" height="24" viewBox="0 0 24 24" fill="none" xmlns="http://www.w3.org/2000/svg">
<path d="M5.25 9H18.75C18.9489 9 19.1397 8.92098 19.2803 8.78033C19.421 8.63968 19.5 8.44891 19.5 8.25C19.5 8.05109 19.421 7.86032 19.2803 7.71967C19.1397 7.57902 18.9489 7.5 18.75 7.5H5.25C5.05109 7.5 4.86032 7.57902 4.71967 7.71967C4.57902 7.86032 4.5 8.05109 4.5 8.25C4.5 8.44891 4.57902 8.63968 4.71967 8.78033C4.86032 8.92098 5.05109 9 5.25 9Z" fill="#B1BAD3"/>
<path d="M20.25 3H3.75C2.95435 3 2.19129 3.31607 1.62868 3.87868C1.06607 4.44129 0.75 5.20435 0.75 6V18C0.75 18.7956 1.06607 19.5587 1.62868 20.1213C2.19129 20.6839 2.95435 21 3.75 21H14.25V19.5H3.75C3.35218 19.5 2.97064 19.342 2.68934 19.0607C2.40804 18.7794 2.25 18.3978 2.25 18V6C2.25 5.60218 2.40804 5.22064 2.68934 4.93934C2.97064 4.65804 3.35218 4.5 3.75 4.5H20.25C20.6478 4.5 21.0294 4.65804 21.3107 4.93934C21.592 5.22064 21.75 5.60218 21.75 6V11.25H23.25V6C23.25 5.20435 22.9339 4.44129 22.3713 3.87868C21.8087 3.31607 21.0456 3 20.25 3Z" fill="#B1BAD3"/>
<path d="M16.5 17.25C16.3011 17.25 16.1103 17.329 15.9697 17.4697C15.829 17.6103 15.75 17.8011 15.75 18V21H17.25V18C17.25 17.8011 17.171 17.6103 17.0303 17.4697C16.8897 17.329 16.6989 17.25 16.5 17.25ZM22.5 15.75C22.3011 15.75 22.1103 15.829 21.9697 15.9697C21.829 16.1103 21.75 16.3011 21.75 16.5V21H23.25V16.5C23.25 16.3011 23.171 16.1103 23.0303 15.9697C22.8897 15.829 22.6989 15.75 22.5 15.75ZM19.5 13.5C19.3011 13.5 19.1103 13.579 18.9697 13.7197C18.829 13.8603 18.75 14.0511 18.75 14.25V21H20.25V14.25C20.25 14.0511 20.171 13.8603 20.0303 13.7197C19.8897 13.579 19.6989 13.5 19.5 13.5ZM4.5 12C4.5 12.1989 4.57902 12.3897 4.71967 12.5303C4.86032 12.671 5.05109 12.75 5.25 12.75H14.25V11.25H5.25C5.05109 11.25 4.86032 11.329 4.71967 11.4697C4.57902 11.6103 4.5 11.8011 4.5 12ZM4.5 15.75C4.5 15.9489 4.57902 16.1397 4.71967 16.2803C4.86032 16.421 5.05109 16.5 5.25 16.5H14.25V15H5.25C5.05109 15 4.86032 15.079 4.71967 15.2197C4.57902 15.3603 4.5 15.5511 4.5 15.75Z" fill="#B1BAD3"/>
</svg>
