<svg width="24" height="24" viewBox="0 0 24 24" fill="none" xmlns="http://www.w3.org/2000/svg">
  <path d="M20.9295 15.9742C21.375 15.9742 21.597 16.2292 21.597 16.7393V20.1405H21.7868C22.0117 20.1405 22.1932 20.1705 22.329 20.2327C22.4655 20.2942 22.5338 20.4285 22.5338 20.637C22.5338 20.8065 22.4783 20.9303 22.3665 21.0082C22.2555 21.0855 22.089 21.1245 21.8655 21.1245H21.5978V21.942C21.5978 22.167 21.5475 22.335 21.4478 22.4445C21.3972 22.4994 21.3352 22.5427 21.2661 22.5712C21.1971 22.5997 21.1226 22.6128 21.048 22.6095C20.9734 22.6123 20.8991 22.5986 20.8304 22.5694C20.7617 22.5403 20.7003 22.4963 20.6505 22.4408C20.5492 22.3282 20.499 22.1618 20.499 21.942V21.1245H18.2933C18.015 21.1245 17.8057 21.0615 17.667 20.9355C17.5275 20.8095 17.4578 20.6385 17.4578 20.4217C17.4578 20.3655 17.4683 20.3092 17.4885 20.2523C17.5122 20.1889 17.5432 20.1285 17.5807 20.0723L17.6437 19.9792L20.2005 16.5592C20.3528 16.3538 20.478 16.2045 20.5755 16.1122C20.6706 16.0213 20.7979 15.9717 20.9295 15.9742ZM14.7157 16.0177C15.1643 16.0177 15.5467 16.0883 15.8632 16.2292C16.0666 16.3218 16.25 16.453 16.4032 16.6155C16.5585 16.7797 16.6792 16.9695 16.7655 17.1855C16.8525 17.4 16.8953 17.6235 16.8953 17.8552C16.8991 18.2039 16.8056 18.5468 16.6252 18.8453C16.4452 19.143 16.2615 19.3762 16.074 19.545L15.8438 19.7453L15.5295 20.0093L15.1312 20.3377C14.739 20.658 14.4563 20.9152 14.2838 21.108L14.2238 21.177C14.1532 21.2565 14.0812 21.3518 14.0085 21.4627H16.302C16.5308 21.4627 16.7048 21.51 16.8255 21.6038C16.9455 21.6975 17.0055 21.825 17.0055 21.9862C17.007 22.0534 16.9952 22.1202 16.9707 22.1828C16.9463 22.2453 16.9096 22.3024 16.863 22.3507C16.767 22.4505 16.623 22.5 16.4295 22.5H13.1955C12.9757 22.5 12.804 22.4392 12.681 22.3177C12.6224 22.2629 12.5758 22.1966 12.544 22.1229C12.5123 22.0492 12.4961 21.9697 12.4965 21.8895C12.4965 21.7838 12.5363 21.6435 12.615 21.4695C12.6945 21.2955 12.7808 21.1582 12.8745 21.0585L13.2518 20.6737L13.6027 20.3273C13.716 20.2178 13.8247 20.1158 13.929 20.0198L14.1473 19.8218L14.3325 19.6605C14.4165 19.5893 14.4878 19.5323 14.547 19.4888L14.6017 19.4505C14.8418 19.2803 15.042 19.1092 15.2017 18.9382C15.3607 18.7665 15.483 18.591 15.5662 18.411C15.6495 18.231 15.6915 18.054 15.6915 17.8815C15.6915 17.694 15.6465 17.526 15.5573 17.3783C15.4697 17.232 15.3436 17.1126 15.1927 17.0333C15.0379 16.951 14.8649 16.9087 14.6895 16.9103C14.3055 16.9103 14.004 17.0783 13.7843 17.4158C13.738 17.5016 13.6996 17.5915 13.6695 17.6842L13.6373 17.7757C13.5861 17.9389 13.5074 18.0921 13.4047 18.2288C13.3177 18.3337 13.191 18.3862 13.0238 18.3862C12.9563 18.3882 12.8892 18.3764 12.8266 18.3515C12.7639 18.3266 12.7069 18.2892 12.6593 18.2415C12.5625 18.1448 12.5145 18.0135 12.5145 17.8463C12.5145 17.6437 12.5595 17.4338 12.6503 17.2133C12.741 16.9935 12.8767 16.7947 13.0568 16.6155C13.2368 16.437 13.4655 16.293 13.7423 16.1827C14.0197 16.0732 14.3438 16.0177 14.7157 16.0177ZM12 1.5C17.799 1.5 22.5 6.201 22.5 12C22.5 12.1989 22.421 12.3897 22.2803 12.5303C22.1397 12.671 21.9489 12.75 21.75 12.75C21.5511 12.75 21.3603 12.671 21.2197 12.5303C21.079 12.3897 21 12.1989 21 12C21 7.02975 16.9703 3 12 3C7.02975 3 3 7.02975 3 12C3.00021 14.0272 3.68453 15.995 4.9422 17.5849C6.19987 19.1749 7.95729 20.2938 9.93 20.7607C10.1236 20.8064 10.2912 20.9271 10.3959 21.0963C10.5005 21.2655 10.5337 21.4694 10.488 21.663C10.4423 21.8566 10.3216 22.0242 10.1524 22.1289C9.98324 22.2335 9.77939 22.2667 9.58575 22.221C7.28404 21.6765 5.23347 20.3711 3.76603 18.5162C2.29857 16.6612 1.50015 14.3652 1.5 12C1.5 6.201 6.201 1.5 12 1.5ZM20.499 17.5875L18.609 20.1405H20.499V17.5868V17.5875ZM12.1815 6C12.3804 6 12.5712 6.07902 12.7118 6.21967C12.8525 6.36032 12.9315 6.55109 12.9315 6.75V12.75C12.9317 12.8484 12.9125 12.946 12.8749 13.037C12.8373 13.128 12.7821 13.2106 12.7125 13.2803L9.53025 16.4625C9.3888 16.5991 9.19935 16.6747 9.0027 16.673C8.80605 16.6713 8.61794 16.5924 8.47889 16.4534C8.33983 16.3143 8.26095 16.1262 8.25924 15.9296C8.25754 15.7329 8.33313 15.5435 8.46975 15.402L11.4323 12.4395V6.75C11.4323 6.55109 11.5113 6.36032 11.6519 6.21967C11.7926 6.07902 11.9833 6 12.1823 6H12.1815Z" fill="currentcolor"/>
</svg>

