<svg width="22" height="20" viewBox="0 0 22 20" fill="none" xmlns="http://www.w3.org/2000/svg">
  <path d="M20.1732 0.217773H1.81699C1.09277 0.217773 0.506836 0.803711 0.506836 1.52793V15.7428C0.506836 16.467 1.09277 17.0529 1.81699 17.0529H7.0623V18.3631C7.0623 19.0873 7.64824 19.6732 8.37246 19.6732H13.6178C14.342 19.6732 14.9279 19.0873 14.9279 18.3631V17.0529H20.1732C20.8975 17.0529 21.4834 16.467 21.4834 15.7428V1.52793C21.4834 0.803711 20.8975 0.217773 20.1732 0.217773ZM20.0139 15.4217H1.98574V1.86309H20.0162V15.4217H20.0139ZM12.9428 10.7506C12.6615 10.9826 12.3381 11.1631 11.9936 11.2826V11.96C11.9936 12.2389 11.7662 12.4662 11.4873 12.4662H10.442C10.1631 12.4662 9.93574 12.2389 9.93574 11.96V11.2826C9.59121 11.1631 9.27012 10.9826 8.98652 10.7506L8.4123 11.0834C8.1709 11.224 7.86152 11.1396 7.7209 10.8982L7.19824 9.99121C7.05762 9.74981 7.14199 9.44043 7.3834 9.29981L7.93184 8.9834C7.86152 8.61074 7.86152 8.22871 7.93184 7.85606L7.3834 7.53965C7.14199 7.39902 7.05762 7.08965 7.19824 6.84824L7.7209 5.94121C7.86152 5.69981 8.1709 5.61543 8.4123 5.75606L8.98652 6.08887C9.27012 5.85684 9.59121 5.67637 9.93574 5.55684V4.87949C9.93574 4.60059 10.1631 4.37324 10.442 4.37324H11.4873C11.7662 4.37324 11.9936 4.60059 11.9936 4.87949V5.55684C12.3428 5.67871 12.6639 5.86152 12.9428 6.08887L13.517 5.75606C13.7584 5.61543 14.0678 5.69981 14.2084 5.94121L14.7311 6.84824C14.8717 7.08965 14.7873 7.39902 14.5459 7.53965L13.9975 7.85606C14.0678 8.22871 14.0678 8.61074 13.9975 8.9834L14.5459 9.29981C14.7873 9.44043 14.8717 9.74981 14.7311 9.99121L14.2084 10.8982C14.0678 11.1396 13.7584 11.224 13.517 11.0834L12.9428 10.7506ZM10.9646 9.93965C11.8178 9.93965 12.5092 9.25996 12.5092 8.4209C12.5092 7.58184 11.8178 6.90215 10.9646 6.90215C10.1115 6.90215 9.42012 7.58184 9.42012 8.4209C9.42012 9.25996 10.1115 9.93965 10.9646 9.93965Z" fill="currentcolor"/>
</svg>

