<svg width="24" height="24" viewBox="0 0 24 24" fill="none" xmlns="http://www.w3.org/2000/svg">
  <g clip-path="url(#clip0_5512_563)">
    <path d="M15.4402 11.9626C15.6431 11.9626 15.8377 11.8823 15.9812 11.7393C16.1246 11.5964 16.2052 11.4025 16.2052 11.2003C16.2052 10.9981 16.1246 10.8042 15.9812 10.6612C15.8377 10.5182 15.6431 10.4379 15.4402 10.4379H13.3746L14.2161 8.91319C14.2644 8.83804 14.297 8.75401 14.3121 8.66608C14.3271 8.57815 14.3243 8.4881 14.3039 8.40126C14.2834 8.31442 14.2457 8.23255 14.1929 8.1605C14.1401 8.08845 14.0734 8.02768 13.9966 7.98178C13.9199 7.93588 13.8346 7.9058 13.746 7.8933C13.6574 7.8808 13.5671 7.88614 13.4806 7.90901C13.3941 7.93188 13.313 7.97181 13.2422 8.02644C13.1715 8.08107 13.1124 8.14929 13.0686 8.22707L12.1505 9.82802C12.0737 10.0241 12.0737 10.2418 12.1505 10.4379H11.0795C11.1563 10.2418 11.1563 10.0241 11.0795 9.82802L10.1614 8.22707C10.0636 8.08288 9.91579 7.97978 9.74635 7.93756C9.57691 7.89535 9.39779 7.917 9.24338 7.99836C9.16499 8.04046 9.09627 8.0984 9.04162 8.16847C8.98697 8.23854 8.94759 8.3192 8.92599 8.40529C8.90439 8.49139 8.90105 8.58102 8.91618 8.66848C8.93131 8.75593 8.96459 8.83928 9.01387 8.91319L9.85542 10.4379H7.48379C7.28089 10.4379 7.0863 10.5182 6.94283 10.6612C6.79935 10.8042 6.71875 10.9981 6.71875 11.2003C6.71875 11.4025 6.79935 11.5964 6.94283 11.7393C7.0863 11.8823 7.28089 11.9626 7.48379 11.9626H10.6205V13.5636H8.55485C8.45438 13.5636 8.3549 13.5833 8.26208 13.6216C8.16926 13.6599 8.08492 13.7161 8.01388 13.7869C7.94284 13.8577 7.88649 13.9417 7.84804 14.0342C7.80959 14.1267 7.78981 14.2258 7.78981 14.326C7.80323 14.5237 7.88815 14.71 8.02881 14.8501C8.16948 14.9903 8.35637 15.0749 8.55485 15.0883H10.6205V16.918C10.6205 17.0181 10.6402 17.1172 10.6787 17.2097C10.7171 17.3022 10.7735 17.3863 10.8445 17.4571C10.9156 17.5278 10.9999 17.584 11.0927 17.6223C11.1855 17.6606 11.285 17.6803 11.3855 17.6803C11.584 17.667 11.7709 17.5823 11.9115 17.4422C12.0522 17.302 12.1371 17.1158 12.1505 16.918V15.0883H14.2161C14.3166 15.0883 14.4161 15.0686 14.5089 15.0303C14.6017 14.992 14.6861 14.9358 14.7571 14.865C14.8282 14.7942 14.8845 14.7102 14.9229 14.6177C14.9614 14.5252 14.9812 14.4261 14.9812 14.326C14.9678 14.1282 14.8828 13.9419 14.7422 13.8018C14.6015 13.6616 14.4146 13.577 14.2161 13.5636H12.1505V11.9626H15.4402Z" fill="currentcolor"/>
    <path d="M15.1343 20.653C15.0264 20.6416 14.918 20.6686 14.8282 20.7292C13.7643 21.1826 12.6192 21.416 11.4621 21.4154C9.69173 21.4154 7.96116 20.8922 6.48918 19.9121C5.0172 18.932 3.86993 17.539 3.19245 15.9091C2.51497 14.2793 2.33771 12.4858 2.68309 10.7556C3.02846 9.02536 3.88096 7.43603 5.13278 6.1886C6.38459 4.94117 7.9795 4.09166 9.71582 3.74749C11.4521 3.40333 13.2519 3.57996 14.8875 4.25507C16.523 4.93017 17.921 6.07343 18.9045 7.54025C19.8881 9.00708 20.413 10.7316 20.413 12.4957V13.4106C20.413 13.6128 20.4936 13.8067 20.6371 13.9496C20.7806 14.0926 20.9752 14.1729 21.1781 14.1729C22.1726 14.1729 22.0196 12.6482 22.0196 12.4957C22.0323 11.1614 21.772 9.83845 21.2546 8.60769C20.4801 6.68965 19.153 5.04308 17.4407 3.87562C15.7284 2.70816 13.7075 2.07209 11.6329 2.04761C9.55825 2.02313 7.52281 2.61134 5.78323 3.73807C4.04364 4.8648 2.6778 6.47959 1.85795 8.37881C1.03809 10.278 0.800929 12.3766 1.17637 14.41C1.55181 16.4434 2.52304 18.3204 3.96759 19.8045C5.41214 21.2885 7.26531 22.3131 9.29342 22.749C11.3215 23.1849 13.4338 23.0127 15.3638 22.254C15.5255 22.2044 15.666 22.1026 15.763 21.9645C15.86 21.8264 15.908 21.6599 15.8993 21.4916C15.9068 21.3859 15.8927 21.2798 15.8579 21.1798C15.823 21.0797 15.7682 20.9877 15.6967 20.9093C15.6252 20.8309 15.5385 20.7678 15.4418 20.7237C15.3452 20.6797 15.2405 20.6556 15.1343 20.653Z" fill="currentcolor"/>
    <path d="M22.7847 17.9842L20.6426 15.8496C20.5831 15.7862 20.5114 15.7354 20.4318 15.7002C20.3521 15.665 20.2662 15.6461 20.1791 15.6446C20.092 15.6432 20.0055 15.6592 19.9247 15.6918C19.844 15.7243 19.7706 15.7727 19.709 15.8341C19.6474 15.8955 19.5988 15.9686 19.5661 16.0491C19.5335 16.1296 19.5174 16.2158 19.5188 16.3026C19.5203 16.3894 19.5393 16.475 19.5746 16.5543C19.6099 16.6337 19.6609 16.7051 19.7246 16.7644L20.7191 17.7555H15.4403C15.3399 17.7555 15.2404 17.7752 15.1476 17.8136C15.0547 17.8519 14.9704 17.908 14.8994 17.9788C14.8283 18.0496 14.772 18.1336 14.7335 18.2261C14.6951 18.3186 14.6753 18.4178 14.6753 18.5179C14.6887 18.7157 14.7736 18.9019 14.9143 19.0421C15.055 19.1822 15.2419 19.2669 15.4403 19.2802H20.7191L19.7246 20.2713C19.6094 20.3939 19.5467 20.5564 19.5495 20.7243C19.5523 20.8922 19.6205 21.0524 19.7396 21.1711C19.8588 21.2899 20.0196 21.3578 20.1881 21.3606C20.3566 21.3634 20.5195 21.3009 20.6426 21.1861L22.7847 19.0515C22.8751 18.8799 22.9518 18.7015 23.0142 18.5179C22.9377 18.2892 22.9377 18.1367 22.7847 17.9842Z" fill="currentcolor"/>
  </g>
  <defs>
    <clipPath id="clip0_5512_563">
      <rect width="22" height="21" fill="white" transform="translate(1 2)"/>
    </clipPath>
  </defs>
</svg>




