<svg width="27" height="27" viewBox="0 0 27 27" fill="none" xmlns="http://www.w3.org/2000/svg">
  <path d="M10.1595 14.5562L9.91162 15.6583L12.7672 15.6504L12.8015 17.4117H14.0908L14.0565 15.6504H16.5641L16.5878 14.6115L13.9484 14.5509L13.9722 12.8845L16.6089 12.9187V11.5846L14.6656 11.5477L17.1573 7.28145H15.926L13.2576 11.8588L13.1442 11.4185C13.0968 11.2339 12.8832 10.9043 12.5299 10.3717C12.021 9.60439 11.3196 8.55234 10.9188 7.39219L10.874 7.26562L9.48975 7.27881L11.9814 11.5477L9.86416 11.6109V12.9451L12.6828 12.8871L12.6591 14.5588H10.1595V14.5562Z" fill="currentcolor"/>
  <path d="M20.4001 4.80801C18.4437 2.82783 15.8623 1.69141 13.3205 1.69141C7.79395 1.69141 3.12695 6.49023 3.12695 12.1671C3.12695 15.1967 4.67471 18.3396 7.16377 20.3699L7.19014 20.391L8.26064 19.2915L8.22637 19.2651C6.02471 17.5908 4.71162 14.9383 4.71162 12.1671C4.71162 9.9417 5.49209 7.82705 6.91328 6.21865C8.54014 4.3624 10.8156 3.34199 13.3231 3.34199C18.0692 3.34199 21.9294 7.29971 21.9294 12.1671C21.9294 13.3035 21.6947 14.461 21.2518 15.5184L21.2386 15.55L22.5253 16.3094L22.5622 16.3305L22.5807 16.2936C23.1924 14.9699 23.5167 13.5435 23.5167 12.1697C23.5141 9.49873 22.3803 6.81455 20.4001 4.80801ZM14.0509 23.0277L11.4906 20.6784L10.4412 21.7832L14.2645 25.3006L20.0257 19.2045L18.9684 18.0971L14.0509 23.0277Z" fill="currentcolor"/>
</svg>


