<svg width="24" height="24" viewBox="0 0 24 24" fill="none" xmlns="http://www.w3.org/2000/svg">
  <g clip-path="url(#clip0_5512_591)">
    <path d="M19.0508 11.1514H19.0618C19.4908 11.1514 19.8428 10.7994 19.8428 10.3704V5.77237C19.8428 5.73937 19.8538 5.70637 19.8538 5.66237V5.65137C19.8538 5.45337 19.7768 5.26637 19.6448 5.12337C19.5018 4.95837 19.2928 4.85938 19.0618 4.85938H19.0508C19.0178 4.85938 18.9848 4.85937 18.9408 4.87037H14.3428C13.9138 4.87037 13.5618 5.22237 13.5618 5.65137V5.66237C13.5618 6.09137 13.9138 6.44337 14.3428 6.44337H18.2588V10.3594C18.2808 10.7994 18.6218 11.1514 19.0508 11.1514ZM4.92677 12.7574H4.91577C4.48677 12.7574 4.13477 13.1094 4.13477 13.5384V18.2464C4.13477 18.4004 4.17877 18.5324 4.24477 18.6534C4.37677 18.8844 4.62977 19.0384 4.91577 19.0384H4.92677C4.97077 19.0384 5.01477 19.0384 5.04777 19.0274H9.62377C10.0528 19.0274 10.4048 18.6754 10.4048 18.2464V18.2354C10.4048 17.8064 10.0528 17.4544 9.62377 17.4544H5.70777V13.5384C5.70777 13.1094 5.35577 12.7574 4.92677 12.7574Z" fill="currentcolor"/>
    <path d="M15.1128 21.3936C15.1128 21.6036 15.1962 21.8051 15.3448 21.9536C15.4933 22.1021 15.6947 22.1856 15.9048 22.1856C16.1148 22.1856 16.3163 22.1021 16.4648 21.9536C16.6134 21.8051 16.6968 21.6036 16.6968 21.3936C16.6968 21.1835 16.6134 20.9821 16.4648 20.8335C16.3163 20.685 16.1148 20.6016 15.9048 20.6016C15.6947 20.6016 15.4933 20.685 15.3448 20.8335C15.1962 20.9821 15.1128 21.1835 15.1128 21.3936Z" fill="currentcolor"/>
    <path d="M19.865 1.8125H4.146C2.419 1.8125 1 3.2205 1 4.9475V19.0385C1 20.7655 2.419 22.1845 4.146 22.1845H12.737V22.1735C13.177 22.1735 13.529 21.8215 13.529 21.3815C13.529 20.9415 13.177 20.5895 12.737 20.5895H4.135C3.266 20.5895 2.562 19.8855 2.562 19.0165V4.9365C2.562 4.0675 3.266 3.3635 4.135 3.3635H19.876C20.745 3.3635 21.449 4.0675 21.449 4.9365V19.0385C21.449 19.9075 20.745 20.6115 19.876 20.6115H19.062C18.622 20.6115 18.27 20.9635 18.27 21.4035C18.27 21.8435 18.622 22.1955 19.062 22.1955H19.854C21.581 22.1955 23 20.7765 23 19.0495V4.9475C23 3.2205 21.592 1.8125 19.865 1.8125Z" fill="currentcolor"/>
    <path d="M12.2531 17.7517C12.6381 17.7517 12.8361 17.5757 12.8361 17.2237V14.9467H15.6521C15.9491 14.9467 16.0921 14.8037 16.0921 14.5067C16.0921 14.2317 15.9491 14.0887 15.6521 14.0887H12.8361V13.4837L13.3091 12.7137H15.6631C15.9601 12.7137 16.1031 12.5597 16.1031 12.2627C16.1031 11.9767 15.9601 11.8337 15.6631 11.8337H13.8701L16.0591 8.42369C16.1141 8.32469 16.1471 8.22569 16.1471 8.13769C16.1581 7.95069 16.0481 7.79669 15.8281 7.67569C15.7071 7.58769 15.5861 7.55469 15.4651 7.55469C15.2671 7.55469 15.1131 7.65369 15.0141 7.84069L12.2641 12.4277L9.47014 7.85169C9.36014 7.66469 9.21714 7.57669 9.03014 7.57669C8.90914 7.58769 8.79914 7.62069 8.67814 7.68669C8.45814 7.79669 8.34814 7.95069 8.34814 8.15969C8.34814 8.25869 8.38114 8.35769 8.43614 8.43469L10.6361 11.8447H8.85414C8.55714 11.8447 8.41414 11.9877 8.41414 12.2847C8.41414 12.5817 8.55714 12.7247 8.85414 12.7247H11.1751L11.6701 13.4837V14.0997H8.84314C8.54614 14.0887 8.40314 14.2317 8.40314 14.5177C8.40314 14.8147 8.54614 14.9577 8.84314 14.9577H11.6701V17.2347C11.6701 17.5757 11.8681 17.7517 12.2531 17.7517Z" fill="currentcolor"/>
  </g>
  <defs>
    <clipPath id="clip0_5512_591">
      <rect width="22" height="22" fill="white" transform="translate(1 1)"/>
    </clipPath>
  </defs>
</svg>







