<svg width="24" height="24" viewBox="0 0 24 24" fill="none" xmlns="http://www.w3.org/2000/svg">
  <path d="M3.5 4.75C3.5 4.06 4.06 3.5 4.75 3.5H19.247C19.937 3.5 20.497 4.06 20.497 4.75V15.137C20.497 15.827 19.937 16.387 19.247 16.387H4.75C4.06 16.387 3.5 15.827 3.5 15.137V4.75ZM4.75 2C4.38886 2 4.03127 2.07113 3.69762 2.20933C3.36397 2.34753 3.06082 2.5501 2.80546 2.80546C2.5501 3.06082 2.34753 3.36397 2.20933 3.69762C2.07113 4.03127 2 4.38886 2 4.75V15.137C2 15.4981 2.07113 15.8557 2.20933 16.1894C2.34753 16.523 2.5501 16.8262 2.80546 17.0815C3.06082 17.3369 3.36397 17.5395 3.69762 17.6777C4.03127 17.8159 4.38886 17.887 4.75 17.887H19.247C19.6081 17.887 19.9657 17.8159 20.2994 17.6777C20.633 17.5395 20.9362 17.3369 21.1915 17.0815C21.4469 16.8262 21.6495 16.523 21.7877 16.1894C21.9259 15.8557 21.997 15.4981 21.997 15.137V4.75C21.997 4.38886 21.9259 4.03127 21.7877 3.69762C21.6495 3.36397 21.4469 3.06082 21.1915 2.80546C20.9362 2.5501 20.633 2.34753 20.2994 2.20933C19.9657 2.07113 19.6081 2 19.247 2H4.75ZM12.749 6.86C12.749 6.66109 12.67 6.47032 12.5293 6.32967C12.3887 6.18902 12.1979 6.11 11.999 6.11C11.8001 6.11 11.6093 6.18902 11.4687 6.32967C11.328 6.47032 11.249 6.66109 11.249 6.86V15.081C11.249 15.2799 11.328 15.4707 11.4687 15.6113C11.6093 15.752 11.8001 15.831 11.999 15.831C12.1979 15.831 12.3887 15.752 12.5293 15.6113C12.67 15.4707 12.749 15.2799 12.749 15.081V6.861V6.86ZM17.887 8.916C17.887 8.71709 17.808 8.52632 17.6673 8.38567C17.5267 8.24502 17.3359 8.166 17.137 8.166C16.9381 8.166 16.7473 8.24502 16.6067 8.38567C16.466 8.52632 16.387 8.71709 16.387 8.916V15.081C16.387 15.2799 16.466 15.4707 16.6067 15.6113C16.7473 15.752 16.9381 15.831 17.137 15.831C17.3359 15.831 17.5267 15.752 17.6673 15.6113C17.808 15.4707 17.887 15.2799 17.887 15.081V8.916ZM7.61 10.97C7.61 10.7711 7.53098 10.5803 7.39033 10.4397C7.24968 10.299 7.05891 10.22 6.86 10.22C6.66109 10.22 6.47032 10.299 6.32967 10.4397C6.18902 10.5803 6.11 10.7711 6.11 10.97V15.08C6.11 15.2789 6.18902 15.4697 6.32967 15.6103C6.47032 15.751 6.66109 15.83 6.86 15.83C7.05891 15.83 7.24968 15.751 7.39033 15.6103C7.53098 15.4697 7.61 15.2789 7.61 15.08V10.97ZM2.75 20.496C2.55109 20.496 2.36032 20.575 2.21967 20.7157C2.07902 20.8563 2 21.0471 2 21.246C2 21.4449 2.07902 21.6357 2.21967 21.7763C2.36032 21.917 2.55109 21.996 2.75 21.996H21.247C21.4459 21.996 21.6367 21.917 21.7773 21.7763C21.918 21.6357 21.997 21.4449 21.997 21.246C21.997 21.0471 21.918 20.8563 21.7773 20.7157C21.6367 20.575 21.4459 20.496 21.247 20.496H2.75Z" fill="currentcolor"/>
</svg>

