<svg width="19" height="18" viewBox="0 0 19 18" fill="none" xmlns="http://www.w3.org/2000/svg">
  <path d="M16.3045 5.07339C15.0419 5.0746 14.0029 6.06476 13.8694 7.33659L13.8682 7.34813L11.9707 7.87447C11.699 7.51204 11.34 7.23339 10.9253 7.07069L10.9089 7.06523V4.9204C11.8266 4.53612 12.4626 3.62003 12.4626 2.54975C12.4626 1.14132 11.3616 0 10.0029 0C8.64421 0 7.54318 1.14132 7.54318 2.54975C7.54318 3.62003 8.1792 4.53612 9.08051 4.91433L9.09691 4.9204V7.00088C8.87905 7.0889 8.69106 7.20061 8.5218 7.33659L8.52707 7.33234L4.91947 5.29255C4.92122 5.25976 4.92239 5.22152 4.92239 5.18327C4.92239 5.14503 4.92122 5.10678 4.91947 5.06853V5.074C4.91947 3.66556 3.81844 2.52425 2.45973 2.52425C1.10102 2.52425 0 3.66556 0 5.074C0 6.48243 1.10102 7.62374 2.45973 7.62374C3.08696 7.62253 3.65739 7.37363 4.0855 6.96627L4.08374 6.96809L7.58183 8.96722C7.57598 9.03035 7.57305 9.10381 7.57305 9.17787C7.57305 9.25194 7.57598 9.3254 7.58242 9.39764L7.58183 9.38853C7.58301 9.74185 7.65153 10.0782 7.77569 10.3854L7.76924 10.3684L5.03601 13.1203C4.74084 12.974 4.39472 12.8878 4.02928 12.8853H4.02869C4.01464 12.8853 3.99824 12.8847 3.98184 12.8847C2.61903 12.8847 1.51449 14.0297 1.51449 15.4424C1.51449 16.855 2.61903 18 3.98184 18C5.34465 18 6.44919 16.855 6.44919 15.4424C6.44977 15.4217 6.45036 15.3974 6.45036 15.3738C6.45036 15.0362 6.38418 14.7151 6.26412 14.4231L6.26998 14.4389L9.00321 11.6869C9.2972 11.8302 9.64157 11.9134 10.0053 11.9134C10.007 11.9134 10.0088 11.9134 10.0111 11.9134C10.2483 11.9116 10.4767 11.8733 10.6916 11.8035L10.6752 11.8084L11.4559 13.0632C11.183 13.4651 11.0196 13.9647 11.0184 14.5038C11.0184 14.5062 11.0184 14.5093 11.0184 14.5117C11.0184 15.9244 12.123 17.0693 13.4858 17.0693C14.8486 17.0693 15.9531 15.9244 15.9531 14.5117C15.9531 13.099 14.8486 11.9541 13.4858 11.9541C13.3001 11.9547 13.1197 11.9783 12.947 12.0221L12.9628 12.0184L12.1036 10.6664C12.2752 10.3793 12.3918 10.0387 12.4304 9.67386L12.4316 9.66293L14.3367 9.13659C14.7889 9.77707 15.5121 10.1887 16.3274 10.1887C17.6861 10.1887 18.7871 9.04735 18.7871 7.63892C18.7871 6.23049 17.6861 5.08917 16.3274 5.08917C16.3192 5.08917 16.311 5.08917 16.3033 5.08917H16.3045V5.07339Z" fill="currentcolor"/>
</svg>
