<svg xmlns="http://www.w3.org/2000/svg" width="24" height="24" viewBox="0 0 24 24" fill="none">
  <path d="M20.9197 5.42315H18.6533V4.44706C18.6533 3.46823 17.8569 2.67188 16.8781 2.67188H3.13749C2.15866 2.67188 1.3623 3.46823 1.3623 4.44706V16.693C1.3623 16.8105 1.39339 16.926 1.45241 17.0277C1.51144 17.1294 1.59631 17.2136 1.6984 17.2719C1.8005 17.3302 1.9162 17.3605 2.03376 17.3596C2.15133 17.3588 2.26658 17.3269 2.36783 17.2671L6.68622 14.7185V15.5913C6.68622 16.5701 7.48258 17.3665 8.46141 17.3665H16.2658L21.7418 19.9719C21.8435 20.0203 21.9557 20.0421 22.068 20.0354C22.1803 20.0287 22.2891 19.9937 22.3843 19.9336C22.4794 19.8735 22.5578 19.7903 22.6121 19.6917C22.6664 19.5932 22.6949 19.4825 22.6949 19.3699V7.19833C22.6949 6.21948 21.8986 5.42315 20.9197 5.42315ZM6.21433 13.4487L2.69564 15.5254V4.44706C2.69564 4.20344 2.89387 4.00521 3.13749 4.00521H16.8781C17.1217 4.00521 17.3199 4.20344 17.3199 4.44706V12.9143C17.3199 13.158 17.1217 13.3562 16.8781 13.3562H6.55318C6.43399 13.3562 6.31698 13.3881 6.21433 13.4487ZM21.3616 18.3144L16.7028 16.0978C16.6133 16.0553 16.5155 16.0332 16.4164 16.0332H8.46141C8.21778 16.0332 8.01955 15.8349 8.01955 15.5913V14.6895H16.8781C17.8569 14.6895 18.6533 13.8932 18.6533 12.9144V6.75648H20.9197C21.1634 6.75648 21.3616 6.95471 21.3616 7.19833V18.3144Z" fill="#B1BAD3"/>
  <path d="M12.421 5.00503C12.1353 4.77263 11.7154 4.81584 11.4831 5.10143L10.1522 6.73732H9.93995L8.62145 5.12149C8.38863 4.83622 7.96867 4.7937 7.68345 5.02645C7.3982 5.25922 7.35563 5.67918 7.5884 5.96445L8.21905 6.7373H8.0153C7.64711 6.7373 7.34863 7.03578 7.34863 7.40397C7.34863 7.77216 7.64711 8.07063 8.0153 8.07063H9.3662V9.3508H8.0153C7.64711 9.3508 7.34863 9.64928 7.34863 10.0175C7.34863 10.3857 7.64711 10.6841 8.0153 10.6841H9.3662V11.5506C9.3662 11.9188 9.66467 12.2172 10.0329 12.2172C10.401 12.2172 10.6995 11.9188 10.6995 11.5506V10.6841H12.0002C12.3684 10.6841 12.6669 10.3857 12.6669 10.0175C12.6669 9.64928 12.3684 9.3508 12.0002 9.3508H10.6995V8.07063H12.0002C12.3684 8.07063 12.6669 7.77216 12.6669 7.40397C12.6669 7.03578 12.3684 6.7373 12.0002 6.7373H11.871L12.5174 5.94286C12.7497 5.65728 12.7066 5.23741 12.421 5.00503Z" fill="#B1BAD3"/>
</svg>