<svg width="16" height="16" viewBox="0 0 16 16" fill="none" xmlns="http://www.w3.org/2000/svg">
<g clip-path="url(#clip0_986_90309)">
<g clip-path="url(#clip1_986_90309)">
<path d="M14.5416 11.8082C14.5416 11.8082 13.913 11.6939 13.913 11.6368C13.913 11.5797 13.913 11.5225 13.8558 11.5225C13.9933 11.3559 14.1464 11.2028 14.313 11.0654L13.6273 10.113C13.4454 10.2759 13.2547 10.4285 13.0558 10.5701C12.9987 10.5701 12.9416 10.513 12.8844 10.513C12.7833 10.3134 12.7066 10.1023 12.6558 9.88442H11.7035C11.7035 9.88442 11.5892 10.4558 11.4177 10.513C11.2463 10.5701 11.3035 10.5701 11.2463 10.5701C11.0475 10.4285 10.8567 10.2759 10.6749 10.113L9.98918 11.0654C10.1347 11.2066 10.2685 11.3595 10.3892 11.5225C10.3892 11.5797 10.3892 11.5797 10.332 11.6368C10.1441 11.6865 9.95324 11.7247 9.7606 11.7511V12.7035C9.97331 12.7482 10.1832 12.8055 10.3892 12.8749C10.3892 12.932 10.4463 12.9892 10.4463 13.0463C10.3135 13.2005 10.1596 13.3352 9.98918 13.4463L10.732 14.3987C10.9453 14.2407 11.1752 14.1066 11.4177 13.9987C11.4749 13.9987 11.532 14.0558 11.5892 14.0558C11.6463 14.0558 11.7606 14.6273 11.7606 14.6273H12.713C12.713 14.6273 12.7701 14.0558 12.8273 14.0558C12.8844 14.0558 12.9416 13.9987 13.0558 13.9987L13.513 14.3987L14.4654 13.4463C14.2949 13.3352 14.141 13.2005 14.0082 13.0463C14.0082 12.9892 14.0654 12.932 14.0654 12.8749C14.0654 12.8177 14.5225 12.7606 14.5225 12.7606L14.5416 11.8082ZM12.1416 13.4273C11.9042 13.4273 11.6722 13.3569 11.4749 13.225C11.2775 13.0932 11.1237 12.9058 11.0329 12.6865C10.9421 12.4672 10.9183 12.2259 10.9646 11.9932C11.0109 11.7604 11.1252 11.5466 11.293 11.3787C11.4609 11.2109 11.6747 11.0966 11.9074 11.0503C12.1402 11.004 12.3815 11.0278 12.6008 11.1186C12.82 11.2094 13.0075 11.3632 13.1393 11.5606C13.2712 11.7579 13.3416 11.9899 13.3416 12.2273C13.3391 12.5448 13.2118 12.8485 12.9873 13.073C12.7628 13.2976 12.459 13.4248 12.1416 13.4273ZM7.9987 11.1416C7.9442 11.1443 7.88973 11.1356 7.83881 11.1159C7.78789 11.0963 7.74164 11.0663 7.70306 11.0277C7.66447 10.9891 7.6344 10.9428 7.61478 10.8919C7.59517 10.841 7.58645 10.7865 7.58918 10.732V7.04632C7.58918 6.93644 7.63282 6.83107 7.71052 6.75338C7.78821 6.67568 7.89359 6.63203 8.00346 6.63203C8.11334 6.63203 8.21871 6.67568 8.29641 6.75338C8.3741 6.83107 8.41775 6.93644 8.41775 7.04632V10.732C8.33203 10.9797 8.17013 11.1416 8.00822 11.1416H7.9987ZM9.81775 8.33203H6.09394C6.03953 8.33203 5.98566 8.32132 5.9354 8.3005C5.88514 8.27968 5.83946 8.24916 5.80099 8.21069C5.76252 8.17222 5.73201 8.12655 5.71119 8.07629C5.69037 8.02603 5.67965 7.97215 5.67965 7.91775C5.67965 7.86334 5.69037 7.80947 5.71119 7.75921C5.73201 7.70894 5.76252 7.66327 5.80099 7.6248C5.83946 7.58633 5.88514 7.55582 5.9354 7.535C5.98566 7.51418 6.03953 7.50346 6.09394 7.50346H9.81775C9.87215 7.50346 9.92602 7.51418 9.97629 7.535C10.0266 7.55582 10.0722 7.58633 10.1107 7.6248C10.1492 7.66327 10.1797 7.70894 10.2005 7.75921C10.2213 7.80947 10.232 7.86334 10.232 7.91775C10.232 7.97215 10.2213 8.02603 10.2005 8.07629C10.1797 8.12655 10.1492 8.17222 10.1107 8.21069C10.0722 8.24916 10.0266 8.27968 9.97629 8.3005C9.92602 8.32132 9.87215 8.33203 9.81775 8.33203ZM9.81775 9.82727H6.09394C5.97775 9.82727 5.86632 9.78112 5.78416 9.69896C5.702 9.6168 5.65584 9.50537 5.65584 9.38918C5.65584 9.27299 5.702 9.16156 5.78416 9.0794C5.86632 8.99724 5.97775 8.95108 6.09394 8.95108H9.81775C9.92762 8.95108 10.033 8.99473 10.1107 9.07242C10.1884 9.15012 10.232 9.25549 10.232 9.36537C10.232 9.47524 10.1884 9.58062 10.1107 9.65831C10.033 9.73601 9.92762 9.77965 9.81775 9.77965V9.82727ZM7.9987 7.41775C7.88092 7.42995 7.76266 7.39954 7.66537 7.33203L5.93203 5.5987C5.89389 5.56055 5.86363 5.51527 5.84298 5.46543C5.82234 5.41559 5.81171 5.36217 5.81171 5.30822C5.81171 5.25428 5.82234 5.20086 5.84298 5.15102C5.86363 5.10118 5.89389 5.05589 5.93203 5.01775C5.97018 4.9796 6.01547 4.94934 6.06531 4.9287C6.11515 4.90806 6.16856 4.89743 6.22251 4.89743C6.27646 4.89743 6.32987 4.90806 6.37971 4.9287C6.42955 4.94934 6.47484 4.9796 6.51299 5.01775L8.24632 6.76061C8.2858 6.79799 8.31725 6.84302 8.33875 6.89297C8.36024 6.94291 8.37132 6.99671 8.37132 7.05108C8.37132 7.10545 8.36024 7.15925 8.33875 7.2092C8.31725 7.25914 8.2858 7.30418 8.24632 7.34156C8.21318 7.37167 8.17381 7.39411 8.13101 7.40728C8.08821 7.42044 8.04304 7.42402 7.9987 7.41775ZM7.9987 7.41775C7.88092 7.42995 7.76266 7.39954 7.66537 7.33203C7.62588 7.29465 7.59443 7.24962 7.57294 7.19967C7.55145 7.14973 7.54036 7.09593 7.54036 7.04156C7.54036 6.98719 7.55145 6.93339 7.57294 6.88344C7.59443 6.8335 7.62588 6.78846 7.66537 6.75108L9.40822 5.01775C9.44637 4.9796 9.49166 4.94934 9.5415 4.9287C9.59134 4.90806 9.64475 4.89743 9.6987 4.89743C9.75265 4.89743 9.80606 4.90806 9.8559 4.9287C9.90574 4.94934 9.95103 4.9796 9.98918 5.01775C10.0273 5.05589 10.0576 5.10118 10.0782 5.15102C10.0989 5.20086 10.1095 5.25428 10.1095 5.30822C10.1095 5.36217 10.0989 5.41559 10.0782 5.46543C10.0576 5.51527 10.0273 5.56055 9.98918 5.5987L8.24632 7.33203C8.21402 7.36384 8.17503 7.38803 8.13219 7.40286C8.08936 7.41769 8.04375 7.42278 7.9987 7.41775ZM7.9987 14.6654C6.68016 14.6654 5.39123 14.2744 4.2949 13.5418C3.19857 12.8093 2.34409 11.7681 1.8395 10.5499C1.33492 9.33175 1.2029 7.99131 1.46013 6.6981C1.71737 5.40489 2.35231 4.21701 3.28466 3.28466C4.21701 2.35231 5.40489 1.71737 6.6981 1.46013C7.99131 1.2029 9.33175 1.33492 10.5499 1.8395C11.7681 2.34409 12.8093 3.19857 13.5418 4.2949C14.2744 5.39123 14.6654 6.68016 14.6654 7.9987C14.675 8.35945 14.6463 8.72021 14.5797 9.07489C14.5632 9.18982 14.5018 9.29352 14.409 9.36317C14.3161 9.43283 14.1993 9.46274 14.0844 9.44632C13.9695 9.4299 13.8658 9.3685 13.7961 9.27563C13.7265 9.18275 13.6966 9.06601 13.713 8.95108C13.7863 8.63925 13.8151 8.31861 13.7987 7.9987C13.8103 7.23384 13.6681 6.47444 13.3808 5.76553C13.0934 5.05662 12.6666 4.41262 12.1257 3.87172C11.5848 3.33082 10.9408 2.90403 10.2319 2.61665C9.52296 2.32926 8.76356 2.18714 7.9987 2.1987C7.23086 2.20243 6.47132 2.35784 5.76372 2.656C5.05612 2.95416 4.41441 3.3892 3.87545 3.93612C3.33649 4.48304 2.91091 5.13107 2.62316 5.84296C2.33541 6.55486 2.19116 7.3166 2.1987 8.08442C2.18843 8.84848 2.3315 9.60685 2.61946 10.3146C2.90742 11.0224 3.33441 11.6653 3.87518 12.2052C4.41595 12.7451 5.05951 13.171 5.76778 13.4578C6.47605 13.7446 7.23465 13.8864 7.9987 13.8749C8.35952 13.8872 8.72057 13.8585 9.07489 13.7892C9.32251 13.7035 9.48442 13.8749 9.57013 14.1225C9.65584 14.3701 9.48441 14.532 9.2368 14.6177L7.9987 14.6654Z" fill="currentcolor"/>
</g>
</g>
<defs>
<clipPath id="clip0_986_90309">
<rect width="16" height="16" fill="white"/>
</clipPath>
<clipPath id="clip1_986_90309">
<rect width="13.3333" height="13.3333" fill="white" transform="translate(1.33203 1.33203)"/>
</clipPath>
</defs>
</svg>
