<svg width="24" height="24" viewBox="0 0 24 24" fill="none" xmlns="http://www.w3.org/2000/svg">
  <g clip-path="url(#clip0_5512_585)">
    <path d="M20.4986 6.86324H20.3285L16.9012 2.37235C16.4661 1.8032 15.8233 1.42957 15.1135 1.33322C14.4036 1.23687 13.6845 1.42564 13.1135 1.85824L12.7093 2.16907C12.6833 2.13951 12.6573 2.11118 12.6514 2.10524C12.1426 1.60449 11.4568 1.32472 10.7429 1.32672C10.029 1.32872 9.34479 1.61231 8.83882 2.1159L4.09024 6.86321H3.4994C2.98355 6.86415 2.48906 7.06932 2.12408 7.43386C1.7591 7.7984 1.55332 8.29264 1.55176 8.80849V20.7449C1.55207 21.2619 1.75762 21.7578 2.12325 22.1234C2.48888 22.489 2.98468 22.6946 3.50176 22.6949H20.4986C21.0157 22.6946 21.5115 22.489 21.8772 22.1234C22.2428 21.7578 22.4483 21.2619 22.4486 20.7449V8.80849C22.4471 8.29223 22.241 7.79764 21.8755 7.43303C21.51 7.06842 21.0149 6.86352 20.4986 6.86321L20.4986 6.86324ZM13.9786 2.98335C14.1129 2.88079 14.2662 2.80573 14.4296 2.76246C14.5929 2.71919 14.7632 2.70856 14.9307 2.73117C15.0982 2.75378 15.2596 2.80919 15.4057 2.89424C15.5518 2.97928 15.6796 3.09229 15.782 3.22679L18.5475 6.86324H8.88137L13.9786 2.98335ZM9.84218 3.11924C10.0685 2.89409 10.3703 2.76107 10.6892 2.746C11.008 2.73093 11.3211 2.8349 11.5676 3.03771L6.54018 6.86324H6.09109L9.84218 3.11924ZM21.0305 20.7449C21.0301 20.8855 20.9741 21.0203 20.8747 21.1198C20.7752 21.2192 20.6404 21.2752 20.4998 21.2755H3.50176C3.36091 21.2755 3.22581 21.2197 3.12611 21.1202C3.0264 21.0207 2.97024 20.8857 2.96993 20.7449V8.80851C2.97023 8.66787 3.02624 8.53307 3.1257 8.43363C3.22515 8.33418 3.35995 8.27818 3.50059 8.27787H20.4986C20.6395 8.27787 20.7746 8.33374 20.8743 8.43322C20.974 8.53271 21.0302 8.66769 21.0305 8.80854L21.0305 20.7449Z" fill="currentcolor"/>
    <path d="M17.3701 12.625C16.9442 12.625 16.5279 12.7513 16.1738 12.9879C15.8197 13.2245 15.5437 13.5608 15.3807 13.9543C15.2177 14.3477 15.1751 14.7807 15.2582 15.1984C15.3413 15.6161 15.5463 15.9998 15.8475 16.3009C16.1486 16.602 16.5323 16.8071 16.95 16.8902C17.3677 16.9733 17.8006 16.9306 18.1941 16.7677C18.5876 16.6047 18.9239 16.3287 19.1605 15.9746C19.3971 15.6205 19.5234 15.2042 19.5234 14.7783C19.5234 14.2072 19.2965 13.6595 18.8927 13.2557C18.4889 12.8519 17.9412 12.625 17.3701 12.625ZM17.3701 15.5122C17.2247 15.5122 17.0826 15.4691 16.9617 15.3883C16.8408 15.3076 16.7466 15.1928 16.691 15.0584C16.6353 14.9241 16.6208 14.7763 16.6491 14.6337C16.6775 14.4911 16.7475 14.3602 16.8503 14.2573C16.9531 14.1545 17.0841 14.0845 17.2266 14.0562C17.3692 14.0278 17.517 14.0423 17.6514 14.098C17.7857 14.1536 17.9005 14.2478 17.9813 14.3687C18.062 14.4896 18.1052 14.6317 18.1052 14.7771C18.1052 14.8736 18.0862 14.9692 18.0492 15.0584C18.0123 15.1476 17.9581 15.2286 17.8899 15.2969C17.8216 15.3651 17.7406 15.4193 17.6514 15.4562C17.5622 15.4932 17.4666 15.5122 17.3701 15.5122Z" fill="currentcolor"/>
  </g>
  <defs>
    <clipPath id="clip0_5512_585">
      <rect width="24" height="24" fill="white"/>
    </clipPath>
  </defs>
</svg>






