<svg width="17" height="17" viewBox="0 0 17 17" fill="none" xmlns="http://www.w3.org/2000/svg">
<path d="M8.89743 5.72423C11.9891 5.72423 14.8334 9.58879 14.8334 13.1906C14.8334 13.407 14.6247 13.5152 14.416 13.1906C13.9889 12.2815 13.311 11.5133 12.462 10.9765C11.613 10.4398 10.6284 10.1567 9.62397 10.1607H8.89743V12.5259C8.89743 13.2988 8.37958 13.7161 7.854 13.2988L2.86098 8.955C2.73667 8.84762 2.63694 8.71471 2.56858 8.56534C2.50023 8.41596 2.46484 8.25361 2.46484 8.08934C2.46484 7.92507 2.50023 7.76272 2.56858 7.61334C2.63694 7.46396 2.73667 7.33106 2.86098 7.22368L7.87719 2.89537C8.40277 2.35433 8.82014 2.67895 8.82014 3.54461C8.79695 3.76103 8.79695 4.62669 8.89743 5.72423Z" fill="white"/>
</svg>
