<svg width="24" height="24" viewBox="0 0 24 24" fill="none" xmlns="http://www.w3.org/2000/svg">
  <g clip-path="url(#clip0_5470_4077)">
    <path d="M6.51063 15.4716C6.27011 15.6504 5.96855 15.7267 5.67195 15.6837C5.37534 15.6407 5.10784 15.482 4.92796 15.2423C4.76055 15.0171 4.68261 14.7379 4.70921 14.4586C4.73581 14.1793 4.86506 13.9198 5.07196 13.7303L8.98663 10.5009C9.17624 10.345 9.41135 10.2548 9.65662 10.244C9.90188 10.2332 10.144 10.3023 10.3466 10.4409L13.256 12.4409L17.4 8.60361C17.6201 8.40028 17.912 8.29272 18.2114 8.3046C18.5108 8.31648 18.7933 8.44682 18.9966 8.66695C19.2 8.88708 19.3075 9.17896 19.2956 9.4784C19.2838 9.77783 19.1534 10.0603 18.9333 10.2636L14.1253 14.7116C13.9363 14.8841 13.6946 14.9878 13.4393 15.0059C13.1841 15.0241 12.9302 14.9556 12.7186 14.8116L9.7653 12.7823L6.51196 15.4716V15.4729L6.51063 15.4716Z" fill="currentcolor"/>
    <path d="M20.04 0H3.96C2.90974 0 1.9025 0.417213 1.15986 1.15986C0.417213 1.9025 0 2.90974 0 3.96L0 20.04C0 21.0903 0.417213 22.0975 1.15986 22.8401C1.9025 23.5828 2.90974 24 3.96 24H20.04C21.0903 24 22.0975 23.5828 22.8401 22.8401C23.5828 22.0975 24 21.0903 24 20.04V3.96C24 2.90974 23.5828 1.9025 22.8401 1.15986C22.0975 0.417213 21.0903 0 20.04 0ZM20.04 2.04C21.0987 2.04 21.96 2.90267 21.96 3.96V20.04C21.96 21.0987 21.0987 21.96 20.04 21.96H3.96C2.90133 21.96 2.04 21.0987 2.04 20.04V3.96C2.04 2.90267 2.90133 2.04 3.96 2.04H20.04Z" fill="currentcolor"/>
  </g>
  <defs>
    <clipPath id="clip0_5470_4077">
      <rect width="24" height="24" fill="white"/>
    </clipPath>
  </defs>
</svg>

