<svg width="24" height="24" viewBox="0 0 24 24" fill="none" xmlns="http://www.w3.org/2000/svg">
  <g clip-path="url(#clip0_5809_50009)">
    <path d="M12 0.796875C12.8405 0.796875 13.6727 0.962416 14.4492 1.28405C15.2257 1.60568 15.9312 2.0771 16.5255 2.67139C17.1198 3.26569 17.5912 3.97122 17.9129 4.7477C18.2345 5.52419 18.4 6.35642 18.4 7.19688H19.2001C20.2609 7.19688 21.2783 7.6183 22.0285 8.36845C22.7786 9.11859 23.2 10.136 23.2 11.1969V19.1969C23.2 20.2577 22.7786 21.2752 22.0285 22.0253C21.2783 22.7754 20.2609 23.1969 19.2001 23.1969H4.80005C3.73918 23.1969 2.72177 22.7754 1.97162 22.0253C1.22148 21.2752 0.800049 20.2577 0.800049 19.1969V11.1969C0.800049 10.136 1.22148 9.11859 1.97162 8.36845C2.72177 7.6183 3.73918 7.19688 4.80005 7.19688H5.60005C5.60005 5.49949 6.27433 3.87162 7.47457 2.67139C8.6748 1.47116 10.3027 0.796875 12 0.796875ZM19.2001 8.79688H4.80005C4.16353 8.79688 3.55308 9.04973 3.10299 9.49982C2.65291 9.94991 2.40005 10.5604 2.40005 11.1969V19.1969C2.40005 19.8334 2.65291 20.4438 3.10299 20.8939C3.55308 21.344 4.16353 21.5969 4.80005 21.5969H19.2001C19.8366 21.5969 20.447 21.344 20.8971 20.8939C21.3472 20.4438 21.6 19.8334 21.6 19.1969V11.1969C21.6 10.5604 21.3472 9.94991 20.8971 9.49982C20.447 9.04973 19.8366 8.79688 19.2001 8.79688ZM12 11.3825C12.1873 11.3824 12.3686 11.448 12.5125 11.5679C12.6563 11.6878 12.7535 11.8543 12.7873 12.0385L12.8 12.1825V18.2129C12.8004 18.4128 12.7259 18.6056 12.5912 18.7533C12.4565 18.9011 12.2714 18.993 12.0723 19.0111C11.8732 19.0291 11.6746 18.972 11.5155 18.8509C11.3564 18.7298 11.2485 18.5536 11.2128 18.3569L11.2 18.2129V12.1809C11.2 12.0758 11.2207 11.9718 11.2609 11.8747C11.3011 11.7777 11.3601 11.6895 11.4344 11.6152C11.5087 11.5409 11.5968 11.482 11.6939 11.4418C11.791 11.4016 11.895 11.3809 12 11.3809V11.3825ZM15.2 16.1825C15.3873 16.1824 15.5686 16.248 15.7125 16.3679C15.8563 16.4878 15.9535 16.6543 15.9872 16.8385L16 16.9825V18.2129C16.0004 18.4128 15.9259 18.6056 15.7912 18.7533C15.6565 18.9011 15.4714 18.993 15.2723 19.0111C15.0732 19.0291 14.8746 18.972 14.7155 18.8509C14.5564 18.7298 14.4485 18.5536 14.4128 18.3569L14.4001 18.2129V16.9809C14.4001 16.8758 14.4207 16.7718 14.4609 16.6747C14.5011 16.5777 14.5601 16.4895 14.6344 16.4152C14.7087 16.3409 14.7968 16.282 14.8939 16.2418C14.991 16.2016 15.095 16.1809 15.2 16.1809V16.1825ZM8.80005 11.3825C8.98729 11.3824 9.16862 11.448 9.31246 11.5679C9.45631 11.6878 9.55355 11.8543 9.58725 12.0385L9.60005 12.1825V15.0129C9.60042 15.2128 9.52592 15.4056 9.39124 15.5533C9.25655 15.7011 9.07143 15.793 8.87233 15.8111C8.67324 15.8291 8.47459 15.772 8.31552 15.6509C8.15644 15.5298 8.04847 15.3536 8.01285 15.1569L8.00005 15.0129V12.1809C8.00005 12.0758 8.02074 11.9718 8.06095 11.8747C8.10115 11.7777 8.16008 11.6895 8.23436 11.6152C8.30865 11.5409 8.39684 11.482 8.4939 11.4418C8.59096 11.4016 8.69499 11.3809 8.80005 11.3809V11.3825ZM12 2.39688C10.727 2.39688 9.50611 2.90259 8.60594 3.80276C7.70576 4.70294 7.20005 5.92384 7.20005 7.19688H16.8C16.8001 5.97254 16.3323 4.79445 15.4924 3.90366C14.6525 3.01286 13.5039 2.4767 12.2817 2.40488L12 2.39688Z" fill="currentcolor"/>
  </g>
  <defs>
    <clipPath id="clip0_5809_50009">
      <rect width="24" height="24" fill="white"/>
    </clipPath>
  </defs>
</svg>

