<svg width="24" height="24" viewBox="0 0 24 24" fill="none" xmlns="http://www.w3.org/2000/svg">
  <path d="M1.56305 5.25032C1.56305 4.78424 2.08226 4.40648 2.72268 4.40648H21.2775C21.5698 4.40178 21.8564 4.48816 22.0975 4.65364C22.315 4.81204 22.4371 5.0265 22.4371 5.25032V18.7513C22.4371 18.9751 22.315 19.1897 22.0975 19.3479C21.8564 19.5134 21.5698 19.5998 21.2775 19.5951H2.72268C2.08226 19.5951 1.56305 19.2173 1.56305 18.7513V5.25032ZM0.40332 5.25032V18.7513C0.40332 19.1989 0.647688 19.6281 1.08266 19.9446C1.51764 20.2611 2.10751 20.439 2.72268 20.439H21.2775C21.8926 20.439 22.4826 20.2614 22.9176 19.9446C23.3526 19.6278 23.5969 19.1989 23.5969 18.7513V5.25032C23.5969 4.80272 23.3526 4.37346 22.9176 4.0569C22.4826 3.74034 21.8926 3.5625 21.2775 3.5625H2.72268C2.10756 3.5625 1.51788 3.7401 1.08266 4.0569C0.647448 4.3737 0.40332 4.80272 0.40332 5.25032Z" fill="currentcolor"/>
  <path d="M1.56305 15.7071V8.29392H22.4372V15.7071H1.56305ZM0.40332 16.6338H23.5969V7.36719H0.40332V16.6338Z" fill="currentcolor"/>
  <path d="M3.29498 13.6389C3.17256 13.639 3.0537 13.5977 2.95764 13.5218C2.86159 13.4459 2.79395 13.3398 2.76568 13.2207C2.73741 13.1016 2.75015 12.9764 2.80185 12.8654C2.85355 12.7544 2.94118 12.6642 3.05056 12.6092L6.04096 11.1075C6.15636 11.0496 6.28863 11.0346 6.41407 11.0653L9.75967 11.883L13.8829 10.5498C14.0193 10.5057 14.1677 10.5173 14.2957 10.582L17.5035 12.2046L20.3951 10.8305C20.4596 10.7996 20.5296 10.7818 20.601 10.778C20.6724 10.7742 20.7439 10.7845 20.8113 10.8084C20.8788 10.8323 20.9408 10.8693 20.9939 10.9172C21.0471 10.9651 21.0902 11.023 21.1209 11.0876C21.1516 11.1522 21.1693 11.2222 21.1728 11.2937C21.1764 11.3651 21.1659 11.4365 21.1418 11.5039C21.1178 11.5713 21.0806 11.6332 21.0326 11.6862C20.9845 11.7392 20.9265 11.7822 20.8618 11.8127L17.7291 13.3014C17.6541 13.337 17.572 13.355 17.489 13.354C17.406 13.3529 17.3244 13.3329 17.2503 13.2955L14.0043 11.6535L9.94754 12.9652C9.85165 12.9962 9.74903 12.9999 9.65114 12.976L6.35028 12.1693L3.53858 13.581C3.46302 13.6191 3.37959 13.6389 3.29498 13.6389Z" fill="currentcolor"/>
</svg>

