<svg width="12" height="12" viewBox="0 0 12 12" fill="none" xmlns="http://www.w3.org/2000/svg">
<path d="M10.0812 8.08425C9.72525 8.08425 9.43699 7.78392 9.43699 7.41427V4.54903C9.43699 4.17886 9.72525 3.87905 10.0812 3.87905C10.4372 3.87905 10.7255 4.17886 10.7255 4.54903V7.41427C10.7255 7.78392 10.4372 8.08425 10.0812 8.08425ZM8.32701 9.49823H7.83608C7.85235 9.55757 7.86181 9.61952 7.86181 9.6841V11.0981C7.86181 11.4683 7.57302 11.7681 7.21704 11.7681C6.86158 11.7681 6.57279 11.4683 6.57279 11.0981V9.6841C6.57279 9.61952 6.58223 9.55757 6.59852 9.49823H5.40138C5.41765 9.55757 5.42763 9.61952 5.42763 9.6841V11.0981C5.42763 11.4683 5.13885 11.7681 4.78286 11.7681C4.42688 11.7681 4.1381 11.4683 4.1381 11.0981V9.6841C4.1381 9.61952 4.14753 9.55757 4.16381 9.49823H3.67288C3.298 9.49823 2.99293 9.1811 2.99293 8.79099V3.87905H9.00697V8.79097C9.00697 9.1811 8.70243 9.49823 8.32701 9.49823ZM4.52138 1.19863L4.40061 1.0096L4.2809 0.82373L4.01312 0.40578C3.98057 0.354853 3.99371 0.28555 4.04306 0.251425C4.09242 0.216767 4.15908 0.230945 4.19217 0.282392L4.47938 0.730282L4.60014 0.918243L4.72247 1.10883C5.1105 0.952902 5.54314 0.86521 5.99995 0.86521C6.45675 0.86521 6.88992 0.952902 7.27794 1.10884L7.40028 0.918243L7.52104 0.730269L7.80826 0.282392C7.8408 0.230945 7.90749 0.216767 7.95736 0.251411C8.0062 0.28555 8.01984 0.354853 7.98677 0.40578L7.71899 0.82373L7.5998 1.0096L7.47852 1.19863C8.39054 1.63968 9.00697 2.47558 9.00697 3.43275H2.99293C2.99293 2.47558 3.60987 1.63968 4.52138 1.19863ZM7.28897 2.53963C7.46697 2.53963 7.61082 2.38946 7.61082 2.20464C7.61082 2.01981 7.46697 1.87017 7.28897 1.87017C7.11097 1.87017 6.96659 2.01981 6.96659 2.20464C6.96659 2.38946 7.11097 2.53963 7.28897 2.53963ZM4.71146 2.53963C4.88945 2.53963 5.03332 2.38946 5.03332 2.20464C5.03332 2.01981 4.88945 1.87017 4.71146 1.87017C4.53345 1.87017 4.38907 2.01981 4.38907 2.20464C4.38907 2.38946 4.53345 2.53963 4.71146 2.53963ZM1.91866 8.08425C1.56267 8.08425 1.27441 7.7839 1.27441 7.41426V4.54903C1.27441 4.17886 1.56267 3.87905 1.91866 3.87905C2.27465 3.87905 2.56343 4.17886 2.56343 4.54903V7.41427C2.56343 7.78392 2.27465 8.08425 1.91866 8.08425Z" fill="currentColor"/>
</svg>
 