<svg width="12" height="12" viewBox="0 0 12 12" fill="none" xmlns="http://www.w3.org/2000/svg">
<path d="M7.21772 2.15428C7.59041 1.67419 7.87278 0.996352 7.77106 0.304688C7.16074 0.346992 6.44874 0.735961 6.03375 1.24208C5.65453 1.70104 5.34289 2.38294 5.46414 3.04532C6.1314 3.06647 6.81818 2.66856 7.21772 2.15428ZM10.5101 8.66332C10.2432 9.25489 10.1154 9.52016 9.77201 10.0442C9.29189 10.7766 8.61651 11.6879 7.77918 11.6945C7.03542 11.7026 6.84339 11.2095 5.83437 11.2152C4.82535 11.2209 4.61379 11.7042 3.86922 11.6969C3.0319 11.6887 2.3923 10.8669 1.91302 10.1345C0.572815 8.08882 0.432049 5.68751 1.25798 4.40995C1.84629 3.50346 2.77314 2.97373 3.64463 2.97373C4.5316 2.97373 5.089 3.46114 5.8238 3.46114C6.53581 3.46114 6.96952 2.97291 7.99481 2.97291C8.77112 2.97291 9.5938 3.39606 10.1797 4.12841C8.26008 5.18218 8.57094 7.92851 10.51 8.66412V8.66332H10.5101Z" fill="currentColor"/>
</svg>
