<svg width="18" height="20" viewBox="0 0 18 20" fill="none" xmlns="http://www.w3.org/2000/svg">
  <path d="M15.3903 9.79297C15.3872 9.41701 15.3552 9.04184 15.2947 8.67078L15.3003 8.71297L17.5953 7.02547L15.5928 3.56047L12.9904 4.70066C12.441 4.25131 11.8238 3.89209 11.1617 3.63641L11.1156 3.62066L10.8003 0.792969H6.79528L6.48028 3.62066C5.76197 3.89628 5.14153 4.26078 4.59309 4.71022L4.60491 4.70066L2.0025 3.56047L0 7.02547L2.295 8.71297C2.23744 9.06901 2.20735 9.42894 2.205 9.78959V9.79297C2.20837 10.1772 2.241 10.5507 2.30062 10.9152L2.295 10.873L0 12.5605L2.0025 16.0255L4.60519 14.8853C5.15456 15.3346 5.77181 15.6938 6.43387 15.9495L6.48 15.9653L6.795 18.793H10.8L11.115 15.9653C11.8333 15.6897 12.4537 15.3252 13.0022 14.8757L12.9904 14.8853L15.5931 16.0255L17.5956 12.5605L15.3006 10.873C15.3546 10.5507 15.3872 10.1772 15.3906 9.79634V9.79297H15.3903ZM8.79778 12.2303C8.31575 12.2302 7.84458 12.0871 7.44384 11.8192C7.0431 11.5514 6.73079 11.1707 6.5464 10.7253C6.36201 10.2799 6.31382 9.78988 6.40793 9.31713C6.50204 8.84437 6.73422 8.41014 7.0751 8.06933C7.41599 7.72852 7.85028 7.49645 8.32305 7.40245C8.79583 7.30845 9.28586 7.35675 9.73119 7.54124C10.1765 7.72573 10.5571 8.03813 10.8249 8.43893C11.0927 8.83973 11.2357 9.31094 11.2357 9.79297C11.2312 11.1373 10.1427 12.2263 8.79834 12.2303H8.79778Z" fill="currentcolor"/>
</svg>
