<svg width="24" height="25" viewBox="0 0 24 25" fill="none" xmlns="http://www.w3.org/2000/svg">
  <g clip-path="url(#clip0_5470_13185)">
    <path d="M9.46059 22.9439L5.70834 24.8144C5.59117 24.8715 5.46361 24.9042 5.3334 24.9106C5.20319 24.9169 5.07306 24.8966 4.95092 24.8511C4.82878 24.8055 4.71718 24.7356 4.62291 24.6456C4.52863 24.5555 4.45366 24.4473 4.40253 24.3273C4.34011 24.1889 4.30787 24.0388 4.30795 23.8869V19.8241L3.23931 19.1804C2.89067 18.9633 2.60368 18.6602 2.40592 18.3003C2.20815 17.9404 2.10623 17.5356 2.10996 17.1249V7.90102C2.10996 7.05401 2.54194 6.27052 3.24213 5.84561L10.8596 1.23364C11.5598 0.810139 12.4223 0.810139 13.1225 1.23364L20.7413 5.84561C21.4415 6.26911 21.8735 7.0526 21.8735 7.90102V17.1249C21.8735 17.972 21.4415 18.7554 20.7413 19.1789L20.0637 19.5897V23.8855C20.0637 24.453 19.6233 24.9132 19.0812 24.9132C18.9346 24.913 18.7901 24.8787 18.6591 24.813L14.7078 22.831L13.1225 23.7909C12.4223 24.2144 11.5598 24.2144 10.8596 23.7909L9.46059 22.9439ZM5.54176 20.5723V23.4662L8.16184 22.1576L5.54176 20.5709V20.5723ZM16.0037 22.0461L18.8271 23.4634V20.3365L16.0037 22.0475V22.0461ZM12.5056 2.35593C12.3508 2.26168 12.173 2.21182 11.9917 2.21182C11.8105 2.21182 11.6327 2.26168 11.4779 2.35593L3.85904 6.96789C3.70049 7.06659 3.56997 7.20436 3.47998 7.36801C3.39 7.53166 3.34359 7.71568 3.34518 7.90243V17.1249C3.34518 17.5103 3.54141 17.8661 3.85904 18.0595L11.4779 22.6714C11.6327 22.7657 11.8105 22.8155 11.9917 22.8155C12.173 22.8155 12.3508 22.7657 12.5056 22.6714L20.1244 18.0595C20.283 17.9608 20.4135 17.823 20.5035 17.6594C20.5935 17.4957 20.6399 17.3117 20.6383 17.1249V7.90243C20.6399 7.71568 20.5935 7.53166 20.5035 7.36801C20.4135 7.20436 20.283 7.06659 20.1244 6.96789L12.5056 2.35593ZM5.39636 9.54845H6.465L8.3016 15.1655H8.32983L10.1565 9.54704H11.2252L8.90721 16.3231H7.71434L5.39636 9.54704V9.54845ZM11.9226 9.54845H12.9009V16.3245H11.9226V9.54845ZM14.1855 9.54845H16.8649C18.4036 9.54845 19.1744 10.2303 19.1744 11.6067C19.1744 12.993 18.3951 13.6861 16.8479 13.6861H15.1723V16.3245H14.1855V9.54845ZM15.1737 10.4307V12.8024H16.783C17.2728 12.8024 17.6258 12.7078 17.8516 12.5186C18.069 12.328 18.1862 12.0245 18.1862 11.6067C18.1862 11.1888 18.069 10.8867 17.8432 10.7159C17.6173 10.5253 17.2644 10.4307 16.7844 10.4307H15.1723H15.1737Z" fill="currentcolor" stroke="currentcolor" stroke-width="0.2"/>
  </g>
  <defs>
    <clipPath id="clip0_5470_13185">
      <rect width="24" height="24" fill="white" transform="translate(0 0.916016)"/>
    </clipPath>
  </defs>
</svg>




