<svg width="26" height="26" viewBox="0 0 26 26" fill="none" xmlns="http://www.w3.org/2000/svg">
  <path d="M21.125 1.625H4.875C3.98125 1.625 3.25 2.35625 3.25 3.25V22.75C3.25 23.6437 3.98125 24.375 4.875 24.375H21.125C22.0187 24.375 22.75 23.6437 22.75 22.75V3.25C22.75 2.35625 22.0187 1.625 21.125 1.625ZM21.125 21.9375C21.125 22.3844 20.7594 22.75 20.3125 22.75H5.6875C5.24063 22.75 4.875 22.3844 4.875 21.9375V4.0625C4.875 3.61563 5.24063 3.25 5.6875 3.25H20.3125C20.7594 3.25 21.125 3.61563 21.125 4.0625V21.9375Z" fill="currentcolor"/>
  <path d="M17.0752 1.64844H8.9502C8.50332 1.64844 8.1377 2.01406 8.1377 2.46094V6.52344C8.1377 6.97031 8.50332 7.33594 8.9502 7.33594H17.0752C17.5221 7.33594 17.8877 6.97031 17.8877 6.52344V2.46094C17.8877 2.01406 17.5221 1.64844 17.0752 1.64844ZM16.2627 4.89844C16.2627 5.34531 15.8971 5.71094 15.4502 5.71094H10.5752C10.1283 5.71094 9.7627 5.34531 9.7627 4.89844V4.08594C9.7627 3.63906 10.1283 3.27344 10.5752 3.27344H15.4502C15.8971 3.27344 16.2627 3.63906 16.2627 4.08594V4.89844ZM13 16.2506C12.5531 16.2506 12.1875 16.6162 12.1875 17.0631V20.3131C12.1875 20.76 12.5531 21.1256 13 21.1256C13.4469 21.1256 13.8125 20.76 13.8125 20.3131V17.0631C13.8125 16.6162 13.4469 16.2506 13 16.2506ZM17.875 14.6256C17.4281 14.6256 17.0625 14.9912 17.0625 15.4381V20.3131C17.0625 20.76 17.4281 21.1256 17.875 21.1256C18.3219 21.1256 18.6875 20.76 18.6875 20.3131V15.4381C18.6875 14.9912 18.3219 14.6256 17.875 14.6256ZM8.125 17.8756C7.67812 17.8756 7.3125 18.2412 7.3125 18.6881V20.3131C7.3125 20.76 7.67812 21.1256 8.125 21.1256C8.57187 21.1256 8.9375 20.76 8.9375 20.3131V18.6881C8.9375 18.2412 8.57187 17.8756 8.125 17.8756ZM18.2279 12.1551L18.5732 9.74297C18.6367 9.30117 18.327 8.99141 17.8826 9.05234L15.4705 9.39766C15.0287 9.46113 14.9246 9.7709 15.2395 10.0883L15.8311 10.6799L13.2971 13.2139L11.5883 11.5051C11.5857 11.5025 11.5832 11.4975 11.5781 11.4949L11.568 11.4848C11.5654 11.4822 11.5604 11.4797 11.5578 11.4746C11.2861 11.2105 10.8697 11.1775 10.56 11.3756C10.5117 11.4061 10.4686 11.4416 10.4279 11.4822L7.54863 14.3666C7.23633 14.6789 7.23633 15.1918 7.54863 15.5066L7.55879 15.5168C7.87109 15.8291 8.38398 15.8291 8.69883 15.5168L11.0018 13.2139L12.6115 14.8236L12.774 14.9861C12.8172 15.0293 12.8629 15.0648 12.9137 15.0953C13.2006 15.268 13.5814 15.2324 13.8277 14.9861L13.8633 14.9506L13.9217 14.8922L16.9838 11.8301L17.5398 12.3861C17.8547 12.701 18.1645 12.5969 18.2279 12.1551Z" fill="currentcolor"/>
</svg>









