<svg width="24" height="24" viewBox="0 0 24 24" fill="none" xmlns="http://www.w3.org/2000/svg">
  <g clip-path="url(#clip0_5512_599)">
    <path d="M5.34231 0L18.6568 0.00738462C19.6691 0.000265734 20.6461 0.379355 21.3887 1.06743C22.1313 1.75551 22.5837 2.70081 22.6537 3.71077L22.6592 3.94523V13.3255C22.6596 13.551 22.5782 13.7689 22.4302 13.9389C22.2822 14.109 22.0776 14.2197 21.8543 14.2505L21.7269 14.2597C21.5015 14.2595 21.2838 14.1777 21.1141 14.0294C20.9444 13.881 20.8342 13.6763 20.8038 13.4529L20.7946 13.3255V3.94523C20.7869 3.42038 20.5831 2.9174 20.2234 2.53513C19.8637 2.15287 19.374 1.91896 18.8506 1.87938L18.6568 1.872L5.34231 1.86646C4.81715 1.86049 4.30852 2.04988 3.91517 2.39786C3.52181 2.74584 3.27181 3.22758 3.21369 3.74954L3.20631 3.936V20.0548C3.21399 20.5793 3.41747 21.0821 3.77681 21.4643C4.13614 21.8465 4.62538 22.0806 5.14846 22.1206L5.34231 22.128L11.9995 22.1317C12.1242 22.1167 12.2507 22.127 12.3713 22.1621C12.4919 22.1972 12.6042 22.2563 12.7014 22.3358C12.7986 22.4154 12.8787 22.5137 12.9369 22.625C12.9952 22.7363 13.0303 22.8582 13.0403 22.9834C13.0502 23.1086 13.0348 23.2346 12.9949 23.3536C12.955 23.4727 12.8914 23.5825 12.808 23.6764C12.7246 23.7703 12.623 23.8464 12.5095 23.9001C12.396 23.9538 12.2727 23.984 12.1472 23.9889H18.9688L18.8894 23.9926L18.6568 24L12.0549 23.9963L11.9995 24H11.946L5.34415 23.9926C4.33179 23.9997 3.3548 23.6206 2.61218 22.9326C1.86957 22.2445 1.4172 21.2992 1.34723 20.2892L1.33984 20.0548V3.93785C1.34796 2.92549 1.74261 1.95449 2.44304 1.22351C3.14348 0.492537 4.09675 0.0568318 5.10784 0.00553847L5.34231 0ZM19.8198 17.3908L19.9362 17.4905L22.386 19.9385C22.543 20.095 22.639 20.3023 22.6569 20.5232C22.6749 20.7441 22.6135 20.9642 22.4838 21.144L22.386 21.2603L19.9362 23.7083L19.8198 23.808C19.6614 23.9218 19.4712 23.9829 19.2762 23.9829C19.0811 23.9829 18.8909 23.9218 18.7325 23.808L18.6161 23.7083L18.5183 23.5938C18.4041 23.4352 18.3427 23.2447 18.3427 23.0492C18.3427 22.8538 18.4041 22.6633 18.5183 22.5046L18.6161 22.3902L19.4746 21.5317H14.7706C14.5327 21.5339 14.303 21.4451 14.1284 21.2835C13.9539 21.1219 13.8477 20.8997 13.8317 20.6623C13.8156 20.425 13.8909 20.1904 14.0421 20.0068C14.1934 19.8232 14.4091 19.7043 14.6451 19.6745L14.7706 19.6652H19.4765L18.6161 18.8086C18.4477 18.6436 18.3481 18.4209 18.3373 18.1854C18.3265 17.9499 18.4053 17.719 18.5579 17.5393C18.7105 17.3595 18.9255 17.2443 19.1596 17.2167C19.3938 17.1892 19.6297 17.2514 19.8198 17.3908ZM16.3675 4.27015C16.5415 4.44428 16.6392 4.68034 16.6392 4.92646C16.6392 5.17259 16.5415 5.40865 16.3675 5.58277L13.8457 8.10092H17.0174C17.2639 8.10092 17.5003 8.19886 17.6747 8.37318C17.849 8.5475 17.9469 8.78393 17.9469 9.03046C17.9469 9.27699 17.849 9.51342 17.6747 9.68774C17.5003 9.86207 17.2639 9.96 17.0174 9.96H12.9522V12.0831H17.0672C17.3135 12.0831 17.5497 12.1809 17.7239 12.3551C17.898 12.5292 17.9958 12.7654 17.9958 13.0117C17.9958 13.258 17.898 13.4942 17.7239 13.6683C17.5497 13.8425 17.3135 13.9403 17.0672 13.9403H12.9522V18.0554C12.9522 18.3017 12.8543 18.5379 12.6802 18.712C12.506 18.8862 12.2698 18.984 12.0235 18.984C11.7773 18.984 11.5411 18.8862 11.3669 18.712C11.1928 18.5379 11.0949 18.3017 11.0949 18.0554V13.9385H6.97984C6.73356 13.9385 6.49736 13.8406 6.32321 13.6665C6.14906 13.4923 6.05123 13.2561 6.05123 13.0098C6.05123 12.7636 6.14906 12.5274 6.32321 12.3532C6.49736 12.1791 6.73356 12.0812 6.97984 12.0812H11.0949V9.95815H6.93184C6.68556 9.95815 6.44936 9.86032 6.27521 9.68617C6.10106 9.51202 6.00323 9.27582 6.00323 9.02954C6.00323 8.78325 6.10106 8.54706 6.27521 8.37291C6.44936 8.19876 6.68556 8.10092 6.93184 8.10092H10.2069L7.69061 5.58277C7.52127 5.41869 7.42069 5.19634 7.40927 4.96082C7.39786 4.72531 7.47646 4.49427 7.62914 4.31458C7.78181 4.13489 7.99713 4.02001 8.2314 3.99324C8.46567 3.96648 8.70134 4.02984 8.89061 4.17046L9.00507 4.27015L12.0254 7.29231L15.0512 4.26831C15.1375 4.1819 15.2399 4.11334 15.3527 4.06657C15.4655 4.0198 15.5864 3.99572 15.7085 3.99572C15.8305 3.99572 15.9514 4.0198 16.0642 4.06657C16.177 4.11334 16.2794 4.1819 16.3657 4.26831L16.3675 4.27015Z" fill="currentcolor"/>
  </g>
  <defs>
    <clipPath id="clip0_5512_599">
      <rect width="24" height="24" fill="white"/>
    </clipPath>
  </defs>
</svg>








