<svg width="18" height="18" viewBox="0 0 18 18" fill="none" xmlns="http://www.w3.org/2000/svg">
<path d="M3.74249 2.86752C3.52735 2.86752 3.32102 2.95308 3.16889 3.10537C3.01676 3.25767 2.93129 3.46422 2.93129 3.67959V13.4176C2.93129 13.8662 3.2944 14.2287 3.74249 14.2287H13.4807C13.5873 14.2289 13.6929 14.208 13.7915 14.1672C13.89 14.1265 13.9795 14.0667 14.0549 13.9912C14.1304 13.9158 14.1902 13.8263 14.231 13.7277C14.2719 13.6291 14.2929 13.5234 14.2929 13.4167V3.67959C14.2926 3.46439 14.2071 3.25808 14.0549 3.106C13.9028 2.95391 13.6967 2.86849 13.4817 2.86849H3.74249V2.86752ZM3.54645 1.79443H13.6787C14.6116 1.79443 15.3668 2.55043 15.3668 3.48238V13.6158C15.3668 14.5478 14.6116 15.3038 13.6787 15.3038H3.54645C3.32482 15.304 3.1053 15.2606 2.90046 15.1759C2.69561 15.0912 2.50944 14.9669 2.35259 14.8101C2.19573 14.6534 2.07127 14.4672 1.98631 14.2623C1.90134 14.0574 1.85755 13.8377 1.85742 13.6158V3.48238C1.85742 2.54946 2.61357 1.79443 3.54645 1.79443ZM12.0148 9.09531H5.22389C5.08011 9.0948 4.94236 9.0374 4.84069 8.93562C4.73901 8.83384 4.68167 8.69594 4.68116 8.552C4.68116 8.25231 4.92549 8.00772 5.22389 8.00772H12.0148C12.3132 8.00772 12.5575 8.25328 12.5575 8.552C12.5575 8.85169 12.3132 9.09628 12.0148 9.09628V9.09531ZM8.07564 11.9511V5.15292C8.07564 4.85419 8.32093 4.6096 8.61933 4.6096C8.9187 4.6096 9.16303 4.85419 9.16303 5.15292V11.9511C9.16303 12.2498 8.91774 12.4944 8.61933 12.4944C8.47538 12.4941 8.33738 12.4369 8.2355 12.335C8.13362 12.2332 8.07615 12.0952 8.07564 11.9511Z" fill="#6D7693"/>
</svg>
