<svg width="56" height="56" viewBox="0 0 56 56" fill="none" xmlns="http://www.w3.org/2000/svg">
<path d="M38.6162 7.5C45.058 7.50011 50.4999 13.0439 50.5 20.1406C50.5 24.2237 48.7056 27.038 46.9004 29.7705L46.8467 29.8486L46.832 29.8711L46.8164 29.8936C44.4208 33.5266 40.1026 37.7355 36.1611 41.1807C32.2684 44.5833 28.9493 47.0658 28.7207 47.2344L28.6982 47.25L28.6768 47.2666C28.469 47.4268 28.2512 47.5 28.0156 47.5C27.731 47.5 27.5287 47.4275 27.334 47.2754C26.9261 46.9558 23.6802 44.5246 19.8369 41.1689C15.8948 37.7269 11.5785 33.5256 9.18359 29.8936L9.17969 29.8887L8.52441 28.8906C6.9909 26.5164 5.5 23.794 5.5 20.1406C5.50007 13.0476 10.9698 7.50012 17.3838 7.5C20.6711 7.5 23.8465 8.94953 26.1445 11.5439L28.0352 13.6787L29.9043 11.5244C32.1576 8.92626 35.2876 7.5 38.6162 7.5Z" stroke="#9DABC8" stroke-width="5"/>
</svg>
