<svg width="56" height="56" viewBox="0 0 56 56" fill="none" xmlns="http://www.w3.org/2000/svg">
<g clip-path="url(#clip0_19208_570)">
<path d="M23.5171 0H34.1557C35.0306 0.0629921 35.9055 0.143482 36.7804 0.188976C39.713 0.339458 40.7419 1.38933 40.8469 4.35346V51.1916C40.868 51.8929 40.8364 52.5948 40.7524 53.2913C40.4724 55.1741 39.671 55.811 37.7498 55.8355C35.3351 55.874 32.9239 55.944 30.5127 56H17.0779C16.4111 55.6143 15.8708 55.0431 15.5229 54.3559C15.1749 53.6687 15.0343 52.8952 15.1181 52.1295C15.1426 48.5833 15.1426 45.037 15.1181 41.4908V4.96588C15.1181 1.35433 16.273 0.206474 19.8775 0.16098C21.1129 0.146982 22.3132 0.055993 23.5171 0ZM30.5372 23.9265L29.1689 25.5468C26.8043 28.2684 25.2309 31.586 24.6194 35.1391C24.308 36.9519 24.7244 37.4453 26.5197 37.5398C27.727 37.6028 28.9344 37.6308 30.1417 37.6868C30.3165 37.7128 30.4949 37.6998 30.6641 37.6487C30.8332 37.5976 30.989 37.5097 31.1201 37.3912C31.2513 37.2728 31.3546 37.1268 31.4226 36.9637C31.4906 36.8006 31.5217 36.6245 31.5136 36.4479C31.601 35.6395 31.6325 34.7682 31.7515 33.9493C32.3367 30.4038 33.6588 27.0204 35.6325 24.0175C37.3823 21.2178 36.3325 19.0831 33.0499 18.9501C29.3508 18.7997 25.6168 18.8976 21.8968 18.9921C20.294 19.0306 19.895 19.5521 19.8495 21.1864C19.8285 22.0717 19.8495 22.9571 19.8705 23.839C19.8705 24.5809 19.5206 25.4418 20.6894 25.7568C22.6912 26.3132 23.7515 26.1452 24.3535 24.9939C24.5941 24.4296 25.0236 23.9666 25.5682 23.6844C26.1129 23.4022 26.7388 23.3183 27.3386 23.4471L30.5372 23.916V23.9265ZM20.1785 5.06387C21.0058 6.57237 22.2651 7.79917 23.7947 8.58674C25.3243 9.37431 27.0544 9.68671 28.7629 9.48381C30.2129 9.48496 31.6327 9.06883 32.8526 8.28509C34.0726 7.50136 35.0413 6.38313 35.643 5.06387H20.1785ZM35.5556 51.3386C34.858 49.9456 33.759 48.7937 32.4004 48.0314C31.0418 47.2691 29.4859 46.9315 27.9335 47.0621C26.4118 46.9561 24.893 47.3063 23.5713 48.0681C22.2497 48.8299 21.1854 49.9686 20.5144 51.3386H35.5556ZM0 10.6387C0.860892 7.972 1.13736 7.76203 3.95101 7.75503H12.2485V11.1706H3.94751C4.74541 13.8338 7.50306 14.8101 12.2975 14.1767V21.3473H8.61942C7.59405 21.3473 6.56518 21.3193 5.53981 21.3788C3.74453 21.4768 3.46807 21.7953 3.47157 23.601C3.45566 23.8815 3.46739 24.1628 3.50656 24.4409C3.64304 25.1199 2.98513 26.1207 4.26947 26.3517C5.31933 26.5407 6.30271 26.8906 7.03412 25.5468C7.31409 25.0359 8.31846 24.7874 9.02887 24.6929C9.77044 24.7098 10.5063 24.8276 11.2161 25.0429C10.6378 25.6608 10.1242 26.3362 9.68329 27.0586C8.6946 28.9881 7.82167 30.9747 7.06912 33.0079C6.58618 34.4077 7.06912 34.8766 8.54943 34.9676C9.06037 34.9956 9.5993 34.9116 10.0857 34.9886C11.4576 35.1951 12.3255 34.8556 12.245 33.2598V42.2292C10.7302 41.6881 9.07888 41.6642 7.54911 42.1613C6.01935 42.6583 4.69742 43.6483 3.79003 44.9764H12.189V48.203H8.8119C6.90114 48.203 4.96238 48.084 3.07961 48.238C2.74247 48.3175 2.3926 48.327 2.05164 48.2659C1.71067 48.2048 1.38585 48.0745 1.09723 47.883C0.808618 47.6915 0.562341 47.4428 0.373619 47.1523C0.184897 46.8618 0.0577389 46.5358 0 46.1942L0 10.6387ZM55.993 45.6343C55.2441 48.189 55.2441 48.189 52.5949 48.189H43.846V45.1094H51.9405C51.2406 42.5372 48.5459 41.6098 43.839 42.2082C43.8075 41.8058 43.755 41.4068 43.755 41.0079V27.1566C43.755 25.0849 44.5809 24.4304 46.6632 24.8049C47.1601 24.8959 47.657 24.9519 48.308 25.0464C47.958 25.4803 47.72 25.8513 47.4296 26.1872C45.7168 28.2327 44.5416 30.6733 44.0105 33.2878C43.783 34.2817 44.182 34.8591 45.1514 34.9466C46.1253 35.0555 47.1077 35.0673 48.084 34.9816C48.2948 34.9219 48.4878 34.8116 48.6464 34.6603C48.8049 34.5091 48.9242 34.3215 48.9939 34.1137C49.3214 30.7621 50.4418 27.5365 52.2625 24.7034C52.5118 24.4078 52.6672 24.0444 52.7087 23.6599C52.7503 23.2754 52.6761 22.8872 52.4956 22.5451C52.3152 22.203 52.0367 21.9226 51.6959 21.7397C51.3551 21.5569 50.9675 21.48 50.5827 21.5188C48.3639 21.3578 46.1207 21.4838 43.7865 21.4838V14.2257C45.332 14.7756 47.0189 14.7811 48.5679 14.2415C50.117 13.7018 51.4352 12.6492 52.3045 11.2581H43.797V7.73053H48.014C49.3648 7.73053 50.7192 7.73053 52.07 7.75503C54.9221 7.77603 55.1496 7.95451 55.9895 10.6387L55.993 45.6343Z" fill="currentColor"/>
</g>
<defs>
<clipPath id="clip0_19208_570">
<rect width="56" height="56" fill="currentColor"/>
</clipPath>
</defs>
</svg>
