<svg width="14" height="14" viewBox="0 0 14 14" fill="none" xmlns="http://www.w3.org/2000/svg">
<g clip-path="url(#clip0_577_544)">
<path d="M14 7C14 10.866 10.866 14 7 14C3.13396 14 0 10.866 0 7C0 3.13396 3.13396 0 7 0C10.866 0 14 3.13396 14 7Z" fill="#26A17B"/>
<path d="M7.84048 7.60417V7.6033C7.79236 7.6068 7.5443 7.62167 6.99086 7.62167C6.54898 7.62167 6.23792 7.60855 6.12855 7.6033V7.60461C4.42755 7.5298 3.15792 7.23361 3.15792 6.87923C3.15792 6.5253 4.42755 6.22911 6.12855 6.15298V7.30973C6.23967 7.31761 6.55817 7.33642 6.9983 7.33642C7.52621 7.33642 7.79105 7.31455 7.84048 7.31017V6.15386C9.53798 6.22955 10.8045 6.52573 10.8045 6.87923C10.8045 7.23361 9.53798 7.52892 7.84048 7.60417ZM7.84048 6.03355V4.99842H10.2091V3.41992H3.75992V4.99842H6.12855V6.03311C4.20355 6.12148 2.75586 6.50298 2.75586 6.95973C2.75586 7.41648 4.20355 7.79755 6.12855 7.88636V11.2035H7.84048V7.88548C9.76242 7.79711 11.2066 7.41605 11.2066 6.95973C11.2066 6.50342 9.76242 6.12236 7.84048 6.03355Z" fill="white"/>
</g>
<defs>
<clipPath id="clip0_577_544">
<rect width="14" height="14" fill="white"/>
</clipPath>
</defs>
</svg>
