<svg width="16" height="16" viewBox="0 0 16 16" fill="none" xmlns="http://www.w3.org/2000/svg">
<path d="M15.2643 12.8619C15.2643 13.0645 15.2297 13.2539 15.1603 13.4299C15.091 13.6059 14.9923 13.7605 14.8643 13.8939C14.7363 14.0272 14.587 14.1312 14.4163 14.2059C14.2457 14.2805 14.059 14.3179 13.8563 14.3179H2.24033C2.03766 14.3179 1.84566 14.2805 1.66433 14.2059C1.48299 14.1312 1.32299 14.0272 1.18433 13.8939C1.04566 13.7605 0.936328 13.6059 0.856328 13.4299C0.776328 13.2539 0.736328 13.0645 0.736328 12.8619V4.87787C0.736328 4.47254 0.877661 4.12854 1.16033 3.84587C1.44299 3.56321 1.78699 3.42188 2.19233 3.42188H13.8083C14.2137 3.42188 14.5577 3.56321 14.8403 3.84587C15.123 4.12854 15.2643 4.47254 15.2643 4.87787V7.05387H11.6323C11.227 7.05387 10.883 7.19254 10.6003 7.46987C10.3177 7.74721 10.1763 8.08854 10.1763 8.49387C10.187 8.77121 10.2457 9.01654 10.3523 9.22987C10.4377 9.41121 10.579 9.57654 10.7763 9.72587C10.9737 9.87521 11.259 9.94987 11.6323 9.94987H15.2643V12.8619Z" fill="currentColor"/>
<path d="M5.82422 2.68575H13.0882L12.1602 0.909748C11.9896 0.717748 11.7869 0.563082 11.5522 0.445748C11.3496 0.360415 11.1016 0.309748 10.8082 0.293748C10.5149 0.277748 10.1816 0.371082 9.80822 0.573748C9.56289 0.701748 9.22155 0.883081 8.78422 1.11775C8.34689 1.35241 7.90422 1.58708 7.45622 1.82175C6.94422 2.09908 6.40022 2.38708 5.82422 2.68575Z" fill="#B3BEC1"/>
<path d="M5.82422 2.68575H13.0882L12.1602 0.909748C11.9896 0.717748 11.7869 0.563082 11.5522 0.445748C11.3496 0.360415 11.1016 0.309748 10.8082 0.293748C10.5149 0.277748 10.1816 0.371082 9.80822 0.573748C9.56289 0.701748 9.22155 0.883081 8.78422 1.11775C8.34689 1.35241 7.90422 1.58708 7.45622 1.82175C6.94422 2.09908 6.40022 2.38708 5.82422 2.68575Z" fill="currentColor"/>
<path d="M11.1202 7.98175C10.9816 8.12042 10.9122 8.29108 10.9122 8.49375C10.9122 8.69641 10.9816 8.86975 11.1202 9.01375C11.2589 9.15775 11.4296 9.22975 11.6322 9.22975C11.8349 9.22975 12.0056 9.15775 12.1442 9.01375C12.2829 8.86975 12.3522 8.69641 12.3522 8.49375C12.3522 8.29108 12.2829 8.12042 12.1442 7.98175C12.0056 7.84308 11.8349 7.77375 11.6322 7.77375C11.4296 7.77375 11.2589 7.84308 11.1202 7.98175Z" fill="currentColor"/>
<path d="M11.1202 7.98175C10.9816 8.12042 10.9122 8.29108 10.9122 8.49375C10.9122 8.69641 10.9816 8.86975 11.1202 9.01375C11.2589 9.15775 11.4296 9.22975 11.6322 9.22975C11.8349 9.22975 12.0056 9.15775 12.1442 9.01375C12.2829 8.86975 12.3522 8.69641 12.3522 8.49375C12.3522 8.29108 12.2829 8.12042 12.1442 7.98175C12.0056 7.84308 11.8349 7.77375 11.6322 7.77375C11.4296 7.77375 11.2589 7.84308 11.1202 7.98175Z" fill="currentColor"/>
</svg>
