<svg width="16" height="16" viewBox="0 0 16 16" fill="none" xmlns="http://www.w3.org/2000/svg">
<g clip-path="url(#clip0_4328_1200)">
<path d="M13.6817 3.75177H14.4617V2.09234H8.664V0.652344H6.99771V2.09234H1.18629V3.75177H2.31257L0 9.3632C0 10.208 0.335607 11.0183 0.93299 11.6156C1.53037 12.213 2.3406 12.5486 3.18543 12.5486C4.03026 12.5486 4.84048 12.213 5.43787 11.6156C6.03525 11.0183 6.37086 10.208 6.37086 9.3632L4.05714 3.75177H6.98971V13.6878H4.664V15.3472H10.9554V13.6878H8.66286V3.75177H11.9411L9.62857 9.3632C9.62857 10.208 9.96418 11.0183 10.5616 11.6156C11.1589 12.213 11.9692 12.5486 12.814 12.5486C13.6588 12.5486 14.4691 12.213 15.0664 11.6156C15.6638 11.0183 15.9994 10.208 15.9994 9.3632L13.6811 3.75177H13.6817ZM1.33314 9.3632L3.18686 4.8912L5.02629 9.36263H1.33371L1.33314 9.3632ZM10.956 9.3632L12.796 4.8912L14.6617 9.36263H10.9566L10.956 9.3632Z" fill="#9DABC8"/>
</g>
<defs>
<clipPath id="clip0_4328_1200">
<rect width="16" height="16" fill="white"/>
</clipPath>
</defs>
</svg>
