<svg width="17" height="17" viewBox="0 0 17 17" fill="none" xmlns="http://www.w3.org/2000/svg">
<g clip-path="url(#clip0_4328_1462)">
<path d="M8.06445 6.27261C7.75495 6.27745 7.44758 6.22068 7.16023 6.10559C6.87288 5.9905 6.6113 5.81939 6.39071 5.60223C6.17013 5.38507 5.99495 5.1262 5.87538 4.84068C5.7558 4.55517 5.69422 4.24872 5.69422 3.93918C5.69422 3.62964 5.7558 3.32319 5.87538 3.03768C5.99495 2.75217 6.17013 2.4933 6.39071 2.27614C6.6113 2.05898 6.87288 1.88787 7.16023 1.77278C7.44758 1.65769 7.75495 1.60091 8.06445 1.60575C8.67699 1.61534 9.2612 1.8654 9.69098 2.30196C10.1208 2.73852 10.3617 3.32657 10.3617 3.93918C10.3617 4.5518 10.1208 5.13985 9.69098 5.57641C9.2612 6.01297 8.67699 6.26303 8.06445 6.27261ZM8.06445 2.94004C7.93116 2.93682 7.79857 2.96028 7.67447 3.00905C7.55038 3.05782 7.43729 3.13092 7.34187 3.22404C7.24644 3.31716 7.1706 3.42842 7.1188 3.55129C7.06701 3.67415 7.0403 3.80613 7.04027 3.93946C7.04023 4.0728 7.06685 4.20479 7.11858 4.32768C7.1703 4.45057 7.24608 4.56188 7.34146 4.65506C7.43683 4.74823 7.54988 4.82139 7.67394 4.87023C7.79801 4.91908 7.93059 4.94262 8.06388 4.93947C8.3291 4.93947 8.58345 4.83411 8.77099 4.64658C8.95853 4.45904 9.06388 4.20469 9.06388 3.93947C9.06388 3.67425 8.95853 3.4199 8.77099 3.23236C8.58345 3.04483 8.3291 2.93947 8.06388 2.93947L8.06445 2.94004ZM16.0645 13.6063C16.0645 14.1368 15.8537 14.6455 15.4787 15.0205C15.1036 15.3956 14.5949 15.6063 14.0645 15.6063C13.534 15.6063 13.0253 15.3956 12.6502 15.0205C12.2752 14.6455 12.0645 14.1368 12.0645 13.6063C12.0645 13.0759 12.2752 12.5672 12.6502 12.1921C13.0253 11.817 13.534 11.6063 14.0645 11.6063C14.5949 11.6063 15.1036 11.817 15.4787 12.1921C15.8537 12.5672 16.0645 13.0759 16.0645 13.6063ZM10.0645 13.6063C10.0645 14.1368 9.85374 14.6455 9.47867 15.0205C9.10359 15.3956 8.59489 15.6063 8.06445 15.6063C7.53402 15.6063 7.02531 15.3956 6.65024 15.0205C6.27517 14.6455 6.06445 14.1368 6.06445 13.6063C6.06445 13.0759 6.27517 12.5672 6.65024 12.1921C7.02531 11.817 7.53402 11.6063 8.06445 11.6063C8.59489 11.6063 9.10359 11.817 9.47867 12.1921C9.85374 12.5672 10.0645 13.0759 10.0645 13.6063ZM4.06445 13.6063C4.06445 14.1368 3.85374 14.6455 3.47867 15.0205C3.10359 15.3956 2.59489 15.6063 2.06445 15.6063C1.53402 15.6063 1.02531 15.3956 0.65024 15.0205C0.275167 14.6455 0.0644531 14.1368 0.0644531 13.6063C0.0644531 13.0759 0.275167 12.5672 0.65024 12.1921C1.02531 11.817 1.53402 11.6063 2.06445 11.6063C2.59489 11.6063 3.10359 11.817 3.47867 12.1921C3.85374 12.5672 4.06445 13.0759 4.06445 13.6063ZM12.7307 8.93947C12.7307 9.4699 12.52 9.97861 12.145 10.3537C11.7699 10.7288 11.2612 10.9395 10.7307 10.9395C10.2003 10.9395 9.6916 10.7288 9.31653 10.3537C8.94145 9.97861 8.73074 9.4699 8.73074 8.93947C8.73074 8.40904 8.94145 7.90033 9.31653 7.52526C9.6916 7.15018 10.2003 6.93947 10.7307 6.93947C11.2612 6.93947 11.7699 7.15018 12.145 7.52526C12.52 7.90033 12.7307 8.40904 12.7307 8.93947ZM6.73074 8.93947C6.73074 9.4699 6.52003 9.97861 6.14495 10.3537C5.76988 10.7288 5.26117 10.9395 4.73074 10.9395C4.20031 10.9395 3.6916 10.7288 3.31653 10.3537C2.94145 9.97861 2.73074 9.4699 2.73074 8.93947C2.73074 8.40904 2.94145 7.90033 3.31653 7.52526C3.6916 7.15018 4.20031 6.93947 4.73074 6.93947C5.26117 6.93947 5.76988 7.15018 6.14495 7.52526C6.52003 7.90033 6.73074 8.40904 6.73074 8.93947Z" fill="#9DABC8"/>
</g>
<defs>
<clipPath id="clip0_4328_1462">
<rect width="16" height="16" fill="white" transform="translate(0.0644531 0.605469)"/>
</clipPath>
</defs>
</svg>
