<svg xmlns="http://www.w3.org/2000/svg" width="20" height="19" viewBox="0 0 20 19" fill="none">
<path d="M14.8329 12.5775C14.0493 12.5766 13.2971 12.8798 12.7411 13.4209L8.82259 11.2043C9.07419 10.6669 9.19131 10.0784 9.16424 9.48768C9.13718 8.897 8.96669 8.32116 8.66695 7.80796L12.6931 5.53038C13.2069 6.0494 13.8999 6.36192 14.6364 6.40678C15.373 6.45165 16.1001 6.22562 16.6756 5.77294C17.251 5.32026 17.6333 4.6735 17.7477 3.95923C17.862 3.24496 17.7002 2.5146 17.2939 1.91106C16.8875 1.30752 16.2659 0.874244 15.5507 0.696026C14.8355 0.517808 14.0781 0.607472 13.4268 0.947472C12.7755 1.28747 12.2772 1.85334 12.0293 2.53433C11.7814 3.21532 11.8018 3.96243 12.0866 4.62945L7.97769 6.95234C7.27521 6.30024 6.34403 5.93721 5.37629 5.93815C3.28182 5.93815 1.58313 7.60234 1.58313 9.65338C1.5831 10.4085 1.81793 11.1457 2.25633 11.7667C2.69474 12.3878 3.3159 12.8632 4.03707 13.1297C4.75824 13.3962 5.54518 13.4411 6.29303 13.2584C7.04089 13.0756 7.71416 12.674 8.22315 12.107L12.1141 14.307C11.8535 14.8813 11.7893 15.5228 11.9311 16.1358C12.073 16.7488 12.4133 17.3004 12.9013 17.7084C13.3893 18.1165 13.9989 18.359 14.6391 18.3999C15.2793 18.4408 15.9159 18.2778 16.4538 17.9353C16.9918 17.5928 17.4023 17.0891 17.6242 16.4994C17.8461 15.9096 17.8674 15.2654 17.6851 14.6628C17.5027 14.0602 17.1264 13.5315 16.6122 13.1555C16.0981 12.7795 15.4736 12.5765 14.8321 12.5766L14.8329 12.5775Z" fill="#05080A"/>
</svg>