<svg width="20" height="21" viewBox="0 0 20 21" fill="none" xmlns="http://www.w3.org/2000/svg">
<g id="Frame">
<path id="Vector" d="M15.7698 15.5868C15.8505 15.7805 15.8553 15.9974 15.783 16.1944C15.7108 16.3913 15.567 16.5538 15.3802 16.6493L15.3211 16.6764L10.3211 18.7597C10.1394 18.8353 9.93693 18.8441 9.7494 18.7847L9.68023 18.7597L4.68023 16.6764C4.48105 16.5938 4.32164 16.4372 4.23549 16.2396C4.14934 16.0419 4.14316 15.8186 4.21825 15.6164C4.29333 15.4143 4.44385 15.2491 4.63816 15.1557C4.83247 15.0622 5.05544 15.0477 5.26023 15.1152L5.32107 15.1381L10.0007 17.0872L14.6798 15.1381C14.7808 15.0959 14.8892 15.0741 14.9987 15.0739C15.1081 15.0736 15.2166 15.095 15.3178 15.1366C15.419 15.1783 15.511 15.2395 15.5886 15.3168C15.6661 15.394 15.7277 15.4858 15.7698 15.5868ZM16.6673 2.5835C17.3141 2.58347 17.9358 2.83415 18.4017 3.28286C18.8676 3.73156 19.1414 4.34338 19.1656 4.98975L19.1673 5.0835V11.7564C19.1673 12.4032 18.9167 13.0249 18.468 13.4908C18.0192 13.9567 17.4074 14.2305 16.7611 14.2547L16.6673 14.2564H3.33398C2.68716 14.2564 2.0655 14.0058 1.59962 13.5571C1.13374 13.1083 0.859907 12.4965 0.835651 11.8502L0.833984 11.7564V5.0835C0.833961 4.43667 1.08464 3.81501 1.53334 3.34913C1.98205 2.88325 2.59386 2.60942 3.24023 2.58516L3.33398 2.5835H16.6673ZM16.6673 4.25016H3.33398C3.12374 4.2501 2.92125 4.3295 2.76709 4.47245C2.61293 4.61541 2.5185 4.81135 2.50273 5.021L2.50065 5.0835V11.7564C2.50058 11.9667 2.57999 12.1691 2.72294 12.3233C2.8659 12.4775 3.06184 12.5719 3.27148 12.5877L3.33398 12.5897H16.6673C16.8776 12.5898 17.0801 12.5104 17.2342 12.3675C17.3884 12.2245 17.4828 12.0286 17.4986 11.8189L17.5007 11.7564V5.0835C17.5007 4.87326 17.4213 4.67076 17.2784 4.5166C17.1354 4.36244 16.9395 4.26801 16.7298 4.25225L16.6673 4.25016ZM5.41732 9.25016C5.47204 9.25016 5.52622 9.26094 5.57677 9.28188C5.62732 9.30282 5.67325 9.33351 5.71195 9.3722C5.75064 9.41089 5.78133 9.45683 5.80227 9.50738C5.82321 9.55793 5.83398 9.61211 5.83398 9.66683V10.5002C5.83398 10.5549 5.82321 10.6091 5.80227 10.6596C5.78133 10.7102 5.75064 10.7561 5.71195 10.7948C5.67325 10.8335 5.62732 10.8642 5.57677 10.8851C5.52622 10.9061 5.47204 10.9168 5.41732 10.9168H4.58398C4.52927 10.9168 4.47509 10.9061 4.42453 10.8851C4.37398 10.8642 4.32805 10.8335 4.28936 10.7948C4.25067 10.7561 4.21997 10.7102 4.19903 10.6596C4.17809 10.6091 4.16732 10.5549 4.16732 10.5002V9.66683C4.16732 9.61211 4.17809 9.55793 4.19903 9.50738C4.21997 9.45683 4.25067 9.41089 4.28936 9.3722C4.32805 9.33351 4.37398 9.30282 4.42453 9.28188C4.47509 9.26094 4.52927 9.25016 4.58398 9.25016H5.41732ZM8.75065 9.25016C8.86116 9.25016 8.96714 9.29406 9.04528 9.3722C9.12342 9.45034 9.16732 9.55632 9.16732 9.66683V10.5002C9.16732 10.6107 9.12342 10.7167 9.04528 10.7948C8.96714 10.8729 8.86116 10.9168 8.75065 10.9168H7.91732C7.80681 10.9168 7.70083 10.8729 7.62269 10.7948C7.54455 10.7167 7.50065 10.6107 7.50065 10.5002V9.66683C7.50065 9.55632 7.54455 9.45034 7.62269 9.3722C7.70083 9.29406 7.80681 9.25016 7.91732 9.25016H8.75065ZM12.084 9.25016C12.1387 9.25016 12.1929 9.26094 12.2434 9.28188C12.294 9.30282 12.3399 9.33351 12.3786 9.3722C12.4173 9.41089 12.448 9.45683 12.4689 9.50738C12.4899 9.55793 12.5007 9.61211 12.5007 9.66683V10.5002C12.5007 10.5549 12.4899 10.6091 12.4689 10.6596C12.448 10.7102 12.4173 10.7561 12.3786 10.7948C12.3399 10.8335 12.294 10.8642 12.2434 10.8851C12.1929 10.9061 12.1387 10.9168 12.084 10.9168H11.2507C11.1401 10.9168 11.0342 10.8729 10.956 10.7948C10.8779 10.7167 10.834 10.6107 10.834 10.5002V9.66683C10.834 9.55632 10.8779 9.45034 10.956 9.3722C11.0342 9.29406 11.1401 9.25016 11.2507 9.25016H12.084ZM15.4173 9.25016C15.472 9.25016 15.5262 9.26094 15.5768 9.28188C15.6273 9.30282 15.6733 9.33351 15.7119 9.3722C15.7506 9.41089 15.7813 9.45683 15.8023 9.50738C15.8232 9.55793 15.834 9.61211 15.834 9.66683V10.5002C15.834 10.5549 15.8232 10.6091 15.8023 10.6596C15.7813 10.7102 15.7506 10.7561 15.7119 10.7948C15.6733 10.8335 15.6273 10.8642 15.5768 10.8851C15.5262 10.9061 15.472 10.9168 15.4173 10.9168H14.584C14.5293 10.9168 14.4751 10.9061 14.4245 10.8851C14.374 10.8642 14.328 10.8335 14.2894 10.7948C14.2507 10.7561 14.22 10.7102 14.199 10.6596C14.1781 10.6091 14.1673 10.5549 14.1673 10.5002V9.66683C14.1673 9.61211 14.1781 9.55793 14.199 9.50738C14.22 9.45683 14.2507 9.41089 14.2894 9.3722C14.328 9.33351 14.374 9.30282 14.4245 9.28188C14.4751 9.26094 14.5293 9.25016 14.584 9.25016H15.4173ZM5.41732 5.91683C5.47204 5.91683 5.52622 5.92761 5.57677 5.94855C5.62732 5.96949 5.67325 6.00018 5.71195 6.03887C5.75064 6.07756 5.78133 6.12349 5.80227 6.17404C5.82321 6.2246 5.83398 6.27878 5.83398 6.3335V7.16683C5.83398 7.22155 5.82321 7.27573 5.80227 7.32628C5.78133 7.37683 5.75064 7.42277 5.71195 7.46146C5.67325 7.50015 5.62732 7.53084 5.57677 7.55178C5.52622 7.57272 5.47204 7.5835 5.41732 7.5835H4.58398C4.52927 7.5835 4.47509 7.57272 4.42453 7.55178C4.37398 7.53084 4.32805 7.50015 4.28936 7.46146C4.25067 7.42277 4.21997 7.37683 4.19903 7.32628C4.17809 7.27573 4.16732 7.22155 4.16732 7.16683V6.3335C4.16732 6.27878 4.17809 6.2246 4.19903 6.17404C4.21997 6.12349 4.25067 6.07756 4.28936 6.03887C4.32805 6.00018 4.37398 5.96949 4.42453 5.94855C4.47509 5.92761 4.52927 5.91683 4.58398 5.91683H5.41732ZM8.75065 5.91683C8.80537 5.91683 8.85955 5.92761 8.9101 5.94855C8.96066 5.96949 9.00659 6.00018 9.04528 6.03887C9.08397 6.07756 9.11466 6.12349 9.1356 6.17404C9.15654 6.2246 9.16732 6.27878 9.16732 6.3335V7.16683C9.16732 7.22155 9.15654 7.27573 9.1356 7.32628C9.11466 7.37683 9.08397 7.42277 9.04528 7.46146C9.00659 7.50015 8.96066 7.53084 8.9101 7.55178C8.85955 7.57272 8.80537 7.5835 8.75065 7.5835H7.91732C7.8626 7.5835 7.80842 7.57272 7.75787 7.55178C7.70731 7.53084 7.66138 7.50015 7.62269 7.46146C7.584 7.42277 7.55331 7.37683 7.53237 7.32628C7.51143 7.27573 7.50065 7.22155 7.50065 7.16683V6.3335C7.50065 6.27878 7.51143 6.2246 7.53237 6.17404C7.55331 6.12349 7.584 6.07756 7.62269 6.03887C7.66138 6.00018 7.70731 5.96949 7.75787 5.94855C7.80842 5.92761 7.8626 5.91683 7.91732 5.91683H8.75065ZM12.084 5.91683C12.1387 5.91683 12.1929 5.92761 12.2434 5.94855C12.294 5.96949 12.3399 6.00018 12.3786 6.03887C12.4173 6.07756 12.448 6.12349 12.4689 6.17404C12.4899 6.2246 12.5007 6.27878 12.5007 6.3335V7.16683C12.5007 7.22155 12.4899 7.27573 12.4689 7.32628C12.448 7.37683 12.4173 7.42277 12.3786 7.46146C12.3399 7.50015 12.294 7.53084 12.2434 7.55178C12.1929 7.57272 12.1387 7.5835 12.084 7.5835H11.2507C11.1959 7.5835 11.1418 7.57272 11.0912 7.55178C11.0406 7.53084 10.9947 7.50015 10.956 7.46146C10.9173 7.42277 10.8866 7.37683 10.8657 7.32628C10.8448 7.27573 10.834 7.22155 10.834 7.16683V6.3335C10.834 6.27878 10.8448 6.2246 10.8657 6.17404C10.8866 6.12349 10.9173 6.07756 10.956 6.03887C10.9947 6.00018 11.0406 5.96949 11.0912 5.94855C11.1418 5.92761 11.1959 5.91683 11.2507 5.91683H12.084ZM15.4173 5.91683C15.472 5.91683 15.5262 5.92761 15.5768 5.94855C15.6273 5.96949 15.6733 6.00018 15.7119 6.03887C15.7506 6.07756 15.7813 6.12349 15.8023 6.17404C15.8232 6.2246 15.834 6.27878 15.834 6.3335V7.16683C15.834 7.22155 15.8232 7.27573 15.8023 7.32628C15.7813 7.37683 15.7506 7.42277 15.7119 7.46146C15.6733 7.50015 15.6273 7.53084 15.5768 7.55178C15.5262 7.57272 15.472 7.5835 15.4173 7.5835H14.584C14.5293 7.5835 14.4751 7.57272 14.4245 7.55178C14.374 7.53084 14.328 7.50015 14.2894 7.46146C14.2507 7.42277 14.22 7.37683 14.199 7.32628C14.1781 7.27573 14.1673 7.22155 14.1673 7.16683V6.3335C14.1673 6.27878 14.1781 6.2246 14.199 6.17404C14.22 6.12349 14.2507 6.07756 14.2894 6.03887C14.328 6.00018 14.374 5.96949 14.4245 5.94855C14.4751 5.92761 14.5293 5.91683 14.584 5.91683H15.4173Z" fill="currentColor"/>
</g>
</svg>
