<svg width="20" height="20" viewBox="0 0 20 20" fill="none" xmlns="http://www.w3.org/2000/svg">
<g id="Frame">
<path id="Vector" d="M6.03477 3.62432C6.113 3.53311 6.21002 3.4599 6.31919 3.4097C6.42836 3.3595 6.54709 3.33351 6.66725 3.3335H18.3339C18.5549 3.3335 18.7669 3.4213 18.9232 3.57758C19.0794 3.73385 19.1672 3.94581 19.1673 4.16682V15.8335C19.1672 16.0545 19.0794 16.2665 18.9232 16.4227C18.7669 16.579 18.5549 16.6668 18.3339 16.6668H6.66725C6.54709 16.6668 6.42835 16.6408 6.31918 16.5906C6.21 16.5404 6.11298 16.4672 6.03475 16.376L1.03475 10.5427C0.9052 10.3916 0.833984 10.1992 0.833984 10.0002C0.833984 9.80115 0.9052 9.60872 1.03475 9.45766L6.03475 3.62432H6.03477ZM7.05059 5.00016L2.76475 10.0002L7.05059 15.0002H17.5006V5.00016H7.05059Z" fill="currentColor"/>
<path id="Vector_2" d="M10.0006 7.15479L14.5123 11.6664L13.3339 12.8456L8.82227 8.33312L10.0006 7.15479Z" fill="currentColor"/>
<path id="Vector_3" d="M8.82227 11.6664L13.3339 7.15479L14.5122 8.33311L10.0006 12.8448L8.82227 11.6665V11.6664Z" fill="currentColor"/>
</g>
</svg>
