<svg xmlns="http://www.w3.org/2000/svg" width="18" height="19" viewBox="0 0 18 19" fill="#fff">
<path d="M11.1603 15.2457C10.3565 15.5786 9.495 15.75 8.625 15.75C6.86795 15.75 5.18285 15.052 3.94042 13.8096C2.69799 12.5671 2 10.8821 2 9.125C2 7.36795 2.69799 5.68285 3.94041 4.44041C5.18285 3.19799 6.86795 2.5 8.625 2.5C9.495 2.5 10.3565 2.67136 11.1603 3.0043C11.9641 3.33724 12.6944 3.82523 13.3096 4.44041C13.9247 5.0556 14.4127 5.78595 14.7457 6.5897C15.0786 7.3935 15.25 8.255 15.25 9.125C15.25 9.995 15.0786 10.8565 14.7457 11.6603C14.4127 12.4641 13.9247 13.1944 13.3096 13.8096C12.6944 14.4247 11.9641 14.9127 11.1603 15.2457ZM15.975 16.4993C15.9718 16.4993 15.9677 16.4986 15.9641 16.4971C15.9621 16.4963 15.9607 16.4953 15.9607 16.4953L14.5684 15.1031C14.5634 15.0976 14.5605 15.0905 14.5605 15.083C14.5605 15.076 14.563 15.0692 14.5675 15.0639C14.569 15.0627 14.5703 15.062 14.5716 15.0615C14.5736 15.0606 14.5767 15.0598 14.5809 15.0598C14.5887 15.0598 14.5976 15.0624 14.6063 15.0702L15.9965 16.4603C15.9974 16.4613 15.9981 16.4622 15.9987 16.463C15.9994 16.464 16.0002 16.4658 16.0002 16.4658C16.0011 16.4678 16.0019 16.471 16.0019 16.4752C16.0019 16.4804 16.0007 16.4861 15.9976 16.492C15.9878 16.4977 15.9794 16.4993 15.975 16.4993Z" stroke="#F23038"/>
</svg>
