<svg width="16" height="16" viewBox="0 0 16 16" fill="none" xmlns="http://www.w3.org/2000/svg">
<path d="M7.87988 -0.00976562C3.54521 -0.00976562 0.03125 3.5042 0.03125 7.83887C0.03125 12.1735 3.54521 15.6875 7.87988 15.6875C12.2146 15.6875 15.7285 12.1735 15.7285 7.83887C15.7285 3.5042 12.2146 -0.00976562 7.87988 -0.00976562ZM13.8757 5.22311C14.2256 6.024 14.4209 6.9088 14.4209 7.83952C14.4209 8.77024 14.2256 9.65504 13.8757 10.4559H10.9263C11.0705 9.64451 11.1491 8.76239 11.1491 7.83952C11.1491 6.91665 11.0704 6.03453 10.9263 5.22311H13.8757ZM5.9189 7.83952C5.9189 6.89971 5.99098 6.01092 6.12212 5.22311H9.63647C9.76761 6.01092 9.84099 6.89965 9.84099 7.83952C9.84099 8.77946 9.76761 9.66819 9.63647 10.456H6.12349C5.99242 9.66819 5.9189 8.77946 5.9189 7.83952ZM13.1128 3.91481H10.6221C10.318 2.8937 9.90117 2.05346 9.40958 1.4793C10.8896 1.83577 12.1992 2.69703 13.1128 3.91481ZM7.87988 1.95384C8.46055 1.95384 8.9836 2.71283 9.3428 3.91619H6.41703C6.77617 2.71157 7.29921 1.95384 7.87988 1.95384ZM6.35012 1.48068C5.85853 2.0535 5.44171 2.89638 5.13888 3.91619H2.64825C3.56143 2.69864 4.87059 1.83743 6.35012 1.48068ZM1.88412 5.22311H4.8335C4.68928 6.03453 4.6106 6.91665 4.6106 7.83952C4.6106 8.76239 4.68935 9.64451 4.8335 10.4559H1.88409C1.52354 9.63084 1.33789 8.73995 1.3388 7.83952C1.3388 6.9088 1.53416 6.024 1.88412 5.22311ZM2.64707 11.7642H5.1377C5.44184 12.7853 5.85866 13.6255 6.35018 14.1997C4.87013 13.8432 3.56065 12.9819 2.64707 11.7642ZM7.87988 13.7251C7.29921 13.7251 6.77617 12.9662 6.41696 11.7628H9.34274C8.98098 12.9674 8.46062 13.7251 7.87988 13.7251ZM9.40958 14.1984C9.90117 13.6256 10.318 12.7827 10.6209 11.7629H13.1115C12.1983 12.9804 10.8892 13.8417 9.40958 14.1984Z" fill="#B3BEC1"/>
</svg>
