<svg width="13" height="13" viewBox="0 0 13 13" fill="none" xmlns="http://www.w3.org/2000/svg">
<path d="M7.13654 0.205603C8.34854 0.205603 9.26041 0.46106 9.87215 0.971976C10.4856 1.47101 10.8356 2.17797 10.9222 3.09287H11.8762L11.7023 4.32263H10.9103C10.9122 4.39392 10.9081 4.46521 10.898 4.5365C10.8896 4.59591 10.8812 4.65532 10.8728 4.71473C10.856 4.83355 10.8332 4.95236 10.8044 5.07118C10.7893 5.17812 10.769 5.27911 10.7435 5.37417H11.5535L11.3796 6.60393H10.3176C10.0586 7.16237 9.70006 7.6614 9.24188 8.10103C8.78371 8.54065 8.21297 8.88522 7.52968 9.13474C6.84639 9.38426 6.03075 9.50902 5.08275 9.50902H4.74075L4.25678 12.931H1.57478L2.46962 6.60393H1.44362L1.61754 5.37417H2.64354L2.79226 4.32263H1.76626L1.94019 3.09287H2.96619L3.37454 0.205603H7.13654ZM7.50962 6.60393H5.15162L5.04323 7.3703H5.33123C5.82323 7.3703 6.25163 7.31089 6.61644 7.19207C6.98124 7.07326 7.27897 6.87721 7.50962 6.60393ZM8.22826 4.32263H5.47426L5.32554 5.37417H8.07954C8.10499 5.27911 8.12359 5.19 8.13535 5.10683C8.1488 5.01177 8.16308 4.91078 8.17821 4.80384C8.18997 4.72067 8.20089 4.64344 8.21097 4.57215C8.22274 4.48898 8.2285 4.4058 8.22826 4.32263ZM6.70806 2.34432H5.75406L5.64819 3.09287H8.11419C8.0158 2.85523 7.84985 2.67107 7.61633 2.54037C7.39482 2.40967 7.09206 2.34432 6.70806 2.34432Z" fill="currentColor"/>
</svg>
