<svg xmlns="http://www.w3.org/2000/svg" width="24" height="24" viewBox="0 0 24 24" fill="none">
  <path d="M11.2918 3.80133C10.812 3.50424 9.24315 2.66519 8.31006 2.13347C7.49475 1.66982 7.24741 2.66528 7.16971 3.34719C7.0921 4.03099 7.0921 4.91538 7.94679 4.91538H11.0847C11.9392 4.91538 11.9392 4.2075 11.2918 3.80133ZM16.8192 3.33261C16.7416 2.65071 16.4943 1.65524 15.6783 2.1189C14.744 2.65071 13.1763 3.48967 12.6966 3.78866C12.0478 4.19302 12.0478 4.90072 12.9045 4.90072H16.0416C16.8969 4.90081 16.8969 4.01578 16.8192 3.33261ZM21.1027 5.80268H12.7079V10.3288H21.1027C21.5983 10.3288 22 9.91092 22 9.39558V6.73596C21.9999 6.22053 21.5982 5.80268 21.1027 5.80268ZM11.292 11.2321H4.82946C3.85327 11.2321 3.06185 12.0552 3.06185 13.0707V21.1613C3.06185 22.1768 3.85318 23 4.82946 23H11.292V11.2321ZM19.1705 11.2321H12.7079V22.9999H19.1705C20.1466 22.9999 20.9381 22.1767 20.9381 21.1612V13.0708C20.938 12.0553 20.1466 11.2321 19.1705 11.2321ZM11.292 5.80268H2.89716C2.40168 5.80268 2 6.22053 2 6.73587V9.39558C2 9.91092 2.40168 10.3288 2.89716 10.3288H11.292V5.80268Z" fill="currentColor"/>
</svg>
