<svg xmlns="http://www.w3.org/2000/svg" width="22" height="17" viewBox="0 0 22 17" fill="none">
  <g clip-path="url(#clip0_38_1011)">
    <path d="M14.1042 0C14.8099 0 15.4867 0.2828 15.9857 0.786187C16.4847 1.28957 16.765 1.97231 16.765 2.68421H18.5389C19.2446 2.68421 19.9214 2.96701 20.4205 3.4704C20.9195 3.97378 21.1998 4.65652 21.1998 5.36842V14.3158C21.1998 15.0277 20.9195 15.7104 20.4205 16.2138C19.9214 16.7172 19.2446 17 18.5389 17H3.46067C2.75497 17 2.07817 16.7172 1.57916 16.2138C1.08015 15.7104 0.799805 15.0277 0.799805 14.3158V2.68421C0.799805 1.97231 1.08015 1.28957 1.57916 0.786187C2.07817 0.2828 2.75497 0 3.46067 0H14.1042ZM14.1042 1.34211H3.46067C3.12132 1.34209 2.79479 1.47288 2.54788 1.70773C2.30098 1.94258 2.15237 2.26373 2.13246 2.60547L2.13024 2.68421H15.4346C15.4346 2.34188 15.3049 2.01248 15.0721 1.76341C14.8393 1.51434 14.521 1.36443 14.1822 1.34434L14.1042 1.34211Z" fill="currentColor"/>
    <path d="M21.2 6.26318V11.6316H15.4348C14.7291 11.6316 14.0523 11.3488 13.5533 10.8454C13.0543 10.342 12.7739 9.65929 12.7739 8.94739C12.7739 8.2355 13.0543 7.55276 13.5533 7.04937C14.0523 6.54598 14.7291 6.26318 15.4348 6.26318H21.2ZM15.4348 7.60529C15.0819 7.60529 14.7435 7.74669 14.494 7.99838C14.2445 8.25008 14.1044 8.59145 14.1044 8.94739C14.1044 9.30334 14.2445 9.64471 14.494 9.89641C14.7435 10.1481 15.0819 10.2895 15.4348 10.2895C15.7876 10.2895 16.1261 10.1481 16.3756 9.89641C16.6251 9.64471 16.7652 9.30334 16.7652 8.94739C16.7652 8.59145 16.6251 8.25008 16.3756 7.99838C16.1261 7.74669 15.7876 7.60529 15.4348 7.60529Z" fill="#F6FDFA"/>
  </g>
  <defs>
    <clipPath id="clip0_38_1011">
      <rect width="20.4" height="17" fill="white" transform="translate(0.799805)"/>
    </clipPath>
  </defs>
</svg>
