<svg width="24" height="24" viewBox="0 0 24 24" fill="none" xmlns="http://www.w3.org/2000/svg">
<path d="M15.4583 16.212L14.4529 15.2066C13.2597 16.1832 11.7354 16.7698 10.0739 16.7718C6.24931 16.7718 3.14844 13.6709 3.14844 9.84637C3.14844 6.02177 6.24931 2.9209 10.0739 2.9209C13.8985 2.9209 16.9993 6.02177 16.9993 9.84637C16.9973 11.4958 16.4188 13.0101 15.4556 14.1994L16.4629 15.2066L16.4402 15.2288L16.4488 15.2214C16.6663 15.0488 16.9833 15.0635 17.1847 15.2641L20.6915 18.7711C20.9075 18.9871 20.9075 19.3382 20.6915 19.555L19.8006 20.4459C19.5845 20.662 19.2334 20.662 19.0167 20.4459L15.5098 16.939C15.3091 16.7383 15.2944 16.4213 15.4669 16.2033L15.4589 16.2113L15.4583 16.212ZM10.0739 4.57902C7.16499 4.57902 4.80656 6.93745 4.80656 9.84637C4.80656 12.7552 7.16499 15.1137 10.0739 15.1137C12.9828 15.1137 15.3412 12.7552 15.3412 9.84637C15.3385 6.93812 12.9821 4.5817 10.0739 4.57902Z" fill="currentColor"/>
</svg>
