<svg width="18" height="18" viewBox="0 0 18 18" fill="none" xmlns="http://www.w3.org/2000/svg">
<g clip-path="url(#clip0_577_1984)">
<path d="M17.404 7.3363L11.3325 0.681495C11.0897 0.439502 10.7254 0.439502 10.4825 0.681495C10.2397 0.923488 10.2397 1.04448 10.2397 1.28648V4.79537C5.2611 4.79537 0.525391 8.90925 0.525391 13.8701C0.525391 15.2011 1.13253 16.895 1.73968 17.5C2.46825 13.7491 6.23253 10.8452 10.2397 10.8452C10.2397 11.2082 10.2397 14.4751 10.2397 14.4751C10.2397 14.5961 10.2397 14.7171 10.3611 14.9591C10.604 15.2011 11.0897 15.0801 11.2111 14.9591L17.2825 8.42527C17.5254 8.18327 17.5254 7.94128 17.5254 7.82028C17.5254 7.69929 17.5254 7.4573 17.404 7.3363Z" fill="#9DABC8"/>
</g>
<defs>
<clipPath id="clip0_577_1984">
<rect width="18" height="18" fill="white"/>
</clipPath>
</defs>
</svg>
