<svg width="16" height="16" viewBox="0 0 16 16" fill="currentColor" xmlns="http://www.w3.org/2000/svg">
<g id="Frame" clip-path="url(#clip0_14178_11540)">
<path id="Vector" d="M8 0C3.58178 0 0 3.58178 0 8C0 12.4182 3.58178 16 8 16C12.4182 16 16 12.4182 16 8C16 5.87827 15.1571 3.84344 13.6569 2.34315C12.1566 0.842855 10.1217 0 8 0ZM8 14.6667C4.31822 14.6667 1.33333 11.6818 1.33333 8C1.33333 4.31822 4.31822 1.33333 8 1.33333C11.6818 1.33333 14.6667 4.31822 14.6667 8C14.6667 8.87548 14.4942 9.74239 14.1592 10.5512C13.8242 11.3601 13.3331 12.095 12.714 12.714C12.095 13.3331 11.3601 13.8242 10.5512 14.1592C9.74239 14.4942 8.87548 14.6667 8 14.6667ZM8 3.45333C7.29276 3.45333 6.61448 3.73428 6.11438 4.23438C5.61428 4.73448 5.33333 5.41276 5.33333 6.12C5.33333 6.29681 5.40357 6.46638 5.5286 6.5914C5.65362 6.71643 5.82319 6.78667 6 6.78667C6.17681 6.78667 6.34638 6.71643 6.4714 6.5914C6.59643 6.46638 6.66667 6.29681 6.66667 6.12C6.66667 5.85629 6.74486 5.59851 6.89137 5.37924C7.03788 5.15997 7.24612 4.98908 7.48976 4.88816C7.73339 4.78724 8.00148 4.76084 8.26012 4.81229C8.51876 4.86373 8.75634 4.99072 8.94281 5.17719C9.12928 5.36366 9.25627 5.60124 9.30771 5.85988C9.35916 6.11852 9.33276 6.38661 9.23184 6.63024C9.13092 6.87388 8.96003 7.08212 8.74076 7.22863C8.52149 7.37513 8.26371 7.45333 8 7.45333C7.82319 7.45333 7.65362 7.52357 7.5286 7.6486C7.40357 7.77362 7.33333 7.94319 7.33333 8.12V9.86C7.33333 10.0368 7.40357 10.2064 7.5286 10.3314C7.65362 10.4564 7.82319 10.5267 8 10.5267C8.17681 10.5267 8.34638 10.4564 8.4714 10.3314C8.59643 10.2064 8.66667 10.0368 8.66667 9.86V8.7C9.29333 8.53622 9.83897 8.14996 10.2017 7.61333C10.5644 7.0767 10.7194 6.4264 10.6378 5.78385C10.5561 5.1413 10.2434 4.55043 9.75801 4.12157C9.27261 3.69271 8.64771 3.45518 8 3.45333ZM7.33333 11.9267C7.33333 12.1035 7.40357 12.273 7.5286 12.3981C7.65362 12.5231 7.82319 12.5933 8 12.5933C8.17681 12.5933 8.34638 12.5231 8.4714 12.3981C8.59643 12.273 8.66667 12.1035 8.66667 11.9267C8.66667 11.7499 8.59643 11.5803 8.4714 11.4553C8.34638 11.3302 8.17681 11.26 8 11.26C7.82319 11.26 7.65362 11.3302 7.5286 11.4553C7.40357 11.5803 7.33333 11.7499 7.33333 11.9267Z" fill="currentColor"/>
</g>
<defs>
<clipPath id="clip0_14178_11540">
<rect width="16" height="16" fill="currentColor"/>
</clipPath>
</defs>
</svg>
