<svg width="56" height="56" viewBox="0 0 56 56" fill="none" xmlns="http://www.w3.org/2000/svg">
<g clip-path="url(#clip0_15674_2314)">
<path d="M53.0285 17.1565C53.102 17.3087 53.1825 17.496 53.27 17.7147L53.5535 18.4742L53.879 19.4332C54.306 20.6775 53.9963 22.123 53.179 23.3847C50.2635 27.8875 46.032 33.0937 41.4768 38.0095C35.8575 44.0715 30.2803 48.7195 24.8763 51.9097C23.2488 52.8705 21.1068 52.853 19.4653 51.9552L19.0663 51.712L17.1885 50.417L15.6345 49.3215C14.994 48.8665 14.8348 47.9687 15.281 47.3142C15.6765 46.7332 16.415 46.5407 17.024 46.8242L17.2445 46.952L19.2203 48.3415L20.622 49.304C21.4165 49.8377 22.6415 49.8972 23.464 49.4107C32.2788 44.2062 42.3098 34.2767 50.9985 21.8115C51.1245 21.6312 51.212 21.2112 51.219 20.8805L51.2085 20.6547L51.156 20.4237L50.701 19.1935C50.5085 18.3955 50.5908 17.8407 51.1858 17.2107C51.9138 16.439 52.661 16.3847 53.0303 17.153L53.0285 17.1565ZM15.547 37.1975L16.016 37.4967L16.4343 37.7977C17.0608 38.272 17.1903 39.1767 16.7248 39.8155C16.2593 40.4542 15.3755 40.5872 14.7508 40.113C12.495 38.4015 10.2218 38.6465 7.54427 40.9302C7.19952 41.2242 6.74452 41.3292 6.31227 41.2242L6.05677 41.1367L5.83452 41.009L2.23127 38.454C1.59077 37.999 1.43152 37.1012 1.87777 36.4467C2.21902 35.9445 2.82627 35.7257 3.38452 35.8727L3.63127 35.9637L3.84127 36.0862L6.51702 38.097L6.64302 38.0007C9.68452 35.794 12.7278 35.514 15.5488 37.1992L15.547 37.1975ZM32.9753 1.28571L35.966 3.27021C35.8383 3.41546 35.7193 3.57296 35.609 3.73921C33.8643 6.35546 34.0533 9.86946 37.2943 12.225C40.5353 14.5805 44.5165 14.115 46.48 11.7385C46.7478 11.4147 46.9525 11.0542 47.0995 10.6675L50.2548 12.764C51.198 13.3957 51.45 14.6715 50.8165 15.6147C50.8025 15.6357 50.7868 15.6567 50.7728 15.6777C45.7345 22.5692 40.7418 28.5122 35.791 33.5032C30.9873 38.349 26.3375 42.1535 21.8453 44.9202C20.9318 45.4855 19.7628 45.4225 18.914 44.7627L15.9793 42.4615C16.233 42.2952 16.4553 42.1132 16.639 41.9172C18.2858 40.1707 18.627 36.2647 15.2845 33.6625C11.942 31.0602 8.23727 31.573 5.86602 33.3002C5.58952 33.5015 5.36202 33.7377 5.18177 34.0037L2.26802 31.7235C1.59777 31.1985 1.48227 30.229 2.00902 29.5587C2.10702 29.4327 2.22602 29.3242 2.35902 29.235C8.11127 25.3675 13.2405 21.1815 17.7468 16.6752C22.253 12.169 26.3865 7.21821 30.149 1.82121C30.7878 0.902457 32.0443 0.664457 32.9753 1.28571ZM19.187 29.1737C18.2945 29.4467 17.801 30.4215 18.0845 31.349C18.368 32.2765 19.3218 32.8085 20.216 32.5355C21.1085 32.2625 21.602 31.2877 21.3185 30.3602C21.035 29.4327 20.0813 28.9007 19.187 29.1737ZM29.6398 17.2842L29.47 17.3735L26.3165 19.5365L22.6538 18.1557C22.47 18.0857 22.267 18.084 22.0815 18.1505C21.7105 18.2835 21.4918 18.651 21.5338 19.0272L21.5775 19.2145L22.8515 22.7915L20.559 25.728C20.4505 25.8662 20.3893 26.0342 20.384 26.211C20.37 26.6047 20.6325 26.9442 20.9965 27.044L21.1873 27.072L25.172 27.2155L27.503 30.474C27.608 30.6227 27.7603 30.7312 27.9335 30.7855C28.3098 30.9027 28.707 30.7382 28.8978 30.4127L28.9748 30.2377L30.072 26.6975L33.7015 25.77C33.8888 25.7227 34.0533 25.6107 34.167 25.455C34.3998 25.1365 34.3735 24.7095 34.1268 24.4225L33.985 24.293L30.7808 21.9532L30.7773 18.0647C30.7773 17.8967 30.7265 17.734 30.632 17.5957C30.4098 17.2702 29.9968 17.153 29.645 17.2895L29.6398 17.2842ZM33.8888 14.4825C32.9963 14.7555 32.5028 15.7302 32.7863 16.6577C33.0698 17.5852 34.0235 18.1172 34.9178 17.8442C35.8103 17.5712 36.3038 16.5965 36.0203 15.669C35.7368 14.7415 34.783 14.2095 33.8888 14.4825Z" fill="currentColor"/>
</g>
<defs>
<clipPath id="clip0_15674_2314">
<rect width="56" height="56" fill="currentColor" transform="translate(0 0.0012207)"/>
</clipPath>
</defs>
</svg>
