<svg width="8" height="8" viewBox="0 0 8 8" fill="none" xmlns="http://www.w3.org/2000/svg">
<g clip-path="url(#clip0_1029_4674)">
<path d="M3.55705 0.210938C3.66797 0.210955 3.77434 0.255323 3.85277 0.334284C3.93119 0.413245 3.97525 0.520331 3.97525 0.63199C3.97525 0.743649 3.93119 0.850736 3.85277 0.929696C3.77434 1.00866 3.66797 1.05303 3.55705 1.05304H1.04747V6.94778H6.90317V4.42146L6.90609 4.3722C6.91868 4.26563 6.97122 4.16793 7.05297 4.09905C7.13473 4.03017 7.23952 3.99531 7.34594 4.0016C7.45237 4.00789 7.55239 4.05485 7.62557 4.13289C7.69875 4.21092 7.73958 4.31415 7.73969 4.42146V6.94778C7.73969 7.17112 7.65156 7.38531 7.49468 7.54324C7.3378 7.70116 7.12503 7.78988 6.90317 7.78988H1.04747C0.825605 7.78988 0.612831 7.70116 0.455951 7.54324C0.299072 7.38531 0.210938 7.17112 0.210938 6.94778V1.05304C0.210937 0.829702 0.299072 0.61551 0.455951 0.457584C0.612831 0.299659 0.825605 0.210938 1.04747 0.210938H3.55705ZM7.62258 0.334306C7.70099 0.413265 7.74504 0.520342 7.74504 0.63199C7.74504 0.743638 7.70099 0.850715 7.62258 0.929674L3.77789 4.80041C3.69901 4.87711 3.59335 4.91955 3.48369 4.91859C3.37402 4.91763 3.26911 4.87335 3.19156 4.79528C3.11401 4.71722 3.07003 4.61161 3.06907 4.50121C3.06812 4.39081 3.11028 4.28445 3.18647 4.20504L7.03115 0.334727C7.10959 0.255792 7.21596 0.211448 7.32687 0.211448C7.43778 0.211448 7.54414 0.255792 7.62258 0.334727V0.334306Z" fill="currentColor"/>
</g>
<defs>
<clipPath id="clip0_1029_4674">
<rect width="7.62947" height="7.57895" fill="currentColor" transform="translate(0.210938 0.210938)"/>
</clipPath>
</defs>
</svg>
