<svg xmlns="http://www.w3.org/2000/svg" width="14" height="14" viewBox="0 0 14 14" fill="none">
  <path d="M7 14C10.8658 14 14 10.8658 14 7C14 3.13425 10.8658 0 7 0C3.13425 0 0 3.13425 0 7C0 10.8658 3.13425 14 7 14ZM5.83341 2.695H8.16659V7.28591H5.83341V2.695ZM7 8.6275C7.2654 8.62746 7.52486 8.70612 7.74555 8.85355C7.96625 9.00097 8.13826 9.21053 8.23985 9.45572C8.34144 9.70092 8.36803 9.97073 8.31626 10.231C8.26449 10.4913 8.13669 10.7304 7.94902 10.9181C7.76135 11.1058 7.52225 11.2336 7.26194 11.2854C7.00163 11.3371 6.73182 11.3105 6.48663 11.2089C6.24144 11.1074 6.03187 10.9353 5.88445 10.7146C5.73703 10.494 5.65836 10.2345 5.65841 9.96909V9.96341C5.65838 9.78798 5.6929 9.61427 5.76002 9.45219C5.82713 9.29012 5.92551 9.14284 6.04954 9.01879C6.17358 8.89474 6.32083 8.79633 6.4829 8.72919C6.64497 8.66206 6.81867 8.6275 6.99409 8.6275H7.00066H7Z" fill="currentColor"/>
</svg>
