<svg width="18" height="18" viewBox="0 0 18 18" fill="none" xmlns="http://www.w3.org/2000/svg">
<g clip-path="url(#clip0_15915_1686)">
<path d="M17.3077 11.8361H13.8461C13.47 11.8361 13.1093 11.6867 12.8434 11.4208C12.5775 11.1548 12.4281 10.7942 12.4281 10.4181C12.4281 10.042 12.5775 9.68128 12.8434 9.41534C13.1093 9.14941 13.47 9 13.8461 9H17.3077C17.3998 9.0011 17.4907 9.02033 17.5753 9.05657C17.6599 9.09281 17.7366 9.14537 17.8009 9.21124C17.8652 9.2771 17.9159 9.35499 17.9501 9.44045C17.9843 9.52591 18.0013 9.61727 18.0002 9.70932V11.1274C18.0023 11.3132 17.9305 11.4922 17.8007 11.6251C17.6708 11.758 17.4935 11.8339 17.3077 11.8361ZM13.8461 9.70932C13.753 9.70714 13.6604 9.72332 13.5735 9.75694C13.4867 9.79056 13.4073 9.84095 13.3399 9.90525C13.2725 9.96955 13.2185 10.0465 13.1808 10.1317C13.1432 10.2169 13.1227 10.3086 13.1205 10.4018C13.1183 10.4949 13.1345 10.5875 13.1681 10.6744C13.2017 10.7612 13.2521 10.8406 13.3164 10.908C13.3807 10.9754 13.4577 11.0294 13.5429 11.0671C13.628 11.1047 13.7198 11.1252 13.8129 11.1274C13.9061 11.1296 13.9987 11.1135 14.0856 11.0799C14.1725 11.0463 14.2519 10.9959 14.3193 10.9316C14.3867 10.8673 14.4407 10.7903 14.4784 10.7051C14.516 10.6199 14.5364 10.5281 14.5386 10.4349V10.4181C14.5397 10.3261 14.5226 10.2347 14.4884 10.1493C14.4542 10.0639 14.4035 9.98601 14.3392 9.92019C14.2749 9.85436 14.1983 9.80186 14.1136 9.76568C14.029 9.7295 13.9381 9.71034 13.8461 9.70932ZM11.7694 9.70932V11.1274C11.765 11.4991 11.9084 11.8574 12.1681 12.1234C12.4278 12.3894 12.7825 12.5414 13.1542 12.546H16.6159V15.3821C16.6204 15.7538 16.4771 16.1121 16.2175 16.3781C15.9579 16.6441 15.6032 16.7962 15.2316 16.8008H1.38505C1.01332 16.7959 0.658716 16.6437 0.399075 16.3776C0.139434 16.1115 -0.00402849 15.7533 0.000175818 15.3816V3.32719C-0.00339275 3.05143 0.0473938 2.77767 0.149635 2.52155C0.251877 2.26542 0.40357 2.03194 0.596053 1.83444C0.788536 1.63694 1.01804 1.4793 1.27145 1.3705C1.52487 1.26171 1.79723 1.2039 2.07299 1.20038H15.9229C16.1109 1.20038 16.2913 1.27508 16.4242 1.40805C16.5572 1.54102 16.6319 1.72136 16.6319 1.90941C16.6319 2.09746 16.5572 2.2778 16.4242 2.41077C16.2913 2.54374 16.1109 2.61844 15.9229 2.61844H2.07749C1.8929 2.62364 1.71761 2.70062 1.58889 2.83302C1.46016 2.96543 1.38815 3.14281 1.38815 3.32747C1.38815 3.51214 1.46016 3.68952 1.58889 3.82192C1.71761 3.95432 1.8929 4.0313 2.07749 4.0365H15.231C15.6027 4.0411 15.9573 4.19313 16.2169 4.45917C16.4765 4.7252 16.6198 5.08345 16.6153 5.45513V8.29125H13.1537C12.7821 8.29585 12.4275 8.44781 12.168 8.71372C11.9084 8.97963 11.765 9.33773 11.7694 9.70932Z" fill="white"/>
</g>
<defs>
<clipPath id="clip0_15915_1686">
<rect width="18" height="18" fill="white"/>
</clipPath>
</defs>
</svg>
