<svg width="18" height="18" viewBox="0 0 18 18" fill="none" xmlns="http://www.w3.org/2000/svg">
<path d="M13.7966 10.3241V12.5935H3.20312V10.3241H4.71386V6.85903C4.72217 5.04334 6.00715 3.53042 7.71695 3.17079L7.74145 3.16641V2.75821C7.74145 2.55712 7.82134 2.36427 7.96353 2.22207C8.10572 2.07988 8.29858 2 8.49967 2C8.70076 2 8.89361 2.07988 9.0358 2.22207C9.17799 2.36427 9.25788 2.55712 9.25788 2.75821V3.16641C10.9979 3.5313 12.2855 5.05297 12.2855 6.87565V10.3416L13.7966 10.3241ZM8.49988 16C9.75336 16 10.7693 14.9841 10.7693 13.7306H6.23072C6.23072 14.9841 7.24641 16 8.49988 16Z" fill="currentColor"/>
</svg>
