<svg width="19" height="19" viewBox="0 0 19 19" fill="none" xmlns="http://www.w3.org/2000/svg">
<path d="M9.4987 14.6465C10.1545 14.6465 10.6862 15.1781 10.6862 15.834V17.4173C10.6862 18.0732 10.1545 18.6048 9.4987 18.6048C8.84286 18.6048 8.3112 18.0732 8.3112 17.4173V15.834C8.3112 15.1781 8.84286 14.6465 9.4987 14.6465Z" fill="url(#paint0_linear_4557_18454)"/>
<path d="M5.30379 14.3914C5.63174 13.8235 6.35785 13.629 6.92578 13.9569C7.49369 14.2848 7.68815 15.0109 7.36027 15.5789L6.5686 16.9504C6.24061 17.5181 5.51448 17.7127 4.94661 17.3848C4.37872 17.0569 4.18433 16.3308 4.51213 15.7629L5.30379 14.3914Z" fill="url(#paint1_linear_4557_18454)"/>
<path d="M12.0716 13.9569C12.6041 13.6495 13.2758 13.8012 13.6279 14.2893L13.6936 14.3914L14.4853 15.7629L14.5409 15.8711C14.7875 16.42 14.5832 17.0775 14.0508 17.3848C13.5184 17.6921 12.8466 17.5404 12.4945 17.0524L12.4288 16.9504L11.6371 15.5789L11.5815 15.4706C11.3349 14.9218 11.5394 14.2643 12.0716 13.9569Z" fill="url(#paint2_linear_4557_18454)"/>
<path d="M3.52873 11.5834C4.0776 11.3369 4.73508 11.5413 5.04248 12.0736C5.37029 12.6414 5.1757 13.3676 4.60799 13.6956L3.23649 14.4872C2.66854 14.8151 1.94244 14.6207 1.6145 14.0527C1.28672 13.4848 1.48113 12.7587 2.04899 12.4307L3.42049 11.6391L3.52873 11.5834Z" fill="url(#paint3_linear_4557_18454)"/>
<path d="M13.9565 12.0736C14.2639 11.5413 14.9213 11.3369 15.4702 11.5834L15.5785 11.6391L16.95 12.4307L17.052 12.4965C17.54 12.8485 17.6917 13.5203 17.3844 14.0527C17.0771 14.5851 16.4196 14.7894 15.8707 14.5429L15.7625 14.4872L14.391 13.6956L14.2889 13.6298C13.8008 13.2778 13.6491 12.606 13.9565 12.0736Z" fill="url(#paint4_linear_4557_18454)"/>
<path d="M3.16536 8.31315C3.8212 8.31315 4.35286 8.84481 4.35286 9.50065C4.35286 10.1565 3.8212 10.6882 3.16536 10.6882H1.58203C0.926193 10.6882 0.394531 10.1565 0.394531 9.50065C0.394531 8.84481 0.926193 8.31315 1.58203 8.31315H3.16536Z" fill="url(#paint5_linear_4557_18454)"/>
<path d="M17.4154 8.31315C18.0712 8.31315 18.6029 8.84481 18.6029 9.50065C18.6029 10.1565 18.0712 10.6882 17.4154 10.6882H15.832C15.1762 10.6882 14.6445 10.1565 14.6445 9.50065C14.6445 8.84481 15.1762 8.31315 15.832 8.31315H17.4154Z" fill="url(#paint6_linear_4557_18454)"/>
<path d="M15.7625 4.51408C16.3304 4.18629 17.0565 4.38067 17.3844 4.94857C17.7123 5.51643 17.5177 6.24257 16.95 6.57056L15.5785 7.36222C15.0105 7.6901 14.2844 7.49564 13.9565 6.92773C13.6286 6.3598 13.8231 5.63369 14.391 5.30575L15.7625 4.51408Z" fill="url(#paint7_linear_4557_18454)"/>
<path d="M1.6145 4.94857C1.92194 4.41633 2.57939 4.21187 3.12826 4.45842L3.23649 4.51408L4.60799 5.30575L4.71004 5.37146C5.19807 5.7235 5.34973 6.39533 5.04248 6.92773C4.73511 7.46011 4.07765 7.66442 3.52873 7.41789L3.42049 7.36222L2.04899 6.57056L1.94694 6.50484C1.45884 6.15276 1.3071 5.48101 1.6145 4.94857Z" fill="url(#paint8_linear_4557_18454)"/>
<path d="M12.4945 1.94889C12.8466 1.46071 13.5183 1.30906 14.0508 1.61646C14.5832 1.92387 14.7876 2.58127 14.5409 3.13021L14.4853 3.23844L13.6936 4.60994C13.3656 5.17767 12.6395 5.37225 12.0716 5.04443C11.5037 4.71653 11.3093 3.99038 11.6371 3.42244L12.4288 2.05094L12.4945 1.94889Z" fill="url(#paint9_linear_4557_18454)"/>
<path d="M4.94661 1.61646C5.47906 1.30905 6.1508 1.46079 6.50289 1.94889L6.5686 2.05094L7.36027 3.42244L7.41593 3.53068C7.66246 4.07961 7.45816 4.73707 6.92578 5.04443C6.39338 5.35168 5.72155 5.20002 5.36951 4.712L5.30379 4.60994L4.51213 3.23844L4.45646 3.13021C4.20991 2.58134 4.41437 1.92389 4.94661 1.61646Z" fill="url(#paint10_linear_4557_18454)"/>
<path d="M9.4987 0.396484C10.1545 0.396484 10.6862 0.928146 10.6862 1.58398V3.16732C10.6862 3.82316 10.1545 4.35482 9.4987 4.35482C8.84286 4.35482 8.3112 3.82316 8.3112 3.16732V1.58398C8.3112 0.928146 8.84286 0.396484 9.4987 0.396484Z" fill="url(#paint11_linear_4557_18454)"/>
<defs>
<linearGradient id="paint0_linear_4557_18454" x1="3.70514" y1="0.672368" x2="11.154" y2="15.0183" gradientUnits="userSpaceOnUse">
<stop stop-color="white"/>
<stop offset="1" stop-color="#676767"/>
</linearGradient>
<linearGradient id="paint1_linear_4557_18454" x1="3.70514" y1="0.672368" x2="11.154" y2="15.0183" gradientUnits="userSpaceOnUse">
<stop stop-color="white"/>
<stop offset="1" stop-color="#676767"/>
</linearGradient>
<linearGradient id="paint2_linear_4557_18454" x1="3.70514" y1="0.672368" x2="11.154" y2="15.0183" gradientUnits="userSpaceOnUse">
<stop stop-color="white"/>
<stop offset="1" stop-color="#676767"/>
</linearGradient>
<linearGradient id="paint3_linear_4557_18454" x1="3.70514" y1="0.672368" x2="11.154" y2="15.0183" gradientUnits="userSpaceOnUse">
<stop stop-color="white"/>
<stop offset="1" stop-color="#676767"/>
</linearGradient>
<linearGradient id="paint4_linear_4557_18454" x1="3.70514" y1="0.672368" x2="11.154" y2="15.0183" gradientUnits="userSpaceOnUse">
<stop stop-color="white"/>
<stop offset="1" stop-color="#676767"/>
</linearGradient>
<linearGradient id="paint5_linear_4557_18454" x1="3.70514" y1="0.672368" x2="11.154" y2="15.0183" gradientUnits="userSpaceOnUse">
<stop stop-color="white"/>
<stop offset="1" stop-color="#676767"/>
</linearGradient>
<linearGradient id="paint6_linear_4557_18454" x1="3.70514" y1="0.672368" x2="11.154" y2="15.0183" gradientUnits="userSpaceOnUse">
<stop stop-color="white"/>
<stop offset="1" stop-color="#676767"/>
</linearGradient>
<linearGradient id="paint7_linear_4557_18454" x1="3.70514" y1="0.672368" x2="11.154" y2="15.0183" gradientUnits="userSpaceOnUse">
<stop stop-color="white"/>
<stop offset="1" stop-color="#676767"/>
</linearGradient>
<linearGradient id="paint8_linear_4557_18454" x1="3.70514" y1="0.672368" x2="11.154" y2="15.0183" gradientUnits="userSpaceOnUse">
<stop stop-color="white"/>
<stop offset="1" stop-color="#676767"/>
</linearGradient>
<linearGradient id="paint9_linear_4557_18454" x1="3.70514" y1="0.672368" x2="11.154" y2="15.0183" gradientUnits="userSpaceOnUse">
<stop stop-color="white"/>
<stop offset="1" stop-color="#676767"/>
</linearGradient>
<linearGradient id="paint10_linear_4557_18454" x1="3.70514" y1="0.672368" x2="11.154" y2="15.0183" gradientUnits="userSpaceOnUse">
<stop stop-color="white"/>
<stop offset="1" stop-color="#676767"/>
</linearGradient>
<linearGradient id="paint11_linear_4557_18454" x1="3.70514" y1="0.672368" x2="11.154" y2="15.0183" gradientUnits="userSpaceOnUse">
<stop stop-color="white"/>
<stop offset="1" stop-color="#676767"/>
</linearGradient>
</defs>
</svg>
