<svg width="32" height="32" viewBox="0 0 32 32" fill="none" xmlns="http://www.w3.org/2000/svg">
<path d="M4.99023 9.66017L18.4939 1.23205C19.5245 0.590422 20.8781 0.902172 21.5241 1.92805L26.3689 9.66017H4.99023Z" fill="#FAB001"/>
<path d="M24.6197 9.66073L19.7822 1.93948C19.5318 1.54073 19.1761 1.25436 18.7769 1.08398C18.6789 1.12748 18.5846 1.17461 18.4939 1.23261L4.99023 9.66073H24.6197Z" fill="#F9E48A"/>
<path d="M24.6082 9.65885L20.4131 2.96348C20.4094 2.95985 20.4094 2.95623 20.4058 2.9526C20.032 2.36535 19.2409 2.20948 18.6457 2.5756C15.9856 4.22135 7.25781 9.66248 7.25781 9.66248H24.6082V9.65885Z" fill="#FECE0A"/>
<path d="M31.5293 6.65039H0.388571C0.192603 6.65039 0.0292969 6.80989 0.0292969 7.00927V29.6039C0.0292969 29.7996 0.188974 29.9628 0.388571 29.9628H31.5293C31.7253 29.9628 31.8886 29.8033 31.8886 29.6039V7.00927C31.8886 6.80989 31.7289 6.65039 31.5293 6.65039Z" fill="#FE6A19"/>
<path d="M3.60222 6.65039C1.63165 6.65039 0.03125 8.24902 0.03125 10.2174V26.3921C0.03125 26.8561 0.121976 27.302 0.285282 27.708C0.564718 27.7805 0.858669 27.8204 1.16351 27.8204H25.8772C27.8478 27.8204 29.4482 26.2218 29.4482 24.2534V8.07864C29.4482 7.61464 29.3575 7.16877 29.1942 6.76277C28.9147 6.69027 28.6208 6.65039 28.3159 6.65039H3.60222Z" fill="#FF9843"/>
<path d="M25.8777 27.825C27.8482 27.825 29.4487 26.2263 29.4487 24.258V8.65234H5.47526C3.5047 8.65234 1.9043 10.251 1.9043 12.2193V27.825H25.8777Z" fill="#FC8308"/>
<path d="M23.2805 15.334C21.9341 15.334 20.8418 16.4251 20.8418 17.77C20.8418 19.1149 21.9341 20.206 23.2805 20.206H29.4499V15.334H23.2805ZM23.5055 19.2019C22.7144 19.2019 22.0757 18.5639 22.0757 17.7736C22.0757 16.9834 22.7144 16.3454 23.5055 16.3454C24.2966 16.3454 24.9353 16.9834 24.9353 17.7736C24.9353 18.5639 24.293 19.2019 23.5055 19.2019Z" fill="white"/>
</svg>
