<svg width="16" height="17" viewBox="0 0 16 17" fill="none" xmlns="http://www.w3.org/2000/svg">
<mask id="mask0_991_2663" style="mask-type:luminance" maskUnits="userSpaceOnUse" x="0" y="0" width="16" height="17">
<path d="M16 0.453125H0V16.5461H16V0.453125Z" fill="white"/>
</mask>
<g mask="url(#mask0_991_2663)">
<path d="M0.0351562 2.64821C0.0351562 3.87277 2.47702 4.86478 5.48937 4.86478C8.50172 4.86478 10.9454 3.87277 10.9454 2.64821C10.9454 1.42365 8.50355 0.431641 5.49118 0.431641C2.47883 0.431641 0.0351562 1.42365 0.0351562 2.64821Z" fill="currentColor"/>
<path d="M5.48951 7.62528C6.28166 7.62709 7.07199 7.55441 7.84961 7.40543C8.63268 6.79678 9.56107 6.40435 10.544 6.26808C10.8002 6.05369 10.9546 5.74118 10.9746 5.4087V3.54642C10.8983 4.7401 8.49097 5.70485 5.5204 5.70485C2.54983 5.70485 0.0371104 4.71103 0.0371104 3.48828V5.39962C0.0352935 6.63145 2.48079 7.62528 5.48951 7.62528Z" fill="currentColor"/>
<path d="M5.48937 8.41879C2.48065 8.41879 0.0351562 7.42496 0.0351562 6.16406V8.07359C0.0351562 9.29633 2.48065 10.2902 5.48937 10.2902H5.87091C6.07985 9.57976 6.42869 8.91843 6.89381 8.34067C6.42869 8.39336 5.95994 8.41879 5.48937 8.41879Z" fill="currentColor"/>
<path d="M5.70921 11.1228H5.48937C2.46975 11.1228 0.0351562 10.1672 0.0351562 8.90625V10.8176C0.0351562 12.0404 2.48065 13.0341 5.48937 13.0341H5.76735C5.63654 12.4037 5.61655 11.7569 5.70921 11.1228Z" fill="currentColor"/>
<path fill-rule="evenodd" clip-rule="evenodd" d="M11.2087 16.5462C13.8545 16.5462 15.9994 14.4014 15.9994 11.7555C15.9994 9.10971 13.8545 6.96484 11.2087 6.96484C8.56283 6.96484 6.41797 9.10971 6.41797 11.7555C6.41797 14.4014 8.56283 16.5462 11.2087 16.5462ZM12.8366 11.709C12.8366 12.6338 12.0869 13.3834 11.1622 13.3834C10.2374 13.3834 9.48774 12.6338 9.48774 11.709C9.48774 10.7843 10.2374 10.0346 11.1622 10.0346C12.0869 10.0346 12.8366 10.7843 12.8366 11.709ZM12.6746 13.8299C12.2482 14.1344 11.7262 14.3137 11.1622 14.3137C10.6199 14.3137 10.1163 14.148 9.69936 13.8645L9.22041 14.3434L8.63299 13.7559L9.09503 13.294C8.7579 12.8549 8.5575 12.3054 8.5575 11.709C8.5575 11.1213 8.75215 10.5791 9.08049 10.1433L8.63299 9.69576L9.22041 9.10834L9.67936 9.56733C10.1002 9.27543 10.6112 9.10438 11.1622 9.10438C11.7348 9.10438 12.2642 9.28916 12.6942 9.60234L12.9997 9.29676L13.1882 9.10833L13.7755 9.69575L13.5857 9.88568L13.2795 10.1918C13.5862 10.6191 13.7668 11.143 13.7668 11.709C13.7668 12.2837 13.5807 12.815 13.2654 13.2458L13.5857 13.5661L13.7755 13.756L13.1882 14.3434L12.9997 14.155L12.6746 13.8299Z" fill="currentColor"/>
</g>
</svg>
