<svg width="24" height="24" viewBox="0 0 24 24" fill="none" xmlns="http://www.w3.org/2000/svg">
<path d="M23.4901 18.5474L18.0013 13.0586C16.9186 11.9759 15.3015 11.765 13.9984 12.4071L9.00184 7.41052V4.49975L3.00218 0L0.00234358 2.99983L4.50209 8.9995H7.41287L12.4095 13.9961C11.772 15.2991 11.9782 16.9162 13.061 17.999L18.5497 23.4878C19.2341 24.1721 20.3403 24.1721 21.0199 23.4878L23.4901 21.0176C24.1697 20.3332 24.1697 19.2271 23.4901 18.5474ZM15.5499 10.5463C16.8764 10.5463 18.1232 11.0619 19.0607 11.9993L19.97 12.9087C20.7106 12.5852 21.4137 12.1353 22.023 11.5259C23.762 9.78695 24.3526 7.34022 23.7995 5.11846C23.6963 4.69661 23.1667 4.55131 22.8573 4.86067L19.37 8.34797L16.1874 7.81831L15.6577 4.63568L19.145 1.14837C19.4544 0.839016 19.3044 0.309358 18.8779 0.201551C16.6561 -0.346856 14.2094 0.243736 12.4751 1.97801C11.1392 3.31388 10.5111 5.07628 10.5439 6.83399L14.3922 10.6822C14.7718 10.5932 15.1656 10.5463 15.5499 10.5463ZM10.6799 14.3898L8.02221 11.7322L0.878857 18.8802C-0.292952 20.052 -0.292952 21.9503 0.878857 23.1221C2.05067 24.294 3.949 24.294 5.12081 23.1221L10.9142 17.3287C10.558 16.396 10.4502 15.3788 10.6799 14.3898ZM3.00218 22.1238C2.38346 22.1238 1.87724 21.6175 1.87724 20.9988C1.87724 20.3754 2.37877 19.8739 3.00218 19.8739C3.62558 19.8739 4.12711 20.3754 4.12711 20.9988C4.12711 21.6175 3.62558 22.1238 3.00218 22.1238Z" fill="currentColor"/>
</svg>
