<svg width="16" height="17" viewBox="0 0 16 17" fill="none" xmlns="http://www.w3.org/2000/svg">
<g clip-path="url(#clip0_16295_823)">
<path fill-rule="evenodd" clip-rule="evenodd" d="M8 0.5C10.1217 0.5 12.1566 1.34285 13.6569 2.84315C15.1571 4.34344 16 6.37827 16 8.5C16 10.6217 15.1571 12.6566 13.6569 14.1569C12.1566 15.6571 10.1217 16.5 8 16.5C5.87827 16.5 3.84344 15.6571 2.34315 14.1569C0.842855 12.6566 0 10.6217 0 8.5C0 6.37827 0.842855 4.34344 2.34315 2.84315C3.84344 1.34285 5.87827 0.5 8 0.5ZM11.8801 9.67173C11.2256 9.39344 10.5467 9.17651 9.85209 9.02373C10.1164 8.85524 10.3341 8.62294 10.4851 8.34822C10.6361 8.0735 10.7155 7.7652 10.7161 7.45173V6.33573C10.7161 5.84083 10.5195 5.36621 10.1695 5.01626C9.81961 4.66632 9.34498 4.46973 8.85009 4.46973C8.3552 4.46973 7.88057 4.66632 7.53063 5.01626C7.18069 5.36621 6.98409 5.84083 6.98409 6.33573V7.44773C6.98611 7.74661 7.05981 8.04064 7.19902 8.30513C7.33823 8.56962 7.53887 8.79685 7.78409 8.96773C6.99863 9.11686 6.23154 9.35021 5.49609 9.66373C5.34007 9.7334 5.20653 9.84515 5.11044 9.98645C5.01436 10.1277 4.95953 10.293 4.95209 10.4637V11.8197C4.97434 11.9866 5.0563 12.1397 5.1828 12.2508C5.3093 12.3618 5.47176 12.4233 5.64009 12.4237H11.7201C11.8711 12.4228 12.0181 12.3745 12.1401 12.2854C12.2621 12.1964 12.3531 12.0713 12.4001 11.9277V10.4757C12.3946 10.3061 12.342 10.1413 12.248 9.99999C12.154 9.85866 12.0224 9.74636 11.8681 9.67573L11.8801 9.67173ZM6.5481 8.71946C6.5481 8.71946 6.3721 8.78346 6.0001 8.89946L6.0041 8.90346C5.71343 8.99146 5.43476 9.07413 5.1681 9.15146L4.9281 9.25146C4.73261 9.38098 4.57151 9.55603 4.45863 9.76158C4.34575 9.96712 4.28449 10.197 4.2801 10.4315V10.5875C4.26794 10.6733 4.22821 10.7529 4.16689 10.8143C4.10556 10.8756 4.02597 10.9153 3.9401 10.9275C3.84992 10.9275 3.76344 10.8916 3.69968 10.8279C3.63592 10.7641 3.6001 10.6776 3.6001 10.5875V9.61146C3.60106 9.47507 3.6387 9.34146 3.70908 9.22463C3.77946 9.1078 3.87998 9.01206 4.0001 8.94746C4.42986 8.70653 4.88282 8.50954 5.3521 8.35946C5.13392 8.10714 5.01331 7.78503 5.0121 7.45146V6.55546C5.0121 6.18204 5.16044 5.82391 5.42449 5.55985C5.68854 5.2958 6.04667 5.14746 6.4201 5.14746C6.48677 5.14772 6.55189 5.16758 6.60736 5.20456C6.66284 5.24154 6.70621 5.29402 6.7321 5.35546C6.73805 5.36653 6.74117 5.3789 6.74117 5.39146C6.74117 5.40403 6.73805 5.4164 6.7321 5.42746C6.5321 5.47546 6.4681 5.99946 6.4681 5.99946V7.06746C6.41884 7.52705 6.50798 7.99088 6.7241 8.39946C6.7881 8.61546 6.5481 8.71946 6.5481 8.71946Z" fill="currentColor"/>
</g>
<defs>
<clipPath id="clip0_16295_823">
<rect width="16" height="16" fill="white" transform="translate(0 0.5)"/>
</clipPath>
</defs>
</svg>
