<svg width="19" height="19" viewBox="0 0 19 19" fill="none" xmlns="http://www.w3.org/2000/svg">
<path d="M3.8352 4.33521C4.28214 3.88827 5.00678 3.88827 5.45372 4.33521L15.1648 14.0463C15.6117 14.4932 15.6117 15.2179 15.1648 15.6648C14.7179 16.1117 13.9932 16.1117 13.5463 15.6648L3.83521 5.95372C3.38827 5.50678 3.38826 4.78215 3.8352 4.33521Z" fill="currentColor"/>
<path d="M15.1648 4.3352C14.7179 3.88827 13.9932 3.88827 13.5463 4.3352L3.83521 14.0463C3.38827 14.4932 3.38827 15.2179 3.83521 15.6648C4.28215 16.1117 5.00678 16.1117 5.45372 15.6648L15.1648 5.95372C15.6117 5.50678 15.6117 4.78214 15.1648 4.3352Z" fill="currentColor"/>
</svg>
