<svg width="14" height="18" viewBox="0 0 14 18" fill="none" xmlns="http://www.w3.org/2000/svg">
<path d="M6.65157 2.56088V11.3991H7.8051V2.49032L9.10097 3.80516L9.91498 2.97991L7.30003 0.320312L4.58913 2.84095L5.34831 3.71857L6.65157 2.56088ZM12.6459 5.1681H9.72307V6.34076H12.0259C12.8072 6.34076 12.7925 6.40383 12.7925 7.1179V15.6804C12.7925 16.1977 12.8083 16.4564 12.0259 16.4564H2.4297C1.54293 16.4564 1.68634 16.1261 1.66208 15.6804V7.1179C1.66208 6.40489 1.64838 6.34076 2.4297 6.34076H4.73359V5.1681H1.81181C1.03049 5.1681 0.511719 5.62241 0.511719 6.33648V16.3303C0.511719 17.0454 1.14437 17.6227 1.92569 17.6227H12.531C13.3112 17.6227 13.9449 17.0454 13.9449 16.3303V6.63686C13.9449 5.92386 13.4262 5.1681 12.6459 5.1681Z" fill="#025BE8"/>
</svg>
