<svg width="20" height="20" viewBox="0 0 20 20" fill="none" xmlns="http://www.w3.org/2000/svg">
<path d="M14.4082 2C14.9558 2 15.4798 2.24493 15.8369 2.67383L18.5274 5.84766C19.1702 6.60748 19.1578 7.73539 18.4912 8.4707L11.3731 16.3633C11.016 16.7676 10.5041 16.9999 9.98048 17C9.44481 17 8.94422 16.7677 8.57521 16.3633L1.50489 8.4707C0.850189 7.73539 0.82596 6.60748 1.46876 5.84766L4.14747 2.67383C4.50458 2.24502 5.02851 2 5.5879 2H14.4082ZM15.1113 6.82715C14.9209 6.63121 14.623 6.63165 14.4326 6.81543L9.89747 11.374L5.5879 6.82715C5.39749 6.63151 5.10052 6.63191 4.91017 6.81543C4.71979 7.01142 4.71916 7.31758 4.89747 7.51367L9.54005 12.416C9.63528 12.5141 9.76672 12.5635 9.88575 12.5635C10.0047 12.5634 10.1236 12.5134 10.2188 12.4277L15.0996 7.52637C15.29 7.33028 15.2899 7.02322 15.1113 6.82715Z" fill="#6D7693"/>
</svg>
