<svg width="15" height="14" viewBox="0 0 15 14" fill="none" xmlns="http://www.w3.org/2000/svg">
<path d="M7.5 0C3.63381 0 0.5 3.13381 0.5 7C0.5 10.8662 3.63381 14 7.5 14C11.3662 14 14.5 10.8662 14.5 7C14.5 3.13381 11.3662 0 7.5 0ZM8.64625 11.305H6.35375V6.71125H8.64625V11.305ZM7.5 5.3725C6.76062 5.3725 6.16125 4.77313 6.16125 4.03375C6.16125 3.29437 6.76062 2.695 7.5 2.695C8.23938 2.695 8.83875 3.29437 8.83875 4.03375C8.83875 4.03638 8.83875 4.03944 8.83875 4.0425C8.83875 4.77706 8.24331 5.3725 7.50875 5.3725C7.50569 5.3725 7.50306 5.3725 7.5 5.3725Z" fill="#2F4553"/>
</svg>
