<svg xmlns="http://www.w3.org/2000/svg" width="32" height="32" viewBox="0 0 32 32" fill="none">
<path d="M24.4128 26.4137C23.6315 27.1954 22.3592 27.1954 21.5762 26.4137L3.60837 8.4335C2.82716 7.64997 2.82538 6.37852 3.60837 5.59499C4.3878 4.81146 5.66016 4.81146 6.44671 5.59499L24.4128 23.5734C25.194 24.3605 25.1975 25.6302 24.4128 26.4137ZM24.3914 8.4246L6.42536 26.403C5.64059 27.1883 4.37001 27.1883 3.58702 26.403C2.80403 25.6213 2.80403 24.3516 3.5888 23.5645L21.5548 5.58787C22.3396 4.80434 23.612 4.80434 24.3914 5.58609C25.1762 6.36962 25.1726 7.64107 24.3914 8.4246Z" fill="white"/>
</svg>