<svg xmlns="http://www.w3.org/2000/svg" width="18" height="18" viewBox="0 0 18 18" fill="none">
  <g clip-path="url(#clip0_6034_5999)">
    <path d="M8.70125 3.04297C5.24728 3.04297 2.44727 5.84295 2.44727 9.29691C2.44727 12.7509 5.24728 15.5509 8.70125 15.5509C12.1552 15.5509 14.9552 12.7509 14.9552 9.29691C14.9552 5.84295 12.1552 3.04297 8.70125 3.04297ZM9.07039 12.6332V13.6387H8.50789V12.6513C7.83992 12.5876 7.19361 12.2691 6.75665 11.8685L7.14178 11.3041C7.56964 11.6682 8.08538 11.9686 8.70438 11.9686C9.45992 11.9686 9.8498 11.559 9.8498 10.9218C9.8498 9.26503 7.01234 9.62914 7.01234 7.64471C7.01234 6.73441 7.62902 6.0881 8.50792 5.96066V4.95512H9.07042V5.94245C9.73839 6.01525 10.1512 6.32477 10.5153 6.70709L10.0725 7.19865C9.69933 6.83454 9.39143 6.62518 8.83618 6.62518C8.20811 6.62518 7.80838 7.01657 7.80838 7.60829C7.80838 9.09206 10.6515 8.68242 10.6515 10.8671C10.6514 11.8321 10.0548 12.4966 9.07039 12.6332Z" fill="#2F4553"/>
    <path d="M16.3876 7.87493C16.4731 8.33196 16.5187 8.81293 16.5187 9.30062C16.5187 13.6181 13.0186 17.1172 8.70121 17.1172C4.38377 17.1172 0.883723 13.6167 0.883723 9.29925C0.883723 4.98178 4.38374 1.48155 8.70117 1.48155C9.65313 1.48155 10.5651 1.6522 11.4088 1.96376L12.09 1.2825C11.0484 0.841641 9.90331 0.597656 8.70117 0.597656C3.89566 0.597621 0 4.49325 0 9.29876C0 14.1043 3.89566 17.9999 8.70117 17.9999C13.5067 17.9999 17.4023 14.1062 17.4023 9.30062C17.4023 8.81437 17.3623 8.33196 17.2856 7.87493H16.3876Z" fill="#2F4553"/>
    <path d="M18 2.00391H15.9961V0H15.1172V2.00391H13.1133V2.88281H15.1172V4.88672H15.9961V2.88281H18V2.00391Z" fill="#2F4553"/>
  </g>
  <defs>
    <clipPath id="clip0_6034_5999">
      <rect width="18" height="18" fill="white"/>
    </clipPath>
  </defs>
</svg>