<svg width="18" height="18" viewBox="0 0 18 18" fill="none" xmlns="http://www.w3.org/2000/svg">
<g clip-path="url(#clip0_3443_3981)">
<circle cx="9" cy="9" r="8" fill="white"/>
<path d="M9.08673 18C6.98876 17.9937 4.95722 17.2692 3.33495 15.9487C1.71268 14.6283 0.599032 12.7927 0.181943 10.7519C-0.235145 8.71108 0.0698679 6.58991 1.04551 4.74639C2.02115 2.90286 3.60767 1.44986 5.53733 0.632609C7.7504 -0.235058 10.2176 -0.209283 12.4118 0.704426C14.6059 1.61814 16.3531 3.34732 17.28 5.52255C18.2069 7.69778 18.2401 10.1466 17.3723 12.3457C16.5046 14.5448 14.8048 16.32 12.6361 17.2918C11.513 17.7625 10.3058 18.0033 9.08673 18ZM9.08673 1.32305C4.84171 1.32305 1.39933 4.75758 1.39933 8.95336C1.39933 13.1491 4.84171 16.5837 9.08673 16.5837C13.3317 16.5837 16.7741 13.1668 16.7741 8.95336C16.7741 4.73987 13.3139 1.32305 9.08673 1.32305Z" fill="#E91134"/>
<path d="M5.68403 13C5.54824 12.998 5.416 12.9563 5.30369 12.8799C5.19139 12.8034 5.10396 12.6957 5.05226 12.57C5.00055 12.4443 4.98683 12.3062 5.01281 12.1728C5.03879 12.0393 5.10331 11.9165 5.19839 11.8194L11.8066 5.20495C11.9377 5.07372 12.1155 5 12.3009 5C12.4863 5 12.6641 5.07372 12.7952 5.20495C12.9263 5.33617 13 5.51415 13 5.69973C13 5.88531 12.9263 6.06329 12.7952 6.19451L6.18702 12.7916C6.12154 12.8585 6.04323 12.9114 5.95679 12.9472C5.87035 12.983 5.77757 13.001 5.68403 13Z" fill="#E91134"/>
<path d="M12.3145 13C12.1311 12.9974 11.9562 12.9227 11.8278 12.7921L5.2052 6.19193C5.14014 6.1271 5.08854 6.05013 5.05333 5.96541C5.01812 5.8807 5 5.78991 5 5.69822C5 5.51304 5.07381 5.33544 5.2052 5.2045C5.33658 5.07356 5.51478 5 5.70059 5C5.88639 5 6.06459 5.07356 6.19598 5.2045L12.8012 11.822C12.8965 11.9189 12.9611 12.0415 12.9872 12.1746C13.0132 12.3077 12.9994 12.4455 12.9476 12.571C12.8958 12.6964 12.8082 12.8039 12.6956 12.8802C12.5831 12.9564 12.4506 12.9981 12.3145 13Z" fill="#E91134"/>
</g>
<defs>
<clipPath id="clip0_3443_3981">
<rect width="18" height="18" fill="white"/>
</clipPath>
</defs>
</svg>
