<svg width="18" height="18" viewBox="0 0 18 18" fill="none" xmlns="http://www.w3.org/2000/svg">
<rect width="18" height="18" fill="#E8E8E8"/>
<g id="2024-6-11">
<path d="M-779 -1198C-779 -1199.1 -778.105 -1200 -777 -1200H146C147.105 -1200 148 -1199.1 148 -1198V369C148 370.104 147.105 371 146 371H-777C-778.105 371 -779 370.105 -779 369V-1198Z" fill="#44A317"/>
<path d="M-777 -1199H146V-1201H-777V-1199ZM147 -1198V369H149V-1198H147ZM146 370H-777V372H146V370ZM-778 369V-1198H-780V369H-778ZM-777 370C-777.552 370 -778 369.552 -778 369H-780C-780 370.657 -778.657 372 -777 372V370ZM147 369C147 369.552 146.552 370 146 370V372C147.657 372 149 370.657 149 369H147ZM146 -1199C146.552 -1199 147 -1198.55 147 -1198H149C149 -1199.66 147.657 -1201 146 -1201V-1199ZM-777 -1201C-778.657 -1201 -780 -1199.66 -780 -1198H-778C-778 -1198.55 -777.552 -1199 -777 -1199V-1201Z" fill="black" fill-opacity="0.1"/>
<g id="&#229;&#133;&#133;&#229;&#128;&#188;&#228;&#186;&#140;&#231;&#187;&#180;&#231;&#160;&#129;&#231;&#149;&#140;&#233;&#157;&#162;">
<g id="Group 1261153844">
<rect id="Rectangle 505051" x="-679" y="-379" width="727" height="650" rx="4" fill="white"/>
</g>
<g id="Group 1261154727">
<g id="Frame 1261155440">
<path id="Rectangle 505053" d="M-658.5 -6C-658.5 -7.933 -656.933 -9.5 -655 -9.5H24C25.933 -9.5 27.5 -7.933 27.5 -6V24C27.5 25.933 25.933 27.5 24 27.5H-655C-656.933 27.5 -658.5 25.933 -658.5 24V-6Z" stroke="#DCE3F1"/>
<g id="fuzhi 1">
<path id="Vector" d="M1.68945 10.1189C1.68945 10.2686 1.74909 10.4121 1.85524 10.5179C1.96138 10.6238 2.10535 10.6832 2.25547 10.6832C2.40559 10.6832 2.54955 10.6238 2.6557 10.5179C2.76185 10.4121 2.82148 10.2686 2.82148 10.1189C2.82148 9.9693 2.76185 9.82577 2.6557 9.71996C2.54955 9.61414 2.40559 9.55469 2.25547 9.55469C2.10535 9.55469 1.96138 9.61414 1.85524 9.71996C1.74909 9.82577 1.68945 9.9693 1.68945 10.1189Z" fill="#1475E1"/>
<path id="Vector_2" d="M13.0439 7.92169L8.30664 7.88478C8.05527 7.88302 7.84961 8.12735 7.84961 8.4297C7.84961 8.73204 8.05527 8.97989 8.30664 8.98165L13.0439 9.01856C13.2953 9.02032 13.501 8.77599 13.501 8.47364C13.501 8.1713 13.2953 7.92345 13.0439 7.92169ZM13.0439 10.1541L8.30664 10.1172C8.05527 10.1154 7.84961 10.3598 7.84961 10.6621C7.84961 10.9645 8.05527 11.2123 8.30664 11.2141L13.0439 11.251C13.2953 11.2545 13.501 11.0084 13.501 10.7061C13.501 10.4037 13.2953 10.1559 13.0439 10.1541Z" fill="#1475E1"/>
<path id="Vector_3" d="M12.9393 1.12305H7.33008C6.09258 1.12305 5.08008 2.13555 5.08008 3.37305H3.93926C2.70176 3.37305 1.68926 4.38555 1.68926 5.62305V7.87305C1.6875 8.18418 1.94238 8.43555 2.25527 8.43555C2.56816 8.43555 2.82129 8.18242 2.82129 7.87129V5.62481C2.82129 5.00606 3.32754 4.49981 3.94629 4.49981H5.08008V12.3713C5.08008 13.6088 6.09258 14.6213 7.33008 14.6213H11.8143C11.8125 15.24 11.308 15.7428 10.6893 15.7428H3.94629C3.32754 15.7428 2.82129 15.2365 2.82129 14.6178V12.366C2.82129 12.0549 2.56816 11.8018 2.25527 11.8018C1.94238 11.8018 1.6875 12.0549 1.6875 12.366V14.6213C1.6875 15.8588 2.7 16.8713 3.9375 16.8713H10.6893C11.9268 16.8713 12.9393 15.8588 12.9393 14.6213H14.0818C15.3193 14.6213 16.3318 13.6088 16.3318 12.3713V4.49805L12.9393 1.12305ZM12.941 2.2375L15.1857 4.49277H14.0625C13.4437 4.49277 12.9375 3.98652 12.9375 3.36777V2.2375H12.941ZM14.066 13.5051H7.31426C6.69551 13.5051 6.18926 12.9988 6.18926 12.3801V3.3625C6.18926 2.74375 6.69551 2.2375 7.31426 2.2375H11.7949V3.35723C11.7949 4.59473 12.8074 5.60723 14.0449 5.60723H15.191V12.3801C15.191 12.9988 14.6848 13.5051 14.066 13.5051Z" fill="#1475E1"/>
</g>
</g>
</g>
</g>
</g>
</svg>
