<svg width="16" height="16" viewBox="0 0 16 16" fill="none" xmlns="http://www.w3.org/2000/svg">
<path d="M0.689453 9.11895C0.689453 9.2686 0.749087 9.41212 0.855235 9.51794C0.961384 9.62376 1.10535 9.6832 1.25547 9.6832C1.40559 9.6832 1.54955 9.62376 1.6557 9.51794C1.76185 9.41212 1.82148 9.2686 1.82148 9.11895C1.82148 8.9693 1.76185 8.82577 1.6557 8.71996C1.54955 8.61414 1.40559 8.55469 1.25547 8.55469C1.10535 8.55469 0.961384 8.61414 0.855235 8.71996C0.749087 8.82577 0.689453 8.9693 0.689453 9.11895Z" fill="#1475E1"/>
<path d="M12.0439 6.92169L7.30664 6.88478C7.05527 6.88302 6.84961 7.12735 6.84961 7.4297C6.84961 7.73204 7.05527 7.97989 7.30664 7.98165L12.0439 8.01856C12.2953 8.02032 12.501 7.77599 12.501 7.47364C12.501 7.1713 12.2953 6.92345 12.0439 6.92169ZM12.0439 9.15411L7.30664 9.1172C7.05527 9.11544 6.84961 9.35977 6.84961 9.66212C6.84961 9.96446 7.05527 10.2123 7.30664 10.2141L12.0439 10.251C12.2953 10.2545 12.501 10.0084 12.501 9.70606C12.501 9.40372 12.2953 9.15587 12.0439 9.15411Z" fill="#1475E1"/>
<path d="M11.9393 0.123047H6.33008C5.09258 0.123047 4.08008 1.13555 4.08008 2.37305H2.93926C1.70176 2.37305 0.689258 3.38555 0.689258 4.62305V6.87305C0.6875 7.18418 0.942383 7.43555 1.25527 7.43555C1.56816 7.43555 1.82129 7.18242 1.82129 6.87129V4.62481C1.82129 4.00606 2.32754 3.49981 2.94629 3.49981H4.08008V11.3713C4.08008 12.6088 5.09258 13.6213 6.33008 13.6213H10.8143C10.8125 14.24 10.308 14.7428 9.68926 14.7428H2.94629C2.32754 14.7428 1.82129 14.2365 1.82129 13.6178V11.366C1.82129 11.0549 1.56816 10.8018 1.25527 10.8018C0.942383 10.8018 0.6875 11.0549 0.6875 11.366V13.6213C0.6875 14.8588 1.7 15.8713 2.9375 15.8713H9.68926C10.9268 15.8713 11.9393 14.8588 11.9393 13.6213H13.0818C14.3193 13.6213 15.3318 12.6088 15.3318 11.3713V3.49805L11.9393 0.123047ZM11.941 1.2375L14.1857 3.49277H13.0625C12.4437 3.49277 11.9375 2.98652 11.9375 2.36777V1.2375H11.941ZM13.066 12.5051H6.31426C5.69551 12.5051 5.18926 11.9988 5.18926 11.3801V2.3625C5.18926 1.74375 5.69551 1.2375 6.31426 1.2375H10.7949V2.35723C10.7949 3.59473 11.8074 4.60723 13.0449 4.60723H14.191V11.3801C14.191 11.9988 13.6848 12.5051 13.066 12.5051Z" fill="#1475E1"/>
</svg>
