<svg width="17" height="17" viewBox="0 0 17 17" fill="none" xmlns="http://www.w3.org/2000/svg">
<path fill-rule="evenodd" clip-rule="evenodd" d="M17 8.5C17 13.1945 13.1945 17 8.5 17C3.80552 17 0 13.1945 0 8.5C0 3.80552 3.80552 0 8.5 0C13.1945 0 17 3.80552 17 8.5ZM9.12099 14.1455V12.9839H9.11391C11.0477 12.7997 11.8977 11.6664 11.8977 10.3559C11.8977 8.63469 10.4527 8.13177 9.11391 7.77052V5.55344C9.75849 5.68094 10.3677 5.97844 10.8422 6.45302L11.7064 5.33385C11.0406 4.68927 10.1764 4.27844 9.12099 4.17219V2.96094H8.09391V4.14385C6.43641 4.28552 5.36682 5.33385 5.36682 6.64427C5.36682 8.32302 6.76932 8.81177 8.09391 9.14469V11.6309C7.16599 11.4893 6.43641 11.0147 5.93349 10.4834L5.09766 11.6451C5.77766 12.3676 6.75516 12.8918 8.09391 12.998V14.1455H9.12099ZM8.09391 5.49677V7.50135C7.41391 7.3101 6.91099 7.0551 6.91099 6.55219C6.91099 5.97135 7.35724 5.57469 8.09391 5.49677ZM9.12807 9.41385C9.84349 9.63344 10.3747 9.9026 10.3747 10.4976C10.3747 10.9864 10.0135 11.5034 9.12807 11.6309V9.41385Z" fill="white"/>
</svg>
