<svg width="18" height="18" viewBox="0 0 18 18" fill="none" xmlns="http://www.w3.org/2000/svg">
<g clip-path="url(#clip0_3443_3978)">
<circle cx="9" cy="9" r="9" fill="white"/>
<path d="M15.364 15.3639C14.1054 16.6226 12.5017 17.4798 10.7559 17.827C9.01004 18.1743 7.20043 17.9961 5.55589 17.3149C3.91134 16.6337 2.50573 15.4802 1.51679 14.0001C0.527845 12.5201 0 10.78 0 9C0 7.21996 0.527845 5.4799 1.51679 3.99985C2.50573 2.51981 3.91134 1.36625 5.55589 0.685071C7.20043 0.00388813 9.01004 -0.174332 10.7559 0.172949C12.5017 0.52023 14.1054 1.37741 15.364 2.6361C17.0518 4.32392 18 6.61308 18 9C18 11.3869 17.0518 13.6761 15.364 15.3639ZM14.5156 3.4839C13.4248 2.39307 12.0349 1.65021 10.5219 1.34926C9.00884 1.04832 7.44053 1.20279 6.01528 1.79316C4.59003 2.38353 3.37185 3.38328 2.51478 4.66597C1.65771 5.94867 1.20026 7.45671 1.20026 8.9994C1.20026 10.5421 1.65771 12.0501 2.51478 13.3328C3.37185 14.6155 4.59003 15.6153 6.01528 16.2056C7.44053 16.796 9.00884 16.9505 10.5219 16.6495C12.0349 16.3486 13.4248 15.6057 14.5156 14.5149C15.9782 13.0521 16.7998 11.0681 16.7997 8.99958C16.7995 6.931 15.9777 4.94719 14.515 3.4845L14.5156 3.4839ZM12.5998 11.3997V6.5997L14.9998 8.9997L12.5998 11.3997ZM6.59982 12.5997H11.3998L8.99982 14.9997L6.59982 12.5997ZM8.99982 2.9997L11.3998 5.3997H6.59982L8.99982 2.9997ZM5.39982 6.5997V11.3997L2.99982 8.9997L5.39982 6.5997Z" fill="#1475E1"/>
</g>
<defs>
<clipPath id="clip0_3443_3978">
<rect width="18" height="18" fill="white"/>
</clipPath>
</defs>
</svg>
