<svg width="18" height="18" viewBox="0 0 18 18" fill="none" xmlns="http://www.w3.org/2000/svg">
<g id="Language">
<path id="&#229;&#189;&#162;&#231;&#138;&#182;" d="M9 0C4.032 0 0 4.032 0 9C0 13.968 4.032 18 9 18C13.968 18 18 13.968 18 9C18 4.032 13.968 0 9 0ZM16.146 8.1H13.032C12.933 5.823 12.447 3.789 11.718 2.331C14.085 3.294 15.822 5.481 16.146 8.1ZM1.854 9.9H4.968C5.067 12.177 5.553 14.211 6.282 15.669C3.915 14.706 2.187 12.519 1.854 9.9ZM4.968 8.1H1.854C2.178 5.481 3.915 3.294 6.282 2.331C5.553 3.789 5.076 5.823 4.968 8.1ZM10.224 14.625C9.918 15.3 9.603 15.741 9.342 15.984C9.216 16.101 9.126 16.155 9.072 16.182C9.027 16.2 9.009 16.2 9 16.2C8.991 16.2 8.973 16.2 8.928 16.182C8.874 16.155 8.784 16.101 8.658 15.984C8.397 15.741 8.082 15.3 7.776 14.625C7.254 13.455 6.867 11.808 6.768 9.9H11.223C11.133 11.808 10.746 13.455 10.224 14.625ZM6.768 8.1C6.858 6.192 7.245 4.545 7.776 3.375C8.082 2.7 8.397 2.259 8.658 2.016C8.784 1.899 8.874 1.845 8.928 1.818C8.973 1.8 8.991 1.8 9 1.8C9.009 1.8 9.027 1.8 9.072 1.818C9.126 1.845 9.216 1.899 9.342 2.016C9.603 2.259 9.918 2.7 10.224 3.375C10.746 4.545 11.133 6.192 11.232 8.1H6.768ZM11.718 15.669C12.438 14.211 12.924 12.177 13.032 9.9H16.146C15.822 12.519 14.085 14.706 11.718 15.669Z" fill="white"/>
</g>
</svg>
