<svg xmlns="http://www.w3.org/2000/svg" width="17" height="17" viewBox="0 0 17 17" fill="none">
  <path fill-rule="evenodd" clip-rule="evenodd" d="M2.94736 1.73684C2.94736 1.33011 3.27747 1 3.6842 1C4.09094 1 4.42105 1.33011 4.42105 1.73684H8.84209C8.84209 1.33011 9.17219 1 9.57893 1C9.98567 1 10.3158 1.33011 10.3158 1.73684C11.9435 1.73684 13.2631 3.05653 13.2631 4.68421V5.13319C12.8559 5.04593 12.4333 5 12 5C11.2072 5 10.4502 5.15378 9.75745 5.43313L0 5.46675V4.68421C0 3.05653 1.31968 1.73684 2.94736 1.73684ZM7.62427 6.89474H0V12.0526C0 13.6803 1.31968 15 2.94736 15H7.52779C6.57771 13.9385 6 12.5367 6 11C6 9.41194 6.61696 7.96798 7.62427 6.89474Z" fill="#2F4553"/>
  <path fill-rule="evenodd" clip-rule="evenodd" d="M12 16C14.7614 16 17 13.7614 17 11C17 8.23858 14.7614 6 12 6C9.23858 6 7 8.23858 7 11C7 13.7614 9.23858 16 12 16ZM10.6123 10.2653C10.4183 10.1524 10.2588 10.0231 10.1508 9.89134C10.0925 9.82022 10.0465 9.7558 10.0217 9.71924C10.008 9.69925 10.0004 9.67267 10.0005 9.64504V9.29241C10.0096 8.90777 10.2389 8.56545 10.6467 8.32853C11.0111 8.11665 11.4917 8 11.9998 8C12.5078 8 12.9884 8.11665 13.3538 8.32853C13.7624 8.56598 13.9919 8.90911 14 9.29469V9.64504C14 9.67269 13.9924 9.69927 13.9787 9.71924C13.9535 9.7558 13.9074 9.82022 13.8492 9.89134C13.7412 10.0231 13.5817 10.1524 13.3881 10.2653C12.9797 10.5031 12.4609 10.6452 12.0002 10.6452C11.5396 10.6452 11.0207 10.5031 10.6123 10.2653ZM11.9998 13.2105C12.4747 13.2105 13.0189 13.0625 13.4749 12.7929C13.9309 12.5234 13.9995 12.3013 13.9995 12.3013V12.8129C13.9995 13.23 13.8265 13.3973 13.3523 13.6747C12.9888 13.8874 12.5076 14 11.9998 14C11.4919 14 11.0107 13.8874 10.6472 13.6747C10.1731 13.3973 10 13.23 10 12.8129V12.3013C10 12.3013 10.0672 12.5267 10.5246 12.7929C10.9819 13.0592 11.5248 13.2105 11.9998 13.2105ZM13.4749 10.5434C13.0477 10.7991 12.4747 10.961 11.9998 10.961C11.5248 10.961 10.9531 10.7967 10.5246 10.5434C10.0962 10.2902 10 10.0518 10 10.0518V10.6861C10.0008 10.7868 10.0529 10.903 10.1508 11.0226C10.2589 11.1544 10.4183 11.2838 10.6123 11.3966C11.0203 11.6346 11.5391 11.7768 11.9998 11.7768C12.4604 11.7768 12.9793 11.6348 13.3877 11.3968C13.5812 11.2841 13.7407 11.1547 13.8487 11.0229C13.9472 10.9024 13.9994 10.7857 13.9995 10.6845V10.0518C13.9995 10.0518 13.9021 10.2878 13.4749 10.5434ZM11.9998 12.0923C12.4747 12.0923 13.0189 11.9375 13.4749 11.6747C13.931 11.412 14 11.1831 14 11.1831V11.8042C13.9992 11.905 13.9471 12.0212 13.8492 12.1408C13.7412 12.2726 13.5817 12.4018 13.3882 12.5147C12.9797 12.7527 12.461 12.8947 12.0002 12.8947C11.5395 12.8947 11.0207 12.7527 10.6123 12.5147C10.4182 12.402 10.2588 12.2726 10.1508 12.1408C10.0523 12.0205 10 11.9036 10 11.8025V11.1831C10 11.1831 10.1059 11.4286 10.5246 11.6747C10.9434 11.9209 11.5248 12.0923 11.9998 12.0923Z" fill="#2F4553"/>
</svg>