<?xml version="1.0" standalone="no"?><!DOCTYPE svg PUBLIC "-//W3C//DTD SVG 1.1//EN" "http://www.w3.org/Graphics/SVG/1.1/DTD/svg11.dtd"><svg class="icon" width="200px" height="200.00px" viewBox="0 0 1024 1024" version="1.1" xmlns="http://www.w3.org/2000/svg"><path fill="#ffffff" d="M512 396.8c-32 0 19.2 96 0 115.2-19.2 19.2-115.2-32-115.2 0C396.8 576 448 627.2 512 627.2S627.2 576 627.2 512c0-57.6-38.4-115.2-115.2-115.2z"  /><path fill="#ffffff" d="M512 192C307.2 192 134.4 326.4 64 512c70.4 185.6 243.2 320 448 320s377.6-134.4 448-320c-70.4-185.6-243.2-320-448-320z m0 524.8c-115.2 0-204.8-89.6-204.8-204.8S403.2 307.2 512 307.2c115.2 0 204.8 89.6 204.8 204.8 0 115.2-96 204.8-204.8 204.8z"  /></svg>