<svg width="52" height="38" viewBox="0 0 52 38" fill="none" xmlns="http://www.w3.org/2000/svg">
<g clip-path="url(#clip0_11270_43221)">
<path d="M46 0H6C2.68629 0 0 2.68629 0 6V32C0 35.3137 2.68629 38 6 38H46C49.3137 38 52 35.3137 52 32V6C52 2.68629 49.3137 0 46 0Z" fill="#1475E1"/>
<g clip-path="url(#clip1_11270_43221)">
<path opacity="0.01" d="M12.2012 5.2002H39.8012V32.8002H12.2012V5.2002Z" fill="white"/>
<path d="M20.5451 13.8159C20.8728 11.2123 23.1735 9.1614 26.0038 9.1614C28.8341 9.1614 31.134 11.2131 31.4625 13.8159C31.4881 14.0154 31.5831 14.1996 31.731 14.3361C31.8788 14.4725 32.0701 14.5525 32.2711 14.5619L32.2813 14.5628C34.5341 14.7211 36.271 16.535 36.271 18.7013C36.271 20.9687 34.3673 22.851 31.9622 22.851H28.5706C28.3437 22.851 28.126 22.9411 27.9656 23.1016C27.8051 23.2621 27.715 23.4797 27.715 23.7066C27.715 23.9335 27.8051 24.1511 27.9656 24.3116C28.126 24.4721 28.3437 24.5622 28.5706 24.5622H31.9622C35.2614 24.5622 37.9822 21.9629 37.9822 18.7013C37.9822 15.8043 35.8346 13.4283 33.0428 12.9346C32.3215 9.77999 29.4279 7.4502 26.0038 7.4502C22.5797 7.4502 19.686 9.77999 18.9648 12.9346C16.1729 13.4283 14.0254 15.8043 14.0254 18.7013C14.0254 21.9629 16.7462 24.5622 20.0454 24.5622H23.437C23.6639 24.5622 23.8815 24.4721 24.042 24.3116C24.2024 24.1511 24.2926 23.9335 24.2926 23.7066C24.2926 23.4797 24.2024 23.2621 24.042 23.1016C23.8815 22.9411 23.6639 22.851 23.437 22.851H20.0454C17.6403 22.851 15.7366 20.9687 15.7366 18.7013C15.7366 16.5846 17.3947 14.8041 19.574 14.5765L19.7656 14.5602C19.961 14.5442 20.145 14.4615 20.2868 14.3259C20.4285 14.1904 20.5194 14.0104 20.5442 13.8159H20.5451ZM26.8594 16.8618C26.8594 16.7494 26.8373 16.6382 26.7943 16.5344C26.7513 16.4306 26.6882 16.3362 26.6088 16.2568C26.5293 16.1773 26.435 16.1143 26.3312 16.0713C26.2274 16.0283 26.1161 16.0062 26.0038 16.0062C25.8914 16.0062 25.7802 16.0283 25.6764 16.0713C25.5726 16.1143 25.4782 16.1773 25.3988 16.2568C25.3193 16.3362 25.2563 16.4306 25.2133 16.5344C25.1703 16.6382 25.1482 16.7494 25.1482 16.8618V27.6304L23.1863 25.6685C23.0249 25.5126 22.8088 25.4264 22.5845 25.4283C22.3601 25.4303 22.1455 25.5203 21.9869 25.6789C21.8283 25.8375 21.7383 26.0521 21.7363 26.2765C21.7344 26.5008 21.8206 26.7169 21.9765 26.8783L25.3989 30.3007C25.5593 30.4611 25.7769 30.5512 26.0038 30.5512C26.2307 30.5512 26.4483 30.4611 26.6087 30.3007L30.0311 26.8783C30.187 26.7169 30.2732 26.5008 30.2712 26.2765C30.2693 26.0521 30.1793 25.8375 30.0207 25.6789C29.862 25.5203 29.6474 25.4303 29.4231 25.4283C29.1988 25.4264 28.9826 25.5126 28.8213 25.6685L26.8594 27.6304V16.8618Z" fill="white"/>
</g>
</g>
<defs>
<clipPath id="clip0_11270_43221">
<rect width="52" height="38" fill="white"/>
</clipPath>
<clipPath id="clip1_11270_43221">
<rect width="27.6" height="27.6" fill="white" transform="translate(12.2012 5.2002)"/>
</clipPath>
</defs>
</svg>
