<svg xmlns="http://www.w3.org/2000/svg" width="40" height="40" viewBox="0 0 40 40" fill="none">
<circle opacity="0.5" cx="20" cy="20" r="18" fill="black"/>
<path d="M23.707 11.3605C23.8955 11.5856 24 11.8799 24 12.1854C24 12.4908 23.8955 12.7851 23.707 13.0103L17.6814 19.6095L23.707 26.2088C23.8184 26.4395 23.8592 26.7031 23.8237 26.9611C23.7882 27.2192 23.6782 27.4579 23.5097 27.6424C23.3412 27.8269 23.1232 27.9475 22.8876 27.9864C22.652 28.0253 22.4113 27.9805 22.2006 27.8586L15.3314 20.4839C15.1248 20.2482 15.0065 19.9362 15 19.6095C15.0026 19.2868 15.1218 18.9784 15.3314 18.7516L22.1253 11.3605C22.2289 11.2462 22.3521 11.1556 22.4879 11.0937C22.6236 11.0318 22.7692 11 22.9162 11C23.0632 11 23.2088 11.0318 23.3445 11.0937C23.4802 11.1556 23.6034 11.2462 23.707 11.3605Z" fill="white"/>
</svg>