<svg width="18" height="18" viewBox="0 0 18 18" fill="none" xmlns="http://www.w3.org/2000/svg">
<g clip-path="url(#clip0_6031_5897)">
<circle cx="9" cy="9" r="8.35714" stroke="#B1BAD3" stroke-width="1.28571"/>
<path d="M8.99977 12.2216C6.73103 12.2216 4.76635 11.1344 3.84082 9.5625C4.20402 11.589 6.37194 13.1481 8.99988 13.1481C11.6276 13.1481 13.7956 11.5892 14.1587 9.5625C13.2333 11.1344 11.2685 12.2216 8.99977 12.2216Z" fill="#B1BAD3"/>
<path d="M8.99977 13.7628C6.73103 13.7628 4.76635 12.6758 3.84082 11.1039C4.20402 13.1304 6.37194 14.6895 8.99988 14.6895C11.6276 14.6895 13.7956 13.1304 14.1587 11.1039C13.2333 12.6758 11.2685 13.7628 8.99977 13.7628ZM8.8513 9.10445C9.0028 9.11874 9.14076 9.11961 9.26496 9.10878C9.38906 9.09795 9.4993 9.07543 9.59547 9.04273C9.69152 9.01002 9.77328 8.96735 9.84063 8.91603C9.90799 8.86491 9.96083 8.80514 9.99885 8.73864C10.0319 8.68103 10.0461 8.62105 10.0419 8.5591C10.0378 8.49716 10.0154 8.43328 9.97503 8.36743C9.93475 8.3018 9.87649 8.23423 9.80069 8.16493C9.7251 8.09584 9.63198 8.02524 9.52174 7.95312L8.8513 9.10445Z" fill="#B1BAD3"/>
<path d="M9.02797 11.5957C11.9101 11.5957 14.2465 9.72211 14.2465 7.41124C14.2465 5.10016 11.9101 3.22656 9.02797 3.22656C6.14599 3.22656 3.80957 5.10017 3.80957 7.41124C3.80957 9.72212 6.14599 11.5957 9.02797 11.5957ZM5.88773 7.72528L7.2592 7.9241C7.25703 8.01679 7.26549 8.1056 7.28583 8.19027C7.3063 8.27495 7.33878 8.35531 7.38471 8.4311C7.43072 8.5069 7.49017 8.57816 7.56457 8.64421C7.63907 8.71048 7.72863 8.77176 7.83443 8.82743L8.64031 7.47297C8.31859 7.29516 8.05945 7.12839 7.8562 6.97116C7.65359 6.81435 7.50654 6.66688 7.40854 6.52696C7.31086 6.38749 7.26192 6.25559 7.25531 6.12976C7.24881 6.00414 7.28444 5.88459 7.35591 5.76938C7.46246 5.59764 7.60887 5.45599 7.78755 5.34337C7.96579 5.23118 8.17642 5.14758 8.41183 5.09127C8.64702 5.03517 8.90735 5.00637 9.18555 5.00399C9.46363 5.00161 9.75991 5.02544 10.067 5.07459L10.3088 4.6683L11.3006 4.89657L11.0531 5.32171C11.292 5.40314 11.4971 5.49605 11.6702 5.59935C11.8438 5.70309 11.9854 5.81723 12.0973 5.94133C12.2094 6.06564 12.2916 6.1997 12.3459 6.34308C12.4003 6.48667 12.4267 6.63957 12.427 6.80071L11.0954 6.60514C11.0801 6.54882 11.0618 6.49404 11.0385 6.44076C11.0153 6.3877 10.9871 6.33615 10.9523 6.28677C10.9174 6.23717 10.8758 6.18996 10.8257 6.14491C10.7756 6.10008 10.7169 6.05763 10.6477 6.01799L9.92852 7.25291C10.2656 7.42704 10.5397 7.59012 10.7563 7.74584C10.9736 7.90199 11.1331 8.05056 11.2403 8.19524C11.3479 8.34034 11.403 8.48133 11.4112 8.62189C11.4195 8.76288 11.3808 8.90344 11.3008 9.04724C11.2098 9.21098 11.0781 9.35521 10.9085 9.47628C10.7386 9.59735 10.5308 9.69503 10.288 9.76476C10.0449 9.83449 9.76696 9.87608 9.45758 9.88539C9.14799 9.89449 8.80721 9.87153 8.4387 9.81176L8.17003 10.2731L7.12484 10.0205L7.40195 9.55446C7.12213 9.45613 6.88185 9.34178 6.68021 9.21292C6.47901 9.08449 6.31658 8.94155 6.19183 8.78648C6.06741 8.63163 5.98056 8.46444 5.93032 8.28663C5.88014 8.10949 5.86628 7.92171 5.88773 7.72528Z" fill="#B1BAD3"/>
<path d="M9.04824 6.7886L9.67436 5.73604C9.5416 5.72391 9.41783 5.72369 9.30456 5.73387C9.19129 5.74404 9.08864 5.76483 8.998 5.79429C8.90736 5.82375 8.82885 5.86208 8.76421 5.90756C8.69945 5.95304 8.64866 6.00588 8.61337 6.06437C8.58294 6.11461 8.56735 6.16725 8.56788 6.22247C8.56842 6.27748 8.5851 6.33531 8.61943 6.39551C8.65375 6.45572 8.70574 6.51853 8.77666 6.58394C8.84758 6.64957 8.93768 6.71778 9.04824 6.7886Z" fill="#B1BAD3"/>
<circle cx="9" cy="9" r="8.35714" stroke="#2F4553" stroke-width="1.28571"/>
<path d="M8.99977 12.2216C6.73103 12.2216 4.76635 11.1344 3.84082 9.5625C4.20402 11.589 6.37194 13.1481 8.99988 13.1481C11.6276 13.1481 13.7956 11.5892 14.1587 9.5625C13.2333 11.1344 11.2685 12.2216 8.99977 12.2216Z" fill="#2F4553"/>
<path d="M8.99977 13.7628C6.73103 13.7628 4.76635 12.6758 3.84082 11.1039C4.20402 13.1304 6.37194 14.6895 8.99988 14.6895C11.6276 14.6895 13.7956 13.1304 14.1587 11.1039C13.2333 12.6758 11.2685 13.7628 8.99977 13.7628ZM8.8513 9.10445C9.0028 9.11874 9.14076 9.11961 9.26496 9.10878C9.38906 9.09795 9.4993 9.07543 9.59547 9.04273C9.69152 9.01002 9.77328 8.96735 9.84063 8.91603C9.90799 8.86491 9.96083 8.80514 9.99885 8.73864C10.0319 8.68103 10.0461 8.62105 10.0419 8.5591C10.0378 8.49716 10.0154 8.43328 9.97503 8.36743C9.93475 8.3018 9.87649 8.23423 9.80069 8.16493C9.7251 8.09584 9.63198 8.02524 9.52174 7.95312L8.8513 9.10445Z" fill="#2F4553"/>
<path d="M9.02797 11.5957C11.9101 11.5957 14.2465 9.72211 14.2465 7.41124C14.2465 5.10016 11.9101 3.22656 9.02797 3.22656C6.14599 3.22656 3.80957 5.10017 3.80957 7.41124C3.80957 9.72212 6.14599 11.5957 9.02797 11.5957ZM5.88773 7.72528L7.2592 7.9241C7.25703 8.01679 7.26549 8.1056 7.28583 8.19027C7.3063 8.27495 7.33878 8.35531 7.38471 8.4311C7.43072 8.5069 7.49017 8.57816 7.56457 8.64421C7.63907 8.71048 7.72863 8.77176 7.83443 8.82743L8.64031 7.47297C8.31859 7.29516 8.05945 7.12839 7.8562 6.97116C7.65359 6.81435 7.50654 6.66688 7.40854 6.52696C7.31086 6.38749 7.26192 6.25559 7.25531 6.12976C7.24881 6.00414 7.28444 5.88459 7.35591 5.76938C7.46246 5.59764 7.60887 5.45599 7.78755 5.34337C7.96579 5.23118 8.17642 5.14758 8.41183 5.09127C8.64702 5.03517 8.90735 5.00637 9.18555 5.00399C9.46363 5.00161 9.75991 5.02544 10.067 5.07459L10.3088 4.6683L11.3006 4.89657L11.0531 5.32171C11.292 5.40314 11.4971 5.49605 11.6702 5.59935C11.8438 5.70309 11.9854 5.81723 12.0973 5.94133C12.2094 6.06564 12.2916 6.1997 12.3459 6.34308C12.4003 6.48667 12.4267 6.63957 12.427 6.80071L11.0954 6.60514C11.0801 6.54882 11.0618 6.49404 11.0385 6.44076C11.0153 6.3877 10.9871 6.33615 10.9523 6.28677C10.9174 6.23717 10.8758 6.18996 10.8257 6.14491C10.7756 6.10008 10.7169 6.05763 10.6477 6.01799L9.92852 7.25291C10.2656 7.42704 10.5397 7.59012 10.7563 7.74584C10.9736 7.90199 11.1331 8.05056 11.2403 8.19524C11.3479 8.34034 11.403 8.48133 11.4112 8.62189C11.4195 8.76288 11.3808 8.90344 11.3008 9.04724C11.2098 9.21098 11.0781 9.35521 10.9085 9.47628C10.7386 9.59735 10.5308 9.69503 10.288 9.76476C10.0449 9.83449 9.76696 9.87608 9.45758 9.88539C9.14799 9.89449 8.80721 9.87153 8.4387 9.81176L8.17003 10.2731L7.12484 10.0205L7.40195 9.55446C7.12213 9.45613 6.88185 9.34178 6.68021 9.21292C6.47901 9.08449 6.31658 8.94155 6.19183 8.78648C6.06741 8.63163 5.98056 8.46444 5.93032 8.28663C5.88014 8.10949 5.86628 7.92171 5.88773 7.72528Z" fill="#2F4553"/>
<path d="M9.04824 6.7886L9.67436 5.73604C9.5416 5.72391 9.41783 5.72369 9.30456 5.73387C9.19129 5.74404 9.08864 5.76483 8.998 5.79429C8.90736 5.82375 8.82885 5.86208 8.76421 5.90756C8.69945 5.95304 8.64866 6.00588 8.61337 6.06437C8.58294 6.11461 8.56735 6.16725 8.56788 6.22247C8.56842 6.27748 8.5851 6.33531 8.61943 6.39551C8.65375 6.45572 8.70574 6.51853 8.77666 6.58394C8.84758 6.64957 8.93768 6.71778 9.04824 6.7886Z" fill="#2F4553"/>
</g>
<defs>
<clipPath id="clip0_6031_5897">
<rect width="18" height="18" fill="white"/>
</clipPath>
</defs>
</svg>
