<svg width="19" height="20" viewBox="0 0 19 20" fill="none" xmlns="http://www.w3.org/2000/svg">
<path d="M12.7654 14.7173C11.6633 15.5044 10.313 15.8647 8.96535 15.7315C8.90242 15.7255 8.84067 15.7148 8.77654 15.7065C8.65542 15.6899 8.53429 15.6745 8.41673 15.6507C8.34425 15.636 8.27218 15.6194 8.2006 15.6008C8.08516 15.5753 7.97069 15.5456 7.85742 15.5118C7.80398 15.4952 7.75054 15.4762 7.69592 15.4572C7.53691 15.4041 7.38039 15.3439 7.22685 15.2767C7.07929 15.2123 6.93467 15.1413 6.79342 15.0641L6.77442 15.0546C6.14138 14.7019 5.58025 14.2334 5.12023 13.6735C5.09767 13.6462 5.07629 13.6153 5.05373 13.5868C4.2445 12.5654 3.80464 11.3002 3.80567 9.99703H5.12617C5.14355 9.99704 5.1606 9.99229 5.17546 9.98329C5.19033 9.97428 5.20244 9.96137 5.21048 9.94596C5.21882 9.9309 5.22279 9.9138 5.22195 9.8966C5.22111 9.8794 5.2155 9.86277 5.20573 9.84859L2.98867 6.47846C2.98009 6.46498 2.96824 6.45387 2.95423 6.44618C2.94022 6.43849 2.9245 6.43445 2.90851 6.43445C2.89253 6.43445 2.8768 6.43849 2.86279 6.44618C2.84878 6.45387 2.83693 6.46498 2.82835 6.47846L0.610105 9.84859C0.591105 9.8759 0.587542 9.9139 0.605355 9.94596C0.623167 9.97803 0.65523 9.99703 0.689667 9.99703H2.01017C2.01017 11.593 2.50179 13.0715 3.33542 14.2934C3.3461 14.3112 3.35323 14.329 3.36392 14.3457C3.4506 14.4703 3.54679 14.5867 3.63942 14.7055C3.67385 14.7494 3.7071 14.7957 3.74273 14.8397C3.87929 15.0083 4.02417 15.1638 4.17379 15.3194L4.21535 15.3622C4.86856 16.0256 5.64135 16.5594 6.49298 16.9356L6.63073 16.9973C6.78867 17.0638 6.95254 17.122 7.11523 17.1778C7.19242 17.204 7.26842 17.2313 7.34679 17.255C7.49048 17.2978 7.63654 17.3334 7.78379 17.369C7.88235 17.3928 7.97854 17.4177 8.07948 17.4367C8.11985 17.4462 8.15904 17.4581 8.2006 17.464C8.33954 17.489 8.47848 17.5032 8.6186 17.5198L8.76823 17.5412C10.5515 17.723 12.3399 17.2484 13.7985 16.2065C13.9939 16.0665 14.1265 15.8555 14.1678 15.6187C14.2091 15.3819 14.1558 15.1384 14.0194 14.9406C13.9525 14.8426 13.8667 14.759 13.7671 14.6946C13.6675 14.6302 13.556 14.5864 13.4392 14.5656C13.3225 14.5448 13.2027 14.5475 13.087 14.5736C12.9713 14.5996 12.8619 14.6485 12.7654 14.7173ZM16.9917 9.99703C16.9929 8.46793 16.5331 6.97397 15.6724 5.71015C15.6593 5.68878 15.651 5.6674 15.6391 5.64959C15.5347 5.50343 15.4254 5.36085 15.3114 5.22209L15.2722 5.17103C14.5241 4.24847 13.5655 3.51907 12.4768 3.04421C12.4469 3.03085 12.4172 3.01699 12.3877 3.00265C12.2144 2.93208 12.0389 2.86674 11.8617 2.80671C11.794 2.78534 11.731 2.76159 11.6645 2.74259C11.5093 2.696 11.3524 2.65481 11.1943 2.61909C11.1076 2.5989 11.0197 2.57634 10.9307 2.55853C10.8867 2.55021 10.8464 2.53715 10.8024 2.52884C10.6837 2.50746 10.5649 2.49915 10.4462 2.48371C10.3654 2.47303 10.2835 2.45996 10.2015 2.45165C10.0041 2.43409 9.80602 2.42419 9.60779 2.42196C9.57217 2.42196 9.53654 2.41603 9.49973 2.41603C7.95989 2.41341 6.45789 2.89304 5.20454 3.78759C5.00862 3.92736 4.87552 4.13858 4.83397 4.37563C4.79242 4.61269 4.84577 4.85658 4.98248 5.05465C5.04958 5.15237 5.13546 5.23576 5.23512 5.29994C5.33478 5.36413 5.44622 5.40783 5.56294 5.4285C5.67966 5.44917 5.79933 5.44639 5.91497 5.42033C6.03061 5.39427 6.1399 5.34545 6.23648 5.27671C7.34094 4.48997 8.69291 4.12973 10.0424 4.26259L10.1932 4.28396C10.3298 4.2994 10.464 4.31959 10.5958 4.34571C10.654 4.3564 10.7122 4.37184 10.7692 4.3849C10.8986 4.41459 11.0292 4.44665 11.1551 4.48465L11.2739 4.52621C11.4187 4.57371 11.56 4.62478 11.7002 4.68415L11.7441 4.70434C12.5813 5.0689 13.3164 5.63059 13.8899 6.33359L13.9006 6.34784C14.7392 7.37937 15.196 8.6688 15.1938 9.99821H13.8745C13.8571 9.99803 13.84 10.0026 13.8251 10.0114C13.8102 10.0203 13.7979 10.033 13.7897 10.0483C13.7815 10.0636 13.7777 10.0809 13.7786 10.0982C13.7795 10.1155 13.7852 10.1323 13.7949 10.1467L16.0144 13.5156C16.023 13.5288 16.0348 13.5397 16.0487 13.5472C16.0626 13.5547 16.0781 13.5587 16.0939 13.5587C16.1097 13.5587 16.1253 13.5547 16.1392 13.5472C16.153 13.5397 16.1648 13.5288 16.1735 13.5156L18.3905 10.1467C18.4069 10.1465 18.4229 10.1421 18.437 10.1339C18.4512 10.1258 18.463 10.1141 18.4713 10.1C18.4796 10.0859 18.4842 10.07 18.4845 10.0537C18.4848 10.0373 18.481 10.0212 18.4733 10.0068C18.4655 9.99238 18.4542 9.98022 18.4404 9.97146C18.4267 9.9627 18.4108 9.95765 18.3945 9.95679C18.3782 9.95593 18.362 9.95929 18.3473 9.96654C18.3327 9.9738 18.3202 9.98471 18.311 9.99821H16.9917V9.99703Z" fill="white"/>
</svg>
