<svg width="40" height="40" viewBox="0 0 40 40" fill="none" xmlns="http://www.w3.org/2000/svg">
<g id="zuo- 2">
<circle id="Ellipse 244" opacity="0.5" cx="18" cy="18" r="18" transform="matrix(-1 0 0 1 38 2)" fill="black"/>
<path id="Vector" d="M16.293 11.3605C16.1045 11.5856 16 11.8799 16 12.1854C16 12.4908 16.1045 12.7851 16.293 13.0103L22.3186 19.6095L16.293 26.2088C16.1816 26.4395 16.1408 26.7031 16.1763 26.9611C16.2118 27.2192 16.3218 27.4579 16.4903 27.6424C16.6588 27.8269 16.8768 27.9475 17.1124 27.9864C17.348 28.0253 17.5887 27.9805 17.7994 27.8586L24.6686 20.4839C24.8752 20.2482 24.9935 19.9362 25 19.6095C24.9974 19.2868 24.8782 18.9784 24.6686 18.7516L17.8747 11.3605C17.7711 11.2462 17.6479 11.1556 17.5121 11.0937C17.3764 11.0318 17.2308 11 17.0838 11C16.9368 11 16.7912 11.0318 16.6555 11.0937C16.5198 11.1556 16.3966 11.2462 16.293 11.3605Z" fill="white"/>
</g>
</svg>
