<svg xmlns="http://www.w3.org/2000/svg" width="23" height="23" viewBox="0 0 23 23" fill="none">
  <path d="M11.4492 0.75C5.37378 0.75 0.449219 5.67456 0.449219 11.75C0.449219 17.8254 5.37378 22.75 11.4492 22.75C17.5247 22.75 22.4492 17.8254 22.4492 11.75C22.4492 5.67456 17.5247 0.75 11.4492 0.75ZM13.2505 18.515H9.64797V11.2963H13.2505V18.515ZM11.4492 9.1925C10.2873 9.1925 9.34547 8.25063 9.34547 7.08875C9.34547 5.92688 10.2873 4.985 11.4492 4.985C12.6111 4.985 13.553 5.92688 13.553 7.08875C13.553 7.09288 13.553 7.09769 13.553 7.1025C13.553 8.25681 12.6173 9.1925 11.463 9.1925C11.4582 9.1925 11.454 9.1925 11.4492 9.1925Z" fill="#444444"/>
</svg>