<svg width="15" height="17" viewBox="0 0 15 17" fill="none" xmlns="http://www.w3.org/2000/svg">
<path d="M11.6463 3.97408C10.8735 4.69135 9.65927 5.24319 8.66608 5.24319C8.16915 5.24319 7.78273 5.13335 7.50681 4.85742C6.62412 4.029 7.28581 2.04196 8.44508 0.938269C9.10742 0.330846 9.93585 0 10.7074 0C11.2599 0 11.7568 0.165423 12.1432 0.496923C13.0259 1.37962 12.8056 2.92531 11.6463 3.97408ZM11.2605 1.43519C11.0945 1.26977 10.8185 1.26977 10.708 1.26977C10.2111 1.26977 9.71419 1.49012 9.27285 1.87654C8.5 2.59446 8.22408 3.69815 8.33458 3.91915C8.33458 3.91915 8.44508 3.97408 8.6105 3.97408C9.27285 3.97408 10.2111 3.58765 10.763 3.03581C11.205 2.59446 11.3704 2.15312 11.3704 1.82162C11.4253 1.60062 11.3148 1.49012 11.2599 1.43519H11.2605ZM7.39631 4.85742C7.12038 5.13335 6.67904 5.24319 6.23704 5.24319C5.24319 5.24319 4.02965 4.74627 3.25681 3.97408C2.09754 2.92531 1.87719 1.37962 2.75988 0.496923C3.14631 0.165423 3.64258 0 4.19508 0C4.96792 0 5.79569 0.330846 6.45738 0.938269C7.61731 2.04196 8.33458 4.029 7.39631 4.85742ZM5.63027 1.87654C5.24385 1.49077 4.692 1.26977 4.19508 1.26977C4.02965 1.26977 3.80865 1.26977 3.64323 1.43519C3.58765 1.49012 3.47715 1.60062 3.47715 1.87654C3.47715 2.15246 3.64323 2.64938 4.08458 3.09073C4.63642 3.58765 5.57535 4.029 6.23704 4.029C6.45804 4.029 6.56854 3.97408 6.56854 3.97408C6.67904 3.69815 6.40246 2.59446 5.63027 1.87654ZM8.05865 10.2111V4.5815H13.6333C14.2957 4.5815 14.8475 5.13335 14.8475 5.85062V10.2111H8.05931H8.05865ZM13.6333 17H8.05865V11.4253H14.9025V15.7858C14.9025 16.4482 14.3506 17 13.6333 17ZM0.000653799 10.2111V5.85062C0.000653799 5.18827 0.551846 4.58085 1.26912 4.58085H6.84446V10.1555H0V10.2111H0.000653799ZM1.26846 17C0.606769 17 0 16.4482 0 15.7302V11.3704H6.84381V16.9451H1.26977V17H1.26846Z" fill="white"/>
</svg>
