<svg width="18" height="18" viewBox="0 0 18 18" fill="none" xmlns="http://www.w3.org/2000/svg">
<g clip-path="url(#clip0_427_3130)">
<path d="M9.4769 6.575L9.00229 4.26172L8.56284 6.56797C8.08472 6.6541 7.62417 6.88262 7.25503 7.25176C6.28999 8.2168 6.28999 9.78125 7.25503 10.7463C8.22007 11.7113 9.78452 11.7113 10.7496 10.7463C11.7146 9.78125 11.7146 8.2168 10.7496 7.25176C10.3875 6.89141 9.94272 6.66641 9.4769 6.575Z" fill="#2F4553"/>
<path d="M9 0C4.02891 0 0 4.02891 0 9C0 13.9711 4.02891 18 9 18C13.9711 18 18 13.9711 18 9C18 4.02891 13.9711 0 9 0ZM14.5687 14.5687L11.0654 11.0637C10.6893 11.4381 10.2357 11.6912 9.75762 11.8195L11.0408 16.6096C10.3799 16.7871 9.69785 16.875 9.00176 16.875C8.30566 16.875 7.62363 16.7854 6.9627 16.6096L8.2459 11.8195C7.76777 11.693 7.31426 11.4398 6.93809 11.0637L3.43125 14.5687C2.70703 13.8445 2.13926 13.0025 1.74375 12.0656C1.60137 11.7299 1.48359 11.3871 1.39043 11.0391L6.17871 9.75586C6.04688 9.26016 6.04688 8.73809 6.17871 8.24414L1.39043 6.96094C1.48359 6.61289 1.60137 6.27012 1.74375 5.93438C2.14102 4.99746 2.70879 4.15371 3.43125 3.43125L6.93457 6.93457C7.31074 6.56016 7.76426 6.30703 8.24238 6.17871L6.96094 1.39043C7.62187 1.21465 8.30391 1.125 9 1.125C9.69609 1.125 10.3781 1.21465 11.0391 1.39043L9.75586 6.17871C10.234 6.30703 10.6875 6.5584 11.0637 6.93457L14.567 3.42949C15.2912 4.15371 15.859 4.9957 16.2545 5.93262C16.3969 6.26836 16.5146 6.61113 16.6078 6.95918L11.8178 8.24238C11.9496 8.73633 11.9496 9.2584 11.8178 9.7541L16.6078 11.0373C16.5146 11.3854 16.3969 11.7281 16.2545 12.0639C15.8607 13.0025 15.2912 13.8445 14.5687 14.5687Z" fill="#2F4553"/>
</g>
<defs>
<clipPath id="clip0_427_3130">
<rect width="18" height="18" fill="white"/>
</clipPath>
</defs>
</svg>
